<?xml version="1.0" encoding="utf-8"?>
<!-- Generator: Adobe Illustrator 25.2.1, SVG Export Plug-In . SVG Version: 6.00 Build 0)  -->
<svg version="1.1" id="Layer_1" xmlns="http://www.w3.org/2000/svg" xmlns:xlink="http://www.w3.org/1999/xlink" x="0px" y="0px"
	 viewBox="0 0 240 112" style="enable-background:new 0 0 240 112;" xml:space="preserve">
<style type="text/css">
	.st0{fill:none;}
	.st1{fill:#0069A7;}
	.st2{fill:#76BC21;}
</style>
<g id="border_box">
	<rect class="st0" width="240" height="112"/>
</g>
<g>
	<path class="st1" d="M0,58V28h25.66c2.38,0,4.11,0.46,5.18,1.38s1.6,2.4,1.6,4.44v6.7c0,2.03-0.53,3.5-1.6,4.41
		c-1.07,0.92-2.8,1.38-5.18,1.38H6.87V58H0z M22.56,33.19H6.87v7.95h15.7c1.21,0,2.04-0.18,2.48-0.53c0.44-0.35,0.67-0.97,0.67-1.86
		v-3.21c0-0.87-0.22-1.48-0.67-1.83C24.6,33.37,23.77,33.19,22.56,33.19"/>
	<path class="st1" d="M44.8,28v24.35h19.9V28h6.95v22.91c0,2.74-0.51,4.61-1.53,5.61C69.09,57.5,67.13,58,64.21,58H45.25
		c-2.89,0-4.86-0.5-5.89-1.49s-1.55-2.86-1.55-5.61V28H44.8z"/>
	<path class="st1" d="M77.68,58V28h25.66c2.38,0,4.11,0.46,5.18,1.38s1.6,2.4,1.6,4.44v7.04c0,2.03-0.53,3.5-1.6,4.43
		s-2.8,1.39-5.18,1.39h-3.92L113.27,58h-10.02L91.16,46.68h-6.61V58H77.68z M100.24,33.19h-15.7v8.34h15.7
		c1.21,0,2.04-0.17,2.48-0.52c0.44-0.35,0.67-0.97,0.67-1.86v-3.61c0-0.87-0.22-1.48-0.67-1.83
		C102.28,33.37,101.45,33.19,100.24,33.19"/>
	<polygon class="st2" points="135.48,33.36 135.48,58 128.49,58 128.49,33.36 114.73,33.36 114.73,28 149.3,28 149.3,33.36 	"/>
	<polygon class="st2" points="154.11,58 154.11,28 184.82,28 184.82,33.11 161.09,33.11 161.09,39.81 174.94,39.81 174.94,44.92 
		161.09,44.92 161.09,52.35 185.1,52.35 185.1,58 	"/>
	<path class="st2" d="M191.01,35.1c0-2.73,0.51-4.59,1.53-5.59s2.99-1.5,5.9-1.5h22.08c2.91,0,4.88,0.5,5.9,1.5
		c1.02,1,1.53,2.87,1.53,5.59v15.8c0,2.74-0.51,4.61-1.53,5.61c-1.02,0.99-2.99,1.49-5.9,1.49h-3.24l3.77,7.72h-6.93L210.77,58
		h-12.32c-2.92,0-4.88-0.5-5.9-1.49c-1.02-0.99-1.53-2.86-1.53-5.61V35.1H191.01z M198,52.35h10.27l-2.78-6.5l5.05-2.04l4.06,8.54
		h6.41V33.36H198V52.35z"/>
	<path class="st2" d="M229.69,28.01c0-0.33,0.06-0.64,0.19-0.92c0.12-0.29,0.3-0.54,0.51-0.75c0.22-0.21,0.47-0.38,0.76-0.51
		s0.6-0.19,0.92-0.19c0.33,0,0.63,0.06,0.92,0.19c0.29,0.13,0.54,0.29,0.76,0.51c0.22,0.21,0.39,0.46,0.51,0.75s0.19,0.6,0.19,0.92
		c0,0.33-0.06,0.63-0.19,0.92s-0.3,0.53-0.51,0.75c-0.22,0.21-0.47,0.38-0.76,0.5s-0.6,0.18-0.92,0.18c-0.33,0-0.64-0.06-0.92-0.18
		c-0.29-0.12-0.54-0.29-0.76-0.5s-0.39-0.46-0.51-0.75C229.76,28.64,229.69,28.34,229.69,28.01 M230.07,28.01
		c0,0.27,0.05,0.53,0.16,0.77c0.1,0.24,0.25,0.46,0.43,0.64s0.39,0.33,0.64,0.43c0.24,0.1,0.5,0.16,0.78,0.16s0.54-0.05,0.78-0.16
		c0.24-0.1,0.46-0.25,0.64-0.43s0.32-0.4,0.43-0.64c0.1-0.24,0.16-0.5,0.16-0.77c0-0.28-0.05-0.54-0.16-0.78
		c-0.1-0.24-0.25-0.46-0.43-0.64s-0.39-0.32-0.64-0.43c-0.24-0.1-0.5-0.16-0.78-0.16s-0.54,0.05-0.78,0.16
		c-0.24,0.1-0.46,0.25-0.64,0.43s-0.32,0.39-0.43,0.64C230.12,27.47,230.07,27.73,230.07,28.01 M231.14,26.66h0.94
		c0.13,0,0.25,0.01,0.37,0.04s0.22,0.07,0.32,0.14c0.09,0.06,0.17,0.14,0.22,0.24c0.06,0.1,0.08,0.22,0.08,0.37
		c0,0.2-0.06,0.35-0.17,0.47c-0.11,0.12-0.26,0.2-0.45,0.25l0.72,1.17h-0.58l-0.63-1.12h-0.34v1.12h-0.48L231.14,26.66L231.14,26.66
		z M232.01,27.83c0.14,0,0.27-0.03,0.4-0.08c0.13-0.05,0.19-0.16,0.19-0.32c0-0.15-0.06-0.24-0.17-0.29
		c-0.11-0.05-0.23-0.07-0.36-0.07h-0.44v0.76H232.01z"/>
</g>
<g>
	<path d="M0.98,69.54c0.04,0.29,0.06,0.66,0.06,1.1v5.05h-1.06v-7.5H1l3.65,4.88l3.4-4.88H9.2v7.5H8.04v-5.05l0.06-1.1
		c-0.16,0.35-0.31,0.62-0.45,0.81l-2.86,4.17H4.47l-2.98-4.05C1.37,70.32,1.2,70.01,0.98,69.54z"/>
	<path d="M11.92,71.01c0-0.56,0.11-0.95,0.32-1.15c0.21-0.21,0.61-0.31,1.19-0.31h4.44c0.58,0,0.98,0.1,1.19,0.31
		c0.21,0.21,0.32,0.59,0.32,1.15v3.24c0,0.56-0.11,0.94-0.32,1.15c-0.21,0.2-0.61,0.3-1.19,0.3h-4.44c-0.59,0-0.99-0.1-1.2-0.3
		c-0.21-0.2-0.31-0.58-0.31-1.15V71.01z M13.08,74.79h5.14v-4.33h-5.14V74.79z"/>
	<path d="M22.02,75.7v-6.16h4.96c0.86,0,1.3,0.4,1.3,1.19v1.38c0,0.78-0.43,1.18-1.3,1.18h-0.82l2.72,2.41h-1.55l-2.46-2.41h-1.69
		v2.41H22.02z M26.46,70.46h-3.28v1.98h3.28c0.31,0,0.5-0.07,0.58-0.22c0.05-0.09,0.07-0.22,0.07-0.4v-0.73
		C27.11,70.67,26.9,70.46,26.46,70.46z"/>
	<path d="M30.85,75.7v-6.16h6.2v0.92h-5.04v1.58h3.04v0.92h-3.04v1.84h5.1v0.9C37.11,75.7,30.85,75.7,30.85,75.7z"/>
	<path d="M51.04,69.21h-5.87v5.45h5.87v-2.19H48v-0.96h4.29v2.43c0,0.69-0.12,1.15-0.37,1.4s-0.71,0.37-1.39,0.37h-4.85
		c-0.68,0-1.14-0.12-1.39-0.37s-0.37-0.71-0.37-1.4v-3.95c0-0.69,0.12-1.15,0.37-1.4s0.71-0.37,1.39-0.37h4.85
		c0.66,0,1.12,0.12,1.37,0.35c0.26,0.23,0.39,0.67,0.39,1.32v0.19l-1.25,0.25V69.21z"/>
	<path d="M55.3,75.7v-6.16h4.96c0.86,0,1.3,0.4,1.3,1.19v1.38c0,0.78-0.43,1.18-1.3,1.18h-0.82l2.72,2.41h-1.55l-2.46-2.41h-1.69
		v2.41H55.3z M59.74,70.46h-3.28v1.98h3.28c0.31,0,0.5-0.07,0.58-0.22c0.05-0.09,0.07-0.22,0.07-0.4v-0.73
		C60.4,70.67,60.18,70.46,59.74,70.46z"/>
	<path d="M64.13,75.7v-6.16h6.2v0.92h-5.04v1.58h3.04v0.92h-3.04v1.84h5.1v0.9C70.39,75.7,64.13,75.7,64.13,75.7z"/>
	<path d="M72.5,75.7v-6.16h6.2v0.92h-5.04v1.58h3.04v0.92h-3.04v1.84h5.1v0.9C78.76,75.7,72.5,75.7,72.5,75.7z"/>
	<path d="M81.85,70.78c0.06,0.36,0.09,0.73,0.09,1.1v3.82h-1.07v-6.16h0.89l4.52,4.02c0.28,0.25,0.53,0.53,0.74,0.84
		c-0.07-0.37-0.1-0.75-0.1-1.15v-3.72h1.07v6.16h-0.8l-4.6-4.08C82.27,71.35,82.02,71.07,81.85,70.78z"/>
	<path d="M92.27,74.11c0.18,0,0.3,0.02,0.36,0.06c0.05,0.04,0.08,0.15,0.08,0.33v1.1l-1.02,1.52h-0.64l0.86-1.57h-0.49
		c-0.2,0-0.3-0.13-0.3-0.39V74.5c0-0.18,0.02-0.3,0.07-0.33c0.05-0.04,0.17-0.06,0.36-0.06H92.27z"/>
	<path d="M99.31,75.7l4.1-7.5h1.34l4.17,7.5h-1.38l-0.96-1.85h-5.07l-0.96,1.85H99.31z M102.03,72.9h4.04l-2.02-3.83L102.03,72.9z"
		/>
	<path d="M110.74,75.7v-6.16h1.16v5.23h4.79v0.93H110.74z"/>
	<path d="M118.44,75.7v-6.16h1.16v5.23h4.79v0.93H118.44z"/>
	<path d="M137.3,69.21h-5.2v5.45h5.2v-1.87l1.25,0.26v0.89c0,0.7-0.12,1.17-0.36,1.41c-0.24,0.24-0.7,0.36-1.38,0.36h-4.2
		c-0.68,0-1.14-0.12-1.39-0.37s-0.37-0.71-0.37-1.4v-3.95c0-0.69,0.12-1.15,0.37-1.4s0.71-0.37,1.39-0.37h4.2
		c0.68,0,1.14,0.12,1.38,0.36s0.36,0.71,0.36,1.4v0.71l-1.25,0.23V69.21z"/>
	<path d="M141.25,75.7v-6.16h1.16v5.23h4.79v0.93H141.25z"/>
	<path d="M148.95,75.7v-6.16h6.2v0.92h-5.04v1.58h3.04v0.92h-3.04v1.84h5.1v0.9C155.21,75.7,148.95,75.7,148.95,75.7z"/>
	<path d="M156.32,75.7l3.56-6.16h1.06l3.65,6.16h-1.26l-0.8-1.44h-4.26l-0.78,1.44H156.32z M158.76,73.38h3.27l-1.64-2.93
		L158.76,73.38z"/>
	<path d="M166.91,70.78c0.06,0.36,0.09,0.73,0.09,1.1v3.82h-1.07v-6.16h0.89l4.52,4.02c0.28,0.25,0.53,0.53,0.74,0.84
		c-0.07-0.37-0.1-0.75-0.1-1.15v-3.72h1.08v6.16h-0.8l-4.6-4.08C167.32,71.35,167.08,71.07,166.91,70.78z"/>
</g>
</svg>
