<?xml version="1.0" encoding="utf-8"?>
<!-- Generator: Adobe Illustrator 25.4.1, SVG Export Plug-In . SVG Version: 6.00 Build 0)  -->
<svg version="1.1" id="Layer_1" xmlns="http://www.w3.org/2000/svg" xmlns:xlink="http://www.w3.org/1999/xlink" x="0px" y="0px"
	 viewBox="0 0 180 180" style="enable-background:new 0 0 180 180;" xml:space="preserve">
<style type="text/css">
	.st0{fill:#FFFFFF;}
	.st1{fill:#006D9D;}
	.st2{fill:#76BC21;}
</style>
<rect class="st0" width="180" height="180"/>
<path class="st1" d="M16.101,83.562V43.031h34.664c3.222,0,5.555,0.618,7,1.859c1.442,1.239,2.166,3.24,2.166,6v9.051
	c0,2.736-0.724,4.724-2.166,5.963c-1.445,1.239-3.779,1.861-7,1.861H25.379v15.797H16.101z M46.587,50.048H25.379v10.737h21.207
	c1.636,0,2.755-0.237,3.356-0.71c0.598-0.473,0.899-1.309,0.899-2.512v-4.334c0-1.175-0.302-1.999-0.899-2.471
	C49.341,50.283,48.223,50.048,46.587,50.048"/>
<path class="st1" d="M76.629,43.03v32.902h26.88V43.03h9.396v30.948c0,3.707-0.69,6.23-2.07,7.574
	c-1.379,1.341-4.042,2.012-7.977,2.012H77.24c-3.909,0-6.561-0.671-7.955-2.012c-1.396-1.344-2.091-3.867-2.091-7.574V43.03H76.629z
	"/>
<path class="st1" d="M121.049,83.562V43.031h34.667c3.218,0,5.555,0.618,6.999,1.859c1.443,1.239,2.166,3.24,2.166,6v9.51
	c0,2.736-0.723,4.731-2.166,5.984c-1.444,1.252-3.781,1.877-6.999,1.877h-5.29l18.71,15.301h-13.534l-16.34-15.301h-8.933v15.301
	C130.329,83.562,121.049,83.562,121.049,83.562z M151.536,50.048h-21.207v11.274h21.207c1.636,0,2.755-0.235,3.354-0.71
	c0.599-0.473,0.901-1.309,0.901-2.512v-4.871c0-1.175-0.302-1.999-0.901-2.471C154.291,50.283,153.173,50.048,151.536,50.048"/>
<polygon class="st2" points="39.913,103.683 39.913,136.967 30.48,136.967 30.48,103.683 11.88,103.683 11.88,96.434 58.586,96.434 
	58.586,103.683 "/>
<polygon class="st2" points="65.084,136.968 65.084,96.435 106.577,96.435 106.577,103.338 74.517,103.338 74.517,112.389 
	93.229,112.389 93.229,119.29 74.517,119.29 74.517,129.337 106.958,129.337 106.958,136.968 "/>
<path class="st2" d="M114.951,106.022c0-3.683,0.69-6.199,2.072-7.556c1.379-1.353,4.036-2.032,7.977-2.032h29.833
	c3.937,0,6.596,0.679,7.977,2.032c1.379,1.357,2.07,3.873,2.07,7.556v21.36c0,3.707-0.691,6.232-2.07,7.574
	c-1.381,1.34-4.04,2.012-7.977,2.012h-4.371l5.101,10.43h-9.36l-4.562-10.43H125c-3.941,0-6.598-0.671-7.977-2.012
	c-1.383-1.342-2.072-3.867-2.072-7.574C114.951,127.382,114.951,106.022,114.951,106.022z M124.386,129.337h13.881l-3.757-8.78
	l6.824-2.762l5.483,11.542h8.666v-25.653h-31.098L124.386,129.337L124.386,129.337z"/>
</svg>
