<?xml version="1.0" encoding="utf-8"?>
<!-- Generator: Adobe Illustrator 24.3.0, SVG Export Plug-In . SVG Version: 6.00 Build 0)  -->
<svg version="1.1" id="Layer_1" xmlns="http://www.w3.org/2000/svg" xmlns:xlink="http://www.w3.org/1999/xlink" x="0px" y="0px"
	 viewBox="0 0 42 42" style="enable-background:new 0 0 42 42;" xml:space="preserve">
<style type="text/css">
	.st0{fill:#FFFFFF;}
</style>
<g id="Instagram">
	<path class="st0" d="M33.26,12.83c-0.45-2.03-1.66-3.4-3.68-4.03c-0.98-0.31-1.99-0.39-3-0.4c-1.87-0.01-3.74-0.02-5.61-0.02v0
		c-1.88,0-3.76,0.01-5.64,0.02c-0.83,0.01-1.68,0.1-2.49,0.28c-2.03,0.45-3.4,1.66-4.03,3.68c-0.31,0.98-0.39,1.99-0.4,3
		c-0.01,1.87-0.02,3.74-0.02,5.61c0,1.87,0.01,3.74,0.02,5.61c0.01,1.01,0.09,2.02,0.4,3c0.63,2.01,2,3.23,4.03,3.68
		c0.81,0.18,1.66,0.28,2.49,0.28c1.88,0.01,3.76,0.02,5.64,0.02v0c1.87,0,3.74-0.01,5.61-0.02c1.01-0.01,2.02-0.09,3-0.4
		c2.01-0.63,3.23-2,3.68-4.03c0.18-0.81,0.28-1.66,0.28-2.49c0.01-1.88,0.02-3.77,0.02-5.65c0-1.88-0.01-3.76-0.02-5.64
		C33.53,14.49,33.44,13.64,33.26,12.83z M21.01,28.89c-4.34,0-7.89-3.55-7.9-7.88c0-4.35,3.56-7.91,7.91-7.89
		c4.35,0.01,7.88,3.55,7.88,7.89C28.89,25.34,25.34,28.88,21.01,28.89z M29.21,14.6c-1-0.01-1.81-0.84-1.8-1.84
		c0.01-1.02,0.8-1.79,1.83-1.79c1.01,0.01,1.83,0.82,1.81,1.82C31.02,13.79,30.19,14.62,29.21,14.6z"/>
	<path class="st0" d="M0,0v42h42V0H0z M36.26,26.07c-0.02,1.19-0.11,2.4-0.35,3.57c-0.59,2.82-2.23,4.82-4.95,5.89
		c-1.49,0.59-3.05,0.72-4.62,0.73c-1.48,0.01-5.37,0.02-5.37,0.02c-0.31,0-2.86,0-5.1-0.03c-1.19-0.02-2.4-0.11-3.57-0.35
		c-2.82-0.59-4.82-2.23-5.89-4.95c-0.59-1.49-0.72-3.05-0.73-4.62c-0.01-1.48-0.02-5.37-0.02-5.37s0.01-3.88,0.02-5.37
		c0.01-1.57,0.14-3.13,0.73-4.62c1.07-2.71,3.07-4.36,5.89-4.95c1.16-0.24,2.37-0.34,3.57-0.35c2.24-0.03,4.79-0.03,5.1-0.03
		c0,0,3.88,0.01,5.37,0.02c1.57,0.01,3.13,0.14,4.62,0.73c2.71,1.07,4.36,3.07,4.95,5.89c0.24,1.16,0.34,2.37,0.35,3.57
		c0.03,2.24,0.03,4.79,0.03,5.1C36.29,21.28,36.29,23.83,36.26,26.07z"/>
	<path class="st0" d="M20.99,15.84c-2.88,0-5.13,2.27-5.16,5.15c-0.03,2.82,2.32,5.17,5.14,5.18c2.83,0.01,5.19-2.33,5.2-5.16
		C26.12,18.13,23.9,15.83,20.99,15.84z"/>
</g>
</svg>
