<?xml version="1.0" encoding="utf-8"?>
<!-- Generator: Adobe Illustrator 24.3.0, SVG Export Plug-In . SVG Version: 6.00 Build 0)  -->
<svg version="1.1" id="Layer_1" xmlns="http://www.w3.org/2000/svg" xmlns:xlink="http://www.w3.org/1999/xlink" x="0px" y="0px"
	 viewBox="0 0 26 32" style="enable-background:new 0 0 26 32;" xml:space="preserve">
<style type="text/css">
	.st0{fill:none;}
	.st1{fill:#FFFFFF;}
</style>
<rect class="st0" width="26" height="32"/>
<path id="phone" class="st1" d="M13,0.75c-7.18,0-13,5.82-13,13s5.82,13,13,13s13-5.82,13-13S20.18,0.75,13,0.75z M20.96,18.49
	c-0.07,0.31-0.15,0.56-0.23,0.74c-0.15,0.36-0.59,0.74-1.32,1.15c-0.68,0.37-1.35,0.55-2.01,0.55c-0.19,0-0.38-0.01-0.57-0.04
	c-0.18-0.03-0.39-0.07-0.62-0.14c-0.23-0.06-0.4-0.12-0.51-0.16c-0.11-0.04-0.31-0.11-0.6-0.22c-0.29-0.11-0.47-0.17-0.53-0.19
	c-0.71-0.25-1.34-0.55-1.9-0.9c-0.92-0.57-1.88-1.35-2.87-2.33c-0.99-0.99-1.76-1.94-2.33-2.87c-0.35-0.56-0.65-1.19-0.9-1.9
	c-0.02-0.06-0.09-0.24-0.19-0.53c-0.11-0.29-0.18-0.49-0.22-0.6c-0.04-0.11-0.09-0.28-0.16-0.51c-0.06-0.23-0.11-0.44-0.14-0.62
	S5.81,9.55,5.81,9.36c0-0.66,0.18-1.34,0.55-2.01c0.4-0.73,0.79-1.17,1.15-1.32c0.18-0.08,0.43-0.16,0.74-0.23
	c0.31-0.07,0.57-0.11,0.76-0.11c0.1,0,0.18,0.01,0.23,0.03c0.13,0.04,0.32,0.32,0.57,0.82c0.08,0.14,0.19,0.33,0.32,0.58
	c0.14,0.25,0.26,0.48,0.38,0.69c0.12,0.21,0.23,0.4,0.34,0.58c0.02,0.03,0.08,0.12,0.19,0.27c0.1,0.15,0.18,0.28,0.23,0.38
	s0.08,0.21,0.08,0.31c0,0.14-0.1,0.32-0.31,0.54c-0.21,0.22-0.43,0.42-0.67,0.6c-0.24,0.18-0.47,0.37-0.67,0.57
	c-0.21,0.2-0.31,0.37-0.31,0.5c0,0.06,0.02,0.15,0.05,0.24c0.04,0.1,0.07,0.17,0.09,0.22c0.03,0.05,0.08,0.14,0.15,0.26
	c0.08,0.12,0.12,0.19,0.12,0.21c0.55,0.99,1.18,1.84,1.88,2.55c0.71,0.71,1.56,1.34,2.55,1.88c0.01,0.01,0.08,0.05,0.21,0.12
	c0.12,0.08,0.21,0.13,0.26,0.15s0.12,0.06,0.22,0.09c0.1,0.04,0.18,0.05,0.24,0.05c0.13,0,0.3-0.1,0.5-0.31
	c0.2-0.21,0.39-0.43,0.57-0.67c0.18-0.24,0.38-0.47,0.6-0.67c0.22-0.21,0.4-0.31,0.54-0.31c0.1,0,0.2,0.03,0.31,0.08
	c0.1,0.05,0.23,0.13,0.38,0.23c0.15,0.1,0.24,0.17,0.27,0.19c0.18,0.11,0.37,0.22,0.58,0.34c0.21,0.12,0.44,0.24,0.69,0.38
	c0.25,0.14,0.45,0.25,0.58,0.32c0.51,0.25,0.78,0.44,0.82,0.57c0.02,0.05,0.03,0.13,0.03,0.23C21.07,17.93,21.03,18.18,20.96,18.49z
	"/>
</svg>
