<?xml version="1.0" encoding="utf-8"?>
<!-- Generator: Adobe Illustrator 24.3.0, SVG Export Plug-In . SVG Version: 6.00 Build 0)  -->
<svg version="1.1" id="Layer_1" xmlns="http://www.w3.org/2000/svg" xmlns:xlink="http://www.w3.org/1999/xlink" x="0px" y="0px"
	 viewBox="0 0 154 81" style="enable-background:new 0 0 154 81;" xml:space="preserve">
<style type="text/css">
	.st0{fill:#FFFFFF;}
	.st1{fill:none;}
</style>
<g id="ISSA_Member_logo">
	<path class="st0" d="M74.35,67.45c0-1.09-0.84-1.72-2.35-1.72h-3.37v3.55h3.2C73.34,69.28,74.35,68.69,74.35,67.45z"/>
	<path class="st0" d="M102.15,68.02c0-1.47-1.03-2.23-2.76-2.23h-3.41v4.48h3.43C101.09,70.27,102.15,69.39,102.15,68.02z"/>
	<path class="st0" d="M72.35,71.26h-3.72v3.66h3.89c1.6,0,2.57-0.63,2.57-1.85C75.1,71.93,74.2,71.26,72.35,71.26z"/>
	<path class="st0" d="M130.17,58.85H14.57V81h124.87L130.17,58.85z M32.42,77h-2.34v-9.57l-4.21,6.29h-0.08l-4.17-6.25V77h-2.31
		V63.66h2.5l4.06,6.31l4.06-6.31h2.5V77z M46.23,77h-9.99V63.66h9.89v2.1h-7.55v3.47h6.69v2.1h-6.69v3.58h7.64V77z M62.51,77h-2.34
		v-9.57l-4.21,6.29h-0.08l-4.17-6.25V77H49.4V63.66h2.5l4.06,6.31l4.06-6.31h2.5V77z M72.51,77h-6.18V63.66h5.99
		c2.69,0,4.39,1.32,4.39,3.41c0,1.64-0.92,2.48-1.91,2.99c1.56,0.53,2.65,1.43,2.65,3.26C77.44,75.72,75.48,77,72.51,77z M90.47,77
		h-9.99V63.66h9.89v2.1h-7.55v3.47h6.69v2.1h-6.69v3.58h7.65V77z M102.19,77l-3.28-4.65h-2.93V77h-2.35V63.66h5.95
		c3.07,0,4.96,1.62,4.96,4.23c0,2.21-1.32,3.55-3.18,4.06l3.6,5.05H102.19z"/>
	<g>
		<g>
			<g>
				<path class="st0" d="M22.74,46.85l-1.01-0.9l0.87-1.04l4.62-5.52v-8.08c-1.85-2-2.98-4.65-2.98-8.26v-0.12
					c0-3.42,1.07-6.39,2.98-8.76V10H14.57v42h12.65v-1.94C25.6,49.13,24.1,48.07,22.74,46.85z"/>
			</g>
			<g>
				<path class="st0" d="M54.91,46.85l-1.01-0.9l0.87-1.04l5.27-6.29c-0.21-7.5-6.11-10.54-15.53-12.58
					c-5.78-1.31-7.21-2.14-7.21-4.05v-0.12c0-1.49,1.37-2.68,4.17-2.68c3.68,0,7.84,1.42,11.64,4.09l4.02-9.45
					c-4.18-2.78-9.18-4.23-15.36-4.23c-10.01,0-16.14,5.6-16.14,13.34v0.12c0,8.58,6.85,11.08,15.72,13.1
					c5.66,1.31,7.03,2.26,7.03,3.99v0.12c0,1.79-1.67,2.86-4.77,2.86c-4.83,0-9.41-1.73-13.52-5l-6.43,7.68
					c5.13,4.59,12.15,6.91,19.54,6.91c5.73,0,10.37-1.62,13.32-4.57C55.97,47.73,55.42,47.3,54.91,46.85z"/>
			</g>
			<path class="st0" d="M97.57,10.01L79.82,52h12.15l2.98-7.45h16.08l3.04,7.45h12.39l-17.75-41.99H97.57z M98.34,35.56l4.71-11.85
				l4.64,11.85H98.34z"/>
			<g>
				<path class="st0" d="M78.81,50.9l8.77-20.84c-2.66-1.82-6.36-3.04-10.89-4.02c-5.78-1.31-7.21-2.14-7.21-4.05v-0.12
					c0-1.49,1.37-2.68,4.17-2.68c3.69,0,7.85,1.43,11.66,4.1l4.02-9.45c-4.18-2.79-9.19-4.24-15.38-4.24
					c-10.01,0-16.14,5.6-16.14,13.34v0.12c0,8.58,6.85,11.08,15.73,13.1c5.66,1.31,7.03,2.26,7.03,3.99v0.12
					c0,1.79-1.67,2.86-4.77,2.86c-4.83,0-9.41-1.73-13.52-5l-6.43,7.68c5.12,4.59,12.42,6.35,19.81,6.35c0.92,0,1.81-0.06,2.68-0.14
					L78.81,50.9z"/>
			</g>
		</g>
	</g>
	<g>
		<path class="st0" d="M116.05,9.96c1.42,0,2.57,1.15,2.57,2.57c0,1.42-1.15,2.57-2.57,2.57c-1.42,0-2.57-1.15-2.57-2.57
			C113.48,11.12,114.63,9.96,116.05,9.96z M116.05,14.73c1.22,0,2.2-0.98,2.2-2.2c0-1.22-0.98-2.2-2.2-2.2c-1.22,0-2.2,0.98-2.2,2.2
			C113.85,13.75,114.83,14.73,116.05,14.73z M115.49,14h-0.37v-2.96h1.14c0.67,0,0.93,0.29,0.93,0.82c0,0.55-0.35,0.77-0.75,0.84
			l0.88,1.3h-0.42l-0.88-1.3h-0.53V14z M115.49,12.37h0.48c0.41,0,0.85-0.02,0.85-0.51c0-0.38-0.35-0.49-0.67-0.49h-0.66V12.37z"/>
	</g>
	<rect id="bounding_box" class="st1" width="154" height="81"/>
</g>
</svg>
