<?xml version="1.0" encoding="utf-8"?>
<!-- Generator: Adobe Illustrator 25.2.1, SVG Export Plug-In . SVG Version: 6.00 Build 0)  -->
<svg version="1.1" id="Layer_1" xmlns="http://www.w3.org/2000/svg" xmlns:xlink="http://www.w3.org/1999/xlink" x="0px" y="0px"
	 viewBox="0 0 42 42" style="enable-background:new 0 0 42 42;" xml:space="preserve">
<style type="text/css">
	.st0{fill:#FFFFFF;}
</style>
<path class="st0" d="M0,0v42h42V0H0z M33.99,14.34c0.01,0.29,0.02,0.58,0.02,0.87c0,8.86-6.74,19.07-19.07,19.07
	c-3.79,0-7.31-1.11-10.28-3.01c0.52,0.06,1.06,0.09,1.6,0.09c3.14,0,6.03-1.07,8.33-2.87c-2.93-0.05-5.41-1.99-6.26-4.66
	c0.41,0.08,0.83,0.12,1.26,0.12c0.61,0,1.2-0.08,1.77-0.23c-3.07-0.62-5.38-3.33-5.38-6.57c0-0.03,0-0.06,0-0.08
	c0.9,0.5,1.94,0.8,3.04,0.84c-1.8-1.2-2.98-3.25-2.98-5.58c0-1.23,0.33-2.38,0.91-3.37c3.31,4.06,8.25,6.72,13.82,7
	c-0.11-0.49-0.17-1-0.17-1.53c0-3.7,3-6.7,6.7-6.7c1.93,0,3.67,0.81,4.89,2.12c1.53-0.3,2.96-0.86,4.26-1.63
	c-0.5,1.57-1.56,2.88-2.95,3.71c1.36-0.16,2.65-0.52,3.85-1.06C36.44,12.21,35.3,13.39,33.99,14.34z"/>
</svg>
