<?xml version="1.0" encoding="utf-8"?>
<!-- Generator: Adobe Illustrator 24.3.0, SVG Export Plug-In . SVG Version: 6.00 Build 0)  -->
<svg version="1.1" id="Layer_1" xmlns="http://www.w3.org/2000/svg" xmlns:xlink="http://www.w3.org/1999/xlink" x="0px" y="0px"
	 viewBox="0 0 42 42" style="enable-background:new 0 0 42 42;" xml:space="preserve">
<style type="text/css">
	.st0{fill:#FFFFFF;}
</style>
<path id="Linkedin" class="st0" d="M0,0v42h42V0H0z M12.38,35.98h-6.9V15.19h6.9V35.98z M8.93,12.36H8.88
	c-2.32,0-3.82-1.6-3.82-3.59c0-2.04,1.54-3.59,3.9-3.59c2.36,0,3.82,1.55,3.86,3.59C12.84,10.76,11.34,12.36,8.93,12.36z
	 M36.94,35.98h-6.91V24.86c0-2.79-1-4.7-3.5-4.7c-1.91,0-3.04,1.28-3.54,2.52c-0.19,0.45-0.23,1.07-0.23,1.69v11.61h-6.91
	c0,0,0.09-18.83,0-20.78h6.91v2.95c0.91-1.41,2.55-3.43,6.22-3.43c4.54,0,7.95,2.97,7.95,9.35V35.98z"/>
</svg>
