<?xml version="1.0" encoding="utf-8"?>
<!-- Generator: Adobe Illustrator 24.3.0, SVG Export Plug-In . SVG Version: 6.00 Build 0)  -->
<svg version="1.1" id="Layer_1" xmlns="http://www.w3.org/2000/svg" xmlns:xlink="http://www.w3.org/1999/xlink" x="0px" y="0px"
	 viewBox="0 0 26 74" style="enable-background:new 0 0 26 74;" xml:space="preserve">
<style type="text/css">
	.st0{fill:#FFFFFF;}
	.st1{fill:none;}
</style>
<g id="dart">
	<g>
		<path class="st0" d="M25.45,14.67c-0.39-2.15-1.47-3.91-3.15-5.28c-2.16-1.77-4.65-2.52-7.44-2.22c-1.42,0.15-2.77,0.55-4.01,1.27
			c-1.72,0.99-2.94,2.43-3.79,4.2c-0.95,1.99-1.04,4.01-0.21,6.07c0.86,2.17,1.95,4.22,3.17,6.2c1.6,2.6,3.39,5.07,5.22,7.51
			c0.22,0.29,0.44,0.58,0.68,0.9c0.1-0.12,0.18-0.22,0.26-0.33c0.95-1.3,1.89-2.6,2.84-3.91c1.48-2.05,2.9-4.13,4.12-6.35
			c0.73-1.33,1.42-2.68,1.92-4.11C25.51,17.34,25.7,16.02,25.45,14.67z M15.91,21.07c-2.49,0-4.49-2.02-4.49-4.51
			c0.01-2.47,2.03-4.47,4.53-4.47c2.44,0,4.47,2.03,4.46,4.48C20.4,19.21,18.25,21.11,15.91,21.07z"/>
	</g>
</g>
<rect class="st1" width="26" height="74"/>
</svg>
