<?xml version="1.0" encoding="utf-8"?>
<!-- Generator: Adobe Illustrator 24.3.0, SVG Export Plug-In . SVG Version: 6.00 Build 0)  -->
<svg version="1.1" id="Layer_1" xmlns="http://www.w3.org/2000/svg" xmlns:xlink="http://www.w3.org/1999/xlink" x="0px" y="0px"
	 viewBox="0 0 42 42" style="enable-background:new 0 0 42 42;" xml:space="preserve">
<style type="text/css">
	.st0{fill:#FFFFFF;}
</style>
<path id="Facebook" class="st0" d="M0,0v42h42V0H0z M28.8,11.98c-1.33,0-2.77,0-3.45,0c-0.68,0-1.37,0.71-1.37,1.24
	c0,0.53,0,3.53,0,3.53s4.26,0,4.81,0c-0.19,2.71-0.59,5.19-0.59,5.19h-4.25V37.3h-6.33V21.94h-3.08v-5.17h3.08c0,0,0-3.45,0-4.22
	c0-0.77-0.16-5.94,6.49-5.94c0.89,0,2.91,0,4.69,0C28.8,8.85,28.8,11.28,28.8,11.98z"/>
</svg>
