<?xml version="1.0" encoding="utf-8"?>
<!-- Generator: Adobe Illustrator 27.7.0, SVG Export Plug-In . SVG Version: 6.00 Build 0)  -->
<svg version="1.1" id="Layer_1" xmlns="http://www.w3.org/2000/svg" xmlns:xlink="http://www.w3.org/1999/xlink" x="0px" y="0px"
	 viewBox="0 0 1024 747" style="enable-background:new 0 0 1024 747;" xml:space="preserve">
<style type="text/css">
	.st0{fill:none;}
	.st1{fill:#FFFFFF;}
	.st2{fill:#76BC21;}
	.st3{fill:#0069A7;}
</style>
<g id="ART">
	<rect id="Bounding_Box" class="st0" width="1024" height="747"/>
	<g id="CTA_-_Learn_More">
		<g id="text">
			<path d="M823.5,389v-10.8h2.5v8.8h8.1v2H823.5z"/>
			<path d="M836.6,389v-10.8h11.1v1.9h-8.6v2.4h5v1.9h-5v2.7h8.7v2H836.6z"/>
			<path d="M849.1,389l6.1-10.8h2.4l6.2,10.8h-2.8l-1.3-2.4h-6.9l-1.3,2.4H849.1z M854,384.7h4.8l-2.3-4.4L854,384.7z"/>
			<path d="M866.2,389v-10.8h9.3c1.6,0,2.4,0.7,2.4,2.1v2.5c0,1.4-0.8,2.1-2.4,2.1H874l5,4.1h-3.6l-4.4-4.1h-2.4v4.1H866.2z
				 M874.3,380h-5.7v3h5.7c0.4,0,0.7,0,0.8-0.1c0.2-0.1,0.3-0.4,0.3-0.7v-1.3c0-0.4-0.1-0.6-0.3-0.7C875,380,874.7,380,874.3,380z"
				/>
			<path d="M881.7,389v-10.8h1.7l7.6,6.4c0.5,0.5,1,0.9,1.2,1.2c-0.1-1-0.1-1.6-0.1-1.9v-5.7h2.3V389h-1.7l-8-6.7
				c-0.3-0.3-0.6-0.6-0.9-0.9c0.1,0.7,0.1,1.3,0.1,1.7v5.9H881.7z"/>
			<path d="M905.6,389v-10.8h2l5.1,6.5l5-6.5h2V389h-2.3v-6.7c0-0.3,0-0.6,0.1-1.1c-0.3,0.5-0.5,0.9-0.6,1.1l-4.1,5.4h-0.5l-4.1-5.4
				c-0.3-0.4-0.5-0.8-0.7-1.1c0,0.4,0.1,0.8,0.1,1.1v6.7L905.6,389L905.6,389z"/>
			<path d="M923.5,380.7c0-1,0.2-1.7,0.6-2s1.1-0.5,2.1-0.5h8c1,0,1.7,0.2,2.1,0.5c0.4,0.4,0.6,1,0.6,2v5.7c0,1-0.2,1.7-0.6,2
				s-1.1,0.5-2.1,0.5h-8c-1,0-1.7-0.2-2.1-0.5c-0.4-0.4-0.6-1-0.6-2V380.7z M926.1,387h8.3v-6.9h-8.3V387z"/>
			<path d="M941,389v-10.8h9.3c1.6,0,2.4,0.7,2.4,2.1v2.5c0,1.4-0.8,2.1-2.4,2.1h-1.4l5,4.1h-3.6l-4.4-4.1h-2.4v4.1H941z M949.1,380
				h-5.7v3h5.7c0.4,0,0.7,0,0.8-0.1c0.2-0.1,0.3-0.4,0.3-0.7v-1.3c0-0.4-0.1-0.6-0.3-0.7C949.8,380,949.5,380,949.1,380z"/>
			<path d="M956.5,389v-10.8h11.1v1.9h-8.6v2.4h5v1.9h-5v2.7h8.7v2H956.5z"/>
		</g>
		<polygon id="arrow" points="1006.3,383.5 979.1,378.1 979.1,389 		"/>
	</g>
	<g id="Body_Text">
		<g>
			<path d="M393.1,472c-0.3-0.4-0.8-0.8-1.4-1c-0.6-0.3-1.2-0.4-1.8-0.4c-0.4,0-0.7,0-1.1,0.1s-0.7,0.2-1,0.4
				c-0.3,0.2-0.5,0.4-0.7,0.7c-0.2,0.3-0.3,0.6-0.3,1.1c0,0.4,0.1,0.7,0.2,1c0.2,0.3,0.4,0.5,0.7,0.7c0.3,0.2,0.6,0.4,1,0.5
				s0.8,0.3,1.3,0.4c0.5,0.2,1.1,0.4,1.7,0.6c0.6,0.2,1.1,0.5,1.6,0.9c0.5,0.4,0.9,0.8,1.2,1.4c0.3,0.6,0.5,1.3,0.5,2.1
				c0,0.9-0.2,1.7-0.5,2.4c-0.3,0.7-0.8,1.2-1.3,1.7s-1.2,0.8-2,1c-0.8,0.2-1.5,0.3-2.4,0.3c-1.1,0-2.2-0.2-3.2-0.6
				c-1.1-0.4-1.9-1-2.6-1.8l2.2-2c0.4,0.6,1,1,1.7,1.4s1.4,0.5,2,0.5c0.4,0,0.7,0,1.1-0.1s0.7-0.2,1-0.4c0.3-0.2,0.5-0.5,0.7-0.8
				s0.3-0.7,0.3-1.2c0-0.5-0.1-0.8-0.3-1.1s-0.5-0.5-0.8-0.8s-0.8-0.4-1.2-0.6s-1-0.3-1.5-0.5c-0.5-0.2-1-0.4-1.5-0.6
				c-0.5-0.2-1-0.5-1.4-0.9c-0.4-0.4-0.7-0.8-1-1.4c-0.3-0.5-0.4-1.2-0.4-2c0-0.9,0.2-1.6,0.5-2.2c0.4-0.6,0.8-1.1,1.4-1.5
				c0.6-0.4,1.2-0.7,2-0.9s1.5-0.3,2.3-0.3c0.9,0,1.7,0.1,2.6,0.5c0.9,0.3,1.7,0.8,2.3,1.4L393.1,472z"/>
			<path d="M397.4,470c0-0.5,0.2-0.9,0.5-1.2c0.3-0.3,0.8-0.5,1.3-0.5s1,0.2,1.3,0.5s0.5,0.7,0.5,1.2s-0.2,0.9-0.5,1.2
				s-0.8,0.5-1.3,0.5s-1-0.2-1.3-0.5C397.5,470.9,397.4,470.5,397.4,470z M397.8,473.9h2.9v11.5h-2.9V473.9z"/>
			<path d="M417.5,473.6c0.8,0,1.4,0.1,1.9,0.4c0.5,0.3,1,0.6,1.3,1c0.3,0.4,0.6,0.9,0.8,1.5s0.2,1.1,0.2,1.7v7.2h-2.9v-6.4
				c0-0.3,0-0.7-0.1-1.1c0-0.4-0.1-0.7-0.3-1s-0.4-0.5-0.7-0.7s-0.6-0.3-1.1-0.3c-0.5,0-0.8,0.1-1.1,0.3s-0.6,0.4-0.8,0.7
				c-0.2,0.3-0.4,0.6-0.5,1c-0.1,0.4-0.1,0.8-0.1,1.1v6.3h-2.9v-7c0-0.7-0.2-1.3-0.5-1.8c-0.3-0.5-0.9-0.7-1.6-0.7
				c-0.4,0-0.8,0.1-1.1,0.3c-0.3,0.2-0.6,0.4-0.8,0.7c-0.2,0.3-0.4,0.6-0.5,1c-0.1,0.4-0.2,0.8-0.2,1.1v6.3h-2.9V474h2.7v1.9h0
				c0.1-0.3,0.3-0.6,0.5-0.8s0.5-0.5,0.8-0.7c0.3-0.2,0.6-0.4,1-0.5c0.4-0.1,0.8-0.2,1.3-0.2c0.9,0,1.6,0.2,2.2,0.6s1,0.9,1.4,1.6
				c0.4-0.7,0.9-1.2,1.5-1.6C415.9,473.8,416.7,473.6,417.5,473.6z"/>
			<path d="M427.6,473.9v1.6h0.1c0.1-0.2,0.3-0.5,0.6-0.7c0.2-0.2,0.5-0.4,0.9-0.6c0.3-0.2,0.7-0.3,1.1-0.5s0.9-0.2,1.4-0.2
				c0.8,0,1.6,0.2,2.3,0.5s1.3,0.7,1.8,1.3s0.9,1.2,1.1,1.9c0.3,0.7,0.4,1.5,0.4,2.4s-0.1,1.6-0.4,2.4c-0.3,0.7-0.6,1.4-1.1,1.9
				s-1.1,1-1.8,1.3c-0.7,0.3-1.5,0.5-2.4,0.5c-0.8,0-1.6-0.2-2.2-0.5c-0.7-0.3-1.2-0.8-1.6-1.4h0v7.3h-2.9v-17.3L427.6,473.9
				L427.6,473.9z M434.3,479.6c0-0.5-0.1-0.9-0.2-1.3c-0.1-0.4-0.3-0.8-0.6-1.2s-0.6-0.6-1-0.9c-0.4-0.2-0.9-0.3-1.5-0.3
				c-0.5,0-1,0.1-1.4,0.3c-0.4,0.2-0.8,0.5-1.1,0.9c-0.3,0.4-0.5,0.8-0.7,1.2c-0.1,0.5-0.2,0.9-0.2,1.3c0,0.5,0.1,0.9,0.2,1.3
				c0.1,0.4,0.4,0.8,0.7,1.2c0.3,0.4,0.6,0.6,1.1,0.9c0.4,0.2,0.9,0.3,1.4,0.3c0.6,0,1-0.1,1.5-0.3c0.4-0.2,0.8-0.5,1-0.9
				c0.3-0.4,0.5-0.8,0.6-1.2C434.2,480.5,434.3,480.1,434.3,479.6z"/>
			<path d="M439.7,467.3h2.9v18.1h-2.9V467.3z"/>
			<path d="M444,473.9h3.2l3.2,8.4h0l2.9-8.4h3l-5.5,14c-0.2,0.5-0.4,1-0.7,1.4c-0.2,0.4-0.5,0.8-0.9,1c-0.3,0.3-0.7,0.5-1.2,0.6
				c-0.5,0.1-1,0.2-1.6,0.2c-0.2,0-0.5,0-0.7,0c-0.2,0-0.5-0.1-0.8-0.1l0.2-2.5c0.2,0.1,0.4,0.1,0.6,0.1c0.2,0,0.4,0,0.5,0
				c0.3,0,0.6,0,0.8-0.1c0.2-0.1,0.4-0.2,0.5-0.3c0.1-0.1,0.3-0.3,0.4-0.6c0.1-0.2,0.2-0.5,0.4-0.8l0.6-1.5L444,473.9z"/>
			<path d="M469.6,477c-0.3-0.3-0.6-0.6-1.1-0.9s-0.9-0.4-1.5-0.4c-0.5,0-0.9,0.1-1.3,0.3c-0.4,0.2-0.6,0.5-0.6,1
				c0,0.5,0.2,0.8,0.6,1c0.4,0.2,1,0.4,1.9,0.6c0.4,0.1,0.9,0.2,1.3,0.4s0.8,0.4,1.2,0.6c0.4,0.3,0.6,0.6,0.9,1
				c0.2,0.4,0.3,0.9,0.3,1.4c0,0.7-0.1,1.3-0.4,1.8c-0.3,0.5-0.6,0.9-1.1,1.2c-0.4,0.3-1,0.5-1.5,0.7s-1.2,0.2-1.8,0.2
				c-0.9,0-1.8-0.2-2.6-0.5s-1.5-0.8-2.1-1.4l1.9-1.8c0.3,0.4,0.7,0.8,1.2,1s1.1,0.4,1.7,0.4c0.2,0,0.4,0,0.6-0.1
				c0.2,0,0.4-0.1,0.6-0.2c0.2-0.1,0.3-0.2,0.4-0.4c0.1-0.2,0.2-0.4,0.2-0.6c0-0.5-0.2-0.8-0.7-1s-1.1-0.4-2-0.6
				c-0.4-0.1-0.9-0.2-1.3-0.4s-0.8-0.4-1.1-0.6s-0.6-0.6-0.8-0.9s-0.3-0.8-0.3-1.4c0-0.6,0.1-1.2,0.4-1.7c0.3-0.5,0.6-0.8,1-1.1
				c0.4-0.3,0.9-0.5,1.5-0.7c0.5-0.1,1.1-0.2,1.7-0.2c0.8,0,1.6,0.1,2.4,0.4c0.8,0.3,1.4,0.7,1.9,1.3L469.6,477z"/>
			<path d="M476.4,473.9v1.6h0.1c0.1-0.2,0.3-0.5,0.6-0.7c0.2-0.2,0.5-0.4,0.9-0.6c0.3-0.2,0.7-0.3,1.1-0.5s0.9-0.2,1.4-0.2
				c0.8,0,1.6,0.2,2.3,0.5s1.3,0.7,1.8,1.3s0.9,1.2,1.1,1.9c0.3,0.7,0.4,1.5,0.4,2.4s-0.1,1.6-0.4,2.4c-0.3,0.7-0.6,1.4-1.1,1.9
				s-1.1,1-1.8,1.3c-0.7,0.3-1.5,0.5-2.4,0.5c-0.8,0-1.6-0.2-2.2-0.5c-0.7-0.3-1.2-0.8-1.6-1.4h0v7.3h-2.9v-17.3L476.4,473.9
				L476.4,473.9z M483.1,479.6c0-0.5-0.1-0.9-0.2-1.3c-0.1-0.4-0.3-0.8-0.6-1.2s-0.6-0.6-1-0.9c-0.4-0.2-0.9-0.3-1.5-0.3
				c-0.5,0-1,0.1-1.4,0.3c-0.4,0.2-0.8,0.5-1.1,0.9c-0.3,0.4-0.5,0.8-0.7,1.2c-0.1,0.5-0.2,0.9-0.2,1.3c0,0.5,0.1,0.9,0.2,1.3
				c0.1,0.4,0.4,0.8,0.7,1.2c0.3,0.4,0.6,0.6,1.1,0.9c0.4,0.2,0.9,0.3,1.4,0.3c0.6,0,1-0.1,1.5-0.3c0.4-0.2,0.8-0.5,1-0.9
				c0.3-0.4,0.5-0.8,0.6-1.2C483,480.5,483.1,480.1,483.1,479.6z"/>
			<path d="M488.4,473.9h2.8v1.9h0c0.3-0.7,0.8-1.2,1.3-1.6c0.6-0.4,1.2-0.6,2-0.6c0.1,0,0.2,0,0.4,0c0.1,0,0.2,0,0.3,0.1v2.6
				c-0.2,0-0.4-0.1-0.5-0.1c-0.1,0-0.3,0-0.4,0c-0.7,0-1.2,0.1-1.6,0.4s-0.7,0.5-0.9,0.9c-0.2,0.3-0.4,0.7-0.5,1s-0.1,0.6-0.1,0.8
				v6.2h-2.9V473.9z"/>
			<path d="M503.6,484L503.6,484c-0.4,0.5-0.8,0.9-1.5,1.3c-0.6,0.3-1.4,0.5-2.2,0.5c-0.5,0-1-0.1-1.5-0.2s-1-0.3-1.4-0.6
				s-0.8-0.6-1.1-1.1c-0.3-0.5-0.4-1-0.4-1.7c0-0.9,0.2-1.5,0.7-2.1c0.5-0.5,1.1-0.9,1.9-1.2c0.8-0.3,1.6-0.5,2.6-0.5
				s1.9-0.1,2.8-0.1V478c0-0.7-0.3-1.2-0.8-1.6s-1.1-0.5-1.9-0.5c-0.6,0-1.2,0.1-1.8,0.4s-1,0.6-1.4,0.9l-1.5-1.8
				c0.7-0.6,1.4-1.1,2.3-1.4c0.9-0.3,1.7-0.5,2.6-0.5c1,0,1.9,0.1,2.5,0.4c0.7,0.3,1.2,0.7,1.6,1.1c0.4,0.5,0.6,1,0.8,1.6
				s0.2,1.1,0.2,1.7v7h-2.7L503.6,484L503.6,484z M503.6,480.2h-0.6c-0.5,0-1,0-1.5,0.1c-0.5,0-1,0.1-1.4,0.3
				c-0.4,0.1-0.8,0.3-1.1,0.6s-0.4,0.6-0.4,1c0,0.3,0.1,0.5,0.2,0.7s0.3,0.3,0.5,0.4s0.4,0.2,0.6,0.2s0.5,0.1,0.7,0.1
				c1,0,1.7-0.3,2.3-0.8c0.5-0.5,0.8-1.2,0.8-2.2L503.6,480.2L503.6,480.2z"/>
			<path d="M507.6,473.9h3.2l3.2,8.4h0l2.9-8.4h3l-5.5,14c-0.2,0.5-0.4,1-0.7,1.4c-0.2,0.4-0.5,0.8-0.9,1c-0.3,0.3-0.7,0.5-1.2,0.6
				c-0.5,0.1-1,0.2-1.6,0.2c-0.2,0-0.5,0-0.7,0c-0.2,0-0.5-0.1-0.8-0.1l0.2-2.5c0.2,0.1,0.4,0.1,0.6,0.1c0.2,0,0.4,0,0.5,0
				c0.3,0,0.6,0,0.8-0.1c0.2-0.1,0.4-0.2,0.5-0.3c0.1-0.1,0.3-0.3,0.4-0.6c0.1-0.2,0.2-0.5,0.4-0.8l0.6-1.5L507.6,473.9z"/>
			<path d="M534.1,484L534.1,484c-0.4,0.5-0.8,0.9-1.5,1.3c-0.6,0.3-1.4,0.5-2.2,0.5c-0.5,0-1-0.1-1.5-0.2s-1-0.3-1.4-0.6
				s-0.8-0.6-1.1-1.1c-0.3-0.5-0.4-1-0.4-1.7c0-0.9,0.2-1.5,0.7-2.1s1.1-0.9,1.9-1.2c0.8-0.3,1.6-0.5,2.6-0.5s1.8-0.1,2.8-0.1V478
				c0-0.7-0.3-1.2-0.8-1.6s-1.1-0.5-1.9-0.5c-0.6,0-1.2,0.1-1.8,0.4c-0.6,0.3-1,0.6-1.4,0.9l-1.5-1.8c0.7-0.6,1.4-1.1,2.3-1.4
				c0.9-0.3,1.7-0.5,2.6-0.5c1,0,1.9,0.1,2.5,0.4c0.7,0.3,1.2,0.7,1.6,1.1s0.7,1,0.8,1.6s0.2,1.1,0.2,1.7v7h-2.7L534.1,484
				L534.1,484z M534,480.2h-0.7c-0.5,0-1,0-1.5,0.1s-1,0.1-1.4,0.3c-0.4,0.1-0.8,0.3-1.1,0.6s-0.4,0.6-0.4,1c0,0.3,0.1,0.5,0.2,0.7
				s0.3,0.3,0.5,0.4c0.2,0.1,0.4,0.2,0.7,0.2c0.2,0,0.5,0.1,0.7,0.1c1,0,1.7-0.3,2.3-0.8c0.5-0.5,0.8-1.2,0.8-2.2L534,480.2
				L534,480.2z"/>
			<path d="M539.8,473.9h2.7v1.9h0c0.3-0.6,0.7-1.1,1.3-1.5s1.4-0.7,2.2-0.7c0.8,0,1.4,0.1,1.9,0.4c0.5,0.3,1,0.6,1.3,1
				c0.3,0.4,0.6,0.9,0.8,1.5c0.2,0.6,0.2,1.1,0.2,1.7v7.2h-2.9v-6.4c0-0.3,0-0.7-0.1-1.1s-0.2-0.7-0.3-1s-0.4-0.5-0.7-0.7
				c-0.3-0.2-0.7-0.3-1.1-0.3s-0.9,0.1-1.2,0.3c-0.3,0.2-0.6,0.4-0.8,0.7c-0.2,0.3-0.4,0.6-0.5,1s-0.2,0.8-0.2,1.1v6.3h-2.9V473.9z"
				/>
			<path d="M565.1,485.5h-2.7v-1.7h0c-0.4,0.7-1,1.2-1.7,1.5c-0.7,0.4-1.5,0.5-2.3,0.5c-0.9,0-1.7-0.2-2.4-0.5s-1.3-0.8-1.8-1.3
				c-0.5-0.5-0.9-1.2-1.1-1.9c-0.3-0.7-0.4-1.5-0.4-2.4s0.1-1.6,0.4-2.4c0.3-0.7,0.7-1.4,1.2-1.9s1.1-1,1.8-1.3s1.4-0.5,2.3-0.5
				c0.5,0,1,0.1,1.4,0.2s0.8,0.3,1.1,0.4c0.3,0.2,0.6,0.4,0.8,0.6s0.4,0.4,0.5,0.6h0.1v-8.1h2.9L565.1,485.5L565.1,485.5z
				 M555.6,479.6c0,0.5,0.1,0.9,0.2,1.3c0.1,0.5,0.3,0.9,0.6,1.2c0.3,0.4,0.6,0.6,1,0.9c0.4,0.2,0.9,0.3,1.5,0.3
				c0.5,0,1-0.1,1.4-0.3c0.4-0.2,0.8-0.5,1.1-0.9s0.5-0.8,0.7-1.2c0.2-0.4,0.2-0.9,0.2-1.3c0-0.5-0.1-0.9-0.2-1.3
				c-0.2-0.5-0.4-0.9-0.7-1.2c-0.3-0.4-0.7-0.6-1.1-0.9c-0.4-0.2-0.9-0.3-1.4-0.3c-0.6,0-1,0.1-1.5,0.3c-0.4,0.2-0.8,0.5-1,0.9
				s-0.5,0.8-0.6,1.2C555.7,478.8,555.6,479.2,555.6,479.6z"/>
			<path d="M572.2,473.9h3.1l2.4,8.3h0l2.5-8.3h3.1l2.5,8.3h0l2.5-8.3h3l-4,11.5h-2.9l-2.6-8.1h0l-2.6,8.1h-2.9L572.2,473.9z"/>
			<path d="M592.4,470c0-0.5,0.2-0.9,0.5-1.2c0.3-0.3,0.8-0.5,1.3-0.5c0.5,0,1,0.2,1.3,0.5c0.4,0.3,0.5,0.7,0.5,1.2
				s-0.2,0.9-0.5,1.2s-0.8,0.5-1.3,0.5s-1-0.2-1.3-0.5C592.6,470.9,592.4,470.5,592.4,470z M592.8,473.9h2.9v11.5h-2.9V473.9z"/>
			<path d="M601.6,473.9v1.6h0.1c0.1-0.2,0.3-0.5,0.6-0.7c0.2-0.2,0.5-0.4,0.8-0.6c0.3-0.2,0.7-0.3,1.1-0.5c0.4-0.1,0.9-0.2,1.4-0.2
				c0.8,0,1.6,0.2,2.3,0.5s1.3,0.7,1.8,1.3s0.9,1.2,1.2,1.9c0.3,0.7,0.4,1.5,0.4,2.4s-0.1,1.6-0.4,2.4c-0.3,0.7-0.6,1.4-1.1,1.9
				s-1.1,1-1.8,1.3s-1.5,0.5-2.4,0.5c-0.8,0-1.6-0.2-2.2-0.5c-0.7-0.3-1.2-0.8-1.6-1.4h0v7.3h-2.9v-17.3L601.6,473.9L601.6,473.9z
				 M608.3,479.6c0-0.5-0.1-0.9-0.2-1.3c-0.1-0.4-0.3-0.8-0.6-1.2c-0.3-0.4-0.6-0.6-1-0.9c-0.4-0.2-0.9-0.3-1.5-0.3
				c-0.5,0-1,0.1-1.4,0.3c-0.4,0.2-0.8,0.5-1.1,0.9c-0.3,0.4-0.5,0.8-0.7,1.2c-0.2,0.5-0.2,0.9-0.2,1.3c0,0.5,0.1,0.9,0.2,1.3
				c0.2,0.4,0.4,0.8,0.7,1.2c0.3,0.4,0.7,0.6,1.1,0.9c0.4,0.2,0.9,0.3,1.4,0.3c0.6,0,1-0.1,1.5-0.3c0.4-0.2,0.8-0.5,1-0.9
				c0.3-0.4,0.5-0.8,0.6-1.2C608.3,480.5,608.3,480.1,608.3,479.6z"/>
			<path d="M624.7,479.8c0,0.1,0,0.3,0,0.4c0,0.1,0,0.3,0,0.4h-8.8c0,0.4,0.1,0.8,0.3,1.1s0.4,0.6,0.7,0.9s0.7,0.4,1,0.6
				c0.4,0.1,0.8,0.2,1.2,0.2c0.7,0,1.3-0.1,1.8-0.4s0.9-0.6,1.2-1.1l1.9,1.5c-1.1,1.5-2.8,2.3-4.9,2.3c-0.9,0-1.7-0.1-2.5-0.4
				s-1.4-0.7-2-1.2c-0.5-0.5-1-1.1-1.3-1.9c-0.3-0.7-0.5-1.6-0.5-2.5c0-0.9,0.2-1.8,0.5-2.5s0.7-1.4,1.3-1.9s1.2-1,1.9-1.2
				s1.5-0.4,2.4-0.4c0.8,0,1.5,0.1,2.2,0.4c0.7,0.3,1.3,0.7,1.8,1.2c0.5,0.5,0.9,1.2,1.2,1.9C624.5,477.9,624.7,478.8,624.7,479.8z
				 M621.8,478.5c0-0.4,0-0.7-0.2-1.1c-0.1-0.3-0.3-0.6-0.5-0.9s-0.5-0.5-0.8-0.6c-0.3-0.1-0.8-0.2-1.2-0.2c-0.9,0-1.6,0.3-2.2,0.8
				c-0.6,0.5-0.9,1.2-1,2L621.8,478.5L621.8,478.5z"/>
			<path d="M631.1,476.2v-2.3h2v-3.3h2.8v3.3h2.9v2.3H636v5.4c0,0.5,0.1,0.9,0.3,1.3c0.2,0.3,0.6,0.5,1.2,0.5c0.2,0,0.4,0,0.6-0.1
				s0.4-0.1,0.6-0.2l0.1,2.3c-0.3,0.1-0.6,0.2-0.9,0.2s-0.7,0.1-1,0.1c-0.8,0-1.4-0.1-1.9-0.3c-0.5-0.2-0.9-0.5-1.1-0.9
				s-0.5-0.8-0.6-1.3c-0.1-0.5-0.2-1-0.2-1.6v-5.4L631.1,476.2L631.1,476.2z"/>
			<path d="M639.9,479.6c0-0.9,0.2-1.7,0.5-2.5s0.8-1.4,1.3-1.9s1.2-0.9,2-1.2c0.8-0.3,1.6-0.4,2.5-0.4c0.9,0,1.7,0.1,2.5,0.4
				c0.8,0.3,1.4,0.7,2,1.2c0.6,0.5,1,1.2,1.3,1.9s0.5,1.6,0.5,2.5s-0.2,1.7-0.5,2.5c-0.3,0.8-0.8,1.4-1.3,1.9c-0.6,0.5-1.2,1-2,1.3
				c-0.8,0.3-1.6,0.5-2.5,0.5c-0.9,0-1.7-0.1-2.5-0.5c-0.8-0.3-1.4-0.7-2-1.3s-1-1.2-1.3-1.9C640,481.4,639.9,480.6,639.9,479.6z
				 M642.8,479.6c0,0.5,0.1,0.9,0.2,1.3c0.1,0.5,0.3,0.9,0.6,1.2c0.3,0.4,0.6,0.6,1,0.9c0.4,0.2,0.9,0.3,1.5,0.3s1.1-0.1,1.5-0.3
				c0.4-0.2,0.8-0.5,1-0.9c0.3-0.4,0.5-0.8,0.6-1.2c0.1-0.5,0.2-0.9,0.2-1.3c0-0.5-0.1-0.9-0.2-1.3c-0.1-0.4-0.3-0.8-0.6-1.2
				s-0.6-0.6-1-0.9c-0.4-0.2-0.9-0.3-1.5-0.3s-1.1,0.1-1.5,0.3c-0.4,0.2-0.8,0.5-1,0.9s-0.5,0.8-0.6,1.2
				C642.9,478.8,642.8,479.2,642.8,479.6z"/>
			<path d="M672.2,473.9v10.5c0,1-0.1,2-0.4,2.8s-0.7,1.5-1.2,2.1s-1.2,1-2,1.4c-0.8,0.3-1.8,0.5-2.9,0.5c-0.5,0-1,0-1.5-0.1
				c-0.5-0.1-1-0.2-1.5-0.4c-0.5-0.2-1-0.4-1.5-0.6s-0.9-0.5-1.2-0.8l1.7-2.2c0.6,0.5,1.2,0.9,1.9,1.2c0.7,0.3,1.4,0.4,2.1,0.4
				c0.7,0,1.3-0.1,1.7-0.3c0.5-0.2,0.8-0.5,1.1-0.8c0.3-0.4,0.5-0.8,0.6-1.2s0.2-1,0.2-1.6v-0.8h0c-0.4,0.6-1,1-1.6,1.3
				s-1.4,0.5-2.2,0.5c-0.9,0-1.7-0.2-2.3-0.5c-0.7-0.3-1.3-0.8-1.8-1.3c-0.5-0.5-0.9-1.2-1.1-1.9s-0.4-1.5-0.4-2.3
				c0-0.8,0.1-1.6,0.4-2.4c0.3-0.7,0.6-1.4,1.1-1.9s1.1-1,1.8-1.3c0.7-0.3,1.5-0.5,2.3-0.5c0.8,0,1.6,0.2,2.3,0.5s1.3,0.9,1.7,1.6h0
				v-1.7H672.2z M666,476c-0.5,0-1,0.1-1.4,0.3c-0.4,0.2-0.8,0.5-1,0.8s-0.5,0.7-0.7,1.2s-0.2,0.9-0.2,1.4c0,0.5,0.1,0.9,0.2,1.3
				s0.4,0.8,0.7,1.2s0.6,0.6,1,0.8c0.4,0.2,0.9,0.3,1.4,0.3c0.5,0,1-0.1,1.4-0.3c0.4-0.2,0.8-0.5,1.1-0.8s0.5-0.7,0.7-1.2
				s0.2-0.9,0.2-1.4c0-0.5-0.1-1-0.2-1.4s-0.4-0.8-0.7-1.2c-0.3-0.3-0.7-0.6-1.1-0.8S666.6,476,666,476z"/>
			<path d="M686.3,479.8c0,0.1,0,0.3,0,0.4c0,0.1,0,0.3,0,0.4h-8.8c0,0.4,0.1,0.8,0.3,1.1s0.4,0.6,0.7,0.9s0.7,0.4,1,0.6
				c0.4,0.1,0.8,0.2,1.2,0.2c0.7,0,1.3-0.1,1.8-0.4s0.9-0.6,1.2-1.1l1.9,1.5c-1.1,1.5-2.8,2.3-4.9,2.3c-0.9,0-1.7-0.1-2.5-0.4
				s-1.4-0.7-2-1.2c-0.5-0.5-1-1.1-1.3-1.9c-0.3-0.7-0.5-1.6-0.5-2.5c0-0.9,0.2-1.8,0.5-2.5s0.7-1.4,1.3-1.9s1.2-1,1.9-1.2
				s1.5-0.4,2.4-0.4c0.8,0,1.5,0.1,2.2,0.4c0.7,0.3,1.3,0.7,1.8,1.2c0.5,0.5,0.9,1.2,1.2,1.9C686.1,477.9,686.3,478.8,686.3,479.8z
				 M683.4,478.5c0-0.4,0-0.7-0.2-1.1c-0.1-0.3-0.3-0.6-0.5-0.9s-0.5-0.5-0.8-0.6c-0.3-0.1-0.8-0.2-1.2-0.2c-0.9,0-1.6,0.3-2.2,0.8
				c-0.6,0.5-0.9,1.2-1,2L683.4,478.5L683.4,478.5z"/>
			<path d="M687,476.2v-2.3h2v-3.3h2.8v3.3h2.9v2.3h-2.9v5.4c0,0.5,0.1,0.9,0.3,1.3c0.2,0.3,0.6,0.5,1.2,0.5c0.2,0,0.4,0,0.6-0.1
				s0.4-0.1,0.6-0.2l0.1,2.3c-0.3,0.1-0.6,0.2-0.9,0.2s-0.7,0.1-1,0.1c-0.8,0-1.4-0.1-1.9-0.3c-0.5-0.2-0.9-0.5-1.1-0.9
				s-0.5-0.8-0.6-1.3c-0.1-0.5-0.2-1-0.2-1.6v-5.4L687,476.2L687,476.2z"/>
			<path d="M708.5,477c-0.3-0.3-0.6-0.6-1.1-0.9s-0.9-0.4-1.5-0.4c-0.5,0-0.9,0.1-1.3,0.3s-0.6,0.5-0.6,1c0,0.5,0.2,0.8,0.6,1
				s1,0.4,1.9,0.6c0.4,0.1,0.9,0.2,1.3,0.4s0.8,0.4,1.2,0.6c0.4,0.3,0.7,0.6,0.9,1c0.2,0.4,0.3,0.9,0.3,1.4c0,0.7-0.1,1.3-0.4,1.8
				c-0.3,0.5-0.6,0.9-1.1,1.2c-0.4,0.3-1,0.5-1.5,0.7c-0.6,0.1-1.2,0.2-1.8,0.2c-0.9,0-1.8-0.2-2.6-0.5s-1.5-0.8-2.1-1.4l1.9-1.8
				c0.3,0.4,0.7,0.8,1.2,1s1.1,0.4,1.7,0.4c0.2,0,0.4,0,0.6-0.1c0.2,0,0.4-0.1,0.6-0.2c0.2-0.1,0.3-0.2,0.4-0.4s0.2-0.4,0.2-0.6
				c0-0.5-0.2-0.8-0.7-1s-1.1-0.4-2-0.6c-0.4-0.1-0.8-0.2-1.3-0.4s-0.8-0.4-1.1-0.6s-0.6-0.6-0.8-0.9s-0.3-0.8-0.3-1.4
				c0-0.6,0.1-1.2,0.4-1.7c0.3-0.5,0.6-0.8,1-1.1c0.4-0.3,0.9-0.5,1.5-0.7c0.5-0.1,1.1-0.2,1.7-0.2c0.8,0,1.6,0.1,2.4,0.4
				c0.8,0.3,1.4,0.7,1.9,1.3L708.5,477z"/>
			<path d="M710.8,476.2v-2.3h2v-3.3h2.8v3.3h2.9v2.3h-2.9v5.4c0,0.5,0.1,0.9,0.3,1.3c0.2,0.3,0.6,0.5,1.2,0.5c0.2,0,0.4,0,0.6-0.1
				s0.4-0.1,0.6-0.2l0.1,2.3c-0.3,0.1-0.6,0.2-0.9,0.2s-0.7,0.1-1,0.1c-0.8,0-1.4-0.1-1.9-0.3c-0.5-0.2-0.9-0.5-1.1-0.9
				s-0.5-0.8-0.6-1.3c-0.1-0.5-0.2-1-0.2-1.6v-5.4L710.8,476.2L710.8,476.2z"/>
			<path d="M720.2,473.9h2.8v1.9h0c0.3-0.7,0.8-1.2,1.3-1.6s1.2-0.6,2-0.6c0.1,0,0.2,0,0.4,0s0.2,0,0.3,0.1v2.6
				c-0.2,0-0.4-0.1-0.5-0.1c-0.1,0-0.3,0-0.4,0c-0.7,0-1.2,0.1-1.6,0.4s-0.7,0.5-0.9,0.9c-0.2,0.3-0.4,0.7-0.5,1s-0.1,0.6-0.1,0.8
				v6.2h-2.9L720.2,473.9L720.2,473.9z"/>
			<path d="M739.2,479.8c0,0.1,0,0.3,0,0.4c0,0.1,0,0.3,0,0.4h-8.8c0,0.4,0.1,0.8,0.3,1.1s0.4,0.6,0.7,0.9s0.7,0.4,1,0.6
				c0.4,0.1,0.8,0.2,1.2,0.2c0.7,0,1.3-0.1,1.8-0.4s0.9-0.6,1.2-1.1l1.9,1.5c-1.1,1.5-2.8,2.3-4.9,2.3c-0.9,0-1.7-0.1-2.5-0.4
				s-1.4-0.7-2-1.2c-0.5-0.5-1-1.1-1.3-1.9c-0.3-0.7-0.5-1.6-0.5-2.5c0-0.9,0.2-1.8,0.5-2.5s0.7-1.4,1.3-1.9s1.2-1,1.9-1.2
				s1.5-0.4,2.4-0.4c0.8,0,1.5,0.1,2.2,0.4c0.7,0.3,1.3,0.7,1.8,1.2c0.5,0.5,0.9,1.2,1.2,1.9C739,477.9,739.2,478.8,739.2,479.8z
				 M736.3,478.5c0-0.4,0-0.7-0.2-1.1c-0.1-0.3-0.3-0.6-0.5-0.9s-0.5-0.5-0.8-0.6c-0.3-0.1-0.8-0.2-1.2-0.2c-0.9,0-1.6,0.3-2.2,0.8
				c-0.6,0.5-0.9,1.2-1,2L736.3,478.5L736.3,478.5z"/>
			<path d="M748.6,484L748.6,484c-0.4,0.5-0.8,0.9-1.5,1.3c-0.6,0.3-1.4,0.5-2.2,0.5c-0.5,0-1-0.1-1.5-0.2s-1-0.3-1.4-0.6
				s-0.8-0.6-1.1-1.1c-0.3-0.5-0.4-1-0.4-1.7c0-0.9,0.2-1.5,0.7-2.1s1.1-0.9,1.9-1.2c0.8-0.3,1.6-0.5,2.6-0.5s1.8-0.1,2.8-0.1V478
				c0-0.7-0.3-1.2-0.8-1.6s-1.1-0.5-1.9-0.5c-0.6,0-1.2,0.1-1.8,0.4c-0.6,0.3-1,0.6-1.4,0.9l-1.5-1.8c0.7-0.6,1.4-1.1,2.3-1.4
				c0.9-0.3,1.7-0.5,2.6-0.5c1,0,1.9,0.1,2.5,0.4c0.7,0.3,1.2,0.7,1.6,1.1s0.7,1,0.8,1.6s0.2,1.1,0.2,1.7v7h-2.7L748.6,484
				L748.6,484z M748.5,480.2h-0.7c-0.5,0-1,0-1.5,0.1s-1,0.1-1.4,0.3c-0.4,0.1-0.8,0.3-1.1,0.6s-0.4,0.6-0.4,1
				c0,0.3,0.1,0.5,0.2,0.7s0.3,0.3,0.5,0.4c0.2,0.1,0.4,0.2,0.7,0.2c0.2,0,0.5,0.1,0.7,0.1c1,0,1.7-0.3,2.3-0.8
				c0.5-0.5,0.8-1.2,0.8-2.2L748.5,480.2L748.5,480.2z"/>
			<path d="M754.3,467.3h2.9v11.5h0.1l4.4-4.9h3.7l-5,5.2l5.3,6.3h-3.8l-4.6-5.9h-0.1v5.9h-2.9V467.3z"/>
			<path d="M771.4,480.8h-5.8v-2.5h5.8V480.8z"/>
			<path d="M774.2,476.2H772v-2.3h2.2v-1.7c0-0.7,0.1-1.4,0.2-2c0.2-0.6,0.4-1.2,0.8-1.7c0.4-0.5,0.8-0.9,1.4-1.1
				c0.6-0.3,1.3-0.4,2.2-0.4c0.3,0,0.6,0,0.8,0c0.2,0,0.4,0.1,0.7,0.1l-0.2,2.5c-0.2,0-0.3-0.1-0.5-0.1c-0.2,0-0.4,0-0.6,0
				c-0.4,0-0.8,0.1-1,0.2s-0.5,0.4-0.6,0.6c-0.1,0.3-0.2,0.5-0.3,0.8s-0.1,0.6-0.1,0.9v1.9h2.7v2.3H777v9.2h-2.9L774.2,476.2
				L774.2,476.2z"/>
			<path d="M781.1,473.9h2.8v1.9h0c0.3-0.7,0.8-1.2,1.3-1.6s1.2-0.6,2-0.6c0.1,0,0.2,0,0.4,0s0.2,0,0.3,0.1v2.6
				c-0.2,0-0.4-0.1-0.5-0.1c-0.1,0-0.3,0-0.4,0c-0.7,0-1.2,0.1-1.6,0.4s-0.7,0.5-0.9,0.9c-0.2,0.3-0.4,0.7-0.5,1s-0.1,0.6-0.1,0.8
				v6.2h-2.9V473.9z"/>
			<path d="M800.1,479.8c0,0.1,0,0.3,0,0.4c0,0.1,0,0.3,0,0.4h-8.8c0,0.4,0.1,0.8,0.3,1.1s0.4,0.6,0.7,0.9s0.7,0.4,1,0.6
				c0.4,0.1,0.8,0.2,1.2,0.2c0.7,0,1.3-0.1,1.8-0.4s0.9-0.6,1.2-1.1l1.9,1.5c-1.1,1.5-2.8,2.3-4.9,2.3c-0.9,0-1.7-0.1-2.5-0.4
				s-1.4-0.7-2-1.2c-0.5-0.5-1-1.1-1.3-1.9c-0.3-0.7-0.5-1.6-0.5-2.5c0-0.9,0.2-1.8,0.5-2.5s0.7-1.4,1.3-1.9s1.2-1,1.9-1.2
				s1.5-0.4,2.4-0.4c0.8,0,1.5,0.1,2.2,0.4c0.7,0.3,1.3,0.7,1.8,1.2c0.5,0.5,0.9,1.2,1.2,1.9C799.9,477.9,800.1,478.8,800.1,479.8z
				 M797.2,478.5c0-0.4,0-0.7-0.2-1.1c-0.1-0.3-0.3-0.6-0.5-0.9s-0.5-0.5-0.8-0.6c-0.3-0.1-0.8-0.2-1.2-0.2c-0.9,0-1.6,0.3-2.2,0.8
				c-0.6,0.5-0.9,1.2-1,2L797.2,478.5L797.2,478.5z"/>
			<path d="M813.5,479.8c0,0.1,0,0.3,0,0.4c0,0.1,0,0.3,0,0.4h-8.8c0,0.4,0.1,0.8,0.3,1.1s0.4,0.6,0.7,0.9s0.7,0.4,1,0.6
				c0.4,0.1,0.8,0.2,1.2,0.2c0.7,0,1.3-0.1,1.8-0.4s0.9-0.6,1.2-1.1l1.9,1.5c-1.1,1.5-2.8,2.3-4.9,2.3c-0.9,0-1.7-0.1-2.5-0.4
				s-1.4-0.7-2-1.2c-0.5-0.5-1-1.1-1.3-1.9c-0.3-0.7-0.5-1.6-0.5-2.5c0-0.9,0.2-1.8,0.5-2.5s0.7-1.4,1.3-1.9s1.2-1,1.9-1.2
				s1.5-0.4,2.4-0.4c0.8,0,1.5,0.1,2.2,0.4c0.7,0.3,1.3,0.7,1.8,1.2c0.5,0.5,0.9,1.2,1.2,1.9C813.3,477.9,813.5,478.8,813.5,479.8z
				 M810.6,478.5c0-0.4,0-0.7-0.2-1.1c-0.1-0.3-0.3-0.6-0.5-0.9s-0.5-0.5-0.8-0.6c-0.3-0.1-0.8-0.2-1.2-0.2c-0.9,0-1.6,0.3-2.2,0.8
				c-0.6,0.5-0.9,1.2-1,2L810.6,478.5L810.6,478.5z"/>
			<path d="M816.9,488.6H815l1.7-6h2.3L816.9,488.6z"/>
			<path d="M396,517.7c0,0.9-0.2,1.7-0.5,2.4s-0.7,1.4-1.3,1.9c-0.5,0.5-1.2,1-2,1.2c-0.8,0.3-1.6,0.4-2.4,0.4
				c-0.9,0-1.7-0.2-2.4-0.4c-0.8-0.3-1.4-0.7-1.9-1.2s-1-1.2-1.3-1.9s-0.5-1.5-0.5-2.4s0.2-1.7,0.5-2.4s0.7-1.4,1.3-1.9
				c0.5-0.5,1.2-0.9,1.9-1.2s1.6-0.4,2.4-0.4c0.9,0,1.7,0.1,2.4,0.4c0.8,0.3,1.4,0.7,2,1.2c0.5,0.5,1,1.2,1.3,1.9
				S396,516.9,396,517.7z M393.7,517.8c0-0.5-0.1-1.1-0.2-1.6c-0.2-0.5-0.4-0.9-0.7-1.3s-0.7-0.7-1.2-0.9s-1-0.3-1.6-0.3
				c-0.6,0-1.1,0.1-1.6,0.3c-0.5,0.2-0.9,0.5-1.2,0.9s-0.6,0.8-0.7,1.3c-0.2,0.5-0.2,1-0.2,1.6c0,0.5,0.1,1.1,0.2,1.6
				c0.2,0.5,0.4,0.9,0.7,1.3c0.3,0.4,0.7,0.7,1.2,0.9s1,0.3,1.6,0.3c0.6,0,1.1-0.1,1.6-0.3s0.9-0.5,1.2-0.9s0.6-0.8,0.7-1.3
				C393.6,518.8,393.7,518.3,393.7,517.8z"/>
			<path d="M401.1,529.2h-2.3v-17.1h2.2v1.8h0.1c0.4-0.6,0.9-1.1,1.6-1.5s1.5-0.6,2.5-0.6c0.9,0,1.6,0.1,2.3,0.5
				c0.7,0.3,1.3,0.7,1.8,1.3c0.5,0.5,0.9,1.2,1.2,1.9s0.4,1.5,0.4,2.3s-0.1,1.6-0.4,2.3c-0.3,0.7-0.6,1.4-1.1,1.9s-1.1,1-1.8,1.3
				s-1.5,0.5-2.4,0.5c-0.8,0-1.6-0.2-2.3-0.5c-0.7-0.3-1.3-0.8-1.7-1.5h-0.1V529.2z M408.5,517.7c0-0.5-0.1-1-0.2-1.5
				s-0.4-0.9-0.7-1.3s-0.7-0.7-1.2-0.9s-1-0.3-1.6-0.3c-0.6,0-1.1,0.1-1.6,0.3c-0.5,0.2-0.9,0.5-1.2,0.9c-0.3,0.4-0.6,0.8-0.8,1.3
				s-0.3,1-0.3,1.6s0.1,1.1,0.3,1.6c0.2,0.5,0.4,0.9,0.8,1.3s0.7,0.7,1.2,0.9c0.5,0.2,1,0.3,1.6,0.3c0.6,0,1.2-0.1,1.6-0.3
				s0.9-0.5,1.2-0.9s0.6-0.8,0.7-1.3C408.5,518.8,408.5,518.3,408.5,517.7z"/>
			<path d="M419.2,513.9h-3v5.9c0,0.7,0.1,1.2,0.4,1.5c0.3,0.3,0.7,0.4,1.2,0.4c0.2,0,0.4,0,0.7-0.1c0.2,0,0.5-0.1,0.6-0.2l0.1,1.8
				c-0.3,0.1-0.6,0.2-0.9,0.2s-0.7,0.1-1,0.1c-1.1,0-1.9-0.3-2.5-0.9s-0.9-1.5-0.9-2.7v-6.2h-2.2v-1.8h2.2v-3.3h2.2v3.3h3
				L419.2,513.9L419.2,513.9z"/>
			<path d="M423.8,508c0,0.4-0.1,0.8-0.4,1s-0.6,0.4-1.1,0.4s-0.8-0.1-1-0.4s-0.4-0.6-0.4-1c0-0.4,0.1-0.8,0.4-1
				c0.3-0.3,0.6-0.4,1-0.4s0.8,0.1,1.1,0.4S423.8,507.6,423.8,508z M423.5,523.5h-2.3v-11.4h2.3V523.5z"/>
			<path d="M435,515c-0.2-0.4-0.6-0.7-1.1-0.9s-1-0.4-1.5-0.4c-0.6,0-1.1,0.1-1.6,0.3s-0.8,0.5-1.2,0.9s-0.6,0.8-0.7,1.3
				s-0.2,1-0.2,1.6s0.1,1.1,0.2,1.6s0.4,0.9,0.7,1.3s0.7,0.7,1.2,0.9c0.5,0.2,1,0.3,1.6,0.3c0.6,0,1.1-0.1,1.6-0.3
				c0.5-0.2,0.9-0.5,1.2-0.9l1.5,1.4c-0.5,0.6-1.1,1-1.8,1.3s-1.5,0.5-2.5,0.5c-0.9,0-1.7-0.1-2.4-0.4c-0.7-0.3-1.4-0.7-1.9-1.2
				c-0.5-0.5-1-1.2-1.3-1.9c-0.3-0.7-0.5-1.6-0.5-2.5c0-0.9,0.1-1.7,0.5-2.5c0.3-0.7,0.7-1.4,1.3-1.9c0.5-0.5,1.2-0.9,1.9-1.2
				c0.7-0.3,1.5-0.4,2.4-0.4c0.8,0,1.6,0.2,2.4,0.5c0.8,0.3,1.4,0.8,1.9,1.4L435,515z"/>
			<path d="M445.6,516.1c0-0.8-0.3-1.5-0.8-1.9c-0.5-0.4-1.2-0.6-2-0.6c-0.6,0-1.2,0.1-1.8,0.4s-1,0.6-1.4,1l-1.2-1.4
				c0.6-0.5,1.2-0.9,2-1.2c0.8-0.3,1.7-0.5,2.6-0.5c0.8,0,1.5,0.1,2.1,0.4c0.6,0.2,1.1,0.5,1.5,1c0.4,0.4,0.7,0.9,0.9,1.4
				c0.2,0.5,0.3,1.1,0.3,1.8v5c0,0.4,0,0.8,0,1.2c0,0.4,0.1,0.8,0.1,1h-2c-0.1-0.5-0.2-1.1-0.2-1.6h-0.1c-0.4,0.6-0.9,1.1-1.6,1.4
				c-0.6,0.3-1.4,0.5-2.2,0.5c-0.5,0-0.9-0.1-1.4-0.2c-0.5-0.1-0.9-0.3-1.3-0.6s-0.7-0.6-1-1.1c-0.3-0.5-0.4-1-0.4-1.7
				c0-0.9,0.2-1.5,0.7-2s1.1-0.9,1.8-1.2s1.6-0.4,2.5-0.5s1.9-0.1,2.9-0.1L445.6,516.1L445.6,516.1z M445.1,518
				c-0.6,0-1.1,0-1.7,0.1s-1.1,0.1-1.6,0.3c-0.5,0.1-0.9,0.4-1.2,0.7c-0.3,0.3-0.5,0.7-0.5,1.2c0,0.3,0.1,0.6,0.2,0.8
				c0.1,0.2,0.3,0.4,0.5,0.5s0.5,0.2,0.7,0.3s0.5,0.1,0.8,0.1c1.1,0,1.9-0.3,2.4-1s0.9-1.4,0.9-2.4V518L445.1,518L445.1,518z"/>
			<path d="M453.5,523.5h-2.3v-18.1h2.3V523.5z"/>
			<path d="M463.6,525.4c0.5,0.6,1.1,1,1.9,1.3c0.7,0.3,1.5,0.5,2.3,0.5c0.8,0,1.4-0.1,1.9-0.3s0.9-0.5,1.2-0.9
				c0.3-0.4,0.5-0.8,0.7-1.3c0.1-0.5,0.2-1.1,0.2-1.7v-1.5h0c-0.4,0.6-1,1.1-1.7,1.5c-0.7,0.3-1.5,0.5-2.3,0.5
				c-0.9,0-1.6-0.2-2.4-0.5c-0.7-0.3-1.3-0.7-1.8-1.2s-0.9-1.2-1.1-1.9s-0.4-1.5-0.4-2.3c0-0.8,0.1-1.6,0.4-2.3s0.7-1.3,1.1-1.9
				s1.1-1,1.8-1.3c0.7-0.3,1.5-0.5,2.4-0.5c0.8,0,1.6,0.2,2.3,0.5c0.7,0.3,1.3,0.9,1.8,1.6h0v-1.8h2.2v10.8c0,0.8-0.1,1.6-0.3,2.4
				s-0.6,1.4-1.1,2c-0.5,0.6-1.1,1-1.9,1.4c-0.8,0.3-1.8,0.5-3,0.5c-1,0-2-0.2-3-0.5s-1.9-0.9-2.6-1.5L463.6,525.4z M464.3,517.7
				c0,0.5,0.1,1,0.2,1.5s0.4,0.9,0.8,1.3s0.7,0.7,1.2,0.9c0.5,0.2,1,0.3,1.6,0.3c0.6,0,1.1-0.1,1.6-0.3s0.9-0.5,1.2-0.8
				s0.6-0.8,0.8-1.3s0.3-1,0.3-1.6c0-0.5-0.1-1.1-0.3-1.5c-0.2-0.5-0.5-0.9-0.8-1.3c-0.4-0.4-0.8-0.7-1.2-0.9
				c-0.5-0.2-1-0.3-1.6-0.3c-0.6,0-1.1,0.1-1.6,0.3c-0.5,0.2-0.9,0.5-1.2,0.9c-0.3,0.4-0.6,0.8-0.8,1.3
				C464.4,516.6,464.3,517.1,464.3,517.7z"/>
			<path d="M477.5,513.3c0-0.5,0-0.9-0.1-1.3h2.1c0,0.3,0.1,0.6,0.1,1c0,0.4,0,0.7,0,0.9h0.1c0.3-0.7,0.8-1.2,1.4-1.6
				c0.6-0.4,1.3-0.6,2.1-0.6c0.4,0,0.6,0,0.9,0.1L484,514c-0.3-0.1-0.7-0.1-1-0.1c-0.5,0-1,0.1-1.4,0.3c-0.4,0.2-0.7,0.5-1,0.8
				s-0.5,0.7-0.6,1.2s-0.2,0.9-0.2,1.4v6h-2.3v-8.9C477.5,514.2,477.5,513.8,477.5,513.3z"/>
			<path d="M492.6,516.1c0-0.8-0.3-1.5-0.8-1.9c-0.5-0.4-1.2-0.6-2-0.6c-0.6,0-1.2,0.1-1.8,0.4s-1,0.6-1.4,1l-1.2-1.4
				c0.6-0.5,1.2-0.9,2-1.2c0.8-0.3,1.7-0.5,2.6-0.5c0.8,0,1.5,0.1,2.1,0.4c0.6,0.2,1.1,0.5,1.5,1c0.4,0.4,0.7,0.9,0.9,1.4
				c0.2,0.5,0.3,1.1,0.3,1.8v5c0,0.4,0,0.8,0,1.2c0,0.4,0.1,0.8,0.1,1h-2c-0.1-0.5-0.2-1.1-0.2-1.6h-0.1c-0.4,0.6-0.9,1.1-1.6,1.4
				c-0.6,0.3-1.4,0.5-2.2,0.5c-0.5,0-0.9-0.1-1.4-0.2c-0.5-0.1-0.9-0.3-1.3-0.6s-0.7-0.6-1-1.1c-0.3-0.5-0.4-1-0.4-1.7
				c0-0.9,0.2-1.5,0.7-2s1.1-0.9,1.8-1.2s1.6-0.4,2.5-0.5s1.9-0.1,2.9-0.1L492.6,516.1L492.6,516.1z M492.1,518
				c-0.6,0-1.1,0-1.7,0.1s-1.1,0.1-1.6,0.3c-0.5,0.1-0.9,0.4-1.2,0.7c-0.3,0.3-0.5,0.7-0.5,1.2c0,0.3,0.1,0.6,0.2,0.8
				c0.1,0.2,0.3,0.4,0.5,0.5s0.5,0.2,0.7,0.3s0.5,0.1,0.8,0.1c1.1,0,1.9-0.3,2.4-1s0.9-1.4,0.9-2.4V518L492.1,518L492.1,518z"/>
			<path d="M507.3,521.7c-0.4,0.7-1,1.2-1.8,1.6c-0.7,0.4-1.5,0.5-2.3,0.5c-0.9,0-1.7-0.2-2.4-0.5c-0.7-0.3-1.3-0.7-1.8-1.3
				s-0.9-1.2-1.1-1.9s-0.4-1.5-0.4-2.3s0.1-1.6,0.4-2.3c0.3-0.7,0.7-1.4,1.2-1.9s1.1-1,1.8-1.3c0.7-0.3,1.5-0.5,2.3-0.5
				c0.9,0,1.7,0.2,2.4,0.6c0.7,0.4,1.2,0.9,1.6,1.4h0v-8.5h2.3v18.1h-2.2L507.3,521.7L507.3,521.7z M499.8,517.8
				c0,0.5,0.1,1,0.2,1.5c0.2,0.5,0.4,0.9,0.7,1.3c0.3,0.4,0.7,0.7,1.2,0.9c0.5,0.2,1,0.3,1.6,0.3c0.6,0,1.1-0.1,1.6-0.3
				c0.5-0.2,0.9-0.5,1.2-0.9s0.6-0.8,0.8-1.3s0.3-1,0.3-1.5s-0.1-1.1-0.3-1.6s-0.4-0.9-0.8-1.3s-0.7-0.7-1.2-0.9s-1-0.3-1.6-0.3
				c-0.6,0-1.2,0.1-1.6,0.3c-0.5,0.2-0.9,0.5-1.2,0.9c-0.3,0.4-0.6,0.8-0.7,1.3C499.9,516.7,499.8,517.2,499.8,517.8z"/>
			<path d="M523.7,517.7c0,0.1,0,0.3,0,0.4s0,0.3,0,0.4h-9c0,0.5,0.1,0.9,0.3,1.3s0.5,0.8,0.8,1.1s0.7,0.5,1.2,0.7
				c0.4,0.2,0.9,0.3,1.4,0.3c0.8,0,1.4-0.2,2-0.5s1-0.7,1.3-1.2l1.6,1.3c-0.6,0.8-1.3,1.4-2.2,1.8s-1.7,0.6-2.8,0.6
				c-0.9,0-1.7-0.1-2.4-0.4s-1.4-0.7-1.9-1.2c-0.5-0.5-1-1.2-1.2-1.9c-0.3-0.7-0.5-1.5-0.5-2.5c0-0.9,0.2-1.7,0.5-2.4
				s0.7-1.4,1.2-1.9c0.5-0.5,1.2-0.9,1.9-1.2c0.7-0.3,1.5-0.4,2.3-0.4s1.6,0.1,2.3,0.4c0.7,0.3,1.3,0.7,1.7,1.2
				c0.5,0.5,0.8,1.1,1.1,1.9C523.6,515.9,523.7,516.8,523.7,517.7z M521.4,516.8c0-0.5-0.1-0.9-0.2-1.3c-0.1-0.4-0.3-0.7-0.6-1
				s-0.6-0.5-1-0.7s-0.8-0.2-1.4-0.2c-0.5,0-0.9,0.1-1.4,0.2s-0.8,0.4-1.1,0.7s-0.6,0.6-0.8,1s-0.3,0.8-0.3,1.3H521.4z"/>
			<path d="M540.1,515c-0.2-0.4-0.6-0.7-1.1-0.9c-0.5-0.2-1-0.4-1.5-0.4c-0.6,0-1.1,0.1-1.6,0.3s-0.8,0.5-1.2,0.9
				c-0.3,0.4-0.6,0.8-0.7,1.3s-0.2,1-0.2,1.6s0.1,1.1,0.2,1.6s0.4,0.9,0.7,1.3s0.7,0.7,1.2,0.9c0.5,0.2,1,0.3,1.6,0.3
				c0.6,0,1.1-0.1,1.6-0.3c0.5-0.2,0.9-0.5,1.2-0.9l1.5,1.4c-0.5,0.6-1.1,1-1.8,1.3s-1.5,0.5-2.5,0.5c-0.9,0-1.7-0.1-2.4-0.4
				s-1.4-0.7-1.9-1.2s-1-1.2-1.3-1.9c-0.3-0.7-0.5-1.6-0.5-2.5c0-0.9,0.2-1.7,0.5-2.5c0.3-0.7,0.7-1.4,1.3-1.9s1.2-0.9,1.9-1.2
				c0.7-0.3,1.5-0.4,2.4-0.4c0.8,0,1.6,0.2,2.4,0.5c0.8,0.3,1.4,0.8,1.9,1.4L540.1,515z"/>
			<path d="M545.9,523.5h-2.3v-18.1h2.3V523.5z"/>
			<path d="M556.6,516.1c0-0.8-0.3-1.5-0.8-1.9c-0.5-0.4-1.2-0.6-2-0.6c-0.6,0-1.2,0.1-1.8,0.4s-1,0.6-1.4,1l-1.2-1.4
				c0.6-0.5,1.2-0.9,2-1.2c0.8-0.3,1.7-0.5,2.6-0.5c0.8,0,1.5,0.1,2.1,0.4c0.6,0.2,1.1,0.5,1.5,1c0.4,0.4,0.7,0.9,0.9,1.4
				c0.2,0.5,0.3,1.1,0.3,1.8v5c0,0.4,0,0.8,0,1.2c0,0.4,0.1,0.8,0.1,1h-2c-0.1-0.5-0.2-1.1-0.2-1.6h-0.1c-0.4,0.6-0.9,1.1-1.6,1.4
				s-1.4,0.5-2.2,0.5c-0.5,0-0.9-0.1-1.4-0.2c-0.5-0.1-0.9-0.3-1.3-0.6s-0.7-0.6-1-1.1c-0.3-0.5-0.4-1-0.4-1.7c0-0.9,0.2-1.5,0.7-2
				s1.1-0.9,1.8-1.2s1.6-0.4,2.5-0.5s1.9-0.1,2.9-0.1L556.6,516.1L556.6,516.1z M556,518c-0.6,0-1.1,0-1.7,0.1s-1.1,0.1-1.6,0.3
				c-0.5,0.1-0.9,0.4-1.2,0.7s-0.5,0.7-0.5,1.2c0,0.3,0.1,0.6,0.2,0.8c0.1,0.2,0.3,0.4,0.5,0.5s0.5,0.2,0.7,0.3s0.5,0.1,0.8,0.1
				c1.1,0,1.9-0.3,2.4-1s0.8-1.4,0.8-2.4V518L556,518L556,518z"/>
			<path d="M562.1,513.3c0-0.5,0-0.9-0.1-1.3h2.1c0,0.3,0.1,0.6,0.1,1s0,0.7,0,0.9h0.1c0.3-0.7,0.8-1.2,1.4-1.6s1.3-0.6,2.1-0.6
				c0.3,0,0.7,0,0.9,0.1l-0.1,2.1c-0.3-0.1-0.7-0.1-1-0.1c-0.5,0-1,0.1-1.4,0.3c-0.4,0.2-0.7,0.5-1,0.8c-0.3,0.3-0.5,0.7-0.6,1.2
				s-0.2,0.9-0.2,1.4v6h-2.3v-8.9C562.1,514.2,562.1,513.8,562.1,513.3z"/>
			<path d="M573.1,508c0,0.4-0.2,0.8-0.4,1s-0.7,0.4-1.1,0.4s-0.8-0.1-1-0.4s-0.4-0.6-0.4-1c0-0.4,0.1-0.8,0.4-1s0.6-0.4,1-0.4
				s0.8,0.1,1.1,0.4C573,507.2,573.1,507.6,573.1,508z M572.7,523.5h-2.3v-11.4h2.3V523.5z"/>
			<path d="M581.9,513.9h-3v5.9c0,0.7,0.1,1.2,0.4,1.5s0.7,0.4,1.2,0.4c0.2,0,0.4,0,0.7-0.1c0.2,0,0.5-0.1,0.7-0.2l0.1,1.8
				c-0.3,0.1-0.6,0.2-0.9,0.2s-0.7,0.1-1,0.1c-1.1,0-1.9-0.3-2.5-0.9s-0.8-1.5-0.8-2.7v-6.2h-2.2v-1.8h2.2v-3.3h2.2v3.3h3
				L581.9,513.9L581.9,513.9z"/>
			<path d="M588.2,521L588.2,521l3.2-8.9h2.4l-5.5,14.1c-0.2,0.5-0.4,0.9-0.6,1.3c-0.2,0.4-0.5,0.7-0.8,1s-0.7,0.5-1.1,0.6
				c-0.4,0.1-0.9,0.2-1.5,0.2c-0.2,0-0.5,0-0.7,0c-0.2,0-0.5-0.1-0.8-0.1l0.2-2c0.4,0.1,0.8,0.2,1.1,0.2c0.6,0,1-0.2,1.3-0.5
				s0.5-0.8,0.8-1.4l0.7-1.9l-4.9-11.4h2.5L588.2,521z"/>
			<path d="M608.3,516.1c0-0.8-0.3-1.5-0.8-1.9c-0.5-0.4-1.2-0.6-2-0.6c-0.6,0-1.2,0.1-1.8,0.4s-1,0.6-1.4,1l-1.2-1.4
				c0.6-0.5,1.2-0.9,2-1.2c0.8-0.3,1.7-0.5,2.6-0.5c0.8,0,1.5,0.1,2.1,0.4c0.6,0.2,1.1,0.5,1.5,1c0.4,0.4,0.7,0.9,0.9,1.4
				c0.2,0.5,0.3,1.1,0.3,1.8v5c0,0.4,0,0.8,0,1.2c0,0.4,0.1,0.8,0.1,1h-2c-0.1-0.5-0.2-1.1-0.2-1.6h-0.1c-0.4,0.6-0.9,1.1-1.6,1.4
				s-1.4,0.5-2.2,0.5c-0.5,0-0.9-0.1-1.4-0.2c-0.5-0.1-0.9-0.3-1.3-0.6s-0.7-0.6-1-1.1c-0.3-0.5-0.4-1-0.4-1.7c0-0.9,0.2-1.5,0.7-2
				s1.1-0.9,1.8-1.2s1.6-0.4,2.5-0.5s1.9-0.1,2.9-0.1L608.3,516.1L608.3,516.1z M607.8,518c-0.6,0-1.1,0-1.7,0.1s-1.1,0.1-1.6,0.3
				c-0.5,0.1-0.9,0.4-1.2,0.7s-0.5,0.7-0.5,1.2c0,0.3,0.1,0.6,0.2,0.8c0.1,0.2,0.3,0.4,0.5,0.5s0.5,0.2,0.7,0.3s0.5,0.1,0.8,0.1
				c1.1,0,1.9-0.3,2.4-1s0.8-1.4,0.8-2.4V518L607.8,518L607.8,518z"/>
			<path d="M615.9,512.1c0,0.3,0.1,0.6,0.1,1s0,0.7,0,0.9h0.1c0.1-0.3,0.3-0.6,0.6-0.8c0.2-0.3,0.5-0.5,0.8-0.7s0.7-0.4,1.1-0.5
				c0.4-0.1,0.8-0.2,1.2-0.2c0.7,0,1.4,0.1,1.9,0.4s1,0.6,1.3,1c0.3,0.4,0.6,0.9,0.8,1.5c0.2,0.6,0.2,1.2,0.2,1.8v7.1h-2.3v-6.3
				c0-0.5,0-0.9-0.1-1.3s-0.2-0.8-0.4-1.1c-0.2-0.3-0.5-0.6-0.8-0.8c-0.3-0.2-0.8-0.3-1.3-0.3c-0.9,0-1.6,0.3-2.2,1
				s-0.8,1.6-0.8,2.7v6h-2.3v-8.9c0-0.3,0-0.7,0-1.2c0-0.5,0-0.9-0.1-1.3L615.9,512.1L615.9,512.1z"/>
			<path d="M636.5,521.7c-0.4,0.7-1,1.2-1.8,1.6s-1.5,0.5-2.3,0.5c-0.9,0-1.7-0.2-2.4-0.5s-1.3-0.7-1.8-1.3
				c-0.5-0.5-0.9-1.2-1.2-1.9s-0.4-1.5-0.4-2.3s0.1-1.6,0.4-2.3c0.3-0.7,0.7-1.4,1.2-1.9s1.1-1,1.8-1.3c0.7-0.3,1.5-0.5,2.3-0.5
				c0.9,0,1.7,0.2,2.4,0.6c0.7,0.4,1.2,0.9,1.6,1.4h0v-8.5h2.3v18.1h-2.2L636.5,521.7L636.5,521.7z M629.1,517.8
				c0,0.5,0.1,1,0.2,1.5c0.2,0.5,0.4,0.9,0.7,1.3c0.3,0.4,0.7,0.7,1.2,0.9c0.5,0.2,1,0.3,1.6,0.3c0.6,0,1.1-0.1,1.6-0.3
				c0.5-0.2,0.9-0.5,1.2-0.9s0.6-0.8,0.8-1.3c0.2-0.5,0.3-1,0.3-1.5s-0.1-1.1-0.3-1.6c-0.2-0.5-0.4-0.9-0.8-1.3s-0.7-0.7-1.2-0.9
				c-0.5-0.2-1-0.3-1.6-0.3c-0.6,0-1.2,0.1-1.6,0.3s-0.9,0.5-1.2,0.9c-0.3,0.4-0.6,0.8-0.7,1.3S629.1,517.2,629.1,517.8z"/>
			<path d="M650.2,521.7v1.8H648v-18.1h2.3v8.5h0.1c0.4-0.6,0.9-1,1.6-1.4c0.7-0.4,1.5-0.6,2.4-0.6c0.8,0,1.6,0.1,2.3,0.5
				c0.7,0.3,1.3,0.7,1.8,1.3s0.9,1.2,1.2,1.9c0.3,0.7,0.4,1.5,0.4,2.3s-0.1,1.6-0.4,2.3c-0.3,0.7-0.7,1.4-1.2,1.9s-1.1,1-1.8,1.3
				s-1.5,0.5-2.4,0.5c-0.8,0-1.6-0.2-2.3-0.5S650.7,522.3,650.2,521.7L650.2,521.7L650.2,521.7z M657.8,517.8c0-0.5-0.1-1-0.2-1.5
				c-0.2-0.5-0.4-0.9-0.7-1.3c-0.3-0.4-0.7-0.7-1.2-0.9s-1-0.3-1.6-0.3c-0.6,0-1.1,0.1-1.6,0.3c-0.5,0.2-0.9,0.5-1.2,0.9
				s-0.6,0.8-0.8,1.3s-0.3,1-0.3,1.6c0,0.5,0.1,1.1,0.3,1.5c0.2,0.5,0.4,0.9,0.8,1.3s0.7,0.7,1.2,0.9c0.5,0.2,1,0.3,1.6,0.3
				c0.6,0,1.2-0.1,1.6-0.3c0.5-0.2,0.9-0.5,1.2-0.9s0.6-0.8,0.7-1.3C657.7,518.8,657.8,518.3,657.8,517.8z"/>
			<path d="M670.9,523.5c0-0.3-0.1-0.6-0.1-1c0-0.4,0-0.7,0-0.9h0c-0.3,0.6-0.8,1.1-1.5,1.5c-0.7,0.4-1.4,0.6-2.3,0.6
				c-0.7,0-1.4-0.1-1.9-0.4s-1-0.6-1.3-1c-0.3-0.4-0.6-0.9-0.8-1.5c-0.2-0.6-0.2-1.2-0.2-1.8v-7.1h2.3v6.3c0,0.5,0,0.9,0.1,1.3
				s0.2,0.8,0.4,1.1c0.2,0.3,0.5,0.6,0.8,0.8c0.3,0.2,0.8,0.3,1.3,0.3c0.9,0,1.7-0.3,2.2-1s0.8-1.6,0.8-2.7v-6h2.3v8.9
				c0,0.3,0,0.7,0,1.2c0,0.5,0,0.9,0.1,1.3L670.9,523.5L670.9,523.5z"/>
			<path d="M679.2,508c0,0.4-0.2,0.8-0.4,1s-0.7,0.4-1.1,0.4s-0.8-0.1-1-0.4s-0.4-0.6-0.4-1c0-0.4,0.1-0.8,0.4-1s0.6-0.4,1-0.4
				s0.8,0.1,1.1,0.4S679.2,507.6,679.2,508z M678.8,523.5h-2.3v-11.4h2.3V523.5z"/>
			<path d="M684.7,523.5h-2.3v-18.1h2.3V523.5z"/>
			<path d="M697.3,521.7c-0.4,0.7-1,1.2-1.8,1.6s-1.5,0.5-2.3,0.5c-0.9,0-1.7-0.2-2.4-0.5s-1.3-0.7-1.8-1.3
				c-0.5-0.5-0.9-1.2-1.2-1.9s-0.4-1.5-0.4-2.3s0.1-1.6,0.4-2.3c0.3-0.7,0.7-1.4,1.2-1.9s1.1-1,1.8-1.3c0.7-0.3,1.5-0.5,2.3-0.5
				c0.9,0,1.7,0.2,2.4,0.6c0.7,0.4,1.2,0.9,1.6,1.4h0v-8.5h2.3v18.1h-2.2L697.3,521.7L697.3,521.7z M689.8,517.8
				c0,0.5,0.1,1,0.2,1.5c0.2,0.5,0.4,0.9,0.7,1.3c0.3,0.4,0.7,0.7,1.2,0.9c0.5,0.2,1,0.3,1.6,0.3c0.6,0,1.1-0.1,1.6-0.3
				c0.5-0.2,0.9-0.5,1.2-0.9s0.6-0.8,0.8-1.3c0.2-0.5,0.3-1,0.3-1.5s-0.1-1.1-0.3-1.6c-0.2-0.5-0.4-0.9-0.8-1.3s-0.7-0.7-1.2-0.9
				c-0.5-0.2-1-0.3-1.6-0.3c-0.6,0-1.2,0.1-1.6,0.3s-0.9,0.5-1.2,0.9c-0.3,0.4-0.6,0.8-0.7,1.3S689.8,517.2,689.8,517.8z"/>
			<path d="M715.8,516.1c0-0.8-0.3-1.5-0.8-1.9c-0.5-0.4-1.2-0.6-2-0.6c-0.6,0-1.2,0.1-1.8,0.4s-1,0.6-1.4,1l-1.2-1.4
				c0.6-0.5,1.2-0.9,2-1.2c0.8-0.3,1.7-0.5,2.6-0.5c0.8,0,1.5,0.1,2.1,0.4c0.6,0.2,1.1,0.5,1.5,1c0.4,0.4,0.7,0.9,0.9,1.4
				c0.2,0.5,0.3,1.1,0.3,1.8v5c0,0.4,0,0.8,0,1.2c0,0.4,0.1,0.8,0.1,1h-2c-0.1-0.5-0.2-1.1-0.2-1.6h-0.1c-0.4,0.6-0.9,1.1-1.6,1.4
				s-1.4,0.5-2.2,0.5c-0.5,0-0.9-0.1-1.4-0.2c-0.5-0.1-0.9-0.3-1.3-0.6s-0.7-0.6-1-1.1c-0.3-0.5-0.4-1-0.4-1.7c0-0.9,0.2-1.5,0.7-2
				s1.1-0.9,1.8-1.2s1.6-0.4,2.5-0.5s1.9-0.1,2.9-0.1L715.8,516.1L715.8,516.1z M715.3,518c-0.6,0-1.1,0-1.7,0.1s-1.1,0.1-1.6,0.3
				c-0.5,0.1-0.9,0.4-1.2,0.7s-0.5,0.7-0.5,1.2c0,0.3,0.1,0.6,0.2,0.8c0.1,0.2,0.3,0.4,0.5,0.5s0.5,0.2,0.7,0.3s0.5,0.1,0.8,0.1
				c1.1,0,1.9-0.3,2.4-1s0.8-1.4,0.8-2.4V518L715.3,518L715.3,518z"/>
			<path d="M733.2,515c-0.3-0.4-0.6-0.8-1.1-1s-1-0.4-1.6-0.4c-0.3,0-0.5,0-0.8,0.1s-0.5,0.1-0.7,0.3s-0.4,0.3-0.5,0.5
				c-0.1,0.2-0.2,0.4-0.2,0.7c0,0.5,0.2,0.8,0.7,1.1c0.4,0.2,1.1,0.4,1.9,0.6c0.5,0.1,1,0.3,1.5,0.5s0.9,0.4,1.2,0.7
				c0.3,0.3,0.6,0.6,0.8,1s0.3,0.8,0.3,1.3c0,0.7-0.1,1.2-0.4,1.7c-0.3,0.5-0.6,0.8-1,1.1c-0.4,0.3-0.9,0.5-1.5,0.6
				s-1.1,0.2-1.7,0.2c-0.9,0-1.7-0.2-2.5-0.5s-1.5-0.8-2-1.5l1.6-1.4c0.3,0.5,0.7,0.8,1.3,1.1c0.5,0.3,1.1,0.5,1.8,0.5
				c0.3,0,0.6,0,0.8-0.1c0.3-0.1,0.5-0.2,0.7-0.3s0.4-0.3,0.5-0.5c0.1-0.2,0.2-0.5,0.2-0.8c0-0.5-0.2-0.9-0.8-1.2
				c-0.5-0.2-1.2-0.5-2.2-0.7c-0.4-0.1-0.8-0.2-1.2-0.3c-0.4-0.1-0.8-0.3-1.1-0.6s-0.6-0.5-0.8-0.9c-0.2-0.4-0.3-0.8-0.3-1.3
				c0-0.6,0.1-1.1,0.4-1.6s0.6-0.8,1-1.1c0.4-0.3,0.9-0.5,1.4-0.6c0.5-0.1,1-0.2,1.6-0.2c0.8,0,1.6,0.2,2.4,0.5
				c0.8,0.3,1.3,0.8,1.8,1.4L733.2,515z"/>
			<path d="M739.7,523.5h-2.3v-18.1h2.3V523.5z"/>
			<path d="M745.9,508c0,0.4-0.2,0.8-0.4,1s-0.7,0.4-1.1,0.4s-0.8-0.1-1-0.4s-0.4-0.6-0.4-1c0-0.4,0.1-0.8,0.4-1s0.6-0.4,1-0.4
				s0.8,0.1,1.1,0.4S745.9,507.6,745.9,508z M745.5,523.5h-2.3v-11.4h2.3V523.5z"/>
			<path d="M757,515c-0.2-0.4-0.6-0.7-1.1-0.9c-0.5-0.2-1-0.4-1.5-0.4c-0.6,0-1.1,0.1-1.6,0.3s-0.8,0.5-1.2,0.9
				c-0.3,0.4-0.6,0.8-0.7,1.3s-0.2,1-0.2,1.6s0.1,1.1,0.2,1.6s0.4,0.9,0.7,1.3s0.7,0.7,1.2,0.9c0.5,0.2,1,0.3,1.6,0.3
				c0.6,0,1.1-0.1,1.6-0.3c0.5-0.2,0.9-0.5,1.2-0.9l1.5,1.4c-0.5,0.6-1.1,1-1.8,1.3s-1.5,0.5-2.5,0.5c-0.9,0-1.7-0.1-2.4-0.4
				s-1.4-0.7-1.9-1.2s-1-1.2-1.3-1.9c-0.3-0.7-0.5-1.6-0.5-2.5c0-0.9,0.2-1.7,0.5-2.5c0.3-0.7,0.7-1.4,1.3-1.9s1.2-0.9,1.9-1.2
				c0.7-0.3,1.5-0.4,2.4-0.4c0.8,0,1.6,0.2,2.4,0.5c0.8,0.3,1.4,0.8,1.9,1.4L757,515z"/>
			<path d="M762.9,517L762.9,517l4.9-4.9h3l-5.3,5.2l5.8,6.2h-3.1l-5.1-5.9h-0.1v5.9h-2.3v-18.1h2.3L762.9,517L762.9,517z"/>
			<path d="M385.4,550.1l2.6,8.7h0l2.7-8.7h2.4l2.8,8.7h0l2.6-8.7h2.4l-3.8,11.4h-2.4l-2.8-8.5h0l-2.8,8.5h-2.4l-3.8-11.4H385.4z"/>
			<path d="M413.4,555.7c0,0.1,0,0.3,0,0.4s0,0.3,0,0.4h-9c0,0.5,0.1,0.9,0.3,1.3s0.5,0.8,0.8,1.1s0.7,0.5,1.2,0.7s0.9,0.3,1.4,0.3
				c0.8,0,1.4-0.2,2-0.5s1-0.7,1.3-1.2l1.6,1.3c-0.6,0.8-1.3,1.4-2.1,1.8c-0.8,0.4-1.7,0.6-2.8,0.6c-0.9,0-1.7-0.1-2.4-0.4
				s-1.4-0.7-1.9-1.2s-0.9-1.2-1.2-1.9c-0.3-0.7-0.5-1.5-0.5-2.5c0-0.9,0.1-1.7,0.4-2.4c0.3-0.7,0.7-1.4,1.2-1.9
				c0.5-0.5,1.1-0.9,1.9-1.2c0.7-0.3,1.5-0.4,2.3-0.4s1.6,0.1,2.3,0.4c0.7,0.3,1.3,0.7,1.7,1.2c0.5,0.5,0.8,1.1,1.1,1.9
				C413.2,553.9,413.4,554.8,413.4,555.7z M411,554.8c0-0.5-0.1-0.9-0.2-1.3s-0.3-0.7-0.6-1c-0.3-0.3-0.6-0.5-1-0.7
				s-0.9-0.2-1.4-0.2c-0.5,0-0.9,0.1-1.4,0.2c-0.4,0.2-0.8,0.4-1.1,0.7s-0.6,0.6-0.8,1c-0.2,0.4-0.3,0.8-0.4,1.3H411z"/>
			<path d="M423,554.1c0-0.8-0.3-1.5-0.8-1.9c-0.5-0.4-1.2-0.6-2-0.6c-0.6,0-1.2,0.1-1.8,0.4s-1,0.6-1.4,1l-1.2-1.4
				c0.6-0.5,1.2-0.9,2-1.2c0.8-0.3,1.7-0.5,2.6-0.5c0.8,0,1.5,0.1,2.1,0.3s1.1,0.5,1.5,1c0.4,0.4,0.7,0.9,0.9,1.4
				c0.2,0.5,0.3,1.1,0.3,1.8v5c0,0.4,0,0.8,0,1.2c0,0.4,0.1,0.8,0.1,1h-2c-0.1-0.5-0.2-1.1-0.2-1.6h-0.1c-0.4,0.6-0.9,1.1-1.6,1.4
				c-0.6,0.3-1.4,0.5-2.2,0.5c-0.5,0-0.9-0.1-1.4-0.2c-0.5-0.1-0.9-0.3-1.3-0.6s-0.7-0.6-1-1.1c-0.3-0.5-0.4-1-0.4-1.7
				c0-0.9,0.2-1.5,0.7-2s1.1-0.9,1.8-1.2s1.6-0.4,2.5-0.5s1.9-0.1,2.9-0.1L423,554.1L423,554.1z M422.5,556c-0.6,0-1.1,0-1.7,0.1
				s-1.1,0.1-1.6,0.3c-0.5,0.1-0.9,0.4-1.2,0.7c-0.3,0.3-0.5,0.7-0.5,1.2c0,0.3,0.1,0.6,0.2,0.8c0.1,0.2,0.3,0.4,0.5,0.5
				s0.5,0.2,0.7,0.3s0.5,0.1,0.8,0.1c1.1,0,1.9-0.3,2.4-1s0.9-1.4,0.9-2.4V556L422.5,556L422.5,556z"/>
			<path d="M433.9,551.9h-3v5.9c0,0.7,0.1,1.2,0.4,1.5c0.3,0.3,0.7,0.4,1.2,0.4c0.2,0,0.4,0,0.7-0.1c0.2,0,0.5-0.1,0.6-0.2l0.1,1.8
				c-0.3,0.1-0.6,0.2-0.9,0.2s-0.7,0.1-1,0.1c-1.1,0-1.9-0.3-2.5-0.9s-0.9-1.5-0.9-2.7v-6.2h-2.2v-1.8h2.2v-3.3h2.2v3.3h3
				L433.9,551.9L433.9,551.9z"/>
			<path d="M438.3,551.8c0.3-0.6,0.7-1,1.4-1.4c0.7-0.4,1.4-0.6,2.2-0.6c0.7,0,1.4,0.1,1.9,0.4s1,0.6,1.3,1s0.6,0.9,0.8,1.5
				s0.2,1.2,0.2,1.8v7.1h-2.3v-6.3c0-0.5,0-0.9-0.1-1.3c-0.1-0.4-0.2-0.8-0.4-1.1c-0.2-0.3-0.5-0.6-0.8-0.8s-0.8-0.3-1.3-0.3
				c-0.9,0-1.6,0.3-2.2,1s-0.9,1.6-0.9,2.7v6H436v-18.1h2.3L438.3,551.8L438.3,551.8L438.3,551.8z"/>
			<path d="M460.2,555.7c0,0.1,0,0.3,0,0.4s0,0.3,0,0.4h-9c0,0.5,0.1,0.9,0.3,1.3s0.5,0.8,0.8,1.1s0.7,0.5,1.2,0.7s0.9,0.3,1.4,0.3
				c0.8,0,1.4-0.2,2-0.5s1-0.7,1.3-1.2l1.6,1.3c-0.6,0.8-1.3,1.4-2.1,1.8c-0.8,0.4-1.7,0.6-2.8,0.6c-0.9,0-1.7-0.1-2.4-0.4
				s-1.4-0.7-1.9-1.2s-0.9-1.2-1.2-1.9c-0.3-0.7-0.5-1.5-0.5-2.5c0-0.9,0.1-1.7,0.4-2.4c0.3-0.7,0.7-1.4,1.2-1.9
				c0.5-0.5,1.1-0.9,1.9-1.2c0.7-0.3,1.5-0.4,2.3-0.4s1.6,0.1,2.3,0.4c0.7,0.3,1.3,0.7,1.7,1.2c0.5,0.5,0.8,1.1,1.1,1.9
				C460.1,553.9,460.2,554.8,460.2,555.7z M457.9,554.8c0-0.5-0.1-0.9-0.2-1.3s-0.3-0.7-0.6-1c-0.3-0.3-0.6-0.5-1-0.7
				s-0.9-0.2-1.4-0.2c-0.5,0-0.9,0.1-1.4,0.2c-0.4,0.2-0.8,0.4-1.1,0.7s-0.6,0.6-0.8,1c-0.2,0.4-0.3,0.8-0.4,1.3H457.9z"/>
			<path d="M462.9,551.3c0-0.5,0-0.9-0.1-1.3h2.1c0,0.3,0.1,0.6,0.1,1c0,0.4,0,0.7,0,0.9h0.1c0.3-0.7,0.8-1.2,1.4-1.6
				c0.6-0.4,1.3-0.6,2.1-0.6c0.4,0,0.6,0,0.9,0.1l-0.1,2.1c-0.3-0.1-0.7-0.1-1-0.1c-0.5,0-1,0.1-1.4,0.3c-0.4,0.2-0.7,0.5-1,0.8
				s-0.5,0.7-0.6,1.2s-0.2,0.9-0.2,1.4v6h-2.3v-8.9C463,552.2,463,551.8,462.9,551.3z"/>
			<path d="M484,554.1c0-0.8-0.3-1.5-0.8-1.9c-0.5-0.4-1.2-0.6-2-0.6c-0.6,0-1.2,0.1-1.8,0.4s-1,0.6-1.4,1l-1.2-1.4
				c0.6-0.5,1.2-0.9,2-1.2c0.8-0.3,1.7-0.5,2.6-0.5c0.8,0,1.5,0.1,2.1,0.3s1.1,0.5,1.5,1c0.4,0.4,0.7,0.9,0.9,1.4
				c0.2,0.5,0.3,1.1,0.3,1.8v5c0,0.4,0,0.8,0,1.2c0,0.4,0.1,0.8,0.1,1h-2c-0.1-0.5-0.2-1.1-0.2-1.6H484c-0.4,0.6-0.9,1.1-1.6,1.4
				c-0.6,0.3-1.4,0.5-2.2,0.5c-0.5,0-0.9-0.1-1.4-0.2c-0.5-0.1-0.9-0.3-1.3-0.6s-0.7-0.6-1-1.1c-0.3-0.5-0.4-1-0.4-1.7
				c0-0.9,0.2-1.5,0.7-2s1.1-0.9,1.8-1.2s1.6-0.4,2.5-0.5s1.9-0.1,2.9-0.1L484,554.1L484,554.1z M483.5,556c-0.6,0-1.1,0-1.7,0.1
				s-1.1,0.1-1.6,0.3c-0.5,0.1-0.9,0.4-1.2,0.7c-0.3,0.3-0.5,0.7-0.5,1.2c0,0.3,0.1,0.6,0.2,0.8c0.1,0.2,0.3,0.4,0.5,0.5
				s0.5,0.2,0.7,0.3s0.5,0.1,0.8,0.1c1.1,0,1.9-0.3,2.4-1s0.9-1.4,0.9-2.4V556L483.5,556L483.5,556z"/>
			<path d="M491.6,550.1c0,0.3,0.1,0.6,0.1,1c0,0.4,0,0.7,0,0.9h0.1c0.1-0.3,0.3-0.6,0.6-0.8c0.2-0.3,0.5-0.5,0.9-0.7
				s0.7-0.4,1.1-0.5c0.4-0.1,0.8-0.2,1.2-0.2c0.7,0,1.4,0.1,1.9,0.4s1,0.6,1.3,1s0.6,0.9,0.8,1.5s0.2,1.2,0.2,1.8v7.1h-2.3v-6.3
				c0-0.5,0-0.9-0.1-1.3c-0.1-0.4-0.2-0.8-0.4-1.1c-0.2-0.3-0.5-0.6-0.8-0.8c-0.3-0.2-0.8-0.3-1.3-0.3c-0.9,0-1.6,0.3-2.2,1
				s-0.9,1.6-0.9,2.7v6h-2.3v-8.9c0-0.3,0-0.7,0-1.2c0-0.5,0-0.9-0.1-1.3L491.6,550.1L491.6,550.1z"/>
			<path d="M512.2,559.7c-0.4,0.7-1,1.2-1.8,1.6c-0.7,0.4-1.5,0.5-2.3,0.5c-0.9,0-1.7-0.2-2.4-0.5c-0.7-0.3-1.3-0.7-1.8-1.3
				s-0.9-1.2-1.1-1.9s-0.4-1.5-0.4-2.3s0.1-1.6,0.4-2.3c0.3-0.7,0.7-1.4,1.2-1.9s1.1-1,1.8-1.3c0.7-0.3,1.5-0.5,2.3-0.5
				c0.9,0,1.7,0.2,2.4,0.6c0.7,0.4,1.2,0.9,1.6,1.4h0v-8.5h2.3v18.1h-2.2L512.2,559.7L512.2,559.7L512.2,559.7z M504.8,555.8
				c0,0.5,0.1,1,0.2,1.5c0.2,0.5,0.4,0.9,0.7,1.3c0.3,0.4,0.7,0.7,1.2,0.9c0.5,0.2,1,0.3,1.6,0.3c0.6,0,1.1-0.1,1.6-0.3
				c0.5-0.2,0.9-0.5,1.2-0.9s0.6-0.8,0.8-1.3s0.3-1,0.3-1.5s-0.1-1.1-0.3-1.6c-0.2-0.5-0.4-0.9-0.8-1.3s-0.7-0.7-1.2-0.9
				s-1-0.3-1.6-0.3c-0.6,0-1.2,0.1-1.6,0.3c-0.5,0.2-0.9,0.5-1.2,0.9c-0.3,0.4-0.6,0.8-0.7,1.3C504.9,554.7,504.8,555.2,504.8,555.8
				z"/>
			<path d="M524.6,563.4c0.5,0.6,1.1,1,1.9,1.3c0.7,0.3,1.5,0.5,2.3,0.5c0.8,0,1.4-0.1,1.9-0.3s0.9-0.5,1.2-0.9
				c0.3-0.4,0.5-0.8,0.7-1.3c0.1-0.5,0.2-1.1,0.2-1.7v-1.5h0c-0.4,0.6-1,1.1-1.7,1.5c-0.7,0.3-1.5,0.5-2.3,0.5
				c-0.9,0-1.7-0.2-2.4-0.5c-0.7-0.3-1.3-0.7-1.8-1.2s-0.9-1.2-1.2-1.9c-0.3-0.7-0.4-1.5-0.4-2.3c0-0.8,0.1-1.6,0.4-2.3
				c0.3-0.7,0.7-1.3,1.2-1.9s1.1-1,1.8-1.3s1.5-0.5,2.3-0.5c0.8,0,1.6,0.2,2.3,0.5s1.3,0.9,1.8,1.6h0v-1.8h2.2v10.8
				c0,0.8-0.1,1.6-0.3,2.4s-0.6,1.4-1.1,2c-0.5,0.6-1.1,1-1.9,1.4c-0.8,0.3-1.8,0.5-3,0.5c-1,0-2-0.2-3-0.5s-1.9-0.9-2.6-1.5
				L524.6,563.4z M525.3,555.7c0,0.5,0.1,1,0.2,1.5s0.4,0.9,0.8,1.3s0.7,0.7,1.2,0.9c0.5,0.2,1,0.3,1.6,0.3c0.6,0,1.1-0.1,1.6-0.3
				s0.9-0.5,1.2-0.8c0.3-0.4,0.6-0.8,0.8-1.3c0.2-0.5,0.3-1,0.3-1.6c0-0.5-0.1-1.1-0.3-1.5c-0.2-0.5-0.5-0.9-0.8-1.3
				c-0.3-0.4-0.8-0.7-1.2-0.9c-0.5-0.2-1-0.3-1.6-0.3c-0.6,0-1.1,0.1-1.6,0.3s-0.9,0.5-1.2,0.9s-0.6,0.8-0.8,1.3
				C525.3,554.6,525.3,555.1,525.3,555.7z"/>
			<path d="M538.5,551.3c0-0.5,0-0.9-0.1-1.3h2.1c0,0.3,0.1,0.6,0.1,1s0,0.7,0,0.9h0.1c0.3-0.7,0.8-1.2,1.4-1.6s1.3-0.6,2.1-0.6
				c0.3,0,0.7,0,0.9,0.1L545,552c-0.3-0.1-0.7-0.1-1-0.1c-0.5,0-1,0.1-1.4,0.3c-0.4,0.2-0.7,0.5-1,0.8c-0.3,0.3-0.5,0.7-0.6,1.2
				s-0.2,0.9-0.2,1.4v6h-2.3v-8.9C538.5,552.2,538.5,551.8,538.5,551.3z"/>
			<path d="M549.5,546c0,0.4-0.2,0.8-0.4,1s-0.7,0.4-1.1,0.4s-0.8-0.1-1-0.4c-0.3-0.3-0.4-0.6-0.4-1c0-0.4,0.1-0.8,0.4-1
				c0.3-0.3,0.6-0.4,1-0.4s0.8,0.1,1.1,0.4C549.3,545.2,549.5,545.6,549.5,546z M549.1,561.5h-2.3v-11.4h2.3V561.5z"/>
			<path d="M556.3,550.4c0.6-0.4,1.4-0.6,2.2-0.6c0.8,0,1.5,0.2,2.1,0.5c0.6,0.3,1.1,0.9,1.5,1.8c0.4-0.7,0.9-1.3,1.6-1.7
				s1.4-0.6,2.3-0.6c0.7,0,1.4,0.1,1.9,0.4s1,0.6,1.3,1s0.6,0.9,0.8,1.5c0.2,0.6,0.2,1.2,0.2,1.8v7.1h-2.3v-6.3c0-0.5,0-0.9-0.1-1.3
				s-0.2-0.8-0.4-1.1c-0.2-0.3-0.5-0.6-0.8-0.8s-0.7-0.3-1.2-0.3c-0.5,0-1,0.1-1.3,0.3c-0.4,0.2-0.7,0.5-0.9,0.8
				c-0.2,0.3-0.4,0.7-0.5,1.2s-0.2,0.9-0.2,1.3v6.1h-2.3v-6.8c0-0.5,0-0.9-0.1-1.2s-0.2-0.7-0.4-1c-0.2-0.3-0.4-0.5-0.7-0.6
				s-0.7-0.2-1.1-0.2c-0.8,0-1.5,0.3-2.1,1c-0.5,0.7-0.8,1.6-0.8,2.7v6h-2.3v-8.9c0-0.3,0-0.7,0-1.2c0-0.5,0-0.9-0.1-1.3h2.1
				c0,0.3,0.1,0.6,0.1,1s0,0.7,0,0.9h0.1C555.2,551.3,555.7,550.8,556.3,550.4z"/>
			<path d="M584.2,555.7c0,0.1,0,0.3,0,0.4s0,0.3,0,0.4h-9c0,0.5,0.1,0.9,0.3,1.3s0.5,0.8,0.8,1.1s0.7,0.5,1.2,0.7s0.9,0.3,1.4,0.3
				c0.8,0,1.4-0.2,2-0.5c0.6-0.3,1-0.7,1.3-1.2l1.6,1.3c-0.6,0.8-1.3,1.4-2.2,1.8c-0.8,0.4-1.7,0.6-2.8,0.6c-0.9,0-1.7-0.1-2.4-0.4
				s-1.4-0.7-1.9-1.2s-0.9-1.2-1.2-1.9c-0.3-0.7-0.5-1.5-0.5-2.5c0-0.9,0.2-1.7,0.4-2.4s0.7-1.4,1.2-1.9c0.5-0.5,1.2-0.9,1.9-1.2
				s1.5-0.4,2.3-0.4s1.6,0.1,2.3,0.4c0.7,0.3,1.3,0.7,1.7,1.2c0.5,0.5,0.8,1.1,1.1,1.9C584.1,553.9,584.2,554.8,584.2,555.7z
				 M582,554.8c0-0.5-0.1-0.9-0.2-1.3s-0.3-0.7-0.6-1c-0.3-0.3-0.6-0.5-1-0.7c-0.4-0.2-0.8-0.2-1.4-0.2c-0.5,0-0.9,0.1-1.4,0.2
				s-0.8,0.4-1.1,0.7c-0.3,0.3-0.6,0.6-0.8,1s-0.3,0.8-0.3,1.3H582z"/>
			<path d="M592.6,551.3c0-0.5,0-0.9-0.1-1.3h2.1c0,0.3,0.1,0.6,0.1,1s0,0.7,0,0.9h0.1c0.3-0.7,0.8-1.2,1.4-1.6s1.3-0.6,2.1-0.6
				c0.3,0,0.7,0,0.9,0.1l-0.1,2.1c-0.3-0.1-0.7-0.1-1-0.1c-0.5,0-1,0.1-1.4,0.3c-0.4,0.2-0.7,0.5-1,0.8c-0.3,0.3-0.5,0.7-0.6,1.2
				s-0.2,0.9-0.2,1.4v6h-2.3v-8.9C592.7,552.2,592.7,551.8,592.6,551.3z"/>
			<path d="M611.2,555.7c0,0.1,0,0.3,0,0.4s0,0.3,0,0.4h-9c0,0.5,0.1,0.9,0.3,1.3s0.5,0.8,0.8,1.1s0.7,0.5,1.2,0.7s0.9,0.3,1.4,0.3
				c0.8,0,1.4-0.2,2-0.5c0.6-0.3,1-0.7,1.3-1.2l1.6,1.3c-0.6,0.8-1.3,1.4-2.2,1.8c-0.8,0.4-1.7,0.6-2.8,0.6c-0.9,0-1.7-0.1-2.4-0.4
				s-1.4-0.7-1.9-1.2s-0.9-1.2-1.2-1.9c-0.3-0.7-0.5-1.5-0.5-2.5c0-0.9,0.2-1.7,0.4-2.4s0.7-1.4,1.2-1.9c0.5-0.5,1.2-0.9,1.9-1.2
				s1.5-0.4,2.3-0.4s1.6,0.1,2.3,0.4c0.7,0.3,1.3,0.7,1.7,1.2c0.5,0.5,0.8,1.1,1.1,1.9C611,553.9,611.2,554.8,611.2,555.7z
				 M608.9,554.8c0-0.5-0.1-0.9-0.2-1.3s-0.3-0.7-0.6-1c-0.3-0.3-0.6-0.5-1-0.7c-0.4-0.2-0.8-0.2-1.4-0.2c-0.5,0-0.9,0.1-1.4,0.2
				s-0.8,0.4-1.1,0.7c-0.3,0.3-0.6,0.6-0.8,1s-0.3,0.8-0.3,1.3H608.9z"/>
			<path d="M616.2,567.2h-2.3v-17.1h2.2v1.8h0.1c0.4-0.6,0.9-1.1,1.6-1.5s1.5-0.6,2.5-0.6c0.8,0,1.6,0.2,2.3,0.5
				c0.7,0.3,1.3,0.7,1.8,1.3c0.5,0.5,0.9,1.2,1.2,1.9c0.3,0.7,0.4,1.5,0.4,2.3s-0.1,1.6-0.4,2.3c-0.3,0.7-0.7,1.4-1.2,1.9
				s-1.1,1-1.8,1.3c-0.7,0.3-1.5,0.5-2.4,0.5c-0.8,0-1.6-0.2-2.3-0.5c-0.7-0.3-1.3-0.8-1.7-1.5h-0.1L616.2,567.2L616.2,567.2z
				 M623.7,555.7c0-0.5-0.1-1-0.2-1.5s-0.4-0.9-0.7-1.3c-0.3-0.4-0.7-0.7-1.2-0.9c-0.5-0.2-1-0.3-1.6-0.3c-0.6,0-1.1,0.1-1.6,0.3
				c-0.5,0.2-0.9,0.5-1.2,0.9s-0.6,0.8-0.8,1.3c-0.2,0.5-0.3,1-0.3,1.6s0.1,1.1,0.3,1.6c0.2,0.5,0.4,0.9,0.8,1.3s0.7,0.7,1.2,0.9
				c0.5,0.2,1,0.3,1.6,0.3c0.6,0,1.2-0.1,1.6-0.3c0.5-0.2,0.9-0.5,1.2-0.9s0.6-0.8,0.7-1.3C623.6,556.8,623.7,556.3,623.7,555.7z"/>
			<path d="M639.4,555.7c0,0.1,0,0.3,0,0.4s0,0.3,0,0.4h-9c0,0.5,0.1,0.9,0.3,1.3s0.5,0.8,0.8,1.1s0.7,0.5,1.2,0.7s0.9,0.3,1.4,0.3
				c0.8,0,1.4-0.2,2-0.5c0.6-0.3,1-0.7,1.3-1.2l1.6,1.3c-0.6,0.8-1.3,1.4-2.2,1.8c-0.8,0.4-1.7,0.6-2.8,0.6c-0.9,0-1.7-0.1-2.4-0.4
				s-1.4-0.7-1.9-1.2s-0.9-1.2-1.2-1.9c-0.3-0.7-0.5-1.5-0.5-2.5c0-0.9,0.2-1.7,0.4-2.4s0.7-1.4,1.2-1.9c0.5-0.5,1.2-0.9,1.9-1.2
				s1.5-0.4,2.3-0.4s1.6,0.1,2.3,0.4c0.7,0.3,1.3,0.7,1.7,1.2c0.5,0.5,0.8,1.1,1.1,1.9C639.3,553.9,639.4,554.8,639.4,555.7z
				 M637.1,554.8c0-0.5-0.1-0.9-0.2-1.3s-0.3-0.7-0.6-1c-0.3-0.3-0.6-0.5-1-0.7c-0.4-0.2-0.8-0.2-1.4-0.2c-0.5,0-0.9,0.1-1.4,0.2
				s-0.8,0.4-1.1,0.7c-0.3,0.3-0.6,0.6-0.8,1s-0.3,0.8-0.3,1.3H637.1z"/>
			<path d="M644.5,561.5h-2.3v-18.1h2.3V561.5z"/>
			<path d="M650.4,561.5h-2.3v-18.1h2.3V561.5z"/>
			<path d="M664.6,555.7c0,0.1,0,0.3,0,0.4s0,0.3,0,0.4h-9c0,0.5,0.1,0.9,0.3,1.3s0.5,0.8,0.8,1.1s0.7,0.5,1.2,0.7s0.9,0.3,1.4,0.3
				c0.8,0,1.4-0.2,2-0.5c0.6-0.3,1-0.7,1.3-1.2l1.6,1.3c-0.6,0.8-1.3,1.4-2.2,1.8c-0.8,0.4-1.7,0.6-2.8,0.6c-0.9,0-1.7-0.1-2.4-0.4
				s-1.4-0.7-1.9-1.2s-0.9-1.2-1.2-1.9c-0.3-0.7-0.5-1.5-0.5-2.5c0-0.9,0.2-1.7,0.4-2.4s0.7-1.4,1.2-1.9c0.5-0.5,1.2-0.9,1.9-1.2
				s1.5-0.4,2.3-0.4s1.6,0.1,2.3,0.4c0.7,0.3,1.3,0.7,1.7,1.2c0.5,0.5,0.8,1.1,1.1,1.9C664.5,553.9,664.6,554.8,664.6,555.7z
				 M662.3,554.8c0-0.5-0.1-0.9-0.2-1.3s-0.3-0.7-0.6-1c-0.3-0.3-0.6-0.5-1-0.7c-0.4-0.2-0.8-0.2-1.4-0.2c-0.5,0-0.9,0.1-1.4,0.2
				s-0.8,0.4-1.1,0.7c-0.3,0.3-0.6,0.6-0.8,1s-0.3,0.8-0.3,1.3H662.3z"/>
			<path d="M669.4,550.1c0,0.3,0.1,0.6,0.1,1s0,0.7,0,0.9h0.1c0.1-0.3,0.3-0.6,0.6-0.8c0.2-0.3,0.5-0.5,0.8-0.7s0.7-0.4,1.1-0.5
				c0.4-0.1,0.8-0.2,1.2-0.2c0.7,0,1.4,0.1,1.9,0.4s1,0.6,1.3,1c0.3,0.4,0.6,0.9,0.8,1.5c0.2,0.6,0.2,1.2,0.2,1.8v7.1h-2.3v-6.3
				c0-0.5,0-0.9-0.1-1.3s-0.2-0.8-0.4-1.1c-0.2-0.3-0.5-0.6-0.8-0.8c-0.3-0.2-0.8-0.3-1.3-0.3c-0.9,0-1.6,0.3-2.2,1
				s-0.8,1.6-0.8,2.7v6h-2.3v-8.9c0-0.3,0-0.7,0-1.2c0-0.5,0-0.9-0.1-1.3L669.4,550.1L669.4,550.1z"/>
			<path d="M686.5,551.9h-3v5.9c0,0.7,0.1,1.2,0.4,1.5s0.7,0.4,1.2,0.4c0.2,0,0.4,0,0.7-0.1c0.2,0,0.5-0.1,0.7-0.2l0.1,1.8
				c-0.3,0.1-0.6,0.2-0.9,0.2s-0.7,0.1-1,0.1c-1.1,0-1.9-0.3-2.5-0.9s-0.8-1.5-0.8-2.7v-6.2h-2.2v-1.8h2.2v-3.3h2.2v3.3h3
				L686.5,551.9L686.5,551.9z"/>
			<path d="M700.3,553c-0.3-0.4-0.6-0.8-1.1-1s-1-0.4-1.6-0.4c-0.3,0-0.5,0-0.8,0.1s-0.5,0.1-0.7,0.3s-0.4,0.3-0.5,0.5
				c-0.1,0.2-0.2,0.4-0.2,0.7c0,0.5,0.2,0.8,0.7,1.1c0.4,0.2,1.1,0.4,1.9,0.6c0.5,0.1,1,0.3,1.5,0.5s0.9,0.4,1.2,0.7
				c0.3,0.3,0.6,0.6,0.8,1s0.3,0.8,0.3,1.3c0,0.7-0.1,1.2-0.4,1.7c-0.3,0.5-0.6,0.8-1,1.1c-0.4,0.3-0.9,0.5-1.5,0.6
				s-1.1,0.2-1.7,0.2c-0.9,0-1.7-0.2-2.5-0.5s-1.5-0.8-2-1.5l1.6-1.4c0.3,0.5,0.7,0.8,1.3,1.1c0.5,0.3,1.1,0.5,1.8,0.5
				c0.3,0,0.6,0,0.8-0.1c0.3-0.1,0.5-0.2,0.7-0.3s0.4-0.3,0.5-0.5c0.1-0.2,0.2-0.5,0.2-0.8c0-0.5-0.2-0.9-0.8-1.2
				c-0.5-0.2-1.2-0.5-2.2-0.7c-0.4-0.1-0.8-0.2-1.2-0.3c-0.4-0.1-0.8-0.3-1.1-0.6s-0.6-0.5-0.8-0.9c-0.2-0.4-0.3-0.8-0.3-1.3
				c0-0.6,0.1-1.1,0.4-1.6s0.6-0.8,1-1.1c0.4-0.3,0.9-0.5,1.4-0.6c0.5-0.1,1-0.2,1.6-0.2c0.8,0,1.6,0.2,2.4,0.5s1.3,0.8,1.8,1.4
				L700.3,553z"/>
			<path d="M706.8,551.8c0.3-0.6,0.7-1,1.4-1.4c0.7-0.4,1.4-0.6,2.2-0.6c0.7,0,1.4,0.1,1.9,0.4s1,0.6,1.3,1c0.3,0.4,0.6,0.9,0.8,1.5
				c0.2,0.6,0.2,1.2,0.2,1.8v7.1h-2.3v-6.3c0-0.5,0-0.9-0.1-1.3c-0.1-0.4-0.2-0.8-0.4-1.1c-0.2-0.3-0.5-0.6-0.8-0.8
				s-0.8-0.3-1.3-0.3c-0.9,0-1.6,0.3-2.2,1s-0.9,1.6-0.9,2.7v6h-2.3v-18.1h2.3L706.8,551.8L706.8,551.8L706.8,551.8z"/>
			<path d="M720.7,546c0,0.4-0.2,0.8-0.4,1s-0.7,0.4-1.1,0.4s-0.8-0.1-1-0.4c-0.3-0.3-0.4-0.6-0.4-1c0-0.4,0.1-0.8,0.4-1
				c0.3-0.3,0.6-0.4,1-0.4s0.8,0.1,1.1,0.4C720.6,545.2,720.7,545.6,720.7,546z M720.4,561.5h-2.3v-11.4h2.3V561.5z"/>
			<path d="M726,550.1c0,0.3,0.1,0.6,0.1,1s0,0.7,0,0.9h0.1c0.1-0.3,0.3-0.6,0.6-0.8c0.2-0.3,0.5-0.5,0.8-0.7s0.7-0.4,1.1-0.5
				c0.4-0.1,0.8-0.2,1.2-0.2c0.7,0,1.4,0.1,1.9,0.4s1,0.6,1.3,1c0.3,0.4,0.6,0.9,0.8,1.5c0.2,0.6,0.2,1.2,0.2,1.8v7.1h-2.3v-6.3
				c0-0.5,0-0.9-0.1-1.3s-0.2-0.8-0.4-1.1c-0.2-0.3-0.5-0.6-0.8-0.8c-0.3-0.2-0.8-0.3-1.3-0.3c-0.9,0-1.6,0.3-2.2,1
				s-0.8,1.6-0.8,2.7v6h-2.3v-8.9c0-0.3,0-0.7,0-1.2c0-0.5,0-0.9-0.1-1.3L726,550.1L726,550.1z"/>
			<path d="M748.2,555.7c0,0.1,0,0.3,0,0.4s0,0.3,0,0.4h-9c0,0.5,0.1,0.9,0.3,1.3s0.5,0.8,0.8,1.1s0.7,0.5,1.2,0.7s0.9,0.3,1.4,0.3
				c0.8,0,1.4-0.2,2-0.5c0.6-0.3,1-0.7,1.3-1.2l1.6,1.3c-0.6,0.8-1.3,1.4-2.2,1.8c-0.8,0.4-1.7,0.6-2.8,0.6c-0.9,0-1.7-0.1-2.4-0.4
				s-1.4-0.7-1.9-1.2s-0.9-1.2-1.2-1.9c-0.3-0.7-0.5-1.5-0.5-2.5c0-0.9,0.2-1.7,0.4-2.4s0.7-1.4,1.2-1.9c0.5-0.5,1.2-0.9,1.9-1.2
				s1.5-0.4,2.3-0.4s1.6,0.1,2.3,0.4c0.7,0.3,1.3,0.7,1.7,1.2c0.5,0.5,0.8,1.1,1.1,1.9C748,553.9,748.2,554.8,748.2,555.7z
				 M745.9,554.8c0-0.5-0.1-0.9-0.2-1.3s-0.3-0.7-0.6-1c-0.3-0.3-0.6-0.5-1-0.7c-0.4-0.2-0.8-0.2-1.4-0.2c-0.5,0-0.9,0.1-1.4,0.2
				s-0.8,0.4-1.1,0.7c-0.3,0.3-0.6,0.6-0.8,1s-0.3,0.8-0.3,1.3H745.9z"/>
			<path d="M757.4,550.1l2.6,8.7h0l2.7-8.7h2.4l2.8,8.7h0l2.6-8.7h2.4l-3.8,11.4h-2.3l-2.8-8.5h0l-2.8,8.5h-2.3l-3.8-11.4H757.4z"/>
			<path d="M777.4,546c0,0.4-0.2,0.8-0.4,1s-0.7,0.4-1.1,0.4s-0.8-0.1-1-0.4c-0.3-0.3-0.4-0.6-0.4-1c0-0.4,0.1-0.8,0.4-1
				c0.3-0.3,0.6-0.4,1-0.4s0.8,0.1,1.1,0.4C777.3,545.2,777.4,545.6,777.4,546z M777,561.5h-2.3v-11.4h2.3V561.5z"/>
			<path d="M786.2,551.9h-3v5.9c0,0.7,0.1,1.2,0.4,1.5s0.7,0.4,1.2,0.4c0.2,0,0.4,0,0.7-0.1c0.2,0,0.5-0.1,0.7-0.2l0.1,1.8
				c-0.3,0.1-0.6,0.2-0.9,0.2s-0.7,0.1-1,0.1c-1.1,0-1.9-0.3-2.5-0.9s-0.8-1.5-0.8-2.7v-6.2h-2.2v-1.8h2.2v-3.3h2.2v3.3h3
				L786.2,551.9L786.2,551.9z"/>
			<path d="M790.5,551.8c0.3-0.6,0.7-1,1.4-1.4c0.7-0.4,1.4-0.6,2.2-0.6c0.7,0,1.4,0.1,1.9,0.4s1,0.6,1.3,1c0.3,0.4,0.6,0.9,0.8,1.5
				c0.2,0.6,0.2,1.2,0.2,1.8v7.1h-2.3v-6.3c0-0.5,0-0.9-0.1-1.3c-0.1-0.4-0.2-0.8-0.4-1.1c-0.2-0.3-0.5-0.6-0.8-0.8
				s-0.8-0.3-1.3-0.3c-0.9,0-1.6,0.3-2.2,1s-0.9,1.6-0.9,2.7v6h-2.3v-18.1h2.3L790.5,551.8L790.5,551.8L790.5,551.8z"/>
			<path d="M818.1,555.7c0,0.1,0,0.3,0,0.4s0,0.3,0,0.4h-9c0,0.5,0.1,0.9,0.3,1.3s0.5,0.8,0.8,1.1s0.7,0.5,1.2,0.7s0.9,0.3,1.4,0.3
				c0.8,0,1.4-0.2,2-0.5c0.6-0.3,1-0.7,1.3-1.2l1.6,1.3c-0.6,0.8-1.3,1.4-2.2,1.8c-0.8,0.4-1.7,0.6-2.8,0.6c-0.9,0-1.7-0.1-2.4-0.4
				s-1.4-0.7-1.9-1.2s-0.9-1.2-1.2-1.9c-0.3-0.7-0.5-1.5-0.5-2.5c0-0.9,0.2-1.7,0.4-2.4s0.7-1.4,1.2-1.9c0.5-0.5,1.2-0.9,1.9-1.2
				s1.5-0.4,2.3-0.4s1.6,0.1,2.3,0.4c0.7,0.3,1.3,0.7,1.7,1.2c0.5,0.5,0.8,1.1,1.1,1.9C818,553.9,818.1,554.8,818.1,555.7z
				 M815.8,554.8c0-0.5-0.1-0.9-0.2-1.3s-0.3-0.7-0.6-1c-0.3-0.3-0.6-0.5-1-0.7c-0.4-0.2-0.8-0.2-1.4-0.2c-0.5,0-0.9,0.1-1.4,0.2
				s-0.8,0.4-1.1,0.7c-0.3,0.3-0.6,0.6-0.8,1s-0.3,0.8-0.3,1.3H815.8z"/>
			<path d="M826.2,561.5h-2.5l-4.6-11.4h2.5l3.3,9h0l3.4-9h2.4L826.2,561.5z"/>
			<path d="M843.2,555.7c0,0.1,0,0.3,0,0.4s0,0.3,0,0.4h-9c0,0.5,0.1,0.9,0.3,1.3s0.5,0.8,0.8,1.1s0.7,0.5,1.2,0.7s0.9,0.3,1.4,0.3
				c0.8,0,1.4-0.2,2-0.5c0.6-0.3,1-0.7,1.3-1.2l1.6,1.3c-0.6,0.8-1.3,1.4-2.2,1.8c-0.8,0.4-1.7,0.6-2.8,0.6c-0.9,0-1.7-0.1-2.4-0.4
				s-1.4-0.7-1.9-1.2s-0.9-1.2-1.2-1.9c-0.3-0.7-0.5-1.5-0.5-2.5c0-0.9,0.2-1.7,0.4-2.4s0.7-1.4,1.2-1.9c0.5-0.5,1.2-0.9,1.9-1.2
				s1.5-0.4,2.3-0.4s1.6,0.1,2.3,0.4c0.7,0.3,1.3,0.7,1.7,1.2c0.5,0.5,0.8,1.1,1.1,1.9C843.1,553.9,843.2,554.8,843.2,555.7z
				 M840.9,554.8c0-0.5-0.1-0.9-0.2-1.3s-0.3-0.7-0.6-1c-0.3-0.3-0.6-0.5-1-0.7c-0.4-0.2-0.8-0.2-1.4-0.2c-0.5,0-0.9,0.1-1.4,0.2
				s-0.8,0.4-1.1,0.7c-0.3,0.3-0.6,0.6-0.8,1s-0.3,0.8-0.3,1.3H840.9z"/>
			<path d="M846,551.3c0-0.5,0-0.9-0.1-1.3h2.1c0,0.3,0.1,0.6,0.1,1s0,0.7,0,0.9h0.1c0.3-0.7,0.8-1.2,1.4-1.6s1.3-0.6,2.1-0.6
				c0.3,0,0.7,0,0.9,0.1l-0.1,2.1c-0.3-0.1-0.7-0.1-1-0.1c-0.5,0-1,0.1-1.4,0.3c-0.4,0.2-0.7,0.5-1,0.8c-0.3,0.3-0.5,0.7-0.6,1.2
				s-0.2,0.9-0.2,1.4v6H846v-8.9C846,552.2,846,551.8,846,551.3z"/>
			<path d="M858.6,559L858.6,559l3.2-8.9h2.4l-5.5,14.1c-0.2,0.5-0.4,0.9-0.6,1.3c-0.2,0.4-0.5,0.7-0.8,1s-0.7,0.5-1.1,0.6
				c-0.4,0.1-0.9,0.2-1.5,0.2c-0.2,0-0.5,0-0.7,0c-0.2,0-0.5-0.1-0.8-0.1l0.2-2c0.4,0.1,0.8,0.2,1.1,0.2c0.6,0,1-0.2,1.3-0.5
				s0.5-0.8,0.8-1.4l0.7-1.9l-4.9-11.4h2.5L858.6,559z"/>
			<path d="M879.7,561.5c0-0.3-0.1-0.6-0.1-1c0-0.4,0-0.7,0-0.9h0c-0.3,0.6-0.8,1.1-1.5,1.5c-0.7,0.4-1.4,0.6-2.3,0.6
				c-0.7,0-1.4-0.1-1.9-0.4s-1-0.6-1.3-1c-0.3-0.4-0.6-0.9-0.8-1.5c-0.2-0.6-0.2-1.2-0.2-1.8v-7.1h2.3v6.3c0,0.5,0,0.9,0.1,1.3
				s0.2,0.8,0.4,1.1c0.2,0.3,0.5,0.6,0.8,0.8c0.3,0.2,0.8,0.3,1.3,0.3c0.9,0,1.7-0.3,2.2-1s0.8-1.6,0.8-2.7v-6h2.3v8.9
				c0,0.3,0,0.7,0,1.2c0,0.5,0,0.9,0.1,1.3L879.7,561.5L879.7,561.5z"/>
			<path d="M891.4,553c-0.3-0.4-0.6-0.8-1.1-1s-1-0.4-1.6-0.4c-0.3,0-0.5,0-0.8,0.1s-0.5,0.1-0.7,0.3s-0.4,0.3-0.5,0.5
				c-0.1,0.2-0.2,0.4-0.2,0.7c0,0.5,0.2,0.8,0.7,1.1c0.4,0.2,1.1,0.4,1.9,0.6c0.5,0.1,1,0.3,1.5,0.5s0.9,0.4,1.2,0.7
				c0.3,0.3,0.6,0.6,0.8,1s0.3,0.8,0.3,1.3c0,0.7-0.1,1.2-0.4,1.7c-0.3,0.5-0.6,0.8-1,1.1c-0.4,0.3-0.9,0.5-1.5,0.6
				s-1.1,0.2-1.7,0.2c-0.9,0-1.7-0.2-2.5-0.5s-1.5-0.8-2-1.5l1.6-1.4c0.3,0.5,0.7,0.8,1.3,1.1c0.5,0.3,1.1,0.5,1.8,0.5
				c0.3,0,0.6,0,0.8-0.1c0.3-0.1,0.5-0.2,0.7-0.3s0.4-0.3,0.5-0.5c0.1-0.2,0.2-0.5,0.2-0.8c0-0.5-0.2-0.9-0.8-1.2
				c-0.5-0.2-1.2-0.5-2.2-0.7c-0.4-0.1-0.8-0.2-1.2-0.3c-0.4-0.1-0.8-0.3-1.1-0.6s-0.6-0.5-0.8-0.9c-0.2-0.4-0.3-0.8-0.3-1.3
				c0-0.6,0.1-1.1,0.4-1.6s0.6-0.8,1-1.1c0.4-0.3,0.9-0.5,1.4-0.6c0.5-0.1,1-0.2,1.6-0.2c0.8,0,1.6,0.2,2.4,0.5s1.3,0.8,1.8,1.4
				L891.4,553z"/>
			<path d="M906.2,555.7c0,0.1,0,0.3,0,0.4s0,0.3,0,0.4h-9c0,0.5,0.1,0.9,0.3,1.3s0.5,0.8,0.8,1.1s0.7,0.5,1.2,0.7s0.9,0.3,1.4,0.3
				c0.8,0,1.4-0.2,2-0.5c0.6-0.3,1-0.7,1.3-1.2l1.6,1.3c-0.6,0.8-1.3,1.4-2.2,1.8c-0.8,0.4-1.7,0.6-2.8,0.6c-0.9,0-1.7-0.1-2.4-0.4
				s-1.4-0.7-1.9-1.2s-0.9-1.2-1.2-1.9c-0.3-0.7-0.5-1.5-0.5-2.5c0-0.9,0.2-1.7,0.4-2.4s0.7-1.4,1.2-1.9c0.5-0.5,1.2-0.9,1.9-1.2
				s1.5-0.4,2.3-0.4s1.6,0.1,2.3,0.4c0.7,0.3,1.3,0.7,1.7,1.2c0.5,0.5,0.8,1.1,1.1,1.9C906.1,553.9,906.2,554.8,906.2,555.7z
				 M903.9,554.8c0-0.5-0.1-0.9-0.2-1.3s-0.3-0.7-0.6-1c-0.3-0.3-0.6-0.5-1-0.7c-0.4-0.2-0.8-0.2-1.4-0.2c-0.5,0-0.9,0.1-1.4,0.2
				s-0.8,0.4-1.1,0.7c-0.3,0.3-0.6,0.6-0.8,1s-0.3,0.8-0.3,1.3H903.9z"/>
			<path d="M911.8,560c0,0.4-0.2,0.8-0.5,1.1c-0.3,0.3-0.7,0.5-1.2,0.5c-0.5,0-0.8-0.2-1.1-0.5s-0.5-0.7-0.5-1.1
				c0-0.4,0.2-0.8,0.5-1.1c0.3-0.3,0.7-0.5,1.2-0.5s0.8,0.2,1.2,0.5C911.6,559.2,911.8,559.6,911.8,560z"/>
			<path d="M374.7,590.5h2v6h-2V590.5z M378.6,590.5h2v6h-2V590.5z"/>
			<path d="M392.9,593.6c-0.3-0.5-0.8-0.8-1.4-1.1s-1.2-0.4-1.9-0.4c-0.4,0-0.8,0-1.2,0.2c-0.4,0.1-0.8,0.3-1.1,0.5
				s-0.6,0.5-0.8,0.9c-0.2,0.3-0.3,0.8-0.3,1.2c0,0.5,0.1,0.8,0.3,1.2c0.2,0.3,0.4,0.6,0.7,0.8c0.3,0.2,0.7,0.4,1.1,0.5
				c0.4,0.2,0.9,0.3,1.4,0.5c0.6,0.2,1.2,0.4,1.8,0.6s1.1,0.5,1.6,0.9s0.9,0.8,1.2,1.4s0.5,1.2,0.5,2.1c0,0.9-0.2,1.6-0.5,2.3
				c-0.3,0.7-0.8,1.2-1.3,1.6c-0.5,0.4-1.2,0.7-1.9,1s-1.4,0.3-2.2,0.3c-1.1,0-2.1-0.2-3.1-0.6c-1-0.4-1.8-1-2.5-1.8l1.9-1.6
				c0.4,0.6,0.9,1.1,1.6,1.4c0.7,0.4,1.4,0.5,2.2,0.5c0.4,0,0.8-0.1,1.2-0.2c0.4-0.1,0.8-0.3,1.1-0.5c0.3-0.2,0.6-0.5,0.8-0.9
				c0.2-0.4,0.3-0.8,0.3-1.3s-0.1-0.9-0.3-1.3c-0.2-0.3-0.5-0.6-0.9-0.9s-0.8-0.4-1.3-0.6c-0.5-0.2-1-0.3-1.5-0.5
				c-0.5-0.2-1.1-0.4-1.6-0.6c-0.5-0.2-1-0.5-1.4-0.9s-0.8-0.8-1-1.3s-0.4-1.2-0.4-2c0-0.8,0.2-1.6,0.5-2.2c0.3-0.6,0.8-1.1,1.3-1.5
				s1.2-0.7,1.9-0.9c0.7-0.2,1.4-0.3,2.1-0.3c1,0,1.9,0.2,2.8,0.5c0.9,0.3,1.6,0.8,2.1,1.4L392.9,593.6z"/>
			<path d="M409.1,601.7c0,0.9-0.2,1.7-0.5,2.4s-0.7,1.4-1.3,1.9c-0.5,0.5-1.2,1-2,1.2c-0.8,0.3-1.6,0.4-2.4,0.4
				c-0.9,0-1.7-0.2-2.4-0.4c-0.8-0.3-1.4-0.7-1.9-1.2s-1-1.2-1.3-1.9s-0.5-1.5-0.5-2.4s0.2-1.7,0.5-2.4s0.7-1.4,1.3-1.9
				c0.5-0.5,1.2-0.9,1.9-1.2s1.6-0.4,2.4-0.4c0.9,0,1.7,0.2,2.4,0.4c0.8,0.3,1.4,0.7,2,1.2c0.5,0.5,1,1.2,1.3,1.9
				S409.1,600.9,409.1,601.7z M406.8,601.8c0-0.5-0.1-1.1-0.2-1.6c-0.2-0.5-0.4-0.9-0.7-1.3s-0.7-0.7-1.2-0.9s-1-0.3-1.6-0.3
				c-0.6,0-1.1,0.1-1.6,0.3c-0.5,0.2-0.9,0.5-1.2,0.9s-0.6,0.8-0.7,1.3c-0.2,0.5-0.2,1-0.2,1.6c0,0.5,0.1,1.1,0.2,1.6
				c0.2,0.5,0.4,0.9,0.7,1.3c0.3,0.4,0.7,0.7,1.2,0.9s1,0.3,1.6,0.3c0.6,0,1.1-0.1,1.6-0.3s0.9-0.5,1.2-0.9s0.6-0.8,0.7-1.3
				C406.7,602.8,406.8,602.3,406.8,601.8z"/>
			<path d="M425.5,599c-0.2-0.4-0.6-0.7-1.1-0.9s-1-0.4-1.5-0.4c-0.6,0-1.1,0.1-1.6,0.3s-0.8,0.5-1.2,0.9s-0.6,0.8-0.7,1.3
				s-0.2,1-0.2,1.6s0.1,1.1,0.2,1.6s0.4,0.9,0.7,1.3s0.7,0.7,1.2,0.9c0.5,0.2,1,0.3,1.6,0.3c0.6,0,1.1-0.1,1.6-0.3
				c0.5-0.2,0.9-0.5,1.2-0.9l1.5,1.4c-0.5,0.6-1.1,1-1.8,1.3s-1.5,0.5-2.5,0.5c-0.9,0-1.7-0.1-2.4-0.4c-0.7-0.3-1.4-0.7-1.9-1.2
				c-0.5-0.5-1-1.2-1.3-1.9c-0.3-0.7-0.5-1.6-0.5-2.5c0-0.9,0.1-1.7,0.5-2.5c0.3-0.7,0.7-1.4,1.3-1.9c0.5-0.5,1.2-0.9,1.9-1.2
				c0.7-0.3,1.5-0.4,2.4-0.4c0.8,0,1.6,0.2,2.4,0.5s1.4,0.8,1.9,1.4L425.5,599z"/>
			<path d="M431.3,607.5h-2.3v-18.1h2.3V607.5z"/>
			<path d="M445.5,601.7c0,0.1,0,0.3,0,0.4s0,0.3,0,0.4h-9c0,0.5,0.1,0.9,0.3,1.3s0.5,0.8,0.8,1.1s0.7,0.5,1.2,0.7s0.9,0.3,1.4,0.3
				c0.8,0,1.4-0.2,2-0.5s1-0.7,1.3-1.2l1.6,1.3c-0.6,0.8-1.3,1.4-2.1,1.8c-0.8,0.4-1.7,0.6-2.8,0.6c-0.9,0-1.7-0.1-2.4-0.4
				s-1.4-0.7-1.9-1.2s-0.9-1.2-1.2-1.9c-0.3-0.7-0.5-1.5-0.5-2.5c0-0.9,0.1-1.7,0.4-2.4c0.3-0.7,0.7-1.4,1.2-1.9
				c0.5-0.5,1.1-0.9,1.9-1.2c0.7-0.3,1.5-0.4,2.3-0.4s1.6,0.1,2.3,0.4c0.7,0.3,1.3,0.7,1.7,1.2c0.5,0.5,0.8,1.1,1.1,1.9
				C445.4,599.9,445.5,600.8,445.5,601.7z M443.2,600.8c0-0.5-0.1-0.9-0.2-1.3s-0.3-0.7-0.6-1c-0.3-0.3-0.6-0.5-1-0.7
				s-0.9-0.2-1.4-0.2c-0.5,0-0.9,0.1-1.4,0.2c-0.4,0.2-0.8,0.4-1.1,0.7s-0.6,0.6-0.8,1c-0.2,0.4-0.3,0.8-0.4,1.3H443.2z"/>
			<path d="M455.2,600.1c0-0.8-0.3-1.5-0.8-1.9c-0.5-0.4-1.2-0.6-2-0.6c-0.6,0-1.2,0.1-1.8,0.4s-1,0.6-1.4,1l-1.2-1.4
				c0.6-0.5,1.2-0.9,2-1.2c0.8-0.3,1.7-0.5,2.6-0.5c0.8,0,1.5,0.1,2.1,0.3s1.1,0.5,1.5,1c0.4,0.4,0.7,0.9,0.9,1.4
				c0.2,0.5,0.3,1.1,0.3,1.8v5c0,0.4,0,0.8,0,1.2c0,0.4,0.1,0.8,0.1,1h-2c-0.1-0.5-0.2-1.1-0.2-1.6h-0.1c-0.4,0.6-0.9,1.1-1.6,1.4
				c-0.6,0.3-1.4,0.5-2.2,0.5c-0.5,0-0.9-0.1-1.4-0.2c-0.5-0.1-0.9-0.3-1.3-0.6s-0.7-0.6-1-1.1c-0.3-0.5-0.4-1-0.4-1.7
				c0-0.9,0.2-1.5,0.7-2s1.1-0.9,1.8-1.2s1.6-0.4,2.5-0.5s1.9-0.1,2.9-0.1L455.2,600.1L455.2,600.1z M454.7,602
				c-0.6,0-1.1,0-1.7,0.1s-1.1,0.1-1.6,0.3c-0.5,0.1-0.9,0.4-1.2,0.7c-0.3,0.3-0.5,0.7-0.5,1.2c0,0.3,0.1,0.6,0.2,0.8
				c0.1,0.2,0.3,0.4,0.5,0.5s0.5,0.2,0.7,0.3s0.5,0.1,0.8,0.1c1.1,0,1.9-0.3,2.4-1s0.9-1.4,0.9-2.4V602L454.7,602L454.7,602z"/>
			<path d="M460.8,597.3c0-0.5,0-0.9-0.1-1.3h2.1c0,0.3,0.1,0.6,0.1,1c0,0.4,0,0.7,0,0.9h0.1c0.3-0.7,0.8-1.2,1.4-1.6
				c0.6-0.4,1.3-0.6,2.1-0.6c0.4,0,0.6,0,0.9,0.1l-0.1,2.1c-0.3-0.1-0.7-0.1-1-0.1c-0.5,0-1,0.1-1.4,0.3c-0.4,0.2-0.7,0.5-1,0.8
				s-0.5,0.7-0.6,1.2s-0.2,0.9-0.2,1.4v6h-2.3v-8.9C460.8,598.2,460.8,597.8,460.8,597.3z"/>
			<path d="M468.8,610.7h-1.9l1.7-6h2.3L468.8,610.7z"/>
			<path d="M481.4,592c0,0.4-0.1,0.8-0.4,1s-0.6,0.4-1.1,0.4s-0.8-0.1-1-0.4s-0.4-0.6-0.4-1c0-0.4,0.1-0.8,0.4-1
				c0.3-0.3,0.6-0.4,1-0.4s0.8,0.1,1.1,0.4C481.3,591.2,481.4,591.6,481.4,592z M481.1,607.5h-2.3v-11.4h2.3V607.5z"/>
			<path d="M490.2,597.9h-3v5.9c0,0.7,0.1,1.2,0.4,1.5c0.3,0.3,0.7,0.4,1.2,0.4c0.2,0,0.4,0,0.7-0.1c0.2,0,0.5-0.1,0.6-0.2l0.1,1.8
				c-0.3,0.1-0.6,0.2-0.9,0.2s-0.7,0.1-1,0.1c-1.1,0-1.9-0.3-2.5-0.9s-0.9-1.5-0.9-2.7v-6.2h-2.2v-1.8h2.2v-3.3h2.2v3.3h3
				L490.2,597.9L490.2,597.9z"/>
			<path d="M492.4,590.5h2v6h-2V590.5z"/>
			<path d="M504.2,599c-0.3-0.4-0.6-0.8-1.1-1s-1-0.4-1.6-0.4c-0.3,0-0.5,0-0.8,0.1c-0.3,0.1-0.5,0.1-0.7,0.3
				c-0.2,0.1-0.4,0.3-0.5,0.5c-0.1,0.2-0.2,0.4-0.2,0.7c0,0.5,0.2,0.8,0.6,1.1s1.1,0.4,1.9,0.6c0.5,0.1,1,0.3,1.5,0.5
				c0.5,0.2,0.9,0.4,1.2,0.7c0.3,0.3,0.6,0.6,0.8,1s0.3,0.8,0.3,1.3c0,0.7-0.1,1.2-0.4,1.7s-0.6,0.8-1,1.1c-0.4,0.3-0.9,0.5-1.5,0.6
				s-1.1,0.2-1.7,0.2c-0.9,0-1.7-0.2-2.5-0.5s-1.5-0.8-2-1.5l1.6-1.4c0.3,0.5,0.7,0.8,1.3,1.1c0.5,0.3,1.1,0.5,1.8,0.5
				c0.3,0,0.6,0,0.8-0.1c0.3-0.1,0.5-0.2,0.7-0.3s0.4-0.3,0.5-0.5s0.2-0.5,0.2-0.8c0-0.5-0.2-0.9-0.8-1.2c-0.5-0.2-1.2-0.5-2.2-0.7
				c-0.4-0.1-0.8-0.2-1.2-0.3c-0.4-0.1-0.8-0.3-1.1-0.6s-0.6-0.5-0.8-0.9c-0.2-0.4-0.3-0.8-0.3-1.3c0-0.6,0.1-1.1,0.4-1.6
				s0.6-0.8,1-1.1s0.9-0.5,1.4-0.6c0.5-0.1,1-0.2,1.6-0.2c0.8,0,1.6,0.2,2.4,0.5s1.4,0.8,1.8,1.4L504.2,599z"/>
			<path d="M516.3,607.5h-2.3v-18.1h2.3V607.5z"/>
			<path d="M522.6,592c0,0.4-0.2,0.8-0.4,1s-0.7,0.4-1.1,0.4s-0.8-0.1-1-0.4c-0.3-0.3-0.4-0.6-0.4-1c0-0.4,0.1-0.8,0.4-1
				c0.3-0.3,0.6-0.4,1-0.4s0.8,0.1,1.1,0.4C522.4,591.2,522.6,591.6,522.6,592z M522.2,607.5h-2.3v-11.4h2.3V607.5z"/>
			<path d="M528.1,601L528.1,601l4.9-4.9h3l-5.3,5.2l5.8,6.2h-3.1l-5.1-5.9h-0.1v5.9h-2.3v-18.1h2.3L528.1,601L528.1,601z"/>
			<path d="M548.3,601.7c0,0.1,0,0.3,0,0.4s0,0.3,0,0.4h-9c0,0.5,0.1,0.9,0.3,1.3s0.5,0.8,0.8,1.1s0.7,0.5,1.2,0.7s0.9,0.3,1.4,0.3
				c0.8,0,1.4-0.2,2-0.5c0.6-0.3,1-0.7,1.3-1.2l1.6,1.3c-0.6,0.8-1.3,1.4-2.2,1.8c-0.8,0.4-1.7,0.6-2.8,0.6c-0.9,0-1.7-0.1-2.4-0.4
				s-1.4-0.7-1.9-1.2s-0.9-1.2-1.2-1.9c-0.3-0.7-0.5-1.5-0.5-2.5c0-0.9,0.2-1.7,0.4-2.4s0.7-1.4,1.2-1.9c0.5-0.5,1.2-0.9,1.9-1.2
				s1.5-0.4,2.3-0.4s1.6,0.1,2.3,0.4c0.7,0.3,1.3,0.7,1.7,1.2c0.5,0.5,0.8,1.1,1.1,1.9C548.1,599.9,548.3,600.8,548.3,601.7z
				 M546,600.8c0-0.5-0.1-0.9-0.2-1.3s-0.3-0.7-0.6-1c-0.3-0.3-0.6-0.5-1-0.7c-0.4-0.2-0.8-0.2-1.4-0.2c-0.5,0-0.9,0.1-1.4,0.2
				s-0.8,0.4-1.1,0.7c-0.3,0.3-0.6,0.6-0.8,1s-0.3,0.8-0.3,1.3H546z"/>
			<path d="M562.2,597.9h-3v5.9c0,0.7,0.1,1.2,0.4,1.5s0.7,0.4,1.2,0.4c0.2,0,0.4,0,0.7-0.1c0.2,0,0.5-0.1,0.7-0.2l0.1,1.8
				c-0.3,0.1-0.6,0.2-0.9,0.2s-0.7,0.1-1,0.1c-1.1,0-1.9-0.3-2.5-0.9s-0.8-1.5-0.8-2.7v-6.2h-2.2v-1.8h2.2v-3.3h2.2v3.3h3
				L562.2,597.9L562.2,597.9z"/>
			<path d="M566.5,597.8c0.3-0.6,0.7-1,1.4-1.4c0.7-0.4,1.4-0.6,2.2-0.6c0.7,0,1.4,0.1,1.9,0.4s1,0.6,1.3,1c0.3,0.4,0.6,0.9,0.8,1.5
				c0.2,0.6,0.2,1.2,0.2,1.8v7.1h-2.3v-6.3c0-0.5,0-0.9-0.1-1.3c-0.1-0.4-0.2-0.8-0.4-1.1c-0.2-0.3-0.5-0.6-0.8-0.8
				s-0.8-0.3-1.3-0.3c-0.9,0-1.6,0.3-2.2,1s-0.9,1.6-0.9,2.7v6h-2.3v-18.1h2.3L566.5,597.8L566.5,597.8L566.5,597.8z"/>
			<path d="M588.5,601.7c0,0.1,0,0.3,0,0.4s0,0.3,0,0.4h-9c0,0.5,0.1,0.9,0.3,1.3s0.5,0.8,0.8,1.1s0.7,0.5,1.2,0.7s0.9,0.3,1.4,0.3
				c0.8,0,1.4-0.2,2-0.5c0.6-0.3,1-0.7,1.3-1.2l1.6,1.3c-0.6,0.8-1.3,1.4-2.2,1.8c-0.8,0.4-1.7,0.6-2.8,0.6c-0.9,0-1.7-0.1-2.4-0.4
				s-1.4-0.7-1.9-1.2s-0.9-1.2-1.2-1.9c-0.3-0.7-0.5-1.5-0.5-2.5c0-0.9,0.2-1.7,0.4-2.4s0.7-1.4,1.2-1.9c0.5-0.5,1.2-0.9,1.9-1.2
				s1.5-0.4,2.3-0.4s1.6,0.1,2.3,0.4c0.7,0.3,1.3,0.7,1.7,1.2c0.5,0.5,0.8,1.1,1.1,1.9C588.4,599.9,588.5,600.8,588.5,601.7z
				 M586.2,600.8c0-0.5-0.1-0.9-0.2-1.3s-0.3-0.7-0.6-1c-0.3-0.3-0.6-0.5-1-0.7c-0.4-0.2-0.8-0.2-1.4-0.2c-0.5,0-0.9,0.1-1.4,0.2
				s-0.8,0.4-1.1,0.7c-0.3,0.3-0.6,0.6-0.8,1s-0.3,0.8-0.3,1.3H586.2z"/>
			<path d="M597.8,609.4c0.5,0.6,1.1,1,1.9,1.3c0.7,0.3,1.5,0.5,2.3,0.5c0.8,0,1.4-0.1,1.9-0.3s0.9-0.5,1.2-0.9
				c0.3-0.4,0.5-0.8,0.7-1.3c0.1-0.5,0.2-1.1,0.2-1.7v-1.5h0c-0.4,0.6-1,1.1-1.7,1.5c-0.7,0.3-1.5,0.5-2.3,0.5
				c-0.9,0-1.7-0.2-2.4-0.5c-0.7-0.3-1.3-0.7-1.8-1.2s-0.9-1.2-1.2-1.9c-0.3-0.7-0.4-1.5-0.4-2.3c0-0.8,0.1-1.6,0.4-2.3
				c0.3-0.7,0.7-1.3,1.2-1.9s1.1-1,1.8-1.3s1.5-0.5,2.3-0.5c0.8,0,1.6,0.2,2.3,0.5s1.3,0.9,1.8,1.6h0v-1.8h2.2v10.8
				c0,0.8-0.1,1.6-0.3,2.4s-0.6,1.4-1.1,2c-0.5,0.6-1.1,1-1.9,1.4c-0.8,0.3-1.8,0.5-3,0.5c-1,0-2-0.2-3-0.5s-1.9-0.9-2.6-1.5
				L597.8,609.4z M598.4,601.7c0,0.5,0.1,1,0.2,1.5s0.4,0.9,0.8,1.3s0.7,0.7,1.2,0.9c0.5,0.2,1,0.3,1.6,0.3c0.6,0,1.1-0.1,1.6-0.3
				s0.9-0.5,1.2-0.8c0.3-0.4,0.6-0.8,0.8-1.3c0.2-0.5,0.3-1,0.3-1.6c0-0.5-0.1-1.1-0.3-1.5c-0.2-0.5-0.5-0.9-0.8-1.3
				c-0.3-0.4-0.8-0.7-1.2-0.9c-0.5-0.2-1-0.3-1.6-0.3c-0.6,0-1.1,0.1-1.6,0.3s-0.9,0.5-1.2,0.9s-0.6,0.8-0.8,1.3
				C598.5,600.6,598.4,601.1,598.4,601.7z"/>
			<path d="M614,607.5h-2.3v-18.1h2.3V607.5z"/>
			<path d="M624.7,600.1c0-0.8-0.3-1.5-0.8-1.9c-0.5-0.4-1.2-0.6-2-0.6c-0.6,0-1.2,0.1-1.8,0.4s-1,0.6-1.4,1l-1.2-1.4
				c0.6-0.5,1.2-0.9,2-1.2c0.8-0.3,1.7-0.5,2.6-0.5c0.8,0,1.5,0.1,2.1,0.3s1.1,0.5,1.5,1c0.4,0.4,0.7,0.9,0.9,1.4
				c0.2,0.5,0.3,1.1,0.3,1.8v5c0,0.4,0,0.8,0,1.2c0,0.4,0.1,0.8,0.1,1h-2c-0.1-0.5-0.2-1.1-0.2-1.6h-0.1c-0.4,0.6-0.9,1.1-1.6,1.4
				s-1.4,0.5-2.2,0.5c-0.5,0-0.9-0.1-1.4-0.2c-0.5-0.1-0.9-0.3-1.3-0.6s-0.7-0.6-1-1.1c-0.3-0.5-0.4-1-0.4-1.7c0-0.9,0.2-1.5,0.7-2
				s1.1-0.9,1.8-1.2s1.6-0.4,2.5-0.5s1.9-0.1,2.9-0.1L624.7,600.1L624.7,600.1z M624.1,602c-0.6,0-1.1,0-1.7,0.1s-1.1,0.1-1.6,0.3
				c-0.5,0.1-0.9,0.4-1.2,0.7s-0.5,0.7-0.5,1.2c0,0.3,0.1,0.6,0.2,0.8c0.1,0.2,0.3,0.4,0.5,0.5s0.5,0.2,0.7,0.3s0.5,0.1,0.8,0.1
				c1.1,0,1.9-0.3,2.4-1s0.8-1.4,0.8-2.4V602L624.1,602L624.1,602z"/>
			<path d="M636.4,599c-0.3-0.4-0.6-0.8-1.1-1s-1-0.4-1.6-0.4c-0.3,0-0.5,0-0.8,0.1s-0.5,0.1-0.7,0.3s-0.4,0.3-0.5,0.5
				c-0.1,0.2-0.2,0.4-0.2,0.7c0,0.5,0.2,0.8,0.7,1.1c0.4,0.2,1.1,0.4,1.9,0.6c0.5,0.1,1,0.3,1.5,0.5s0.9,0.4,1.2,0.7
				c0.3,0.3,0.6,0.6,0.8,1s0.3,0.8,0.3,1.3c0,0.7-0.1,1.2-0.4,1.7c-0.3,0.5-0.6,0.8-1,1.1c-0.4,0.3-0.9,0.5-1.5,0.6
				s-1.1,0.2-1.7,0.2c-0.9,0-1.7-0.2-2.5-0.5s-1.5-0.8-2-1.5l1.6-1.4c0.3,0.5,0.7,0.8,1.3,1.1c0.5,0.3,1.1,0.5,1.8,0.5
				c0.3,0,0.6,0,0.8-0.1c0.3-0.1,0.5-0.2,0.7-0.3s0.4-0.3,0.5-0.5c0.1-0.2,0.2-0.5,0.2-0.8c0-0.5-0.2-0.9-0.8-1.2
				c-0.5-0.2-1.2-0.5-2.2-0.7c-0.4-0.1-0.8-0.2-1.2-0.3c-0.4-0.1-0.8-0.3-1.1-0.6s-0.6-0.5-0.8-0.9c-0.2-0.4-0.3-0.8-0.3-1.3
				c0-0.6,0.1-1.1,0.4-1.6s0.6-0.8,1-1.1c0.4-0.3,0.9-0.5,1.4-0.6c0.5-0.1,1-0.2,1.6-0.2c0.8,0,1.6,0.2,2.4,0.5s1.3,0.8,1.8,1.4
				L636.4,599z"/>
			<path d="M646.7,599c-0.3-0.4-0.6-0.8-1.1-1s-1-0.4-1.6-0.4c-0.3,0-0.5,0-0.8,0.1s-0.5,0.1-0.7,0.3s-0.4,0.3-0.5,0.5
				c-0.1,0.2-0.2,0.4-0.2,0.7c0,0.5,0.2,0.8,0.7,1.1c0.4,0.2,1.1,0.4,1.9,0.6c0.5,0.1,1,0.3,1.5,0.5s0.9,0.4,1.2,0.7
				c0.3,0.3,0.6,0.6,0.8,1s0.3,0.8,0.3,1.3c0,0.7-0.1,1.2-0.4,1.7c-0.3,0.5-0.6,0.8-1,1.1c-0.4,0.3-0.9,0.5-1.5,0.6
				s-1.1,0.2-1.7,0.2c-0.9,0-1.7-0.2-2.5-0.5s-1.5-0.8-2-1.5l1.6-1.4c0.3,0.5,0.7,0.8,1.3,1.1c0.5,0.3,1.1,0.5,1.8,0.5
				c0.3,0,0.6,0,0.8-0.1c0.3-0.1,0.5-0.2,0.7-0.3s0.4-0.3,0.5-0.5c0.1-0.2,0.2-0.5,0.2-0.8c0-0.5-0.2-0.9-0.8-1.2
				c-0.5-0.2-1.2-0.5-2.2-0.7c-0.4-0.1-0.8-0.2-1.2-0.3c-0.4-0.1-0.8-0.3-1.1-0.6s-0.6-0.5-0.8-0.9c-0.2-0.4-0.3-0.8-0.3-1.3
				c0-0.6,0.1-1.1,0.4-1.6s0.6-0.8,1-1.1c0.4-0.3,0.9-0.5,1.4-0.6c0.5-0.1,1-0.2,1.6-0.2c0.8,0,1.6,0.2,2.4,0.5s1.3,0.8,1.8,1.4
				L646.7,599z"/>
			<path d="M658.8,597.8c0.3-0.6,0.7-1,1.4-1.4c0.7-0.4,1.4-0.6,2.2-0.6c0.7,0,1.4,0.1,1.9,0.4s1,0.6,1.3,1c0.3,0.4,0.6,0.9,0.8,1.5
				c0.2,0.6,0.2,1.2,0.2,1.8v7.1h-2.3v-6.3c0-0.5,0-0.9-0.1-1.3c-0.1-0.4-0.2-0.8-0.4-1.1c-0.2-0.3-0.5-0.6-0.8-0.8
				s-0.8-0.3-1.3-0.3c-0.9,0-1.6,0.3-2.2,1s-0.9,1.6-0.9,2.7v6h-2.3v-18.1h2.3L658.8,597.8L658.8,597.8L658.8,597.8z"/>
			<path d="M677.2,600.1c0-0.8-0.3-1.5-0.8-1.9c-0.5-0.4-1.2-0.6-2-0.6c-0.6,0-1.2,0.1-1.8,0.4s-1,0.6-1.4,1l-1.2-1.4
				c0.6-0.5,1.2-0.9,2-1.2c0.8-0.3,1.7-0.5,2.6-0.5c0.8,0,1.5,0.1,2.1,0.3s1.1,0.5,1.5,1c0.4,0.4,0.7,0.9,0.9,1.4
				c0.2,0.5,0.3,1.1,0.3,1.8v5c0,0.4,0,0.8,0,1.2c0,0.4,0.1,0.8,0.1,1h-2c-0.1-0.5-0.2-1.1-0.2-1.6h-0.1c-0.4,0.6-0.9,1.1-1.6,1.4
				s-1.4,0.5-2.2,0.5c-0.5,0-0.9-0.1-1.4-0.2c-0.5-0.1-0.9-0.3-1.3-0.6s-0.7-0.6-1-1.1c-0.3-0.5-0.4-1-0.4-1.7c0-0.9,0.2-1.5,0.7-2
				s1.1-0.9,1.8-1.2s1.6-0.4,2.5-0.5s1.9-0.1,2.9-0.1L677.2,600.1L677.2,600.1z M676.6,602c-0.6,0-1.1,0-1.7,0.1s-1.1,0.1-1.6,0.3
				c-0.5,0.1-0.9,0.4-1.2,0.7s-0.5,0.7-0.5,1.2c0,0.3,0.1,0.6,0.2,0.8c0.1,0.2,0.3,0.4,0.5,0.5s0.5,0.2,0.7,0.3s0.5,0.1,0.8,0.1
				c1.1,0,1.9-0.3,2.4-1s0.8-1.4,0.8-2.4V602L676.6,602L676.6,602z"/>
			<path d="M688.9,599c-0.3-0.4-0.6-0.8-1.1-1s-1-0.4-1.6-0.4c-0.3,0-0.5,0-0.8,0.1s-0.5,0.1-0.7,0.3s-0.4,0.3-0.5,0.5
				c-0.1,0.2-0.2,0.4-0.2,0.7c0,0.5,0.2,0.8,0.7,1.1c0.4,0.2,1.1,0.4,1.9,0.6c0.5,0.1,1,0.3,1.5,0.5s0.9,0.4,1.2,0.7
				c0.3,0.3,0.6,0.6,0.8,1s0.3,0.8,0.3,1.3c0,0.7-0.1,1.2-0.4,1.7c-0.3,0.5-0.6,0.8-1,1.1c-0.4,0.3-0.9,0.5-1.5,0.6
				s-1.1,0.2-1.7,0.2c-0.9,0-1.7-0.2-2.5-0.5s-1.5-0.8-2-1.5l1.6-1.4c0.3,0.5,0.7,0.8,1.3,1.1c0.5,0.3,1.1,0.5,1.8,0.5
				c0.3,0,0.6,0,0.8-0.1c0.3-0.1,0.5-0.2,0.7-0.3s0.4-0.3,0.5-0.5c0.1-0.2,0.2-0.5,0.2-0.8c0-0.5-0.2-0.9-0.8-1.2
				c-0.5-0.2-1.2-0.5-2.2-0.7c-0.4-0.1-0.8-0.2-1.2-0.3c-0.4-0.1-0.8-0.3-1.1-0.6s-0.6-0.5-0.8-0.9c-0.2-0.4-0.3-0.8-0.3-1.3
				c0-0.6,0.1-1.1,0.4-1.6s0.6-0.8,1-1.1c0.4-0.3,0.9-0.5,1.4-0.6c0.5-0.1,1-0.2,1.6-0.2c0.8,0,1.6,0.2,2.4,0.5s1.3,0.8,1.8,1.4
				L688.9,599z"/>
			<path d="M704,607.5h-2.5l-4.6-11.4h2.5l3.3,9h0l3.4-9h2.4L704,607.5z"/>
			<path d="M717.5,600.1c0-0.8-0.3-1.5-0.8-1.9c-0.5-0.4-1.2-0.6-2-0.6c-0.6,0-1.2,0.1-1.8,0.4s-1,0.6-1.4,1l-1.2-1.4
				c0.6-0.5,1.2-0.9,2-1.2c0.8-0.3,1.7-0.5,2.6-0.5c0.8,0,1.5,0.1,2.1,0.3s1.1,0.5,1.5,1c0.4,0.4,0.7,0.9,0.9,1.4
				c0.2,0.5,0.3,1.1,0.3,1.8v5c0,0.4,0,0.8,0,1.2c0,0.4,0.1,0.8,0.1,1h-2c-0.1-0.5-0.2-1.1-0.2-1.6h-0.1c-0.4,0.6-0.9,1.1-1.6,1.4
				s-1.4,0.5-2.2,0.5c-0.5,0-0.9-0.1-1.4-0.2c-0.5-0.1-0.9-0.3-1.3-0.6s-0.7-0.6-1-1.1c-0.3-0.5-0.4-1-0.4-1.7c0-0.9,0.2-1.5,0.7-2
				s1.1-0.9,1.8-1.2s1.6-0.4,2.5-0.5s1.9-0.1,2.9-0.1L717.5,600.1L717.5,600.1z M717,602c-0.6,0-1.1,0-1.7,0.1s-1.1,0.1-1.6,0.3
				c-0.5,0.1-0.9,0.4-1.2,0.7s-0.5,0.7-0.5,1.2c0,0.3,0.1,0.6,0.2,0.8c0.1,0.2,0.3,0.4,0.5,0.5s0.5,0.2,0.7,0.3s0.5,0.1,0.8,0.1
				c1.1,0,1.9-0.3,2.4-1s0.8-1.4,0.8-2.4V602L717,602L717,602z"/>
			<path d="M725.1,596.1c0,0.3,0.1,0.6,0.1,1s0,0.7,0,0.9h0.1c0.1-0.3,0.3-0.6,0.6-0.8c0.2-0.3,0.5-0.5,0.8-0.7s0.7-0.4,1.1-0.5
				c0.4-0.1,0.8-0.2,1.2-0.2c0.7,0,1.4,0.1,1.9,0.4s1,0.6,1.3,1c0.3,0.4,0.6,0.9,0.8,1.5c0.2,0.6,0.2,1.2,0.2,1.8v7.1H731v-6.3
				c0-0.5,0-0.9-0.1-1.3s-0.2-0.8-0.4-1.1c-0.2-0.3-0.5-0.6-0.8-0.8c-0.3-0.2-0.8-0.3-1.3-0.3c-0.9,0-1.6,0.3-2.2,1
				s-0.8,1.6-0.8,2.7v6h-2.3v-8.9c0-0.3,0-0.7,0-1.2c0-0.5,0-0.9-0.1-1.3L725.1,596.1L725.1,596.1z"/>
			<path d="M739.3,592c0,0.4-0.2,0.8-0.4,1s-0.7,0.4-1.1,0.4s-0.8-0.1-1-0.4c-0.3-0.3-0.4-0.6-0.4-1c0-0.4,0.1-0.8,0.4-1
				c0.3-0.3,0.6-0.4,1-0.4s0.8,0.1,1.1,0.4C739.2,591.2,739.3,591.6,739.3,592z M739,607.5h-2.3v-11.4h2.3V607.5z"/>
			<path d="M748.7,599c-0.3-0.4-0.6-0.8-1.1-1s-1-0.4-1.6-0.4c-0.3,0-0.5,0-0.8,0.1s-0.5,0.1-0.7,0.3s-0.4,0.3-0.5,0.5
				c-0.1,0.2-0.2,0.4-0.2,0.7c0,0.5,0.2,0.8,0.7,1.1c0.4,0.2,1.1,0.4,1.9,0.6c0.5,0.1,1,0.3,1.5,0.5s0.9,0.4,1.2,0.7
				c0.3,0.3,0.6,0.6,0.8,1s0.3,0.8,0.3,1.3c0,0.7-0.1,1.2-0.4,1.7c-0.3,0.5-0.6,0.8-1,1.1c-0.4,0.3-0.9,0.5-1.5,0.6
				s-1.1,0.2-1.7,0.2c-0.9,0-1.7-0.2-2.5-0.5s-1.5-0.8-2-1.5l1.6-1.4c0.3,0.5,0.7,0.8,1.3,1.1c0.5,0.3,1.1,0.5,1.8,0.5
				c0.3,0,0.6,0,0.8-0.1c0.3-0.1,0.5-0.2,0.7-0.3s0.4-0.3,0.5-0.5c0.1-0.2,0.2-0.5,0.2-0.8c0-0.5-0.2-0.9-0.8-1.2
				c-0.5-0.2-1.2-0.5-2.2-0.7c-0.4-0.1-0.8-0.2-1.2-0.3c-0.4-0.1-0.8-0.3-1.1-0.6s-0.6-0.5-0.8-0.9c-0.2-0.4-0.3-0.8-0.3-1.3
				c0-0.6,0.1-1.1,0.4-1.6s0.6-0.8,1-1.1c0.4-0.3,0.9-0.5,1.4-0.6c0.5-0.1,1-0.2,1.6-0.2c0.8,0,1.6,0.2,2.4,0.5s1.3,0.8,1.8,1.4
				L748.7,599z"/>
			<path d="M755.2,597.8c0.3-0.6,0.7-1,1.4-1.4c0.7-0.4,1.4-0.6,2.2-0.6c0.7,0,1.4,0.1,1.9,0.4s1,0.6,1.3,1c0.3,0.4,0.6,0.9,0.8,1.5
				c0.2,0.6,0.2,1.2,0.2,1.8v7.1h-2.3v-6.3c0-0.5,0-0.9-0.1-1.3c-0.1-0.4-0.2-0.8-0.4-1.1c-0.2-0.3-0.5-0.6-0.8-0.8
				s-0.8-0.3-1.3-0.3c-0.9,0-1.6,0.3-2.2,1s-0.9,1.6-0.9,2.7v6h-2.3v-18.1h2.3L755.2,597.8L755.2,597.8L755.2,597.8z"/>
			<path d="M777.1,601.7c0,0.1,0,0.3,0,0.4s0,0.3,0,0.4h-9c0,0.5,0.1,0.9,0.3,1.3s0.5,0.8,0.8,1.1s0.7,0.5,1.2,0.7s0.9,0.3,1.4,0.3
				c0.8,0,1.4-0.2,2-0.5c0.6-0.3,1-0.7,1.3-1.2l1.6,1.3c-0.6,0.8-1.3,1.4-2.2,1.8c-0.8,0.4-1.7,0.6-2.8,0.6c-0.9,0-1.7-0.1-2.4-0.4
				s-1.4-0.7-1.9-1.2s-0.9-1.2-1.2-1.9c-0.3-0.7-0.5-1.5-0.5-2.5c0-0.9,0.2-1.7,0.4-2.4s0.7-1.4,1.2-1.9c0.5-0.5,1.2-0.9,1.9-1.2
				s1.5-0.4,2.3-0.4s1.6,0.1,2.3,0.4c0.7,0.3,1.3,0.7,1.7,1.2c0.5,0.5,0.8,1.1,1.1,1.9C777,599.9,777.1,600.8,777.1,601.7z
				 M774.8,600.8c0-0.5-0.1-0.9-0.2-1.3s-0.3-0.7-0.6-1c-0.3-0.3-0.6-0.5-1-0.7c-0.4-0.2-0.8-0.2-1.4-0.2c-0.5,0-0.9,0.1-1.4,0.2
				s-0.8,0.4-1.1,0.7c-0.3,0.3-0.6,0.6-0.8,1s-0.3,0.8-0.3,1.3H774.8z"/>
			<path d="M789,605.7c-0.4,0.7-1,1.2-1.8,1.6s-1.5,0.5-2.3,0.5c-0.9,0-1.7-0.2-2.4-0.5s-1.3-0.7-1.8-1.3c-0.5-0.5-0.9-1.2-1.2-1.9
				s-0.4-1.5-0.4-2.3s0.1-1.6,0.4-2.3c0.3-0.7,0.7-1.4,1.2-1.9s1.1-1,1.8-1.3c0.7-0.3,1.5-0.5,2.3-0.5c0.9,0,1.7,0.2,2.4,0.6
				c0.7,0.4,1.2,0.9,1.6,1.4h0v-8.5h2.3v18.1H789L789,605.7L789,605.7L789,605.7z M781.5,601.8c0,0.5,0.1,1,0.2,1.5
				c0.2,0.5,0.4,0.9,0.7,1.3c0.3,0.4,0.7,0.7,1.2,0.9c0.5,0.2,1,0.3,1.6,0.3c0.6,0,1.1-0.1,1.6-0.3c0.5-0.2,0.9-0.5,1.2-0.9
				s0.6-0.8,0.8-1.3c0.2-0.5,0.3-1,0.3-1.5s-0.1-1.1-0.3-1.6c-0.2-0.5-0.4-0.9-0.8-1.3s-0.7-0.7-1.2-0.9c-0.5-0.2-1-0.3-1.6-0.3
				c-0.6,0-1.2,0.1-1.6,0.3s-0.9,0.5-1.2,0.9c-0.3,0.4-0.6,0.8-0.7,1.3S781.5,601.2,781.5,601.8z"/>
			<path d="M798.4,606c0,0.4-0.2,0.8-0.5,1.1c-0.3,0.3-0.7,0.5-1.2,0.5c-0.5,0-0.8-0.2-1.1-0.5s-0.5-0.7-0.5-1.1
				c0-0.4,0.2-0.8,0.5-1.1c0.3-0.3,0.7-0.5,1.2-0.5s0.8,0.2,1.2,0.5C798.3,605.2,798.4,605.6,798.4,606z M798,602.5h-2.4v-12h2.4
				V602.5z"/>
			<path d="M802.6,590.5h2v6h-2V590.5z M806.5,590.5h2v6h-2V590.5z"/>
		</g>
	</g>
	<g id="Logo_Lockup">
		<g id="KLARIFY_4_">
			<g>
				<path d="M517,424.4h-0.5v-3h-1.1V421h2.7v0.4H517V424.4L517,424.4z"/>
				<path d="M520.3,423.6L520.3,423.6l1-2.6h0.7v3.4h-0.5v-2.8h0l-1.1,2.8h-0.3l-1.1-2.8h0v2.8h-0.5V421h0.7L520.3,423.6z"/>
			</g>
			<path d="M502,437v-7.2l-8.3-8.8h5l5.5,6.1l5.5-6.1h4.4l-8.3,8.8v7.2H502z"/>
			<path d="M476.5,437v-16h16.2v2.8h-12.5v4.2h6.7v2.9h-6.7v6.1H476.5z"/>
			<path d="M468.1,437v-16h3.7v16H468.1z"/>
			<path d="M446.3,437v-16H460c2.4,0,3.6,1,3.6,3.1v3.8c0,2.1-1.2,3.1-3.6,3.1h-2.1l7.4,6H460l-6.5-6H450v6.1H446.3z M458.4,423.7
				H450v4.5h8.4c0.6,0,1-0.1,1.2-0.2c0.3-0.2,0.5-0.5,0.5-1.1V425c0-0.5-0.2-0.9-0.5-1.1C459.4,423.8,459,423.7,458.4,423.7z"/>
			<path d="M422.2,437l9.1-16h3.6l9.2,16h-4.2l-1.9-3.5h-10.1l-1.9,3.5H422.2z M429.3,430.6h7l-3.4-6.5L429.3,430.6z"/>
			<path d="M404.5,437v-16h3.7v13h12v3H404.5z"/>
			<path d="M384,437v-16h3.8v6.7l8.9-6.7h5.4l-10.6,7.5l11.9,8.5h-6l-9.6-7v7H384z"/>
		</g>
		<g id="white_outline_00000166663379627057840630000004663505965967493307_">
			<path id="Q" class="st1" d="M672.4,365.1c-1.5-1.5-4.3-2.2-8.3-2.2H636c-4.1,0-6.7,0.8-8.3,2.2c-1.5,1.5-2.3,4.1-2.3,7.9v20.1
				c0,3.8,0.8,6.5,2.3,7.9c1.5,1.5,4.3,2.2,8.3,2.2h14.9l4.3,9.8h11.4l-4.8-9.8h2.3c4,0,6.7-0.8,8.3-2.2c1.5-1.5,2.3-4.1,2.3-7.9
				v-20.1C674.6,369.2,673.9,366.7,672.4,365.1z M663.5,372.1v21.9h-6.2l-5.3-11.2l-8.5,3.4l3.3,7.8h-10.2v-21.9H663.5L663.5,372.1z
				"/>
			<polygon id="E" class="st1" points="589.6,386.7 607.2,386.7 607.2,377.9 589.6,377.9 589.6,371.7 619.7,371.7 619.7,362.9 
				578.4,362.9 578.4,403.3 620.1,403.3 620.1,393.8 589.6,393.8 			"/>
			<polygon id="T" class="st1" points="528.4,372.1 545.9,372.1 545.9,403.3 557,403.3 557,372.1 574.6,372.1 574.6,362.9 
				528.4,362.9 			"/>
			<path id="R" class="st1" d="M515,389c3.3,0,5.7-0.7,7.3-2s2.5-3.6,2.5-6.5v-9c0-2.9-0.9-5.1-2.5-6.5s-4-2-7.3-2h-33.7v40.4h11
				v-14.4h6.8l15.4,14.4h16.4l-17.6-14.4L515,389L515,389z M513.9,373.7v4.6c0,0.8-0.2,1.3-0.4,1.5c-0.1,0.1-0.7,0.4-2.5,0.4h-18.8
				v-8.4H511c1.8,0,2.3,0.3,2.5,0.4C513.9,372.5,513.9,373.3,513.9,373.7z"/>
			<g id="">
				<rect x="464.8" y="362.9" class="st1" width="11.1" height="11.1"/>
				<path class="st1" d="M464.8,376.2v17.7h-23.1v-17.7h-11.2v17c0,3.8,0.8,6.4,2.3,7.9c1.5,1.5,4.3,2.2,8.3,2.2h24.1
					c4,0,6.7-0.7,8.3-2.2c1.5-1.5,2.3-4.1,2.3-7.9v-17H464.8z"/>
				<rect x="430.6" y="362.9" class="st1" width="11.2" height="11.1"/>
			</g>
			<path id="P" class="st1" d="M423.6,365c-1.6-1.4-4-2-7.3-2h-33.7v40.4h11v-14.9h22.7c3.3,0,5.7-0.7,7.3-2
				c1.6-1.4,2.5-3.6,2.5-6.5v-8.5C426,368.6,425.1,366.3,423.6,365z M393.5,371.8h18.8c1.8,0,2.3,0.3,2.5,0.4c0.3,0.3,0.4,1,0.4,1.5
				v4.1c0,0.8-0.2,1.3-0.4,1.5c-0.1,0.1-0.7,0.4-2.5,0.4h-18.8V371.8z"/>
		</g>
		<g id="PURTEQ_00000166645230741269679490000004985074196439106744_">
			<g>
				<path id="_xAE_" class="st1" d="M675.7,364c0-0.4,0.1-0.8,0.3-1.2c0.2-0.3,0.3-0.7,0.7-0.9c0.3-0.3,0.6-0.5,0.9-0.7
					c0.3-0.2,0.8-0.3,1.2-0.3c0.4,0,0.9,0.1,1.2,0.3c0.3,0.2,0.7,0.3,0.9,0.7c0.3,0.3,0.5,0.6,0.7,0.9c0.2,0.3,0.3,0.8,0.3,1.2
					s-0.1,0.8-0.3,1.2c-0.2,0.4-0.3,0.7-0.7,0.9c-0.3,0.3-0.6,0.5-0.9,0.7c-0.3,0.2-0.8,0.3-1.2,0.3c-0.4,0-0.9-0.1-1.2-0.3
					c-0.3-0.2-0.7-0.3-0.9-0.7c-0.3-0.3-0.5-0.6-0.7-0.9C675.8,364.9,675.7,364.5,675.7,364z M676.1,364c0,0.3,0.1,0.7,0.2,0.9
					c0.2,0.3,0.3,0.6,0.5,0.9c0.3,0.3,0.5,0.4,0.9,0.5c0.3,0.2,0.7,0.2,1,0.2c0.3,0,0.7-0.1,1-0.2c0.3-0.2,0.6-0.3,0.9-0.5
					c0.3-0.3,0.4-0.5,0.5-0.9c0.2-0.3,0.2-0.7,0.2-0.9c0-0.3-0.1-0.7-0.2-1c-0.2-0.3-0.3-0.6-0.5-0.8c-0.2-0.2-0.5-0.4-0.9-0.5
					c-0.3-0.1-0.7-0.2-1-0.2c-0.3,0-0.7,0.1-1,0.2c-0.3,0.2-0.6,0.3-0.9,0.5c-0.3,0.2-0.4,0.5-0.5,0.8
					C676.2,363.3,676.1,363.7,676.1,364z M677.5,362.3h1.2c0.2,0,0.3,0,0.4,0.1c0.2,0,0.3,0.1,0.4,0.2c0.1,0.1,0.2,0.2,0.3,0.3
					s0.1,0.3,0.1,0.4c0,0.3-0.1,0.4-0.2,0.6c-0.2,0.2-0.3,0.3-0.6,0.3l0.9,1.5h-0.8l-0.8-1.5h-0.4v1.5h-0.6L677.5,362.3L677.5,362.3
					z M678.6,363.9c0.2,0,0.3,0,0.5-0.1c0.2-0.1,0.3-0.2,0.3-0.4c0-0.2-0.1-0.3-0.3-0.3c-0.2-0.1-0.3-0.1-0.4-0.1h-0.6v0.9H678.6
					L678.6,363.9z"/>
				<g>
					<path class="st2" d="M626.5,373.1c0-3.5,0.7-5.8,2-7.1s3.8-1.9,7.5-1.9h28.1c3.7,0,6.2,0.7,7.5,1.9c1.3,1.3,2,3.7,2,7.1v20.1
						c0,3.5-0.7,5.9-2,7.2s-3.8,1.9-7.5,1.9H660l4.8,9.8H656l-4.3-9.8h-15.8c-3.7,0-6.2-0.6-7.5-1.9s-2-3.7-2-7.2L626.5,373.1
						L626.5,373.1z M635.4,395h13.1l-3.5-8.3l6.4-2.6l5.1,10.8h8.1v-24.2h-29.3L635.4,395L635.4,395z"/>
					<path class="st2" d="M579.5,402.2V364h39v6.5h-30.1v8.5H606v6.5h-17.6v9.5H619v7.2H579.5L579.5,402.2z"/>
					<path class="st2" d="M555.9,370.9v31.3H547v-31.3h-17.5V364h44v6.8H555.9z"/>
					<path class="st3" d="M482.4,402.2V364H515c3,0,5.2,0.6,6.6,1.8s2,3.1,2,5.6v9c0,2.6-0.7,4.4-2,5.6c-1.4,1.2-3.6,1.8-6.6,1.8h-5
						l17.6,14.4h-12.7l-15.4-14.4h-8.5v14.4L482.4,402.2L482.4,402.2z M511,370.7h-20v10.6h20c1.5,0,2.6-0.3,3.2-0.7
						c0.6-0.4,0.9-1.2,0.9-2.4v-4.6c0-1.1-0.3-1.9-0.9-2.3C513.7,370.9,512.6,370.7,511,370.7z"/>
					<path class="st3" d="M465.9,372.9V364h8.9v8.9H465.9z M465.9,377.4V395h-25.3v-17.7h-8.9v15.9c0,3.5,0.7,5.9,2,7.1
						c1.3,1.3,3.8,1.9,7.5,1.9h24.1c3.7,0,6.2-0.6,7.5-1.9c1.3-1.3,2-3.7,2-7.1v-15.9H465.9z M440.6,372.9V364h-8.9v8.9H440.6z"/>
					<path class="st3" d="M383.6,402.2V364h32.6c3,0,5.2,0.6,6.6,1.8c1.4,1.2,2,3.1,2,5.6v8.5c0,2.6-0.7,4.4-2,5.6
						c-1.4,1.2-3.6,1.8-6.6,1.8h-23.9v14.9L383.6,402.2L383.6,402.2z M412.3,370.7h-20v10.1h20c1.5,0,2.6-0.3,3.2-0.7
						c0.6-0.4,0.9-1.2,0.9-2.4v-4.1c0-1.1-0.3-1.9-0.9-2.3C414.9,370.9,413.9,370.7,412.3,370.7z"/>
				</g>
			</g>
		</g>
	</g>
	<g id="Headline_00000155827945563260950280000007966984190218862486_">
		<g>
			<path d="M393.6,179h-10.4v-5.3H410v5.3h-10.4v28.7h-6L393.6,179L393.6,179z"/>
			<path d="M414,173.7h6v13.7h15.9v-13.7h6v34h-6v-15.1H420v15.1h-6V173.7z"/>
			<path d="M449.5,173.7H472v5.3h-16.5v8.6h15.6v5.1h-15.6v9.6h17.3v5.4h-23.4V173.7z"/>
			<path d="M490.7,173.7h9.5l8.8,24.1h0.1l8.7-24.1h9.5v34h-6v-27.3h-0.1L511,207.7h-4.2l-10.2-27.3h-0.1v27.3h-5.8V173.7z"/>
			<path d="M533.3,190.6c0-2.7,0.5-5.2,1.4-7.4s2.2-4.1,3.8-5.6c1.6-1.5,3.5-2.7,5.8-3.6c2.2-0.8,4.7-1.2,7.3-1.2
				c2.7,0,5.1,0.4,7.3,1.2c2.2,0.8,4.2,2,5.8,3.6c1.6,1.5,2.9,3.4,3.8,5.6c0.9,2.2,1.4,4.6,1.4,7.4c0,2.7-0.5,5.1-1.4,7.3
				s-2.2,4.1-3.8,5.7s-3.6,2.8-5.8,3.7c-2.2,0.9-4.7,1.3-7.3,1.3c-2.6,0-5-0.4-7.3-1.3c-2.2-0.9-4.1-2.1-5.8-3.7
				c-1.6-1.6-2.9-3.5-3.8-5.7C533.7,195.7,533.3,193.3,533.3,190.6z M539.8,190.6c0,1.8,0.3,3.5,0.8,5s1.4,2.8,2.4,4s2.3,2,3.7,2.6
				s3,0.9,4.7,0.9s3.3-0.3,4.8-0.9c1.4-0.6,2.7-1.5,3.7-2.6s1.8-2.4,2.4-4s0.8-3.2,0.8-5c0-1.8-0.3-3.4-0.8-4.9
				c-0.6-1.5-1.3-2.8-2.4-3.9c-1-1.1-2.3-2-3.7-2.6s-3-1-4.8-1s-3.3,0.3-4.8,1c-1.4,0.6-2.7,1.5-3.7,2.6c-1,1.1-1.8,2.4-2.4,3.9
				C540.1,187.2,539.8,188.9,539.8,190.6z"/>
			<path d="M575.7,173.7h11.8c1.6,0,3.2,0.2,4.7,0.5c1.5,0.3,2.8,0.9,4,1.7s2.1,1.8,2.8,3c0.7,1.2,1.1,2.8,1.1,4.6
				c0,2.5-0.7,4.5-2.1,6s-3.3,2.6-5.7,3.1l9.1,15.1H594l-7.9-14.4h-4.4v14.4h-6V173.7z M586.7,188.4c0.9,0,1.7-0.1,2.6-0.2
				c0.9-0.1,1.6-0.4,2.3-0.7s1.2-0.9,1.7-1.5c0.5-0.7,0.7-1.5,0.7-2.5c0-0.9-0.2-1.7-0.6-2.3c-0.4-0.6-0.9-1.1-1.6-1.4
				c-0.6-0.4-1.4-0.6-2.2-0.7c-0.8-0.1-1.6-0.2-2.4-0.2h-5.5v9.6H586.7z"/>
			<path d="M605.8,173.7h22.5v5.3h-16.5v8.6h15.6v5.1h-15.6v9.6h17.3v5.4h-23.4V173.7z"/>
			<path d="M654.2,193l-12.8-19.2h7.4l8.5,14.3l8.6-14.3h7L660.2,193v14.7h-6V193z"/>
			<path d="M672.8,190.6c0-2.7,0.5-5.2,1.4-7.4s2.2-4.1,3.8-5.6c1.6-1.5,3.5-2.7,5.8-3.6c2.2-0.8,4.7-1.2,7.3-1.2
				c2.7,0,5.1,0.4,7.3,1.2c2.2,0.8,4.2,2,5.8,3.6c1.6,1.5,2.9,3.4,3.8,5.6c0.9,2.2,1.4,4.6,1.4,7.4c0,2.7-0.5,5.1-1.4,7.3
				s-2.2,4.1-3.8,5.7s-3.6,2.8-5.8,3.7c-2.2,0.9-4.7,1.3-7.3,1.3c-2.6,0-5-0.4-7.3-1.3c-2.2-0.9-4.1-2.1-5.8-3.7
				c-1.6-1.6-2.9-3.5-3.8-5.7S672.8,193.3,672.8,190.6z M679.4,190.6c0,1.8,0.3,3.5,0.8,5s1.4,2.8,2.4,4s2.3,2,3.7,2.6
				s3,0.9,4.7,0.9s3.3-0.3,4.8-0.9c1.4-0.6,2.7-1.5,3.7-2.6s1.8-2.4,2.4-4s0.8-3.2,0.8-5c0-1.8-0.3-3.4-0.8-4.9
				c-0.6-1.5-1.3-2.8-2.4-3.9c-1-1.1-2.3-2-3.7-2.6s-3-1-4.8-1s-3.3,0.3-4.8,1c-1.4,0.6-2.7,1.5-3.7,2.6c-1,1.1-1.8,2.4-2.4,3.9
				C679.7,187.2,679.4,188.9,679.4,190.6z"/>
			<path d="M742.3,195.2c0,2.1-0.3,3.9-1.1,5.5c-0.7,1.6-1.7,3.1-2.9,4.2c-1.2,1.1-2.7,2-4.3,2.7c-1.7,0.6-3.5,0.9-5.4,0.9
				s-3.8-0.3-5.4-0.9c-1.7-0.6-3.1-1.5-4.3-2.7c-1.2-1.1-2.2-2.6-2.9-4.2s-1-3.5-1-5.5v-21.5h6V195c0,1,0.1,2,0.4,2.9
				c0.3,1,0.7,1.9,1.3,2.6c0.6,0.8,1.4,1.4,2.3,1.9c1,0.5,2.2,0.7,3.6,0.7s2.7-0.2,3.6-0.7c1-0.5,1.8-1.1,2.3-1.9
				c0.6-0.8,1-1.6,1.3-2.6c0.3-1,0.4-2,0.4-2.9v-21.3h6L742.3,195.2L742.3,195.2z"/>
			<path d="M788.6,195.2c0,2.1-0.3,3.9-1.1,5.5c-0.7,1.6-1.7,3.1-2.9,4.2c-1.2,1.1-2.7,2-4.3,2.7c-1.7,0.6-3.5,0.9-5.4,0.9
				s-3.8-0.3-5.4-0.9c-1.7-0.6-3.1-1.5-4.3-2.7c-1.2-1.1-2.2-2.6-2.9-4.2s-1-3.5-1-5.5v-21.5h6V195c0,1,0.1,2,0.4,2.9
				c0.3,1,0.7,1.9,1.3,2.6c0.6,0.8,1.4,1.4,2.3,1.9c1,0.5,2.2,0.7,3.6,0.7s2.7-0.2,3.6-0.7c1-0.5,1.8-1.1,2.3-1.9
				c0.6-0.8,1-1.6,1.3-2.6c0.3-1,0.4-2,0.4-2.9v-21.3h6L788.6,195.2L788.6,195.2z"/>
			<path d="M813.1,180.8c-0.6-0.8-1.5-1.5-2.7-2.1c-1.2-0.6-2.3-0.8-3.5-0.8c-0.7,0-1.4,0.1-2.1,0.3c-0.7,0.2-1.3,0.4-1.9,0.8
				c-0.6,0.4-1,0.9-1.4,1.4s-0.5,1.3-0.5,2.1c0,0.8,0.2,1.4,0.5,2c0.3,0.5,0.8,1,1.3,1.4s1.2,0.7,2,1s1.7,0.6,2.6,0.9
				c1.1,0.4,2.2,0.8,3.4,1.2c1.2,0.4,2.2,1,3.2,1.8s1.8,1.7,2.4,2.8s0.9,2.5,0.9,4.2c0,1.8-0.3,3.4-1,4.8s-1.6,2.5-2.7,3.4
				c-1.1,0.9-2.4,1.6-3.9,2c-1.5,0.4-3.1,0.7-4.8,0.7c-2.2,0-4.4-0.4-6.5-1.2c-2.1-0.8-3.8-2-5.2-3.6l4.3-4c0.8,1.1,1.9,2.1,3.3,2.7
				c1.4,0.7,2.8,1,4.1,1c0.7,0,1.4-0.1,2.2-0.3c0.7-0.2,1.4-0.5,2-0.9c0.6-0.4,1.1-0.9,1.4-1.6s0.5-1.4,0.5-2.3
				c0-0.9-0.2-1.6-0.6-2.2c-0.4-0.6-1-1.1-1.7-1.5s-1.5-0.8-2.5-1.1s-2-0.7-3-1c-1-0.3-2-0.7-3.1-1.1s-1.9-1-2.8-1.8s-1.5-1.6-2-2.7
				s-0.8-2.4-0.8-4c0-1.7,0.4-3.2,1.1-4.5c0.7-1.2,1.7-2.3,2.8-3.1c1.2-0.8,2.5-1.4,4-1.8c1.5-0.4,3-0.6,4.5-0.6
				c1.7,0,3.5,0.3,5.3,0.9s3.3,1.5,4.6,2.7L813.1,180.8z"/>
			<path d="M823.3,173.7h22.5v5.3h-16.5v8.6H845v5.1h-15.6v9.6h17.3v5.4h-23.4V173.7z"/>
			<path d="M864.6,173.7h6v34h-6V173.7z"/>
			<path d="M885,179h-10.4v-5.3h26.9v5.3h-10.4v28.7h-6V179z"/>
			<path d="M902.4,201.1h5.6l-4.1,12.7h-4.8L902.4,201.1z"/>
			<path d="M393.6,230.2h-10.4v-5.3H410v5.3h-10.4v28.7h-6L393.6,230.2L393.6,230.2z"/>
			<path d="M414,224.9h6v13.7h15.9v-13.7h6v34h-6v-15.1H420v15.1h-6V224.9z"/>
			<path d="M449.5,224.9H472v5.3h-16.5v8.6h15.6v5.1h-15.6v9.6h17.3v5.4h-23.4V224.9z"/>
			<path d="M490.7,224.9h6v28.6h14.5v5.4h-20.5V224.9z"/>
			<path d="M515.3,224.9h22.5v5.3h-16.5v8.6h15.6v5.1h-15.6v9.6h17.3v5.4h-23.4V224.9z"/>
			<path d="M561.9,232c-0.6-0.8-1.5-1.5-2.7-2.1c-1.2-0.6-2.3-0.8-3.5-0.8c-0.7,0-1.4,0.1-2.1,0.3c-0.7,0.2-1.3,0.4-1.9,0.8
				c-0.6,0.4-1,0.9-1.4,1.4s-0.5,1.3-0.5,2.1c0,0.8,0.2,1.4,0.5,2c0.3,0.5,0.8,1,1.3,1.4s1.2,0.7,2,1s1.7,0.6,2.6,0.9
				c1.1,0.4,2.2,0.8,3.4,1.2c1.2,0.4,2.2,1,3.2,1.8s1.8,1.7,2.4,2.8s0.9,2.5,0.9,4.2c0,1.8-0.3,3.4-1,4.8s-1.6,2.5-2.7,3.4
				c-1.1,0.9-2.4,1.6-3.9,2c-1.5,0.5-3.1,0.7-4.8,0.7c-2.2,0-4.4-0.4-6.5-1.2c-2.1-0.8-3.8-2-5.2-3.6l4.3-4c0.8,1.1,1.9,2.1,3.3,2.7
				c1.4,0.7,2.8,1,4.1,1c0.7,0,1.4-0.1,2.2-0.3c0.7-0.2,1.4-0.5,2-0.9c0.6-0.4,1.1-0.9,1.4-1.6s0.5-1.4,0.5-2.3
				c0-0.9-0.2-1.6-0.6-2.2c-0.4-0.6-1-1.1-1.7-1.5s-1.5-0.8-2.5-1.1s-2-0.7-3-1c-1-0.3-2-0.7-3.1-1.1s-1.9-1-2.8-1.8s-1.5-1.6-2-2.7
				s-0.8-2.4-0.8-4c0-1.7,0.4-3.2,1.1-4.5c0.7-1.2,1.7-2.3,2.8-3.1c1.2-0.8,2.5-1.4,4-1.8c1.5-0.4,3-0.6,4.5-0.6
				c1.7,0,3.5,0.3,5.3,0.9s3.3,1.5,4.6,2.7L561.9,232z"/>
			<path d="M589.4,232c-0.6-0.8-1.5-1.5-2.7-2.1c-1.2-0.6-2.3-0.8-3.5-0.8c-0.7,0-1.4,0.1-2.1,0.3c-0.7,0.2-1.3,0.4-1.9,0.8
				c-0.6,0.4-1,0.9-1.4,1.4s-0.5,1.3-0.5,2.1c0,0.8,0.2,1.4,0.5,2c0.3,0.5,0.8,1,1.3,1.4s1.2,0.7,2,1s1.7,0.6,2.6,0.9
				c1.1,0.4,2.2,0.8,3.4,1.2c1.2,0.4,2.2,1,3.2,1.8s1.8,1.7,2.4,2.8s0.9,2.5,0.9,4.2c0,1.8-0.3,3.4-1,4.8s-1.6,2.5-2.7,3.4
				c-1.1,0.9-2.4,1.6-3.9,2c-1.5,0.5-3.1,0.7-4.8,0.7c-2.2,0-4.4-0.4-6.5-1.2c-2.1-0.8-3.8-2-5.2-3.6l4.3-4c0.8,1.1,1.9,2.1,3.3,2.7
				c1.4,0.7,2.8,1,4.1,1c0.7,0,1.4-0.1,2.2-0.3c0.7-0.2,1.4-0.5,2-0.9c0.6-0.4,1.1-0.9,1.4-1.6s0.5-1.4,0.5-2.3
				c0-0.9-0.2-1.6-0.6-2.2c-0.4-0.6-1-1.1-1.7-1.5s-1.5-0.8-2.5-1.1s-2-0.7-3-1c-1-0.3-2-0.7-3.1-1.1s-1.9-1-2.8-1.8s-1.5-1.6-2-2.7
				s-0.8-2.4-0.8-4c0-1.7,0.4-3.2,1.1-4.5c0.7-1.2,1.7-2.3,2.8-3.1c1.2-0.8,2.5-1.4,4-1.8c1.5-0.4,3-0.6,4.5-0.6
				c1.7,0,3.5,0.3,5.3,0.9s3.3,1.5,4.6,2.7L589.4,232z"/>
			<path d="M618.7,244.2l-12.8-19.2h7.4l8.5,14.3l8.6-14.3h7l-12.8,19.2v14.7h-6L618.7,244.2L618.7,244.2z"/>
			<path d="M637.4,241.8c0-2.7,0.5-5.2,1.4-7.4s2.2-4.1,3.8-5.6c1.6-1.5,3.5-2.7,5.8-3.6c2.2-0.8,4.7-1.2,7.3-1.2
				c2.7,0,5.1,0.4,7.3,1.2c2.2,0.8,4.2,2,5.8,3.6c1.6,1.5,2.9,3.4,3.8,5.6c0.9,2.2,1.4,4.6,1.4,7.4c0,2.7-0.5,5.1-1.4,7.3
				s-2.2,4.1-3.8,5.7s-3.6,2.8-5.8,3.7s-4.7,1.3-7.3,1.3c-2.6,0-5-0.4-7.3-1.3c-2.2-0.9-4.1-2.1-5.8-3.7c-1.6-1.6-2.9-3.5-3.8-5.7
				C637.8,246.9,637.4,244.5,637.4,241.8z M644,241.8c0,1.8,0.3,3.5,0.8,5s1.4,2.8,2.4,4s2.3,2,3.7,2.6s3,0.9,4.7,0.9
				s3.3-0.3,4.8-0.9c1.4-0.6,2.7-1.5,3.7-2.6s1.8-2.4,2.4-4s0.8-3.2,0.8-5c0-1.8-0.3-3.4-0.8-4.9c-0.6-1.5-1.3-2.8-2.4-3.9
				c-1-1.1-2.3-2-3.7-2.6s-3-1-4.8-1s-3.3,0.3-4.8,1c-1.4,0.6-2.7,1.5-3.7,2.6c-1,1.1-1.8,2.4-2.4,3.9
				C644.2,238.4,644,240.1,644,241.8z"/>
			<path d="M706.8,246.4c0,2.1-0.3,3.9-1.1,5.5c-0.7,1.6-1.7,3.1-2.9,4.2c-1.2,1.1-2.7,2-4.3,2.7c-1.7,0.6-3.5,0.9-5.4,0.9
				s-3.8-0.3-5.4-0.9c-1.7-0.6-3.1-1.5-4.3-2.7c-1.2-1.1-2.2-2.6-2.9-4.2s-1-3.5-1-5.5v-21.5h6v21.3c0,1,0.1,2,0.4,2.9
				c0.3,1,0.7,1.9,1.3,2.6c0.6,0.8,1.4,1.4,2.3,1.9c1,0.5,2.2,0.7,3.6,0.7s2.7-0.2,3.6-0.7c1-0.5,1.8-1.1,2.3-1.9
				c0.6-0.8,1-1.6,1.3-2.6c0.3-1,0.4-2,0.4-2.9v-21.3h6L706.8,246.4L706.8,246.4z"/>
			<path d="M726,224.9h8l15.8,25.4h0.1v-25.4h6v34h-7.7l-16.1-26.3h-0.1v26.3h-6V224.9z"/>
			<path d="M763.5,224.9H786v5.3h-16.5v8.6h15.6v5.1h-15.6v9.6h17.3v5.4h-23.4V224.9z"/>
			<path d="M792.8,224.9h22.5v5.3h-16.5v8.6h15.6v5.1h-15.6v9.6h17.3v5.4h-23.4L792.8,224.9L792.8,224.9z"/>
			<path d="M822,224.9h12c2.2,0,4.4,0.3,6.7,0.9c2.2,0.6,4.3,1.5,6,2.9s3.2,3.1,4.4,5.2c1.1,2.2,1.7,4.8,1.7,8c0,3-0.6,5.5-1.7,7.7
				s-2.6,3.9-4.4,5.3c-1.8,1.4-3.8,2.4-6,3.1s-4.5,1-6.7,1h-12V224.9z M833.1,253.6c1.6,0,3.1-0.2,4.7-0.6c1.6-0.4,3-1,4.2-1.9
				c1.3-0.9,2.3-2.1,3.1-3.6c0.8-1.5,1.2-3.4,1.2-5.7c0-2.4-0.4-4.4-1.2-5.9c-0.8-1.5-1.8-2.7-3.1-3.6c-1.3-0.9-2.7-1.5-4.2-1.8
				c-1.6-0.3-3.1-0.5-4.7-0.5h-5v23.5H833.1z"/>
			<path d="M876.4,230.2H866v-5.3h26.9v5.3h-10.4v28.7h-6L876.4,230.2L876.4,230.2z"/>
			<path d="M893.8,241.8c0-2.7,0.5-5.2,1.4-7.4s2.2-4.1,3.8-5.6c1.6-1.5,3.5-2.7,5.8-3.6c2.2-0.8,4.7-1.2,7.3-1.2
				c2.7,0,5.1,0.4,7.3,1.2c2.2,0.8,4.2,2,5.8,3.6c1.6,1.5,2.9,3.4,3.8,5.6c0.9,2.2,1.4,4.6,1.4,7.4c0,2.7-0.5,5.1-1.4,7.3
				s-2.2,4.1-3.8,5.7s-3.6,2.8-5.8,3.7s-4.7,1.3-7.3,1.3c-2.6,0-5-0.4-7.3-1.3c-2.2-0.9-4.1-2.1-5.8-3.7c-1.6-1.6-2.9-3.5-3.8-5.7
				C894.2,246.9,893.8,244.5,893.8,241.8z M900.3,241.8c0,1.8,0.3,3.5,0.8,5s1.4,2.8,2.4,4s2.3,2,3.7,2.6s3,0.9,4.7,0.9
				s3.3-0.3,4.8-0.9c1.4-0.6,2.7-1.5,3.7-2.6s1.8-2.4,2.4-4s0.8-3.2,0.8-5c0-1.8-0.3-3.4-0.8-4.9c-0.6-1.5-1.3-2.8-2.4-3.9
				c-1-1.1-2.3-2-3.7-2.6s-3-1-4.8-1s-3.3,0.3-4.8,1c-1.4,0.6-2.7,1.5-3.7,2.6c-1,1.1-1.8,2.4-2.4,3.9
				C900.6,238.4,900.3,240.1,900.3,241.8z"/>
			<path d="M932.5,255.5c0-1,0.4-1.9,1.1-2.6s1.7-1.1,2.7-1.1c1,0,1.9,0.4,2.7,1.1c0.8,0.7,1.2,1.6,1.2,2.6s-0.4,1.9-1.1,2.6
				c-0.8,0.7-1.7,1.1-2.7,1.1c-0.5,0-1-0.1-1.5-0.3s-0.9-0.5-1.2-0.8c-0.3-0.3-0.6-0.7-0.8-1.1C932.6,256.5,932.5,256.1,932.5,255.5
				z"/>
		</g>
	</g>
</g>
<g id="Guides">
</g>
</svg>
