<?xml version="1.0" encoding="utf-8"?>
<!-- Generator: Adobe Illustrator 27.7.0, SVG Export Plug-In . SVG Version: 6.00 Build 0)  -->
<svg version="1.1" id="Layer_1" xmlns="http://www.w3.org/2000/svg" xmlns:xlink="http://www.w3.org/1999/xlink" x="0px" y="0px"
	 viewBox="0 0 1024 747" style="enable-background:new 0 0 1024 747;" xml:space="preserve">
<style type="text/css">
	.st0{fill:none;}
	.st1{fill:#FFFFFF;}
	.st2{fill:#76BC21;}
	.st3{fill:#0069A7;}
</style>
<g id="ART">
	<rect id="Bounding_Box" class="st0" width="1024" height="747"/>
	<g id="CTA_-_Learn_More">
		<g id="text">
			<path d="M823.5,389v-10.8h2.5v8.8h8.1v2H823.5z"/>
			<path d="M836.6,389v-10.8h11.1v1.8h-8.6v2.4h5v1.8h-5v2.7h8.7v2L836.6,389L836.6,389z"/>
			<path d="M849.1,389l6.1-10.8h2.4l6.2,10.8h-2.8l-1.3-2.4h-6.9l-1.3,2.4H849.1z M854,384.7h4.7l-2.3-4.4L854,384.7z"/>
			<path d="M866.1,389v-10.8h9.3c1.6,0,2.4,0.7,2.4,2.1v2.5c0,1.4-0.8,2.1-2.4,2.1H874l5,4.1h-3.6l-4.4-4.1h-2.4v4.1L866.1,389
				L866.1,389z M874.3,380h-5.7v3h5.7c0.4,0,0.7,0,0.8-0.1c0.2-0.1,0.3-0.4,0.3-0.7v-1.3c0-0.4-0.1-0.6-0.3-0.7
				C875,380.1,874.7,380,874.3,380z"/>
			<path d="M881.7,389v-10.8h1.7l7.6,6.4c0.5,0.5,1,0.9,1.2,1.2c-0.1-1-0.1-1.6-0.1-1.9v-5.7h2.3V389h-1.7l-8-6.7
				c-0.3-0.3-0.6-0.6-0.9-0.9c0.1,0.7,0.1,1.3,0.1,1.7v5.9L881.7,389L881.7,389z"/>
			<path d="M905.6,389v-10.8h2l5.1,6.6l5-6.6h2V389h-2.3v-6.7c0-0.3,0-0.6,0.1-1.2c-0.3,0.5-0.5,0.9-0.6,1.1l-4.1,5.4h-0.5l-4.1-5.4
				c-0.3-0.4-0.5-0.8-0.7-1.1c0,0.4,0.1,0.8,0.1,1.2v6.7L905.6,389L905.6,389z"/>
			<path d="M923.5,380.7c0-1,0.2-1.7,0.6-2c0.4-0.4,1.1-0.5,2.1-0.5h8c1,0,1.7,0.2,2.1,0.5s0.6,1,0.6,2v5.7c0,1-0.2,1.7-0.6,2
				c-0.4,0.4-1.1,0.5-2.1,0.5h-8c-1,0-1.7-0.2-2.1-0.5s-0.6-1-0.6-2V380.7z M926.1,387h8.3v-6.9h-8.3V387z"/>
			<path d="M941,389v-10.8h9.3c1.6,0,2.4,0.7,2.4,2.1v2.5c0,1.4-0.8,2.1-2.4,2.1h-1.4l5,4.1h-3.6l-4.4-4.1h-2.4v4.1L941,389L941,389
				z M949.1,380h-5.7v3h5.7c0.4,0,0.7,0,0.8-0.1c0.2-0.1,0.3-0.4,0.3-0.7v-1.3c0-0.4-0.1-0.6-0.3-0.7
				C949.8,380.1,949.5,380,949.1,380z"/>
			<path d="M956.5,389v-10.8h11.1v1.8h-8.6v2.4h5v1.8h-5v2.7h8.7v2L956.5,389L956.5,389z"/>
		</g>
		<polygon id="arrow" points="1006.3,383.5 979.1,378.1 979.1,389 		"/>
	</g>
	<g id="Body_Text">
		<g>
			<path d="M384.5,468.5h5.5c1,0,1.9,0.1,2.6,0.3c0.8,0.2,1.5,0.5,2,0.9c0.6,0.4,1,0.9,1.3,1.5s0.5,1.4,0.5,2.3
				c0,0.9-0.2,1.7-0.5,2.4c-0.4,0.6-0.8,1.2-1.4,1.5c-0.6,0.4-1.3,0.7-2.1,0.9c-0.8,0.2-1.6,0.3-2.5,0.3h-2.3v7h-3L384.5,468.5
				L384.5,468.5z M389.6,475.9c0.5,0,1,0,1.4-0.1s0.8-0.2,1.2-0.4c0.4-0.2,0.6-0.4,0.8-0.8c0.2-0.3,0.3-0.7,0.3-1.2
				c0-0.5-0.1-0.9-0.3-1.2c-0.2-0.3-0.5-0.6-0.8-0.7c-0.3-0.2-0.7-0.3-1.2-0.3c-0.4-0.1-0.9-0.1-1.4-0.1h-2.2v4.9L389.6,475.9
				L389.6,475.9z"/>
			<path d="M396.4,479.6c0-0.9,0.2-1.7,0.5-2.5s0.8-1.4,1.3-1.9c0.6-0.5,1.2-0.9,2-1.2s1.6-0.4,2.4-0.4c0.9,0,1.7,0.1,2.4,0.4
				s1.4,0.7,2,1.2c0.6,0.5,1,1.2,1.3,1.9s0.5,1.6,0.5,2.5s-0.2,1.7-0.5,2.5s-0.8,1.4-1.3,1.9s-1.2,1-2,1.3s-1.6,0.5-2.4,0.5
				c-0.9,0-1.7-0.2-2.4-0.5s-1.4-0.7-2-1.3s-1-1.2-1.3-1.9S396.4,480.6,396.4,479.6z M399.3,479.6c0,0.4,0.1,0.9,0.2,1.3
				c0.1,0.4,0.3,0.8,0.6,1.2s0.6,0.6,1,0.9c0.4,0.2,0.9,0.3,1.5,0.3c0.6,0,1.1-0.1,1.5-0.3c0.4-0.2,0.8-0.5,1-0.9s0.5-0.8,0.6-1.2
				c0.1-0.4,0.2-0.9,0.2-1.3s-0.1-0.9-0.2-1.3c-0.1-0.4-0.3-0.8-0.6-1.2s-0.6-0.6-1-0.9c-0.4-0.2-0.9-0.3-1.5-0.3
				c-0.6,0-1.1,0.1-1.5,0.3c-0.4,0.2-0.8,0.5-1,0.9c-0.3,0.4-0.5,0.7-0.6,1.2C399.4,478.8,399.3,479.2,399.3,479.6z"/>
			<path d="M409.7,473.9h3.1l2.4,8.3h0l2.5-8.3h3.1l2.5,8.3h0l2.4-8.3h3l-4,11.5h-2.9l-2.6-8.1h0l-2.6,8.1h-2.9L409.7,473.9z"/>
			<path d="M441.2,479.8c0,0.1,0,0.3,0,0.4s0,0.3,0,0.4h-8.8c0,0.4,0.1,0.8,0.3,1.1c0.2,0.3,0.4,0.6,0.7,0.9c0.3,0.2,0.6,0.4,1,0.6
				c0.4,0.1,0.8,0.2,1.2,0.2c0.7,0,1.3-0.1,1.8-0.4s0.9-0.6,1.2-1.1l1.9,1.5c-1.1,1.5-2.8,2.3-4.9,2.3c-0.9,0-1.7-0.1-2.5-0.4
				c-0.8-0.3-1.4-0.7-2-1.2s-1-1.1-1.3-1.9c-0.3-0.7-0.5-1.6-0.5-2.5c0-0.9,0.2-1.8,0.5-2.5s0.7-1.4,1.3-1.9c0.5-0.5,1.2-1,1.9-1.2
				c0.7-0.3,1.5-0.4,2.4-0.4c0.8,0,1.5,0.1,2.2,0.4c0.7,0.3,1.3,0.7,1.8,1.2c0.5,0.5,0.9,1.2,1.2,1.9
				C441.1,477.9,441.2,478.8,441.2,479.8z M438.4,478.5c0-0.4-0.1-0.7-0.2-1.1s-0.3-0.6-0.5-0.9s-0.5-0.5-0.9-0.6s-0.7-0.2-1.2-0.2
				c-0.9,0-1.6,0.3-2.2,0.8c-0.6,0.5-0.9,1.2-1,2L438.4,478.5L438.4,478.5z"/>
			<path d="M443.7,473.9h2.8v1.9h0c0.3-0.7,0.8-1.2,1.3-1.6s1.2-0.6,2-0.6c0.1,0,0.2,0,0.4,0s0.2,0,0.3,0.1v2.6
				c-0.2,0-0.4-0.1-0.5-0.1c-0.1,0-0.3,0-0.4,0c-0.7,0-1.2,0.1-1.6,0.4c-0.4,0.2-0.7,0.5-0.9,0.9s-0.4,0.7-0.5,1
				c-0.1,0.4-0.1,0.6-0.1,0.8v6.2h-2.9L443.7,473.9L443.7,473.9z"/>
			<path d="M462.6,479.8c0,0.1,0,0.3,0,0.4s0,0.3,0,0.4h-8.8c0,0.4,0.1,0.8,0.3,1.1c0.2,0.3,0.4,0.6,0.7,0.9c0.3,0.2,0.6,0.4,1,0.6
				c0.4,0.1,0.8,0.2,1.2,0.2c0.7,0,1.3-0.1,1.8-0.4s0.9-0.6,1.2-1.1l1.9,1.5c-1.1,1.5-2.8,2.3-4.9,2.3c-0.9,0-1.7-0.1-2.5-0.4
				c-0.8-0.3-1.4-0.7-2-1.2s-1-1.1-1.3-1.9c-0.3-0.7-0.5-1.6-0.5-2.5c0-0.9,0.2-1.8,0.5-2.5s0.7-1.4,1.3-1.9c0.5-0.5,1.2-1,1.9-1.2
				c0.7-0.3,1.5-0.4,2.4-0.4c0.8,0,1.5,0.1,2.2,0.4c0.7,0.3,1.3,0.7,1.8,1.2c0.5,0.5,0.9,1.2,1.2,1.9
				C462.5,477.9,462.6,478.8,462.6,479.8z M459.7,478.5c0-0.4-0.1-0.7-0.2-1.1s-0.3-0.6-0.5-0.9s-0.5-0.5-0.9-0.6s-0.7-0.2-1.2-0.2
				c-0.9,0-1.6,0.3-2.2,0.8c-0.6,0.5-0.9,1.2-1,2L459.7,478.5L459.7,478.5z"/>
			<path d="M476.7,485.5H474v-1.7h0c-0.4,0.7-1,1.2-1.7,1.5c-0.7,0.4-1.5,0.5-2.3,0.5c-0.9,0-1.7-0.2-2.4-0.5
				c-0.7-0.3-1.3-0.8-1.8-1.3c-0.5-0.6-0.9-1.2-1.1-1.9c-0.3-0.7-0.4-1.5-0.4-2.4s0.1-1.6,0.4-2.4s0.7-1.4,1.2-1.9s1.1-1,1.8-1.3
				c0.7-0.3,1.4-0.5,2.3-0.5c0.5,0,1,0.1,1.4,0.2s0.8,0.3,1.1,0.4s0.6,0.4,0.8,0.6c0.2,0.2,0.4,0.4,0.6,0.6h0.1v-8.1h2.9V485.5z
				 M467.3,479.6c0,0.4,0.1,0.9,0.2,1.3c0.1,0.4,0.3,0.8,0.6,1.2s0.6,0.6,1,0.9c0.4,0.2,0.9,0.3,1.5,0.3c0.5,0,1-0.1,1.4-0.3
				s0.8-0.5,1.1-0.9c0.3-0.4,0.5-0.7,0.7-1.2c0.2-0.4,0.2-0.9,0.2-1.3c0-0.4-0.1-0.9-0.2-1.3s-0.4-0.8-0.7-1.2
				c-0.3-0.4-0.7-0.6-1.1-0.9s-0.9-0.3-1.4-0.3c-0.6,0-1,0.1-1.5,0.3c-0.4,0.2-0.8,0.5-1,0.9c-0.3,0.4-0.5,0.7-0.6,1.2
				C467.3,478.8,467.3,479.2,467.3,479.6z"/>
			<path d="M488.4,467.3v8.1h0.1c0.1-0.2,0.3-0.4,0.6-0.6s0.5-0.4,0.8-0.6s0.7-0.3,1.1-0.4s0.9-0.2,1.4-0.2c0.8,0,1.6,0.2,2.3,0.5
				c0.7,0.3,1.3,0.7,1.8,1.3s0.9,1.2,1.2,1.9s0.4,1.5,0.4,2.4s-0.1,1.6-0.4,2.4s-0.6,1.4-1.1,1.9c-0.5,0.6-1.1,1-1.8,1.3
				c-0.7,0.3-1.5,0.5-2.4,0.5c-0.8,0-1.6-0.2-2.3-0.5c-0.7-0.4-1.3-0.9-1.7-1.5h0v1.7h-2.7v-18.1H488.4z M495,479.6
				c0-0.4-0.1-0.9-0.2-1.3c-0.1-0.4-0.3-0.8-0.6-1.2s-0.6-0.6-1-0.9c-0.4-0.2-0.9-0.3-1.5-0.3c-0.5,0-1,0.1-1.4,0.3
				c-0.4,0.2-0.8,0.5-1.1,0.9c-0.3,0.4-0.5,0.8-0.7,1.2s-0.2,0.9-0.2,1.3s0.1,0.9,0.2,1.3c0.2,0.4,0.4,0.8,0.7,1.2
				c0.3,0.4,0.7,0.6,1.1,0.9s0.9,0.3,1.4,0.3c0.6,0,1-0.1,1.5-0.3c0.4-0.2,0.8-0.5,1-0.9s0.5-0.8,0.6-1.2
				C495,480.5,495,480.1,495,479.6z"/>
			<path d="M498.7,473.9h3.2l3.2,8.4h0l2.9-8.4h3l-5.4,14c-0.2,0.5-0.4,1-0.7,1.4c-0.2,0.4-0.5,0.8-0.9,1s-0.7,0.5-1.2,0.6
				c-0.5,0.1-1,0.2-1.6,0.2c-0.2,0-0.5,0-0.7,0c-0.2,0-0.5-0.1-0.8-0.1l0.2-2.5c0.2,0.1,0.4,0.1,0.6,0.1c0.2,0,0.4,0,0.5,0
				c0.3,0,0.6,0,0.8-0.1s0.4-0.2,0.5-0.3c0.1-0.2,0.3-0.3,0.4-0.6s0.2-0.5,0.4-0.8l0.6-1.5L498.7,473.9z"/>
			<path d="M518,473.9h2.7v1.8h0c0.3-0.6,0.7-1.1,1.3-1.5c0.6-0.4,1.4-0.7,2.2-0.7c0.8,0,1.4,0.1,1.9,0.4c0.5,0.3,1,0.6,1.3,1
				c0.3,0.4,0.6,0.9,0.8,1.5c0.2,0.6,0.2,1.1,0.2,1.7v7.2h-2.9v-6.4c0-0.3,0-0.7-0.1-1.1s-0.2-0.7-0.3-1c-0.2-0.3-0.4-0.5-0.7-0.7
				c-0.3-0.2-0.7-0.3-1.1-0.3s-0.9,0.1-1.2,0.3s-0.6,0.4-0.8,0.7c-0.2,0.3-0.4,0.6-0.5,1c-0.1,0.4-0.2,0.8-0.2,1.1v6.3H518
				L518,473.9L518,473.9z"/>
			<path d="M538.8,484L538.8,484c-0.4,0.5-0.8,0.9-1.5,1.3c-0.6,0.3-1.4,0.5-2.2,0.5c-0.5,0-0.9-0.1-1.5-0.2s-1-0.3-1.4-0.6
				c-0.4-0.3-0.8-0.6-1.1-1.1c-0.3-0.5-0.4-1-0.4-1.7c0-0.9,0.2-1.6,0.7-2.1s1.1-0.9,1.9-1.2c0.8-0.3,1.6-0.5,2.6-0.5
				s1.9-0.1,2.7-0.1V478c0-0.7-0.3-1.3-0.8-1.6c-0.5-0.3-1.1-0.5-1.9-0.5c-0.6,0-1.2,0.1-1.8,0.4c-0.6,0.3-1,0.6-1.4,0.9l-1.5-1.8
				c0.7-0.6,1.4-1.1,2.3-1.4c0.9-0.3,1.7-0.5,2.6-0.5c1,0,1.9,0.1,2.5,0.4s1.2,0.7,1.6,1.1c0.4,0.5,0.7,1,0.8,1.6
				c0.2,0.6,0.2,1.2,0.2,1.7v7h-2.7L538.8,484L538.8,484z M538.7,480.2h-0.6c-0.5,0-1,0-1.5,0.1s-1,0.1-1.4,0.3
				c-0.4,0.1-0.8,0.3-1.1,0.6s-0.4,0.6-0.4,1c0,0.3,0.1,0.5,0.2,0.7c0.1,0.2,0.3,0.3,0.5,0.4c0.2,0.1,0.4,0.2,0.6,0.2
				s0.5,0.1,0.7,0.1c1,0,1.7-0.3,2.3-0.8c0.5-0.5,0.8-1.2,0.8-2.2L538.7,480.2L538.7,480.2z"/>
			<path d="M542.5,476.2v-2.3h2v-3.3h2.8v3.3h2.9v2.3h-2.9v5.4c0,0.5,0.1,0.9,0.3,1.3c0.2,0.3,0.6,0.5,1.2,0.5c0.2,0,0.4,0,0.6-0.1
				c0.2,0,0.4-0.1,0.6-0.2l0.1,2.3c-0.3,0.1-0.6,0.2-0.9,0.2c-0.4,0.1-0.7,0.1-1,0.1c-0.8,0-1.4-0.1-1.9-0.3
				c-0.5-0.2-0.9-0.5-1.1-0.9s-0.5-0.8-0.6-1.3c-0.1-0.5-0.2-1-0.2-1.6v-5.4H542.5z"/>
			<path d="M562.5,485.5h-2.7v-1.8h0c-0.3,0.6-0.7,1.1-1.3,1.5c-0.6,0.4-1.4,0.7-2.2,0.7c-0.8,0-1.4-0.1-1.9-0.4
				c-0.5-0.3-1-0.6-1.3-1c-0.3-0.4-0.6-0.9-0.8-1.5s-0.2-1.1-0.2-1.7v-7.2h2.9v6.4c0,0.3,0,0.7,0.1,1.1c0,0.4,0.2,0.7,0.3,1
				c0.2,0.3,0.4,0.5,0.7,0.7c0.3,0.2,0.7,0.3,1.1,0.3c0.4,0,0.8-0.1,1.2-0.3s0.6-0.4,0.8-0.7s0.4-0.6,0.5-1c0.1-0.4,0.2-0.8,0.2-1.1
				v-6.3h2.9L562.5,485.5L562.5,485.5z"/>
			<path d="M565.6,473.9h2.8v1.9h0c0.3-0.7,0.8-1.2,1.3-1.6s1.2-0.6,2-0.6c0.1,0,0.2,0,0.4,0s0.2,0,0.3,0.1v2.6
				c-0.2,0-0.4-0.1-0.5-0.1c-0.1,0-0.3,0-0.4,0c-0.7,0-1.2,0.1-1.6,0.4c-0.4,0.2-0.7,0.5-0.9,0.9c-0.2,0.3-0.4,0.7-0.5,1
				c-0.1,0.4-0.1,0.6-0.1,0.8v6.2h-2.9V473.9z"/>
			<path d="M584.5,479.8c0,0.1,0,0.3,0,0.4s0,0.3,0,0.4h-8.8c0,0.4,0.1,0.8,0.3,1.1c0.2,0.3,0.4,0.6,0.7,0.9c0.3,0.2,0.6,0.4,1,0.6
				c0.4,0.1,0.8,0.2,1.2,0.2c0.7,0,1.3-0.1,1.8-0.4s0.9-0.6,1.2-1.1l1.9,1.5c-1.1,1.5-2.8,2.3-4.9,2.3c-0.9,0-1.7-0.1-2.5-0.4
				c-0.8-0.3-1.4-0.7-2-1.2c-0.6-0.5-1-1.1-1.3-1.9c-0.3-0.7-0.5-1.6-0.5-2.5c0-0.9,0.2-1.8,0.5-2.5c0.3-0.8,0.7-1.4,1.3-1.9
				c0.5-0.5,1.2-1,1.9-1.2c0.7-0.3,1.5-0.4,2.4-0.4c0.8,0,1.5,0.1,2.2,0.4c0.7,0.3,1.3,0.7,1.8,1.2c0.5,0.5,0.9,1.2,1.2,1.9
				C584.4,477.9,584.5,478.8,584.5,479.8z M581.7,478.5c0-0.4-0.1-0.7-0.2-1.1s-0.3-0.6-0.5-0.9c-0.2-0.3-0.5-0.5-0.9-0.6
				s-0.7-0.2-1.2-0.2c-0.9,0-1.6,0.3-2.2,0.8c-0.6,0.5-0.9,1.2-1,2L581.7,478.5L581.7,478.5z"/>
			<path d="M587.5,482.1h2.8l-2,6.3h-2.4L587.5,482.1z"/>
			<path d="M597.1,479.6c0-0.9,0.2-1.7,0.5-2.5s0.8-1.4,1.3-1.9c0.6-0.5,1.2-0.9,2-1.2s1.6-0.4,2.4-0.4c0.9,0,1.7,0.1,2.4,0.4
				c0.8,0.3,1.4,0.7,2,1.2c0.6,0.5,1,1.2,1.3,1.9s0.5,1.6,0.5,2.5s-0.2,1.7-0.5,2.5s-0.8,1.4-1.3,1.9c-0.6,0.5-1.2,1-2,1.3
				c-0.8,0.3-1.6,0.5-2.4,0.5c-0.9,0-1.7-0.2-2.4-0.5c-0.8-0.3-1.4-0.7-2-1.3c-0.6-0.5-1-1.2-1.3-1.9S597.1,480.6,597.1,479.6z
				 M600,479.6c0,0.4,0.1,0.9,0.2,1.3c0.1,0.4,0.3,0.8,0.6,1.2s0.6,0.6,1,0.9c0.4,0.2,0.9,0.3,1.5,0.3s1.1-0.1,1.5-0.3
				c0.4-0.2,0.8-0.5,1-0.9s0.5-0.8,0.6-1.2c0.1-0.4,0.2-0.9,0.2-1.3s-0.1-0.9-0.2-1.3c-0.1-0.4-0.3-0.8-0.6-1.2s-0.6-0.6-1-0.9
				s-0.9-0.3-1.5-0.3s-1.1,0.1-1.5,0.3s-0.8,0.5-1,0.9c-0.3,0.4-0.5,0.7-0.6,1.2C600.1,478.8,600,479.2,600,479.6z"/>
			<path d="M622.6,485.5h-2.7v-1.8h0c-0.3,0.6-0.7,1.1-1.3,1.5c-0.6,0.4-1.4,0.7-2.2,0.7c-0.8,0-1.4-0.1-1.9-0.4
				c-0.5-0.3-1-0.6-1.3-1c-0.3-0.4-0.6-0.9-0.8-1.5s-0.2-1.1-0.2-1.7v-7.2h2.9v6.4c0,0.3,0,0.7,0.1,1.1c0,0.4,0.2,0.7,0.3,1
				c0.2,0.3,0.4,0.5,0.7,0.7c0.3,0.2,0.7,0.3,1.1,0.3c0.4,0,0.8-0.1,1.2-0.3s0.6-0.4,0.8-0.7s0.4-0.6,0.5-1c0.1-0.4,0.2-0.8,0.2-1.1
				v-6.3h2.9L622.6,485.5L622.6,485.5z"/>
			<path d="M625.7,473.9h2.8v1.9h0c0.3-0.7,0.8-1.2,1.3-1.6s1.2-0.6,2-0.6c0.1,0,0.2,0,0.4,0s0.2,0,0.3,0.1v2.6
				c-0.2,0-0.4-0.1-0.5-0.1c-0.1,0-0.3,0-0.4,0c-0.7,0-1.2,0.1-1.6,0.4c-0.4,0.2-0.7,0.5-0.9,0.9c-0.2,0.3-0.4,0.7-0.5,1
				c-0.1,0.4-0.1,0.6-0.1,0.8v6.2h-2.9V473.9z"/>
			<path d="M642.6,467.3v8.1h0.1c0.1-0.2,0.3-0.4,0.6-0.6c0.2-0.2,0.5-0.4,0.8-0.6s0.7-0.3,1.1-0.4s0.9-0.2,1.4-0.2
				c0.8,0,1.6,0.2,2.3,0.5c0.7,0.3,1.3,0.7,1.8,1.3s0.9,1.2,1.2,1.9c0.3,0.7,0.4,1.5,0.4,2.4s-0.1,1.6-0.4,2.4s-0.6,1.4-1.1,1.9
				c-0.5,0.6-1.1,1-1.8,1.3c-0.7,0.3-1.5,0.5-2.4,0.5c-0.8,0-1.6-0.2-2.3-0.5c-0.7-0.4-1.3-0.9-1.7-1.5h0v1.7h-2.7v-18.1H642.6z
				 M649.2,479.6c0-0.4-0.1-0.9-0.2-1.3s-0.3-0.8-0.6-1.2c-0.3-0.4-0.6-0.6-1-0.9s-0.9-0.3-1.5-0.3c-0.5,0-1,0.1-1.4,0.3
				c-0.4,0.2-0.8,0.5-1.1,0.9c-0.3,0.4-0.5,0.8-0.7,1.2c-0.2,0.4-0.2,0.9-0.2,1.3s0.1,0.9,0.2,1.3c0.2,0.4,0.4,0.8,0.7,1.2
				c0.3,0.4,0.7,0.6,1.1,0.9c0.4,0.2,0.9,0.3,1.4,0.3c0.6,0,1-0.1,1.5-0.3c0.4-0.2,0.8-0.5,1-0.9c0.3-0.4,0.5-0.8,0.6-1.2
				C649.1,480.5,649.2,480.1,649.2,479.6z"/>
			<path d="M653.9,479.6c0-0.9,0.2-1.7,0.5-2.5s0.8-1.4,1.3-1.9c0.6-0.5,1.2-0.9,2-1.2s1.6-0.4,2.4-0.4c0.9,0,1.7,0.1,2.4,0.4
				c0.8,0.3,1.4,0.7,2,1.2c0.6,0.5,1,1.2,1.3,1.9s0.5,1.6,0.5,2.5s-0.2,1.7-0.5,2.5s-0.8,1.4-1.3,1.9c-0.6,0.5-1.2,1-2,1.3
				c-0.8,0.3-1.6,0.5-2.4,0.5c-0.9,0-1.7-0.2-2.4-0.5c-0.8-0.3-1.4-0.7-2-1.3c-0.6-0.5-1-1.2-1.3-1.9S653.9,480.6,653.9,479.6z
				 M656.8,479.6c0,0.4,0.1,0.9,0.2,1.3c0.1,0.4,0.3,0.8,0.6,1.2s0.6,0.6,1,0.9c0.4,0.2,0.9,0.3,1.5,0.3s1.1-0.1,1.5-0.3
				c0.4-0.2,0.8-0.5,1-0.9s0.5-0.8,0.6-1.2c0.1-0.4,0.2-0.9,0.2-1.3s-0.1-0.9-0.2-1.3c-0.1-0.4-0.3-0.8-0.6-1.2s-0.6-0.6-1-0.9
				s-0.9-0.3-1.5-0.3s-1.1,0.1-1.5,0.3s-0.8,0.5-1,0.9c-0.3,0.4-0.5,0.7-0.6,1.2C656.9,478.8,656.8,479.2,656.8,479.6z"/>
			<path d="M667.2,476.2v-2.3h2v-3.3h2.8v3.3h2.9v2.3H672v5.4c0,0.5,0.1,0.9,0.3,1.3c0.2,0.3,0.6,0.5,1.2,0.5c0.2,0,0.4,0,0.6-0.1
				c0.2,0,0.4-0.1,0.6-0.2l0.1,2.3c-0.3,0.1-0.6,0.2-0.9,0.2c-0.4,0.1-0.7,0.1-1,0.1c-0.8,0-1.4-0.1-1.9-0.3
				c-0.5-0.2-0.9-0.5-1.1-0.9s-0.5-0.8-0.6-1.3c-0.1-0.5-0.2-1-0.2-1.6v-5.4H667.2z"/>
			<path d="M683.8,484L683.8,484c-0.4,0.5-0.8,0.9-1.5,1.3c-0.6,0.3-1.4,0.5-2.2,0.5c-0.5,0-0.9-0.1-1.5-0.2s-1-0.3-1.4-0.6
				c-0.4-0.3-0.8-0.6-1.1-1.1c-0.3-0.5-0.4-1-0.4-1.7c0-0.9,0.2-1.6,0.7-2.1s1.1-0.9,1.9-1.2c0.8-0.3,1.6-0.5,2.6-0.5
				s1.9-0.1,2.7-0.1V478c0-0.7-0.3-1.3-0.8-1.6c-0.5-0.3-1.1-0.5-1.9-0.5c-0.6,0-1.2,0.1-1.8,0.4c-0.6,0.3-1,0.6-1.4,0.9l-1.5-1.8
				c0.7-0.6,1.4-1.1,2.3-1.4c0.9-0.3,1.7-0.5,2.6-0.5c1,0,1.9,0.1,2.5,0.4s1.2,0.7,1.6,1.1c0.4,0.5,0.7,1,0.8,1.6
				c0.2,0.6,0.2,1.2,0.2,1.7v7h-2.7L683.8,484L683.8,484z M683.7,480.2h-0.6c-0.5,0-1,0-1.5,0.1s-1,0.1-1.4,0.3
				c-0.4,0.1-0.8,0.3-1.1,0.6s-0.4,0.6-0.4,1c0,0.3,0.1,0.5,0.2,0.7c0.1,0.2,0.3,0.3,0.5,0.4c0.2,0.1,0.4,0.2,0.6,0.2
				s0.5,0.1,0.7,0.1c1,0,1.7-0.3,2.3-0.8c0.5-0.5,0.8-1.2,0.8-2.2L683.7,480.2L683.7,480.2z"/>
			<path d="M689.5,473.9h2.7v1.8h0c0.3-0.6,0.7-1.1,1.3-1.5c0.6-0.4,1.4-0.7,2.2-0.7c0.8,0,1.4,0.1,1.9,0.4c0.5,0.3,1,0.6,1.3,1
				c0.3,0.4,0.6,0.9,0.8,1.5c0.2,0.6,0.2,1.1,0.2,1.7v7.2h-2.9v-6.4c0-0.3,0-0.7-0.1-1.1s-0.2-0.7-0.3-1c-0.2-0.3-0.4-0.5-0.7-0.7
				c-0.3-0.2-0.7-0.3-1.1-0.3s-0.9,0.1-1.2,0.3s-0.6,0.4-0.8,0.7c-0.2,0.3-0.4,0.6-0.5,1c-0.1,0.4-0.2,0.8-0.2,1.1v6.3h-2.9
				L689.5,473.9L689.5,473.9z"/>
			<path d="M702.7,470c0-0.5,0.2-0.9,0.5-1.2s0.8-0.5,1.3-0.5c0.5,0,1,0.2,1.3,0.5c0.4,0.3,0.5,0.7,0.5,1.2s-0.2,0.9-0.5,1.2
				c-0.4,0.3-0.8,0.5-1.3,0.5c-0.5,0-1-0.2-1.3-0.5S702.7,470.5,702.7,470z M703.1,473.9h2.9v11.5h-2.9V473.9z"/>
			<path d="M717,477.1c-0.2-0.3-0.6-0.6-1-0.8s-0.9-0.3-1.4-0.3c-0.5,0-1,0.1-1.4,0.3s-0.7,0.5-1,0.9c-0.3,0.4-0.5,0.7-0.6,1.2
				s-0.2,0.9-0.2,1.3c0,0.4,0.1,0.9,0.2,1.3c0.1,0.4,0.3,0.8,0.6,1.2c0.3,0.4,0.6,0.6,1,0.9s0.9,0.3,1.4,0.3c0.4,0,0.9-0.1,1.3-0.3
				c0.4-0.2,0.8-0.4,1.1-0.8l1.8,1.8c-0.5,0.5-1.1,0.9-1.8,1.2s-1.5,0.4-2.4,0.4c-0.8,0-1.7-0.1-2.4-0.4c-0.8-0.3-1.4-0.7-2-1.2
				c-0.6-0.5-1-1.2-1.3-1.9s-0.5-1.6-0.5-2.6c0-0.9,0.2-1.8,0.5-2.5s0.8-1.4,1.3-1.9c0.6-0.5,1.2-0.9,2-1.2s1.5-0.4,2.4-0.4
				c0.8,0,1.7,0.2,2.5,0.5c0.8,0.3,1.4,0.8,1.9,1.3L717,477.1z"/>
			<path d="M727.7,484L727.7,484c-0.4,0.5-0.8,0.9-1.5,1.3c-0.6,0.3-1.4,0.5-2.2,0.5c-0.5,0-0.9-0.1-1.5-0.2s-1-0.3-1.4-0.6
				c-0.4-0.3-0.8-0.6-1.1-1.1c-0.3-0.5-0.4-1-0.4-1.7c0-0.9,0.2-1.6,0.7-2.1s1.1-0.9,1.9-1.2c0.8-0.3,1.6-0.5,2.6-0.5
				s1.9-0.1,2.7-0.1V478c0-0.7-0.3-1.3-0.8-1.6c-0.5-0.3-1.1-0.5-1.9-0.5c-0.6,0-1.2,0.1-1.8,0.4c-0.6,0.3-1,0.6-1.4,0.9l-1.5-1.8
				c0.7-0.6,1.4-1.1,2.3-1.4c0.9-0.3,1.7-0.5,2.6-0.5c1,0,1.9,0.1,2.5,0.4s1.2,0.7,1.6,1.1c0.4,0.5,0.7,1,0.8,1.6
				c0.2,0.6,0.2,1.2,0.2,1.7v7h-2.7L727.7,484L727.7,484z M727.6,480.2H727c-0.5,0-1,0-1.5,0.1s-1,0.1-1.4,0.3
				c-0.4,0.1-0.8,0.3-1.1,0.6s-0.4,0.6-0.4,1c0,0.3,0.1,0.5,0.2,0.7c0.1,0.2,0.3,0.3,0.5,0.4c0.2,0.1,0.4,0.2,0.6,0.2
				s0.5,0.1,0.7,0.1c1,0,1.7-0.3,2.3-0.8c0.5-0.5,0.8-1.2,0.8-2.2L727.6,480.2L727.6,480.2z"/>
			<path d="M733.4,467.3h2.9v18.1h-2.9V467.3z"/>
			<path d="M739.9,482.1h2.8l-2,6.3h-2.4L739.9,482.1z"/>
			<path d="M387,521.3h8.9v2.1h-11.3v-17h10.9v2.1H387v5.1h8v2h-8V521.3z"/>
			<path d="M398.7,506.5h5.2c0.9,0,1.7,0.1,2.5,0.3c0.8,0.2,1.4,0.5,1.9,0.9c0.5,0.4,0.9,0.9,1.2,1.5c0.3,0.6,0.4,1.3,0.4,2.1
				c0,0.8-0.2,1.6-0.5,2.2c-0.3,0.6-0.7,1.1-1.3,1.5s-1.2,0.7-2,0.9c-0.8,0.2-1.6,0.3-2.5,0.3h-2.7v7.5h-2.4L398.7,506.5
				L398.7,506.5z M401.1,514h2.5c0.6,0,1.1-0.1,1.6-0.2s0.9-0.3,1.3-0.5c0.4-0.2,0.6-0.5,0.8-0.9c0.2-0.4,0.3-0.8,0.3-1.3
				s-0.1-0.9-0.3-1.3c-0.2-0.3-0.5-0.6-0.8-0.8c-0.3-0.2-0.8-0.4-1.2-0.5s-1-0.1-1.6-0.1h-2.6L401.1,514L401.1,514z"/>
			<path d="M411.9,523.5h-2.6l7.4-17h2.2l7.3,17h-2.7l-1.7-4.2h-8.1L411.9,523.5z M414.4,517.2h6.4l-3.2-8L414.4,517.2z"/>
			<path d="M432.5,518.6h-5.6v-1.9h5.6V518.6z"/>
			<path d="M435.1,513.4c0-0.5,0-0.9-0.1-1.3h2.1c0,0.3,0.1,0.6,0.1,1s0,0.7,0,0.9h0.1c0.3-0.7,0.8-1.2,1.4-1.6
				c0.6-0.4,1.3-0.6,2.1-0.6c0.4,0,0.6,0,0.9,0.1l-0.1,2.1c-0.3-0.1-0.7-0.1-1-0.1c-0.5,0-1,0.1-1.4,0.3c-0.4,0.2-0.7,0.5-1,0.8
				s-0.5,0.7-0.6,1.2c-0.1,0.4-0.2,0.9-0.2,1.4v6h-2.3v-8.9C435.1,514.2,435.1,513.8,435.1,513.4z"/>
			<path d="M453.6,517.7c0,0.1,0,0.3,0,0.4s0,0.3,0,0.4h-9c0,0.5,0.1,0.9,0.3,1.3c0.2,0.4,0.5,0.8,0.8,1.1c0.3,0.3,0.7,0.6,1.2,0.7
				s0.9,0.3,1.4,0.3c0.8,0,1.4-0.2,2-0.5s1-0.7,1.3-1.2l1.6,1.3c-0.6,0.8-1.3,1.4-2.1,1.8c-0.8,0.4-1.7,0.6-2.7,0.6
				c-0.9,0-1.7-0.1-2.4-0.4s-1.4-0.7-1.9-1.2c-0.5-0.5-0.9-1.1-1.2-1.9c-0.3-0.7-0.5-1.6-0.5-2.4c0-0.9,0.1-1.7,0.4-2.4
				c0.3-0.7,0.7-1.4,1.2-1.9c0.5-0.5,1.2-0.9,1.9-1.2c0.7-0.3,1.5-0.4,2.3-0.4c0.8,0,1.6,0.1,2.3,0.4c0.7,0.3,1.3,0.7,1.7,1.2
				c0.5,0.5,0.8,1.1,1.1,1.9C453.5,515.9,453.6,516.8,453.6,517.7z M451.3,516.8c0-0.4-0.1-0.9-0.2-1.3c-0.1-0.4-0.3-0.7-0.6-1
				c-0.3-0.3-0.6-0.5-1-0.7s-0.9-0.3-1.4-0.3c-0.5,0-0.9,0.1-1.4,0.3c-0.4,0.2-0.8,0.4-1.1,0.7s-0.6,0.6-0.8,1
				c-0.2,0.4-0.3,0.8-0.3,1.3H451.3z"/>
			<path d="M457.3,525.4c0.5,0.6,1.1,1,1.9,1.3s1.5,0.5,2.3,0.5c0.8,0,1.4-0.1,1.9-0.3c0.5-0.2,0.9-0.5,1.2-0.9s0.5-0.8,0.7-1.3
				c0.1-0.5,0.2-1.1,0.2-1.7v-1.5h0c-0.4,0.6-1,1.1-1.7,1.5c-0.7,0.3-1.5,0.5-2.3,0.5c-0.9,0-1.7-0.2-2.4-0.5s-1.3-0.7-1.8-1.2
				c-0.5-0.5-0.9-1.1-1.2-1.9s-0.4-1.5-0.4-2.3s0.1-1.6,0.4-2.3c0.3-0.7,0.7-1.3,1.2-1.9c0.5-0.5,1.1-1,1.8-1.3
				c0.7-0.3,1.5-0.5,2.4-0.5c0.8,0,1.6,0.2,2.3,0.5c0.7,0.4,1.3,0.9,1.8,1.6h0v-1.8h2.2v10.8c0,0.8-0.1,1.6-0.3,2.4
				c-0.2,0.8-0.6,1.4-1.1,2s-1.1,1.1-1.9,1.4s-1.8,0.5-3,0.5c-1,0-2-0.2-3-0.5c-1-0.4-1.9-0.9-2.6-1.5L457.3,525.4z M457.9,517.6
				c0,0.5,0.1,1,0.3,1.5c0.2,0.5,0.4,0.9,0.7,1.3s0.7,0.7,1.2,0.9c0.5,0.2,1,0.3,1.6,0.3c0.6,0,1.1-0.1,1.6-0.3s0.9-0.5,1.2-0.9
				s0.6-0.8,0.8-1.3s0.3-1,0.3-1.6c0-0.5-0.1-1.1-0.3-1.5s-0.4-0.9-0.8-1.3c-0.3-0.4-0.8-0.7-1.2-0.9c-0.5-0.2-1-0.3-1.6-0.3
				c-0.6,0-1.1,0.1-1.6,0.3c-0.5,0.2-0.9,0.5-1.2,0.9c-0.3,0.4-0.6,0.8-0.7,1.3C458,516.6,457.9,517.1,457.9,517.6z"/>
			<path d="M473.8,508c0,0.4-0.1,0.8-0.4,1c-0.3,0.3-0.6,0.4-1.1,0.4s-0.8-0.1-1-0.4c-0.3-0.3-0.4-0.6-0.4-1c0-0.4,0.1-0.8,0.4-1
				s0.6-0.4,1-0.4s0.8,0.1,1.1,0.4C473.7,507.2,473.8,507.6,473.8,508z M473.5,523.5h-2.3v-11.4h2.3V523.5z"/>
			<path d="M483.2,515c-0.3-0.4-0.6-0.8-1.1-1s-1-0.4-1.6-0.4c-0.3,0-0.5,0-0.8,0.1c-0.3,0.1-0.5,0.1-0.7,0.3
				c-0.2,0.1-0.4,0.3-0.5,0.5c-0.1,0.2-0.2,0.4-0.2,0.7c0,0.5,0.2,0.8,0.6,1.1c0.4,0.2,1.1,0.4,1.9,0.6c0.5,0.1,1,0.3,1.5,0.5
				c0.5,0.2,0.9,0.4,1.2,0.7s0.6,0.6,0.8,0.9s0.3,0.8,0.3,1.3c0,0.7-0.1,1.2-0.4,1.7c-0.3,0.5-0.6,0.8-1,1.1s-0.9,0.5-1.5,0.6
				s-1.1,0.2-1.7,0.2c-0.9,0-1.7-0.2-2.5-0.5s-1.5-0.8-2.1-1.5l1.6-1.4c0.3,0.4,0.7,0.8,1.3,1.1s1.1,0.5,1.8,0.5
				c0.3,0,0.6,0,0.8-0.1c0.3-0.1,0.5-0.1,0.7-0.3c0.2-0.1,0.4-0.3,0.5-0.5s0.2-0.5,0.2-0.8c0-0.5-0.3-0.9-0.8-1.2s-1.2-0.5-2.2-0.7
				c-0.4-0.1-0.8-0.2-1.2-0.3c-0.4-0.1-0.7-0.3-1.1-0.6s-0.6-0.5-0.8-0.9c-0.2-0.4-0.3-0.8-0.3-1.3c0-0.6,0.1-1.1,0.4-1.6
				c0.2-0.4,0.6-0.8,1-1.1c0.4-0.3,0.9-0.5,1.4-0.6c0.5-0.1,1-0.2,1.6-0.2c0.8,0,1.6,0.2,2.4,0.5c0.8,0.3,1.3,0.8,1.8,1.4L483.2,515
				z"/>
			<path d="M492.9,513.9h-3v5.9c0,0.7,0.1,1.2,0.4,1.5s0.7,0.4,1.2,0.4c0.2,0,0.4,0,0.7-0.1s0.5-0.1,0.6-0.2l0.1,1.8
				c-0.3,0.1-0.6,0.2-0.9,0.2c-0.3,0.1-0.7,0.1-1,0.1c-1.1,0-1.9-0.3-2.5-0.9s-0.9-1.5-0.9-2.7v-6.2h-2.2v-1.8h2.2v-3.3h2.2v3.3h3
				L492.9,513.9L492.9,513.9z"/>
			<path d="M505.5,517.7c0,0.1,0,0.3,0,0.4s0,0.3,0,0.4h-9c0,0.5,0.1,0.9,0.3,1.3c0.2,0.4,0.5,0.8,0.8,1.1c0.3,0.3,0.7,0.6,1.2,0.7
				s0.9,0.3,1.4,0.3c0.8,0,1.4-0.2,2-0.5s1-0.7,1.3-1.2l1.6,1.3c-0.6,0.8-1.3,1.4-2.1,1.8c-0.8,0.4-1.7,0.6-2.7,0.6
				c-0.9,0-1.7-0.1-2.4-0.4s-1.4-0.7-1.9-1.2c-0.5-0.5-0.9-1.1-1.2-1.9c-0.3-0.7-0.5-1.6-0.5-2.4c0-0.9,0.1-1.7,0.4-2.4
				c0.3-0.7,0.7-1.4,1.2-1.9c0.5-0.5,1.2-0.9,1.9-1.2c0.7-0.3,1.5-0.4,2.3-0.4c0.8,0,1.6,0.1,2.3,0.4c0.7,0.3,1.3,0.7,1.7,1.2
				c0.5,0.5,0.8,1.1,1.1,1.9C505.4,515.9,505.5,516.8,505.5,517.7z M503.2,516.8c0-0.4-0.1-0.9-0.2-1.3c-0.1-0.4-0.3-0.7-0.6-1
				c-0.3-0.3-0.6-0.5-1-0.7s-0.9-0.3-1.4-0.3c-0.5,0-0.9,0.1-1.4,0.3c-0.4,0.2-0.8,0.4-1.1,0.7s-0.6,0.6-0.8,1
				c-0.2,0.4-0.3,0.8-0.3,1.3H503.2z"/>
			<path d="M508.2,513.4c0-0.5,0-0.9-0.1-1.3h2.1c0,0.3,0.1,0.6,0.1,1s0,0.7,0,0.9h0.1c0.3-0.7,0.8-1.2,1.4-1.6
				c0.6-0.4,1.3-0.6,2.1-0.6c0.4,0,0.6,0,0.9,0.1l-0.1,2.1c-0.3-0.1-0.7-0.1-1-0.1c-0.5,0-1,0.1-1.4,0.3c-0.4,0.2-0.7,0.5-1,0.8
				s-0.5,0.7-0.6,1.2c-0.1,0.4-0.2,0.9-0.2,1.4v6h-2.3v-8.9C508.3,514.2,508.3,513.8,508.2,513.4z"/>
			<path d="M526.8,517.7c0,0.1,0,0.3,0,0.4s0,0.3,0,0.4h-9c0,0.5,0.1,0.9,0.3,1.3s0.5,0.8,0.8,1.1c0.3,0.3,0.7,0.6,1.2,0.7
				s0.9,0.3,1.4,0.3c0.8,0,1.4-0.2,2-0.5s1-0.7,1.3-1.2l1.6,1.3c-0.6,0.8-1.3,1.4-2.1,1.8c-0.8,0.4-1.7,0.6-2.7,0.6
				c-0.9,0-1.7-0.1-2.4-0.4s-1.4-0.7-1.9-1.2c-0.5-0.5-0.9-1.1-1.2-1.9c-0.3-0.7-0.5-1.6-0.5-2.4c0-0.9,0.1-1.7,0.4-2.4
				s0.7-1.4,1.2-1.9c0.5-0.5,1.2-0.9,1.9-1.2c0.7-0.3,1.5-0.4,2.3-0.4c0.8,0,1.6,0.1,2.3,0.4c0.7,0.3,1.3,0.7,1.7,1.2
				c0.5,0.5,0.8,1.1,1.1,1.9C526.7,515.9,526.8,516.8,526.8,517.7z M524.5,516.8c0-0.4-0.1-0.9-0.2-1.3c-0.1-0.4-0.3-0.7-0.6-1
				c-0.3-0.3-0.6-0.5-1-0.7c-0.4-0.2-0.9-0.3-1.4-0.3c-0.5,0-0.9,0.1-1.4,0.3s-0.8,0.4-1.1,0.7c-0.3,0.3-0.6,0.6-0.8,1
				c-0.2,0.4-0.3,0.8-0.3,1.3H524.5z"/>
			<path d="M538.6,521.7c-0.4,0.7-1,1.2-1.8,1.6c-0.7,0.4-1.5,0.5-2.3,0.5c-0.9,0-1.7-0.2-2.4-0.5s-1.3-0.7-1.8-1.3
				c-0.5-0.5-0.9-1.2-1.2-1.9c-0.3-0.7-0.4-1.5-0.4-2.4s0.1-1.6,0.4-2.3c0.3-0.7,0.7-1.4,1.2-1.9s1.1-1,1.8-1.3s1.5-0.5,2.3-0.5
				c0.9,0,1.7,0.2,2.4,0.6c0.7,0.4,1.2,0.9,1.6,1.4h0v-8.5h2.3v18.1h-2.2L538.6,521.7L538.6,521.7L538.6,521.7z M531.1,517.8
				c0,0.5,0.1,1,0.2,1.5s0.4,0.9,0.7,1.3c0.3,0.4,0.7,0.7,1.2,0.9s1,0.3,1.6,0.3c0.6,0,1.1-0.1,1.6-0.3c0.5-0.2,0.9-0.5,1.2-0.9
				s0.6-0.8,0.8-1.3s0.3-1,0.3-1.6c0-0.5-0.1-1.1-0.3-1.6c-0.2-0.5-0.4-0.9-0.8-1.3s-0.7-0.7-1.2-0.9c-0.5-0.2-1-0.3-1.6-0.3
				c-0.6,0-1.2,0.1-1.6,0.3c-0.5,0.2-0.9,0.5-1.2,0.9s-0.6,0.8-0.7,1.3C531.2,516.7,531.1,517.2,531.1,517.8z"/>
			<path d="M552.6,521.3h7.6v2.1h-10v-17h2.4L552.6,521.3L552.6,521.3z"/>
			<path d="M564.6,508c0,0.4-0.1,0.8-0.4,1c-0.3,0.3-0.6,0.4-1.1,0.4s-0.8-0.1-1-0.4c-0.3-0.3-0.4-0.6-0.4-1c0-0.4,0.1-0.8,0.4-1
				c0.3-0.3,0.6-0.4,1-0.4s0.8,0.1,1.1,0.4C564.5,507.2,564.6,507.6,564.6,508z M564.3,523.5H562v-11.4h2.3V523.5z"/>
			<path d="M574,515c-0.3-0.4-0.6-0.8-1.1-1s-1-0.4-1.6-0.4c-0.3,0-0.5,0-0.8,0.1c-0.3,0.1-0.5,0.1-0.7,0.3s-0.4,0.3-0.5,0.5
				c-0.1,0.2-0.2,0.4-0.2,0.7c0,0.5,0.2,0.8,0.6,1.1c0.4,0.2,1.1,0.4,1.9,0.6c0.5,0.1,1,0.3,1.5,0.5c0.5,0.2,0.9,0.4,1.2,0.7
				c0.3,0.3,0.6,0.6,0.8,0.9s0.3,0.8,0.3,1.3c0,0.7-0.1,1.2-0.4,1.7c-0.3,0.5-0.6,0.8-1,1.1s-0.9,0.5-1.5,0.6s-1.1,0.2-1.7,0.2
				c-0.9,0-1.7-0.2-2.5-0.5s-1.5-0.8-2.1-1.5l1.6-1.4c0.3,0.4,0.7,0.8,1.3,1.1s1.1,0.5,1.8,0.5c0.3,0,0.6,0,0.8-0.1
				c0.3-0.1,0.5-0.1,0.7-0.3c0.2-0.1,0.4-0.3,0.5-0.5c0.1-0.2,0.2-0.5,0.2-0.8c0-0.5-0.3-0.9-0.8-1.2s-1.2-0.5-2.2-0.7
				c-0.4-0.1-0.8-0.2-1.2-0.3c-0.4-0.1-0.7-0.3-1.1-0.6s-0.6-0.5-0.8-0.9c-0.2-0.4-0.3-0.8-0.3-1.3c0-0.6,0.1-1.1,0.4-1.6
				c0.2-0.4,0.6-0.8,1-1.1c0.4-0.3,0.9-0.5,1.4-0.6c0.5-0.1,1-0.2,1.6-0.2c0.8,0,1.6,0.2,2.4,0.5c0.8,0.3,1.3,0.8,1.8,1.4L574,515z"
				/>
			<path d="M583.7,513.9h-3v5.9c0,0.7,0.1,1.2,0.4,1.5s0.7,0.4,1.2,0.4c0.2,0,0.4,0,0.7-0.1c0.2,0,0.5-0.1,0.6-0.2l0.1,1.8
				c-0.3,0.1-0.6,0.2-0.9,0.2c-0.3,0.1-0.7,0.1-1,0.1c-1.1,0-1.9-0.3-2.5-0.9c-0.6-0.6-0.9-1.5-0.9-2.7v-6.2h-2.2v-1.8h2.2v-3.3h2.2
				v3.3h3L583.7,513.9L583.7,513.9z"/>
			<path d="M603.4,520L603.4,520l0-13.6h2.4v17h-3l-9-13.9h0v13.9h-2.4v-17h3.1L603.4,520z"/>
			<path d="M624.2,521.7c-0.4,0.7-1,1.2-1.8,1.6c-0.7,0.4-1.5,0.5-2.3,0.5c-0.9,0-1.7-0.2-2.4-0.5s-1.3-0.7-1.8-1.3
				c-0.5-0.5-0.9-1.2-1.2-1.9c-0.3-0.7-0.4-1.5-0.4-2.4s0.1-1.6,0.4-2.3c0.3-0.7,0.7-1.4,1.2-1.9s1.1-1,1.8-1.3s1.5-0.5,2.3-0.5
				c0.9,0,1.7,0.2,2.4,0.6c0.7,0.4,1.2,0.9,1.6,1.4h0v-8.5h2.3v18.1h-2.2L624.2,521.7L624.2,521.7L624.2,521.7z M616.7,517.8
				c0,0.5,0.1,1,0.2,1.5s0.4,0.9,0.7,1.3c0.3,0.4,0.7,0.7,1.2,0.9s1,0.3,1.6,0.3c0.6,0,1.1-0.1,1.6-0.3c0.5-0.2,0.9-0.5,1.2-0.9
				s0.6-0.8,0.8-1.3s0.3-1,0.3-1.6c0-0.5-0.1-1.1-0.3-1.6c-0.2-0.5-0.4-0.9-0.8-1.3s-0.7-0.7-1.2-0.9c-0.5-0.2-1-0.3-1.6-0.3
				c-0.6,0-1.2,0.1-1.6,0.3c-0.5,0.2-0.9,0.5-1.2,0.9s-0.6,0.8-0.7,1.3C616.8,516.7,616.7,517.2,616.7,517.8z"/>
			<path d="M632.6,508c0,0.4-0.1,0.8-0.4,1c-0.3,0.3-0.6,0.4-1.1,0.4s-0.8-0.1-1-0.4c-0.3-0.3-0.4-0.6-0.4-1c0-0.4,0.1-0.8,0.4-1
				c0.3-0.3,0.6-0.4,1-0.4s0.8,0.1,1.1,0.4C632.5,507.2,632.6,507.6,632.6,508z M632.3,523.5H630v-11.4h2.3V523.5z"/>
			<path d="M642,515c-0.3-0.4-0.6-0.8-1.1-1s-1-0.4-1.6-0.4c-0.3,0-0.5,0-0.8,0.1c-0.3,0.1-0.5,0.1-0.7,0.3s-0.4,0.3-0.5,0.5
				c-0.1,0.2-0.2,0.4-0.2,0.7c0,0.5,0.2,0.8,0.6,1.1c0.4,0.2,1.1,0.4,1.9,0.6c0.5,0.1,1,0.3,1.5,0.5c0.5,0.2,0.9,0.4,1.2,0.7
				c0.3,0.3,0.6,0.6,0.8,0.9s0.3,0.8,0.3,1.3c0,0.7-0.1,1.2-0.4,1.7c-0.3,0.5-0.6,0.8-1,1.1s-0.9,0.5-1.5,0.6s-1.1,0.2-1.7,0.2
				c-0.9,0-1.7-0.2-2.5-0.5s-1.5-0.8-2.1-1.5l1.6-1.4c0.3,0.4,0.7,0.8,1.3,1.1s1.1,0.5,1.8,0.5c0.3,0,0.6,0,0.8-0.1
				c0.3-0.1,0.5-0.1,0.7-0.3c0.2-0.1,0.4-0.3,0.5-0.5c0.1-0.2,0.2-0.5,0.2-0.8c0-0.5-0.3-0.9-0.8-1.2s-1.2-0.5-2.2-0.7
				c-0.4-0.1-0.8-0.2-1.2-0.3c-0.4-0.1-0.7-0.3-1.1-0.6s-0.6-0.5-0.8-0.9c-0.2-0.4-0.3-0.8-0.3-1.3c0-0.6,0.1-1.1,0.4-1.6
				c0.2-0.4,0.6-0.8,1-1.1c0.4-0.3,0.9-0.5,1.4-0.6c0.5-0.1,1-0.2,1.6-0.2c0.8,0,1.6,0.2,2.4,0.5c0.8,0.3,1.3,0.8,1.8,1.4L642,515z"
				/>
			<path d="M648.8,508c0,0.4-0.1,0.8-0.4,1c-0.3,0.3-0.6,0.4-1.1,0.4s-0.8-0.1-1-0.4c-0.3-0.3-0.4-0.6-0.4-1c0-0.4,0.1-0.8,0.4-1
				c0.3-0.3,0.6-0.4,1-0.4s0.8,0.1,1.1,0.4C648.6,507.2,648.8,507.6,648.8,508z M648.4,523.5h-2.3v-11.4h2.3V523.5z"/>
			<path d="M654,512.1c0,0.3,0.1,0.6,0.1,1c0,0.4,0,0.7,0,0.9h0.1c0.1-0.3,0.3-0.6,0.6-0.9c0.2-0.3,0.5-0.5,0.9-0.7s0.7-0.4,1.1-0.5
				c0.4-0.1,0.8-0.2,1.2-0.2c0.7,0,1.4,0.1,1.9,0.4c0.5,0.2,1,0.6,1.3,1c0.4,0.4,0.6,0.9,0.8,1.5c0.2,0.6,0.3,1.2,0.3,1.8v7.1h-2.3
				v-6.3c0-0.5,0-0.9-0.1-1.3c-0.1-0.4-0.2-0.8-0.4-1.1s-0.5-0.6-0.8-0.8c-0.3-0.2-0.8-0.3-1.3-0.3c-0.9,0-1.6,0.3-2.2,1
				s-0.9,1.6-0.9,2.7v6H652v-8.9c0-0.3,0-0.7,0-1.2c0-0.5,0-0.9-0.1-1.3H654z"/>
			<path d="M671,513.9h-2.6v9.5h-2.3v-9.5h-2.3v-1.8h2.3v-2.4c0-0.7,0.1-1.3,0.2-1.9c0.2-0.6,0.4-1.1,0.7-1.5c0.3-0.4,0.8-0.7,1.3-1
				c0.5-0.2,1.2-0.4,2-0.4c0.5,0,1,0.1,1.4,0.2l-0.3,1.9c-0.2,0-0.4-0.1-0.5-0.1c-0.2,0-0.4,0-0.6,0c-0.4,0-0.8,0.1-1,0.2
				s-0.5,0.4-0.6,0.6s-0.2,0.5-0.3,0.9c0,0.3-0.1,0.7-0.1,1v2.4h2.6L671,513.9L671,513.9z"/>
			<path d="M683.3,517.7c0,0.1,0,0.3,0,0.4s0,0.3,0,0.4h-9c0,0.5,0.1,0.9,0.3,1.3s0.5,0.8,0.8,1.1c0.3,0.3,0.7,0.6,1.2,0.7
				s0.9,0.3,1.4,0.3c0.8,0,1.4-0.2,2-0.5s1-0.7,1.3-1.2l1.6,1.3c-0.6,0.8-1.3,1.4-2.1,1.8c-0.8,0.4-1.7,0.6-2.7,0.6
				c-0.9,0-1.7-0.1-2.4-0.4s-1.4-0.7-1.9-1.2c-0.5-0.5-0.9-1.1-1.2-1.9c-0.3-0.7-0.5-1.6-0.5-2.4c0-0.9,0.1-1.7,0.4-2.4
				s0.7-1.4,1.2-1.9c0.5-0.5,1.2-0.9,1.9-1.2c0.7-0.3,1.5-0.4,2.3-0.4c0.8,0,1.6,0.1,2.3,0.4c0.7,0.3,1.3,0.7,1.7,1.2
				c0.5,0.5,0.8,1.1,1.1,1.9C683.2,515.9,683.3,516.8,683.3,517.7z M681,516.8c0-0.4-0.1-0.9-0.2-1.3c-0.1-0.4-0.3-0.7-0.6-1
				c-0.3-0.3-0.6-0.5-1-0.7c-0.4-0.2-0.9-0.3-1.4-0.3c-0.5,0-0.9,0.1-1.4,0.3s-0.8,0.4-1.1,0.7c-0.3,0.3-0.6,0.6-0.8,1
				c-0.2,0.4-0.3,0.8-0.3,1.3H681z"/>
			<path d="M694.1,515c-0.2-0.4-0.6-0.7-1.1-0.9c-0.5-0.2-1-0.4-1.5-0.4c-0.6,0-1.1,0.1-1.6,0.3c-0.5,0.2-0.8,0.5-1.2,0.9
				c-0.3,0.4-0.6,0.8-0.7,1.3s-0.3,1-0.3,1.6s0.1,1.1,0.3,1.6s0.4,0.9,0.7,1.3c0.3,0.4,0.7,0.7,1.2,0.9c0.5,0.2,1,0.3,1.6,0.3
				c0.6,0,1.1-0.1,1.6-0.3c0.5-0.2,0.9-0.5,1.2-0.9l1.5,1.4c-0.5,0.6-1.1,1-1.8,1.3c-0.7,0.3-1.5,0.5-2.4,0.5
				c-0.9,0-1.7-0.1-2.4-0.4s-1.4-0.7-1.9-1.2c-0.5-0.5-1-1.1-1.3-1.9c-0.3-0.7-0.5-1.6-0.5-2.5c0-0.9,0.2-1.7,0.5-2.4
				c0.3-0.7,0.7-1.4,1.3-1.9c0.5-0.5,1.2-0.9,1.9-1.2c0.7-0.3,1.5-0.4,2.4-0.4c0.8,0,1.6,0.2,2.4,0.5c0.8,0.3,1.4,0.8,1.9,1.4
				L694.1,515z"/>
			<path d="M703.1,513.9h-3v5.9c0,0.7,0.1,1.2,0.4,1.5s0.7,0.4,1.2,0.4c0.2,0,0.4,0,0.7-0.1c0.2,0,0.5-0.1,0.6-0.2l0.1,1.8
				c-0.3,0.1-0.6,0.2-0.9,0.2c-0.3,0.1-0.7,0.1-1,0.1c-1.1,0-1.9-0.3-2.5-0.9c-0.6-0.6-0.9-1.5-0.9-2.7v-6.2h-2.2v-1.8h2.2v-3.3h2.2
				v3.3h3L703.1,513.9L703.1,513.9z"/>
			<path d="M712.2,516.1c0-0.8-0.3-1.5-0.8-1.9s-1.2-0.6-2-0.6c-0.6,0-1.2,0.1-1.8,0.4c-0.6,0.2-1,0.6-1.4,0.9l-1.2-1.4
				c0.6-0.5,1.2-0.9,2.1-1.2c0.8-0.3,1.7-0.5,2.6-0.5c0.8,0,1.5,0.1,2.1,0.3c0.6,0.2,1.1,0.5,1.5,0.9s0.7,0.9,0.9,1.4
				c0.2,0.5,0.3,1.1,0.3,1.8v5c0,0.4,0,0.8,0,1.2c0,0.4,0.1,0.8,0.1,1h-2c-0.1-0.5-0.2-1.1-0.2-1.6h-0.1c-0.4,0.6-0.9,1.1-1.6,1.4
				s-1.4,0.5-2.2,0.5c-0.4,0-0.9-0.1-1.4-0.2c-0.5-0.1-0.9-0.3-1.3-0.6c-0.4-0.3-0.7-0.6-1-1.1s-0.4-1-0.4-1.7
				c0-0.9,0.2-1.5,0.7-2.1s1.1-0.9,1.8-1.2c0.8-0.3,1.6-0.4,2.5-0.5s1.9-0.1,2.9-0.1L712.2,516.1L712.2,516.1z M711.6,518
				c-0.6,0-1.1,0-1.7,0.1c-0.6,0-1.1,0.1-1.6,0.3c-0.5,0.1-0.9,0.4-1.2,0.6s-0.5,0.7-0.5,1.2c0,0.3,0.1,0.6,0.2,0.8
				c0.1,0.2,0.3,0.4,0.5,0.6c0.2,0.1,0.5,0.2,0.7,0.3c0.3,0.1,0.6,0.1,0.8,0.1c1.1,0,1.9-0.3,2.4-0.9s0.9-1.4,0.9-2.4V518L711.6,518
				L711.6,518z"/>
			<path d="M719.8,512.1c0,0.3,0.1,0.6,0.1,1c0,0.4,0,0.7,0,0.9h0.1c0.1-0.3,0.3-0.6,0.6-0.9c0.2-0.3,0.5-0.5,0.9-0.7
				s0.7-0.4,1.1-0.5c0.4-0.1,0.8-0.2,1.2-0.2c0.7,0,1.4,0.1,1.9,0.4c0.5,0.2,1,0.6,1.3,1c0.4,0.4,0.6,0.9,0.8,1.5
				c0.2,0.6,0.3,1.2,0.3,1.8v7.1h-2.3v-6.3c0-0.5,0-0.9-0.1-1.3c-0.1-0.4-0.2-0.8-0.4-1.1s-0.5-0.6-0.8-0.8
				c-0.3-0.2-0.8-0.3-1.3-0.3c-0.9,0-1.6,0.3-2.2,1s-0.9,1.6-0.9,2.7v6h-2.3v-8.9c0-0.3,0-0.7,0-1.2c0-0.5,0-0.9-0.1-1.3H719.8z"/>
			<path d="M736.9,513.9h-3v5.9c0,0.7,0.1,1.2,0.4,1.5s0.7,0.4,1.2,0.4c0.2,0,0.4,0,0.7-0.1c0.2,0,0.5-0.1,0.6-0.2l0.1,1.8
				c-0.3,0.1-0.6,0.2-0.9,0.2c-0.3,0.1-0.7,0.1-1,0.1c-1.1,0-1.9-0.3-2.5-0.9c-0.6-0.6-0.9-1.5-0.9-2.7v-6.2h-2.2v-1.8h2.2v-3.3h2.2
				v3.3h3L736.9,513.9L736.9,513.9z"/>
			<path d="M746.8,517L746.8,517l4.8-4.9h3l-5.3,5.2l5.8,6.2h-3.1l-5.1-5.9h-0.1v5.9h-2.3v-18.1h2.3L746.8,517L746.8,517z"/>
			<path d="M759.5,508c0,0.4-0.1,0.8-0.4,1c-0.3,0.3-0.6,0.4-1.1,0.4s-0.8-0.1-1-0.4c-0.3-0.3-0.4-0.6-0.4-1c0-0.4,0.1-0.8,0.4-1
				c0.3-0.3,0.6-0.4,1-0.4s0.8,0.1,1.1,0.4C759.3,507.2,759.5,507.6,759.5,508z M759.1,523.5h-2.3v-11.4h2.3V523.5z"/>
			<path d="M765,523.5h-2.3v-18.1h2.3V523.5z"/>
			<path d="M770.9,523.5h-2.3v-18.1h2.3V523.5z"/>
			<path d="M780.6,515c-0.3-0.4-0.6-0.8-1.1-1s-1-0.4-1.6-0.4c-0.3,0-0.5,0-0.8,0.1c-0.3,0.1-0.5,0.1-0.7,0.3s-0.4,0.3-0.5,0.5
				c-0.1,0.2-0.2,0.4-0.2,0.7c0,0.5,0.2,0.8,0.6,1.1c0.4,0.2,1.1,0.4,1.9,0.6c0.5,0.1,1,0.3,1.5,0.5c0.5,0.2,0.9,0.4,1.2,0.7
				c0.3,0.3,0.6,0.6,0.8,0.9s0.3,0.8,0.3,1.3c0,0.7-0.1,1.2-0.4,1.7c-0.3,0.5-0.6,0.8-1,1.1s-0.9,0.5-1.5,0.6s-1.1,0.2-1.7,0.2
				c-0.9,0-1.7-0.2-2.5-0.5s-1.5-0.8-2.1-1.5l1.6-1.4c0.3,0.4,0.7,0.8,1.3,1.1s1.1,0.5,1.8,0.5c0.3,0,0.6,0,0.8-0.1
				c0.3-0.1,0.5-0.1,0.7-0.3c0.2-0.1,0.4-0.3,0.5-0.5c0.1-0.2,0.2-0.5,0.2-0.8c0-0.5-0.3-0.9-0.8-1.2s-1.2-0.5-2.2-0.7
				c-0.4-0.1-0.8-0.2-1.2-0.3c-0.4-0.1-0.7-0.3-1.1-0.6s-0.6-0.5-0.8-0.9c-0.2-0.4-0.3-0.8-0.3-1.3c0-0.6,0.1-1.1,0.4-1.6
				c0.2-0.4,0.6-0.8,1-1.1c0.4-0.3,0.9-0.5,1.4-0.6c0.5-0.1,1-0.2,1.6-0.2c0.8,0,1.6,0.2,2.4,0.5c0.8,0.3,1.3,0.8,1.8,1.4L780.6,515
				z"/>
			<path d="M797.2,516.6L797.2,516.6c-0.3,0.1-0.6,0.2-1,0.3c-0.2,0-0.4,0.1-0.6,0.1c-0.2,0-0.4,0-0.6,0c-0.8,0-1.4-0.1-2.1-0.4
				s-1.2-0.6-1.7-1.1s-0.9-1-1.1-1.7c-0.3-0.7-0.4-1.4-0.4-2.1c0-0.8,0.1-1.6,0.4-2.3c0.3-0.7,0.7-1.3,1.2-1.8
				c0.5-0.5,1.1-0.9,1.9-1.2s1.5-0.4,2.3-0.4s1.6,0.1,2.3,0.4c0.7,0.3,1.3,0.7,1.9,1.2c0.5,0.5,0.9,1.1,1.2,1.8
				c0.3,0.7,0.4,1.4,0.4,2.2c0,0.9-0.2,1.8-0.5,2.5s-0.7,1.5-1.2,2.3l-4.4,7h-2.8L797.2,516.6z M799.1,511.6c0-0.5-0.1-1-0.3-1.4
				c-0.2-0.4-0.4-0.8-0.7-1.2c-0.3-0.3-0.7-0.6-1.1-0.8c-0.4-0.2-0.9-0.3-1.4-0.3c-0.5,0-1,0.1-1.4,0.3c-0.4,0.2-0.8,0.4-1.1,0.8
				c-0.3,0.3-0.6,0.7-0.7,1.2c-0.2,0.4-0.3,0.9-0.3,1.5c0,0.5,0.1,1,0.3,1.4c0.2,0.4,0.4,0.8,0.7,1.1c0.3,0.3,0.7,0.6,1.1,0.7
				c0.4,0.2,0.9,0.3,1.4,0.3c0.5,0,1-0.1,1.5-0.3c0.4-0.2,0.8-0.4,1.1-0.7c0.3-0.3,0.6-0.7,0.7-1.1
				C799.1,512.6,799.1,512.1,799.1,511.6z"/>
			<path d="M811.1,516.6L811.1,516.6c-0.3,0.1-0.6,0.2-1,0.3c-0.2,0-0.4,0.1-0.6,0.1c-0.2,0-0.4,0-0.6,0c-0.8,0-1.4-0.1-2.1-0.4
				s-1.2-0.6-1.7-1.1s-0.9-1-1.1-1.7c-0.3-0.7-0.4-1.4-0.4-2.1c0-0.8,0.1-1.6,0.4-2.3c0.3-0.7,0.7-1.3,1.2-1.8
				c0.5-0.5,1.1-0.9,1.9-1.2s1.5-0.4,2.3-0.4s1.6,0.1,2.3,0.4c0.7,0.3,1.3,0.7,1.9,1.2c0.5,0.5,0.9,1.1,1.2,1.8
				c0.3,0.7,0.4,1.4,0.4,2.2c0,0.9-0.2,1.8-0.5,2.5s-0.7,1.5-1.2,2.3l-4.4,7h-2.8L811.1,516.6z M813.1,511.6c0-0.5-0.1-1-0.3-1.4
				c-0.2-0.4-0.4-0.8-0.7-1.2c-0.3-0.3-0.7-0.6-1.1-0.8c-0.4-0.2-0.9-0.3-1.4-0.3c-0.5,0-1,0.1-1.4,0.3c-0.4,0.2-0.8,0.4-1.1,0.8
				c-0.3,0.3-0.6,0.7-0.7,1.2c-0.2,0.4-0.3,0.9-0.3,1.5c0,0.5,0.1,1,0.3,1.4c0.2,0.4,0.4,0.8,0.7,1.1c0.3,0.3,0.7,0.6,1.1,0.7
				c0.4,0.2,0.9,0.3,1.4,0.3c0.5,0,1-0.1,1.5-0.3c0.4-0.2,0.8-0.4,1.1-0.7c0.3-0.3,0.6-0.7,0.7-1.1
				C813,512.6,813.1,512.1,813.1,511.6z"/>
			<path d="M821,522c0,0.4-0.2,0.8-0.5,1.1c-0.3,0.3-0.7,0.5-1.2,0.5c-0.4,0-0.8-0.2-1.1-0.5c-0.3-0.3-0.5-0.7-0.5-1.1
				c0-0.4,0.2-0.8,0.5-1.1s0.7-0.5,1.2-0.5s0.8,0.2,1.2,0.5C820.9,521.2,821,521.6,821,522z"/>
			<path d="M830.9,516.6L830.9,516.6c-0.3,0.1-0.6,0.2-1,0.3c-0.2,0-0.4,0.1-0.6,0.1c-0.2,0-0.4,0-0.6,0c-0.8,0-1.4-0.1-2.1-0.4
				s-1.2-0.6-1.7-1.1s-0.9-1-1.1-1.7c-0.3-0.7-0.4-1.4-0.4-2.1c0-0.8,0.1-1.6,0.4-2.3c0.3-0.7,0.7-1.3,1.2-1.8
				c0.5-0.5,1.1-0.9,1.9-1.2s1.5-0.4,2.3-0.4s1.6,0.1,2.3,0.4c0.7,0.3,1.3,0.7,1.9,1.2c0.5,0.5,0.9,1.1,1.2,1.8
				c0.3,0.7,0.4,1.4,0.4,2.2c0,0.9-0.2,1.8-0.5,2.5s-0.7,1.5-1.2,2.3l-4.4,7h-2.8L830.9,516.6z M832.9,511.6c0-0.5-0.1-1-0.3-1.4
				c-0.2-0.4-0.4-0.8-0.7-1.2c-0.3-0.3-0.7-0.6-1.1-0.8c-0.4-0.2-0.9-0.3-1.4-0.3c-0.5,0-1,0.1-1.4,0.3c-0.4,0.2-0.8,0.4-1.1,0.8
				c-0.3,0.3-0.6,0.7-0.7,1.2c-0.2,0.4-0.3,0.9-0.3,1.5c0,0.5,0.1,1,0.3,1.4c0.2,0.4,0.4,0.8,0.7,1.1c0.3,0.3,0.7,0.6,1.1,0.7
				c0.4,0.2,0.9,0.3,1.4,0.3c0.5,0,1-0.1,1.5-0.3c0.4-0.2,0.8-0.4,1.1-0.7c0.3-0.3,0.6-0.7,0.7-1.1
				C832.8,512.6,832.9,512.1,832.9,511.6z"/>
			<path d="M837.1,510.4c0-0.6,0.1-1.1,0.3-1.7c0.2-0.5,0.5-1,0.9-1.3c0.4-0.4,0.8-0.7,1.3-0.9c0.5-0.2,1.1-0.3,1.7-0.3
				c0.6,0,1.1,0.1,1.7,0.3c0.5,0.2,1,0.5,1.3,0.9c0.4,0.4,0.7,0.8,0.9,1.3c0.2,0.5,0.3,1.1,0.3,1.7c0,0.6-0.1,1.1-0.3,1.7
				c-0.2,0.5-0.5,1-0.9,1.3c-0.4,0.4-0.8,0.7-1.3,0.9c-0.5,0.2-1.1,0.3-1.7,0.3c-0.6,0-1.1-0.1-1.7-0.3c-0.5-0.2-1-0.5-1.3-0.9
				c-0.4-0.4-0.7-0.8-0.9-1.3C837.2,511.6,837.1,511,837.1,510.4z M843.6,510.4c0-0.3-0.1-0.6-0.2-0.9c-0.1-0.3-0.3-0.5-0.5-0.7
				c-0.2-0.2-0.4-0.4-0.7-0.5c-0.3-0.1-0.6-0.2-0.9-0.2c-0.3,0-0.6,0.1-0.9,0.2s-0.5,0.3-0.7,0.5c-0.2,0.2-0.4,0.4-0.5,0.7
				s-0.2,0.6-0.2,0.9c0,0.3,0.1,0.6,0.2,0.9s0.3,0.5,0.5,0.7c0.2,0.2,0.4,0.4,0.7,0.5s0.6,0.2,0.9,0.2c0.3,0,0.6-0.1,0.9-0.2
				c0.3-0.1,0.5-0.3,0.7-0.5s0.4-0.4,0.5-0.7C843.5,511,843.6,510.7,843.6,510.4z M842.2,524.2l-1.6-0.8l10.4-17.7l1.6,0.8
				L842.2,524.2z M847.5,519.5c0-0.6,0.1-1.1,0.3-1.7c0.2-0.5,0.5-1,0.9-1.3c0.4-0.4,0.8-0.7,1.3-0.9c0.5-0.2,1.1-0.3,1.7-0.3
				c0.6,0,1.1,0.1,1.7,0.3c0.5,0.2,1,0.5,1.3,0.9c0.4,0.4,0.7,0.8,0.9,1.3c0.2,0.5,0.3,1.1,0.3,1.7c0,0.6-0.1,1.1-0.3,1.7
				c-0.2,0.5-0.5,1-0.9,1.3c-0.4,0.4-0.8,0.7-1.3,0.9s-1.1,0.3-1.7,0.3c-0.6,0-1.1-0.1-1.7-0.3c-0.5-0.2-1-0.5-1.3-0.9
				c-0.4-0.4-0.7-0.8-0.9-1.3C847.6,520.6,847.5,520.1,847.5,519.5z M854,519.5c0-0.3-0.1-0.6-0.2-0.9c-0.1-0.3-0.3-0.5-0.5-0.7
				s-0.4-0.4-0.7-0.5c-0.3-0.1-0.6-0.2-0.9-0.2c-0.3,0-0.6,0.1-0.9,0.2c-0.3,0.1-0.5,0.3-0.7,0.5s-0.4,0.4-0.5,0.7
				c-0.1,0.3-0.2,0.6-0.2,0.9c0,0.3,0.1,0.6,0.2,0.9c0.1,0.3,0.3,0.5,0.5,0.7s0.4,0.4,0.7,0.5s0.6,0.2,0.9,0.2
				c0.3,0,0.6-0.1,0.9-0.2c0.3-0.1,0.5-0.3,0.7-0.5s0.4-0.4,0.5-0.7C853.9,520.1,854,519.8,854,519.5z"/>
			<path d="M396,555.7c0,0.9-0.2,1.7-0.5,2.4c-0.3,0.7-0.7,1.4-1.3,1.9s-1.2,1-2,1.2c-0.8,0.3-1.6,0.4-2.4,0.4s-1.7-0.1-2.4-0.4
				c-0.8-0.3-1.4-0.7-1.9-1.2s-1-1.2-1.3-1.9c-0.3-0.7-0.5-1.5-0.5-2.4s0.2-1.7,0.5-2.4c0.3-0.7,0.7-1.4,1.3-1.9
				c0.5-0.5,1.2-0.9,1.9-1.2c0.8-0.3,1.6-0.4,2.4-0.4s1.7,0.1,2.4,0.4c0.8,0.3,1.4,0.7,2,1.2s1,1.2,1.3,1.9
				C395.9,554.1,396,554.9,396,555.7z M393.7,555.8c0-0.5-0.1-1.1-0.3-1.6c-0.2-0.5-0.4-0.9-0.7-1.3s-0.7-0.7-1.2-0.9
				c-0.5-0.2-1-0.3-1.6-0.3s-1.2,0.1-1.6,0.3c-0.5,0.2-0.9,0.5-1.2,0.9c-0.3,0.4-0.6,0.8-0.7,1.3c-0.2,0.5-0.3,1-0.3,1.6
				c0,0.5,0.1,1.1,0.3,1.6c0.2,0.5,0.4,0.9,0.7,1.3c0.3,0.4,0.7,0.7,1.2,0.9c0.5,0.2,1,0.3,1.6,0.3s1.2-0.1,1.6-0.3s0.9-0.5,1.2-0.9
				s0.6-0.8,0.7-1.3C393.6,556.8,393.7,556.3,393.7,555.8z"/>
			<path d="M404.2,551.9h-2.6v9.5h-2.3v-9.5H397v-1.8h2.3v-2.4c0-0.7,0.1-1.3,0.2-1.9c0.2-0.6,0.4-1.1,0.7-1.5s0.8-0.7,1.3-1
				c0.5-0.2,1.2-0.4,2-0.4c0.5,0,1,0.1,1.4,0.2l-0.3,1.9c-0.2,0-0.4-0.1-0.5-0.1c-0.2,0-0.4,0-0.6,0c-0.4,0-0.8,0.1-1,0.2
				s-0.5,0.4-0.6,0.6s-0.2,0.5-0.3,0.9s-0.1,0.7-0.1,1v2.4h2.6L404.2,551.9L404.2,551.9z"/>
			<path d="M414.3,559.7v1.8h-2.2v-18.1h2.3v8.5h0.1c0.4-0.6,0.9-1,1.6-1.4c0.7-0.4,1.5-0.6,2.4-0.6c0.8,0,1.6,0.2,2.3,0.5
				s1.3,0.7,1.8,1.3c0.5,0.5,0.9,1.2,1.2,1.9c0.3,0.7,0.4,1.5,0.4,2.3s-0.1,1.6-0.4,2.4c-0.3,0.7-0.7,1.4-1.1,1.9s-1.1,1-1.8,1.3
				c-0.7,0.3-1.5,0.5-2.4,0.5c-0.8,0-1.6-0.2-2.3-0.5C415.4,560.9,414.8,560.3,414.3,559.7L414.3,559.7L414.3,559.7z M421.9,555.8
				c0-0.5-0.1-1-0.2-1.5c-0.2-0.5-0.4-0.9-0.7-1.3c-0.3-0.4-0.7-0.7-1.2-0.9c-0.5-0.2-1-0.3-1.6-0.3c-0.6,0-1.1,0.1-1.6,0.3
				c-0.5,0.2-0.9,0.5-1.2,0.9s-0.6,0.8-0.8,1.3c-0.2,0.5-0.3,1-0.3,1.6c0,0.5,0.1,1.1,0.3,1.6s0.4,0.9,0.8,1.3s0.7,0.7,1.2,0.9
				c0.5,0.2,1,0.3,1.6,0.3c0.6,0,1.2-0.1,1.6-0.3c0.5-0.2,0.9-0.5,1.2-0.9c0.3-0.4,0.6-0.8,0.7-1.3
				C421.8,556.8,421.9,556.3,421.9,555.8z"/>
			<path d="M434.1,554.1c0-0.8-0.3-1.5-0.8-1.9s-1.2-0.6-2-0.6c-0.6,0-1.2,0.1-1.8,0.4c-0.6,0.2-1,0.6-1.4,0.9l-1.2-1.4
				c0.6-0.5,1.2-0.9,2.1-1.2s1.7-0.5,2.6-0.5c0.8,0,1.5,0.1,2.1,0.3s1.1,0.5,1.5,0.9s0.7,0.9,0.9,1.4s0.3,1.1,0.3,1.8v5
				c0,0.4,0,0.8,0,1.2c0,0.4,0.1,0.8,0.1,1h-2c-0.1-0.5-0.2-1.1-0.2-1.6h-0.1c-0.4,0.6-0.9,1.1-1.6,1.4s-1.4,0.5-2.2,0.5
				c-0.4,0-0.9-0.1-1.4-0.2s-0.9-0.3-1.3-0.6c-0.4-0.3-0.7-0.6-1-1.1s-0.4-1-0.4-1.7c0-0.9,0.2-1.5,0.7-2.1s1.1-0.9,1.8-1.2
				s1.6-0.4,2.5-0.5s1.9-0.1,2.9-0.1L434.1,554.1L434.1,554.1z M433.5,556c-0.6,0-1.1,0-1.7,0.1s-1.1,0.1-1.6,0.3
				c-0.5,0.1-0.9,0.4-1.2,0.6c-0.3,0.3-0.5,0.7-0.5,1.2c0,0.3,0.1,0.6,0.2,0.8c0.1,0.2,0.3,0.4,0.5,0.6c0.2,0.1,0.5,0.2,0.7,0.3
				c0.3,0.1,0.6,0.1,0.8,0.1c1.1,0,1.9-0.3,2.4-0.9s0.9-1.4,0.9-2.4V556L433.5,556L433.5,556z"/>
			<path d="M447.6,553c-0.2-0.4-0.6-0.7-1.1-0.9s-1-0.4-1.5-0.4c-0.6,0-1.1,0.1-1.6,0.3c-0.5,0.2-0.8,0.5-1.2,0.9
				c-0.3,0.4-0.6,0.8-0.7,1.3s-0.3,1-0.3,1.6s0.1,1.1,0.3,1.6s0.4,0.9,0.7,1.3c0.3,0.4,0.7,0.7,1.2,0.9c0.5,0.2,1,0.3,1.6,0.3
				c0.6,0,1.1-0.1,1.6-0.3c0.5-0.2,0.9-0.5,1.2-0.9l1.5,1.4c-0.5,0.6-1.1,1-1.8,1.3c-0.7,0.3-1.5,0.5-2.4,0.5
				c-0.9,0-1.7-0.1-2.4-0.4c-0.7-0.3-1.4-0.7-1.9-1.2c-0.5-0.5-1-1.1-1.3-1.9c-0.3-0.7-0.5-1.6-0.5-2.5c0-0.9,0.2-1.7,0.5-2.4
				c0.3-0.7,0.7-1.4,1.3-1.9c0.5-0.5,1.2-0.9,1.9-1.2c0.7-0.3,1.5-0.4,2.4-0.4c0.8,0,1.6,0.2,2.4,0.5c0.8,0.3,1.4,0.8,1.9,1.4
				L447.6,553z"/>
			<path d="M456.7,551.9h-3v5.9c0,0.7,0.1,1.2,0.4,1.5s0.7,0.4,1.2,0.4c0.2,0,0.4,0,0.7-0.1s0.5-0.1,0.6-0.2l0.1,1.8
				c-0.3,0.1-0.6,0.2-0.9,0.2c-0.3,0.1-0.7,0.1-1,0.1c-1.1,0-1.9-0.3-2.5-0.9s-0.9-1.5-0.9-2.7v-6.2h-2.2v-1.8h2.2v-3.3h2.2v3.3h3
				L456.7,551.9L456.7,551.9z"/>
			<path d="M469.3,555.7c0,0.1,0,0.3,0,0.4s0,0.3,0,0.4h-9c0,0.5,0.1,0.9,0.3,1.3c0.2,0.4,0.5,0.8,0.8,1.1c0.3,0.3,0.7,0.6,1.2,0.7
				s0.9,0.3,1.4,0.3c0.8,0,1.4-0.2,2-0.5s1-0.7,1.3-1.2l1.6,1.3c-0.6,0.8-1.3,1.4-2.1,1.8c-0.8,0.4-1.7,0.6-2.7,0.6
				c-0.9,0-1.7-0.1-2.4-0.4s-1.4-0.7-1.9-1.2c-0.5-0.5-0.9-1.1-1.2-1.9c-0.3-0.7-0.5-1.6-0.5-2.4c0-0.9,0.1-1.7,0.4-2.4
				c0.3-0.7,0.7-1.4,1.2-1.9c0.5-0.5,1.2-0.9,1.9-1.2c0.7-0.3,1.5-0.4,2.3-0.4c0.8,0,1.6,0.1,2.3,0.4c0.7,0.3,1.3,0.7,1.7,1.2
				c0.5,0.5,0.8,1.1,1.1,1.9C469.2,553.9,469.3,554.8,469.3,555.7z M467,554.8c0-0.4-0.1-0.9-0.2-1.3c-0.1-0.4-0.3-0.7-0.6-1
				c-0.3-0.3-0.6-0.5-1-0.7s-0.9-0.3-1.4-0.3c-0.5,0-0.9,0.1-1.4,0.3c-0.4,0.2-0.8,0.4-1.1,0.7s-0.6,0.6-0.8,1
				c-0.2,0.4-0.3,0.8-0.3,1.3H467z"/>
			<path d="M472.1,551.4c0-0.5,0-0.9-0.1-1.3h2.1c0,0.3,0.1,0.6,0.1,1s0,0.7,0,0.9h0.1c0.3-0.7,0.8-1.2,1.4-1.6
				c0.6-0.4,1.3-0.6,2.1-0.6c0.4,0,0.6,0,0.9,0.1l-0.1,2.1c-0.3-0.1-0.7-0.1-1-0.1c-0.5,0-1,0.1-1.4,0.3c-0.4,0.2-0.7,0.5-1,0.8
				s-0.5,0.7-0.6,1.2c-0.1,0.4-0.2,0.9-0.2,1.4v6h-2.3v-8.9C472.1,552.2,472.1,551.8,472.1,551.4z"/>
			<path d="M483,546c0,0.4-0.1,0.8-0.4,1c-0.3,0.3-0.6,0.4-1.1,0.4s-0.8-0.1-1-0.4c-0.3-0.3-0.4-0.6-0.4-1c0-0.4,0.1-0.8,0.4-1
				s0.6-0.4,1-0.4s0.8,0.1,1.1,0.4C482.9,545.2,483,545.6,483,546z M482.7,561.5h-2.3v-11.4h2.3V561.5z"/>
			<path d="M493.3,554.1c0-0.8-0.3-1.5-0.8-1.9s-1.2-0.6-2-0.6c-0.6,0-1.2,0.1-1.8,0.4c-0.6,0.2-1,0.6-1.4,0.9l-1.2-1.4
				c0.6-0.5,1.2-0.9,2.1-1.2s1.7-0.5,2.6-0.5c0.8,0,1.5,0.1,2.1,0.3s1.1,0.5,1.5,0.9s0.7,0.9,0.9,1.4s0.3,1.1,0.3,1.8v5
				c0,0.4,0,0.8,0,1.2c0,0.4,0.1,0.8,0.1,1h-2c-0.1-0.5-0.2-1.1-0.2-1.6h-0.1c-0.4,0.6-0.9,1.1-1.6,1.4s-1.4,0.5-2.2,0.5
				c-0.4,0-0.9-0.1-1.4-0.2s-0.9-0.3-1.3-0.6c-0.4-0.3-0.7-0.6-1-1.1s-0.4-1-0.4-1.7c0-0.9,0.2-1.5,0.7-2.1s1.1-0.9,1.8-1.2
				s1.6-0.4,2.5-0.5s1.9-0.1,2.9-0.1L493.3,554.1L493.3,554.1z M492.8,556c-0.6,0-1.1,0-1.7,0.1s-1.1,0.1-1.6,0.3
				c-0.5,0.1-0.9,0.4-1.2,0.6c-0.3,0.3-0.5,0.7-0.5,1.2c0,0.3,0.1,0.6,0.2,0.8c0.1,0.2,0.3,0.4,0.5,0.6c0.2,0.1,0.5,0.2,0.7,0.3
				c0.3,0.1,0.6,0.1,0.8,0.1c1.1,0,1.9-0.3,2.4-0.9s0.9-1.4,0.9-2.4V556L492.8,556L492.8,556z"/>
			<path d="M511.6,554.1c0-0.8-0.3-1.5-0.8-1.9s-1.2-0.6-2-0.6c-0.6,0-1.2,0.1-1.8,0.4c-0.6,0.2-1,0.6-1.4,0.9l-1.2-1.4
				c0.6-0.5,1.2-0.9,2.1-1.2s1.7-0.5,2.6-0.5c0.8,0,1.5,0.1,2.1,0.3s1.1,0.5,1.5,0.9s0.7,0.9,0.9,1.4c0.2,0.5,0.3,1.1,0.3,1.8v5
				c0,0.4,0,0.8,0,1.2c0,0.4,0.1,0.8,0.1,1h-2c-0.1-0.5-0.2-1.1-0.2-1.6h-0.1c-0.4,0.6-0.9,1.1-1.6,1.4s-1.4,0.5-2.2,0.5
				c-0.4,0-0.9-0.1-1.4-0.2s-0.9-0.3-1.3-0.6c-0.4-0.3-0.7-0.6-1-1.1s-0.4-1-0.4-1.7c0-0.9,0.2-1.5,0.7-2.1s1.1-0.9,1.8-1.2
				s1.6-0.4,2.5-0.5s1.9-0.1,2.9-0.1L511.6,554.1L511.6,554.1z M511.1,556c-0.6,0-1.1,0-1.7,0.1s-1.1,0.1-1.6,0.3
				c-0.5,0.1-0.9,0.4-1.2,0.6c-0.3,0.3-0.5,0.7-0.5,1.2c0,0.3,0.1,0.6,0.2,0.8c0.1,0.2,0.3,0.4,0.5,0.6c0.2,0.1,0.5,0.2,0.7,0.3
				c0.3,0.1,0.6,0.1,0.8,0.1c1.1,0,1.9-0.3,2.4-0.9s0.9-1.4,0.9-2.4V556L511.1,556L511.1,556z"/>
			<path d="M519.2,550.1c0,0.3,0.1,0.6,0.1,1c0,0.4,0,0.7,0,0.9h0.1c0.1-0.3,0.3-0.6,0.6-0.9c0.2-0.3,0.5-0.5,0.9-0.7
				s0.7-0.4,1.1-0.5c0.4-0.1,0.8-0.2,1.2-0.2c0.7,0,1.4,0.1,1.9,0.4s1,0.6,1.3,1c0.4,0.4,0.6,0.9,0.8,1.5c0.2,0.6,0.3,1.2,0.3,1.8
				v7.1h-2.3v-6.3c0-0.5,0-0.9-0.1-1.3c-0.1-0.4-0.2-0.8-0.4-1.1s-0.5-0.6-0.8-0.8c-0.3-0.2-0.8-0.3-1.3-0.3c-0.9,0-1.6,0.3-2.2,1
				s-0.9,1.6-0.9,2.7v6h-2.3v-8.9c0-0.3,0-0.7,0-1.2c0-0.5,0-0.9-0.1-1.3L519.2,550.1L519.2,550.1z"/>
			<path d="M539.9,559.7c-0.4,0.7-1,1.2-1.8,1.6c-0.7,0.4-1.5,0.5-2.3,0.5c-0.9,0-1.7-0.2-2.4-0.5s-1.3-0.7-1.8-1.3
				c-0.5-0.5-0.9-1.2-1.2-1.9c-0.3-0.7-0.4-1.5-0.4-2.4s0.1-1.6,0.4-2.3c0.3-0.7,0.7-1.4,1.2-1.9s1.1-1,1.8-1.3s1.5-0.5,2.3-0.5
				c0.9,0,1.7,0.2,2.4,0.6c0.7,0.4,1.2,0.9,1.6,1.4h0v-8.5h2.3v18.1h-2.2L539.9,559.7L539.9,559.7L539.9,559.7z M532.4,555.8
				c0,0.5,0.1,1,0.2,1.5s0.4,0.9,0.7,1.3c0.3,0.4,0.7,0.7,1.2,0.9s1,0.3,1.6,0.3c0.6,0,1.1-0.1,1.6-0.3c0.5-0.2,0.9-0.5,1.2-0.9
				s0.6-0.8,0.8-1.3s0.3-1,0.3-1.6c0-0.5-0.1-1.1-0.3-1.6c-0.2-0.5-0.4-0.9-0.8-1.3s-0.7-0.7-1.2-0.9c-0.5-0.2-1-0.3-1.6-0.3
				c-0.6,0-1.2,0.1-1.6,0.3c-0.5,0.2-0.9,0.5-1.2,0.9s-0.6,0.8-0.7,1.3C532.5,554.7,532.4,555.2,532.4,555.8z"/>
			<path d="M556.7,561.5h-2.4l-4.6-11.4h2.5l3.3,9h0l3.4-9h2.4L556.7,561.5z"/>
			<path d="M565.7,546c0,0.4-0.1,0.8-0.4,1c-0.3,0.3-0.6,0.4-1.1,0.4s-0.8-0.1-1-0.4c-0.3-0.3-0.4-0.6-0.4-1c0-0.4,0.1-0.8,0.4-1
				c0.3-0.3,0.6-0.4,1-0.4s0.8,0.1,1.1,0.4C565.6,545.2,565.7,545.6,565.7,546z M565.3,561.5h-2.3v-11.4h2.3V561.5z"/>
			<path d="M568.9,551.4c0-0.5,0-0.9-0.1-1.3h2.1c0,0.3,0.1,0.6,0.1,1s0,0.7,0,0.9h0.1c0.3-0.7,0.8-1.2,1.4-1.6
				c0.6-0.4,1.3-0.6,2.1-0.6c0.4,0,0.6,0,0.9,0.1l-0.1,2.1c-0.3-0.1-0.7-0.1-1-0.1c-0.5,0-1,0.1-1.4,0.3c-0.4,0.2-0.7,0.5-1,0.8
				c-0.3,0.3-0.5,0.7-0.6,1.2s-0.2,0.9-0.2,1.4v6h-2.3v-8.9C568.9,552.2,568.9,551.8,568.9,551.4z"/>
			<path d="M585.3,561.5c0-0.3-0.1-0.6-0.1-1s0-0.7,0-0.9h0c-0.3,0.6-0.8,1.1-1.5,1.5c-0.7,0.4-1.4,0.6-2.3,0.6
				c-0.7,0-1.4-0.1-1.9-0.4c-0.5-0.2-1-0.6-1.3-1c-0.3-0.4-0.6-0.9-0.8-1.5c-0.2-0.6-0.3-1.2-0.3-1.8v-7.1h2.3v6.3
				c0,0.5,0,0.9,0.1,1.3s0.2,0.8,0.4,1.1c0.2,0.3,0.5,0.6,0.8,0.8s0.8,0.3,1.3,0.3c0.9,0,1.6-0.3,2.2-1c0.6-0.7,0.8-1.6,0.8-2.7v-6
				h2.3v8.9c0,0.3,0,0.7,0,1.2c0,0.5,0,0.9,0.1,1.3L585.3,561.5L585.3,561.5z"/>
			<path d="M597,553c-0.3-0.4-0.6-0.8-1.1-1s-1-0.4-1.6-0.4c-0.3,0-0.5,0-0.8,0.1c-0.3,0.1-0.5,0.1-0.7,0.3s-0.4,0.3-0.5,0.5
				c-0.1,0.2-0.2,0.4-0.2,0.7c0,0.5,0.2,0.8,0.6,1.1c0.4,0.2,1.1,0.4,1.9,0.6c0.5,0.1,1,0.3,1.5,0.5c0.5,0.2,0.9,0.4,1.2,0.7
				c0.3,0.3,0.6,0.6,0.8,0.9s0.3,0.8,0.3,1.3c0,0.7-0.1,1.2-0.4,1.7c-0.3,0.5-0.6,0.8-1,1.1s-0.9,0.5-1.5,0.6s-1.1,0.2-1.7,0.2
				c-0.9,0-1.7-0.2-2.5-0.5s-1.5-0.8-2.1-1.5l1.6-1.4c0.3,0.4,0.7,0.8,1.3,1.1s1.1,0.5,1.8,0.5c0.3,0,0.6,0,0.8-0.1
				c0.3-0.1,0.5-0.1,0.7-0.3c0.2-0.1,0.4-0.3,0.5-0.5c0.1-0.2,0.2-0.5,0.2-0.8c0-0.5-0.3-0.9-0.8-1.2s-1.2-0.5-2.2-0.7
				c-0.4-0.1-0.8-0.2-1.2-0.3c-0.4-0.1-0.7-0.3-1.1-0.6s-0.6-0.5-0.8-0.9c-0.2-0.4-0.3-0.8-0.3-1.3c0-0.6,0.1-1.1,0.4-1.6
				c0.2-0.4,0.6-0.8,1-1.1c0.4-0.3,0.9-0.5,1.4-0.6c0.5-0.1,1-0.2,1.6-0.2c0.8,0,1.6,0.2,2.4,0.5c0.8,0.3,1.3,0.8,1.8,1.4L597,553z"
				/>
			<path d="M611.8,555.7c0,0.1,0,0.3,0,0.4s0,0.3,0,0.4h-9c0,0.5,0.1,0.9,0.3,1.3s0.5,0.8,0.8,1.1c0.3,0.3,0.7,0.6,1.2,0.7
				s0.9,0.3,1.4,0.3c0.8,0,1.4-0.2,2-0.5s1-0.7,1.3-1.2l1.6,1.3c-0.6,0.8-1.3,1.4-2.1,1.8c-0.8,0.4-1.7,0.6-2.7,0.6
				c-0.9,0-1.7-0.1-2.4-0.4s-1.4-0.7-1.9-1.2c-0.5-0.5-0.9-1.1-1.2-1.9c-0.3-0.7-0.5-1.6-0.5-2.4c0-0.9,0.1-1.7,0.4-2.4
				s0.7-1.4,1.2-1.9c0.5-0.5,1.2-0.9,1.9-1.2c0.7-0.3,1.5-0.4,2.3-0.4c0.8,0,1.6,0.1,2.3,0.4c0.7,0.3,1.3,0.7,1.7,1.2
				c0.5,0.5,0.8,1.1,1.1,1.9C611.7,553.9,611.8,554.8,611.8,555.7z M609.5,554.8c0-0.4-0.1-0.9-0.2-1.3c-0.1-0.4-0.3-0.7-0.6-1
				c-0.3-0.3-0.6-0.5-1-0.7c-0.4-0.2-0.9-0.3-1.4-0.3c-0.5,0-0.9,0.1-1.4,0.3s-0.8,0.4-1.1,0.7c-0.3,0.3-0.6,0.6-0.8,1
				c-0.2,0.4-0.3,0.8-0.3,1.3H609.5z"/>
			<path d="M620.7,553c-0.3-0.4-0.6-0.8-1.1-1s-1-0.4-1.6-0.4c-0.3,0-0.5,0-0.8,0.1c-0.3,0.1-0.5,0.1-0.7,0.3s-0.4,0.3-0.5,0.5
				c-0.1,0.2-0.2,0.4-0.2,0.7c0,0.5,0.2,0.8,0.6,1.1c0.4,0.2,1.1,0.4,1.9,0.6c0.5,0.1,1,0.3,1.5,0.5c0.5,0.2,0.9,0.4,1.2,0.7
				c0.3,0.3,0.6,0.6,0.8,0.9s0.3,0.8,0.3,1.3c0,0.7-0.1,1.2-0.4,1.7c-0.3,0.5-0.6,0.8-1,1.1s-0.9,0.5-1.5,0.6s-1.1,0.2-1.7,0.2
				c-0.9,0-1.7-0.2-2.5-0.5s-1.5-0.8-2.1-1.5l1.6-1.4c0.3,0.4,0.7,0.8,1.3,1.1s1.1,0.5,1.8,0.5c0.3,0,0.6,0,0.8-0.1
				c0.3-0.1,0.5-0.1,0.7-0.3c0.2-0.1,0.4-0.3,0.5-0.5c0.1-0.2,0.2-0.5,0.2-0.8c0-0.5-0.3-0.9-0.8-1.2s-1.2-0.5-2.2-0.7
				c-0.4-0.1-0.8-0.2-1.2-0.3c-0.4-0.1-0.7-0.3-1.1-0.6s-0.6-0.5-0.8-0.9c-0.2-0.4-0.3-0.8-0.3-1.3c0-0.6,0.1-1.1,0.4-1.6
				c0.2-0.4,0.6-0.8,1-1.1c0.4-0.3,0.9-0.5,1.4-0.6c0.5-0.1,1-0.2,1.6-0.2c0.8,0,1.6,0.2,2.4,0.5c0.8,0.3,1.3,0.8,1.8,1.4L620.7,553
				z"/>
			<path d="M631.3,550.1l2.6,8.7h0l2.7-8.7h2.4l2.8,8.7h0l2.6-8.7h2.4l-3.8,11.4h-2.4l-2.8-8.5h0l-2.8,8.5h-2.4l-3.8-11.4H631.3z"/>
			<path d="M651.3,546c0,0.4-0.1,0.8-0.4,1c-0.3,0.3-0.6,0.4-1.1,0.4s-0.8-0.1-1-0.4c-0.3-0.3-0.4-0.6-0.4-1c0-0.4,0.1-0.8,0.4-1
				c0.3-0.3,0.6-0.4,1-0.4s0.8,0.1,1.1,0.4C651.2,545.2,651.3,545.6,651.3,546z M650.9,561.5h-2.3v-11.4h2.3V561.5z"/>
			<path d="M660.1,551.9h-3v5.9c0,0.7,0.1,1.2,0.4,1.5s0.7,0.4,1.2,0.4c0.2,0,0.4,0,0.7-0.1c0.2,0,0.5-0.1,0.6-0.2l0.1,1.8
				c-0.3,0.1-0.6,0.2-0.9,0.2c-0.3,0.1-0.7,0.1-1,0.1c-1.1,0-1.9-0.3-2.5-0.9c-0.6-0.6-0.9-1.5-0.9-2.7v-6.2h-2.2v-1.8h2.2v-3.3h2.2
				v3.3h3L660.1,551.9L660.1,551.9z"/>
			<path d="M664.4,551.8c0.3-0.6,0.7-1,1.4-1.4c0.7-0.4,1.4-0.6,2.2-0.6c0.7,0,1.4,0.1,1.9,0.4s1,0.6,1.3,1c0.4,0.4,0.6,0.9,0.8,1.5
				c0.2,0.6,0.3,1.2,0.3,1.8v7.1H670v-6.3c0-0.5,0-0.9-0.1-1.3c-0.1-0.4-0.2-0.8-0.4-1.1c-0.2-0.3-0.5-0.6-0.8-0.8s-0.8-0.3-1.3-0.3
				c-0.9,0-1.6,0.3-2.2,1c-0.6,0.7-0.9,1.6-0.9,2.7v6h-2.3v-18.1h2.3L664.4,551.8L664.4,551.8L664.4,551.8z"/>
			<path d="M687.2,555.7c0,0.9-0.2,1.7-0.5,2.4s-0.7,1.4-1.3,1.9s-1.2,1-2,1.2s-1.6,0.4-2.4,0.4c-0.9,0-1.7-0.1-2.4-0.4
				c-0.8-0.3-1.4-0.7-1.9-1.2s-1-1.2-1.3-1.9c-0.3-0.7-0.5-1.5-0.5-2.4s0.2-1.7,0.5-2.4c0.3-0.7,0.7-1.4,1.3-1.9s1.2-0.9,1.9-1.2
				c0.8-0.3,1.6-0.4,2.4-0.4c0.9,0,1.7,0.1,2.4,0.4c0.8,0.3,1.4,0.7,2,1.2s1,1.2,1.3,1.9C687.1,554.1,687.2,554.9,687.2,555.7z
				 M684.9,555.8c0-0.5-0.1-1.1-0.3-1.6c-0.2-0.5-0.4-0.9-0.7-1.3s-0.7-0.7-1.2-0.9c-0.5-0.2-1-0.3-1.6-0.3c-0.6,0-1.2,0.1-1.6,0.3
				c-0.5,0.2-0.9,0.5-1.2,0.9c-0.3,0.4-0.6,0.8-0.7,1.3c-0.2,0.5-0.3,1-0.3,1.6c0,0.5,0.1,1.1,0.3,1.6c0.2,0.5,0.4,0.9,0.7,1.3
				c0.3,0.4,0.7,0.7,1.2,0.9s1,0.3,1.6,0.3c0.6,0,1.2-0.1,1.6-0.3c0.5-0.2,0.9-0.5,1.2-0.9s0.6-0.8,0.7-1.3
				C684.8,556.8,684.9,556.3,684.9,555.8z"/>
			<path d="M698,561.5c0-0.3-0.1-0.6-0.1-1s0-0.7,0-0.9h0c-0.3,0.6-0.8,1.1-1.5,1.5c-0.7,0.4-1.4,0.6-2.3,0.6
				c-0.7,0-1.4-0.1-1.9-0.4c-0.5-0.2-1-0.6-1.3-1c-0.3-0.4-0.6-0.9-0.8-1.5c-0.2-0.6-0.3-1.2-0.3-1.8v-7.1h2.3v6.3
				c0,0.5,0,0.9,0.1,1.3s0.2,0.8,0.4,1.1c0.2,0.3,0.5,0.6,0.8,0.8s0.8,0.3,1.3,0.3c0.9,0,1.6-0.3,2.2-1c0.6-0.7,0.8-1.6,0.8-2.7v-6
				h2.3v8.9c0,0.3,0,0.7,0,1.2c0,0.5,0,0.9,0.1,1.3L698,561.5L698,561.5z"/>
			<path d="M709.2,551.9h-3v5.9c0,0.7,0.1,1.2,0.4,1.5s0.7,0.4,1.2,0.4c0.2,0,0.4,0,0.7-0.1c0.2,0,0.5-0.1,0.6-0.2l0.1,1.8
				c-0.3,0.1-0.6,0.2-0.9,0.2c-0.3,0.1-0.7,0.1-1,0.1c-1.1,0-1.9-0.3-2.5-0.9c-0.6-0.6-0.9-1.5-0.9-2.7v-6.2h-2.2v-1.8h2.2v-3.3h2.2
				v3.3h3L709.2,551.9L709.2,551.9z"/>
			<path d="M724.8,561.5c0-0.3-0.1-0.6-0.1-1s0-0.7,0-0.9h0c-0.3,0.6-0.8,1.1-1.5,1.5c-0.7,0.4-1.4,0.6-2.3,0.6
				c-0.7,0-1.4-0.1-1.9-0.4c-0.5-0.2-1-0.6-1.3-1c-0.3-0.4-0.6-0.9-0.8-1.5c-0.2-0.6-0.3-1.2-0.3-1.8v-7.1h2.3v6.3
				c0,0.5,0,0.9,0.1,1.3s0.2,0.8,0.4,1.1c0.2,0.3,0.5,0.6,0.8,0.8s0.8,0.3,1.3,0.3c0.9,0,1.6-0.3,2.2-1c0.6-0.7,0.8-1.6,0.8-2.7v-6
				h2.3v8.9c0,0.3,0,0.7,0,1.2c0,0.5,0,0.9,0.1,1.3L724.8,561.5L724.8,561.5z"/>
			<path d="M736.5,553c-0.3-0.4-0.6-0.8-1.1-1s-1-0.4-1.6-0.4c-0.3,0-0.5,0-0.8,0.1c-0.3,0.1-0.5,0.1-0.7,0.3s-0.4,0.3-0.5,0.5
				c-0.1,0.2-0.2,0.4-0.2,0.7c0,0.5,0.2,0.8,0.6,1.1c0.4,0.2,1.1,0.4,1.9,0.6c0.5,0.1,1,0.3,1.5,0.5c0.5,0.2,0.9,0.4,1.2,0.7
				c0.3,0.3,0.6,0.6,0.8,0.9s0.3,0.8,0.3,1.3c0,0.7-0.1,1.2-0.4,1.7c-0.3,0.5-0.6,0.8-1,1.1s-0.9,0.5-1.5,0.6s-1.1,0.2-1.7,0.2
				c-0.9,0-1.7-0.2-2.5-0.5s-1.5-0.8-2.1-1.5l1.6-1.4c0.3,0.4,0.7,0.8,1.3,1.1s1.1,0.5,1.8,0.5c0.3,0,0.6,0,0.8-0.1
				c0.3-0.1,0.5-0.1,0.7-0.3c0.2-0.1,0.4-0.3,0.5-0.5c0.1-0.2,0.2-0.5,0.2-0.8c0-0.5-0.3-0.9-0.8-1.2s-1.2-0.5-2.2-0.7
				c-0.4-0.1-0.8-0.2-1.2-0.3c-0.4-0.1-0.7-0.3-1.1-0.6s-0.6-0.5-0.8-0.9c-0.2-0.4-0.3-0.8-0.3-1.3c0-0.6,0.1-1.1,0.4-1.6
				c0.2-0.4,0.6-0.8,1-1.1c0.4-0.3,0.9-0.5,1.4-0.6c0.5-0.1,1-0.2,1.6-0.2c0.8,0,1.6,0.2,2.4,0.5c0.8,0.3,1.3,0.8,1.8,1.4L736.5,553
				z"/>
			<path d="M743.3,546c0,0.4-0.1,0.8-0.4,1c-0.3,0.3-0.6,0.4-1.1,0.4s-0.8-0.1-1-0.4c-0.3-0.3-0.4-0.6-0.4-1c0-0.4,0.1-0.8,0.4-1
				c0.3-0.3,0.6-0.4,1-0.4s0.8,0.1,1.1,0.4C743.2,545.2,743.3,545.6,743.3,546z M743,561.5h-2.3v-11.4h2.3V561.5z"/>
			<path d="M748.6,550.1c0,0.3,0.1,0.6,0.1,1c0,0.4,0,0.7,0,0.9h0.1c0.1-0.3,0.3-0.6,0.6-0.9c0.2-0.3,0.5-0.5,0.9-0.7
				s0.7-0.4,1.1-0.5c0.4-0.1,0.8-0.2,1.2-0.2c0.7,0,1.4,0.1,1.9,0.4s1,0.6,1.3,1c0.4,0.4,0.6,0.9,0.8,1.5c0.2,0.6,0.3,1.2,0.3,1.8
				v7.1h-2.3v-6.3c0-0.5,0-0.9-0.1-1.3c-0.1-0.4-0.2-0.8-0.4-1.1s-0.5-0.6-0.8-0.8c-0.3-0.2-0.8-0.3-1.3-0.3c-0.9,0-1.6,0.3-2.2,1
				s-0.9,1.6-0.9,2.7v6h-2.3v-8.9c0-0.3,0-0.7,0-1.2c0-0.5,0-0.9-0.1-1.3L748.6,550.1L748.6,550.1z"/>
			<path d="M761,563.4c0.5,0.6,1.1,1,1.9,1.3c0.7,0.3,1.5,0.5,2.3,0.5c0.8,0,1.4-0.1,1.9-0.3c0.5-0.2,0.9-0.5,1.2-0.9
				s0.5-0.8,0.7-1.3s0.2-1.1,0.2-1.7v-1.5h0c-0.4,0.6-1,1.1-1.7,1.5c-0.7,0.3-1.5,0.5-2.3,0.5c-0.9,0-1.7-0.2-2.4-0.5
				s-1.3-0.7-1.8-1.2c-0.5-0.5-0.9-1.1-1.2-1.9c-0.3-0.7-0.4-1.5-0.4-2.3s0.1-1.6,0.4-2.3c0.3-0.7,0.7-1.3,1.2-1.9
				c0.5-0.5,1.1-1,1.8-1.3c0.7-0.3,1.5-0.5,2.4-0.5c0.8,0,1.6,0.2,2.3,0.5c0.7,0.4,1.3,0.9,1.8,1.6h0v-1.8h2.2v10.8
				c0,0.8-0.1,1.6-0.3,2.4c-0.2,0.8-0.6,1.4-1.1,2s-1.1,1.1-1.9,1.4s-1.8,0.5-3,0.5c-1,0-2-0.2-3-0.5c-1-0.4-1.9-0.9-2.6-1.5
				L761,563.4z M761.7,555.6c0,0.5,0.1,1,0.3,1.5c0.2,0.5,0.4,0.9,0.7,1.3s0.7,0.7,1.2,0.9c0.5,0.2,1,0.3,1.6,0.3
				c0.6,0,1.1-0.1,1.6-0.3s0.9-0.5,1.2-0.9s0.6-0.8,0.8-1.3s0.3-1,0.3-1.6c0-0.5-0.1-1.1-0.3-1.5s-0.4-0.9-0.8-1.3
				c-0.3-0.4-0.8-0.7-1.2-0.9c-0.5-0.2-1-0.3-1.6-0.3c-0.6,0-1.1,0.1-1.6,0.3c-0.5,0.2-0.9,0.5-1.2,0.9c-0.3,0.4-0.6,0.8-0.7,1.3
				C761.8,554.6,761.7,555.1,761.7,555.6z"/>
			<path d="M386.9,589.8c0.3-0.6,0.7-1,1.4-1.4c0.7-0.4,1.4-0.6,2.2-0.6c0.7,0,1.4,0.1,1.9,0.4s1,0.6,1.3,1s0.6,0.9,0.8,1.5
				c0.2,0.6,0.3,1.2,0.3,1.8v7.1h-2.3v-6.3c0-0.5,0-0.9-0.1-1.3s-0.2-0.8-0.4-1.1c-0.2-0.3-0.5-0.6-0.8-0.8
				c-0.3-0.2-0.8-0.3-1.3-0.3c-0.9,0-1.6,0.3-2.2,1c-0.6,0.7-0.9,1.6-0.9,2.7v6h-2.3v-18.1h2.3L386.9,589.8L386.9,589.8L386.9,589.8
				z"/>
			<path d="M405.3,592.1c0-0.8-0.3-1.5-0.8-1.9s-1.2-0.6-2-0.6c-0.6,0-1.2,0.1-1.8,0.4c-0.6,0.2-1,0.6-1.4,0.9l-1.2-1.4
				c0.6-0.5,1.2-0.9,2.1-1.2s1.7-0.5,2.6-0.5c0.8,0,1.5,0.1,2.1,0.3s1.1,0.5,1.5,0.9s0.7,0.9,0.9,1.4s0.3,1.1,0.3,1.8v5
				c0,0.4,0,0.8,0,1.2c0,0.4,0.1,0.8,0.1,1h-2c-0.1-0.5-0.2-1.1-0.2-1.6h-0.1c-0.4,0.6-0.9,1.1-1.6,1.4s-1.4,0.5-2.2,0.5
				c-0.4,0-0.9-0.1-1.4-0.2s-0.9-0.3-1.3-0.6c-0.4-0.3-0.7-0.6-1-1.1s-0.4-1-0.4-1.7c0-0.9,0.2-1.5,0.7-2.1s1.1-0.9,1.8-1.2
				s1.6-0.4,2.5-0.5s1.9-0.1,2.9-0.1L405.3,592.1L405.3,592.1z M404.7,594c-0.6,0-1.1,0-1.7,0.1s-1.1,0.1-1.6,0.3
				c-0.5,0.1-0.9,0.4-1.2,0.6c-0.3,0.3-0.5,0.7-0.5,1.2c0,0.3,0.1,0.6,0.2,0.8c0.1,0.2,0.3,0.4,0.5,0.6c0.2,0.1,0.5,0.2,0.7,0.3
				c0.3,0.1,0.6,0.1,0.8,0.1c1.1,0,1.9-0.3,2.4-0.9s0.9-1.4,0.9-2.4V594L404.7,594L404.7,594z"/>
			<path d="M410.8,589.4c0-0.5,0-0.9-0.1-1.3h2.1c0,0.3,0.1,0.6,0.1,1s0,0.7,0,0.9h0.1c0.3-0.7,0.8-1.2,1.4-1.6
				c0.6-0.4,1.3-0.6,2.1-0.6c0.4,0,0.6,0,0.9,0.1l-0.1,2.1c-0.3-0.1-0.7-0.1-1-0.1c-0.5,0-1,0.1-1.4,0.3c-0.4,0.2-0.7,0.5-1,0.8
				s-0.5,0.7-0.6,1.2c-0.1,0.4-0.2,0.9-0.2,1.4v6h-2.3v-8.9C410.8,590.2,410.8,589.8,410.8,589.4z"/>
			<path d="M422.7,588.4c0.6-0.4,1.4-0.6,2.2-0.6c0.8,0,1.5,0.2,2.1,0.5c0.6,0.4,1.1,0.9,1.5,1.8c0.4-0.7,0.9-1.3,1.6-1.7
				c0.7-0.4,1.4-0.6,2.3-0.6c0.7,0,1.4,0.1,1.9,0.4s1,0.6,1.3,1s0.6,0.9,0.8,1.5c0.2,0.6,0.3,1.2,0.3,1.8v7.1h-2.3v-6.3
				c0-0.5,0-0.9-0.1-1.3s-0.2-0.8-0.4-1.1c-0.2-0.3-0.4-0.6-0.8-0.8c-0.3-0.2-0.7-0.3-1.2-0.3c-0.5,0-1,0.1-1.3,0.3
				s-0.7,0.5-0.9,0.8c-0.2,0.3-0.4,0.7-0.5,1.2s-0.2,0.9-0.2,1.3v6.1h-2.3v-6.8c0-0.4,0-0.9-0.1-1.2c-0.1-0.4-0.2-0.7-0.4-0.9
				c-0.2-0.3-0.4-0.5-0.7-0.6c-0.3-0.2-0.7-0.2-1.1-0.2c-0.8,0-1.5,0.3-2.1,1s-0.8,1.6-0.8,2.7v6h-2.3v-8.9c0-0.3,0-0.7,0-1.2
				c0-0.5,0-0.9-0.1-1.3h2.1c0,0.3,0.1,0.6,0.1,1c0,0.4,0,0.7,0,0.9h0.1C421.7,589.3,422.1,588.8,422.7,588.4z"/>
			<path d="M445.4,589.9h-2.6v9.5h-2.3v-9.5h-2.3v-1.8h2.3v-2.4c0-0.7,0.1-1.3,0.2-1.9c0.2-0.6,0.4-1.1,0.7-1.5s0.8-0.7,1.3-1
				c0.5-0.2,1.2-0.4,2-0.4c0.5,0,1,0.1,1.4,0.2l-0.3,1.9c-0.2,0-0.4-0.1-0.5-0.1c-0.2,0-0.4,0-0.6,0c-0.4,0-0.8,0.1-1,0.2
				s-0.5,0.4-0.6,0.6s-0.2,0.5-0.3,0.9s-0.1,0.7-0.1,1v2.4h2.6L445.4,589.9L445.4,589.9z"/>
			<path d="M455.2,599.5c0-0.3-0.1-0.6-0.1-1c0-0.4,0-0.7,0-0.9h0c-0.3,0.6-0.8,1.1-1.5,1.5c-0.7,0.4-1.4,0.6-2.3,0.6
				c-0.7,0-1.4-0.1-1.9-0.4c-0.5-0.2-1-0.6-1.3-1c-0.3-0.4-0.6-0.9-0.8-1.5c-0.2-0.6-0.3-1.2-0.3-1.8v-7.1h2.3v6.3
				c0,0.5,0,0.9,0.1,1.3c0.1,0.4,0.2,0.8,0.4,1.1s0.5,0.6,0.8,0.8s0.8,0.3,1.3,0.3c0.9,0,1.6-0.3,2.2-1s0.8-1.6,0.8-2.7v-6h2.3v8.9
				c0,0.3,0,0.7,0,1.2c0,0.5,0,0.9,0.1,1.3L455.2,599.5L455.2,599.5z"/>
			<path d="M463.1,599.5h-2.3v-18.1h2.3V599.5z"/>
			<path d="M480.3,591c-0.2-0.4-0.6-0.7-1.1-0.9s-1-0.4-1.5-0.4c-0.6,0-1.1,0.1-1.6,0.3c-0.5,0.2-0.8,0.5-1.2,0.9
				c-0.3,0.4-0.6,0.8-0.7,1.3s-0.3,1-0.3,1.6s0.1,1.1,0.3,1.6s0.4,0.9,0.7,1.3c0.3,0.4,0.7,0.7,1.2,0.9c0.5,0.2,1,0.3,1.6,0.3
				c0.6,0,1.1-0.1,1.6-0.3c0.5-0.2,0.9-0.5,1.2-0.9l1.5,1.4c-0.5,0.6-1.1,1-1.8,1.3c-0.7,0.3-1.5,0.5-2.4,0.5
				c-0.9,0-1.7-0.1-2.4-0.4c-0.7-0.3-1.4-0.7-1.9-1.2c-0.5-0.5-1-1.1-1.3-1.9c-0.3-0.7-0.5-1.6-0.5-2.5c0-0.9,0.2-1.7,0.5-2.4
				c0.3-0.7,0.7-1.4,1.3-1.9c0.5-0.5,1.2-0.9,1.9-1.2c0.7-0.3,1.5-0.4,2.4-0.4c0.8,0,1.6,0.2,2.4,0.5c0.8,0.3,1.4,0.8,1.9,1.4
				L480.3,591z"/>
			<path d="M486.1,589.8c0.3-0.6,0.7-1,1.4-1.4c0.7-0.4,1.4-0.6,2.2-0.6c0.7,0,1.4,0.1,1.9,0.4s1,0.6,1.3,1s0.6,0.9,0.8,1.5
				c0.2,0.6,0.3,1.2,0.3,1.8v7.1h-2.3v-6.3c0-0.5,0-0.9-0.1-1.3s-0.2-0.8-0.4-1.1c-0.2-0.3-0.5-0.6-0.8-0.8
				c-0.3-0.2-0.8-0.3-1.3-0.3c-0.9,0-1.6,0.3-2.2,1c-0.6,0.7-0.9,1.6-0.9,2.7v6h-2.3v-18.1h2.3L486.1,589.8L486.1,589.8L486.1,589.8
				z"/>
			<path d="M508.1,593.7c0,0.1,0,0.3,0,0.4s0,0.3,0,0.4h-9c0,0.5,0.1,0.9,0.3,1.3c0.2,0.4,0.5,0.8,0.8,1.1c0.3,0.3,0.7,0.6,1.2,0.7
				s0.9,0.3,1.4,0.3c0.8,0,1.4-0.2,2-0.5s1-0.7,1.3-1.2l1.6,1.3c-0.6,0.8-1.3,1.4-2.1,1.8c-0.8,0.4-1.7,0.6-2.7,0.6
				c-0.9,0-1.7-0.1-2.4-0.4s-1.4-0.7-1.9-1.2c-0.5-0.5-0.9-1.1-1.2-1.9c-0.3-0.7-0.5-1.6-0.5-2.4c0-0.9,0.1-1.7,0.4-2.4
				c0.3-0.7,0.7-1.4,1.2-1.9c0.5-0.5,1.2-0.9,1.9-1.2c0.7-0.3,1.5-0.4,2.3-0.4c0.8,0,1.6,0.1,2.3,0.4c0.7,0.3,1.3,0.7,1.7,1.2
				c0.5,0.5,0.8,1.1,1.1,1.9C508,591.9,508.1,592.8,508.1,593.7z M505.8,592.8c0-0.4-0.1-0.9-0.2-1.3c-0.1-0.4-0.3-0.7-0.6-1
				c-0.3-0.3-0.6-0.5-1-0.7s-0.9-0.3-1.4-0.3c-0.5,0-0.9,0.1-1.4,0.3c-0.4,0.2-0.8,0.4-1.1,0.7s-0.6,0.6-0.8,1
				c-0.2,0.4-0.3,0.8-0.3,1.3H505.8z"/>
			<path d="M514.4,588.4c0.6-0.4,1.4-0.6,2.2-0.6c0.8,0,1.5,0.2,2.1,0.5c0.6,0.4,1.1,0.9,1.5,1.8c0.4-0.7,0.9-1.3,1.6-1.7
				c0.7-0.4,1.4-0.6,2.3-0.6c0.7,0,1.4,0.1,1.9,0.4c0.5,0.2,1,0.6,1.3,1s0.6,0.9,0.8,1.5c0.2,0.6,0.3,1.2,0.3,1.8v7.1h-2.3v-6.3
				c0-0.5,0-0.9-0.1-1.3s-0.2-0.8-0.4-1.1c-0.2-0.3-0.4-0.6-0.8-0.8c-0.3-0.2-0.7-0.3-1.2-0.3c-0.5,0-1,0.1-1.3,0.3
				c-0.4,0.2-0.7,0.5-0.9,0.8c-0.2,0.3-0.4,0.7-0.5,1.2s-0.2,0.9-0.2,1.3v6.1h-2.3v-6.8c0-0.4,0-0.9-0.1-1.2
				c-0.1-0.4-0.2-0.7-0.4-0.9c-0.2-0.3-0.4-0.5-0.7-0.6c-0.3-0.2-0.7-0.2-1.1-0.2c-0.8,0-1.5,0.3-2.1,1c-0.6,0.7-0.8,1.6-0.8,2.7v6
				h-2.3v-8.9c0-0.3,0-0.7,0-1.2c0-0.5,0-0.9-0.1-1.3h2.1c0,0.3,0.1,0.6,0.1,1c0,0.4,0,0.7,0,0.9h0.1
				C513.3,589.3,513.8,588.8,514.4,588.4z"/>
			<path d="M534.4,584c0,0.4-0.1,0.8-0.4,1c-0.3,0.3-0.6,0.4-1.1,0.4s-0.8-0.1-1-0.4c-0.3-0.3-0.4-0.6-0.4-1c0-0.4,0.1-0.8,0.4-1
				c0.3-0.3,0.6-0.4,1-0.4s0.8,0.1,1.1,0.4C534.3,583.2,534.4,583.6,534.4,584z M534,599.5h-2.3v-11.4h2.3V599.5z"/>
			<path d="M545.6,591c-0.2-0.4-0.6-0.7-1.1-0.9c-0.5-0.2-1-0.4-1.5-0.4c-0.6,0-1.1,0.1-1.6,0.3c-0.5,0.2-0.8,0.5-1.2,0.9
				c-0.3,0.4-0.6,0.8-0.7,1.3s-0.3,1-0.3,1.6s0.1,1.1,0.3,1.6s0.4,0.9,0.7,1.3c0.3,0.4,0.7,0.7,1.2,0.9c0.5,0.2,1,0.3,1.6,0.3
				c0.6,0,1.1-0.1,1.6-0.3c0.5-0.2,0.9-0.5,1.2-0.9l1.5,1.4c-0.5,0.6-1.1,1-1.8,1.3c-0.7,0.3-1.5,0.5-2.4,0.5
				c-0.9,0-1.7-0.1-2.4-0.4s-1.4-0.7-1.9-1.2c-0.5-0.5-1-1.1-1.3-1.9c-0.3-0.7-0.5-1.6-0.5-2.5c0-0.9,0.2-1.7,0.5-2.4
				c0.3-0.7,0.7-1.4,1.3-1.9c0.5-0.5,1.2-0.9,1.9-1.2c0.7-0.3,1.5-0.4,2.4-0.4c0.8,0,1.6,0.2,2.4,0.5c0.8,0.3,1.4,0.8,1.9,1.4
				L545.6,591z"/>
			<path d="M556.2,592.1c0-0.8-0.3-1.5-0.8-1.9s-1.2-0.6-2-0.6c-0.6,0-1.2,0.1-1.8,0.4c-0.6,0.2-1,0.6-1.4,0.9l-1.2-1.4
				c0.6-0.5,1.2-0.9,2.1-1.2c0.8-0.3,1.7-0.5,2.6-0.5c0.8,0,1.5,0.1,2.1,0.3c0.6,0.2,1.1,0.5,1.5,0.9s0.7,0.9,0.9,1.4
				c0.2,0.5,0.3,1.1,0.3,1.8v5c0,0.4,0,0.8,0,1.2c0,0.4,0.1,0.8,0.1,1h-2c-0.1-0.5-0.2-1.1-0.2-1.6h-0.1c-0.4,0.6-0.9,1.1-1.6,1.4
				s-1.4,0.5-2.2,0.5c-0.4,0-0.9-0.1-1.4-0.2c-0.5-0.1-0.9-0.3-1.3-0.6c-0.4-0.3-0.7-0.6-1-1.1s-0.4-1-0.4-1.7
				c0-0.9,0.2-1.5,0.7-2.1s1.1-0.9,1.8-1.2c0.8-0.3,1.6-0.4,2.5-0.5s1.9-0.1,2.9-0.1L556.2,592.1L556.2,592.1z M555.6,594
				c-0.6,0-1.1,0-1.7,0.1c-0.6,0-1.1,0.1-1.6,0.3c-0.5,0.1-0.9,0.4-1.2,0.6s-0.5,0.7-0.5,1.2c0,0.3,0.1,0.6,0.2,0.8
				c0.1,0.2,0.3,0.4,0.5,0.6c0.2,0.1,0.5,0.2,0.7,0.3c0.3,0.1,0.6,0.1,0.8,0.1c1.1,0,1.9-0.3,2.4-0.9s0.9-1.4,0.9-2.4V594L555.6,594
				L555.6,594z"/>
			<path d="M564.1,599.5h-2.3v-18.1h2.3V599.5z"/>
			<path d="M573.8,591c-0.3-0.4-0.6-0.8-1.1-1s-1-0.4-1.6-0.4c-0.3,0-0.5,0-0.8,0.1c-0.3,0.1-0.5,0.1-0.7,0.3s-0.4,0.3-0.5,0.5
				c-0.1,0.2-0.2,0.4-0.2,0.7c0,0.5,0.2,0.8,0.6,1.1c0.4,0.2,1.1,0.4,1.9,0.6c0.5,0.1,1,0.3,1.5,0.5c0.5,0.2,0.9,0.4,1.2,0.7
				c0.3,0.3,0.6,0.6,0.8,0.9s0.3,0.8,0.3,1.3c0,0.7-0.1,1.2-0.4,1.7c-0.3,0.5-0.6,0.8-1,1.1s-0.9,0.5-1.5,0.6s-1.1,0.2-1.7,0.2
				c-0.9,0-1.7-0.2-2.5-0.5s-1.5-0.8-2.1-1.5l1.6-1.4c0.3,0.4,0.7,0.8,1.3,1.1s1.1,0.5,1.8,0.5c0.3,0,0.6,0,0.8-0.1
				c0.3-0.1,0.5-0.1,0.7-0.3c0.2-0.1,0.4-0.3,0.5-0.5c0.1-0.2,0.2-0.5,0.2-0.8c0-0.5-0.3-0.9-0.8-1.2s-1.2-0.5-2.2-0.7
				c-0.4-0.1-0.8-0.2-1.2-0.3c-0.4-0.1-0.7-0.3-1.1-0.6s-0.6-0.5-0.8-0.9c-0.2-0.4-0.3-0.8-0.3-1.3c0-0.6,0.1-1.1,0.4-1.6
				c0.2-0.4,0.6-0.8,1-1.1c0.4-0.3,0.9-0.5,1.4-0.6c0.5-0.1,1-0.2,1.6-0.2c0.8,0,1.6,0.2,2.4,0.5c0.8,0.3,1.3,0.8,1.8,1.4L573.8,591
				z"/>
			<path d="M580.7,598c0,0.4-0.2,0.8-0.5,1.1c-0.3,0.3-0.7,0.5-1.2,0.5c-0.4,0-0.8-0.2-1.1-0.5c-0.3-0.3-0.5-0.7-0.5-1.1
				c0-0.4,0.2-0.8,0.5-1.1s0.7-0.5,1.2-0.5s0.8,0.2,1.2,0.5C580.6,597.2,580.7,597.6,580.7,598z"/>
			<path d="M384.6,628.5h2.4v7.1h8.6v-7.1h2.4v17h-2.4v-7.8H387v7.8h-2.4V628.5z"/>
			<path d="M408.7,638.1c0-0.8-0.3-1.5-0.8-1.9s-1.2-0.6-2-0.6c-0.6,0-1.2,0.1-1.8,0.4c-0.6,0.2-1,0.6-1.4,0.9l-1.2-1.4
				c0.6-0.5,1.2-0.9,2.1-1.2s1.7-0.5,2.6-0.5c0.8,0,1.5,0.1,2.1,0.3s1.1,0.5,1.5,0.9s0.7,0.9,0.9,1.4s0.3,1.1,0.3,1.8v5
				c0,0.4,0,0.8,0,1.2c0,0.4,0.1,0.8,0.1,1h-2c-0.1-0.5-0.2-1.1-0.2-1.6h-0.1c-0.4,0.6-0.9,1.1-1.6,1.4s-1.4,0.5-2.2,0.5
				c-0.4,0-0.9-0.1-1.4-0.2s-0.9-0.3-1.3-0.6c-0.4-0.3-0.7-0.6-1-1.1s-0.4-1-0.4-1.7c0-0.9,0.2-1.5,0.7-2.1s1.1-0.9,1.8-1.2
				s1.6-0.4,2.5-0.5s1.9-0.1,2.9-0.1L408.7,638.1L408.7,638.1z M408.2,640c-0.6,0-1.1,0-1.7,0.1s-1.1,0.1-1.6,0.3
				c-0.5,0.1-0.9,0.4-1.2,0.6c-0.3,0.3-0.5,0.7-0.5,1.2c0,0.3,0.1,0.6,0.2,0.8c0.1,0.2,0.3,0.4,0.5,0.6c0.2,0.1,0.5,0.2,0.7,0.3
				c0.3,0.1,0.6,0.1,0.8,0.1c1.1,0,1.9-0.3,2.4-0.9s0.9-1.4,0.9-2.4V640L408.2,640L408.2,640z"/>
			<path d="M414.3,635.4c0-0.5,0-0.9-0.1-1.3h2.1c0,0.3,0.1,0.6,0.1,1s0,0.7,0,0.9h0.1c0.3-0.7,0.8-1.2,1.4-1.6
				c0.6-0.4,1.3-0.6,2.1-0.6c0.4,0,0.6,0,0.9,0.1l-0.1,2.1c-0.3-0.1-0.7-0.1-1-0.1c-0.5,0-1,0.1-1.4,0.3c-0.4,0.2-0.7,0.5-1,0.8
				s-0.5,0.7-0.6,1.2c-0.1,0.4-0.2,0.9-0.2,1.4v6h-2.3v-8.9C414.3,636.2,414.3,635.8,414.3,635.4z"/>
			<path d="M431.3,643.7c-0.4,0.7-1,1.2-1.8,1.6c-0.7,0.4-1.5,0.5-2.3,0.5c-0.9,0-1.7-0.2-2.4-0.5c-0.7-0.3-1.3-0.7-1.8-1.3
				s-0.9-1.2-1.2-1.9c-0.3-0.7-0.4-1.5-0.4-2.4s0.1-1.6,0.4-2.3c0.3-0.7,0.7-1.4,1.2-1.9s1.1-1,1.8-1.3c0.7-0.3,1.5-0.5,2.3-0.5
				c0.9,0,1.7,0.2,2.4,0.6c0.7,0.4,1.2,0.9,1.6,1.4h0v-8.5h2.3v18.1h-2.2L431.3,643.7L431.3,643.7L431.3,643.7z M423.8,639.8
				c0,0.5,0.1,1,0.2,1.5c0.2,0.5,0.4,0.9,0.7,1.3s0.7,0.7,1.2,0.9c0.5,0.2,1,0.3,1.6,0.3c0.6,0,1.1-0.1,1.6-0.3s0.9-0.5,1.2-0.9
				s0.6-0.8,0.8-1.3s0.3-1,0.3-1.6c0-0.5-0.1-1.1-0.3-1.6c-0.2-0.5-0.4-0.9-0.8-1.3s-0.7-0.7-1.2-0.9c-0.5-0.2-1-0.3-1.6-0.3
				c-0.6,0-1.2,0.1-1.6,0.3c-0.5,0.2-0.9,0.5-1.2,0.9s-0.6,0.8-0.7,1.3C423.9,638.7,423.8,639.2,423.8,639.8z"/>
			<path d="M454.2,639.7c0,0.9-0.2,1.7-0.5,2.4c-0.3,0.7-0.7,1.4-1.3,1.9s-1.2,1-2,1.2c-0.8,0.3-1.6,0.4-2.4,0.4s-1.7-0.1-2.4-0.4
				c-0.8-0.3-1.4-0.7-1.9-1.2s-1-1.2-1.3-1.9c-0.3-0.7-0.5-1.5-0.5-2.4s0.2-1.7,0.5-2.4c0.3-0.7,0.7-1.4,1.3-1.9
				c0.5-0.5,1.2-0.9,1.9-1.2c0.8-0.3,1.6-0.4,2.4-0.4s1.7,0.1,2.4,0.4c0.8,0.3,1.4,0.7,2,1.2s1,1.2,1.3,1.9
				C454.1,638.1,454.2,638.9,454.2,639.7z M451.9,639.8c0-0.5-0.1-1.1-0.3-1.6c-0.2-0.5-0.4-0.9-0.7-1.3s-0.7-0.7-1.2-0.9
				c-0.5-0.2-1-0.3-1.6-0.3s-1.2,0.1-1.6,0.3c-0.5,0.2-0.9,0.5-1.2,0.9c-0.3,0.4-0.6,0.8-0.7,1.3c-0.2,0.5-0.3,1-0.3,1.6
				c0,0.5,0.1,1.1,0.3,1.6c0.2,0.5,0.4,0.9,0.7,1.3c0.3,0.4,0.7,0.7,1.2,0.9c0.5,0.2,1,0.3,1.6,0.3s1.2-0.1,1.6-0.3s0.9-0.5,1.2-0.9
				s0.6-0.8,0.7-1.3C451.8,640.8,451.9,640.3,451.9,639.8z"/>
			<path d="M459,634.1c0,0.3,0.1,0.6,0.1,1c0,0.4,0,0.7,0,0.9h0.1c0.1-0.3,0.3-0.6,0.6-0.9c0.2-0.3,0.5-0.5,0.9-0.7
				c0.3-0.2,0.7-0.4,1.1-0.5c0.4-0.1,0.8-0.2,1.2-0.2c0.7,0,1.4,0.1,1.9,0.4c0.5,0.2,1,0.6,1.3,1c0.4,0.4,0.6,0.9,0.8,1.5
				c0.2,0.6,0.3,1.2,0.3,1.8v7.1h-2.3v-6.3c0-0.5,0-0.9-0.1-1.3s-0.2-0.8-0.4-1.1s-0.5-0.6-0.8-0.8c-0.3-0.2-0.8-0.3-1.3-0.3
				c-0.9,0-1.6,0.3-2.2,1s-0.9,1.6-0.9,2.7v6H457v-8.9c0-0.3,0-0.7,0-1.2c0-0.5,0-0.9-0.1-1.3L459,634.1L459,634.1z"/>
			<path d="M477.1,647.4c0.5,0.6,1.1,1,1.9,1.3s1.5,0.5,2.3,0.5c0.8,0,1.4-0.1,1.9-0.3c0.5-0.2,0.9-0.5,1.2-0.9s0.5-0.8,0.7-1.3
				c0.1-0.5,0.2-1.1,0.2-1.7v-1.5h0c-0.4,0.6-1,1.1-1.7,1.5c-0.7,0.3-1.5,0.5-2.3,0.5c-0.9,0-1.7-0.2-2.4-0.5s-1.3-0.7-1.8-1.2
				c-0.5-0.5-0.9-1.1-1.2-1.9s-0.4-1.5-0.4-2.3s0.1-1.6,0.4-2.3c0.3-0.7,0.7-1.3,1.2-1.9c0.5-0.5,1.1-1,1.8-1.3
				c0.7-0.3,1.5-0.5,2.4-0.5c0.8,0,1.6,0.2,2.3,0.5c0.7,0.4,1.3,0.9,1.8,1.6h0v-1.8h2.2v10.8c0,0.8-0.1,1.6-0.3,2.4
				c-0.2,0.8-0.6,1.4-1.1,2s-1.1,1.1-1.9,1.4s-1.8,0.5-3,0.5c-1,0-2-0.2-3-0.5c-1-0.4-1.9-0.9-2.6-1.5L477.1,647.4z M477.8,639.6
				c0,0.5,0.1,1,0.3,1.5c0.2,0.5,0.4,0.9,0.7,1.3s0.7,0.7,1.2,0.9c0.5,0.2,1,0.3,1.6,0.3c0.6,0,1.1-0.1,1.6-0.3s0.9-0.5,1.2-0.9
				s0.6-0.8,0.8-1.3s0.3-1,0.3-1.6c0-0.5-0.1-1.1-0.3-1.5s-0.4-0.9-0.8-1.3c-0.3-0.4-0.8-0.7-1.2-0.9c-0.5-0.2-1-0.3-1.6-0.3
				c-0.6,0-1.1,0.1-1.6,0.3c-0.5,0.2-0.9,0.5-1.2,0.9c-0.3,0.4-0.6,0.8-0.7,1.3C477.9,638.6,477.8,639.1,477.8,639.6z"/>
			<path d="M501.7,639.7c0,0.1,0,0.3,0,0.4s0,0.3,0,0.4h-9c0,0.5,0.1,0.9,0.3,1.3c0.2,0.4,0.5,0.8,0.8,1.1c0.3,0.3,0.7,0.6,1.2,0.7
				s0.9,0.3,1.4,0.3c0.8,0,1.4-0.2,2-0.5s1-0.7,1.3-1.2l1.6,1.3c-0.6,0.8-1.3,1.4-2.1,1.8c-0.8,0.4-1.7,0.6-2.7,0.6
				c-0.9,0-1.7-0.1-2.4-0.4s-1.4-0.7-1.9-1.2c-0.5-0.5-0.9-1.1-1.2-1.9c-0.3-0.7-0.5-1.6-0.5-2.4c0-0.9,0.1-1.7,0.4-2.4
				c0.3-0.7,0.7-1.4,1.2-1.9c0.5-0.5,1.2-0.9,1.9-1.2c0.7-0.3,1.5-0.4,2.3-0.4c0.8,0,1.6,0.1,2.3,0.4c0.7,0.3,1.3,0.7,1.7,1.2
				c0.5,0.5,0.8,1.1,1.1,1.9C501.6,637.9,501.7,638.8,501.7,639.7z M499.4,638.8c0-0.4-0.1-0.9-0.2-1.3c-0.1-0.4-0.3-0.7-0.6-1
				c-0.3-0.3-0.6-0.5-1-0.7s-0.9-0.3-1.4-0.3c-0.5,0-0.9,0.1-1.4,0.3c-0.4,0.2-0.8,0.4-1.1,0.7s-0.6,0.6-0.8,1
				c-0.2,0.4-0.3,0.8-0.3,1.3H499.4z"/>
			<path d="M504.4,635.4c0-0.5,0-0.9-0.1-1.3h2.1c0,0.3,0.1,0.6,0.1,1s0,0.7,0,0.9h0.1c0.3-0.7,0.8-1.2,1.4-1.6
				c0.6-0.4,1.3-0.6,2.1-0.6c0.4,0,0.6,0,0.9,0.1l-0.1,2.1c-0.3-0.1-0.7-0.1-1-0.1c-0.5,0-1,0.1-1.4,0.3c-0.4,0.2-0.7,0.5-1,0.8
				s-0.5,0.7-0.6,1.2c-0.1,0.4-0.2,0.9-0.2,1.4v6h-2.3v-8.9C504.5,636.2,504.4,635.8,504.4,635.4z"/>
			<path d="M516.4,634.4c0.6-0.4,1.4-0.6,2.2-0.6c0.8,0,1.5,0.2,2.1,0.5c0.6,0.4,1.1,0.9,1.5,1.8c0.4-0.7,0.9-1.3,1.6-1.7
				c0.7-0.4,1.4-0.6,2.3-0.6c0.7,0,1.4,0.1,1.9,0.4c0.5,0.2,1,0.6,1.3,1s0.6,0.9,0.8,1.5c0.2,0.6,0.3,1.2,0.3,1.8v7.1H528v-6.3
				c0-0.5,0-0.9-0.1-1.3s-0.2-0.8-0.4-1.1c-0.2-0.3-0.4-0.6-0.8-0.8c-0.3-0.2-0.7-0.3-1.2-0.3c-0.5,0-1,0.1-1.3,0.3
				c-0.4,0.2-0.7,0.5-0.9,0.8c-0.2,0.3-0.4,0.7-0.5,1.2s-0.2,0.9-0.2,1.3v6.1h-2.3v-6.8c0-0.4,0-0.9-0.1-1.2
				c-0.1-0.4-0.2-0.7-0.4-0.9c-0.2-0.3-0.4-0.5-0.7-0.6c-0.3-0.2-0.7-0.2-1.1-0.2c-0.8,0-1.5,0.3-2.1,1c-0.6,0.7-0.8,1.6-0.8,2.7v6
				h-2.3v-8.9c0-0.3,0-0.7,0-1.2c0-0.5,0-0.9-0.1-1.3h2.1c0,0.3,0.1,0.6,0.1,1c0,0.4,0,0.7,0,0.9h0.1
				C515.3,635.3,515.7,634.8,516.4,634.4z"/>
			<path d="M539.9,637c-0.3-0.4-0.6-0.8-1.1-1s-1-0.4-1.6-0.4c-0.3,0-0.5,0-0.8,0.1c-0.3,0.1-0.5,0.1-0.7,0.3s-0.4,0.3-0.5,0.5
				c-0.1,0.2-0.2,0.4-0.2,0.7c0,0.5,0.2,0.8,0.6,1.1c0.4,0.2,1.1,0.4,1.9,0.6c0.5,0.1,1,0.3,1.5,0.5c0.5,0.2,0.9,0.4,1.2,0.7
				c0.3,0.3,0.6,0.6,0.8,0.9s0.3,0.8,0.3,1.3c0,0.7-0.1,1.2-0.4,1.7c-0.3,0.5-0.6,0.8-1,1.1s-0.9,0.5-1.5,0.6s-1.1,0.2-1.7,0.2
				c-0.9,0-1.7-0.2-2.5-0.5s-1.5-0.8-2.1-1.5l1.6-1.4c0.3,0.4,0.7,0.8,1.3,1.1s1.1,0.5,1.8,0.5c0.3,0,0.6,0,0.8-0.1
				c0.3-0.1,0.5-0.1,0.7-0.3c0.2-0.1,0.4-0.3,0.5-0.5c0.1-0.2,0.2-0.5,0.2-0.8c0-0.5-0.3-0.9-0.8-1.2s-1.2-0.5-2.2-0.7
				c-0.4-0.1-0.8-0.2-1.2-0.3c-0.4-0.1-0.7-0.3-1.1-0.6s-0.6-0.5-0.8-0.9c-0.2-0.4-0.3-0.8-0.3-1.3c0-0.6,0.1-1.1,0.4-1.6
				c0.2-0.4,0.6-0.8,1-1.1c0.4-0.3,0.9-0.5,1.4-0.6c0.5-0.1,1-0.2,1.6-0.2c0.8,0,1.6,0.2,2.4,0.5c0.8,0.3,1.3,0.8,1.8,1.4L539.9,637
				z"/>
			<path d="M544.8,648.6h-1.9l1.7-6h2.3L544.8,648.6z"/>
			<path d="M565.4,639.7c0,0.1,0,0.3,0,0.4s0,0.3,0,0.4h-9c0,0.5,0.1,0.9,0.3,1.3s0.5,0.8,0.8,1.1c0.3,0.3,0.7,0.6,1.2,0.7
				s0.9,0.3,1.4,0.3c0.8,0,1.4-0.2,2-0.5s1-0.7,1.3-1.2l1.6,1.3c-0.6,0.8-1.3,1.4-2.1,1.8c-0.8,0.4-1.7,0.6-2.7,0.6
				c-0.9,0-1.7-0.1-2.4-0.4s-1.4-0.7-1.9-1.2c-0.5-0.5-0.9-1.1-1.2-1.9c-0.3-0.7-0.5-1.6-0.5-2.4c0-0.9,0.1-1.7,0.4-2.4
				s0.7-1.4,1.2-1.9c0.5-0.5,1.2-0.9,1.9-1.2c0.7-0.3,1.5-0.4,2.3-0.4c0.8,0,1.6,0.1,2.3,0.4c0.7,0.3,1.3,0.7,1.7,1.2
				c0.5,0.5,0.8,1.1,1.1,1.9C565.3,637.9,565.4,638.8,565.4,639.7z M563.1,638.8c0-0.4-0.1-0.9-0.2-1.3c-0.1-0.4-0.3-0.7-0.6-1
				c-0.3-0.3-0.6-0.5-1-0.7c-0.4-0.2-0.9-0.3-1.4-0.3c-0.5,0-0.9,0.1-1.4,0.3s-0.8,0.4-1.1,0.7c-0.3,0.3-0.6,0.6-0.8,1
				c-0.2,0.4-0.3,0.8-0.3,1.3H563.1z"/>
			<path d="M575.1,638.1c0-0.8-0.3-1.5-0.8-1.9s-1.2-0.6-2-0.6c-0.6,0-1.2,0.1-1.8,0.4c-0.6,0.2-1,0.6-1.4,0.9l-1.2-1.4
				c0.6-0.5,1.2-0.9,2.1-1.2c0.8-0.3,1.7-0.5,2.6-0.5c0.8,0,1.5,0.1,2.1,0.3c0.6,0.2,1.1,0.5,1.5,0.9s0.7,0.9,0.9,1.4
				c0.2,0.5,0.3,1.1,0.3,1.8v5c0,0.4,0,0.8,0,1.2c0,0.4,0.1,0.8,0.1,1h-2c-0.1-0.5-0.2-1.1-0.2-1.6h-0.1c-0.4,0.6-0.9,1.1-1.6,1.4
				s-1.4,0.5-2.2,0.5c-0.4,0-0.9-0.1-1.4-0.2c-0.5-0.1-0.9-0.3-1.3-0.6c-0.4-0.3-0.7-0.6-1-1.1s-0.4-1-0.4-1.7
				c0-0.9,0.2-1.5,0.7-2.1s1.1-0.9,1.8-1.2c0.8-0.3,1.6-0.4,2.5-0.5s1.9-0.1,2.9-0.1L575.1,638.1L575.1,638.1z M574.6,640
				c-0.6,0-1.1,0-1.7,0.1c-0.6,0-1.1,0.1-1.6,0.3c-0.5,0.1-0.9,0.4-1.2,0.6s-0.5,0.7-0.5,1.2c0,0.3,0.1,0.6,0.2,0.8
				c0.1,0.2,0.3,0.4,0.5,0.6c0.2,0.1,0.5,0.2,0.7,0.3c0.3,0.1,0.6,0.1,0.8,0.1c1.1,0,1.9-0.3,2.4-0.9s0.9-1.4,0.9-2.4V640L574.6,640
				L574.6,640z"/>
			<path d="M586.8,637c-0.3-0.4-0.6-0.8-1.1-1s-1-0.4-1.6-0.4c-0.3,0-0.5,0-0.8,0.1c-0.3,0.1-0.5,0.1-0.7,0.3s-0.4,0.3-0.5,0.5
				c-0.1,0.2-0.2,0.4-0.2,0.7c0,0.5,0.2,0.8,0.6,1.1c0.4,0.2,1.1,0.4,1.9,0.6c0.5,0.1,1,0.3,1.5,0.5c0.5,0.2,0.9,0.4,1.2,0.7
				c0.3,0.3,0.6,0.6,0.8,0.9s0.3,0.8,0.3,1.3c0,0.7-0.1,1.2-0.4,1.7c-0.3,0.5-0.6,0.8-1,1.1s-0.9,0.5-1.5,0.6s-1.1,0.2-1.7,0.2
				c-0.9,0-1.7-0.2-2.5-0.5s-1.5-0.8-2.1-1.5l1.6-1.4c0.3,0.4,0.7,0.8,1.3,1.1s1.1,0.5,1.8,0.5c0.3,0,0.6,0,0.8-0.1
				c0.3-0.1,0.5-0.1,0.7-0.3c0.2-0.1,0.4-0.3,0.5-0.5c0.1-0.2,0.2-0.5,0.2-0.8c0-0.5-0.3-0.9-0.8-1.2s-1.2-0.5-2.2-0.7
				c-0.4-0.1-0.8-0.2-1.2-0.3c-0.4-0.1-0.7-0.3-1.1-0.6s-0.6-0.5-0.8-0.9c-0.2-0.4-0.3-0.8-0.3-1.3c0-0.6,0.1-1.1,0.4-1.6
				c0.2-0.4,0.6-0.8,1-1.1c0.4-0.3,0.9-0.5,1.4-0.6c0.5-0.1,1-0.2,1.6-0.2c0.8,0,1.6,0.2,2.4,0.5c0.8,0.3,1.3,0.8,1.8,1.4L586.8,637
				z"/>
			<path d="M595.3,643L595.3,643l3.2-8.9h2.4l-5.5,14.1c-0.2,0.5-0.4,0.9-0.6,1.3c-0.2,0.4-0.5,0.7-0.8,1c-0.3,0.3-0.7,0.5-1.1,0.6
				c-0.4,0.1-0.9,0.2-1.5,0.2c-0.2,0-0.5,0-0.7,0c-0.2,0-0.5-0.1-0.8-0.1l0.2-2c0.4,0.1,0.8,0.2,1.1,0.2c0.6,0,1-0.2,1.3-0.5
				s0.6-0.8,0.8-1.4l0.7-1.9l-4.9-11.4h2.5L595.3,643z"/>
			<path d="M619.9,639.7c0,0.9-0.2,1.7-0.5,2.4s-0.7,1.4-1.3,1.9s-1.2,1-2,1.2s-1.6,0.4-2.4,0.4c-0.9,0-1.7-0.1-2.4-0.4
				c-0.8-0.3-1.4-0.7-1.9-1.2s-1-1.2-1.3-1.9c-0.3-0.7-0.5-1.5-0.5-2.4s0.2-1.7,0.5-2.4c0.3-0.7,0.7-1.4,1.3-1.9s1.2-0.9,1.9-1.2
				c0.8-0.3,1.6-0.4,2.4-0.4c0.9,0,1.7,0.1,2.4,0.4c0.8,0.3,1.4,0.7,2,1.2s1,1.2,1.3,1.9C619.7,638.1,619.9,638.9,619.9,639.7z
				 M617.5,639.8c0-0.5-0.1-1.1-0.3-1.6c-0.2-0.5-0.4-0.9-0.7-1.3s-0.7-0.7-1.2-0.9c-0.5-0.2-1-0.3-1.6-0.3c-0.6,0-1.2,0.1-1.6,0.3
				c-0.5,0.2-0.9,0.5-1.2,0.9c-0.3,0.4-0.6,0.8-0.7,1.3c-0.2,0.5-0.3,1-0.3,1.6c0,0.5,0.1,1.1,0.3,1.6c0.2,0.5,0.4,0.9,0.7,1.3
				c0.3,0.4,0.7,0.7,1.2,0.9s1,0.3,1.6,0.3c0.6,0,1.2-0.1,1.6-0.3c0.5-0.2,0.9-0.5,1.2-0.9s0.6-0.8,0.7-1.3
				C617.5,640.8,617.5,640.3,617.5,639.8z"/>
			<path d="M624.7,634.1c0,0.3,0.1,0.6,0.1,1c0,0.4,0,0.7,0,0.9h0.1c0.1-0.3,0.3-0.6,0.6-0.9c0.2-0.3,0.5-0.5,0.9-0.7
				s0.7-0.4,1.1-0.5c0.4-0.1,0.8-0.2,1.2-0.2c0.7,0,1.4,0.1,1.9,0.4s1,0.6,1.3,1c0.4,0.4,0.6,0.9,0.8,1.5c0.2,0.6,0.3,1.2,0.3,1.8
				v7.1h-2.3v-6.3c0-0.5,0-0.9-0.1-1.3c-0.1-0.4-0.2-0.8-0.4-1.1s-0.5-0.6-0.8-0.8c-0.3-0.2-0.8-0.3-1.3-0.3c-0.9,0-1.6,0.3-2.2,1
				s-0.9,1.6-0.9,2.7v6h-2.3v-8.9c0-0.3,0-0.7,0-1.2c0-0.5,0-0.9-0.1-1.3L624.7,634.1L624.7,634.1z"/>
			<path d="M644.3,635.8c0.3-0.6,0.7-1,1.4-1.4c0.7-0.4,1.4-0.6,2.2-0.6c0.7,0,1.4,0.1,1.9,0.4s1,0.6,1.3,1c0.4,0.4,0.6,0.9,0.8,1.5
				c0.2,0.6,0.3,1.2,0.3,1.8v7.1h-2.3v-6.3c0-0.5,0-0.9-0.1-1.3c-0.1-0.4-0.2-0.8-0.4-1.1c-0.2-0.3-0.5-0.6-0.8-0.8
				s-0.8-0.3-1.3-0.3c-0.9,0-1.6,0.3-2.2,1c-0.6,0.7-0.9,1.6-0.9,2.7v6H642v-18.1h2.3L644.3,635.8L644.3,635.8L644.3,635.8z"/>
			<path d="M663.6,645.5c0-0.3-0.1-0.6-0.1-1s0-0.7,0-0.9h0c-0.3,0.6-0.8,1.1-1.5,1.5c-0.7,0.4-1.4,0.6-2.3,0.6
				c-0.7,0-1.4-0.1-1.9-0.4c-0.5-0.2-1-0.6-1.3-1c-0.3-0.4-0.6-0.9-0.8-1.5c-0.2-0.6-0.3-1.2-0.3-1.8v-7.1h2.3v6.3
				c0,0.5,0,0.9,0.1,1.3s0.2,0.8,0.4,1.1c0.2,0.3,0.5,0.6,0.8,0.8s0.8,0.3,1.3,0.3c0.9,0,1.6-0.3,2.2-1c0.6-0.7,0.8-1.6,0.8-2.7v-6
				h2.3v8.9c0,0.3,0,0.7,0,1.2c0,0.5,0,0.9,0.1,1.3L663.6,645.5L663.6,645.5z"/>
			<path d="M672.8,634.4c0.6-0.4,1.4-0.6,2.2-0.6c0.8,0,1.5,0.2,2.1,0.5c0.6,0.4,1.1,0.9,1.5,1.8c0.4-0.7,0.9-1.3,1.6-1.7
				c0.7-0.4,1.4-0.6,2.3-0.6c0.7,0,1.4,0.1,1.9,0.4c0.5,0.2,1,0.6,1.3,1s0.6,0.9,0.8,1.5c0.2,0.6,0.3,1.2,0.3,1.8v7.1h-2.3v-6.3
				c0-0.5,0-0.9-0.1-1.3s-0.2-0.8-0.4-1.1c-0.2-0.3-0.4-0.6-0.8-0.8c-0.3-0.2-0.7-0.3-1.2-0.3c-0.5,0-1,0.1-1.3,0.3
				c-0.4,0.2-0.7,0.5-0.9,0.8c-0.2,0.3-0.4,0.7-0.5,1.2s-0.2,0.9-0.2,1.3v6.1h-2.3v-6.8c0-0.4,0-0.9-0.1-1.2
				c-0.1-0.4-0.2-0.7-0.4-0.9c-0.2-0.3-0.4-0.5-0.7-0.6c-0.3-0.2-0.7-0.2-1.1-0.2c-0.8,0-1.5,0.3-2.1,1c-0.6,0.7-0.8,1.6-0.8,2.7v6
				h-2.3v-8.9c0-0.3,0-0.7,0-1.2c0-0.5,0-0.9-0.1-1.3h2.1c0,0.3,0.1,0.6,0.1,1c0,0.4,0,0.7,0,0.9h0.1
				C671.7,635.3,672.1,634.8,672.8,634.4z"/>
			<path d="M697.2,638.1c0-0.8-0.3-1.5-0.8-1.9s-1.2-0.6-2-0.6c-0.6,0-1.2,0.1-1.8,0.4c-0.6,0.2-1,0.6-1.4,0.9l-1.2-1.4
				c0.6-0.5,1.2-0.9,2.1-1.2c0.8-0.3,1.7-0.5,2.6-0.5c0.8,0,1.5,0.1,2.1,0.3c0.6,0.2,1.1,0.5,1.5,0.9s0.7,0.9,0.9,1.4
				c0.2,0.5,0.3,1.1,0.3,1.8v5c0,0.4,0,0.8,0,1.2c0,0.4,0.1,0.8,0.1,1h-2c-0.1-0.5-0.2-1.1-0.2-1.6h-0.1c-0.4,0.6-0.9,1.1-1.6,1.4
				s-1.4,0.5-2.2,0.5c-0.4,0-0.9-0.1-1.4-0.2c-0.5-0.1-0.9-0.3-1.3-0.6c-0.4-0.3-0.7-0.6-1-1.1s-0.4-1-0.4-1.7
				c0-0.9,0.2-1.5,0.7-2.1s1.1-0.9,1.8-1.2c0.8-0.3,1.6-0.4,2.5-0.5s1.9-0.1,2.9-0.1L697.2,638.1L697.2,638.1z M696.6,640
				c-0.6,0-1.1,0-1.7,0.1c-0.6,0-1.1,0.1-1.6,0.3c-0.5,0.1-0.9,0.4-1.2,0.6s-0.5,0.7-0.5,1.2c0,0.3,0.1,0.6,0.2,0.8
				c0.1,0.2,0.3,0.4,0.5,0.6c0.2,0.1,0.5,0.2,0.7,0.3c0.3,0.1,0.6,0.1,0.8,0.1c1.1,0,1.9-0.3,2.4-0.9s0.9-1.4,0.9-2.4V640L696.6,640
				L696.6,640z"/>
			<path d="M704.8,634.1c0,0.3,0.1,0.6,0.1,1c0,0.4,0,0.7,0,0.9h0.1c0.1-0.3,0.3-0.6,0.6-0.9c0.2-0.3,0.5-0.5,0.9-0.7
				s0.7-0.4,1.1-0.5c0.4-0.1,0.8-0.2,1.2-0.2c0.7,0,1.4,0.1,1.9,0.4s1,0.6,1.3,1c0.4,0.4,0.6,0.9,0.8,1.5c0.2,0.6,0.3,1.2,0.3,1.8
				v7.1h-2.3v-6.3c0-0.5,0-0.9-0.1-1.3c-0.1-0.4-0.2-0.8-0.4-1.1s-0.5-0.6-0.8-0.8c-0.3-0.2-0.8-0.3-1.3-0.3c-0.9,0-1.6,0.3-2.2,1
				s-0.9,1.6-0.9,2.7v6h-2.3v-8.9c0-0.3,0-0.7,0-1.2c0-0.5,0-0.9-0.1-1.3L704.8,634.1L704.8,634.1z"/>
			<path d="M722.5,637c-0.3-0.4-0.6-0.8-1.1-1s-1-0.4-1.6-0.4c-0.3,0-0.5,0-0.8,0.1c-0.3,0.1-0.5,0.1-0.7,0.3s-0.4,0.3-0.5,0.5
				c-0.1,0.2-0.2,0.4-0.2,0.7c0,0.5,0.2,0.8,0.6,1.1c0.4,0.2,1.1,0.4,1.9,0.6c0.5,0.1,1,0.3,1.5,0.5c0.5,0.2,0.9,0.4,1.2,0.7
				c0.3,0.3,0.6,0.6,0.8,0.9s0.3,0.8,0.3,1.3c0,0.7-0.1,1.2-0.4,1.7c-0.3,0.5-0.6,0.8-1,1.1s-0.9,0.5-1.5,0.6s-1.1,0.2-1.7,0.2
				c-0.9,0-1.7-0.2-2.5-0.5s-1.5-0.8-2.1-1.5l1.6-1.4c0.3,0.4,0.7,0.8,1.3,1.1s1.1,0.5,1.8,0.5c0.3,0,0.6,0,0.8-0.1
				c0.3-0.1,0.5-0.1,0.7-0.3c0.2-0.1,0.4-0.3,0.5-0.5c0.1-0.2,0.2-0.5,0.2-0.8c0-0.5-0.3-0.9-0.8-1.2s-1.2-0.5-2.2-0.7
				c-0.4-0.1-0.8-0.2-1.2-0.3c-0.4-0.1-0.7-0.3-1.1-0.6s-0.6-0.5-0.8-0.9c-0.2-0.4-0.3-0.8-0.3-1.3c0-0.6,0.1-1.1,0.4-1.6
				c0.2-0.4,0.6-0.8,1-1.1c0.4-0.3,0.9-0.5,1.4-0.6c0.5-0.1,1-0.2,1.6-0.2c0.8,0,1.6,0.2,2.4,0.5c0.8,0.3,1.3,0.8,1.8,1.4L722.5,637
				z"/>
			<path d="M729.4,644c0,0.4-0.2,0.8-0.5,1.1c-0.3,0.3-0.7,0.5-1.2,0.5c-0.4,0-0.8-0.2-1.1-0.5c-0.3-0.3-0.5-0.7-0.5-1.1
				c0-0.4,0.2-0.8,0.5-1.1s0.7-0.5,1.2-0.5s0.8,0.2,1.2,0.5C729.3,643.2,729.4,643.6,729.4,644z"/>
		</g>
	</g>
	<g id="Logo_Lockup">
		<g id="_x2122_">
			<path d="M511.3,424.3h-0.5v-3h-1.1v-0.4h2.7v0.4h-1.1L511.3,424.3L511.3,424.3z"/>
			<path d="M514.6,423.6L514.6,423.6l1-2.6h0.7v3.4h-0.5v-2.8h0l-1.1,2.8h-0.3l-1.1-2.8h0v2.8h-0.5v-3.4h0.7L514.6,423.6z"/>
		</g>
		<g id="FRESCH">
			<path d="M384.6,437v-16h16.2v2.8h-12.5v4.2h6.8v2.9h-6.8v6.1H384.6z"/>
			<path d="M403.6,437v-16h13.7c2.4,0,3.6,1,3.6,3.1v3.8c0,2.1-1.2,3.1-3.6,3.1h-2.1l7.4,6.1h-5.4l-6.5-6.1h-3.5v6.1H403.6z
				 M415.7,423.7h-8.4v4.5h8.4c0.6,0,1-0.1,1.2-0.2c0.3-0.2,0.5-0.6,0.5-1.1V425c0-0.5-0.2-0.9-0.5-1.1
				C416.7,423.8,416.3,423.7,415.7,423.7z"/>
			<path d="M425.5,437v-16h16.4v2.7h-12.7v3.6h7.4v2.7h-7.4v4H442v3H425.5z"/>
			<path d="M459.7,423.8h-10.5v3.5h10c1.5,0,2.6,0.3,3.2,0.8c0.6,0.5,0.9,1.5,0.9,3v2.2c0,1.5-0.3,2.5-0.9,3s-1.6,0.8-3.2,0.8h-9.9
				c-1.5,0-2.6-0.3-3.2-0.8s-0.9-1.5-0.9-3v-0.4l3.3-0.7v1.9H460v-3.7h-10c-1.5,0-2.6-0.3-3.1-0.8c-0.6-0.5-0.8-1.5-0.8-3v-1.8
				c0-1.5,0.3-2.5,0.8-3c0.6-0.5,1.6-0.8,3.1-0.8h9.1c1.5,0,2.5,0.2,3.1,0.7c0.6,0.5,0.9,1.4,0.9,2.8v0.3l-3.3,0.8L459.7,423.8
				L459.7,423.8z"/>
			<path d="M480.7,423.8h-10.1V434h10.1v-3.5l3.7,0.8v1.9c0,1.5-0.3,2.5-0.8,3s-1.6,0.8-3.1,0.8h-9.6c-1.5,0-2.6-0.3-3.1-0.8
				c-0.6-0.5-0.8-1.5-0.8-3v-8.5c0-1.5,0.3-2.5,0.8-3c0.6-0.5,1.6-0.8,3.1-0.8h9.6c1.5,0,2.6,0.3,3.1,0.8c0.6,0.5,0.8,1.5,0.8,3v1.5
				l-3.7,0.6V423.8z"/>
			<path d="M488.1,437v-16h3.7v6.2h11.7V421h3.8v16h-3.8v-6.9h-11.7v6.9H488.1z"/>
		</g>
		<g id="white_outline_00000166663379627057840630000004663505965967493307_">
			<path id="Q" class="st1" d="M672.4,365.1c-1.5-1.5-4.3-2.2-8.3-2.2H636c-4.1,0-6.7,0.8-8.3,2.2c-1.5,1.5-2.3,4.1-2.3,7.9v20.1
				c0,3.8,0.8,6.5,2.3,7.9c1.5,1.5,4.3,2.2,8.3,2.2h14.9l4.3,9.8h11.4l-4.8-9.8h2.3c4,0,6.7-0.8,8.3-2.2c1.5-1.5,2.3-4.1,2.3-7.9
				v-20.1C674.6,369.2,673.9,366.7,672.4,365.1z M663.5,372.1v21.9h-6.2l-5.3-11.2l-8.5,3.4l3.3,7.8h-10.2v-21.9H663.5L663.5,372.1z
				"/>
			<polygon id="E" class="st1" points="589.6,386.7 607.2,386.7 607.2,377.9 589.6,377.9 589.6,371.7 619.7,371.7 619.7,362.9 
				578.4,362.9 578.4,403.3 620.1,403.3 620.1,393.8 589.6,393.8 			"/>
			<polygon id="T" class="st1" points="528.4,372.1 545.9,372.1 545.9,403.3 557,403.3 557,372.1 574.6,372.1 574.6,362.9 
				528.4,362.9 			"/>
			<path id="R" class="st1" d="M515,389c3.3,0,5.7-0.7,7.3-2s2.5-3.6,2.5-6.5v-9c0-2.9-0.9-5.1-2.5-6.5s-4-2-7.3-2h-33.7v40.4h11
				v-14.4h6.8l15.4,14.4h16.4l-17.6-14.4L515,389L515,389z M513.9,373.7v4.6c0,0.8-0.2,1.3-0.4,1.5c-0.1,0.1-0.7,0.4-2.5,0.4h-18.8
				v-8.4H511c1.8,0,2.3,0.3,2.5,0.4C513.9,372.5,513.9,373.3,513.9,373.7z"/>
			<g id="">
				<rect x="464.8" y="362.9" class="st1" width="11.1" height="11.1"/>
				<path class="st1" d="M464.8,376.2v17.7h-23.1v-17.7h-11.2v17c0,3.8,0.8,6.4,2.3,7.9c1.5,1.5,4.3,2.2,8.3,2.2h24.1
					c4,0,6.7-0.7,8.3-2.2c1.5-1.5,2.3-4.1,2.3-7.9v-17H464.8z"/>
				<rect x="430.6" y="362.9" class="st1" width="11.2" height="11.1"/>
			</g>
			<path id="P" class="st1" d="M423.6,365c-1.6-1.4-4-2-7.3-2h-33.7v40.4h11v-14.9h22.7c3.3,0,5.7-0.7,7.3-2
				c1.6-1.4,2.5-3.6,2.5-6.5v-8.5C426,368.6,425.1,366.3,423.6,365z M393.5,371.8h18.8c1.8,0,2.3,0.3,2.5,0.4c0.3,0.3,0.4,1,0.4,1.5
				v4.1c0,0.8-0.2,1.3-0.4,1.5c-0.1,0.1-0.7,0.4-2.5,0.4h-18.8V371.8z"/>
		</g>
		<g id="PURTEQ_00000166645230741269679490000004985074196439106744_">
			<g>
				<path id="_xAE_" class="st1" d="M675.7,364c0-0.4,0.1-0.8,0.3-1.2c0.2-0.3,0.3-0.7,0.7-0.9c0.3-0.3,0.6-0.5,0.9-0.7
					c0.3-0.2,0.8-0.3,1.2-0.3c0.4,0,0.9,0.1,1.2,0.3c0.3,0.2,0.7,0.3,0.9,0.7c0.3,0.3,0.5,0.6,0.7,0.9c0.2,0.3,0.3,0.8,0.3,1.2
					s-0.1,0.8-0.3,1.2c-0.2,0.4-0.3,0.7-0.7,0.9c-0.3,0.3-0.6,0.5-0.9,0.7c-0.3,0.2-0.8,0.3-1.2,0.3c-0.4,0-0.9-0.1-1.2-0.3
					c-0.3-0.2-0.7-0.3-0.9-0.7c-0.3-0.3-0.5-0.6-0.7-0.9C675.8,364.9,675.7,364.5,675.7,364z M676.1,364c0,0.3,0.1,0.7,0.2,0.9
					c0.2,0.3,0.3,0.6,0.5,0.9c0.3,0.3,0.5,0.4,0.9,0.5c0.3,0.2,0.7,0.2,1,0.2c0.3,0,0.7-0.1,1-0.2c0.3-0.2,0.6-0.3,0.9-0.5
					c0.3-0.3,0.4-0.5,0.5-0.9c0.2-0.3,0.2-0.7,0.2-0.9c0-0.3-0.1-0.7-0.2-1c-0.2-0.3-0.3-0.6-0.5-0.8c-0.2-0.2-0.5-0.4-0.9-0.5
					c-0.3-0.1-0.7-0.2-1-0.2c-0.3,0-0.7,0.1-1,0.2c-0.3,0.2-0.6,0.3-0.9,0.5c-0.3,0.2-0.4,0.5-0.5,0.8
					C676.2,363.3,676.1,363.7,676.1,364z M677.5,362.3h1.2c0.2,0,0.3,0,0.4,0.1c0.2,0,0.3,0.1,0.4,0.2c0.1,0.1,0.2,0.2,0.3,0.3
					s0.1,0.3,0.1,0.4c0,0.3-0.1,0.4-0.2,0.6c-0.2,0.2-0.3,0.3-0.6,0.3l0.9,1.5h-0.8l-0.8-1.5h-0.4v1.5h-0.6L677.5,362.3L677.5,362.3
					z M678.6,363.9c0.2,0,0.3,0,0.5-0.1c0.2-0.1,0.3-0.2,0.3-0.4c0-0.2-0.1-0.3-0.3-0.3c-0.2-0.1-0.3-0.1-0.4-0.1h-0.6v0.9H678.6
					L678.6,363.9z"/>
				<g>
					<path class="st2" d="M626.5,373.1c0-3.5,0.7-5.8,2-7.1s3.8-1.9,7.5-1.9h28.1c3.7,0,6.2,0.7,7.5,1.9c1.3,1.3,2,3.7,2,7.1v20.1
						c0,3.5-0.7,5.9-2,7.2s-3.8,1.9-7.5,1.9H660l4.8,9.8H656l-4.3-9.8h-15.8c-3.7,0-6.2-0.6-7.5-1.9s-2-3.7-2-7.2L626.5,373.1
						L626.5,373.1z M635.4,395h13.1l-3.5-8.3l6.4-2.6l5.1,10.8h8.1v-24.2h-29.3L635.4,395L635.4,395z"/>
					<path class="st2" d="M579.5,402.2V364h39v6.5h-30.1v8.5H606v6.5h-17.6v9.5H619v7.2H579.5L579.5,402.2z"/>
					<path class="st2" d="M555.9,370.9v31.3H547v-31.3h-17.5V364h44v6.8H555.9z"/>
					<path class="st3" d="M482.4,402.2V364H515c3,0,5.2,0.6,6.6,1.8s2,3.1,2,5.6v9c0,2.6-0.7,4.4-2,5.6c-1.4,1.2-3.6,1.8-6.6,1.8h-5
						l17.6,14.4h-12.7l-15.4-14.4h-8.5v14.4L482.4,402.2L482.4,402.2z M511,370.7h-20v10.6h20c1.5,0,2.6-0.3,3.2-0.7
						c0.6-0.4,0.9-1.2,0.9-2.4v-4.6c0-1.1-0.3-1.9-0.9-2.3C513.7,370.9,512.6,370.7,511,370.7z"/>
					<path class="st3" d="M465.9,372.9V364h8.9v8.9H465.9z M465.9,377.4V395h-25.3v-17.7h-8.9v15.9c0,3.5,0.7,5.9,2,7.1
						c1.3,1.3,3.8,1.9,7.5,1.9h24.1c3.7,0,6.2-0.6,7.5-1.9c1.3-1.3,2-3.7,2-7.1v-15.9H465.9z M440.6,372.9V364h-8.9v8.9H440.6z"/>
					<path class="st3" d="M383.6,402.2V364h32.6c3,0,5.2,0.6,6.6,1.8c1.4,1.2,2,3.1,2,5.6v8.5c0,2.6-0.7,4.4-2,5.6
						c-1.4,1.2-3.6,1.8-6.6,1.8h-23.9v14.9L383.6,402.2L383.6,402.2z M412.3,370.7h-20v10.1h20c1.5,0,2.6-0.3,3.2-0.7
						c0.6-0.4,0.9-1.2,0.9-2.4v-4.1c0-1.1-0.3-1.9-0.9-2.3C414.9,370.9,413.9,370.7,412.3,370.7z"/>
				</g>
			</g>
		</g>
	</g>
	<g id="Headline">
		<g>
			<path d="M415.3,183.7c-1.1-1.5-2.6-2.6-4.4-3.3c-1.8-0.7-3.6-1.1-5.3-1.1c-2.2,0-4.2,0.4-6,1.2c-1.8,0.8-3.4,1.9-4.6,3.3
				c-1.3,1.4-2.3,3-3,4.9s-1,3.9-1,6.1c0,2.3,0.3,4.4,1,6.4c0.7,1.9,1.6,3.6,2.9,4.9c1.3,1.4,2.8,2.4,4.5,3.2
				c1.8,0.8,3.7,1.1,5.9,1.1c2.3,0,4.3-0.4,6.1-1.4c1.8-0.9,3.2-2.1,4.3-3.6l6.1,4.3c-1.9,2.4-4.2,4.2-6.9,5.5
				c-2.7,1.3-5.9,1.9-9.5,1.9c-3.3,0-6.4-0.6-9.1-1.6c-2.8-1.1-5.2-2.6-7.2-4.6s-3.6-4.3-4.7-7.1c-1.1-2.7-1.7-5.8-1.7-9.1
				c0-3.4,0.6-6.5,1.8-9.2c1.2-2.7,2.8-5.1,4.9-7c2.1-1.9,4.5-3.4,7.3-4.4c2.8-1,5.8-1.6,9.1-1.6c1.4,0,2.8,0.1,4.3,0.4
				c1.5,0.3,2.9,0.7,4.3,1.2c1.4,0.5,2.6,1.2,3.8,2c1.2,0.8,2.2,1.8,3.1,2.9L415.3,183.7z"/>
			<path d="M426.4,173.7h7.6v35.8H452v6.7h-25.6V173.7z"/>
			<path d="M457.1,173.7h28.1v6.6h-20.6v10.8h19.5v6.4h-19.5v12h21.7v6.7h-29.2L457.1,173.7L457.1,173.7z"/>
			<path d="M507,173.7h6.5l18.3,42.5h-8.6l-4-9.7h-18.4l-3.8,9.7h-8.5L507,173.7z M516.6,200l-6.5-17.3l-6.7,17.3H516.6z"/>
			<path d="M536,173.7h10l19.7,31.8h0.1v-31.8h7.6v42.5h-9.6l-20.2-32.8h-0.1v32.8H536L536,173.7L536,173.7z"/>
			<path d="M603.3,182.6c-0.8-1-1.9-1.9-3.4-2.6c-1.5-0.7-2.9-1.1-4.4-1.1c-0.9,0-1.8,0.1-2.6,0.3c-0.9,0.2-1.7,0.6-2.4,1
				c-0.7,0.5-1.3,1.1-1.8,1.8c-0.5,0.7-0.7,1.6-0.7,2.7c0,1,0.2,1.8,0.6,2.5c0.4,0.7,0.9,1.3,1.6,1.7c0.7,0.5,1.5,0.9,2.5,1.3
				s2.1,0.7,3.3,1.1c1.4,0.4,2.8,0.9,4.2,1.5c1.5,0.6,2.8,1.3,4,2.2c1.2,0.9,2.2,2.1,3,3.5c0.8,1.4,1.2,3.1,1.2,5.2
				c0,2.3-0.4,4.3-1.3,6c-0.8,1.7-2,3.1-3.4,4.2c-1.4,1.1-3,2-4.9,2.5c-1.9,0.6-3.9,0.8-5.9,0.8c-2.8,0-5.5-0.5-8.1-1.5
				c-2.6-1-4.8-2.5-6.5-4.5l5.4-5c1,1.4,2.4,2.6,4.2,3.4s3.5,1.3,5.1,1.3c0.9,0,1.8-0.1,2.7-0.3c0.9-0.2,1.7-0.6,2.5-1.1
				c0.7-0.5,1.3-1.2,1.8-1.9c0.5-0.8,0.7-1.8,0.7-2.9c0-1.1-0.3-2-0.8-2.8c-0.5-0.7-1.2-1.4-2.1-1.9s-1.9-1-3.1-1.4
				c-1.2-0.4-2.5-0.8-3.8-1.3c-1.3-0.4-2.6-0.9-3.8-1.4c-1.3-0.6-2.4-1.3-3.4-2.2c-1-0.9-1.9-2-2.5-3.4c-0.6-1.3-1-3-1-5
				c0-2.2,0.5-4,1.3-5.6c0.9-1.6,2.1-2.9,3.5-3.9s3.1-1.8,5-2.3c1.9-0.5,3.8-0.8,5.7-0.8c2.2,0,4.3,0.4,6.6,1.1
				c2.2,0.8,4.1,1.9,5.8,3.4L603.3,182.6z"/>
			<path d="M613.1,207.9h7l-5.1,15.8h-6.1L613.1,207.9z"/>
			<path d="M641,173.7H656c2.8,0,5.5,0.4,8.3,1.1c2.8,0.7,5.3,1.9,7.6,3.6c2.2,1.7,4.1,3.8,5.5,6.5c1.4,2.7,2.1,6.1,2.1,10.1
				c0,3.7-0.7,6.9-2.1,9.6c-1.4,2.7-3.2,4.9-5.5,6.6c-2.2,1.7-4.8,3-7.6,3.8c-2.8,0.8-5.6,1.2-8.3,1.2H641V173.7z M654.8,209.6
				c2,0,3.9-0.2,5.9-0.7c2-0.5,3.7-1.2,5.3-2.3c1.6-1.1,2.9-2.6,3.9-4.5c1-1.9,1.5-4.3,1.5-7.1c0-3-0.5-5.5-1.5-7.4
				s-2.3-3.4-3.9-4.5s-3.4-1.8-5.3-2.2c-2-0.4-3.9-0.6-5.9-0.6h-6.3v29.4L654.8,209.6L654.8,209.6z"/>
			<path d="M686.8,173.7h7.6v42.5h-7.6V173.7z"/>
			<path d="M725.4,182.6c-0.8-1-1.9-1.9-3.4-2.6c-1.5-0.7-2.9-1.1-4.4-1.1c-0.9,0-1.8,0.1-2.6,0.3c-0.9,0.2-1.7,0.6-2.4,1
				c-0.7,0.5-1.3,1.1-1.8,1.8c-0.5,0.7-0.7,1.6-0.7,2.7c0,1,0.2,1.8,0.6,2.5c0.4,0.7,0.9,1.3,1.6,1.7c0.7,0.5,1.5,0.9,2.5,1.3
				s2.1,0.7,3.3,1.1c1.4,0.4,2.8,0.9,4.2,1.5c1.5,0.6,2.8,1.3,4,2.2c1.2,0.9,2.2,2.1,3,3.5c0.8,1.4,1.2,3.1,1.2,5.2
				c0,2.3-0.4,4.3-1.3,6c-0.8,1.7-2,3.1-3.4,4.2c-1.4,1.1-3,2-4.9,2.5c-1.9,0.6-3.9,0.8-5.9,0.8c-2.8,0-5.5-0.5-8.1-1.5
				c-2.6-1-4.8-2.5-6.5-4.5l5.4-5c1,1.4,2.4,2.6,4.2,3.4s3.5,1.3,5.1,1.3c0.9,0,1.8-0.1,2.7-0.3c0.9-0.2,1.7-0.6,2.5-1.1
				c0.7-0.5,1.3-1.2,1.8-1.9c0.5-0.8,0.7-1.8,0.7-2.9c0-1.1-0.3-2-0.8-2.8c-0.5-0.7-1.2-1.4-2.1-1.9s-1.9-1-3.1-1.4
				c-1.2-0.4-2.5-0.8-3.8-1.3c-1.3-0.4-2.6-0.9-3.8-1.4c-1.3-0.6-2.4-1.3-3.4-2.2c-1-0.9-1.9-2-2.5-3.4c-0.6-1.3-1-3-1-5
				c0-2.2,0.5-4,1.3-5.6c0.9-1.6,2.1-2.9,3.5-3.9s3.1-1.8,5-2.3c1.9-0.5,3.8-0.8,5.7-0.8c2.2,0,4.3,0.4,6.6,1.1
				c2.2,0.8,4.1,1.9,5.8,3.4L725.4,182.6z"/>
			<path d="M738.2,173.7h7.6v42.5h-7.6V173.7z"/>
			<path d="M755.1,173.7h10l19.7,31.8h0.1v-31.8h7.6v42.5h-9.6l-20.2-32.8h-0.1v32.8h-7.6L755.1,173.7L755.1,173.7z"/>
			<path d="M801.9,173.7h27.4v6.6h-19.9V192h18.7v6.4h-18.7v17.9h-7.6V173.7z"/>
			<path d="M836.3,173.7h28.1v6.6h-20.6v10.8h19.5v6.4h-19.5v12h21.7v6.7h-29.2L836.3,173.7L836.3,173.7z"/>
			<path d="M901.1,183.7c-1.1-1.5-2.6-2.6-4.4-3.3c-1.8-0.7-3.6-1.1-5.3-1.1c-2.2,0-4.2,0.4-6,1.2c-1.8,0.8-3.4,1.9-4.6,3.3
				c-1.3,1.4-2.3,3-3,4.9c-0.7,1.9-1,3.9-1,6.1c0,2.3,0.3,4.4,1,6.4c0.7,1.9,1.7,3.6,2.9,4.9c1.3,1.4,2.8,2.4,4.5,3.2
				c1.8,0.8,3.7,1.1,5.9,1.1c2.3,0,4.3-0.4,6.1-1.4c1.8-0.9,3.2-2.1,4.3-3.6l6.1,4.3c-1.9,2.4-4.2,4.2-6.9,5.5
				c-2.7,1.3-5.9,1.9-9.5,1.9c-3.3,0-6.4-0.6-9.2-1.6c-2.8-1.1-5.2-2.6-7.2-4.6c-2-2-3.6-4.3-4.7-7.1c-1.1-2.7-1.7-5.8-1.7-9.1
				c0-3.4,0.6-6.5,1.8-9.2c1.2-2.7,2.8-5.1,4.9-7s4.5-3.4,7.3-4.4c2.8-1,5.8-1.6,9.1-1.6c1.4,0,2.8,0.1,4.3,0.4
				c1.5,0.3,2.9,0.7,4.3,1.2c1.4,0.5,2.6,1.2,3.8,2c1.2,0.8,2.2,1.8,3.1,2.9L901.1,183.7z"/>
			<path d="M922.9,180.3h-13v-6.6h33.6v6.6h-13v35.9h-7.6L922.9,180.3L922.9,180.3z"/>
			<path d="M970,182.6c-0.8-1-1.9-1.9-3.4-2.6c-1.5-0.7-2.9-1.1-4.4-1.1c-0.9,0-1.8,0.1-2.6,0.3c-0.9,0.2-1.7,0.6-2.4,1
				c-0.7,0.5-1.3,1.1-1.8,1.8c-0.5,0.7-0.7,1.6-0.7,2.7c0,1,0.2,1.8,0.6,2.5c0.4,0.7,1,1.3,1.7,1.7c0.7,0.5,1.5,0.9,2.5,1.3
				s2.1,0.7,3.3,1.1c1.4,0.4,2.8,0.9,4.2,1.5c1.5,0.6,2.8,1.3,4,2.2c1.2,0.9,2.2,2.1,3,3.5c0.8,1.4,1.2,3.1,1.2,5.2
				c0,2.3-0.4,4.3-1.3,6c-0.8,1.7-2,3.1-3.4,4.2c-1.4,1.1-3,2-4.9,2.5s-3.9,0.8-5.9,0.8c-2.8,0-5.5-0.5-8.1-1.5
				c-2.6-1-4.8-2.5-6.5-4.5l5.4-5c1,1.4,2.4,2.6,4.2,3.4c1.7,0.8,3.4,1.3,5.1,1.3c0.9,0,1.8-0.1,2.7-0.3c0.9-0.2,1.7-0.6,2.5-1.1
				s1.3-1.2,1.8-1.9c0.5-0.8,0.7-1.8,0.7-2.9c0-1.1-0.3-2-0.8-2.8c-0.5-0.7-1.2-1.4-2.1-1.9c-0.9-0.5-1.9-1-3.1-1.4
				c-1.2-0.4-2.5-0.8-3.8-1.3c-1.3-0.4-2.6-0.9-3.8-1.4c-1.3-0.6-2.4-1.3-3.5-2.2c-1-0.9-1.9-2-2.5-3.4c-0.6-1.3-1-3-1-5
				c0-2.2,0.4-4,1.3-5.6s2.1-2.9,3.5-3.9c1.5-1,3.1-1.8,5-2.3c1.9-0.5,3.8-0.8,5.7-0.8c2.2,0,4.3,0.4,6.6,1.1
				c2.2,0.8,4.1,1.9,5.8,3.4L970,182.6z"/>
			<path d="M979.9,207.9h7l-5.1,15.8h-6.1L979.9,207.9z"/>
			<path d="M398,237.7h6.5l18.3,42.5h-8.6l-4-9.7h-18.4l-3.8,9.7h-8.5L398,237.7z M407.6,264l-6.5-17.3l-6.7,17.3H407.6z"/>
			<path d="M427,237.7h10l19.7,31.8h0.1v-31.8h7.6v42.5h-9.6l-20.2-32.8h-0.1v32.8H427L427,237.7L427,237.7z"/>
			<path d="M473.8,237.7h15.1c2.8,0,5.5,0.4,8.3,1.1c2.8,0.7,5.3,1.9,7.6,3.6c2.2,1.7,4.1,3.8,5.5,6.5c1.4,2.7,2.1,6.1,2.1,10
				c0,3.7-0.7,6.9-2.1,9.6c-1.4,2.7-3.2,4.9-5.5,6.6c-2.2,1.7-4.8,3-7.6,3.8c-2.8,0.8-5.6,1.2-8.3,1.2h-15.1L473.8,237.7
				L473.8,237.7z M487.7,273.6c2,0,3.9-0.2,5.9-0.7c2-0.5,3.7-1.2,5.3-2.3c1.6-1.1,2.9-2.6,3.9-4.5c1-1.9,1.5-4.3,1.5-7.1
				c0-3-0.5-5.5-1.5-7.4s-2.3-3.4-3.9-4.5c-1.6-1.1-3.4-1.8-5.3-2.2c-2-0.4-3.9-0.6-5.9-0.6h-6.3v29.4L487.7,273.6L487.7,273.6z"/>
			<path d="M534.7,237.7h15.1c2.8,0,5.5,0.4,8.3,1.1c2.8,0.7,5.3,1.9,7.6,3.6c2.2,1.7,4.1,3.8,5.5,6.5c1.4,2.7,2.1,6.1,2.1,10
				c0,3.7-0.7,6.9-2.1,9.6c-1.4,2.7-3.2,4.9-5.5,6.6c-2.2,1.7-4.8,3-7.6,3.8c-2.8,0.8-5.6,1.2-8.3,1.2h-15.1V237.7z M548.5,273.6
				c2,0,3.9-0.2,5.9-0.7c2-0.5,3.7-1.2,5.3-2.3c1.6-1.1,2.9-2.6,3.9-4.5c1-1.9,1.5-4.3,1.5-7.1c0-3-0.5-5.5-1.5-7.4
				s-2.3-3.4-3.9-4.5s-3.4-1.8-5.3-2.2c-2-0.4-3.9-0.6-5.9-0.6h-6.3v29.4L548.5,273.6L548.5,273.6z"/>
			<path d="M580.5,237.7h28.1v6.6h-20.6v10.8h19.5v6.4h-19.5v12h21.7v6.7h-29.2V237.7z"/>
			<path d="M615.1,258.8c0-3.4,0.6-6.5,1.7-9.2c1.1-2.7,2.7-5.1,4.7-7s4.4-3.4,7.2-4.4c2.8-1,5.8-1.6,9.1-1.6c3.3,0,6.4,0.5,9.2,1.6
				c2.8,1,5.2,2.5,7.3,4.4s3.6,4.2,4.8,7s1.7,5.8,1.7,9.2c0,3.3-0.6,6.4-1.7,9.1c-1.1,2.7-2.7,5.1-4.8,7.1s-4.5,3.5-7.3,4.6
				s-5.9,1.6-9.2,1.6c-3.3,0-6.3-0.5-9.1-1.6c-2.8-1.1-5.2-2.6-7.2-4.6c-2-2-3.6-4.3-4.7-7.1C615.6,265.2,615.1,262.2,615.1,258.8z
				 M623.3,258.8c0,2.3,0.3,4.4,1.1,6.3c0.7,1.9,1.7,3.5,3,5c1.3,1.4,2.8,2.5,4.6,3.3s3.8,1.2,5.9,1.2s4.1-0.4,5.9-1.2
				c1.8-0.8,3.3-1.9,4.6-3.3c1.3-1.4,2.3-3,3-5c0.7-1.9,1.1-4,1.1-6.3c0-2.2-0.4-4.2-1.1-6.1c-0.7-1.9-1.7-3.5-3-4.9
				c-1.3-1.4-2.8-2.5-4.6-3.3c-1.8-0.8-3.8-1.2-6-1.2c-2.2,0-4.2,0.4-6,1.2c-1.8,0.8-3.3,1.9-4.6,3.3c-1.3,1.4-2.3,3-3,4.9
				C623.6,254.6,623.3,256.6,623.3,258.8z"/>
			<path d="M668,237.7h15.1c2.8,0,5.5,0.4,8.3,1.1c2.8,0.7,5.3,1.9,7.6,3.6c2.2,1.7,4.1,3.8,5.5,6.5c1.4,2.7,2.1,6.1,2.1,10
				c0,3.7-0.7,6.9-2.1,9.6c-1.4,2.7-3.2,4.9-5.5,6.6c-2.2,1.7-4.8,3-7.6,3.8c-2.8,0.8-5.6,1.2-8.3,1.2H668V237.7z M681.9,273.6
				c2,0,3.9-0.2,5.9-0.7c2-0.5,3.7-1.2,5.3-2.3c1.6-1.1,2.9-2.6,3.9-4.5c1-1.9,1.5-4.3,1.5-7.1c0-3-0.5-5.5-1.5-7.4
				c-1-1.9-2.3-3.4-3.9-4.5c-1.6-1.1-3.4-1.8-5.3-2.2c-2-0.4-3.9-0.6-5.9-0.6h-6.3v29.4L681.9,273.6L681.9,273.6z"/>
			<path d="M711.8,258.8c0-3.4,0.6-6.5,1.7-9.2c1.1-2.7,2.7-5.1,4.7-7s4.4-3.4,7.2-4.4c2.8-1,5.8-1.6,9.1-1.6c3.3,0,6.4,0.5,9.2,1.6
				c2.8,1,5.2,2.5,7.3,4.4s3.6,4.2,4.8,7s1.7,5.8,1.7,9.2c0,3.3-0.6,6.4-1.7,9.1c-1.1,2.7-2.7,5.1-4.8,7.1s-4.5,3.5-7.3,4.6
				s-5.9,1.6-9.2,1.6c-3.3,0-6.3-0.5-9.1-1.6c-2.8-1.1-5.2-2.6-7.2-4.6c-2-2-3.6-4.3-4.7-7.1C712.4,265.2,711.8,262.2,711.8,258.8z
				 M720.1,258.8c0,2.3,0.3,4.4,1.1,6.3c0.7,1.9,1.7,3.5,3,5c1.3,1.4,2.8,2.5,4.6,3.3s3.8,1.2,5.9,1.2s4.1-0.4,5.9-1.2
				c1.8-0.8,3.3-1.9,4.6-3.3c1.3-1.4,2.3-3,3-5c0.7-1.9,1.1-4,1.1-6.3c0-2.2-0.4-4.2-1.1-6.1c-0.7-1.9-1.7-3.5-3-4.9
				c-1.3-1.4-2.8-2.5-4.6-3.3c-1.8-0.8-3.8-1.2-6-1.2c-2.2,0-4.2,0.4-6,1.2c-1.8,0.8-3.3,1.9-4.6,3.3c-1.3,1.4-2.3,3-3,4.9
				C720.4,254.6,720.1,256.6,720.1,258.8z"/>
			<path d="M764.8,237.7h14.8c2,0,3.9,0.2,5.8,0.6c1.9,0.4,3.5,1.1,5,2.1s2.6,2.2,3.5,3.8c0.9,1.6,1.3,3.5,1.3,5.7
				c0,3.1-0.9,5.6-2.6,7.5c-1.7,1.9-4.1,3.2-7.1,3.9l11.3,18.8h-9.1l-9.8-18h-5.5v18h-7.6L764.8,237.7L764.8,237.7z M778.6,256
				c1.1,0,2.2-0.1,3.2-0.2s2-0.5,2.9-0.9c0.9-0.4,1.6-1.1,2.1-1.9c0.6-0.8,0.8-1.9,0.8-3.1c0-1.2-0.3-2.1-0.8-2.9
				c-0.5-0.7-1.2-1.3-2-1.8c-0.8-0.4-1.7-0.7-2.7-0.9c-1-0.2-2-0.2-3-0.2h-6.8V256H778.6z"/>
			<path d="M802.6,237.7h7.6v42.5h-7.6V237.7z"/>
			<path d="M816.9,273.4l23.1-29h-22.7v-6.6H849v6.8l-23.2,28.9h23.6v6.7h-32.5V273.4z"/>
			<path d="M856.1,237.7h28.1v6.6h-20.6v10.8h19.5v6.4h-19.5v12h21.7v6.7h-29.2L856.1,237.7L856.1,237.7z"/>
			<path d="M914.4,246.6c-0.8-1-1.9-1.9-3.4-2.6c-1.5-0.7-2.9-1.1-4.4-1.1c-0.9,0-1.8,0.1-2.6,0.3c-0.9,0.2-1.7,0.6-2.4,1
				c-0.7,0.5-1.3,1.1-1.8,1.8c-0.5,0.7-0.7,1.6-0.7,2.7c0,1,0.2,1.8,0.6,2.5c0.4,0.7,1,1.3,1.7,1.7c0.7,0.5,1.5,0.9,2.5,1.3
				s2.1,0.7,3.3,1.1c1.4,0.4,2.8,0.9,4.2,1.5c1.5,0.6,2.8,1.3,4,2.2c1.2,0.9,2.2,2.1,3,3.5c0.8,1.4,1.2,3.1,1.2,5.2
				c0,2.3-0.4,4.3-1.3,6c-0.8,1.7-2,3.1-3.4,4.2c-1.4,1.1-3,2-4.9,2.5s-3.9,0.8-5.9,0.8c-2.8,0-5.5-0.5-8.1-1.5
				c-2.6-1-4.8-2.5-6.5-4.5l5.4-5c1,1.4,2.4,2.6,4.2,3.4c1.7,0.8,3.4,1.3,5.1,1.3c0.9,0,1.8-0.1,2.7-0.3c0.9-0.2,1.7-0.6,2.5-1.1
				s1.3-1.2,1.8-2c0.5-0.8,0.7-1.8,0.7-2.9c0-1.1-0.3-2-0.8-2.8c-0.5-0.7-1.2-1.4-2.1-1.9c-0.9-0.5-1.9-1-3.1-1.4
				c-1.2-0.4-2.5-0.8-3.8-1.3c-1.3-0.4-2.6-0.9-3.8-1.4c-1.3-0.6-2.4-1.3-3.5-2.2c-1-0.9-1.9-2-2.5-3.4c-0.6-1.3-1-3-1-5
				c0-2.2,0.4-4,1.3-5.6s2.1-2.9,3.5-3.9c1.5-1,3.1-1.8,5-2.3c1.9-0.5,3.8-0.8,5.7-0.8c2.2,0,4.3,0.4,6.6,1.1
				c2.2,0.8,4.1,1.9,5.8,3.4L914.4,246.6z"/>
		</g>
	</g>
</g>
<g id="Guides">
</g>
</svg>
