<?xml version="1.0" encoding="utf-8"?>
<!-- Generator: Adobe Illustrator 24.3.0, SVG Export Plug-In . SVG Version: 6.00 Build 0)  -->
<svg version="1.1" id="Layer_1" xmlns="http://www.w3.org/2000/svg" xmlns:xlink="http://www.w3.org/1999/xlink" x="0px" y="0px"
	 viewBox="0 0 1024 747" style="enable-background:new 0 0 1024 747;" xml:space="preserve">
<style type="text/css">
	.st0{fill:none;}
	.st1{fill:#FFFFFF;}
</style>
<rect class="st0" width="1024" height="747"/>
<g id="CTA">
	<path class="st1" d="M860,443l2.2-12.7h2.2l-1.9,10.8h5.5l-0.3,2L860,443L860,443z"/>
	<path class="st1" d="M869.9,443l2.2-12.7h8l-0.3,1.9h-5.9l-0.6,3.3h5.6l-0.3,1.9H873l-0.6,3.7h6.4l-0.3,2L869.9,443L869.9,443z"/>
	<path class="st1" d="M889.5,443l-0.5-2.9h-5.5l-1.8,2.9h-2.6l8.3-12.7h1.9l2.5,12.7H889.5z M887.8,432.8l-3.2,5.3h4.1L887.8,432.8z
		"/>
	<path class="st1" d="M903.6,443h-2.5l-2.4-5.4H897l-1,5.4h-2.2l2.2-12.7h3.8c1.4,0,2.5,0.3,3.2,0.9s1.1,1.4,1.1,2.4
		s-0.3,1.8-0.9,2.5c-0.6,0.6-1.4,1.1-2.4,1.3L903.6,443z M898.9,435.8c1,0,1.7-0.2,2.2-0.5s0.8-0.8,0.8-1.5c0-0.6-0.2-1.1-0.7-1.3
		c-0.4-0.2-1-0.4-1.8-0.4h-1.6l-0.6,3.6L898.9,435.8L898.9,435.8z"/>
	<path class="st1" d="M914,443l-4.2-9.9l0,0L908,443h-2.2l2.2-12.7h2.9l4.1,9.6l0,0l1.7-9.6h2.2l-2.2,12.7H914z"/>
	<path class="st1" d="M937.5,443l1.8-10.3h-0.1l-5.7,10.3H932l-2.1-10.3l0,0L928,443h-2.1l2.2-12.7h3.5l1.7,9.1l0,0l5-9.1h3.5
		l-2.2,12.7H937.5z"/>
	<path class="st1" d="M951,430c0.9,0,1.7,0.1,2.5,0.4c0.7,0.3,1.4,0.6,1.9,1.1s0.9,1.1,1.2,1.7c0.3,0.7,0.4,1.5,0.4,2.3
		c0,1.1-0.2,2.1-0.5,3.1s-0.9,1.8-1.5,2.5s-1.4,1.3-2.3,1.7s-1.9,0.6-2.9,0.6c-0.9,0-1.8-0.1-2.5-0.4c-0.8-0.3-1.4-0.6-1.9-1.1
		s-0.9-1.1-1.2-1.7c-0.3-0.7-0.4-1.5-0.4-2.3c0-1.1,0.2-2.1,0.6-3.1c0.4-1,0.9-1.8,1.6-2.5c0.7-0.7,1.4-1.3,2.3-1.7
		C949,430.2,950,430,951,430z M949.8,441.4c0.8,0,1.5-0.2,2.1-0.5s1.1-0.8,1.6-1.3s0.8-1.2,1-1.8c0.2-0.7,0.3-1.4,0.3-2.1
		c0-0.5-0.1-1-0.3-1.5s-0.4-0.9-0.7-1.2c-0.3-0.3-0.7-0.6-1.2-0.8c-0.5-0.2-1-0.3-1.7-0.3c-0.8,0-1.5,0.2-2.1,0.5s-1.1,0.8-1.6,1.3
		c-0.4,0.5-0.8,1.2-1,1.8c-0.2,0.7-0.4,1.4-0.4,2.1c0,0.5,0.1,1,0.3,1.5s0.4,0.9,0.7,1.2c0.3,0.3,0.7,0.6,1.2,0.8
		C948.6,441.3,949.1,441.4,949.8,441.4z"/>
	<path class="st1" d="M968.6,443h-2.5l-2.4-5.4H962l-1,5.4h-2.2l2.2-12.7h3.8c1.4,0,2.5,0.3,3.2,0.9c0.8,0.6,1.1,1.4,1.1,2.4
		s-0.3,1.8-0.9,2.5c-0.6,0.6-1.4,1.1-2.4,1.3L968.6,443z M963.9,435.8c1,0,1.7-0.2,2.2-0.5s0.8-0.8,0.8-1.5c0-0.6-0.2-1.1-0.7-1.3
		c-0.4-0.2-1-0.4-1.8-0.4h-1.6l-0.6,3.6L963.9,435.8L963.9,435.8z"/>
	<path class="st1" d="M970.8,443l2.2-12.7h8l-0.3,1.9h-5.9l-0.6,3.3h5.6l-0.3,1.9H974l-0.6,3.7h6.4l-0.3,2L970.8,443L970.8,443z"/>
	<polygon class="st1" points="1018.3,436.6 992.7,430.5 991.1,442.7 	"/>
</g>
<g id="Body_Text">
	<g>
		<path class="st1" d="M394.14,282.12h0.05l5.02-13.06h3.7v16.99h-2.38v-14.21h-0.05l-5.64,14.21h-1.51l-5.62-14.21h-0.05v14.21
			h-2.3v-16.99h3.7L394.14,282.12z"/>
		<path class="st1" d="M418.43,280.35c0,0.88-0.16,1.69-0.47,2.42c-0.31,0.74-0.74,1.37-1.3,1.91c-0.55,0.54-1.2,0.95-1.96,1.25
			c-0.75,0.3-1.56,0.44-2.42,0.44c-0.86,0-1.67-0.15-2.42-0.44c-0.75-0.3-1.4-0.71-1.94-1.25c-0.54-0.54-0.97-1.17-1.28-1.91
			c-0.31-0.74-0.47-1.54-0.47-2.42s0.16-1.68,0.47-2.41c0.31-0.73,0.74-1.36,1.28-1.88c0.54-0.53,1.19-0.94,1.94-1.24
			c0.75-0.3,1.56-0.44,2.42-0.44c0.86,0,1.67,0.15,2.42,0.44c0.75,0.3,1.4,0.71,1.96,1.24c0.55,0.53,0.98,1.16,1.3,1.88
			C418.27,278.66,418.43,279.47,418.43,280.35z M416.07,280.36c0-0.54-0.08-1.06-0.25-1.56c-0.17-0.49-0.41-0.93-0.73-1.3
			s-0.72-0.67-1.19-0.9c-0.47-0.22-1.02-0.34-1.62-0.34c-0.61,0-1.15,0.11-1.63,0.34c-0.47,0.22-0.87,0.52-1.19,0.9
			c-0.32,0.38-0.57,0.81-0.73,1.3c-0.17,0.49-0.25,1.01-0.25,1.56c0,0.54,0.08,1.06,0.25,1.56c0.17,0.49,0.41,0.93,0.73,1.32
			c0.32,0.38,0.72,0.69,1.19,0.91c0.47,0.22,1.02,0.33,1.63,0.33c0.61,0,1.15-0.11,1.62-0.33s0.87-0.53,1.19-0.91
			s0.57-0.82,0.73-1.32C415.99,281.42,416.07,280.9,416.07,280.36z"/>
		<path class="st1" d="M423.59,274.68c0.03,0.29,0.06,0.61,0.07,0.97c0.02,0.36,0.02,0.66,0.02,0.9h0.07
			c0.14-0.3,0.34-0.59,0.59-0.85c0.25-0.26,0.53-0.5,0.85-0.7c0.32-0.2,0.67-0.36,1.06-0.47c0.38-0.11,0.78-0.17,1.2-0.17
			c0.74,0,1.37,0.12,1.9,0.37c0.53,0.25,0.97,0.58,1.32,1c0.35,0.42,0.61,0.9,0.78,1.46c0.17,0.56,0.25,1.16,0.25,1.8v7.06h-2.26
			v-6.31c0-0.46-0.04-0.9-0.11-1.32c-0.07-0.42-0.2-0.78-0.4-1.1c-0.19-0.32-0.46-0.58-0.79-0.77s-0.77-0.29-1.3-0.29
			c-0.9,0-1.63,0.34-2.2,1.02c-0.57,0.68-0.85,1.59-0.85,2.72v6.05h-2.26v-8.93c0-0.3-0.01-0.7-0.02-1.18
			c-0.02-0.48-0.04-0.9-0.07-1.27H423.59z"/>
		<path class="st1" d="M438.15,270.58c0,0.42-0.15,0.76-0.44,1.03c-0.29,0.27-0.65,0.41-1.06,0.41s-0.76-0.14-1.05-0.42
			c-0.29-0.28-0.43-0.62-0.43-1.02c0-0.42,0.14-0.76,0.43-1.04c0.29-0.28,0.63-0.42,1.05-0.42s0.77,0.14,1.06,0.42
			C438.01,269.82,438.15,270.16,438.15,270.58z M437.79,286.06h-2.26v-11.38h2.26V286.06z"/>
		<path class="st1" d="M447.3,276.53h-3.02v5.91c0,0.69,0.13,1.18,0.38,1.47c0.26,0.29,0.66,0.44,1.22,0.44
			c0.21,0,0.43-0.02,0.67-0.07c0.24-0.04,0.46-0.11,0.65-0.2l0.07,1.85c-0.27,0.1-0.57,0.17-0.9,0.23
			c-0.33,0.06-0.67,0.08-1.02,0.08c-1.07,0-1.89-0.3-2.46-0.89s-0.85-1.48-0.85-2.66v-6.17h-2.18v-1.85h2.18v-3.26h2.23v3.26h3.02
			V276.53z"/>
		<path class="st1" d="M461.15,280.35c0,0.88-0.16,1.69-0.47,2.42c-0.31,0.74-0.74,1.37-1.3,1.91c-0.55,0.54-1.2,0.95-1.96,1.25
			c-0.75,0.3-1.56,0.44-2.42,0.44c-0.86,0-1.67-0.15-2.42-0.44c-0.75-0.3-1.4-0.71-1.94-1.25c-0.54-0.54-0.97-1.17-1.28-1.91
			c-0.31-0.74-0.47-1.54-0.47-2.42s0.16-1.68,0.47-2.41c0.31-0.73,0.74-1.36,1.28-1.88c0.54-0.53,1.19-0.94,1.94-1.24
			c0.75-0.3,1.56-0.44,2.42-0.44c0.86,0,1.67,0.15,2.42,0.44c0.75,0.3,1.4,0.71,1.96,1.24c0.55,0.53,0.98,1.16,1.3,1.88
			C460.99,278.66,461.15,279.47,461.15,280.35z M458.79,280.36c0-0.54-0.08-1.06-0.25-1.56c-0.17-0.49-0.41-0.93-0.73-1.3
			s-0.72-0.67-1.19-0.9c-0.47-0.22-1.02-0.34-1.62-0.34c-0.61,0-1.15,0.11-1.63,0.34c-0.47,0.22-0.87,0.52-1.19,0.9
			c-0.32,0.38-0.57,0.81-0.73,1.3c-0.17,0.49-0.25,1.01-0.25,1.56c0,0.54,0.08,1.06,0.25,1.56c0.17,0.49,0.41,0.93,0.73,1.32
			c0.32,0.38,0.72,0.69,1.19,0.91c0.47,0.22,1.02,0.33,1.63,0.33c0.61,0,1.15-0.11,1.62-0.33s0.87-0.53,1.19-0.91
			s0.57-0.82,0.73-1.32C458.71,281.42,458.79,280.9,458.79,280.36z"/>
		<path class="st1" d="M464.24,275.96c-0.02-0.48-0.04-0.9-0.07-1.27h2.14c0.03,0.29,0.06,0.62,0.07,1
			c0.02,0.38,0.02,0.68,0.02,0.92h0.07c0.32-0.67,0.79-1.21,1.4-1.62c0.62-0.41,1.31-0.61,2.08-0.61c0.35,0,0.65,0.03,0.89,0.1
			l-0.1,2.09c-0.32-0.08-0.66-0.12-1.03-0.12c-0.54,0-1.02,0.1-1.42,0.3c-0.4,0.2-0.73,0.47-1,0.8s-0.46,0.72-0.59,1.16
			c-0.13,0.44-0.19,0.9-0.19,1.38v5.98h-2.26v-8.93C464.27,276.83,464.26,276.44,464.24,275.96z"/>
		<path class="st1" d="M486.92,277.56c-0.24-0.37-0.6-0.68-1.08-0.92s-0.99-0.37-1.54-0.37c-0.59,0-1.12,0.11-1.57,0.34
			c-0.46,0.22-0.84,0.52-1.16,0.9c-0.32,0.38-0.56,0.81-0.73,1.31c-0.17,0.5-0.25,1.02-0.25,1.56s0.08,1.06,0.25,1.56
			c0.17,0.5,0.41,0.93,0.73,1.31c0.32,0.38,0.71,0.68,1.18,0.9s0.99,0.34,1.58,0.34c0.58,0,1.1-0.11,1.57-0.34
			c0.47-0.22,0.86-0.53,1.16-0.91l1.51,1.37c-0.48,0.56-1.08,1-1.8,1.31c-0.72,0.31-1.54,0.47-2.45,0.47
			c-0.88,0-1.69-0.14-2.44-0.43c-0.74-0.29-1.39-0.69-1.93-1.21c-0.54-0.52-0.97-1.15-1.28-1.88s-0.47-1.56-0.47-2.47
			c0-0.9,0.15-1.71,0.46-2.45c0.3-0.74,0.73-1.37,1.27-1.9c0.54-0.53,1.19-0.94,1.93-1.22c0.74-0.29,1.55-0.43,2.41-0.43
			c0.8,0,1.6,0.16,2.39,0.48c0.79,0.32,1.42,0.78,1.88,1.39L486.92,277.56z"/>
		<path class="st1" d="M493.11,286.06h-2.26v-18.14h2.26V286.06z"/>
		<path class="st1" d="M507.68,280.27c0,0.13,0,0.26,0,0.38s-0.01,0.26-0.02,0.38h-9.05c0.02,0.48,0.12,0.93,0.32,1.35
			c0.2,0.42,0.47,0.79,0.8,1.1c0.34,0.31,0.72,0.55,1.16,0.73s0.91,0.26,1.4,0.26c0.77,0,1.43-0.17,1.99-0.5s1-0.74,1.32-1.22
			l1.58,1.27c-0.61,0.81-1.32,1.4-2.15,1.78c-0.82,0.38-1.74,0.57-2.75,0.57c-0.86,0-1.66-0.14-2.4-0.43s-1.37-0.69-1.9-1.21
			c-0.53-0.52-0.94-1.15-1.25-1.88c-0.3-0.74-0.46-1.55-0.46-2.45c0-0.88,0.15-1.69,0.44-2.44c0.3-0.74,0.71-1.38,1.24-1.91
			c0.53-0.53,1.15-0.94,1.88-1.24c0.72-0.3,1.5-0.44,2.33-0.44c0.83,0,1.59,0.14,2.27,0.41c0.68,0.27,1.26,0.66,1.73,1.18
			c0.47,0.51,0.84,1.13,1.09,1.86C507.55,278.54,507.68,279.36,507.68,280.27z M505.38,279.36c-0.02-0.45-0.09-0.87-0.23-1.26
			c-0.14-0.39-0.34-0.73-0.6-1.02c-0.26-0.29-0.59-0.52-0.98-0.68s-0.85-0.25-1.38-0.25c-0.48,0-0.93,0.08-1.36,0.25
			c-0.42,0.17-0.79,0.4-1.1,0.68s-0.57,0.63-0.77,1.02c-0.2,0.39-0.32,0.81-0.35,1.26H505.38z"/>
		<path class="st1" d="M517.74,278.69c0-0.85-0.26-1.48-0.77-1.88c-0.51-0.41-1.19-0.61-2.04-0.61c-0.64,0-1.24,0.12-1.81,0.37
			c-0.57,0.25-1.04,0.56-1.43,0.95l-1.2-1.44c0.56-0.53,1.24-0.94,2.05-1.25c0.81-0.3,1.68-0.46,2.6-0.46
			c0.82,0,1.52,0.12,2.12,0.35c0.6,0.23,1.09,0.55,1.48,0.95c0.38,0.4,0.67,0.87,0.86,1.42c0.19,0.54,0.29,1.13,0.29,1.75v4.97
			c0,0.38,0.01,0.79,0.04,1.21c0.02,0.42,0.07,0.77,0.13,1.04h-2.04c-0.13-0.54-0.19-1.09-0.19-1.63h-0.07
			c-0.42,0.61-0.94,1.08-1.57,1.42s-1.38,0.5-2.24,0.5c-0.45,0-0.92-0.06-1.4-0.18c-0.49-0.12-0.93-0.32-1.33-0.59
			c-0.4-0.27-0.73-0.63-1-1.08c-0.26-0.45-0.4-1-0.4-1.66c0-0.86,0.23-1.55,0.7-2.05s1.07-0.89,1.82-1.15
			c0.75-0.26,1.6-0.44,2.54-0.52s1.9-0.12,2.86-0.12V278.69z M517.18,280.64c-0.56,0-1.14,0.02-1.74,0.07
			c-0.6,0.05-1.14,0.14-1.63,0.29s-0.89,0.36-1.21,0.65s-0.48,0.67-0.48,1.15c0,0.34,0.07,0.62,0.2,0.84
			c0.14,0.22,0.32,0.41,0.54,0.55c0.22,0.14,0.47,0.24,0.74,0.3c0.27,0.06,0.55,0.08,0.84,0.08c1.06,0,1.87-0.32,2.44-0.95
			c0.57-0.63,0.85-1.43,0.85-2.39v-0.6H517.18z"/>
		<path class="st1" d="M525.71,274.68c0.03,0.29,0.06,0.61,0.07,0.97c0.02,0.36,0.02,0.66,0.02,0.9h0.07
			c0.14-0.3,0.34-0.59,0.59-0.85s0.53-0.5,0.85-0.7s0.67-0.36,1.06-0.47c0.38-0.11,0.78-0.17,1.2-0.17c0.74,0,1.37,0.12,1.9,0.37
			s0.97,0.58,1.32,1c0.35,0.42,0.61,0.9,0.78,1.46s0.25,1.16,0.25,1.8v7.06h-2.26v-6.31c0-0.46-0.04-0.9-0.11-1.32
			c-0.07-0.42-0.2-0.78-0.4-1.1c-0.19-0.32-0.46-0.58-0.79-0.77s-0.77-0.29-1.3-0.29c-0.9,0-1.63,0.34-2.2,1.02
			c-0.57,0.68-0.85,1.59-0.85,2.72v6.05h-2.26v-8.93c0-0.3-0.01-0.7-0.02-1.18s-0.04-0.9-0.07-1.27H525.71z"/>
		<path class="st1" d="M539.94,286.06h-2.26v-18.14h2.26V286.06z"/>
		<path class="st1" d="M546.51,270.58c0,0.42-0.15,0.76-0.44,1.03c-0.29,0.27-0.65,0.41-1.06,0.41s-0.76-0.14-1.05-0.42
			c-0.29-0.28-0.43-0.62-0.43-1.02c0-0.42,0.14-0.76,0.43-1.04c0.29-0.28,0.63-0.42,1.05-0.42s0.77,0.14,1.06,0.42
			C546.37,269.82,546.51,270.16,546.51,270.58z M546.15,286.06h-2.26v-11.38h2.26V286.06z"/>
		<path class="st1" d="M552.13,274.68c0.03,0.29,0.06,0.61,0.07,0.97c0.02,0.36,0.02,0.66,0.02,0.9h0.07
			c0.14-0.3,0.34-0.59,0.59-0.85s0.53-0.5,0.85-0.7s0.67-0.36,1.06-0.47c0.38-0.11,0.78-0.17,1.2-0.17c0.74,0,1.37,0.12,1.9,0.37
			s0.97,0.58,1.32,1c0.35,0.42,0.61,0.9,0.78,1.46s0.25,1.16,0.25,1.8v7.06h-2.26v-6.31c0-0.46-0.04-0.9-0.11-1.32
			c-0.07-0.42-0.2-0.78-0.4-1.1c-0.19-0.32-0.46-0.58-0.79-0.77s-0.77-0.29-1.3-0.29c-0.9,0-1.63,0.34-2.2,1.02
			c-0.57,0.68-0.85,1.59-0.85,2.72v6.05h-2.26v-8.93c0-0.3-0.01-0.7-0.02-1.18s-0.04-0.9-0.07-1.27H552.13z"/>
		<path class="st1" d="M574.69,280.27c0,0.13,0,0.26,0,0.38s-0.01,0.26-0.02,0.38h-9.05c0.02,0.48,0.12,0.93,0.32,1.35
			c0.2,0.42,0.47,0.79,0.8,1.1c0.34,0.31,0.72,0.55,1.16,0.73s0.91,0.26,1.4,0.26c0.77,0,1.43-0.17,1.99-0.5
			c0.56-0.34,1-0.74,1.32-1.22l1.58,1.27c-0.61,0.81-1.32,1.4-2.15,1.78c-0.82,0.38-1.74,0.57-2.75,0.57c-0.86,0-1.66-0.14-2.4-0.43
			s-1.37-0.69-1.9-1.21c-0.53-0.52-0.94-1.15-1.25-1.88c-0.3-0.74-0.46-1.55-0.46-2.45c0-0.88,0.15-1.69,0.44-2.44
			s0.71-1.38,1.24-1.91c0.53-0.53,1.15-0.94,1.88-1.24c0.72-0.3,1.5-0.44,2.33-0.44c0.83,0,1.59,0.14,2.27,0.41s1.26,0.66,1.73,1.18
			c0.47,0.51,0.84,1.13,1.09,1.86C574.56,278.54,574.69,279.36,574.69,280.27z M572.39,279.36c-0.02-0.45-0.09-0.87-0.23-1.26
			c-0.14-0.39-0.34-0.73-0.6-1.02c-0.26-0.29-0.59-0.52-0.98-0.68c-0.39-0.17-0.85-0.25-1.38-0.25c-0.48,0-0.93,0.08-1.36,0.25
			s-0.79,0.4-1.1,0.68c-0.31,0.29-0.57,0.63-0.77,1.02c-0.2,0.39-0.32,0.81-0.35,1.26H572.39z"/>
		<path class="st1" d="M583.95,277.56c-0.26-0.42-0.62-0.76-1.08-1.02c-0.46-0.26-0.98-0.4-1.56-0.4c-0.26,0-0.51,0.03-0.77,0.08
			c-0.26,0.06-0.48,0.14-0.68,0.26s-0.36,0.27-0.48,0.46c-0.12,0.18-0.18,0.41-0.18,0.68c0,0.48,0.22,0.84,0.65,1.07
			c0.43,0.23,1.08,0.44,1.94,0.64c0.54,0.13,1.05,0.28,1.51,0.46c0.46,0.18,0.87,0.4,1.21,0.66c0.34,0.26,0.61,0.58,0.8,0.95
			s0.29,0.8,0.29,1.3c0,0.67-0.13,1.24-0.38,1.7c-0.26,0.46-0.6,0.84-1.02,1.14c-0.42,0.3-0.91,0.51-1.45,0.64s-1.1,0.19-1.68,0.19
			c-0.86,0-1.71-0.17-2.53-0.5s-1.51-0.85-2.05-1.54l1.61-1.37c0.3,0.45,0.72,0.82,1.26,1.13c0.54,0.3,1.12,0.46,1.76,0.46
			c0.29,0,0.56-0.03,0.83-0.08c0.26-0.06,0.5-0.15,0.72-0.28c0.22-0.13,0.39-0.3,0.52-0.5c0.13-0.21,0.19-0.47,0.19-0.79
			c0-0.53-0.25-0.92-0.76-1.18c-0.5-0.26-1.24-0.5-2.22-0.72c-0.38-0.1-0.77-0.21-1.16-0.35c-0.39-0.14-0.75-0.32-1.07-0.56
			c-0.32-0.24-0.58-0.54-0.78-0.9c-0.2-0.36-0.3-0.8-0.3-1.33c0-0.61,0.12-1.13,0.37-1.57s0.57-0.8,0.97-1.08
			c0.4-0.28,0.86-0.49,1.37-0.62c0.51-0.14,1.04-0.2,1.58-0.2c0.82,0,1.6,0.16,2.36,0.48c0.76,0.32,1.35,0.78,1.76,1.39
			L583.95,277.56z"/>
		<path class="st1" d="M594.61,277.56c-0.26-0.42-0.62-0.76-1.08-1.02c-0.46-0.26-0.98-0.4-1.56-0.4c-0.26,0-0.51,0.03-0.77,0.08
			c-0.26,0.06-0.48,0.14-0.68,0.26s-0.36,0.27-0.48,0.46c-0.12,0.18-0.18,0.41-0.18,0.68c0,0.48,0.22,0.84,0.65,1.07
			c0.43,0.23,1.08,0.44,1.94,0.64c0.54,0.13,1.05,0.28,1.51,0.46c0.46,0.18,0.87,0.4,1.21,0.66c0.34,0.26,0.61,0.58,0.8,0.95
			s0.29,0.8,0.29,1.3c0,0.67-0.13,1.24-0.38,1.7c-0.26,0.46-0.6,0.84-1.02,1.14c-0.42,0.3-0.91,0.51-1.45,0.64s-1.1,0.19-1.68,0.19
			c-0.86,0-1.71-0.17-2.53-0.5s-1.51-0.85-2.05-1.54l1.61-1.37c0.3,0.45,0.72,0.82,1.26,1.13c0.54,0.3,1.12,0.46,1.76,0.46
			c0.29,0,0.56-0.03,0.83-0.08c0.26-0.06,0.5-0.15,0.72-0.28c0.22-0.13,0.39-0.3,0.52-0.5c0.13-0.21,0.19-0.47,0.19-0.79
			c0-0.53-0.25-0.92-0.76-1.18c-0.5-0.26-1.24-0.5-2.22-0.72c-0.38-0.1-0.77-0.21-1.16-0.35c-0.39-0.14-0.75-0.32-1.07-0.56
			c-0.32-0.24-0.58-0.54-0.78-0.9c-0.2-0.36-0.3-0.8-0.3-1.33c0-0.61,0.12-1.13,0.37-1.57s0.57-0.8,0.97-1.08
			c0.4-0.28,0.86-0.49,1.37-0.62c0.51-0.14,1.04-0.2,1.58-0.2c0.82,0,1.6,0.16,2.36,0.48c0.76,0.32,1.35,0.78,1.76,1.39
			L594.61,277.56z"/>
		<path class="st1" d="M607.76,270.58c0,0.42-0.15,0.76-0.44,1.03c-0.29,0.27-0.65,0.41-1.06,0.41s-0.76-0.14-1.05-0.42
			c-0.29-0.28-0.43-0.62-0.43-1.02c0-0.42,0.14-0.76,0.43-1.04c0.29-0.28,0.63-0.42,1.05-0.42s0.77,0.14,1.06,0.42
			C607.61,269.82,607.76,270.16,607.76,270.58z M607.4,286.06h-2.26v-11.38h2.26V286.06z"/>
		<path class="st1" d="M613.38,274.68c0.03,0.29,0.06,0.61,0.07,0.97c0.02,0.36,0.02,0.66,0.02,0.9h0.07
			c0.14-0.3,0.34-0.59,0.59-0.85s0.53-0.5,0.85-0.7s0.67-0.36,1.06-0.47c0.38-0.11,0.78-0.17,1.2-0.17c0.74,0,1.37,0.12,1.9,0.37
			s0.97,0.58,1.32,1c0.35,0.42,0.61,0.9,0.78,1.46s0.25,1.16,0.25,1.8v7.06h-2.26v-6.31c0-0.46-0.04-0.9-0.11-1.32
			c-0.07-0.42-0.2-0.78-0.4-1.1c-0.19-0.32-0.46-0.58-0.79-0.77s-0.77-0.29-1.3-0.29c-0.9,0-1.63,0.34-2.2,1.02
			c-0.57,0.68-0.85,1.59-0.85,2.72v6.05h-2.26v-8.93c0-0.3-0.01-0.7-0.02-1.18s-0.04-0.9-0.07-1.27H613.38z"/>
		<path class="st1" d="M632.14,274.68l2.57,8.69h0.05l2.71-8.69h2.38l2.76,8.69h0.05l2.57-8.69h2.38l-3.77,11.38h-2.35l-2.81-8.54
			h-0.05l-2.78,8.54h-2.35l-3.79-11.38H632.14z"/>
		<path class="st1" d="M656.94,278.69c0-0.85-0.26-1.48-0.77-1.88c-0.51-0.41-1.19-0.61-2.04-0.61c-0.64,0-1.24,0.12-1.81,0.37
			c-0.57,0.25-1.04,0.56-1.43,0.95l-1.2-1.44c0.56-0.53,1.24-0.94,2.05-1.25c0.81-0.3,1.68-0.46,2.6-0.46
			c0.82,0,1.52,0.12,2.12,0.35c0.6,0.23,1.09,0.55,1.48,0.95c0.38,0.4,0.67,0.87,0.86,1.42c0.19,0.54,0.29,1.13,0.29,1.75v4.97
			c0,0.38,0.01,0.79,0.04,1.21c0.02,0.42,0.07,0.77,0.13,1.04h-2.04c-0.13-0.54-0.19-1.09-0.19-1.63h-0.07
			c-0.42,0.61-0.94,1.08-1.57,1.42s-1.38,0.5-2.24,0.5c-0.45,0-0.92-0.06-1.4-0.18c-0.49-0.12-0.93-0.32-1.33-0.59
			c-0.4-0.27-0.73-0.63-1-1.08c-0.26-0.45-0.4-1-0.4-1.66c0-0.86,0.23-1.55,0.7-2.05s1.07-0.89,1.82-1.15s1.6-0.44,2.54-0.52
			s1.9-0.12,2.86-0.12V278.69z M656.38,280.64c-0.56,0-1.14,0.02-1.74,0.07c-0.6,0.05-1.14,0.14-1.63,0.29s-0.89,0.36-1.21,0.65
			s-0.48,0.67-0.48,1.15c0,0.34,0.07,0.62,0.2,0.84c0.14,0.22,0.32,0.41,0.54,0.55c0.22,0.14,0.47,0.24,0.74,0.3
			c0.27,0.06,0.55,0.08,0.84,0.08c1.06,0,1.87-0.32,2.44-0.95c0.57-0.63,0.85-1.43,0.85-2.39v-0.6H656.38z"/>
		<path class="st1" d="M667.18,283.61h0.05l3.14-8.93h2.4l-5.52,14.06c-0.19,0.48-0.4,0.91-0.62,1.28c-0.22,0.38-0.49,0.7-0.79,0.96
			c-0.3,0.26-0.66,0.47-1.07,0.61c-0.41,0.14-0.89,0.22-1.45,0.22c-0.24,0-0.48-0.01-0.73-0.04s-0.5-0.07-0.76-0.13l0.22-1.99
			c0.38,0.13,0.76,0.19,1.13,0.19c0.59,0,1.03-0.16,1.32-0.49s0.55-0.8,0.79-1.4l0.72-1.9l-4.87-11.38h2.52L667.18,283.61z"/>
		<path class="st1" d="M681.1,277.56c-0.26-0.42-0.62-0.76-1.08-1.02c-0.46-0.26-0.98-0.4-1.56-0.4c-0.26,0-0.51,0.03-0.77,0.08
			c-0.26,0.06-0.48,0.14-0.68,0.26s-0.36,0.27-0.48,0.46c-0.12,0.18-0.18,0.41-0.18,0.68c0,0.48,0.22,0.84,0.65,1.07
			c0.43,0.23,1.08,0.44,1.94,0.64c0.54,0.13,1.05,0.28,1.51,0.46c0.46,0.18,0.87,0.4,1.21,0.66c0.34,0.26,0.61,0.58,0.8,0.95
			s0.29,0.8,0.29,1.3c0,0.67-0.13,1.24-0.38,1.7c-0.26,0.46-0.6,0.84-1.02,1.14c-0.42,0.3-0.91,0.51-1.45,0.64s-1.1,0.19-1.68,0.19
			c-0.86,0-1.71-0.17-2.53-0.5s-1.51-0.85-2.05-1.54l1.61-1.37c0.3,0.45,0.72,0.82,1.26,1.13c0.54,0.3,1.12,0.46,1.76,0.46
			c0.29,0,0.56-0.03,0.83-0.08c0.26-0.06,0.5-0.15,0.72-0.28c0.22-0.13,0.39-0.3,0.52-0.5c0.13-0.21,0.19-0.47,0.19-0.79
			c0-0.53-0.25-0.92-0.76-1.18c-0.5-0.26-1.24-0.5-2.22-0.72c-0.38-0.1-0.77-0.21-1.16-0.35c-0.39-0.14-0.75-0.32-1.07-0.56
			c-0.32-0.24-0.58-0.54-0.78-0.9c-0.2-0.36-0.3-0.8-0.3-1.33c0-0.61,0.12-1.13,0.37-1.57s0.57-0.8,0.97-1.08
			c0.4-0.28,0.86-0.49,1.37-0.62c0.51-0.14,1.04-0.2,1.58-0.2c0.82,0,1.6,0.16,2.36,0.48c0.76,0.32,1.35,0.78,1.76,1.39
			L681.1,277.56z"/>
		<path class="st1" d="M693.65,274.68c0.03,0.29,0.06,0.61,0.07,0.97c0.02,0.36,0.02,0.66,0.02,0.9h0.07
			c0.14-0.3,0.34-0.59,0.59-0.85s0.53-0.5,0.85-0.7s0.67-0.36,1.06-0.47c0.38-0.11,0.78-0.17,1.2-0.17c0.74,0,1.37,0.12,1.9,0.37
			s0.97,0.58,1.32,1c0.35,0.42,0.61,0.9,0.78,1.46s0.25,1.16,0.25,1.8v7.06h-2.26v-6.31c0-0.46-0.04-0.9-0.11-1.32
			c-0.07-0.42-0.2-0.78-0.4-1.1c-0.19-0.32-0.46-0.58-0.79-0.77s-0.77-0.29-1.3-0.29c-0.9,0-1.63,0.34-2.2,1.02
			c-0.57,0.68-0.85,1.59-0.85,2.72v6.05h-2.26v-8.93c0-0.3-0.01-0.7-0.02-1.18s-0.04-0.9-0.07-1.27H693.65z"/>
		<path class="st1" d="M717.1,280.35c0,0.88-0.16,1.69-0.47,2.42c-0.31,0.74-0.74,1.37-1.3,1.91s-1.2,0.95-1.96,1.25
			s-1.56,0.44-2.42,0.44c-0.86,0-1.67-0.15-2.42-0.44c-0.75-0.3-1.4-0.71-1.94-1.25s-0.97-1.17-1.28-1.91
			c-0.31-0.74-0.47-1.54-0.47-2.42s0.16-1.68,0.47-2.41c0.31-0.73,0.74-1.36,1.28-1.88c0.54-0.53,1.19-0.94,1.94-1.24
			c0.75-0.3,1.56-0.44,2.42-0.44c0.86,0,1.67,0.15,2.42,0.44c0.75,0.3,1.4,0.71,1.96,1.24c0.55,0.53,0.98,1.16,1.3,1.88
			C716.95,278.66,717.1,279.47,717.1,280.35z M714.75,280.36c0-0.54-0.08-1.06-0.25-1.56c-0.17-0.49-0.41-0.93-0.73-1.3
			s-0.72-0.67-1.19-0.9c-0.47-0.22-1.02-0.34-1.63-0.34c-0.61,0-1.15,0.11-1.62,0.34c-0.47,0.22-0.87,0.52-1.19,0.9
			c-0.32,0.38-0.57,0.81-0.73,1.3c-0.17,0.49-0.25,1.01-0.25,1.56c0,0.54,0.08,1.06,0.25,1.56c0.17,0.49,0.41,0.93,0.73,1.32
			c0.32,0.38,0.72,0.69,1.19,0.91s1.02,0.33,1.62,0.33c0.61,0,1.15-0.11,1.63-0.33c0.47-0.22,0.87-0.53,1.19-0.91
			s0.57-0.82,0.73-1.32C714.67,281.42,714.75,280.9,714.75,280.36z"/>
		<path class="st1" d="M725.79,276.53h-3.02v5.91c0,0.69,0.13,1.18,0.38,1.47s0.66,0.44,1.22,0.44c0.21,0,0.43-0.02,0.67-0.07
			c0.24-0.04,0.46-0.11,0.65-0.2l0.07,1.85c-0.27,0.1-0.57,0.17-0.9,0.23s-0.67,0.08-1.02,0.08c-1.07,0-1.89-0.3-2.46-0.89
			c-0.57-0.59-0.85-1.48-0.85-2.66v-6.17h-2.18v-1.85h2.18v-3.26h2.23v3.26h3.02V276.53z"/>
		<path class="st1" d="M739.47,286.06h-2.45l-4.63-11.38h2.5l3.34,8.95h0.05l3.36-8.95h2.4L739.47,286.06z"/>
		<path class="st1" d="M748.85,270.58c0,0.42-0.15,0.76-0.44,1.03c-0.29,0.27-0.65,0.41-1.06,0.41s-0.76-0.14-1.05-0.42
			c-0.29-0.28-0.43-0.62-0.43-1.02c0-0.42,0.14-0.76,0.43-1.04c0.29-0.28,0.63-0.42,1.05-0.42s0.77,0.14,1.06,0.42
			C748.71,269.82,748.85,270.16,748.85,270.58z M748.49,286.06h-2.26v-11.38h2.26V286.06z"/>
		<path class="st1" d="M758.57,277.56c-0.26-0.42-0.62-0.76-1.08-1.02c-0.46-0.26-0.98-0.4-1.56-0.4c-0.26,0-0.51,0.03-0.77,0.08
			c-0.26,0.06-0.48,0.14-0.68,0.26s-0.36,0.27-0.48,0.46c-0.12,0.18-0.18,0.41-0.18,0.68c0,0.48,0.22,0.84,0.65,1.07
			c0.43,0.23,1.08,0.44,1.94,0.64c0.54,0.13,1.05,0.28,1.51,0.46c0.46,0.18,0.87,0.4,1.21,0.66c0.34,0.26,0.61,0.58,0.8,0.95
			s0.29,0.8,0.29,1.3c0,0.67-0.13,1.24-0.38,1.7c-0.26,0.46-0.6,0.84-1.02,1.14c-0.42,0.3-0.91,0.51-1.45,0.64s-1.1,0.19-1.68,0.19
			c-0.86,0-1.71-0.17-2.53-0.5s-1.51-0.85-2.05-1.54l1.61-1.37c0.3,0.45,0.72,0.82,1.26,1.13c0.54,0.3,1.12,0.46,1.76,0.46
			c0.29,0,0.56-0.03,0.83-0.08c0.26-0.06,0.5-0.15,0.72-0.28c0.22-0.13,0.39-0.3,0.52-0.5c0.13-0.21,0.19-0.47,0.19-0.79
			c0-0.53-0.25-0.92-0.76-1.18c-0.5-0.26-1.24-0.5-2.22-0.72c-0.38-0.1-0.77-0.21-1.16-0.35c-0.39-0.14-0.75-0.32-1.07-0.56
			c-0.32-0.24-0.58-0.54-0.78-0.9c-0.2-0.36-0.3-0.8-0.3-1.33c0-0.61,0.12-1.13,0.37-1.57s0.57-0.8,0.97-1.08
			c0.4-0.28,0.86-0.49,1.37-0.62c0.51-0.14,1.04-0.2,1.58-0.2c0.82,0,1.6,0.16,2.36,0.48c0.76,0.32,1.35,0.78,1.76,1.39
			L758.57,277.56z"/>
		<path class="st1" d="M765.72,270.58c0,0.42-0.15,0.76-0.44,1.03c-0.29,0.27-0.65,0.41-1.06,0.41s-0.76-0.14-1.05-0.42
			c-0.29-0.28-0.43-0.62-0.43-1.02c0-0.42,0.14-0.76,0.43-1.04c0.29-0.28,0.63-0.42,1.05-0.42s0.77,0.14,1.06,0.42
			C765.58,269.82,765.72,270.16,765.72,270.58z M765.36,286.06h-2.26v-11.38h2.26V286.06z"/>
		<path class="st1" d="M771.53,284.26v1.8h-2.18v-18.14h2.26v8.47h0.07c0.38-0.56,0.92-1.04,1.6-1.43c0.69-0.39,1.5-0.59,2.44-0.59
			c0.85,0,1.62,0.15,2.31,0.46c0.69,0.3,1.29,0.73,1.8,1.27s0.89,1.18,1.16,1.91s0.41,1.51,0.41,2.34s-0.14,1.62-0.41,2.35
			s-0.65,1.38-1.15,1.92s-1.09,0.97-1.79,1.28c-0.7,0.31-1.49,0.47-2.37,0.47c-0.81,0-1.59-0.18-2.32-0.54
			c-0.73-0.36-1.32-0.88-1.77-1.57H771.53z M779.09,280.36c0-0.53-0.08-1.04-0.24-1.53c-0.16-0.49-0.4-0.93-0.72-1.32
			c-0.32-0.38-0.72-0.69-1.19-0.91c-0.47-0.22-1.02-0.34-1.64-0.34c-0.58,0-1.1,0.11-1.57,0.34c-0.47,0.22-0.88,0.53-1.21,0.91
			s-0.6,0.82-0.78,1.32c-0.18,0.49-0.28,1.01-0.28,1.56s0.09,1.06,0.28,1.56c0.18,0.49,0.44,0.93,0.78,1.3s0.74,0.67,1.21,0.9
			c0.47,0.22,1,0.33,1.57,0.33c0.62,0,1.17-0.12,1.64-0.35c0.47-0.23,0.87-0.54,1.19-0.92c0.32-0.38,0.56-0.82,0.72-1.32
			C779.01,281.4,779.09,280.89,779.09,280.36z"/>
		<path class="st1" d="M786.87,286.06h-2.26v-18.14h2.26V286.06z"/>
		<path class="st1" d="M801.44,280.27c0,0.13,0,0.26,0,0.38s-0.01,0.26-0.02,0.38h-9.05c0.02,0.48,0.12,0.93,0.32,1.35
			c0.2,0.42,0.47,0.79,0.8,1.1c0.34,0.31,0.72,0.55,1.16,0.73s0.91,0.26,1.4,0.26c0.77,0,1.43-0.17,1.99-0.5
			c0.56-0.34,1-0.74,1.32-1.22l1.58,1.27c-0.61,0.81-1.32,1.4-2.15,1.78c-0.82,0.38-1.74,0.57-2.75,0.57c-0.86,0-1.66-0.14-2.4-0.43
			s-1.37-0.69-1.9-1.21c-0.53-0.52-0.94-1.15-1.25-1.88c-0.3-0.74-0.46-1.55-0.46-2.45c0-0.88,0.15-1.69,0.44-2.44
			s0.71-1.38,1.24-1.91c0.53-0.53,1.15-0.94,1.88-1.24c0.72-0.3,1.5-0.44,2.33-0.44c0.83,0,1.59,0.14,2.27,0.41s1.26,0.66,1.73,1.18
			c0.47,0.51,0.84,1.13,1.09,1.86C801.31,278.54,801.44,279.36,801.44,280.27z M799.13,279.36c-0.02-0.45-0.09-0.87-0.23-1.26
			c-0.14-0.39-0.34-0.73-0.6-1.02c-0.26-0.29-0.59-0.52-0.98-0.68c-0.39-0.17-0.85-0.25-1.38-0.25c-0.48,0-0.93,0.08-1.36,0.25
			s-0.79,0.4-1.1,0.68c-0.31,0.29-0.57,0.63-0.77,1.02c-0.2,0.39-0.32,0.81-0.35,1.26H799.13z"/>
		<path class="st1" d="M816.12,276.53h-3.02v5.91c0,0.69,0.13,1.18,0.38,1.47s0.66,0.44,1.22,0.44c0.21,0,0.43-0.02,0.67-0.07
			c0.24-0.04,0.46-0.11,0.65-0.2l0.07,1.85c-0.27,0.1-0.57,0.17-0.9,0.23s-0.67,0.08-1.02,0.08c-1.07,0-1.89-0.3-2.46-0.89
			c-0.57-0.59-0.85-1.48-0.85-2.66v-6.17h-2.18v-1.85h2.18v-3.26h2.23v3.26h3.02V276.53z"/>
		<path class="st1" d="M829.97,280.35c0,0.88-0.16,1.69-0.47,2.42c-0.31,0.74-0.74,1.37-1.3,1.91s-1.2,0.95-1.96,1.25
			s-1.56,0.44-2.42,0.44c-0.86,0-1.67-0.15-2.42-0.44c-0.75-0.3-1.4-0.71-1.94-1.25s-0.97-1.17-1.28-1.91
			c-0.31-0.74-0.47-1.54-0.47-2.42s0.16-1.68,0.47-2.41c0.31-0.73,0.74-1.36,1.28-1.88c0.54-0.53,1.19-0.94,1.94-1.24
			c0.75-0.3,1.56-0.44,2.42-0.44c0.86,0,1.67,0.15,2.42,0.44c0.75,0.3,1.4,0.71,1.96,1.24c0.55,0.53,0.98,1.16,1.3,1.88
			C829.81,278.66,829.97,279.47,829.97,280.35z M827.62,280.36c0-0.54-0.08-1.06-0.25-1.56c-0.17-0.49-0.41-0.93-0.73-1.3
			s-0.72-0.67-1.19-0.9c-0.47-0.22-1.02-0.34-1.63-0.34c-0.61,0-1.15,0.11-1.62,0.34c-0.47,0.22-0.87,0.52-1.19,0.9
			c-0.32,0.38-0.57,0.81-0.73,1.3c-0.17,0.49-0.25,1.01-0.25,1.56c0,0.54,0.08,1.06,0.25,1.56c0.17,0.49,0.41,0.93,0.73,1.32
			c0.32,0.38,0.72,0.69,1.19,0.91s1.02,0.33,1.62,0.33c0.61,0,1.15-0.11,1.63-0.33c0.47-0.22,0.87-0.53,1.19-0.91
			s0.57-0.82,0.73-1.32C827.53,281.42,827.62,280.9,827.62,280.36z"/>
		<path class="st1" d="M390.8,318.53h-3.02v5.91c0,0.69,0.13,1.18,0.38,1.47c0.26,0.29,0.66,0.44,1.22,0.44
			c0.21,0,0.43-0.02,0.67-0.07c0.24-0.04,0.46-0.11,0.65-0.2l0.07,1.85c-0.27,0.1-0.57,0.17-0.9,0.23
			c-0.33,0.06-0.67,0.08-1.02,0.08c-1.07,0-1.89-0.3-2.46-0.89s-0.85-1.48-0.85-2.66v-6.17h-2.18v-1.85h2.18v-3.26h2.23v3.26h3.02
			V318.53z"/>
		<path class="st1" d="M395.48,318.41c0.27-0.56,0.74-1.04,1.39-1.44c0.66-0.4,1.39-0.6,2.21-0.6c0.74,0,1.37,0.12,1.9,0.37
			s0.97,0.58,1.32,1s0.61,0.9,0.78,1.46s0.25,1.16,0.25,1.8v7.06h-2.26v-6.3c0-0.47-0.04-0.91-0.11-1.32
			c-0.07-0.42-0.2-0.79-0.4-1.11c-0.19-0.32-0.45-0.58-0.78-0.77c-0.33-0.19-0.76-0.29-1.28-0.29c-0.9,0-1.63,0.34-2.21,1.02
			c-0.58,0.68-0.86,1.59-0.86,2.73v6.04h-2.26v-18.14h2.26v8.5H395.48z"/>
		<path class="st1" d="M417.78,322.27c0,0.13,0,0.26,0,0.38s-0.01,0.26-0.02,0.38h-9.05c0.02,0.48,0.12,0.93,0.32,1.35
			c0.2,0.42,0.47,0.79,0.8,1.1c0.34,0.31,0.72,0.55,1.16,0.73s0.91,0.26,1.4,0.26c0.77,0,1.43-0.17,1.99-0.5s1-0.74,1.32-1.22
			l1.58,1.27c-0.61,0.81-1.32,1.4-2.15,1.78c-0.82,0.38-1.74,0.57-2.75,0.57c-0.86,0-1.66-0.14-2.4-0.43s-1.37-0.69-1.9-1.21
			c-0.53-0.52-0.94-1.15-1.25-1.88c-0.3-0.74-0.46-1.55-0.46-2.45c0-0.88,0.15-1.69,0.44-2.44c0.3-0.74,0.71-1.38,1.24-1.91
			c0.53-0.53,1.15-0.94,1.88-1.24c0.72-0.3,1.5-0.44,2.33-0.44c0.83,0,1.59,0.14,2.27,0.41c0.68,0.27,1.26,0.66,1.73,1.18
			c0.47,0.51,0.84,1.13,1.09,1.86C417.65,320.54,417.78,321.36,417.78,322.27z M415.48,321.36c-0.02-0.45-0.09-0.87-0.23-1.26
			c-0.14-0.39-0.34-0.73-0.6-1.02c-0.26-0.29-0.59-0.52-0.98-0.68s-0.85-0.25-1.38-0.25c-0.48,0-0.93,0.08-1.36,0.25
			c-0.42,0.17-0.79,0.4-1.1,0.68s-0.57,0.63-0.77,1.02c-0.2,0.39-0.32,0.81-0.35,1.26H415.48z"/>
		<path class="st1" d="M428.94,316.68c0.03,0.29,0.06,0.61,0.07,0.97c0.02,0.36,0.02,0.66,0.02,0.9h0.07
			c0.14-0.3,0.34-0.59,0.59-0.85c0.25-0.26,0.53-0.5,0.85-0.7c0.32-0.2,0.67-0.36,1.06-0.47c0.38-0.11,0.78-0.17,1.2-0.17
			c0.74,0,1.37,0.12,1.9,0.37c0.53,0.25,0.97,0.58,1.32,1c0.35,0.42,0.61,0.9,0.78,1.46c0.17,0.56,0.25,1.16,0.25,1.8v7.06h-2.26
			v-6.31c0-0.46-0.04-0.9-0.11-1.32c-0.07-0.42-0.2-0.78-0.4-1.1c-0.19-0.32-0.46-0.58-0.79-0.77s-0.77-0.29-1.3-0.29
			c-0.9,0-1.63,0.34-2.2,1.02c-0.57,0.68-0.85,1.59-0.85,2.72v6.05h-2.26v-8.93c0-0.3-0.01-0.7-0.02-1.18
			c-0.02-0.48-0.04-0.9-0.07-1.27H428.94z"/>
		<path class="st1" d="M447.95,320.69c0-0.85-0.26-1.48-0.77-1.88c-0.51-0.41-1.19-0.61-2.04-0.61c-0.64,0-1.24,0.12-1.81,0.37
			c-0.57,0.25-1.04,0.56-1.43,0.95l-1.2-1.44c0.56-0.53,1.24-0.94,2.05-1.25c0.81-0.3,1.68-0.46,2.6-0.46
			c0.82,0,1.52,0.12,2.12,0.35c0.6,0.23,1.09,0.55,1.48,0.95c0.38,0.4,0.67,0.87,0.86,1.42c0.19,0.54,0.29,1.13,0.29,1.75v4.97
			c0,0.38,0.01,0.79,0.04,1.21c0.02,0.42,0.07,0.77,0.13,1.04h-2.04c-0.13-0.54-0.19-1.09-0.19-1.63h-0.07
			c-0.42,0.61-0.94,1.08-1.57,1.42c-0.63,0.34-1.38,0.5-2.24,0.5c-0.45,0-0.92-0.06-1.4-0.18c-0.49-0.12-0.93-0.32-1.33-0.59
			c-0.4-0.27-0.73-0.63-1-1.08c-0.26-0.45-0.4-1-0.4-1.66c0-0.86,0.23-1.55,0.7-2.05s1.07-0.89,1.82-1.15
			c0.75-0.26,1.6-0.44,2.54-0.52c0.94-0.08,1.9-0.12,2.86-0.12V320.69z M447.4,322.64c-0.56,0-1.14,0.02-1.74,0.07
			s-1.14,0.14-1.63,0.29c-0.49,0.14-0.89,0.36-1.21,0.65c-0.32,0.29-0.48,0.67-0.48,1.15c0,0.34,0.07,0.62,0.2,0.84
			s0.32,0.41,0.54,0.55s0.47,0.24,0.74,0.3c0.27,0.06,0.55,0.08,0.84,0.08c1.06,0,1.87-0.32,2.44-0.95
			c0.57-0.63,0.85-1.43,0.85-2.39v-0.6H447.4z"/>
		<path class="st1" d="M456.18,321.63h0.07l4.78-4.94h3.02l-5.33,5.16l5.78,6.22h-3.12l-5.14-5.9h-0.07v5.9h-2.26v-18.14h2.26
			V321.63z"/>
		<path class="st1" d="M476.72,322.27c0,0.13,0,0.26,0,0.38s-0.01,0.26-0.02,0.38h-9.05c0.02,0.48,0.12,0.93,0.32,1.35
			c0.2,0.42,0.47,0.79,0.8,1.1c0.34,0.31,0.72,0.55,1.16,0.73s0.91,0.26,1.4,0.26c0.77,0,1.43-0.17,1.99-0.5s1-0.74,1.32-1.22
			l1.58,1.27c-0.61,0.81-1.32,1.4-2.15,1.78c-0.82,0.38-1.74,0.57-2.75,0.57c-0.86,0-1.66-0.14-2.4-0.43s-1.37-0.69-1.9-1.21
			c-0.53-0.52-0.94-1.15-1.25-1.88c-0.3-0.74-0.46-1.55-0.46-2.45c0-0.88,0.15-1.69,0.44-2.44c0.3-0.74,0.71-1.38,1.24-1.91
			c0.53-0.53,1.15-0.94,1.88-1.24c0.72-0.3,1.5-0.44,2.33-0.44c0.83,0,1.59,0.14,2.27,0.41c0.68,0.27,1.26,0.66,1.73,1.18
			c0.47,0.51,0.84,1.13,1.09,1.86C476.59,320.54,476.72,321.36,476.72,322.27z M474.42,321.36c-0.02-0.45-0.09-0.87-0.23-1.26
			c-0.14-0.39-0.34-0.73-0.6-1.02c-0.26-0.29-0.59-0.52-0.98-0.68s-0.85-0.25-1.38-0.25c-0.48,0-0.93,0.08-1.36,0.25
			c-0.42,0.17-0.79,0.4-1.1,0.68s-0.57,0.63-0.77,1.02c-0.2,0.39-0.32,0.81-0.35,1.26H474.42z"/>
		<path class="st1" d="M488.92,326.26c-0.43,0.69-1.02,1.21-1.76,1.57s-1.52,0.54-2.34,0.54c-0.88,0-1.67-0.16-2.38-0.47
			c-0.7-0.31-1.3-0.74-1.8-1.28s-0.88-1.18-1.15-1.92c-0.27-0.74-0.41-1.52-0.41-2.35s0.14-1.61,0.41-2.34
			c0.27-0.73,0.66-1.36,1.16-1.91s1.11-0.97,1.81-1.27c0.7-0.3,1.48-0.46,2.33-0.46c0.93,0,1.74,0.2,2.42,0.59
			c0.69,0.39,1.23,0.87,1.63,1.43h0.05v-8.47h2.26v18.14h-2.18v-1.8H488.92z M481.43,322.36c0,0.53,0.08,1.04,0.24,1.53
			c0.16,0.49,0.4,0.93,0.72,1.32c0.32,0.38,0.71,0.69,1.18,0.92c0.46,0.23,1.01,0.35,1.63,0.35c0.58,0,1.1-0.11,1.57-0.33
			c0.47-0.22,0.88-0.52,1.21-0.9s0.6-0.81,0.78-1.3c0.18-0.49,0.28-1.01,0.28-1.56s-0.09-1.06-0.28-1.56
			c-0.18-0.49-0.44-0.93-0.78-1.32s-0.74-0.69-1.21-0.91c-0.47-0.22-1-0.34-1.57-0.34c-0.62,0-1.17,0.11-1.63,0.34
			c-0.46,0.22-0.86,0.53-1.18,0.91c-0.32,0.38-0.56,0.82-0.72,1.32C481.51,321.32,481.43,321.83,481.43,322.36z"/>
		<path class="st1" d="M511.71,322.27c0,0.13,0,0.26,0,0.38s-0.01,0.26-0.02,0.38h-9.05c0.02,0.48,0.12,0.93,0.32,1.35
			c0.2,0.42,0.47,0.79,0.8,1.1c0.34,0.31,0.72,0.55,1.16,0.73s0.91,0.26,1.4,0.26c0.77,0,1.43-0.17,1.99-0.5s1-0.74,1.32-1.22
			l1.58,1.27c-0.61,0.81-1.32,1.4-2.15,1.78c-0.82,0.38-1.74,0.57-2.75,0.57c-0.86,0-1.66-0.14-2.4-0.43s-1.37-0.69-1.9-1.21
			c-0.53-0.52-0.94-1.15-1.25-1.88c-0.3-0.74-0.46-1.55-0.46-2.45c0-0.88,0.15-1.69,0.44-2.44c0.3-0.74,0.71-1.38,1.24-1.91
			c0.53-0.53,1.15-0.94,1.88-1.24c0.72-0.3,1.5-0.44,2.33-0.44c0.83,0,1.59,0.14,2.27,0.41c0.68,0.27,1.26,0.66,1.73,1.18
			c0.47,0.51,0.84,1.13,1.09,1.86C511.59,320.54,511.71,321.36,511.71,322.27z M509.41,321.36c-0.02-0.45-0.09-0.87-0.23-1.26
			c-0.14-0.39-0.34-0.73-0.6-1.02c-0.26-0.29-0.59-0.52-0.98-0.68s-0.85-0.25-1.38-0.25c-0.48,0-0.93,0.08-1.36,0.25
			c-0.42,0.17-0.79,0.4-1.1,0.68s-0.57,0.63-0.77,1.02c-0.2,0.39-0.32,0.81-0.35,1.26H509.41z"/>
		<path class="st1" d="M519.15,325.61h0.05l3.14-8.93h2.4l-5.52,14.06c-0.19,0.48-0.4,0.91-0.62,1.28c-0.22,0.38-0.49,0.7-0.79,0.96
			c-0.3,0.26-0.66,0.47-1.07,0.61c-0.41,0.14-0.89,0.22-1.45,0.22c-0.24,0-0.48-0.01-0.73-0.04s-0.5-0.07-0.76-0.13l0.22-1.99
			c0.38,0.13,0.76,0.19,1.13,0.19c0.59,0,1.03-0.16,1.32-0.49s0.55-0.8,0.79-1.4l0.72-1.9l-4.87-11.38h2.52L519.15,325.61z"/>
		<path class="st1" d="M537.56,322.27c0,0.13,0,0.26,0,0.38s-0.01,0.26-0.02,0.38h-9.05c0.02,0.48,0.12,0.93,0.32,1.35
			c0.2,0.42,0.47,0.79,0.8,1.1c0.34,0.31,0.72,0.55,1.16,0.73s0.91,0.26,1.4,0.26c0.77,0,1.43-0.17,1.99-0.5
			c0.56-0.34,1-0.74,1.32-1.22l1.58,1.27c-0.61,0.81-1.32,1.4-2.15,1.78c-0.82,0.38-1.74,0.57-2.75,0.57c-0.86,0-1.66-0.14-2.4-0.43
			s-1.37-0.69-1.9-1.21c-0.53-0.52-0.94-1.15-1.25-1.88c-0.3-0.74-0.46-1.55-0.46-2.45c0-0.88,0.15-1.69,0.44-2.44
			s0.71-1.38,1.24-1.91c0.53-0.53,1.15-0.94,1.88-1.24c0.72-0.3,1.5-0.44,2.33-0.44c0.83,0,1.59,0.14,2.27,0.41s1.26,0.66,1.73,1.18
			c0.47,0.51,0.84,1.13,1.09,1.86C537.43,320.54,537.56,321.36,537.56,322.27z M535.26,321.36c-0.02-0.45-0.09-0.87-0.23-1.26
			c-0.14-0.39-0.34-0.73-0.6-1.02c-0.26-0.29-0.59-0.52-0.98-0.68c-0.39-0.17-0.85-0.25-1.38-0.25c-0.48,0-0.93,0.08-1.36,0.25
			s-0.79,0.4-1.1,0.68c-0.31,0.29-0.57,0.63-0.77,1.02c-0.2,0.39-0.32,0.81-0.35,1.26H535.26z"/>
		<path class="st1" d="M543.47,326.62c0,0.42-0.15,0.78-0.46,1.1c-0.3,0.32-0.69,0.48-1.15,0.48c-0.45,0-0.83-0.16-1.14-0.47
			c-0.31-0.31-0.47-0.68-0.47-1.09c0-0.43,0.15-0.8,0.46-1.12s0.69-0.47,1.15-0.47c0.46,0,0.85,0.15,1.15,0.46
			C543.31,325.82,543.47,326.19,543.47,326.62z"/>
		<path class="st1" d="M554.7,325.95h7.58v2.11h-9.96v-16.99h2.38V325.95z"/>
		<path class="st1" d="M572.19,328.06c-0.03-0.29-0.06-0.61-0.07-0.97c-0.02-0.36-0.02-0.66-0.02-0.9h-0.05
			c-0.29,0.61-0.77,1.12-1.45,1.55c-0.68,0.42-1.44,0.64-2.27,0.64c-0.74,0-1.37-0.12-1.91-0.36c-0.54-0.24-0.98-0.57-1.32-1
			c-0.34-0.42-0.6-0.92-0.77-1.48s-0.25-1.16-0.25-1.8v-7.06h2.26v6.29c0,0.46,0.04,0.91,0.11,1.33s0.2,0.8,0.4,1.12
			c0.19,0.32,0.46,0.58,0.79,0.77s0.77,0.29,1.3,0.29c0.91,0,1.65-0.34,2.21-1.02c0.56-0.68,0.84-1.59,0.84-2.72v-6.05h2.26v8.93
			c0,0.3,0.01,0.7,0.02,1.18c0.02,0.48,0.04,0.9,0.07,1.27H572.19z"/>
		<path class="st1" d="M581.73,317.01c0.63-0.42,1.38-0.64,2.24-0.64c0.77,0,1.46,0.18,2.08,0.53c0.62,0.35,1.1,0.94,1.45,1.75
			c0.38-0.74,0.92-1.3,1.61-1.69c0.69-0.39,1.44-0.59,2.26-0.59c0.74,0,1.37,0.12,1.9,0.37c0.53,0.25,0.97,0.58,1.32,1
			s0.61,0.9,0.78,1.46s0.25,1.16,0.25,1.8v7.06h-2.26v-6.31c0-0.46-0.04-0.9-0.12-1.32s-0.22-0.78-0.41-1.1
			c-0.19-0.32-0.45-0.58-0.77-0.77c-0.32-0.19-0.73-0.29-1.22-0.29c-0.51,0-0.95,0.11-1.32,0.32c-0.37,0.22-0.67,0.5-0.9,0.84
			c-0.23,0.34-0.4,0.73-0.5,1.16c-0.1,0.43-0.16,0.87-0.16,1.32v6.14h-2.26v-6.77c0-0.45-0.04-0.86-0.12-1.22
			c-0.08-0.37-0.22-0.68-0.41-0.95c-0.19-0.26-0.44-0.47-0.74-0.62c-0.3-0.15-0.68-0.23-1.13-0.23c-0.83,0-1.52,0.34-2.08,1.02
			c-0.55,0.68-0.83,1.59-0.83,2.72v6.05h-2.26v-8.93c0-0.3-0.01-0.7-0.02-1.18s-0.04-0.9-0.07-1.27h2.14
			c0.03,0.29,0.06,0.61,0.07,0.97c0.02,0.36,0.02,0.66,0.02,0.9h0.07C580.64,317.95,581.1,317.43,581.73,317.01z"/>
		<path class="st1" d="M602.07,312.58c0,0.42-0.15,0.76-0.44,1.03c-0.29,0.27-0.65,0.41-1.06,0.41s-0.76-0.14-1.05-0.42
			c-0.29-0.28-0.43-0.62-0.43-1.02c0-0.42,0.14-0.76,0.43-1.04c0.29-0.28,0.63-0.42,1.05-0.42s0.77,0.14,1.06,0.42
			C601.93,311.82,602.07,312.16,602.07,312.58z M601.71,328.06h-2.26v-11.38h2.26V328.06z"/>
		<path class="st1" d="M607.69,316.68c0.03,0.29,0.06,0.61,0.07,0.97c0.02,0.36,0.02,0.66,0.02,0.9h0.07
			c0.14-0.3,0.34-0.59,0.59-0.85s0.53-0.5,0.85-0.7s0.67-0.36,1.06-0.47c0.38-0.11,0.78-0.17,1.2-0.17c0.74,0,1.37,0.12,1.9,0.37
			s0.97,0.58,1.32,1c0.35,0.42,0.61,0.9,0.78,1.46s0.25,1.16,0.25,1.8v7.06h-2.26v-6.31c0-0.46-0.04-0.9-0.11-1.32
			c-0.07-0.42-0.2-0.78-0.4-1.1c-0.19-0.32-0.46-0.58-0.79-0.77s-0.77-0.29-1.3-0.29c-0.9,0-1.63,0.34-2.2,1.02
			c-0.57,0.68-0.85,1.59-0.85,2.72v6.05h-2.26v-8.93c0-0.3-0.01-0.7-0.02-1.18s-0.04-0.9-0.07-1.27H607.69z"/>
		<path class="st1" d="M631.14,322.35c0,0.88-0.16,1.69-0.47,2.42c-0.31,0.74-0.74,1.37-1.3,1.91s-1.2,0.95-1.96,1.25
			s-1.56,0.44-2.42,0.44c-0.86,0-1.67-0.15-2.42-0.44c-0.75-0.3-1.4-0.71-1.94-1.25s-0.97-1.17-1.28-1.91
			c-0.31-0.74-0.47-1.54-0.47-2.42s0.16-1.68,0.47-2.41c0.31-0.73,0.74-1.36,1.28-1.88c0.54-0.53,1.19-0.94,1.94-1.24
			c0.75-0.3,1.56-0.44,2.42-0.44c0.86,0,1.67,0.15,2.42,0.44c0.75,0.3,1.4,0.71,1.96,1.24c0.55,0.53,0.98,1.16,1.3,1.88
			C630.98,320.66,631.14,321.47,631.14,322.35z M628.79,322.36c0-0.54-0.08-1.06-0.25-1.56c-0.17-0.49-0.41-0.93-0.73-1.3
			s-0.72-0.67-1.19-0.9c-0.47-0.22-1.02-0.34-1.63-0.34c-0.61,0-1.15,0.11-1.62,0.34c-0.47,0.22-0.87,0.52-1.19,0.9
			c-0.32,0.38-0.57,0.81-0.73,1.3c-0.17,0.49-0.25,1.01-0.25,1.56c0,0.54,0.08,1.06,0.25,1.56c0.17,0.49,0.41,0.93,0.73,1.32
			c0.32,0.38,0.72,0.69,1.19,0.91s1.02,0.33,1.62,0.33c0.61,0,1.15-0.11,1.63-0.33c0.47-0.22,0.87-0.53,1.19-0.91
			s0.57-0.82,0.73-1.32C628.7,323.42,628.79,322.9,628.79,322.36z"/>
		<path class="st1" d="M637.85,317.01c0.63-0.42,1.38-0.64,2.24-0.64c0.77,0,1.46,0.18,2.08,0.53c0.62,0.35,1.1,0.94,1.45,1.75
			c0.38-0.74,0.92-1.3,1.61-1.69c0.69-0.39,1.44-0.59,2.26-0.59c0.74,0,1.37,0.12,1.9,0.37c0.53,0.25,0.97,0.58,1.32,1
			s0.61,0.9,0.78,1.46s0.25,1.16,0.25,1.8v7.06h-2.26v-6.31c0-0.46-0.04-0.9-0.12-1.32s-0.22-0.78-0.41-1.1
			c-0.19-0.32-0.45-0.58-0.77-0.77c-0.32-0.19-0.73-0.29-1.22-0.29c-0.51,0-0.95,0.11-1.32,0.32c-0.37,0.22-0.67,0.5-0.9,0.84
			c-0.23,0.34-0.4,0.73-0.5,1.16c-0.1,0.43-0.16,0.87-0.16,1.32v6.14h-2.26v-6.77c0-0.45-0.04-0.86-0.12-1.22
			c-0.08-0.37-0.22-0.68-0.41-0.95c-0.19-0.26-0.44-0.47-0.74-0.62c-0.3-0.15-0.68-0.23-1.13-0.23c-0.83,0-1.52,0.34-2.08,1.02
			c-0.55,0.68-0.83,1.59-0.83,2.72v6.05h-2.26v-8.93c0-0.3-0.01-0.7-0.02-1.18s-0.04-0.9-0.07-1.27h2.14
			c0.03,0.29,0.06,0.61,0.07,0.97c0.02,0.36,0.02,0.66,0.02,0.9h0.07C636.75,317.95,637.21,317.43,637.85,317.01z"/>
		<path class="st1" d="M666.18,322.27c0,0.13,0,0.26,0,0.38s-0.01,0.26-0.02,0.38h-9.05c0.02,0.48,0.12,0.93,0.32,1.35
			c0.2,0.42,0.47,0.79,0.8,1.1c0.34,0.31,0.72,0.55,1.16,0.73s0.91,0.26,1.4,0.26c0.77,0,1.43-0.17,1.99-0.5
			c0.56-0.34,1-0.74,1.32-1.22l1.58,1.27c-0.61,0.81-1.32,1.4-2.15,1.78c-0.82,0.38-1.74,0.57-2.75,0.57c-0.86,0-1.66-0.14-2.4-0.43
			s-1.37-0.69-1.9-1.21c-0.53-0.52-0.94-1.15-1.25-1.88c-0.3-0.74-0.46-1.55-0.46-2.45c0-0.88,0.15-1.69,0.44-2.44
			s0.71-1.38,1.24-1.91c0.53-0.53,1.15-0.94,1.88-1.24c0.72-0.3,1.5-0.44,2.33-0.44c0.83,0,1.59,0.14,2.27,0.41s1.26,0.66,1.73,1.18
			c0.47,0.51,0.84,1.13,1.09,1.86C666.05,320.54,666.18,321.36,666.18,322.27z M663.87,321.36c-0.02-0.45-0.09-0.87-0.23-1.26
			c-0.14-0.39-0.34-0.73-0.6-1.02c-0.26-0.29-0.59-0.52-0.98-0.68c-0.39-0.17-0.85-0.25-1.38-0.25c-0.48,0-0.93,0.08-1.36,0.25
			s-0.79,0.4-1.1,0.68c-0.31,0.29-0.57,0.63-0.77,1.02c-0.2,0.39-0.32,0.81-0.35,1.26H663.87z"/>
		<path class="st1" d="M674.87,318.53h-3.02v5.91c0,0.69,0.13,1.18,0.38,1.47s0.66,0.44,1.22,0.44c0.21,0,0.43-0.02,0.67-0.07
			c0.24-0.04,0.46-0.11,0.65-0.2l0.07,1.85c-0.27,0.1-0.57,0.17-0.9,0.23s-0.67,0.08-1.02,0.08c-1.07,0-1.89-0.3-2.46-0.89
			c-0.57-0.59-0.85-1.48-0.85-2.66v-6.17h-2.18v-1.85h2.18v-3.26h2.23v3.26h3.02V318.53z"/>
		<path class="st1" d="M687.83,322.27c0,0.13,0,0.26,0,0.38s-0.01,0.26-0.02,0.38h-9.05c0.02,0.48,0.12,0.93,0.32,1.35
			c0.2,0.42,0.47,0.79,0.8,1.1c0.34,0.31,0.72,0.55,1.16,0.73s0.91,0.26,1.4,0.26c0.77,0,1.43-0.17,1.99-0.5
			c0.56-0.34,1-0.74,1.32-1.22l1.58,1.27c-0.61,0.81-1.32,1.4-2.15,1.78c-0.82,0.38-1.74,0.57-2.75,0.57c-0.86,0-1.66-0.14-2.4-0.43
			s-1.37-0.69-1.9-1.21c-0.53-0.52-0.94-1.15-1.25-1.88c-0.3-0.74-0.46-1.55-0.46-2.45c0-0.88,0.15-1.69,0.44-2.44
			s0.71-1.38,1.24-1.91c0.53-0.53,1.15-0.94,1.88-1.24c0.72-0.3,1.5-0.44,2.33-0.44c0.83,0,1.59,0.14,2.27,0.41s1.26,0.66,1.73,1.18
			c0.47,0.51,0.84,1.13,1.09,1.86C687.7,320.54,687.83,321.36,687.83,322.27z M685.52,321.36c-0.02-0.45-0.09-0.87-0.23-1.26
			c-0.14-0.39-0.34-0.73-0.6-1.02c-0.26-0.29-0.59-0.52-0.98-0.68c-0.39-0.17-0.85-0.25-1.38-0.25c-0.48,0-0.93,0.08-1.36,0.25
			s-0.79,0.4-1.1,0.68c-0.31,0.29-0.57,0.63-0.77,1.02c-0.2,0.39-0.32,0.81-0.35,1.26H685.52z"/>
		<path class="st1" d="M690.92,317.96c-0.02-0.48-0.04-0.9-0.07-1.27h2.14c0.03,0.29,0.06,0.62,0.07,1s0.02,0.68,0.02,0.92h0.07
			c0.32-0.67,0.79-1.21,1.4-1.62c0.62-0.41,1.31-0.61,2.08-0.61c0.35,0,0.65,0.03,0.89,0.1l-0.1,2.09
			c-0.32-0.08-0.66-0.12-1.03-0.12c-0.54,0-1.02,0.1-1.42,0.3c-0.4,0.2-0.73,0.47-1,0.8c-0.26,0.34-0.46,0.72-0.59,1.16
			c-0.13,0.44-0.19,0.9-0.19,1.38v5.98h-2.26v-8.93C690.95,318.83,690.94,318.44,690.92,317.96z"/>
		<path class="st1" d="M711.2,318.53h-3.02v5.91c0,0.69,0.13,1.18,0.38,1.47s0.66,0.44,1.22,0.44c0.21,0,0.43-0.02,0.67-0.07
			c0.24-0.04,0.46-0.11,0.65-0.2l0.07,1.85c-0.27,0.1-0.57,0.17-0.9,0.23s-0.67,0.08-1.02,0.08c-1.07,0-1.89-0.3-2.46-0.89
			c-0.57-0.59-0.85-1.48-0.85-2.66v-6.17h-2.18v-1.85h2.18v-3.26h2.23v3.26h3.02V318.53z"/>
		<path class="st1" d="M724.16,322.27c0,0.13,0,0.26,0,0.38s-0.01,0.26-0.02,0.38h-9.05c0.02,0.48,0.12,0.93,0.32,1.35
			c0.2,0.42,0.47,0.79,0.8,1.1c0.34,0.31,0.72,0.55,1.16,0.73s0.91,0.26,1.4,0.26c0.77,0,1.43-0.17,1.99-0.5
			c0.56-0.34,1-0.74,1.32-1.22l1.58,1.27c-0.61,0.81-1.32,1.4-2.15,1.78c-0.82,0.38-1.74,0.57-2.75,0.57c-0.86,0-1.66-0.14-2.4-0.43
			s-1.37-0.69-1.9-1.21c-0.53-0.52-0.94-1.15-1.25-1.88c-0.3-0.74-0.46-1.55-0.46-2.45c0-0.88,0.15-1.69,0.44-2.44
			s0.71-1.38,1.24-1.91c0.53-0.53,1.15-0.94,1.88-1.24c0.72-0.3,1.5-0.44,2.33-0.44c0.83,0,1.59,0.14,2.27,0.41s1.26,0.66,1.73,1.18
			c0.47,0.51,0.84,1.13,1.09,1.86C724.03,320.54,724.16,321.36,724.16,322.27z M721.86,321.36c-0.02-0.45-0.09-0.87-0.23-1.26
			c-0.14-0.39-0.34-0.73-0.6-1.02c-0.26-0.29-0.59-0.52-0.98-0.68c-0.39-0.17-0.85-0.25-1.38-0.25c-0.48,0-0.93,0.08-1.36,0.25
			s-0.79,0.4-1.1,0.68c-0.31,0.29-0.57,0.63-0.77,1.02c-0.2,0.39-0.32,0.81-0.35,1.26H721.86z"/>
		<path class="st1" d="M733.42,319.56c-0.26-0.42-0.62-0.76-1.08-1.02c-0.46-0.26-0.98-0.4-1.56-0.4c-0.26,0-0.51,0.03-0.77,0.08
			c-0.26,0.06-0.48,0.14-0.68,0.26s-0.36,0.27-0.48,0.46c-0.12,0.18-0.18,0.41-0.18,0.68c0,0.48,0.22,0.84,0.65,1.07
			c0.43,0.23,1.08,0.44,1.94,0.64c0.54,0.13,1.05,0.28,1.51,0.46c0.46,0.18,0.87,0.4,1.21,0.66c0.34,0.26,0.61,0.58,0.8,0.95
			s0.29,0.8,0.29,1.3c0,0.67-0.13,1.24-0.38,1.7c-0.26,0.46-0.6,0.84-1.02,1.14c-0.42,0.3-0.91,0.51-1.45,0.64s-1.1,0.19-1.68,0.19
			c-0.86,0-1.71-0.17-2.53-0.5s-1.51-0.85-2.05-1.54l1.61-1.37c0.3,0.45,0.72,0.82,1.26,1.13c0.54,0.3,1.12,0.46,1.76,0.46
			c0.29,0,0.56-0.03,0.83-0.08c0.26-0.06,0.5-0.15,0.72-0.28c0.22-0.13,0.39-0.3,0.52-0.5c0.13-0.21,0.19-0.47,0.19-0.79
			c0-0.53-0.25-0.92-0.76-1.18c-0.5-0.26-1.24-0.5-2.22-0.72c-0.38-0.1-0.77-0.21-1.16-0.35c-0.39-0.14-0.75-0.32-1.07-0.56
			c-0.32-0.24-0.58-0.54-0.78-0.9c-0.2-0.36-0.3-0.8-0.3-1.33c0-0.61,0.12-1.13,0.37-1.57s0.57-0.8,0.97-1.08
			c0.4-0.28,0.86-0.49,1.37-0.62c0.51-0.14,1.04-0.2,1.58-0.2c0.82,0,1.6,0.16,2.36,0.48c0.76,0.32,1.35,0.78,1.76,1.39
			L733.42,319.56z"/>
		<path class="st1" d="M743.5,318.53h-3.02v5.91c0,0.69,0.13,1.18,0.38,1.47s0.66,0.44,1.22,0.44c0.21,0,0.43-0.02,0.67-0.07
			c0.24-0.04,0.46-0.11,0.65-0.2l0.07,1.85c-0.27,0.1-0.57,0.17-0.9,0.23s-0.67,0.08-1.02,0.08c-1.07,0-1.89-0.3-2.46-0.89
			c-0.57-0.59-0.85-1.48-0.85-2.66v-6.17h-2.18v-1.85h2.18v-3.26h2.23v3.26h3.02V318.53z"/>
		<path class="st1" d="M748.47,312.58c0,0.42-0.15,0.76-0.44,1.03c-0.29,0.27-0.65,0.41-1.06,0.41s-0.76-0.14-1.05-0.42
			c-0.29-0.28-0.43-0.62-0.43-1.02c0-0.42,0.14-0.76,0.43-1.04c0.29-0.28,0.63-0.42,1.05-0.42s0.77,0.14,1.06,0.42
			C748.32,311.82,748.47,312.16,748.47,312.58z M748.11,328.06h-2.26v-11.38h2.26V328.06z"/>
		<path class="st1" d="M754.09,316.68c0.03,0.29,0.06,0.61,0.07,0.97c0.02,0.36,0.02,0.66,0.02,0.9h0.07
			c0.14-0.3,0.34-0.59,0.59-0.85s0.53-0.5,0.85-0.7s0.67-0.36,1.06-0.47c0.38-0.11,0.78-0.17,1.2-0.17c0.74,0,1.37,0.12,1.9,0.37
			s0.97,0.58,1.32,1c0.35,0.42,0.61,0.9,0.78,1.46s0.25,1.16,0.25,1.8v7.06h-2.26v-6.31c0-0.46-0.04-0.9-0.11-1.32
			c-0.07-0.42-0.2-0.78-0.4-1.1c-0.19-0.32-0.46-0.58-0.79-0.77s-0.77-0.29-1.3-0.29c-0.9,0-1.63,0.34-2.2,1.02
			c-0.57,0.68-0.85,1.59-0.85,2.72v6.05h-2.26v-8.93c0-0.3-0.01-0.7-0.02-1.18s-0.04-0.9-0.07-1.27H754.09z"/>
		<path class="st1" d="M766.9,330c0.5,0.56,1.12,1.01,1.86,1.34c0.74,0.34,1.51,0.5,2.29,0.5c0.75,0,1.38-0.11,1.9-0.32
			c0.51-0.22,0.92-0.51,1.24-0.89c0.31-0.38,0.54-0.82,0.67-1.33c0.14-0.51,0.2-1.06,0.2-1.66v-1.46h-0.05
			c-0.42,0.64-0.98,1.13-1.7,1.46c-0.72,0.34-1.49,0.5-2.3,0.5c-0.86,0-1.65-0.15-2.36-0.46c-0.71-0.3-1.32-0.72-1.81-1.25
			c-0.5-0.53-0.88-1.15-1.15-1.86c-0.27-0.71-0.41-1.48-0.41-2.29c0-0.82,0.14-1.58,0.41-2.3c0.27-0.72,0.66-1.35,1.15-1.88
			c0.5-0.54,1.1-0.96,1.8-1.27s1.49-0.47,2.35-0.47c0.82,0,1.6,0.18,2.34,0.53c0.74,0.35,1.33,0.89,1.76,1.61h0.05v-1.82h2.18v10.8
			c0,0.83-0.1,1.63-0.31,2.39c-0.21,0.76-0.56,1.43-1.06,2.02c-0.5,0.58-1.14,1.05-1.94,1.4c-0.8,0.35-1.79,0.53-2.98,0.53
			c-0.99,0-1.99-0.18-2.99-0.54c-1-0.36-1.86-0.87-2.58-1.52L766.9,330z M767.58,322.25c0,0.53,0.08,1.03,0.25,1.51
			c0.17,0.48,0.42,0.9,0.75,1.27s0.73,0.66,1.19,0.89c0.47,0.22,1,0.34,1.59,0.34c0.58,0,1.11-0.1,1.59-0.31s0.89-0.49,1.23-0.85
			c0.34-0.36,0.6-0.78,0.78-1.27c0.18-0.49,0.28-1.01,0.28-1.57c0-0.54-0.09-1.06-0.28-1.54c-0.18-0.48-0.45-0.9-0.79-1.27
			c-0.35-0.37-0.75-0.66-1.23-0.88c-0.47-0.22-1-0.32-1.58-0.32c-0.59,0-1.12,0.11-1.59,0.32c-0.47,0.22-0.86,0.5-1.19,0.86
			s-0.58,0.78-0.75,1.27C767.66,321.19,767.58,321.71,767.58,322.25z"/>
		<path class="st1" d="M789.44,333.82h-2.26v-17.14h2.21v1.78h0.07c0.37-0.61,0.91-1.11,1.62-1.5c0.71-0.39,1.54-0.59,2.48-0.59
			c0.85,0,1.62,0.15,2.31,0.46c0.69,0.3,1.29,0.73,1.8,1.27c0.5,0.54,0.89,1.18,1.16,1.91s0.41,1.51,0.41,2.34s-0.14,1.62-0.41,2.35
			s-0.65,1.38-1.15,1.92s-1.09,0.97-1.79,1.28c-0.7,0.31-1.49,0.47-2.37,0.47c-0.81,0-1.58-0.18-2.3-0.53
			c-0.72-0.35-1.29-0.85-1.7-1.49h-0.07V333.82z M796.93,322.35c0-0.53-0.08-1.04-0.24-1.54c-0.16-0.5-0.4-0.94-0.72-1.32
			c-0.32-0.38-0.72-0.69-1.19-0.91s-1.02-0.34-1.64-0.34c-0.58,0-1.1,0.11-1.57,0.34c-0.47,0.22-0.88,0.53-1.21,0.91
			c-0.34,0.38-0.6,0.82-0.78,1.32c-0.18,0.5-0.28,1.02-0.28,1.56s0.09,1.06,0.28,1.56c0.18,0.5,0.44,0.93,0.78,1.31
			s0.74,0.68,1.21,0.9c0.47,0.22,1,0.34,1.57,0.34c0.62,0,1.17-0.12,1.64-0.35c0.47-0.23,0.87-0.54,1.19-0.92
			c0.32-0.38,0.56-0.82,0.72-1.32C796.85,323.39,796.93,322.88,796.93,322.35z"/>
		<path class="st1" d="M802.38,317.96c-0.02-0.48-0.04-0.9-0.07-1.27h2.14c0.03,0.29,0.06,0.62,0.07,1s0.02,0.68,0.02,0.92h0.07
			c0.32-0.67,0.79-1.21,1.4-1.62c0.62-0.41,1.31-0.61,2.08-0.61c0.35,0,0.65,0.03,0.89,0.1l-0.1,2.09
			c-0.32-0.08-0.66-0.12-1.03-0.12c-0.54,0-1.02,0.1-1.42,0.3c-0.4,0.2-0.73,0.47-1,0.8c-0.26,0.34-0.46,0.72-0.59,1.16
			c-0.13,0.44-0.19,0.9-0.19,1.38v5.98h-2.26v-8.93C802.4,318.83,802.39,318.44,802.38,317.96z"/>
		<path class="st1" d="M822.17,322.35c0,0.88-0.16,1.69-0.47,2.42c-0.31,0.74-0.74,1.37-1.3,1.91s-1.2,0.95-1.96,1.25
			s-1.56,0.44-2.42,0.44c-0.86,0-1.67-0.15-2.42-0.44c-0.75-0.3-1.4-0.71-1.94-1.25s-0.97-1.17-1.28-1.91
			c-0.31-0.74-0.47-1.54-0.47-2.42s0.16-1.68,0.47-2.41c0.31-0.73,0.74-1.36,1.28-1.88c0.54-0.53,1.19-0.94,1.94-1.24
			c0.75-0.3,1.56-0.44,2.42-0.44c0.86,0,1.67,0.15,2.42,0.44c0.75,0.3,1.4,0.71,1.96,1.24c0.55,0.53,0.98,1.16,1.3,1.88
			C822.02,320.66,822.17,321.47,822.17,322.35z M819.82,322.36c0-0.54-0.08-1.06-0.25-1.56c-0.17-0.49-0.41-0.93-0.73-1.3
			s-0.72-0.67-1.19-0.9c-0.47-0.22-1.02-0.34-1.63-0.34c-0.61,0-1.15,0.11-1.62,0.34c-0.47,0.22-0.87,0.52-1.19,0.9
			c-0.32,0.38-0.57,0.81-0.73,1.3c-0.17,0.49-0.25,1.01-0.25,1.56c0,0.54,0.08,1.06,0.25,1.56c0.17,0.49,0.41,0.93,0.73,1.32
			c0.32,0.38,0.72,0.69,1.19,0.91s1.02,0.33,1.62,0.33c0.61,0,1.15-0.11,1.63-0.33c0.47-0.22,0.87-0.53,1.19-0.91
			s0.57-0.82,0.73-1.32C819.74,323.42,819.82,322.9,819.82,322.36z"/>
		<path class="st1" d="M830.65,328.06h-2.45l-4.63-11.38h2.5l3.34,8.95h0.05l3.36-8.95h2.4L830.65,328.06z"/>
		<path class="st1" d="M848.02,322.27c0,0.13,0,0.26,0,0.38s-0.01,0.26-0.02,0.38h-9.05c0.02,0.48,0.12,0.93,0.32,1.35
			c0.2,0.42,0.47,0.79,0.8,1.1c0.34,0.31,0.72,0.55,1.16,0.73s0.91,0.26,1.4,0.26c0.77,0,1.43-0.17,1.99-0.5
			c0.56-0.34,1-0.74,1.32-1.22l1.58,1.27c-0.61,0.81-1.32,1.4-2.15,1.78c-0.82,0.38-1.74,0.57-2.75,0.57c-0.86,0-1.66-0.14-2.4-0.43
			s-1.37-0.69-1.9-1.21c-0.53-0.52-0.94-1.15-1.25-1.88c-0.3-0.74-0.46-1.55-0.46-2.45c0-0.88,0.15-1.69,0.44-2.44
			s0.71-1.38,1.24-1.91c0.53-0.53,1.15-0.94,1.88-1.24c0.72-0.3,1.5-0.44,2.33-0.44c0.83,0,1.59,0.14,2.27,0.41s1.26,0.66,1.73,1.18
			c0.47,0.51,0.84,1.13,1.09,1.86C847.89,320.54,848.02,321.36,848.02,322.27z M845.72,321.36c-0.02-0.45-0.09-0.87-0.23-1.26
			c-0.14-0.39-0.34-0.73-0.6-1.02c-0.26-0.29-0.59-0.52-0.98-0.68c-0.39-0.17-0.85-0.25-1.38-0.25c-0.48,0-0.93,0.08-1.36,0.25
			s-0.79,0.4-1.1,0.68c-0.31,0.29-0.57,0.63-0.77,1.02c-0.2,0.39-0.32,0.81-0.35,1.26H845.72z"/>
		<path class="st1" d="M857.29,319.56c-0.26-0.42-0.62-0.76-1.08-1.02c-0.46-0.26-0.98-0.4-1.56-0.4c-0.26,0-0.51,0.03-0.77,0.08
			c-0.26,0.06-0.48,0.14-0.68,0.26s-0.36,0.27-0.48,0.46c-0.12,0.18-0.18,0.41-0.18,0.68c0,0.48,0.22,0.84,0.65,1.07
			c0.43,0.23,1.08,0.44,1.94,0.64c0.54,0.13,1.05,0.28,1.51,0.46c0.46,0.18,0.87,0.4,1.21,0.66c0.34,0.26,0.61,0.58,0.8,0.95
			s0.29,0.8,0.29,1.3c0,0.67-0.13,1.24-0.38,1.7c-0.26,0.46-0.6,0.84-1.02,1.14c-0.42,0.3-0.91,0.51-1.45,0.64s-1.1,0.19-1.68,0.19
			c-0.86,0-1.71-0.17-2.53-0.5s-1.51-0.85-2.05-1.54l1.61-1.37c0.3,0.45,0.72,0.82,1.26,1.13c0.54,0.3,1.12,0.46,1.76,0.46
			c0.29,0,0.56-0.03,0.83-0.08c0.26-0.06,0.5-0.15,0.72-0.28c0.22-0.13,0.39-0.3,0.52-0.5c0.13-0.21,0.19-0.47,0.19-0.79
			c0-0.53-0.25-0.92-0.76-1.18c-0.5-0.26-1.24-0.5-2.22-0.72c-0.38-0.1-0.77-0.21-1.16-0.35c-0.39-0.14-0.75-0.32-1.07-0.56
			c-0.32-0.24-0.58-0.54-0.78-0.9c-0.2-0.36-0.3-0.8-0.3-1.33c0-0.61,0.12-1.13,0.37-1.57s0.57-0.8,0.97-1.08
			c0.4-0.28,0.86-0.49,1.37-0.62c0.51-0.14,1.04-0.2,1.58-0.2c0.82,0,1.6,0.16,2.36,0.48c0.76,0.32,1.35,0.78,1.76,1.39
			L857.29,319.56z"/>
		<path class="st1" d="M873.37,318.53h-3.02v5.91c0,0.69,0.13,1.18,0.38,1.47s0.66,0.44,1.22,0.44c0.21,0,0.43-0.02,0.67-0.07
			c0.24-0.04,0.46-0.11,0.65-0.2l0.07,1.85c-0.27,0.1-0.57,0.17-0.9,0.23s-0.67,0.08-1.02,0.08c-1.07,0-1.89-0.3-2.46-0.89
			c-0.57-0.59-0.85-1.48-0.85-2.66v-6.17h-2.18v-1.85h2.18v-3.26h2.23v3.26h3.02V318.53z"/>
		<path class="st1" d="M878.04,318.41c0.27-0.56,0.74-1.04,1.39-1.44c0.66-0.4,1.39-0.6,2.21-0.6c0.74,0,1.37,0.12,1.9,0.37
			s0.97,0.58,1.32,1c0.35,0.42,0.61,0.9,0.78,1.46s0.25,1.16,0.25,1.8v7.06h-2.26v-6.3c0-0.47-0.04-0.91-0.11-1.32
			c-0.07-0.42-0.2-0.79-0.4-1.11c-0.19-0.32-0.45-0.58-0.78-0.77c-0.33-0.19-0.76-0.29-1.28-0.29c-0.9,0-1.63,0.34-2.21,1.02
			c-0.58,0.68-0.86,1.59-0.86,2.73v6.04h-2.26v-18.14H878v8.5H878.04z"/>
		<path class="st1" d="M896.79,320.69c0-0.85-0.26-1.48-0.77-1.88c-0.51-0.41-1.19-0.61-2.04-0.61c-0.64,0-1.24,0.12-1.81,0.37
			c-0.57,0.25-1.04,0.56-1.43,0.95l-1.2-1.44c0.56-0.53,1.24-0.94,2.05-1.25c0.81-0.3,1.68-0.46,2.6-0.46
			c0.82,0,1.52,0.12,2.12,0.35c0.6,0.23,1.09,0.55,1.48,0.95c0.38,0.4,0.67,0.87,0.86,1.42c0.19,0.54,0.29,1.13,0.29,1.75v4.97
			c0,0.38,0.01,0.79,0.04,1.21c0.02,0.42,0.07,0.77,0.13,1.04h-2.04c-0.13-0.54-0.19-1.09-0.19-1.63h-0.07
			c-0.42,0.61-0.94,1.08-1.57,1.42s-1.38,0.5-2.24,0.5c-0.45,0-0.92-0.06-1.4-0.18c-0.49-0.12-0.93-0.32-1.33-0.59
			c-0.4-0.27-0.73-0.63-1-1.08c-0.26-0.45-0.4-1-0.4-1.66c0-0.86,0.23-1.55,0.7-2.05s1.07-0.89,1.82-1.15s1.6-0.44,2.54-0.52
			s1.9-0.12,2.86-0.12V320.69z M896.24,322.64c-0.56,0-1.14,0.02-1.74,0.07c-0.6,0.05-1.14,0.14-1.63,0.29s-0.89,0.36-1.21,0.65
			s-0.48,0.67-0.48,1.15c0,0.34,0.07,0.62,0.2,0.84c0.14,0.22,0.32,0.41,0.54,0.55c0.22,0.14,0.47,0.24,0.74,0.3
			c0.27,0.06,0.55,0.08,0.84,0.08c1.06,0,1.87-0.32,2.44-0.95c0.57-0.63,0.85-1.43,0.85-2.39v-0.6H896.24z"/>
		<path class="st1" d="M908.04,318.53h-3.02v5.91c0,0.69,0.13,1.18,0.38,1.47s0.66,0.44,1.22,0.44c0.21,0,0.43-0.02,0.67-0.07
			c0.24-0.04,0.46-0.11,0.65-0.2l0.07,1.85c-0.27,0.1-0.57,0.17-0.9,0.23s-0.67,0.08-1.02,0.08c-1.07,0-1.89-0.3-2.46-0.89
			c-0.57-0.59-0.85-1.48-0.85-2.66v-6.17h-2.18v-1.85h2.18v-3.26h2.23v3.26h3.02V318.53z"/>
		<path class="st1" d="M385.35,353.07h5.18c0.91,0,1.74,0.09,2.5,0.28c0.75,0.18,1.39,0.47,1.92,0.85c0.53,0.38,0.94,0.87,1.22,1.46
			c0.29,0.59,0.43,1.3,0.43,2.14c0,0.85-0.16,1.58-0.47,2.18c-0.31,0.61-0.74,1.1-1.3,1.49c-0.55,0.38-1.21,0.67-1.97,0.85
			c-0.76,0.18-1.58,0.28-2.46,0.28h-2.69v7.46h-2.38V353.07z M387.73,360.58h2.52c0.58,0,1.11-0.05,1.6-0.16
			c0.49-0.1,0.91-0.26,1.26-0.48c0.35-0.22,0.62-0.5,0.82-0.85c0.19-0.35,0.29-0.78,0.29-1.3c0-0.51-0.1-0.94-0.3-1.28
			c-0.2-0.34-0.47-0.62-0.82-0.84c-0.34-0.22-0.76-0.37-1.24-0.46c-0.48-0.09-1-0.13-1.56-0.13h-2.57V360.58z"/>
		<path class="st1" d="M406.11,370.49c-1.12,0-2.1-0.19-2.93-0.56c-0.83-0.38-1.52-0.88-2.06-1.5s-0.95-1.34-1.21-2.15
			c-0.26-0.81-0.4-1.64-0.4-2.51v-10.7h2.38v10.56c0,0.58,0.07,1.15,0.22,1.72s0.38,1.08,0.71,1.52c0.33,0.45,0.76,0.81,1.3,1.08
			c0.54,0.27,1.2,0.41,2,0.41c0.78,0,1.45-0.14,1.99-0.41c0.54-0.27,0.98-0.63,1.31-1.08c0.33-0.45,0.56-0.96,0.71-1.52
			c0.14-0.57,0.22-1.14,0.22-1.72v-10.56h2.38v10.7c0,0.86-0.13,1.7-0.4,2.51s-0.67,1.52-1.21,2.15c-0.54,0.62-1.23,1.12-2.06,1.5
			C408.21,370.3,407.23,370.49,406.11,370.49z"/>
		<path class="st1" d="M419.1,370.06h-2.38v-16.99h5.45c0.82,0,1.59,0.08,2.33,0.25c0.74,0.17,1.38,0.44,1.93,0.8
			c0.55,0.37,0.99,0.85,1.31,1.45c0.32,0.6,0.48,1.33,0.48,2.2c0,1.25-0.38,2.26-1.15,3.02c-0.77,0.77-1.76,1.26-2.98,1.46l4.75,7.8
			h-2.88l-4.32-7.56h-2.54V370.06z M419.1,360.51h2.74c0.56,0,1.08-0.05,1.56-0.14c0.48-0.1,0.9-0.25,1.26-0.47s0.64-0.5,0.85-0.84
			c0.21-0.34,0.31-0.77,0.31-1.28c0-0.51-0.1-0.94-0.31-1.28c-0.21-0.34-0.48-0.62-0.83-0.83c-0.34-0.21-0.75-0.36-1.21-0.44
			c-0.46-0.09-0.95-0.13-1.46-0.13h-2.9V360.51z"/>
		<path class="st1" d="M437.12,370.06h-2.38v-14.9h-5.45v-2.09h13.27v2.09h-5.45V370.06z"/>
		<path class="st1" d="M447.2,367.95h8.88v2.11h-11.26v-16.99h10.9v2.09h-8.52v5.09h8.02v2.04h-8.02V367.95z"/>
		<path class="st1" d="M477.2,370.06h-9.98c-1.3,0-2.48-0.21-3.56-0.62c-1.08-0.42-2.01-1-2.8-1.75c-0.78-0.75-1.39-1.66-1.82-2.74
			c-0.43-1.07-0.65-2.27-0.65-3.6c0-1.28,0.22-2.45,0.67-3.52c0.45-1.06,1.06-1.98,1.85-2.75c0.78-0.77,1.72-1.37,2.8-1.8
			c1.08-0.43,2.26-0.65,3.54-0.65c1.26,0,2.43,0.22,3.5,0.65c1.07,0.43,2,1.03,2.78,1.8c0.78,0.77,1.4,1.68,1.84,2.75
			c0.44,1.06,0.66,2.24,0.66,3.52c0,1.52-0.32,2.85-0.96,3.98c-0.64,1.14-1.49,2.03-2.54,2.69v0.05h4.68V370.06z M460.95,361.35
			c0,0.93,0.15,1.8,0.44,2.6c0.3,0.81,0.72,1.51,1.26,2.1c0.54,0.59,1.2,1.06,1.97,1.4c0.77,0.34,1.63,0.52,2.59,0.52
			c0.93,0,1.78-0.17,2.56-0.52c0.78-0.34,1.44-0.81,1.98-1.4s0.97-1.29,1.27-2.1c0.3-0.81,0.46-1.68,0.46-2.6
			c0-0.91-0.14-1.77-0.43-2.57c-0.29-0.8-0.7-1.5-1.25-2.1c-0.54-0.6-1.2-1.08-1.97-1.43c-0.77-0.35-1.63-0.53-2.59-0.53
			s-1.82,0.18-2.59,0.53c-0.77,0.35-1.43,0.83-1.98,1.43c-0.55,0.6-0.98,1.3-1.27,2.1C461.1,359.58,460.95,360.44,460.95,361.35z"/>
		<path class="st1" d="M476.87,356.19c0-0.56,0.11-1.09,0.32-1.59c0.22-0.5,0.51-0.93,0.88-1.3c0.37-0.37,0.81-0.66,1.31-0.87
			c0.5-0.22,1.03-0.32,1.59-0.32s1.1,0.11,1.59,0.32c0.5,0.22,0.93,0.51,1.3,0.87c0.37,0.37,0.67,0.8,0.88,1.3
			c0.22,0.5,0.32,1.03,0.32,1.59c0,0.56-0.11,1.09-0.32,1.58c-0.22,0.49-0.51,0.92-0.88,1.29s-0.81,0.65-1.3,0.86
			c-0.5,0.21-1.03,0.31-1.59,0.31s-1.1-0.1-1.59-0.31c-0.5-0.21-0.93-0.5-1.31-0.86s-0.67-0.79-0.88-1.29
			C476.97,357.28,476.87,356.75,476.87,356.19z M477.51,356.19c0,0.47,0.09,0.91,0.27,1.33c0.18,0.42,0.43,0.79,0.74,1.11
			c0.31,0.32,0.68,0.57,1.1,0.75s0.87,0.27,1.35,0.27s0.93-0.09,1.35-0.27c0.42-0.18,0.79-0.43,1.1-0.75
			c0.31-0.32,0.56-0.69,0.74-1.11c0.18-0.42,0.27-0.86,0.27-1.33c0-0.48-0.09-0.93-0.27-1.35c-0.18-0.42-0.43-0.79-0.74-1.1
			c-0.31-0.31-0.68-0.56-1.1-0.74c-0.42-0.18-0.87-0.27-1.35-0.27s-0.93,0.09-1.35,0.27s-0.79,0.43-1.1,0.74
			c-0.31,0.31-0.56,0.68-0.74,1.1C477.6,355.26,477.51,355.71,477.51,356.19z M481.96,358.44l-0.99-1.78h-0.65v1.78h-1.1v-4.61h1.98
			c0.22,0,0.43,0.02,0.63,0.07c0.2,0.05,0.39,0.13,0.56,0.23c0.17,0.11,0.3,0.25,0.41,0.44c0.1,0.19,0.15,0.42,0.15,0.69
			c0,0.31-0.09,0.57-0.26,0.77c-0.17,0.2-0.39,0.35-0.66,0.45l1.22,1.94H481.96z M481.17,355.86c0.17,0,0.32-0.05,0.46-0.16
			c0.14-0.11,0.21-0.25,0.21-0.43c0-0.19-0.08-0.33-0.23-0.41c-0.16-0.08-0.3-0.13-0.43-0.13h-0.85v1.13H481.17z"/>
		<path class="st1" d="M500.18,361.56c-0.24-0.37-0.6-0.68-1.08-0.92s-0.99-0.37-1.54-0.37c-0.59,0-1.12,0.11-1.57,0.34
			c-0.46,0.22-0.84,0.52-1.16,0.9c-0.32,0.38-0.56,0.81-0.73,1.31c-0.17,0.5-0.25,1.02-0.25,1.56s0.08,1.06,0.25,1.56
			c0.17,0.5,0.41,0.93,0.73,1.31c0.32,0.38,0.71,0.68,1.18,0.9s0.99,0.34,1.58,0.34c0.58,0,1.1-0.11,1.57-0.34
			c0.47-0.22,0.86-0.53,1.16-0.91l1.51,1.37c-0.48,0.56-1.08,1-1.8,1.31c-0.72,0.31-1.54,0.47-2.45,0.47
			c-0.88,0-1.69-0.14-2.44-0.43c-0.74-0.29-1.39-0.69-1.93-1.21c-0.54-0.52-0.97-1.15-1.28-1.88s-0.47-1.56-0.47-2.47
			c0-0.9,0.15-1.71,0.46-2.45c0.3-0.74,0.73-1.37,1.27-1.9c0.54-0.53,1.19-0.94,1.93-1.22c0.74-0.29,1.55-0.43,2.41-0.43
			c0.8,0,1.6,0.16,2.39,0.48c0.79,0.32,1.42,0.78,1.88,1.39L500.18,361.56z"/>
		<path class="st1" d="M506.37,370.06h-2.26v-18.14h2.26V370.06z"/>
		<path class="st1" d="M520.94,364.27c0,0.13,0,0.26,0,0.38s-0.01,0.26-0.02,0.38h-9.05c0.02,0.48,0.12,0.93,0.32,1.35
			c0.2,0.42,0.47,0.79,0.8,1.1c0.34,0.31,0.72,0.55,1.16,0.73c0.44,0.17,0.91,0.26,1.4,0.26c0.77,0,1.43-0.17,1.99-0.5
			c0.56-0.34,1-0.74,1.32-1.22l1.58,1.27c-0.61,0.81-1.32,1.4-2.15,1.78c-0.82,0.38-1.74,0.57-2.75,0.57c-0.87,0-1.66-0.14-2.4-0.43
			s-1.37-0.69-1.9-1.21c-0.53-0.52-0.94-1.15-1.25-1.88c-0.3-0.74-0.46-1.55-0.46-2.45c0-0.88,0.15-1.69,0.44-2.44
			c0.3-0.74,0.71-1.38,1.24-1.91c0.53-0.53,1.16-0.94,1.88-1.24c0.72-0.3,1.5-0.44,2.33-0.44c0.83,0,1.59,0.14,2.27,0.41
			s1.26,0.66,1.73,1.18c0.47,0.51,0.84,1.13,1.09,1.86C520.81,362.54,520.94,363.36,520.94,364.27z M518.64,363.36
			c-0.02-0.45-0.09-0.87-0.23-1.26c-0.14-0.39-0.34-0.73-0.6-1.02c-0.27-0.29-0.59-0.52-0.98-0.68c-0.39-0.17-0.85-0.25-1.38-0.25
			c-0.48,0-0.93,0.08-1.36,0.25s-0.79,0.4-1.1,0.68c-0.31,0.29-0.57,0.63-0.77,1.02c-0.2,0.39-0.31,0.81-0.35,1.26H518.64z"/>
		<path class="st1" d="M531,362.69c0-0.85-0.26-1.48-0.77-1.88c-0.51-0.41-1.19-0.61-2.04-0.61c-0.64,0-1.24,0.12-1.81,0.37
			c-0.57,0.25-1.04,0.56-1.43,0.95l-1.2-1.44c0.56-0.53,1.24-0.94,2.05-1.25c0.81-0.3,1.68-0.46,2.6-0.46
			c0.82,0,1.52,0.12,2.12,0.35c0.6,0.23,1.09,0.55,1.48,0.95c0.38,0.4,0.67,0.87,0.86,1.42c0.19,0.54,0.29,1.13,0.29,1.75v4.97
			c0,0.38,0.01,0.79,0.04,1.21c0.02,0.42,0.07,0.77,0.13,1.04h-2.04c-0.13-0.54-0.19-1.09-0.19-1.63h-0.07
			c-0.42,0.61-0.94,1.08-1.57,1.42s-1.38,0.5-2.24,0.5c-0.45,0-0.92-0.06-1.4-0.18c-0.49-0.12-0.93-0.32-1.33-0.59
			c-0.4-0.27-0.73-0.63-1-1.08c-0.26-0.45-0.4-1-0.4-1.66c0-0.86,0.23-1.55,0.7-2.05s1.07-0.89,1.82-1.15s1.6-0.44,2.54-0.52
			s1.9-0.12,2.86-0.12V362.69z M530.45,364.64c-0.56,0-1.14,0.02-1.74,0.07c-0.6,0.05-1.14,0.14-1.63,0.29s-0.89,0.36-1.21,0.65
			s-0.48,0.67-0.48,1.15c0,0.34,0.07,0.62,0.2,0.84c0.14,0.22,0.32,0.41,0.54,0.55c0.22,0.14,0.47,0.24,0.74,0.3
			c0.27,0.06,0.55,0.08,0.84,0.08c1.06,0,1.87-0.32,2.44-0.95c0.57-0.63,0.85-1.43,0.85-2.39v-0.6H530.45z"/>
		<path class="st1" d="M538.97,358.68c0.03,0.29,0.06,0.61,0.07,0.97c0.02,0.36,0.02,0.66,0.02,0.9h0.07
			c0.14-0.3,0.34-0.59,0.59-0.85s0.53-0.5,0.85-0.7s0.67-0.36,1.06-0.47c0.38-0.11,0.78-0.17,1.2-0.17c0.74,0,1.37,0.12,1.9,0.37
			s0.97,0.58,1.32,1c0.35,0.42,0.61,0.9,0.78,1.46s0.25,1.16,0.25,1.8v7.06h-2.26v-6.31c0-0.46-0.04-0.9-0.11-1.32
			c-0.07-0.42-0.2-0.78-0.4-1.1c-0.19-0.32-0.46-0.58-0.79-0.77s-0.77-0.29-1.3-0.29c-0.9,0-1.63,0.34-2.2,1.02
			c-0.57,0.68-0.85,1.59-0.85,2.72v6.05h-2.26v-8.93c0-0.3-0.01-0.7-0.02-1.18s-0.04-0.9-0.07-1.27H538.97z"/>
		<path class="st1" d="M561.53,364.27c0,0.13,0,0.26,0,0.38s-0.01,0.26-0.02,0.38h-9.05c0.02,0.48,0.12,0.93,0.32,1.35
			c0.2,0.42,0.47,0.79,0.8,1.1c0.34,0.31,0.72,0.55,1.16,0.73s0.91,0.26,1.4,0.26c0.77,0,1.43-0.17,1.99-0.5
			c0.56-0.34,1-0.74,1.32-1.22l1.58,1.27c-0.61,0.81-1.32,1.4-2.15,1.78c-0.82,0.38-1.74,0.57-2.75,0.57c-0.86,0-1.66-0.14-2.4-0.43
			s-1.37-0.69-1.9-1.21c-0.53-0.52-0.94-1.15-1.25-1.88c-0.3-0.74-0.46-1.55-0.46-2.45c0-0.88,0.15-1.69,0.44-2.44
			s0.71-1.38,1.24-1.91c0.53-0.53,1.15-0.94,1.88-1.24c0.72-0.3,1.5-0.44,2.33-0.44c0.83,0,1.59,0.14,2.27,0.41s1.26,0.66,1.73,1.18
			c0.47,0.51,0.84,1.13,1.09,1.86C561.4,362.54,561.53,363.36,561.53,364.27z M559.22,363.36c-0.02-0.45-0.09-0.87-0.23-1.26
			c-0.14-0.39-0.34-0.73-0.6-1.02c-0.26-0.29-0.59-0.52-0.98-0.68c-0.39-0.17-0.85-0.25-1.38-0.25c-0.48,0-0.93,0.08-1.36,0.25
			s-0.79,0.4-1.1,0.68c-0.31,0.29-0.57,0.63-0.77,1.02c-0.2,0.39-0.32,0.81-0.35,1.26H559.22z"/>
		<path class="st1" d="M564.62,359.96c-0.02-0.48-0.04-0.9-0.07-1.27h2.14c0.03,0.29,0.06,0.62,0.07,1s0.02,0.68,0.02,0.92h0.07
			c0.32-0.67,0.79-1.21,1.4-1.62c0.62-0.41,1.31-0.61,2.08-0.61c0.35,0,0.65,0.03,0.89,0.1l-0.1,2.09
			c-0.32-0.08-0.66-0.12-1.03-0.12c-0.54,0-1.02,0.1-1.42,0.3c-0.4,0.2-0.73,0.47-1,0.8c-0.26,0.34-0.46,0.72-0.59,1.16
			c-0.13,0.44-0.19,0.9-0.19,1.38v5.98h-2.26v-8.93C564.65,360.83,564.64,360.44,564.62,359.96z"/>
		<path class="st1" d="M579.48,361.56c-0.26-0.42-0.62-0.76-1.08-1.02c-0.46-0.26-0.98-0.4-1.56-0.4c-0.26,0-0.51,0.03-0.77,0.08
			c-0.26,0.06-0.48,0.14-0.68,0.26s-0.36,0.27-0.48,0.46c-0.12,0.18-0.18,0.41-0.18,0.68c0,0.48,0.22,0.84,0.65,1.07
			c0.43,0.23,1.08,0.44,1.94,0.64c0.54,0.13,1.05,0.28,1.51,0.46c0.46,0.18,0.87,0.4,1.21,0.66c0.34,0.26,0.61,0.58,0.8,0.95
			s0.29,0.8,0.29,1.3c0,0.67-0.13,1.24-0.38,1.7c-0.26,0.46-0.6,0.84-1.02,1.14c-0.42,0.3-0.91,0.51-1.45,0.64s-1.1,0.19-1.68,0.19
			c-0.86,0-1.71-0.17-2.53-0.5s-1.51-0.85-2.05-1.54l1.61-1.37c0.3,0.45,0.72,0.82,1.26,1.13c0.54,0.3,1.12,0.46,1.76,0.46
			c0.29,0,0.56-0.03,0.83-0.08c0.26-0.06,0.5-0.15,0.72-0.28c0.22-0.13,0.39-0.3,0.52-0.5c0.13-0.21,0.19-0.47,0.19-0.79
			c0-0.53-0.25-0.92-0.76-1.18c-0.5-0.26-1.24-0.5-2.22-0.72c-0.38-0.1-0.77-0.21-1.16-0.35c-0.39-0.14-0.75-0.32-1.07-0.56
			c-0.32-0.24-0.58-0.54-0.78-0.9c-0.2-0.36-0.3-0.8-0.3-1.33c0-0.61,0.12-1.13,0.37-1.57s0.57-0.8,0.97-1.08
			c0.4-0.28,0.86-0.49,1.37-0.62c0.51-0.14,1.04-0.2,1.58-0.2c0.82,0,1.6,0.16,2.36,0.48c0.76,0.32,1.35,0.78,1.76,1.39
			L579.48,361.56z"/>
		<path class="st1" d="M590.88,372c0.5,0.56,1.12,1.01,1.86,1.34c0.74,0.34,1.51,0.5,2.29,0.5c0.75,0,1.38-0.11,1.9-0.32
			c0.51-0.22,0.92-0.51,1.24-0.89c0.31-0.38,0.54-0.82,0.67-1.33c0.14-0.51,0.2-1.06,0.2-1.66v-1.46h-0.05
			c-0.42,0.64-0.98,1.13-1.7,1.46c-0.72,0.34-1.49,0.5-2.3,0.5c-0.86,0-1.65-0.15-2.36-0.46c-0.71-0.3-1.32-0.72-1.81-1.25
			c-0.5-0.53-0.88-1.15-1.15-1.86c-0.27-0.71-0.41-1.48-0.41-2.29c0-0.82,0.14-1.58,0.41-2.3c0.27-0.72,0.66-1.35,1.15-1.88
			c0.5-0.54,1.1-0.96,1.8-1.27s1.49-0.47,2.35-0.47c0.82,0,1.6,0.18,2.34,0.53c0.74,0.35,1.33,0.89,1.76,1.61h0.05v-1.82h2.18v10.8
			c0,0.83-0.1,1.63-0.31,2.39c-0.21,0.76-0.56,1.43-1.06,2.02c-0.5,0.58-1.14,1.05-1.94,1.4c-0.8,0.35-1.79,0.53-2.98,0.53
			c-0.99,0-1.99-0.18-2.99-0.54c-1-0.36-1.86-0.87-2.58-1.52L590.88,372z M591.55,364.25c0,0.53,0.08,1.03,0.25,1.51
			c0.17,0.48,0.42,0.9,0.75,1.27s0.73,0.66,1.19,0.89c0.47,0.22,1,0.34,1.59,0.34c0.58,0,1.11-0.1,1.59-0.31s0.89-0.49,1.23-0.85
			c0.34-0.36,0.6-0.78,0.78-1.27c0.18-0.49,0.28-1.01,0.28-1.57c0-0.54-0.09-1.06-0.28-1.54c-0.18-0.48-0.45-0.9-0.79-1.27
			c-0.35-0.37-0.75-0.66-1.23-0.88c-0.47-0.22-1-0.32-1.58-0.32c-0.59,0-1.12,0.11-1.59,0.32c-0.47,0.22-0.86,0.5-1.19,0.86
			s-0.58,0.78-0.75,1.27C591.63,363.19,591.55,363.71,591.55,364.25z"/>
		<path class="st1" d="M616.68,364.35c0,0.88-0.16,1.69-0.47,2.42c-0.31,0.74-0.74,1.37-1.3,1.91s-1.2,0.95-1.96,1.25
			s-1.56,0.44-2.42,0.44c-0.86,0-1.67-0.15-2.42-0.44c-0.75-0.3-1.4-0.71-1.94-1.25s-0.97-1.17-1.28-1.91
			c-0.31-0.74-0.47-1.54-0.47-2.42s0.16-1.68,0.47-2.41c0.31-0.73,0.74-1.36,1.28-1.88c0.54-0.53,1.19-0.94,1.94-1.24
			c0.75-0.3,1.56-0.44,2.42-0.44c0.86,0,1.67,0.15,2.42,0.44c0.75,0.3,1.4,0.71,1.96,1.24c0.55,0.53,0.98,1.16,1.3,1.88
			C616.52,362.66,616.68,363.47,616.68,364.35z M614.33,364.36c0-0.54-0.08-1.06-0.25-1.56c-0.17-0.49-0.41-0.93-0.73-1.3
			s-0.72-0.67-1.19-0.9c-0.47-0.22-1.02-0.34-1.63-0.34c-0.61,0-1.15,0.11-1.62,0.34c-0.47,0.22-0.87,0.52-1.19,0.9
			c-0.32,0.38-0.57,0.81-0.73,1.3c-0.17,0.49-0.25,1.01-0.25,1.56c0,0.54,0.08,1.06,0.25,1.56c0.17,0.49,0.41,0.93,0.73,1.32
			c0.32,0.38,0.72,0.69,1.19,0.91s1.02,0.33,1.62,0.33c0.61,0,1.15-0.11,1.63-0.33c0.47-0.22,0.87-0.53,1.19-0.91
			s0.57-0.82,0.73-1.32C614.24,365.42,614.33,364.9,614.33,364.36z"/>
		<path class="st1" d="M631.15,360.53h-2.64v9.53h-2.26v-9.53H624v-1.85h2.26v-2.38c0-0.67,0.08-1.29,0.23-1.86s0.4-1.06,0.74-1.48
			c0.34-0.42,0.78-0.74,1.32-0.98c0.54-0.24,1.19-0.36,1.96-0.36c0.54,0,1.02,0.06,1.42,0.17l-0.26,1.94
			c-0.18-0.05-0.35-0.09-0.53-0.12c-0.18-0.03-0.38-0.05-0.6-0.05c-0.43,0-0.78,0.08-1.04,0.23c-0.26,0.15-0.47,0.36-0.61,0.61
			c-0.14,0.26-0.24,0.55-0.29,0.88c-0.05,0.33-0.07,0.67-0.07,1.02v2.38h2.64V360.53z"/>
		<path class="st1" d="M640.32,362.69c0-0.85-0.26-1.48-0.77-1.88c-0.51-0.41-1.19-0.61-2.04-0.61c-0.64,0-1.24,0.12-1.81,0.37
			c-0.57,0.25-1.04,0.56-1.43,0.95l-1.2-1.44c0.56-0.53,1.24-0.94,2.05-1.25c0.81-0.3,1.68-0.46,2.6-0.46
			c0.82,0,1.52,0.12,2.12,0.35c0.6,0.23,1.09,0.55,1.48,0.95c0.38,0.4,0.67,0.87,0.86,1.42c0.19,0.54,0.29,1.13,0.29,1.75v4.97
			c0,0.38,0.01,0.79,0.04,1.21c0.02,0.42,0.07,0.77,0.13,1.04h-2.04c-0.13-0.54-0.19-1.09-0.19-1.63h-0.07
			c-0.42,0.61-0.94,1.08-1.57,1.42s-1.38,0.5-2.24,0.5c-0.45,0-0.92-0.06-1.4-0.18c-0.49-0.12-0.93-0.32-1.33-0.59
			c-0.4-0.27-0.73-0.63-1-1.08c-0.26-0.45-0.4-1-0.4-1.66c0-0.86,0.23-1.55,0.7-2.05s1.07-0.89,1.82-1.15s1.6-0.44,2.54-0.52
			s1.9-0.12,2.86-0.12V362.69z M639.76,364.64c-0.56,0-1.14,0.02-1.74,0.07c-0.6,0.05-1.14,0.14-1.63,0.29s-0.89,0.36-1.21,0.65
			s-0.48,0.67-0.48,1.15c0,0.34,0.07,0.62,0.2,0.84c0.14,0.22,0.32,0.41,0.54,0.55c0.22,0.14,0.47,0.24,0.74,0.3
			c0.27,0.06,0.55,0.08,0.84,0.08c1.06,0,1.87-0.32,2.44-0.95c0.57-0.63,0.85-1.43,0.85-2.39v-0.6H639.76z"/>
		<path class="st1" d="M646.22,359.96c-0.02-0.48-0.04-0.9-0.07-1.27h2.14c0.03,0.29,0.06,0.62,0.07,1s0.02,0.68,0.02,0.92h0.07
			c0.32-0.67,0.79-1.21,1.4-1.62c0.62-0.41,1.31-0.61,2.08-0.61c0.35,0,0.65,0.03,0.89,0.1l-0.1,2.09
			c-0.32-0.08-0.66-0.12-1.03-0.12c-0.54,0-1.02,0.1-1.42,0.3c-0.4,0.2-0.73,0.47-1,0.8c-0.26,0.34-0.46,0.72-0.59,1.16
			c-0.13,0.44-0.19,0.9-0.19,1.38v5.98h-2.26v-8.93C646.24,360.83,646.24,360.44,646.22,359.96z"/>
		<path class="st1" d="M663.16,368.26v1.8h-2.18v-18.14h2.26v8.47h0.07c0.38-0.56,0.92-1.04,1.6-1.43c0.69-0.39,1.5-0.59,2.44-0.59
			c0.85,0,1.62,0.15,2.31,0.46c0.69,0.3,1.29,0.73,1.8,1.27s0.89,1.18,1.16,1.91s0.41,1.51,0.41,2.34s-0.14,1.62-0.41,2.35
			s-0.65,1.38-1.15,1.92s-1.09,0.97-1.79,1.28c-0.7,0.31-1.49,0.47-2.37,0.47c-0.81,0-1.59-0.18-2.32-0.54
			c-0.73-0.36-1.32-0.88-1.77-1.57H663.16z M670.72,364.36c0-0.53-0.08-1.04-0.24-1.53c-0.16-0.49-0.4-0.93-0.72-1.32
			c-0.32-0.38-0.72-0.69-1.19-0.91c-0.47-0.22-1.02-0.34-1.64-0.34c-0.58,0-1.1,0.11-1.57,0.34c-0.47,0.22-0.88,0.53-1.21,0.91
			s-0.6,0.82-0.78,1.32c-0.18,0.49-0.28,1.01-0.28,1.56s0.09,1.06,0.28,1.56c0.18,0.49,0.44,0.93,0.78,1.3s0.74,0.67,1.21,0.9
			c0.47,0.22,1,0.33,1.57,0.33c0.62,0,1.17-0.12,1.64-0.35c0.47-0.23,0.87-0.54,1.19-0.92c0.32-0.38,0.56-0.82,0.72-1.32
			C670.64,365.4,670.72,364.89,670.72,364.36z"/>
		<path class="st1" d="M686.83,364.27c0,0.13,0,0.26,0,0.38s-0.01,0.26-0.02,0.38h-9.05c0.02,0.48,0.12,0.93,0.32,1.35
			c0.2,0.42,0.47,0.79,0.8,1.1c0.34,0.31,0.72,0.55,1.16,0.73s0.91,0.26,1.4,0.26c0.77,0,1.43-0.17,1.99-0.5
			c0.56-0.34,1-0.74,1.32-1.22l1.58,1.27c-0.61,0.81-1.32,1.4-2.15,1.78c-0.82,0.38-1.74,0.57-2.75,0.57c-0.86,0-1.66-0.14-2.4-0.43
			s-1.37-0.69-1.9-1.21c-0.53-0.52-0.94-1.15-1.25-1.88c-0.3-0.74-0.46-1.55-0.46-2.45c0-0.88,0.15-1.69,0.44-2.44
			s0.71-1.38,1.24-1.91c0.53-0.53,1.15-0.94,1.88-1.24c0.72-0.3,1.5-0.44,2.33-0.44c0.83,0,1.59,0.14,2.27,0.41s1.26,0.66,1.73,1.18
			c0.47,0.51,0.84,1.13,1.09,1.86C686.7,362.54,686.83,363.36,686.83,364.27z M684.52,363.36c-0.02-0.45-0.09-0.87-0.23-1.26
			c-0.14-0.39-0.34-0.73-0.6-1.02c-0.26-0.29-0.59-0.52-0.98-0.68c-0.39-0.17-0.85-0.25-1.38-0.25c-0.48,0-0.93,0.08-1.36,0.25
			s-0.79,0.4-1.1,0.68c-0.31,0.29-0.57,0.63-0.77,1.02c-0.2,0.39-0.32,0.81-0.35,1.26H684.52z"/>
		<path class="st1" d="M694.27,367.61h0.05l3.14-8.93h2.4l-5.52,14.06c-0.19,0.48-0.4,0.91-0.62,1.28c-0.22,0.38-0.49,0.7-0.79,0.96
			c-0.3,0.26-0.66,0.47-1.07,0.61c-0.41,0.14-0.89,0.22-1.45,0.22c-0.24,0-0.48-0.01-0.73-0.04c-0.25-0.02-0.5-0.07-0.76-0.13
			l0.22-1.99c0.38,0.13,0.76,0.19,1.13,0.19c0.59,0,1.03-0.16,1.32-0.49s0.55-0.8,0.79-1.4l0.72-1.9l-4.87-11.38h2.52L694.27,367.61
			z"/>
		<path class="st1" d="M713.56,364.35c0,0.88-0.16,1.69-0.47,2.42c-0.31,0.74-0.74,1.37-1.3,1.91s-1.2,0.95-1.96,1.25
			s-1.56,0.44-2.42,0.44c-0.86,0-1.67-0.15-2.42-0.44c-0.75-0.3-1.4-0.71-1.94-1.25s-0.97-1.17-1.28-1.91
			c-0.31-0.74-0.47-1.54-0.47-2.42s0.16-1.68,0.47-2.41c0.31-0.73,0.74-1.36,1.28-1.88c0.54-0.53,1.19-0.94,1.94-1.24
			c0.75-0.3,1.56-0.44,2.42-0.44c0.86,0,1.67,0.15,2.42,0.44c0.75,0.3,1.4,0.71,1.96,1.24c0.55,0.53,0.98,1.16,1.3,1.88
			C713.41,362.66,713.56,363.47,713.56,364.35z M711.21,364.36c0-0.54-0.08-1.06-0.25-1.56c-0.17-0.49-0.41-0.93-0.73-1.3
			s-0.72-0.67-1.19-0.9c-0.47-0.22-1.02-0.34-1.63-0.34c-0.61,0-1.15,0.11-1.62,0.34c-0.47,0.22-0.87,0.52-1.19,0.9
			c-0.32,0.38-0.57,0.81-0.73,1.3c-0.17,0.49-0.25,1.01-0.25,1.56c0,0.54,0.08,1.06,0.25,1.56c0.17,0.49,0.41,0.93,0.73,1.32
			c0.32,0.38,0.72,0.69,1.19,0.91s1.02,0.33,1.62,0.33c0.61,0,1.15-0.11,1.63-0.33c0.47-0.22,0.87-0.53,1.19-0.91
			s0.57-0.82,0.73-1.32C711.13,365.42,711.21,364.9,711.21,364.36z"/>
		<path class="st1" d="M718.72,358.68c0.03,0.29,0.06,0.61,0.07,0.97c0.02,0.36,0.02,0.66,0.02,0.9h0.07
			c0.14-0.3,0.34-0.59,0.59-0.85s0.53-0.5,0.85-0.7s0.67-0.36,1.06-0.47c0.38-0.11,0.78-0.17,1.2-0.17c0.74,0,1.37,0.12,1.9,0.37
			s0.97,0.58,1.32,1c0.35,0.42,0.61,0.9,0.78,1.46s0.25,1.16,0.25,1.8v7.06h-2.26v-6.31c0-0.46-0.04-0.9-0.11-1.32
			c-0.07-0.42-0.2-0.78-0.4-1.1c-0.19-0.32-0.46-0.58-0.79-0.77s-0.77-0.29-1.3-0.29c-0.9,0-1.63,0.34-2.2,1.02
			c-0.57,0.68-0.85,1.59-0.85,2.72v6.05h-2.26v-8.93c0-0.3-0.01-0.7-0.02-1.18s-0.04-0.9-0.07-1.27H718.72z"/>
		<path class="st1" d="M739.72,368.26c-0.43,0.69-1.02,1.21-1.76,1.57s-1.52,0.54-2.34,0.54c-0.88,0-1.67-0.16-2.38-0.47
			c-0.7-0.31-1.3-0.74-1.8-1.28c-0.5-0.54-0.88-1.18-1.15-1.92c-0.27-0.74-0.41-1.52-0.41-2.35s0.14-1.61,0.41-2.34
			c0.27-0.73,0.66-1.36,1.16-1.91s1.11-0.97,1.81-1.27c0.7-0.3,1.48-0.46,2.33-0.46c0.93,0,1.74,0.2,2.42,0.59
			c0.69,0.39,1.23,0.87,1.63,1.43h0.05v-8.47h2.26v18.14h-2.18v-1.8H739.72z M732.23,364.36c0,0.53,0.08,1.04,0.24,1.53
			c0.16,0.49,0.4,0.93,0.72,1.32c0.32,0.38,0.71,0.69,1.18,0.92c0.46,0.23,1.01,0.35,1.63,0.35c0.58,0,1.1-0.11,1.57-0.33
			c0.47-0.22,0.88-0.52,1.21-0.9s0.6-0.81,0.78-1.3c0.18-0.49,0.28-1.01,0.28-1.56s-0.09-1.06-0.28-1.56
			c-0.18-0.49-0.44-0.93-0.78-1.32s-0.74-0.69-1.21-0.91c-0.47-0.22-1-0.34-1.57-0.34c-0.62,0-1.17,0.11-1.63,0.34
			c-0.46,0.22-0.86,0.53-1.18,0.91c-0.32,0.38-0.56,0.82-0.72,1.32C732.31,363.32,732.23,363.83,732.23,364.36z"/>
		<path class="st1" d="M754.15,375.82h-2.26v-17.14h2.21v1.78h0.07c0.37-0.61,0.91-1.11,1.62-1.5c0.71-0.39,1.54-0.59,2.48-0.59
			c0.85,0,1.62,0.15,2.31,0.46c0.69,0.3,1.29,0.73,1.8,1.27c0.5,0.54,0.89,1.18,1.16,1.91s0.41,1.51,0.41,2.34s-0.14,1.62-0.41,2.35
			s-0.65,1.38-1.15,1.92s-1.09,0.97-1.79,1.28c-0.7,0.31-1.49,0.47-2.37,0.47c-0.81,0-1.58-0.18-2.3-0.53
			c-0.72-0.35-1.29-0.85-1.7-1.49h-0.07V375.82z M761.63,364.35c0-0.53-0.08-1.04-0.24-1.54c-0.16-0.5-0.4-0.94-0.72-1.32
			c-0.32-0.38-0.72-0.69-1.19-0.91s-1.02-0.34-1.64-0.34c-0.58,0-1.1,0.11-1.57,0.34c-0.47,0.22-0.88,0.53-1.21,0.91
			c-0.34,0.38-0.6,0.82-0.78,1.32c-0.18,0.5-0.28,1.02-0.28,1.56s0.09,1.06,0.28,1.56c0.18,0.5,0.44,0.93,0.78,1.31
			s0.74,0.68,1.21,0.9c0.47,0.22,1,0.34,1.57,0.34c0.62,0,1.17-0.12,1.64-0.35c0.47-0.23,0.87-0.54,1.19-0.92
			c0.32-0.38,0.56-0.82,0.72-1.32C761.55,365.39,761.63,364.88,761.63,364.35z"/>
		<path class="st1" d="M767.08,359.96c-0.02-0.48-0.04-0.9-0.07-1.27h2.14c0.03,0.29,0.06,0.62,0.07,1s0.02,0.68,0.02,0.92h0.07
			c0.32-0.67,0.79-1.21,1.4-1.62c0.62-0.41,1.31-0.61,2.08-0.61c0.35,0,0.65,0.03,0.89,0.1l-0.1,2.09
			c-0.32-0.08-0.66-0.12-1.03-0.12c-0.54,0-1.02,0.1-1.42,0.3c-0.4,0.2-0.73,0.47-1,0.8c-0.26,0.34-0.46,0.72-0.59,1.16
			c-0.13,0.44-0.19,0.9-0.19,1.38v5.98h-2.26v-8.93C767.11,360.83,767.1,360.44,767.08,359.96z"/>
		<path class="st1" d="M786.88,364.35c0,0.88-0.16,1.69-0.47,2.42c-0.31,0.74-0.74,1.37-1.3,1.91s-1.2,0.95-1.96,1.25
			s-1.56,0.44-2.42,0.44c-0.86,0-1.67-0.15-2.42-0.44c-0.75-0.3-1.4-0.71-1.94-1.25s-0.97-1.17-1.28-1.91
			c-0.31-0.74-0.47-1.54-0.47-2.42s0.16-1.68,0.47-2.41c0.31-0.73,0.74-1.36,1.28-1.88c0.54-0.53,1.19-0.94,1.94-1.24
			c0.75-0.3,1.56-0.44,2.42-0.44c0.86,0,1.67,0.15,2.42,0.44c0.75,0.3,1.4,0.71,1.96,1.24c0.55,0.53,0.98,1.16,1.3,1.88
			C786.73,362.66,786.88,363.47,786.88,364.35z M784.53,364.36c0-0.54-0.08-1.06-0.25-1.56c-0.17-0.49-0.41-0.93-0.73-1.3
			s-0.72-0.67-1.19-0.9c-0.47-0.22-1.02-0.34-1.63-0.34c-0.61,0-1.15,0.11-1.62,0.34c-0.47,0.22-0.87,0.52-1.19,0.9
			c-0.32,0.38-0.57,0.81-0.73,1.3c-0.17,0.49-0.25,1.01-0.25,1.56c0,0.54,0.08,1.06,0.25,1.56c0.17,0.49,0.41,0.93,0.73,1.32
			c0.32,0.38,0.72,0.69,1.19,0.91s1.02,0.33,1.62,0.33c0.61,0,1.15-0.11,1.63-0.33c0.47-0.22,0.87-0.53,1.19-0.91
			s0.57-0.82,0.73-1.32C784.45,365.42,784.53,364.9,784.53,364.36z"/>
		<path class="st1" d="M793.59,359.01c0.63-0.42,1.38-0.64,2.24-0.64c0.77,0,1.46,0.18,2.08,0.53c0.62,0.35,1.1,0.94,1.45,1.75
			c0.38-0.74,0.92-1.3,1.61-1.69c0.69-0.39,1.44-0.59,2.26-0.59c0.74,0,1.37,0.12,1.9,0.37c0.53,0.25,0.97,0.58,1.32,1
			s0.61,0.9,0.78,1.46s0.25,1.16,0.25,1.8v7.06h-2.26v-6.31c0-0.46-0.04-0.9-0.12-1.32s-0.22-0.78-0.41-1.1
			c-0.19-0.32-0.45-0.58-0.77-0.77c-0.32-0.19-0.73-0.29-1.22-0.29c-0.51,0-0.95,0.11-1.32,0.32c-0.37,0.22-0.67,0.5-0.9,0.84
			c-0.23,0.34-0.4,0.73-0.5,1.16c-0.1,0.43-0.16,0.87-0.16,1.32v6.14h-2.26v-6.77c0-0.45-0.04-0.86-0.12-1.22
			c-0.08-0.37-0.22-0.68-0.41-0.95c-0.19-0.26-0.44-0.47-0.74-0.62c-0.3-0.15-0.68-0.23-1.13-0.23c-0.83,0-1.52,0.34-2.08,1.02
			c-0.55,0.68-0.83,1.59-0.83,2.72v6.05H790v-8.93c0-0.3-0.01-0.7-0.02-1.18s-0.04-0.9-0.07-1.27h2.14
			c0.03,0.29,0.06,0.61,0.07,0.97c0.02,0.36,0.02,0.66,0.02,0.9h0.07C792.5,359.95,792.96,359.43,793.59,359.01z"/>
		<path class="st1" d="M813.93,354.58c0,0.42-0.15,0.76-0.44,1.03c-0.29,0.27-0.65,0.41-1.06,0.41s-0.76-0.14-1.05-0.42
			c-0.29-0.28-0.43-0.62-0.43-1.02c0-0.42,0.14-0.76,0.43-1.04c0.29-0.28,0.63-0.42,1.05-0.42s0.77,0.14,1.06,0.42
			C813.78,353.82,813.93,354.16,813.93,354.58z M813.57,370.06h-2.26v-11.38h2.26V370.06z"/>
		<path class="st1" d="M823.65,361.56c-0.26-0.42-0.62-0.76-1.08-1.02c-0.46-0.26-0.98-0.4-1.56-0.4c-0.26,0-0.51,0.03-0.77,0.08
			c-0.26,0.06-0.48,0.14-0.68,0.26s-0.36,0.27-0.48,0.46c-0.12,0.18-0.18,0.41-0.18,0.68c0,0.48,0.22,0.84,0.65,1.07
			c0.43,0.23,1.08,0.44,1.94,0.64c0.54,0.13,1.05,0.28,1.51,0.46c0.46,0.18,0.87,0.4,1.21,0.66c0.34,0.26,0.61,0.58,0.8,0.95
			s0.29,0.8,0.29,1.3c0,0.67-0.13,1.24-0.38,1.7c-0.26,0.46-0.6,0.84-1.02,1.14c-0.42,0.3-0.91,0.51-1.45,0.64s-1.1,0.19-1.68,0.19
			c-0.86,0-1.71-0.17-2.53-0.5s-1.51-0.85-2.05-1.54l1.61-1.37c0.3,0.45,0.72,0.82,1.26,1.13c0.54,0.3,1.12,0.46,1.76,0.46
			c0.29,0,0.56-0.03,0.83-0.08c0.26-0.06,0.5-0.15,0.72-0.28c0.22-0.13,0.39-0.3,0.52-0.5c0.13-0.21,0.19-0.47,0.19-0.79
			c0-0.53-0.25-0.92-0.76-1.18c-0.5-0.26-1.24-0.5-2.22-0.72c-0.38-0.1-0.77-0.21-1.16-0.35c-0.39-0.14-0.75-0.32-1.07-0.56
			c-0.32-0.24-0.58-0.54-0.78-0.9c-0.2-0.36-0.3-0.8-0.3-1.33c0-0.61,0.12-1.13,0.37-1.57s0.57-0.8,0.97-1.08
			c0.4-0.28,0.86-0.49,1.37-0.62c0.51-0.14,1.04-0.2,1.58-0.2c0.82,0,1.6,0.16,2.36,0.48c0.76,0.32,1.35,0.78,1.76,1.39
			L823.65,361.56z"/>
		<path class="st1" d="M838.79,364.27c0,0.13,0,0.26,0,0.38s-0.01,0.26-0.02,0.38h-9.05c0.02,0.48,0.12,0.93,0.32,1.35
			c0.2,0.42,0.47,0.79,0.8,1.1c0.34,0.31,0.72,0.55,1.16,0.73s0.91,0.26,1.4,0.26c0.77,0,1.43-0.17,1.99-0.5
			c0.56-0.34,1-0.74,1.32-1.22l1.58,1.27c-0.61,0.81-1.32,1.4-2.15,1.78c-0.82,0.38-1.74,0.57-2.75,0.57c-0.86,0-1.66-0.14-2.4-0.43
			s-1.37-0.69-1.9-1.21c-0.53-0.52-0.94-1.15-1.25-1.88c-0.3-0.74-0.46-1.55-0.46-2.45c0-0.88,0.15-1.69,0.44-2.44
			s0.71-1.38,1.24-1.91c0.53-0.53,1.15-0.94,1.88-1.24c0.72-0.3,1.5-0.44,2.33-0.44c0.83,0,1.59,0.14,2.27,0.41s1.26,0.66,1.73,1.18
			c0.47,0.51,0.84,1.13,1.09,1.86C838.66,362.54,838.79,363.36,838.79,364.27z M836.49,363.36c-0.02-0.45-0.09-0.87-0.23-1.26
			c-0.14-0.39-0.34-0.73-0.6-1.02c-0.26-0.29-0.59-0.52-0.98-0.68c-0.39-0.17-0.85-0.25-1.38-0.25c-0.48,0-0.93,0.08-1.36,0.25
			s-0.79,0.4-1.1,0.68c-0.31,0.29-0.57,0.63-0.77,1.02c-0.2,0.39-0.32,0.81-0.35,1.26H836.49z"/>
		<path class="st1" d="M848.06,361.56c-0.26-0.42-0.62-0.76-1.08-1.02c-0.46-0.26-0.98-0.4-1.56-0.4c-0.26,0-0.51,0.03-0.77,0.08
			c-0.26,0.06-0.48,0.14-0.68,0.26s-0.36,0.27-0.48,0.46c-0.12,0.18-0.18,0.41-0.18,0.68c0,0.48,0.22,0.84,0.65,1.07
			c0.43,0.23,1.08,0.44,1.94,0.64c0.54,0.13,1.05,0.28,1.51,0.46c0.46,0.18,0.87,0.4,1.21,0.66c0.34,0.26,0.61,0.58,0.8,0.95
			s0.29,0.8,0.29,1.3c0,0.67-0.13,1.24-0.38,1.7c-0.26,0.46-0.6,0.84-1.02,1.14c-0.42,0.3-0.91,0.51-1.45,0.64s-1.1,0.19-1.68,0.19
			c-0.86,0-1.71-0.17-2.53-0.5s-1.51-0.85-2.05-1.54l1.61-1.37c0.3,0.45,0.72,0.82,1.26,1.13c0.54,0.3,1.12,0.46,1.76,0.46
			c0.29,0,0.56-0.03,0.83-0.08c0.26-0.06,0.5-0.15,0.72-0.28c0.22-0.13,0.39-0.3,0.52-0.5c0.13-0.21,0.19-0.47,0.19-0.79
			c0-0.53-0.25-0.92-0.76-1.18c-0.5-0.26-1.24-0.5-2.22-0.72c-0.38-0.1-0.77-0.21-1.16-0.35c-0.39-0.14-0.75-0.32-1.07-0.56
			c-0.32-0.24-0.58-0.54-0.78-0.9c-0.2-0.36-0.3-0.8-0.3-1.33c0-0.61,0.12-1.13,0.37-1.57s0.57-0.8,0.97-1.08
			c0.4-0.28,0.86-0.49,1.37-0.62c0.51-0.14,1.04-0.2,1.58-0.2c0.82,0,1.6,0.16,2.36,0.48c0.76,0.32,1.35,0.78,1.76,1.39
			L848.06,361.56z"/>
		<path class="st1" d="M855.35,368.62c0,0.42-0.15,0.78-0.46,1.1c-0.3,0.32-0.69,0.48-1.15,0.48c-0.45,0-0.83-0.16-1.14-0.47
			c-0.31-0.31-0.47-0.68-0.47-1.09c0-0.43,0.15-0.8,0.46-1.12s0.69-0.47,1.15-0.47c0.46,0,0.85,0.15,1.15,0.46
			C855.2,367.82,855.35,368.19,855.35,368.62z"/>
	</g>
	<g>
		<path class="st1" d="M182.41,202.3h8.74l12.09,33.79h0.25l12.21-33.79h8.43l-17.61,43.9h-6.76L182.41,202.3z"/>
		<path class="st1" d="M240.26,202.3h6.76l18.91,43.9H257l-4.09-10.04h-19.03l-3.97,10.04h-8.74L240.26,202.3z M250.18,229.46
			l-6.76-17.86l-6.88,17.86H250.18z"/>
		<path class="st1" d="M270.26,202.3h7.81v36.95h18.66v6.94h-26.47V202.3z"/>
		<path class="st1" d="M301.95,202.3h7.81v43.9h-7.81V202.3z"/>
		<path class="st1" d="M319.43,202.3h15.56c2.85,0,5.72,0.37,8.62,1.12c2.89,0.74,5.5,1.97,7.81,3.69c2.31,1.72,4.19,3.97,5.64,6.76
			c1.45,2.79,2.17,6.25,2.17,10.38c0,3.84-0.72,7.15-2.17,9.92c-1.45,2.77-3.33,5.04-5.64,6.82c-2.32,1.78-4.92,3.09-7.81,3.94
			c-2.89,0.85-5.77,1.27-8.62,1.27h-15.56V202.3z M333.75,239.38c2.02,0,4.05-0.24,6.08-0.71c2.02-0.47,3.85-1.28,5.49-2.42
			c1.63-1.14,2.97-2.68,4-4.62c1.03-1.94,1.55-4.4,1.55-7.38c0-3.14-0.52-5.7-1.55-7.69c-1.03-1.98-2.37-3.53-4-4.65
			c-1.63-1.12-3.46-1.88-5.49-2.29c-2.03-0.41-4.05-0.62-6.08-0.62h-6.51v30.38H333.75z"/>
		<path class="st1" d="M379.07,202.3h6.76l18.91,43.9h-8.93l-4.09-10.04h-19.03l-3.97,10.04h-8.74L379.07,202.3z M388.99,229.46
			l-6.76-17.86l-6.88,17.86H388.99z"/>
		<path class="st1" d="M414.23,209.12h-13.45v-6.82h34.72v6.82h-13.45v37.08h-7.81V209.12z"/>
		<path class="st1" d="M440.58,202.3h29.08v6.82h-21.27v11.16h20.15v6.57h-20.15v12.4h22.38v6.94h-30.19V202.3z"/>
		<path class="st1" d="M501.28,209.12h-13.45v-6.82h34.72v6.82h-13.45v37.08h-7.81V209.12z"/>
		<path class="st1" d="M527.62,202.3h7.81v17.73h20.52V202.3h7.81v43.9h-7.81v-19.47h-20.52v19.47h-7.81V202.3z"/>
		<path class="st1" d="M573.44,202.3h29.08v6.82h-21.27v11.16h20.15v6.57h-20.15v12.4h22.38v6.94h-30.19V202.3z"/>
		<path class="st1" d="M658.44,212.6c-1.16-1.57-2.67-2.72-4.53-3.44c-1.86-0.72-3.68-1.08-5.46-1.08c-2.27,0-4.34,0.41-6.2,1.24
			c-1.86,0.83-3.46,1.96-4.8,3.41c-1.34,1.45-2.38,3.14-3.1,5.08c-0.72,1.94-1.08,4.05-1.08,6.32c0,2.4,0.35,4.59,1.05,6.57
			c0.7,1.98,1.71,3.69,3.01,5.12c1.3,1.43,2.86,2.53,4.68,3.32c1.82,0.79,3.86,1.18,6.14,1.18c2.36,0,4.44-0.46,6.26-1.4
			c1.82-0.93,3.29-2.16,4.4-3.69l6.26,4.4c-1.94,2.44-4.32,4.33-7.13,5.67c-2.81,1.34-6.1,2.02-9.86,2.02
			c-3.43,0-6.58-0.57-9.46-1.71c-2.87-1.14-5.34-2.73-7.41-4.77c-2.07-2.05-3.68-4.48-4.84-7.32c-1.16-2.83-1.74-5.96-1.74-9.39
			c0-3.51,0.61-6.69,1.83-9.52c1.22-2.83,2.89-5.24,5.02-7.22s4.64-3.51,7.53-4.59c2.89-1.07,6.03-1.61,9.42-1.61
			c1.41,0,2.87,0.13,4.4,0.4c1.53,0.27,3,0.68,4.4,1.24c1.41,0.56,2.73,1.25,3.97,2.08c1.24,0.83,2.29,1.82,3.16,2.98L658.44,212.6z
			"/>
		<path class="st1" d="M669.91,202.3h7.81v36.95h18.66v6.94h-26.47V202.3z"/>
		<path class="st1" d="M701.59,202.3h29.08v6.82h-21.27v11.16h20.15v6.57h-20.15v12.4h22.38v6.94h-30.19V202.3z"/>
		<path class="st1" d="M753.18,202.3h6.76l18.91,43.9h-8.93l-4.09-10.04h-19.03l-3.97,10.04h-8.74L753.18,202.3z M763.1,229.46
			l-6.76-17.86l-6.88,17.86H763.1z"/>
		<path class="st1" d="M783.19,202.3h10.35l20.4,32.86h0.12V202.3h7.81v43.9h-9.92l-20.83-33.91H791v33.91h-7.81V202.3z"/>
		<path class="st1" d="M829.81,241.86c0-1.32,0.49-2.46,1.46-3.41c0.97-0.95,2.14-1.43,3.5-1.43c1.32,0,2.48,0.46,3.47,1.36
			c0.99,0.91,1.49,2.03,1.49,3.35c0,1.32-0.49,2.46-1.46,3.41c-0.97,0.95-2.14,1.43-3.5,1.43c-0.66,0-1.29-0.12-1.89-0.37
			c-0.6-0.25-1.13-0.58-1.58-0.99c-0.46-0.41-0.82-0.91-1.08-1.49C829.94,243.14,829.81,242.52,829.81,241.86z"/>
	</g>
</g>
<g id="Logo">
	<path d="M729,464.9h11.1c0.9,0,1.6-0.2,2-0.7s0.6-1.4,0.6-2.6v-39c0-1.3,0.2-2.1,0.6-2.6c0.4-0.5,1-0.7,1.9-0.7h17.7
		c0.9,0,1.5-0.2,1.9-0.7c0.3-0.5,0.5-1.4,0.5-2.7v-7.8c0-1.3-0.2-2.2-0.5-2.6c-0.3-0.5-1-0.7-1.9-0.7h-56.5c-0.9,0-1.6,0.2-2,0.7
		s-0.6,1.4-0.6,2.6v7.8c0,1.3,0.2,2.1,0.6,2.6c0.4,0.5,1,0.7,2,0.7H724c0.9,0,1.6,0.2,2,0.7s0.6,1.4,0.6,2.6v39
		c0,1.3,0.2,2.1,0.5,2.6C727.4,464.6,728,464.9,729,464.9z M590.4,422.1c-0.8,0-1.4,0.2-1.7,0.5s-0.5,0.9-0.5,1.8v38.9
		c0,0.8,0.2,1.4,0.5,1.8c0.3,0.3,0.9,0.5,1.7,0.5h45.9c0.8,0,1.4-0.2,1.7-0.5s0.5-0.9,0.5-1.8v-5.4c0-0.8-0.2-1.4-0.5-1.8
		c-0.3-0.3-0.9-0.5-1.7-0.5h-31.7c-0.8,0-1.4-0.2-1.7-0.5s-0.5-0.9-0.5-1.8v-2.5c0-0.8,0.2-1.4,0.5-1.8c0.3-0.3,0.9-0.5,1.7-0.5
		h31.7c0.8,0,1.4-0.2,1.7-0.5s0.5-0.9,0.5-1.8V441c0-0.9-0.2-1.5-0.5-1.8s-0.9-0.5-1.7-0.5h-31.7c-0.8,0-1.4-0.2-1.7-0.5
		s-0.5-0.9-0.5-1.8v-2.3c0-0.8,0.2-1.4,0.5-1.8c0.3-0.3,0.9-0.5,1.7-0.5h31.7c0.8,0,1.4-0.2,1.7-0.5s0.5-0.9,0.5-1.8v-5.3
		c0-0.9-0.2-1.5-0.5-1.8s-0.9-0.5-1.7-0.5h-45.9V422.1z M572.3,448.6c2.3,0,4.2-0.8,5.7-2.3s2.3-3.4,2.3-5.7v-5v-5.4
		c0-2.3-0.8-4.2-2.3-5.7s-3.4-2.3-5.7-2.3h-45.5c-0.8,0-1.4,0.2-1.7,0.5s-0.5,0.9-0.5,1.8v38.9c0,0.8,0.2,1.4,0.5,1.8
		c0.3,0.3,0.9,0.5,1.7,0.5h9.8c0.8,0,1.4-0.2,1.7-0.5s0.5-0.9,0.5-1.8V451c0-0.8,0.2-1.4,0.5-1.8c0.3-0.3,0.9-0.5,1.7-0.5h31.3
		V448.6z M563.4,432c0.9,0,1.5,0.2,2,0.7c0.4,0.4,0.7,1.1,0.7,1.9v1.9c0,0.8-0.2,1.5-0.7,1.9c-0.4,0.4-1.1,0.6-2,0.6H541
		c-0.8,0-1.4-0.2-1.7-0.5s-0.5-0.9-0.5-1.8v-2.5c0-0.8,0.2-1.4,0.5-1.8c0.3-0.3,0.9-0.5,1.7-0.5h22.4V432z M469,448.5h29.1
		c0.8,0,1.5,0.2,1.9,0.7c0.4,0.4,0.7,1.1,0.7,2v2.6c0,0.8-0.2,1.5-0.7,1.9c-0.4,0.4-1.1,0.6-2,0.6h-20.3c-0.7,0-1.2-0.1-1.7-0.4
		s-0.7-0.6-0.7-0.9c0-0.6-0.2-1.1-0.7-1.5s-1.1-0.6-1.9-0.6h-9.2c-0.8,0-1.5,0.2-2,0.7c-0.5,0.4-0.7,1.1-0.7,1.9v2.1
		c0,2.3,0.8,4.2,2.3,5.7s3.4,2.3,5.7,2.3h38c2.3,0,4.2-0.8,5.7-2.3c1.5-1.5,2.3-3.4,2.3-5.7v-10.3c0-2.3-0.8-4.2-2.3-5.7
		s-3.4-2.3-5.7-2.3h-29.1c-0.8,0-1.5-0.2-2-0.7c-0.5-0.4-0.7-1.1-0.7-1.9V434c0-0.8,0.2-1.5,0.7-1.9c0.5-0.5,1.1-0.7,2-0.7H498
		c0.7,0,1.2,0.2,1.7,0.5s0.7,0.6,0.7,0.9c0,0.6,0.2,1.1,0.7,1.5s1.1,0.6,1.9,0.6h9.3c0.8,0,1.5-0.2,1.9-0.7c0.4-0.4,0.7-1.1,0.7-1.9
		v-2.1c0-2.3-0.8-4.2-2.3-5.7s-3.4-2.3-5.7-2.3h-38c-2.3,0-4.2,0.8-5.7,2.3s-2.3,3.4-2.3,5.7v10.3c0,2.3,0.8,4.2,2.3,5.7
		C464.8,447.7,466.7,448.5,469,448.5z M655.8,422.1c-2.3,0-4.2,0.8-5.7,2.3s-2.3,3.4-2.3,5.7v27.4c0,2.3,0.8,4.2,2.3,5.7
		s3.4,2.3,5.7,2.3h39.8c2.3,0,4.1-0.8,5.7-2.3c1.5-1.5,2.3-3.4,2.3-5.7v-3c0-0.8-0.2-1.5-0.7-1.9s-1.1-0.7-2-0.7h-9.2
		c-0.8,0-1.4,0.2-1.9,0.6s-0.7,0.9-0.7,1.5c0,0.3-0.2,0.6-0.7,0.9s-1.1,0.5-1.7,0.5h-21.9c-0.9,0-1.5-0.2-2-0.7
		c-0.4-0.4-0.7-1.1-0.7-1.9v-17.9c0-0.8,0.2-1.5,0.7-1.9s1.1-0.7,2-0.7h21.9c0.6,0,1.1,0.1,1.5,0.3c0.4,0.2,0.7,0.6,1,1.1
		c0,0,0.1,0.1,0.1,0.2c0.6,1,1.4,1.4,2.4,1.4h9.2c0.9,0,1.5-0.2,2-0.7c0.5-0.4,0.7-1.1,0.7-1.9v-2.5c0-2.3-0.8-4.2-2.3-5.7
		s-3.4-2.3-5.7-2.3h-39.8V422.1z M451.1,461.8c0,1.2-0.2,2-0.5,2.5c-0.4,0.5-1,0.7-1.9,0.7h-5.3h-5.6h-6H423c-0.7,0-1.2-0.1-1.6-0.4
		c-0.4-0.2-0.9-0.8-1.4-1.7l-14.6-43.7c-0.3-0.5-0.7-0.8-1-1.1c-0.3-0.2-0.7-0.3-1.2-0.3c-0.4,0-0.8,0.2-1.1,0.6
		c-0.3,0.4-0.4,0.9-0.4,1.6v29.6v2v10.1c0,1.2-0.2,2-0.5,2.5c-0.4,0.5-1,0.7-1.9,0.7H388c-0.9,0-1.6-0.2-1.9-0.7
		c-0.4-0.5-0.5-1.3-0.5-2.5v-54.6c0-1.2,0.2-2,0.5-2.5c0.4-0.5,1-0.7,1.9-0.7h5.6h0.6H412c0.7,0,1.3,0.1,1.7,0.4
		c0.4,0.2,0.9,0.8,1.4,1.6l16.4,44.1c0.3,0.5,0.7,0.9,1,1.1s0.7,0.3,1.1,0.3c0.5,0,0.9-0.2,1.2-0.6c0.3-0.4,0.4-0.9,0.4-1.6v-14.5
		V414v-6.5c0-1.2,0.2-2,0.5-2.5c0.4-0.5,1-0.7,1.9-0.7h10.9c0.9,0,1.6,0.2,1.9,0.7c0.4,0.5,0.5,1.3,0.5,2.5v54.3H451.1z"/>
	<g>
		<path class="st1" d="M770.6,407.8H769v-1h4.4v1h-1.6v4.5h-1.2L770.6,407.8L770.6,407.8z"/>
		<path class="st1" d="M779,408.3l-1.6,4h-0.5l-1.6-4v4h-1.2v-5.5h1.7l1.3,3.5l1.3-3.5h1.7v5.5H779V408.3z"/>
	</g>
	<path class="st1" d="M744.4,461.8c0,1.7-0.3,3-1,3.9s-1.7,1.3-3,1.3h-11.6c-1.3,0-2.3-0.4-3-1.3s-1-2.2-1-3.9v-39.1
		c0-0.5-0.1-0.8-0.2-1c-0.2-0.2-0.4-0.3-0.8-0.3h-17.6c-1.3,0-2.3-0.5-3-1.4s-1-2.2-1-4v-8.4c0-1.7,0.3-3,1-3.9s1.7-1.3,3-1.3H763
		c1.3,0,2.3,0.4,3,1.3s1,2.2,1,3.9v8.4c0,1.7-0.4,3.1-1.1,4c-0.7,0.9-1.7,1.4-3,1.4h-17.6c-0.4,0-0.6,0.1-0.8,0.3
		c-0.1,0.2-0.2,0.5-0.2,1v39.1H744.4z M729,464.9h11.1c0.9,0,1.6-0.2,2-0.7s0.6-1.4,0.6-2.6v-39c0-1.3,0.2-2.1,0.6-2.6
		c0.4-0.5,1-0.7,1.9-0.7h17.7c0.9,0,1.5-0.2,1.9-0.7c0.3-0.5,0.5-1.4,0.5-2.7v-7.8c0-1.3-0.2-2.2-0.5-2.6c-0.3-0.5-1-0.7-1.9-0.7
		h-56.5c-0.9,0-1.6,0.2-2,0.7s-0.6,1.4-0.6,2.6v7.8c0,1.3,0.2,2.1,0.6,2.6c0.4,0.5,1,0.7,2,0.7H724c0.9,0,1.6,0.2,2,0.7
		s0.6,1.4,0.6,2.6v39c0,1.3,0.2,2.1,0.5,2.6C727.4,464.6,728,464.9,729,464.9z M763.4,408v7.6c0,0.5-0.1,0.8-0.2,1
		c-0.1,0.2-0.4,0.3-0.8,0.3h-17.6c-1.3,0-2.3,0.4-3,1.3s-1,2.2-1,3.9v39.1c0,0.5-0.1,0.8-0.3,1.1c-0.2,0.2-0.4,0.3-0.8,0.3h-10.6
		c-0.3,0-0.6-0.1-0.7-0.3c-0.1-0.2-0.2-0.6-0.2-1.1v-39.1c0-1.7-0.3-3-1-3.9s-1.7-1.3-3-1.3h-17.6c-0.4,0-0.6-0.1-0.8-0.3
		c-0.2-0.2-0.3-0.5-0.3-1V408c0-0.5,0.1-0.8,0.2-1c0.2-0.2,0.4-0.3,0.8-0.3h55.8c0.4,0,0.6,0.1,0.8,0.3
		C763.4,407.3,763.4,407.6,763.4,408z"/>
	<path class="st1" d="M640.1,424.2v5.7c0,1.2-0.3,2.1-0.9,2.7c-0.6,0.6-1.5,0.9-2.7,0.9H605c-0.3,0-0.6,0.1-0.7,0.2
		c-0.1,0.1-0.2,0.4-0.2,0.7v2c0,0.3,0.1,0.5,0.2,0.7c0.1,0.1,0.4,0.2,0.7,0.2h31.5c1.2,0,2.1,0.3,2.7,0.9c0.6,0.6,0.9,1.5,0.9,2.7
		v5.7c0,1.2-0.3,2.1-0.9,2.7c-0.6,0.6-1.5,0.9-2.7,0.9H605c-0.3,0-0.6,0.1-0.7,0.2s-0.2,0.3-0.2,0.7v2.3c0,0.3,0.1,0.5,0.2,0.7
		c0.1,0.1,0.4,0.2,0.7,0.2h31.5c1.2,0,2.1,0.3,2.7,0.9c0.6,0.6,0.9,1.5,0.9,2.6v5.7c0,1.2-0.3,2.1-0.9,2.7c-0.6,0.6-1.5,0.9-2.7,0.9
		h-46.2c-1.2,0-2.1-0.3-2.7-0.9c-0.6-0.6-0.9-1.5-0.9-2.7v-39.3c0-1.2,0.3-2.1,0.9-2.6c0.6-0.6,1.5-0.9,2.7-0.9h46.2
		c1.2,0,2.1,0.3,2.7,0.9C639.7,422.2,640.1,423,640.1,424.2z M590.4,422.1c-0.8,0-1.4,0.2-1.7,0.5s-0.5,0.9-0.5,1.8v38.9
		c0,0.8,0.2,1.4,0.5,1.8c0.3,0.3,0.9,0.5,1.7,0.5h45.9c0.8,0,1.4-0.2,1.7-0.5s0.5-0.9,0.5-1.8v-5.4c0-0.8-0.2-1.4-0.5-1.8
		c-0.3-0.3-0.9-0.5-1.7-0.5h-31.7c-0.8,0-1.4-0.2-1.7-0.5s-0.5-0.9-0.5-1.8v-2.5c0-0.8,0.2-1.4,0.5-1.8c0.3-0.3,0.9-0.5,1.7-0.5
		h31.7c0.8,0,1.4-0.2,1.7-0.5s0.5-0.9,0.5-1.8V441c0-0.9-0.2-1.5-0.5-1.8s-0.9-0.5-1.7-0.5h-31.7c-0.8,0-1.4-0.2-1.7-0.5
		s-0.5-0.9-0.5-1.8v-2.3c0-0.8,0.2-1.4,0.5-1.8c0.3-0.3,0.9-0.5,1.7-0.5h31.7c0.8,0,1.4-0.2,1.7-0.5s0.5-0.9,0.5-1.8v-5.3
		c0-0.9-0.2-1.5-0.5-1.8s-0.9-0.5-1.7-0.5h-45.9V422.1z M636.9,463.1c0,0.3-0.1,0.6-0.2,0.7c-0.1,0.1-0.4,0.2-0.7,0.2h-45.4
		c-0.3,0-0.6-0.1-0.7-0.2c-0.1-0.1-0.2-0.4-0.2-0.7v-38.7c0-0.3,0.1-0.5,0.2-0.7c0.1-0.1,0.4-0.2,0.7-0.2H636c0.3,0,0.5,0.1,0.7,0.2
		c0.1,0.1,0.2,0.3,0.2,0.7v5.2c0,0.3-0.1,0.6-0.2,0.7c-0.1,0.1-0.4,0.2-0.7,0.2h-31.6c-1.2,0-2.1,0.3-2.6,0.9
		c-0.6,0.6-0.9,1.5-0.9,2.6v2.7c0,1.2,0.3,2.1,0.9,2.7c0.6,0.6,1.5,0.9,2.6,0.9H636c0.3,0,0.5,0.1,0.7,0.2c0.1,0.1,0.2,0.3,0.2,0.7
		v5.2c0,0.3-0.1,0.6-0.2,0.7c-0.1,0.1-0.4,0.2-0.7,0.2h-31.6c-1.2,0-2.1,0.3-2.6,0.9c-0.6,0.6-0.9,1.5-0.9,2.6v2.9
		c0,1.2,0.3,2.1,0.9,2.7c0.6,0.6,1.5,0.9,2.6,0.9H636c0.3,0,0.5,0.1,0.7,0.2c0.1,0.1,0.2,0.4,0.2,0.7V463.1z"/>
	<path class="st1" d="M541.3,450.1c-0.3,0-0.6,0.1-0.7,0.2s-0.2,0.3-0.2,0.7v12.5c0,1.2-0.3,2.1-0.9,2.7c-0.6,0.6-1.5,0.9-2.7,0.9
		h-10.2c-1.2,0-2.1-0.3-2.7-0.9c-0.6-0.6-0.9-1.5-0.9-2.7v-39.3c0-1.2,0.3-2.1,0.9-2.6c0.6-0.6,1.5-0.9,2.7-0.9h45.7
		c2.7,0,5,0.9,6.8,2.7c1.8,1.8,2.8,4.1,2.8,6.8v5.4v5.1c0,2.7-0.9,5-2.8,6.8c-1.8,1.8-4.1,2.7-6.8,2.7h-31V450.1z M572.3,448.6
		c2.3,0,4.2-0.8,5.7-2.3s2.3-3.4,2.3-5.7v-5v-5.4c0-2.3-0.8-4.2-2.3-5.7s-3.4-2.3-5.7-2.3h-45.5c-0.8,0-1.4,0.2-1.7,0.5
		s-0.5,0.9-0.5,1.8v38.9c0,0.8,0.2,1.4,0.5,1.8c0.3,0.3,0.9,0.5,1.7,0.5h9.8c0.8,0,1.4-0.2,1.7-0.5s0.5-0.9,0.5-1.8V451
		c0-0.8,0.2-1.4,0.5-1.8c0.3-0.3,0.9-0.5,1.7-0.5h31.3V448.6z M540.8,447.1c-1.2,0-2.1,0.3-2.6,0.9c-0.6,0.6-0.9,1.5-0.9,2.6v12.5
		c0,0.3-0.1,0.6-0.2,0.7c-0.2,0.2-0.4,0.2-0.7,0.2h-9.3c-0.3,0-0.6-0.1-0.7-0.2c-0.1-0.1-0.2-0.4-0.2-0.7v-38.7
		c0-0.3,0.1-0.5,0.2-0.7c0.1-0.1,0.4-0.2,0.7-0.2h45.3c1.8,0,3.3,0.6,4.6,1.9c1.2,1.3,1.8,2.8,1.8,4.7v5.4v5c0,1.9-0.6,3.4-1.8,4.7
		c-1.2,1.3-2.7,1.9-4.6,1.9L540.8,447.1L540.8,447.1z M563.4,430.5h-22.6c-1.2,0-2.1,0.3-2.6,0.9c-0.6,0.6-0.9,1.5-0.9,2.6v2.9
		c0,1.2,0.3,2.1,0.9,2.7c0.6,0.6,1.5,0.9,2.6,0.9h22.6c1.3,0,2.3-0.4,3.1-1.1s1.1-1.7,1.1-2.9v-1.9c0-1.3-0.4-2.3-1.1-3
		C565.8,430.9,564.7,430.5,563.4,430.5z M563.4,432c0.9,0,1.5,0.2,2,0.7c0.4,0.4,0.7,1.1,0.7,1.9v1.9c0,0.8-0.2,1.5-0.7,1.9
		c-0.4,0.4-1.1,0.6-2,0.6H541c-0.8,0-1.4-0.2-1.7-0.5s-0.5-0.9-0.5-1.8v-2.5c0-0.8,0.2-1.4,0.5-1.8c0.3-0.3,0.9-0.5,1.7-0.5h22.4
		V432z M563.4,433.5h-22.1c-0.3,0-0.6,0.1-0.7,0.2c-0.1,0.1-0.2,0.4-0.2,0.7v2.3c0,0.3,0.1,0.5,0.2,0.7s0.4,0.2,0.7,0.2h22.1
		c0.4,0,0.7-0.1,0.9-0.2c0.1-0.1,0.2-0.4,0.2-0.9v-1.9c0-0.4-0.1-0.7-0.2-0.9C564.1,433.6,563.8,433.5,563.4,433.5z"/>
	<path class="st1" d="M469,450c-2.7,0-5-0.9-6.8-2.8c-1.8-1.8-2.8-4.1-2.8-6.8v-10.3c0-2.7,0.9-5,2.8-6.8c1.8-1.8,4.1-2.7,6.8-2.7
		h38c2.7,0,5,0.9,6.8,2.7c1.8,1.8,2.7,4.1,2.7,6.8v2.1c0,1.3-0.4,2.3-1.1,3c-0.7,0.7-1.7,1.1-3.1,1.1H503c-1,0-1.8-0.2-2.3-0.5
		s-0.9-0.9-1.2-1.7c-0.2-0.6-0.4-1-0.6-1.1s-0.4-0.2-0.8-0.2h-20.3c-0.4,0-0.7,0.1-0.8,0.2c-0.1,0.2-0.2,0.5-0.2,0.9v2.5
		c0,0.5,0.1,0.8,0.2,0.9c0.1,0.2,0.4,0.2,0.8,0.2H507c2.7,0,5,0.9,6.8,2.7c1.8,1.8,2.7,4.1,2.7,6.8v10.3c0,2.7-0.9,5-2.7,6.8
		s-4.1,2.7-6.8,2.7h-38c-2.7,0-5-0.9-6.8-2.7c-1.8-1.8-2.8-4.1-2.8-6.8v-2.1c0-1.3,0.4-2.3,1.1-3c0.8-0.7,1.8-1.1,3.1-1.1h9.2
		c1.1,0,1.9,0.2,2.4,0.5s0.9,0.9,1.2,1.6c0.2,0.6,0.4,0.9,0.6,1.1c0.2,0.1,0.4,0.2,0.8,0.2h20.3c0.4,0,0.7-0.1,0.9-0.2
		c0.1-0.1,0.2-0.4,0.2-0.9v-2.6c0-0.4-0.1-0.7-0.2-0.9c-0.1-0.1-0.4-0.2-0.9-0.2H469V450z M469,448.5h29.1c0.8,0,1.5,0.2,1.9,0.7
		c0.4,0.4,0.7,1.1,0.7,2v2.6c0,0.8-0.2,1.5-0.7,1.9c-0.4,0.4-1.1,0.6-2,0.6h-20.3c-0.7,0-1.2-0.1-1.7-0.4s-0.7-0.6-0.7-0.9
		c0-0.6-0.2-1.1-0.7-1.5s-1.1-0.6-1.9-0.6h-9.2c-0.8,0-1.5,0.2-2,0.7c-0.5,0.4-0.7,1.1-0.7,1.9v2.1c0,2.3,0.8,4.2,2.3,5.7
		s3.4,2.3,5.7,2.3h38c2.3,0,4.2-0.8,5.7-2.3c1.5-1.5,2.3-3.4,2.3-5.7v-10.3c0-2.3-0.8-4.2-2.3-5.7s-3.4-2.3-5.7-2.3h-29.1
		c-0.8,0-1.5-0.2-2-0.7c-0.5-0.4-0.7-1.1-0.7-1.9V434c0-0.8,0.2-1.5,0.7-1.9c0.5-0.5,1.1-0.7,2-0.7H498c0.7,0,1.2,0.2,1.7,0.5
		s0.7,0.6,0.7,0.9c0,0.6,0.2,1.1,0.7,1.5s1.1,0.6,1.9,0.6h9.3c0.8,0,1.5-0.2,1.9-0.7c0.4-0.4,0.7-1.1,0.7-1.9v-2.1
		c0-2.3-0.8-4.2-2.3-5.7s-3.4-2.3-5.7-2.3h-38c-2.3,0-4.2,0.8-5.7,2.3s-2.3,3.4-2.3,5.7v10.3c0,2.3,0.8,4.2,2.3,5.7
		C464.8,447.7,466.7,448.5,469,448.5z M469,447c-1.8,0-3.4-0.6-4.6-1.9s-1.8-2.8-1.8-4.7v-10.3c0-1.9,0.6-3.4,1.8-4.7
		c1.2-1.3,2.8-1.9,4.6-1.9h38c1.8,0,3.4,0.6,4.6,1.9c1.2,1.3,1.8,2.8,1.8,4.7v2.1c0,0.4-0.1,0.7-0.2,0.9c-0.1,0.1-0.4,0.2-0.9,0.2
		H503c-0.4,0-0.7,0-0.8-0.1c-0.1-0.1-0.2-0.2-0.3-0.4c-0.5-1.2-1-2-1.5-2.3c-0.5-0.4-1.3-0.5-2.4-0.5h-20.3c-1.3,0-2.3,0.4-3.1,1.1
		c-0.8,0.7-1.1,1.7-1.1,3v2.5c0,1.2,0.4,2.2,1.1,3c0.8,0.7,1.8,1.1,3.1,1.1H507c1.8,0,3.4,0.6,4.6,1.9c1.2,1.3,1.8,2.8,1.8,4.7v10.3
		c0,1.8-0.6,3.4-1.8,4.7c-1.2,1.3-2.8,1.9-4.6,1.9h-38c-1.8,0-3.4-0.6-4.6-1.9s-1.8-2.8-1.8-4.7v-2.1c0-0.5,0.1-0.8,0.2-0.9
		s0.4-0.2,0.8-0.2h9.2c0.4,0,0.6,0,0.8,0.1c0.2,0.1,0.3,0.2,0.4,0.5c0.5,1.2,1,2,1.5,2.3s1.3,0.5,2.4,0.5h20.3
		c1.3,0,2.3-0.4,3.1-1.1c0.7-0.7,1.1-1.7,1.1-3v-2.6c0-1.3-0.4-2.3-1.1-3s-1.8-1.1-3-1.1H469z"/>
	<path class="st1" d="M705,430.2v2.5c0,1.3-0.4,2.3-1.1,3c-0.7,0.7-1.8,1.1-3.1,1.1h-9.2c-0.9,0-1.6-0.2-2.2-0.5
		c-0.5-0.3-1.1-0.9-1.6-1.7l0,0c-0.3-0.5-0.8-0.8-1.3-0.8h-21.9c-0.4,0-0.7,0.1-0.8,0.2c-0.1,0.2-0.2,0.5-0.2,0.9v17.9
		c0,0.4,0.1,0.7,0.2,0.9c0.1,0.1,0.4,0.2,0.8,0.2h21.9c0.4,0,0.7-0.1,0.8-0.2c0.2-0.1,0.4-0.5,0.6-1.1c0.3-0.8,0.7-1.4,1.2-1.7
		c0.5-0.3,1.3-0.5,2.4-0.5h9.2c1.3,0,2.4,0.4,3.1,1.1c0.7,0.7,1.1,1.7,1.1,3v3c0,2.7-0.9,5-2.7,6.8s-4.1,2.7-6.7,2.7h-39.8
		c-2.7,0-5-0.9-6.8-2.7c-1.8-1.8-2.8-4.1-2.8-6.8v-27.4c0-2.7,0.9-5,2.8-6.8c1.8-1.8,4.1-2.7,6.8-2.7h39.8c2.7,0,4.9,0.9,6.7,2.7
		C704.1,425.2,705,427.5,705,430.2z M655.8,422.1c-2.3,0-4.2,0.8-5.7,2.3s-2.3,3.4-2.3,5.7v27.4c0,2.3,0.8,4.2,2.3,5.7
		s3.4,2.3,5.7,2.3h39.8c2.3,0,4.1-0.8,5.7-2.3c1.5-1.5,2.3-3.4,2.3-5.7v-3c0-0.8-0.2-1.5-0.7-1.9s-1.1-0.7-2-0.7h-9.2
		c-0.8,0-1.4,0.2-1.9,0.6s-0.7,0.9-0.7,1.5c0,0.3-0.2,0.6-0.7,0.9s-1.1,0.5-1.7,0.5h-21.9c-0.9,0-1.5-0.2-2-0.7
		c-0.4-0.4-0.7-1.1-0.7-1.9v-17.9c0-0.8,0.2-1.5,0.7-1.9s1.1-0.7,2-0.7h21.9c0.6,0,1.1,0.1,1.5,0.3c0.4,0.2,0.7,0.6,1,1.1
		c0,0,0.1,0.1,0.1,0.2c0.6,1,1.4,1.4,2.4,1.4h9.2c0.9,0,1.5-0.2,2-0.7c0.5-0.4,0.7-1.1,0.7-1.9v-2.5c0-2.3-0.8-4.2-2.3-5.7
		s-3.4-2.3-5.7-2.3h-39.8V422.1z M655.8,423.6h39.8c1.8,0,3.3,0.6,4.6,1.9c1.2,1.3,1.8,2.8,1.8,4.7v2.5c0,0.4-0.1,0.7-0.2,0.9
		c-0.2,0.2-0.4,0.3-0.9,0.3h-9.2c-0.3,0-0.5,0-0.7-0.1s-0.3-0.2-0.4-0.5c-0.7-1.1-1.2-1.8-1.8-2.1c-0.5-0.3-1.3-0.4-2.2-0.4h-21.9
		c-1.3,0-2.3,0.4-3.1,1.1s-1.1,1.7-1.1,3v17.9c0,1.3,0.4,2.3,1.1,3c0.8,0.7,1.8,1.1,3.1,1.1h21.9c1.1,0,1.9-0.2,2.4-0.6
		c0.6-0.4,1.1-1.1,1.5-2.3c0.1-0.2,0.2-0.4,0.3-0.5s0.4-0.1,0.7-0.1h9.2c0.4,0,0.7,0.1,0.9,0.2c0.2,0.2,0.2,0.5,0.2,0.9v3
		c0,1.8-0.6,3.4-1.8,4.7c-1.2,1.3-2.7,1.9-4.6,1.9h-39.8c-1.8,0-3.4-0.6-4.6-1.9c-1.2-1.3-1.8-2.8-1.8-4.7v-27.4
		c0-1.9,0.6-3.4,1.8-4.7S653.9,423.6,655.8,423.6z"/>
	<path class="st1" d="M394.2,405.8h17.6c0.4,0,0.7,0.1,1,0.2c0.2,0.1,0.5,0.4,0.8,0.8l16.7,44.6c0.5,0.7,1,1.2,1.5,1.5
		s1.1,0.5,1.8,0.5c1.1,0,1.9-0.4,2.5-1.1s0.9-1.7,0.9-3.1v-14.7v-19.8v-6.9c0-0.4,0.1-0.7,0.2-0.9c0.1-0.2,0.4-0.3,0.7-0.3h10.4
		c0.4,0,0.7,0.1,0.8,0.3c0.2,0.2,0.2,0.5,0.2,0.9v53.9c0,0.5-0.1,0.8-0.3,1c-0.2,0.2-0.4,0.3-0.8,0.3h-5h-5.4h-4.1H423
		c-0.4,0-0.8-0.1-1-0.2s-0.5-0.4-0.7-0.9L406.5,418c-0.5-0.7-1-1.2-1.5-1.5s-1.2-0.5-1.9-0.5c-1,0-1.8,0.4-2.4,1.1
		c-0.6,0.8-0.9,1.8-0.9,3.1v28.5v2.8v10c0,0.5-0.1,0.8-0.3,1c-0.2,0.2-0.4,0.3-0.8,0.3h-10.4c-0.4,0-0.6-0.1-0.8-0.3
		c-0.2-0.2-0.2-0.5-0.2-1v-54.7c0-0.4,0.1-0.7,0.2-0.9c0.1-0.2,0.4-0.3,0.8-0.3h5.3h0.6V405.8z"/>
	<path class="st1" d="M451.8,403.7c-0.7-0.8-1.7-1.2-3-1.2h-11.4c-1.3,0-2.3,0.4-3,1.2c-0.7,0.8-1,2.1-1,3.7v6.2l0.1,18.9v16.8
		c0,0.1,0,0.1,0,0.2c0,0-0.1,0.1-0.2,0.1s-0.1,0-0.1,0l-0.1-0.1L416.5,405c-0.7-1.1-1.4-1.8-1.9-2.1c-0.6-0.3-1.3-0.5-2.3-0.5h-13.6
		h-4.5h-6.4c-1.3,0-2.3,0.4-3,1.2c-0.7,0.8-1,2-1,3.7V462c0,1.6,0.3,2.9,1,3.7c0.5,0.7,1.2,1.2,3,1.2h11.4c1.3,0,2.3-0.4,3-1.2
		c0.7-0.8,1-2.1,1-3.7v-9.9v-2v-29.9c0-0.1,0-0.2,0.1-0.2c0,0,0.1-0.1,0.2-0.1c0,0,0.1,0,0.1,0.1c0,0,0.1,0.1,0.1,0.2l14.8,44.3
		c0.7,1.1,1.3,1.8,1.9,2.1c0.6,0.3,1.3,0.5,2.2,0.5h13.7h1.2h5.4h6c1.3,0,2.3-0.4,3-1.2c0.7-0.8,1-2.1,1-3.7v-54.7
		C452.8,405.7,452.5,404.5,451.8,403.7z M451.1,461.8c0,1.2-0.2,2-0.5,2.5c-0.4,0.5-1,0.7-1.9,0.7h-5.3h-5.6h-6H423
		c-0.7,0-1.2-0.1-1.6-0.4c-0.4-0.2-0.9-0.8-1.4-1.7l-14.6-43.7c-0.3-0.5-0.7-0.8-1-1.1c-0.3-0.2-0.7-0.3-1.2-0.3
		c-0.4,0-0.8,0.2-1.1,0.6c-0.3,0.4-0.4,0.9-0.4,1.6v29.6v2v10.1c0,1.2-0.2,2-0.5,2.5c-0.4,0.5-1,0.7-1.9,0.7H388
		c-0.9,0-1.6-0.2-1.9-0.7c-0.4-0.5-0.5-1.3-0.5-2.5v-54.6c0-1.2,0.2-2,0.5-2.5c0.4-0.5,1-0.7,1.9-0.7h5.6h0.6H412
		c0.7,0,1.3,0.1,1.7,0.4c0.4,0.2,0.9,0.8,1.4,1.6l16.4,44.1c0.3,0.5,0.7,0.9,1,1.1s0.7,0.3,1.1,0.3c0.5,0,0.9-0.2,1.2-0.6
		c0.3-0.4,0.4-0.9,0.4-1.6v-14.5V414v-6.5c0-1.2,0.2-2,0.5-2.5c0.4-0.5,1-0.7,1.9-0.7h10.9c0.9,0,1.6,0.2,1.9,0.7
		c0.4,0.5,0.5,1.3,0.5,2.5v54.3H451.1z"/>
</g>
</svg>
