<?xml version="1.0" encoding="utf-8"?>
<!-- Generator: Adobe Illustrator 25.2.1, SVG Export Plug-In . SVG Version: 6.00 Build 0)  -->
<svg version="1.1" id="Layer_1" xmlns="http://www.w3.org/2000/svg" xmlns:xlink="http://www.w3.org/1999/xlink" x="0px" y="0px"
	 viewBox="0 0 1024 747" style="enable-background:new 0 0 1024 747;" xml:space="preserve">
<style type="text/css">
	.st0{fill:none;}
	.st1{fill:#FFFFFF;}
	.st2{fill:#0069A7;}
	.st3{fill:#76BC21;}
</style>
<rect class="st0" width="1024" height="747"/>
<g>
	<path class="st1" d="M388.784,498.014h2.616l7.32,16.992h-3.456l-1.584-3.888h-7.368l-1.536,3.888h-3.384L388.784,498.014z
		 M392.624,508.526l-2.616-6.912l-2.664,6.912H392.624z"/>
	<path class="st1" d="M405.824,503.486h2.736v1.848h0.048c0.255-0.576,0.7-1.084,1.332-1.523c0.632-0.44,1.38-0.66,2.244-0.66
		c0.752,0,1.396,0.132,1.932,0.396c0.536,0.265,0.976,0.612,1.32,1.044c0.344,0.433,0.596,0.929,0.756,1.488
		c0.16,0.561,0.24,1.136,0.24,1.728v7.2h-2.88v-6.384c0-0.336-0.024-0.688-0.072-1.056s-0.152-0.7-0.312-0.996
		s-0.38-0.54-0.66-0.732c-0.28-0.191-0.652-0.288-1.116-0.288s-0.864,0.093-1.2,0.276c-0.336,0.184-0.612,0.42-0.828,0.708
		s-0.38,0.62-0.492,0.996s-0.168,0.756-0.168,1.14v6.336h-2.88L405.824,503.486L405.824,503.486z"/>
	<path class="st1" d="M419.12,509.198c0-0.912,0.164-1.74,0.492-2.484s0.772-1.38,1.332-1.908c0.56-0.527,1.224-0.936,1.992-1.224
		s1.584-0.432,2.448-0.432c0.864,0,1.68,0.144,2.448,0.432s1.432,0.696,1.992,1.224c0.56,0.528,1.004,1.164,1.332,1.908
		s0.492,1.572,0.492,2.484s-0.164,1.744-0.492,2.496c-0.328,0.752-0.772,1.396-1.332,1.932s-1.224,0.956-1.992,1.26
		s-1.584,0.456-2.448,0.456c-0.864,0-1.68-0.152-2.448-0.456s-1.432-0.724-1.992-1.26s-1.004-1.18-1.332-1.932
		S419.12,510.11,419.12,509.198z M422.048,509.198c0,0.448,0.068,0.896,0.204,1.344c0.136,0.448,0.34,0.849,0.612,1.2
		s0.616,0.64,1.032,0.864c0.416,0.224,0.912,0.336,1.488,0.336c0.576,0,1.072-0.112,1.488-0.336c0.416-0.225,0.76-0.513,1.032-0.864
		s0.476-0.752,0.612-1.2c0.136-0.447,0.204-0.896,0.204-1.344s-0.068-0.892-0.204-1.332c-0.136-0.44-0.34-0.836-0.612-1.188
		s-0.616-0.636-1.032-0.852c-0.417-0.216-0.912-0.324-1.488-0.324c-0.576,0-1.072,0.108-1.488,0.324
		c-0.417,0.216-0.76,0.5-1.032,0.852c-0.272,0.353-0.476,0.748-0.612,1.188C422.116,508.307,422.048,508.75,422.048,509.198z"/>
	<path class="st1" d="M434.432,503.486h2.736v1.848h0.048c0.255-0.576,0.7-1.084,1.332-1.523c0.632-0.44,1.38-0.66,2.244-0.66
		c0.752,0,1.396,0.132,1.932,0.396c0.536,0.265,0.976,0.612,1.32,1.044c0.344,0.433,0.596,0.929,0.756,1.488
		c0.16,0.561,0.24,1.136,0.24,1.728v7.2h-2.88v-6.384c0-0.336-0.024-0.688-0.072-1.056s-0.152-0.7-0.312-0.996
		s-0.38-0.54-0.66-0.732c-0.28-0.191-0.652-0.288-1.116-0.288s-0.864,0.093-1.2,0.276c-0.336,0.184-0.612,0.42-0.828,0.708
		s-0.38,0.62-0.492,0.996s-0.168,0.756-0.168,1.14v6.336h-2.88L434.432,503.486L434.432,503.486z"/>
	<path class="st1" d="M453.392,510.326h-5.76v-2.448h5.76V510.326z"/>
	<path class="st1" d="M454.423,505.79v-2.304h2.016v-3.336h2.832v3.336h2.88v2.304h-2.88v5.353c0,0.512,0.092,0.936,0.276,1.271
		s0.596,0.504,1.236,0.504c0.192,0,0.399-0.02,0.624-0.06c0.224-0.04,0.424-0.1,0.6-0.181l0.096,2.257
		c-0.256,0.096-0.56,0.171-0.912,0.228c-0.352,0.056-0.688,0.084-1.008,0.084c-0.768,0-1.392-0.108-1.872-0.324
		s-0.86-0.512-1.14-0.888s-0.472-0.808-0.576-1.296c-0.104-0.488-0.156-1.012-0.156-1.572v-5.376L454.423,505.79L454.423,505.79z"/>
	<path class="st1" d="M463.567,509.198c0-0.912,0.164-1.74,0.492-2.484s0.772-1.38,1.332-1.908c0.56-0.527,1.224-0.936,1.992-1.224
		s1.584-0.432,2.448-0.432c0.864,0,1.68,0.144,2.448,0.432s1.432,0.696,1.992,1.224c0.56,0.528,1.004,1.164,1.332,1.908
		s0.492,1.572,0.492,2.484s-0.164,1.744-0.492,2.496c-0.328,0.752-0.772,1.396-1.332,1.932s-1.224,0.956-1.992,1.26
		s-1.584,0.456-2.448,0.456c-0.864,0-1.68-0.152-2.448-0.456s-1.432-0.724-1.992-1.26s-1.004-1.18-1.332-1.932
		S463.567,510.11,463.567,509.198z M466.495,509.198c0,0.448,0.068,0.896,0.204,1.344c0.136,0.448,0.34,0.849,0.612,1.2
		s0.616,0.64,1.032,0.864c0.416,0.224,0.912,0.336,1.488,0.336c0.576,0,1.072-0.112,1.488-0.336c0.416-0.225,0.76-0.513,1.032-0.864
		s0.476-0.752,0.612-1.2c0.136-0.447,0.204-0.896,0.204-1.344s-0.068-0.892-0.204-1.332c-0.136-0.44-0.34-0.836-0.612-1.188
		s-0.616-0.636-1.032-0.852c-0.417-0.216-0.912-0.324-1.488-0.324c-0.576,0-1.072,0.108-1.488,0.324
		c-0.417,0.216-0.76,0.5-1.032,0.852c-0.272,0.353-0.476,0.748-0.612,1.188C466.562,508.307,466.495,508.75,466.495,509.198z"/>
	<path class="st1" d="M481.566,508.886l-4.152-5.399h3.456l2.496,3.576l2.568-3.576h3.312l-4.128,5.399l4.704,6.12h-3.504l-3-4.2
		l-3.024,4.2h-3.408L481.566,508.886z"/>
	<path class="st1" d="M491.166,499.574c0-0.464,0.171-0.868,0.516-1.212s0.78-0.517,1.308-0.517s0.972,0.165,1.332,0.492
		c0.36,0.328,0.54,0.74,0.54,1.236s-0.18,0.908-0.54,1.236s-0.804,0.491-1.332,0.491s-0.964-0.172-1.308-0.516
		S491.166,500.038,491.166,499.574z M491.574,503.486h2.88v11.52h-2.88V503.486z"/>
	<path class="st1" d="M505.83,506.678c-0.224-0.319-0.561-0.588-1.008-0.804s-0.904-0.324-1.368-0.324
		c-0.528,0-0.992,0.108-1.392,0.324s-0.732,0.5-0.996,0.853c-0.264,0.352-0.46,0.748-0.588,1.188
		c-0.128,0.44-0.192,0.885-0.192,1.332c0,0.448,0.068,0.893,0.204,1.332c0.136,0.44,0.34,0.836,0.612,1.188
		c0.272,0.353,0.612,0.637,1.02,0.853s0.884,0.324,1.428,0.324c0.448,0,0.896-0.088,1.344-0.265c0.448-0.176,0.808-0.432,1.08-0.768
		l1.8,1.824c-0.48,0.512-1.092,0.908-1.836,1.188c-0.744,0.28-1.548,0.42-2.412,0.42c-0.848,0-1.652-0.136-2.412-0.407
		c-0.76-0.272-1.424-0.673-1.992-1.2c-0.568-0.528-1.016-1.168-1.344-1.92s-0.492-1.608-0.492-2.568c0-0.928,0.164-1.768,0.492-2.52
		s0.772-1.393,1.332-1.921c0.56-0.527,1.212-0.936,1.956-1.224s1.54-0.432,2.388-0.432s1.668,0.16,2.46,0.479
		c0.792,0.32,1.419,0.761,1.884,1.32L505.83,506.678z"/>
	<path class="st1" d="M529.422,503.15c0.751,0,1.396,0.132,1.932,0.396c0.536,0.265,0.976,0.612,1.32,1.044
		c0.344,0.433,0.596,0.929,0.756,1.488c0.159,0.561,0.239,1.136,0.239,1.728v7.2h-2.88v-6.384c0-0.336-0.023-0.688-0.071-1.056
		c-0.049-0.368-0.152-0.7-0.312-0.996s-0.38-0.54-0.66-0.732c-0.28-0.191-0.651-0.288-1.115-0.288c-0.448,0-0.833,0.097-1.152,0.288
		c-0.32,0.192-0.584,0.44-0.792,0.744s-0.36,0.645-0.456,1.021s-0.145,0.748-0.145,1.115v6.288h-2.88v-6.96
		c0-0.72-0.172-1.315-0.516-1.788c-0.345-0.472-0.885-0.708-1.62-0.708c-0.432,0-0.808,0.093-1.128,0.276s-0.58,0.42-0.78,0.708
		s-0.352,0.62-0.456,0.996s-0.155,0.756-0.155,1.14v6.336h-2.881v-11.52h2.736v1.848h0.048c0.128-0.288,0.3-0.56,0.517-0.815
		c0.216-0.256,0.472-0.488,0.768-0.696s0.636-0.372,1.021-0.492c0.384-0.12,0.808-0.18,1.271-0.18c0.896,0,1.64,0.2,2.232,0.6
		s1.048,0.929,1.368,1.584c0.384-0.704,0.896-1.244,1.535-1.62S528.558,503.15,529.422,503.15z"/>
	<path class="st1" d="M536.67,499.574c0-0.464,0.172-0.868,0.516-1.212s0.78-0.517,1.309-0.517c0.527,0,0.972,0.165,1.332,0.492
		c0.359,0.328,0.54,0.74,0.54,1.236s-0.181,0.908-0.54,1.236c-0.36,0.328-0.805,0.491-1.332,0.491c-0.528,0-0.965-0.172-1.309-0.516
		S536.67,500.038,536.67,499.574z M537.078,503.486h2.88v11.52h-2.88V503.486z"/>
	<path class="st1" d="M543.461,503.486h2.736v1.848h0.048c0.256-0.576,0.7-1.084,1.332-1.523c0.632-0.44,1.38-0.66,2.244-0.66
		c0.752,0,1.396,0.132,1.932,0.396c0.536,0.265,0.977,0.612,1.32,1.044c0.344,0.433,0.596,0.929,0.756,1.488
		c0.16,0.561,0.24,1.136,0.24,1.728v7.2h-2.88v-6.384c0-0.336-0.024-0.688-0.072-1.056s-0.152-0.7-0.312-0.996
		c-0.16-0.296-0.381-0.54-0.66-0.732c-0.28-0.191-0.652-0.288-1.116-0.288s-0.864,0.093-1.2,0.276s-0.611,0.42-0.828,0.708
		c-0.216,0.288-0.38,0.62-0.491,0.996c-0.112,0.376-0.168,0.756-0.168,1.14v6.336h-2.881L543.461,503.486L543.461,503.486z"/>
	<path class="st1" d="M568.421,509.39c0,0.129,0,0.257,0,0.385s-0.008,0.256-0.023,0.384h-8.761c0.032,0.416,0.141,0.796,0.324,1.14
		c0.184,0.345,0.428,0.641,0.732,0.889c0.304,0.248,0.647,0.443,1.032,0.588c0.384,0.144,0.783,0.216,1.199,0.216
		c0.721,0,1.328-0.132,1.824-0.396s0.904-0.627,1.225-1.092l1.92,1.536c-1.137,1.536-2.784,2.304-4.944,2.304
		c-0.896,0-1.72-0.14-2.472-0.42c-0.753-0.279-1.404-0.676-1.956-1.188c-0.553-0.512-0.984-1.141-1.296-1.884
		c-0.312-0.744-0.469-1.588-0.469-2.532c0-0.928,0.156-1.772,0.469-2.532c0.312-0.76,0.739-1.408,1.283-1.944
		c0.544-0.535,1.188-0.951,1.933-1.248c0.744-0.296,1.548-0.443,2.412-0.443c0.8,0,1.539,0.132,2.22,0.396
		c0.68,0.265,1.268,0.656,1.764,1.176c0.496,0.521,0.884,1.169,1.164,1.944C568.281,507.442,568.421,508.351,568.421,509.39z
		 M565.541,508.094c0-0.367-0.052-0.72-0.156-1.056s-0.268-0.632-0.491-0.888c-0.225-0.256-0.509-0.46-0.853-0.612
		s-0.748-0.228-1.212-0.228c-0.864,0-1.596,0.26-2.196,0.779c-0.6,0.521-0.932,1.188-0.996,2.004h5.904V508.094z"/>
	<path class="st1" d="M571.204,503.486h2.761v1.92h0.048c0.319-0.672,0.768-1.216,1.344-1.632s1.248-0.624,2.017-0.624
		c0.111,0,0.231,0.004,0.359,0.012s0.24,0.028,0.336,0.06v2.641c-0.191-0.048-0.356-0.08-0.492-0.097
		c-0.136-0.016-0.268-0.023-0.396-0.023c-0.656,0-1.185,0.12-1.584,0.36c-0.4,0.239-0.712,0.527-0.937,0.863
		c-0.224,0.336-0.376,0.681-0.456,1.032c-0.08,0.353-0.119,0.632-0.119,0.84v6.168h-2.881V503.486z"/>
	<path class="st1" d="M586.781,513.542h-0.072c-0.288,0.513-0.752,0.933-1.392,1.26c-0.641,0.328-1.368,0.492-2.184,0.492
		c-0.465,0-0.948-0.06-1.452-0.18s-0.969-0.32-1.393-0.601c-0.424-0.279-0.776-0.647-1.056-1.104c-0.28-0.456-0.42-1.021-0.42-1.692
		c0-0.863,0.243-1.552,0.731-2.063s1.116-0.904,1.885-1.176c0.768-0.272,1.62-0.452,2.556-0.54s1.852-0.133,2.748-0.133v-0.287
		c0-0.721-0.261-1.252-0.78-1.597c-0.52-0.344-1.14-0.516-1.859-0.516c-0.608,0-1.192,0.128-1.752,0.384
		c-0.561,0.256-1.024,0.568-1.393,0.937l-1.488-1.753c0.656-0.607,1.412-1.063,2.269-1.367c0.855-0.304,1.724-0.456,2.604-0.456
		c1.024,0,1.868,0.144,2.532,0.432s1.188,0.664,1.572,1.128c0.384,0.465,0.651,0.984,0.804,1.561
		c0.152,0.575,0.229,1.151,0.229,1.728v7.008h-2.688L586.781,513.542L586.781,513.542z M586.733,509.75h-0.648
		c-0.464,0-0.952,0.021-1.464,0.061s-0.983,0.128-1.416,0.264c-0.432,0.136-0.792,0.328-1.08,0.576s-0.432,0.588-0.432,1.02
		c0,0.272,0.06,0.5,0.18,0.685c0.12,0.184,0.276,0.332,0.469,0.443c0.191,0.112,0.407,0.192,0.647,0.24s0.48,0.072,0.72,0.072
		c0.992,0,1.744-0.265,2.257-0.792c0.512-0.528,0.768-1.248,0.768-2.16L586.733,509.75L586.733,509.75z"/>
	<path class="st1" d="M592.877,496.862h2.88v18.144h-2.88V496.862z"/>
	<path class="st1" d="M604.252,510.326h-5.76v-2.448h5.76V510.326z"/>
	<path class="st1" d="M609.868,496.862v8.088h0.071c0.145-0.192,0.328-0.392,0.553-0.6c0.224-0.208,0.492-0.4,0.804-0.576
		s0.676-0.324,1.092-0.444s0.889-0.18,1.416-0.18c0.816,0,1.568,0.155,2.256,0.468c0.688,0.312,1.28,0.74,1.776,1.284
		s0.88,1.184,1.152,1.92c0.271,0.736,0.407,1.528,0.407,2.376s-0.132,1.644-0.396,2.388s-0.641,1.393-1.128,1.944
		c-0.488,0.552-1.08,0.992-1.776,1.32c-0.695,0.327-1.484,0.491-2.364,0.491c-0.815,0-1.58-0.176-2.292-0.527
		c-0.712-0.353-1.268-0.864-1.668-1.536h-0.048v1.728h-2.735v-18.144L609.868,496.862L609.868,496.862z M616.468,509.198
		c0-0.448-0.068-0.892-0.204-1.332s-0.34-0.836-0.611-1.188c-0.272-0.352-0.616-0.636-1.032-0.852s-0.904-0.324-1.464-0.324
		c-0.528,0-1,0.112-1.416,0.336c-0.417,0.225-0.772,0.513-1.068,0.864c-0.296,0.353-0.521,0.752-0.672,1.2
		c-0.152,0.448-0.229,0.896-0.229,1.344s0.076,0.893,0.229,1.332c0.151,0.44,0.376,0.836,0.672,1.188
		c0.296,0.353,0.651,0.637,1.068,0.853c0.416,0.216,0.888,0.324,1.416,0.324c0.56,0,1.048-0.112,1.464-0.336
		c0.416-0.225,0.76-0.513,1.032-0.864c0.271-0.352,0.476-0.752,0.611-1.2C616.399,510.095,616.468,509.646,616.468,509.198z"/>
	<path class="st1" d="M629.332,513.542h-0.072c-0.288,0.513-0.752,0.933-1.392,1.26c-0.641,0.328-1.368,0.492-2.184,0.492
		c-0.465,0-0.948-0.06-1.452-0.18s-0.969-0.32-1.393-0.601c-0.424-0.279-0.776-0.647-1.056-1.104c-0.28-0.456-0.42-1.021-0.42-1.692
		c0-0.863,0.243-1.552,0.731-2.063s1.116-0.904,1.885-1.176c0.768-0.272,1.62-0.452,2.556-0.54s1.852-0.133,2.748-0.133v-0.287
		c0-0.721-0.261-1.252-0.78-1.597c-0.52-0.344-1.14-0.516-1.859-0.516c-0.608,0-1.192,0.128-1.752,0.384
		c-0.561,0.256-1.024,0.568-1.393,0.937l-1.488-1.753c0.656-0.607,1.412-1.063,2.269-1.367c0.855-0.304,1.724-0.456,2.604-0.456
		c1.024,0,1.868,0.144,2.532,0.432s1.188,0.664,1.572,1.128c0.384,0.465,0.651,0.984,0.804,1.561
		c0.152,0.575,0.229,1.151,0.229,1.728v7.008h-2.688L629.332,513.542L629.332,513.542z M629.284,509.75h-0.648
		c-0.464,0-0.952,0.021-1.464,0.061s-0.983,0.128-1.416,0.264c-0.432,0.136-0.792,0.328-1.08,0.576s-0.432,0.588-0.432,1.02
		c0,0.272,0.06,0.5,0.18,0.685c0.12,0.184,0.276,0.332,0.469,0.443c0.191,0.112,0.407,0.192,0.647,0.24s0.48,0.072,0.72,0.072
		c0.992,0,1.744-0.265,2.257-0.792c0.512-0.528,0.768-1.248,0.768-2.16L629.284,509.75L629.284,509.75z"/>
	<path class="st1" d="M641.691,506.558c-0.256-0.336-0.608-0.627-1.056-0.876c-0.448-0.247-0.937-0.371-1.465-0.371
		c-0.464,0-0.888,0.096-1.271,0.287c-0.384,0.192-0.576,0.513-0.576,0.96c0,0.448,0.212,0.765,0.636,0.948
		c0.424,0.185,1.044,0.372,1.86,0.564c0.432,0.096,0.868,0.224,1.308,0.384s0.841,0.372,1.2,0.636
		c0.36,0.265,0.652,0.593,0.876,0.984c0.224,0.393,0.336,0.868,0.336,1.428c0,0.704-0.132,1.3-0.396,1.788
		c-0.265,0.488-0.616,0.885-1.057,1.188c-0.439,0.304-0.952,0.523-1.535,0.659c-0.585,0.136-1.188,0.204-1.812,0.204
		c-0.896,0-1.768-0.164-2.616-0.491c-0.848-0.328-1.552-0.796-2.111-1.404l1.896-1.776c0.32,0.416,0.736,0.761,1.248,1.032
		c0.512,0.272,1.08,0.408,1.704,0.408c0.208,0,0.42-0.024,0.636-0.072s0.416-0.124,0.601-0.228c0.184-0.104,0.331-0.244,0.443-0.421
		c0.112-0.176,0.168-0.392,0.168-0.647c0-0.48-0.22-0.824-0.659-1.032c-0.44-0.208-1.101-0.416-1.98-0.624
		c-0.432-0.096-0.852-0.22-1.26-0.372c-0.408-0.151-0.772-0.352-1.092-0.6c-0.32-0.248-0.576-0.556-0.769-0.924
		s-0.288-0.824-0.288-1.368c0-0.64,0.132-1.192,0.396-1.656c0.264-0.464,0.611-0.844,1.044-1.14c0.432-0.296,0.92-0.517,1.464-0.66
		c0.544-0.145,1.104-0.216,1.68-0.216c0.832,0,1.645,0.144,2.437,0.432s1.419,0.729,1.884,1.32L641.691,506.558z"/>
	<path class="st1" d="M657.026,509.39c0,0.129,0,0.257,0,0.385s-0.008,0.256-0.023,0.384h-8.761c0.032,0.416,0.141,0.796,0.324,1.14
		c0.184,0.345,0.428,0.641,0.732,0.889c0.304,0.248,0.647,0.443,1.032,0.588c0.384,0.144,0.783,0.216,1.199,0.216
		c0.721,0,1.328-0.132,1.824-0.396s0.904-0.627,1.225-1.092l1.92,1.536c-1.137,1.536-2.784,2.304-4.944,2.304
		c-0.896,0-1.72-0.14-2.472-0.42c-0.753-0.279-1.404-0.676-1.956-1.188c-0.553-0.512-0.984-1.141-1.296-1.884
		c-0.312-0.744-0.469-1.588-0.469-2.532c0-0.928,0.156-1.772,0.469-2.532c0.312-0.76,0.739-1.408,1.283-1.944
		c0.544-0.535,1.188-0.951,1.933-1.248c0.744-0.296,1.548-0.443,2.412-0.443c0.8,0,1.539,0.132,2.22,0.396
		c0.68,0.265,1.268,0.656,1.764,1.176c0.496,0.521,0.884,1.169,1.164,1.944C656.887,507.442,657.026,508.351,657.026,509.39z
		 M654.146,508.094c0-0.367-0.052-0.72-0.156-1.056s-0.268-0.632-0.491-0.888c-0.225-0.256-0.509-0.46-0.853-0.612
		s-0.748-0.228-1.212-0.228c-0.864,0-1.596,0.26-2.196,0.779c-0.6,0.521-0.932,1.188-0.996,2.004h5.904V508.094z"/>
	<path class="st1" d="M671.522,515.006h-2.736v-1.728h-0.048c-0.4,0.672-0.956,1.184-1.668,1.536
		c-0.713,0.352-1.477,0.527-2.292,0.527c-0.881,0-1.668-0.164-2.364-0.491c-0.696-0.328-1.288-0.769-1.776-1.32
		s-0.863-1.2-1.128-1.944c-0.264-0.744-0.396-1.54-0.396-2.388s0.136-1.64,0.408-2.376c0.271-0.736,0.655-1.376,1.151-1.92
		s1.088-0.973,1.776-1.284c0.688-0.312,1.439-0.468,2.256-0.468c0.528,0,1,0.06,1.416,0.18s0.78,0.269,1.092,0.444
		c0.312,0.176,0.58,0.368,0.804,0.576c0.225,0.208,0.408,0.407,0.553,0.6h0.071v-8.088h2.881L671.522,515.006L671.522,515.006z
		 M662.042,509.198c0,0.448,0.068,0.896,0.204,1.344s0.34,0.849,0.612,1.2c0.271,0.352,0.615,0.64,1.031,0.864
		s0.904,0.336,1.465,0.336c0.527,0,0.999-0.108,1.416-0.324c0.415-0.216,0.771-0.5,1.067-0.853c0.296-0.352,0.52-0.747,0.672-1.188
		c0.152-0.439,0.229-0.884,0.229-1.332c0-0.447-0.076-0.896-0.229-1.344s-0.376-0.848-0.672-1.2
		c-0.296-0.352-0.652-0.64-1.067-0.864c-0.417-0.224-0.889-0.336-1.416-0.336c-0.561,0-1.049,0.108-1.465,0.324
		s-0.76,0.5-1.031,0.852c-0.272,0.353-0.477,0.748-0.612,1.188S662.042,508.75,662.042,509.198z"/>
	<path class="st1" d="M683.954,496.862v8.088h0.071c0.145-0.192,0.328-0.392,0.553-0.6c0.224-0.208,0.492-0.4,0.804-0.576
		s0.676-0.324,1.092-0.444s0.889-0.18,1.416-0.18c0.816,0,1.568,0.155,2.256,0.468c0.688,0.312,1.28,0.74,1.776,1.284
		s0.88,1.184,1.152,1.92c0.271,0.736,0.407,1.528,0.407,2.376s-0.132,1.644-0.396,2.388s-0.641,1.393-1.128,1.944
		c-0.488,0.552-1.08,0.992-1.776,1.32c-0.695,0.327-1.484,0.491-2.364,0.491c-0.815,0-1.58-0.176-2.292-0.527
		c-0.712-0.353-1.268-0.864-1.668-1.536h-0.048v1.728h-2.735v-18.144L683.954,496.862L683.954,496.862z M690.554,509.198
		c0-0.448-0.068-0.892-0.204-1.332s-0.34-0.836-0.611-1.188c-0.272-0.352-0.616-0.636-1.032-0.852s-0.904-0.324-1.464-0.324
		c-0.528,0-1,0.112-1.416,0.336c-0.417,0.225-0.772,0.513-1.068,0.864c-0.296,0.353-0.521,0.752-0.672,1.2
		c-0.152,0.448-0.229,0.896-0.229,1.344s0.076,0.893,0.229,1.332c0.151,0.44,0.376,0.836,0.672,1.188
		c0.296,0.353,0.651,0.637,1.068,0.853c0.416,0.216,0.888,0.324,1.416,0.324c0.56,0,1.048-0.112,1.464-0.336
		c0.416-0.225,0.76-0.513,1.032-0.864c0.271-0.352,0.476-0.752,0.611-1.2C690.485,510.095,690.554,509.646,690.554,509.198z"/>
	<path class="st1" d="M703.418,513.542h-0.072c-0.288,0.513-0.752,0.933-1.392,1.26c-0.641,0.328-1.368,0.492-2.184,0.492
		c-0.465,0-0.948-0.06-1.452-0.18s-0.969-0.32-1.393-0.601c-0.424-0.279-0.776-0.647-1.056-1.104c-0.28-0.456-0.42-1.021-0.42-1.692
		c0-0.863,0.243-1.552,0.731-2.063s1.116-0.904,1.885-1.176c0.768-0.272,1.62-0.452,2.556-0.54s1.852-0.133,2.748-0.133v-0.287
		c0-0.721-0.261-1.252-0.78-1.597c-0.52-0.344-1.14-0.516-1.859-0.516c-0.608,0-1.192,0.128-1.752,0.384
		c-0.561,0.256-1.024,0.568-1.393,0.937l-1.488-1.753c0.656-0.607,1.412-1.063,2.269-1.367c0.855-0.304,1.724-0.456,2.604-0.456
		c1.024,0,1.868,0.144,2.532,0.432s1.188,0.664,1.572,1.128c0.384,0.465,0.651,0.984,0.804,1.561
		c0.152,0.575,0.229,1.151,0.229,1.728v7.008h-2.688L703.418,513.542L703.418,513.542z M703.37,509.75h-0.648
		c-0.464,0-0.952,0.021-1.464,0.061s-0.983,0.128-1.416,0.264c-0.432,0.136-0.792,0.328-1.08,0.576s-0.432,0.588-0.432,1.02
		c0,0.272,0.06,0.5,0.18,0.685c0.12,0.184,0.276,0.332,0.469,0.443c0.191,0.112,0.407,0.192,0.647,0.24s0.48,0.072,0.72,0.072
		c0.992,0,1.744-0.265,2.257-0.792c0.512-0.528,0.768-1.248,0.768-2.16L703.37,509.75L703.37,509.75z"/>
	<path class="st1" d="M709.465,503.486h2.761v1.92h0.048c0.319-0.672,0.768-1.216,1.344-1.632s1.248-0.624,2.017-0.624
		c0.111,0,0.231,0.004,0.359,0.012s0.24,0.028,0.336,0.06v2.641c-0.191-0.048-0.356-0.08-0.492-0.097
		c-0.136-0.016-0.268-0.023-0.396-0.023c-0.656,0-1.185,0.12-1.584,0.36c-0.4,0.239-0.712,0.527-0.937,0.863
		c-0.224,0.336-0.376,0.681-0.456,1.032c-0.08,0.353-0.119,0.632-0.119,0.84v6.168h-2.881V503.486z"/>
	<path class="st1" d="M718.201,503.486h2.761v1.92h0.048c0.319-0.672,0.768-1.216,1.344-1.632s1.248-0.624,2.017-0.624
		c0.111,0,0.231,0.004,0.359,0.012s0.24,0.028,0.336,0.06v2.641c-0.191-0.048-0.356-0.08-0.492-0.097
		c-0.136-0.016-0.268-0.023-0.396-0.023c-0.656,0-1.185,0.12-1.584,0.36c-0.4,0.239-0.712,0.527-0.937,0.863
		c-0.224,0.336-0.376,0.681-0.456,1.032c-0.08,0.353-0.119,0.632-0.119,0.84v6.168h-2.881V503.486z"/>
	<path class="st1" d="M726.578,499.574c0-0.464,0.172-0.868,0.516-1.212s0.78-0.517,1.309-0.517c0.527,0,0.972,0.165,1.332,0.492
		c0.359,0.328,0.54,0.74,0.54,1.236s-0.181,0.908-0.54,1.236c-0.36,0.328-0.805,0.491-1.332,0.491c-0.528,0-0.965-0.172-1.309-0.516
		S726.578,500.038,726.578,499.574z M726.986,503.486h2.88v11.52h-2.88V503.486z"/>
	<path class="st1" d="M744.361,509.39c0,0.129,0,0.257,0,0.385s-0.008,0.256-0.023,0.384h-8.761c0.032,0.416,0.141,0.796,0.324,1.14
		c0.184,0.345,0.428,0.641,0.732,0.889c0.304,0.248,0.647,0.443,1.032,0.588c0.384,0.144,0.783,0.216,1.199,0.216
		c0.721,0,1.328-0.132,1.824-0.396s0.904-0.627,1.225-1.092l1.92,1.536c-1.137,1.536-2.784,2.304-4.944,2.304
		c-0.896,0-1.72-0.14-2.472-0.42c-0.753-0.279-1.404-0.676-1.956-1.188c-0.553-0.512-0.984-1.141-1.296-1.884
		c-0.312-0.744-0.469-1.588-0.469-2.532c0-0.928,0.156-1.772,0.469-2.532c0.312-0.76,0.739-1.408,1.283-1.944
		c0.544-0.535,1.188-0.951,1.933-1.248c0.744-0.296,1.548-0.443,2.412-0.443c0.8,0,1.539,0.132,2.22,0.396
		c0.68,0.265,1.268,0.656,1.764,1.176c0.496,0.521,0.884,1.169,1.164,1.944C744.222,507.442,744.361,508.351,744.361,509.39z
		 M741.481,508.094c0-0.367-0.052-0.72-0.156-1.056s-0.268-0.632-0.491-0.888c-0.225-0.256-0.509-0.46-0.853-0.612
		s-0.748-0.228-1.212-0.228c-0.864,0-1.596,0.26-2.196,0.779c-0.6,0.521-0.932,1.188-0.996,2.004h5.904V508.094z"/>
	<path class="st1" d="M747.145,503.486h2.761v1.92h0.048c0.319-0.672,0.768-1.216,1.344-1.632s1.248-0.624,2.017-0.624
		c0.111,0,0.231,0.004,0.359,0.012s0.24,0.028,0.336,0.06v2.641c-0.191-0.048-0.356-0.08-0.492-0.097
		c-0.136-0.016-0.268-0.023-0.396-0.023c-0.656,0-1.185,0.12-1.584,0.36c-0.4,0.239-0.712,0.527-0.937,0.863
		c-0.224,0.336-0.376,0.681-0.456,1.032c-0.08,0.353-0.119,0.632-0.119,0.84v6.168h-2.881V503.486z"/>
	<path class="st1" d="M389.096,547.479h-3.024v5.909c0,0.687,0.128,1.177,0.384,1.472s0.664,0.442,1.224,0.442
		c0.208,0,0.432-0.021,0.672-0.065s0.456-0.11,0.648-0.198l0.072,1.848c-0.272,0.097-0.572,0.172-0.9,0.229
		c-0.328,0.056-0.668,0.084-1.02,0.084c-1.072,0-1.892-0.296-2.46-0.888s-0.852-1.48-0.852-2.664v-6.168h-2.184v-1.849h2.184v-3.264
		h2.232v3.264h3.024L389.096,547.479L389.096,547.479z"/>
	<path class="st1" d="M393.776,547.358c0.272-0.561,0.736-1.04,1.392-1.44c0.656-0.399,1.392-0.6,2.208-0.6
		c0.736,0,1.368,0.124,1.896,0.372s0.968,0.58,1.32,0.996s0.612,0.903,0.78,1.464c0.168,0.56,0.252,1.16,0.252,1.8v7.056h-2.256
		v-6.303c0-0.466-0.036-0.907-0.108-1.324s-0.204-0.785-0.396-1.106c-0.192-0.32-0.452-0.577-0.78-0.77
		c-0.328-0.192-0.756-0.289-1.284-0.289c-0.896,0-1.632,0.341-2.208,1.022c-0.576,0.683-0.864,1.592-0.864,2.731v6.038h-2.256
		v-18.144h2.256v8.496L393.776,547.358L393.776,547.358z"/>
	<path class="st1" d="M412.52,549.638c0-0.848-0.256-1.476-0.768-1.884s-1.192-0.611-2.04-0.611c-0.64,0-1.244,0.124-1.812,0.371
		c-0.568,0.249-1.044,0.564-1.428,0.948l-1.2-1.439c0.56-0.528,1.244-0.944,2.052-1.248s1.676-0.456,2.604-0.456
		c0.816,0,1.524,0.116,2.124,0.348s1.092,0.548,1.476,0.948s0.672,0.872,0.864,1.416s0.288,1.128,0.288,1.752v4.968
		c0,0.384,0.012,0.788,0.036,1.212c0.024,0.424,0.068,0.772,0.132,1.044h-2.04c-0.128-0.544-0.192-1.088-0.192-1.632h-0.072
		c-0.416,0.608-0.94,1.08-1.572,1.416s-1.38,0.504-2.244,0.504c-0.448,0-0.916-0.06-1.404-0.18s-0.933-0.315-1.332-0.588
		c-0.4-0.272-0.732-0.632-0.996-1.08s-0.396-1-0.396-1.656c0-0.864,0.232-1.548,0.696-2.052s1.072-0.888,1.824-1.152
		s1.6-0.436,2.544-0.516s1.896-0.12,2.856-0.12L412.52,549.638L412.52,549.638z M411.968,551.582c-0.561,0-1.14,0.024-1.74,0.072
		s-1.144,0.144-1.632,0.288c-0.488,0.144-0.892,0.359-1.212,0.647c-0.32,0.288-0.48,0.672-0.48,1.152
		c0,0.336,0.068,0.616,0.204,0.84c0.136,0.225,0.316,0.408,0.54,0.552c0.224,0.145,0.472,0.244,0.744,0.301
		c0.272,0.056,0.552,0.084,0.84,0.084c1.056,0,1.868-0.316,2.436-0.948s0.852-1.428,0.852-2.389v-0.6L411.968,551.582
		L411.968,551.582z"/>
	<path class="st1" d="M423.776,547.479h-3.024v5.909c0,0.687,0.128,1.177,0.384,1.472s0.664,0.442,1.224,0.442
		c0.208,0,0.432-0.021,0.672-0.065s0.456-0.11,0.648-0.198l0.072,1.848c-0.272,0.097-0.572,0.172-0.9,0.229
		c-0.328,0.056-0.668,0.084-1.02,0.084c-1.072,0-1.892-0.296-2.46-0.888s-0.852-1.48-0.852-2.664v-6.168h-2.184v-1.849h2.184v-3.264
		h2.232v3.264h3.024L423.776,547.479L423.776,547.479z"/>
	<path class="st1" d="M438.248,548.51c-0.256-0.416-0.616-0.756-1.08-1.02s-0.984-0.396-1.56-0.396
		c-0.256,0-0.513,0.028-0.768,0.084c-0.256,0.057-0.484,0.145-0.684,0.265c-0.2,0.12-0.36,0.271-0.48,0.456
		c-0.12,0.184-0.18,0.412-0.18,0.684c0,0.48,0.216,0.836,0.648,1.068c0.432,0.231,1.08,0.443,1.944,0.636
		c0.543,0.128,1.047,0.28,1.512,0.456c0.464,0.176,0.868,0.396,1.212,0.66s0.612,0.58,0.804,0.948s0.288,0.8,0.288,1.296
		c0,0.672-0.128,1.239-0.384,1.704c-0.256,0.464-0.596,0.844-1.02,1.14s-0.908,0.508-1.452,0.636s-1.104,0.192-1.68,0.192
		c-0.864,0-1.708-0.168-2.532-0.504s-1.508-0.849-2.052-1.536l1.608-1.368c0.304,0.448,0.724,0.824,1.26,1.128
		s1.124,0.456,1.764,0.456c0.288,0,0.564-0.027,0.828-0.084c0.264-0.056,0.504-0.147,0.72-0.276
		c0.216-0.128,0.388-0.296,0.516-0.504s0.192-0.472,0.192-0.792c0-0.527-0.252-0.92-0.756-1.176s-1.244-0.496-2.22-0.72
		c-0.384-0.097-0.772-0.212-1.164-0.349c-0.392-0.136-0.748-0.323-1.068-0.563s-0.581-0.54-0.78-0.9c-0.2-0.359-0.3-0.804-0.3-1.332
		c0-0.607,0.124-1.132,0.372-1.571c0.248-0.44,0.572-0.801,0.972-1.08c0.4-0.28,0.856-0.488,1.368-0.624
		c0.512-0.136,1.04-0.204,1.584-0.204c0.816,0,1.604,0.16,2.364,0.479c0.76,0.32,1.348,0.784,1.764,1.393L438.248,548.51z"/>
	<path class="st1" d="M448.328,547.479h-3.024v5.909c0,0.687,0.128,1.177,0.384,1.472s0.664,0.442,1.224,0.442
		c0.208,0,0.432-0.021,0.672-0.065s0.456-0.11,0.648-0.198l0.072,1.848c-0.272,0.097-0.572,0.172-0.9,0.229
		c-0.328,0.056-0.668,0.084-1.02,0.084c-1.072,0-1.892-0.296-2.46-0.888s-0.852-1.48-0.852-2.664v-6.168h-2.184v-1.849h2.184v-3.264
		h2.232v3.264h3.024L448.328,547.479L448.328,547.479z"/>
	<path class="st1" d="M457.736,549.638c0-0.848-0.256-1.476-0.768-1.884s-1.192-0.611-2.04-0.611c-0.64,0-1.244,0.124-1.812,0.371
		c-0.568,0.249-1.044,0.564-1.428,0.948l-1.2-1.439c0.56-0.528,1.244-0.944,2.052-1.248s1.676-0.456,2.604-0.456
		c0.816,0,1.524,0.116,2.124,0.348s1.092,0.548,1.476,0.948s0.672,0.872,0.864,1.416s0.288,1.128,0.288,1.752v4.968
		c0,0.384,0.012,0.788,0.036,1.212c0.024,0.424,0.068,0.772,0.132,1.044h-2.04c-0.128-0.544-0.192-1.088-0.192-1.632h-0.072
		c-0.416,0.608-0.94,1.08-1.572,1.416s-1.38,0.504-2.244,0.504c-0.448,0-0.916-0.06-1.404-0.18s-0.933-0.315-1.332-0.588
		c-0.4-0.272-0.732-0.632-0.996-1.08s-0.396-1-0.396-1.656c0-0.864,0.232-1.548,0.696-2.052s1.072-0.888,1.824-1.152
		s1.6-0.436,2.544-0.516s1.896-0.12,2.856-0.12L457.736,549.638L457.736,549.638z M457.184,551.582c-0.561,0-1.14,0.024-1.74,0.072
		s-1.144,0.144-1.632,0.288c-0.488,0.144-0.892,0.359-1.212,0.647c-0.32,0.288-0.48,0.672-0.48,1.152
		c0,0.336,0.068,0.616,0.204,0.84c0.136,0.225,0.316,0.408,0.54,0.552c0.224,0.145,0.472,0.244,0.744,0.301
		c0.272,0.056,0.552,0.084,0.84,0.084c1.056,0,1.868-0.316,2.436-0.948s0.852-1.428,0.852-2.389v-0.6L457.184,551.582
		L457.184,551.582z"/>
	<path class="st1" d="M467.984,554.558h0.048l3.144-8.928h2.4l-5.52,14.064c-0.192,0.479-0.4,0.907-0.624,1.284
		c-0.224,0.375-0.488,0.695-0.792,0.96c-0.304,0.264-0.66,0.468-1.068,0.611c-0.408,0.145-0.892,0.216-1.452,0.216
		c-0.24,0-0.484-0.012-0.732-0.035c-0.248-0.024-0.5-0.068-0.756-0.133l0.216-1.991c0.384,0.128,0.76,0.191,1.128,0.191
		c0.592,0,1.032-0.164,1.32-0.492s0.552-0.796,0.792-1.403l0.72-1.896l-4.872-11.376h2.52L467.984,554.558z"/>
	<path class="st1" d="M481.904,548.51c-0.256-0.416-0.616-0.756-1.08-1.02s-0.984-0.396-1.56-0.396
		c-0.256,0-0.513,0.028-0.768,0.084c-0.256,0.057-0.484,0.145-0.684,0.265c-0.2,0.12-0.36,0.271-0.48,0.456
		c-0.12,0.184-0.18,0.412-0.18,0.684c0,0.48,0.216,0.836,0.648,1.068c0.432,0.231,1.08,0.443,1.944,0.636
		c0.543,0.128,1.047,0.28,1.512,0.456c0.464,0.176,0.868,0.396,1.212,0.66s0.612,0.58,0.804,0.948s0.288,0.8,0.288,1.296
		c0,0.672-0.128,1.239-0.384,1.704c-0.256,0.464-0.596,0.844-1.02,1.14s-0.908,0.508-1.452,0.636s-1.104,0.192-1.68,0.192
		c-0.864,0-1.708-0.168-2.532-0.504s-1.508-0.849-2.052-1.536l1.608-1.368c0.304,0.448,0.724,0.824,1.26,1.128
		s1.124,0.456,1.764,0.456c0.288,0,0.564-0.027,0.828-0.084c0.264-0.056,0.504-0.147,0.72-0.276
		c0.216-0.128,0.388-0.296,0.516-0.504s0.192-0.472,0.192-0.792c0-0.527-0.252-0.92-0.756-1.176s-1.244-0.496-2.22-0.72
		c-0.384-0.097-0.772-0.212-1.164-0.349c-0.392-0.136-0.748-0.323-1.068-0.563s-0.581-0.54-0.78-0.9c-0.2-0.359-0.3-0.804-0.3-1.332
		c0-0.607,0.124-1.132,0.372-1.571c0.248-0.44,0.572-0.801,0.972-1.08c0.4-0.28,0.856-0.488,1.368-0.624
		c0.512-0.136,1.04-0.204,1.584-0.204c0.816,0,1.604,0.16,2.364,0.479c0.76,0.32,1.348,0.784,1.764,1.393L481.904,548.51z"/>
	<path class="st1" d="M499.496,549.638c0-0.848-0.256-1.476-0.768-1.884s-1.192-0.611-2.04-0.611c-0.64,0-1.244,0.124-1.812,0.371
		c-0.568,0.249-1.044,0.564-1.428,0.948l-1.2-1.439c0.56-0.528,1.244-0.944,2.052-1.248s1.676-0.456,2.604-0.456
		c0.816,0,1.524,0.116,2.124,0.348s1.092,0.548,1.476,0.948s0.672,0.872,0.864,1.416s0.288,1.128,0.288,1.752v4.968
		c0,0.384,0.012,0.788,0.036,1.212c0.024,0.424,0.068,0.772,0.132,1.044h-2.04c-0.128-0.544-0.192-1.088-0.192-1.632h-0.072
		c-0.416,0.608-0.94,1.08-1.572,1.416s-1.38,0.504-2.244,0.504c-0.448,0-0.916-0.06-1.404-0.18s-0.933-0.315-1.332-0.588
		c-0.4-0.272-0.732-0.632-0.996-1.08s-0.396-1-0.396-1.656c0-0.864,0.232-1.548,0.696-2.052s1.072-0.888,1.824-1.152
		s1.6-0.436,2.544-0.516s1.896-0.12,2.856-0.12L499.496,549.638L499.496,549.638z M498.944,551.582c-0.561,0-1.14,0.024-1.74,0.072
		s-1.144,0.144-1.632,0.288c-0.488,0.144-0.892,0.359-1.212,0.647c-0.32,0.288-0.48,0.672-0.48,1.152
		c0,0.336,0.068,0.616,0.204,0.84c0.136,0.225,0.316,0.408,0.54,0.552c0.224,0.145,0.472,0.244,0.744,0.301
		c0.272,0.056,0.552,0.084,0.84,0.084c1.056,0,1.868-0.316,2.436-0.948s0.852-1.428,0.852-2.389v-0.6L498.944,551.582
		L498.944,551.582z"/>
	<path class="st1" d="M513.392,548.51c-0.24-0.367-0.601-0.676-1.08-0.924c-0.48-0.248-0.992-0.372-1.536-0.372
		c-0.592,0-1.116,0.112-1.572,0.336c-0.456,0.225-0.844,0.524-1.164,0.9c-0.32,0.376-0.564,0.812-0.732,1.308
		s-0.252,1.017-0.252,1.561s0.084,1.064,0.252,1.56s0.412,0.933,0.732,1.309c0.32,0.376,0.712,0.676,1.176,0.899
		c0.464,0.225,0.992,0.336,1.583,0.336c0.576,0,1.101-0.111,1.572-0.336c0.472-0.224,0.86-0.528,1.164-0.912l1.513,1.368
		c-0.48,0.561-1.08,0.996-1.801,1.309c-0.72,0.312-1.535,0.468-2.448,0.468c-0.879,0-1.691-0.145-2.436-0.433
		c-0.744-0.288-1.388-0.691-1.932-1.212c-0.544-0.52-0.972-1.147-1.284-1.884c-0.312-0.735-0.468-1.56-0.468-2.472
		c0-0.896,0.152-1.712,0.456-2.448c0.304-0.735,0.728-1.368,1.272-1.896c0.543-0.527,1.188-0.936,1.932-1.224
		c0.744-0.288,1.548-0.432,2.413-0.432c0.8,0,1.596,0.16,2.388,0.479c0.792,0.32,1.42,0.784,1.884,1.393L513.392,548.51z"/>
	<path class="st1" d="M522.847,547.479h-3.023v5.909c0,0.687,0.128,1.177,0.384,1.472s0.664,0.442,1.224,0.442
		c0.208,0,0.433-0.021,0.672-0.065c0.24-0.044,0.456-0.11,0.648-0.198l0.072,1.848c-0.272,0.097-0.572,0.172-0.9,0.229
		c-0.328,0.056-0.668,0.084-1.02,0.084c-1.072,0-1.893-0.296-2.46-0.888c-0.568-0.592-0.853-1.48-0.853-2.664v-6.168h-2.184v-1.849
		h2.184v-3.264h2.232v3.264h3.023v1.848H522.847z"/>
	<path class="st1" d="M527.814,541.526c0,0.416-0.147,0.76-0.44,1.031c-0.294,0.272-0.647,0.408-1.06,0.408s-0.762-0.14-1.047-0.42
		c-0.286-0.279-0.429-0.62-0.429-1.02c0-0.416,0.143-0.764,0.429-1.044c0.285-0.28,0.635-0.42,1.047-0.42s0.766,0.14,1.06,0.42
		C527.667,540.763,527.814,541.11,527.814,541.526z M527.454,557.006h-2.256V545.63h2.256V557.006z"/>
	<path class="st1" d="M536.742,557.006h-2.448l-4.632-11.376h2.496l3.336,8.952h0.048l3.36-8.952h2.4L536.742,557.006z"/>
	<path class="st1" d="M554.118,551.222c0,0.129,0,0.257,0,0.385s-0.009,0.256-0.024,0.384h-9.048
		c0.016,0.477,0.124,0.926,0.324,1.347s0.468,0.786,0.804,1.097c0.336,0.31,0.724,0.552,1.164,0.727s0.908,0.262,1.404,0.262
		c0.768,0,1.432-0.168,1.992-0.504s0.999-0.744,1.319-1.224l1.584,1.271c-0.608,0.807-1.324,1.4-2.147,1.781
		c-0.824,0.381-1.74,0.571-2.748,0.571c-0.864,0-1.664-0.145-2.4-0.433s-1.368-0.691-1.896-1.212
		c-0.528-0.52-0.944-1.147-1.248-1.884c-0.305-0.735-0.456-1.552-0.456-2.448c0-0.88,0.147-1.691,0.444-2.436s0.71-1.38,1.239-1.908
		c0.528-0.528,1.154-0.939,1.876-1.236c0.722-0.296,1.499-0.443,2.333-0.443c0.833,0,1.591,0.136,2.272,0.408
		c0.682,0.271,1.259,0.664,1.731,1.176c0.474,0.512,0.838,1.132,1.095,1.859C553.989,549.49,554.118,550.311,554.118,551.222z
		 M551.814,550.311c-0.017-0.448-0.093-0.868-0.229-1.261c-0.136-0.392-0.336-0.731-0.6-1.02c-0.265-0.288-0.593-0.517-0.984-0.685
		c-0.393-0.168-0.852-0.252-1.38-0.252c-0.48,0-0.933,0.084-1.356,0.252s-0.792,0.396-1.104,0.685
		c-0.312,0.288-0.568,0.628-0.769,1.02c-0.2,0.393-0.315,0.812-0.348,1.261H551.814z"/>
	<path class="st1" d="M574.758,551.294c0,0.88-0.156,1.688-0.468,2.424s-0.744,1.372-1.296,1.908s-1.204,0.952-1.956,1.248
		s-1.561,0.444-2.424,0.444c-0.864,0-1.673-0.148-2.424-0.444c-0.753-0.296-1.4-0.712-1.944-1.248s-0.972-1.172-1.284-1.908
		c-0.312-0.735-0.468-1.544-0.468-2.424s0.156-1.684,0.468-2.412c0.312-0.728,0.74-1.355,1.284-1.884s1.191-0.939,1.944-1.236
		c0.751-0.296,1.56-0.443,2.424-0.443c0.863,0,1.672,0.147,2.424,0.443c0.752,0.297,1.404,0.708,1.956,1.236
		s0.983,1.156,1.296,1.884C574.602,549.61,574.758,550.414,574.758,551.294z M572.406,551.306c0-0.542-0.085-1.061-0.253-1.555
		c-0.169-0.494-0.413-0.93-0.734-1.305s-0.719-0.674-1.191-0.896c-0.474-0.224-1.016-0.336-1.626-0.336
		c-0.609,0-1.151,0.112-1.625,0.336c-0.474,0.223-0.871,0.521-1.191,0.896c-0.321,0.375-0.566,0.811-0.734,1.305
		c-0.169,0.494-0.253,1.013-0.253,1.555c0,0.543,0.084,1.062,0.253,1.556c0.168,0.495,0.413,0.934,0.734,1.316
		c0.32,0.383,0.718,0.686,1.191,0.909s1.016,0.335,1.625,0.335c0.61,0,1.152-0.111,1.626-0.335c0.473-0.224,0.87-0.526,1.191-0.909
		s0.565-0.821,0.734-1.316C572.321,552.367,572.406,551.849,572.406,551.306z"/>
	<path class="st1" d="M583.229,557.006h-2.448l-4.632-11.376h2.496l3.336,8.952h0.048l3.36-8.952h2.4L583.229,557.006z"/>
	<path class="st1" d="M600.605,551.222c0,0.129,0,0.257,0,0.385s-0.009,0.256-0.024,0.384h-9.048
		c0.016,0.477,0.124,0.926,0.324,1.347s0.468,0.786,0.804,1.097c0.336,0.31,0.724,0.552,1.164,0.727s0.908,0.262,1.404,0.262
		c0.768,0,1.432-0.168,1.992-0.504s0.999-0.744,1.319-1.224l1.584,1.271c-0.608,0.807-1.324,1.4-2.147,1.781
		c-0.824,0.381-1.74,0.571-2.748,0.571c-0.864,0-1.664-0.145-2.4-0.433s-1.368-0.691-1.896-1.212
		c-0.528-0.52-0.944-1.147-1.248-1.884c-0.305-0.735-0.456-1.552-0.456-2.448c0-0.88,0.147-1.691,0.444-2.436s0.71-1.38,1.239-1.908
		c0.528-0.528,1.154-0.939,1.876-1.236c0.722-0.296,1.499-0.443,2.333-0.443c0.833,0,1.591,0.136,2.272,0.408
		c0.682,0.271,1.259,0.664,1.731,1.176c0.474,0.512,0.838,1.132,1.095,1.859C600.477,549.49,600.605,550.311,600.605,551.222z
		 M598.302,550.311c-0.017-0.448-0.093-0.868-0.229-1.261c-0.136-0.392-0.336-0.731-0.6-1.02c-0.265-0.288-0.593-0.517-0.984-0.685
		c-0.393-0.168-0.852-0.252-1.38-0.252c-0.48,0-0.933,0.084-1.356,0.252s-0.792,0.396-1.104,0.685
		c-0.312,0.288-0.568,0.628-0.769,1.02c-0.2,0.393-0.315,0.812-0.348,1.261H598.302z"/>
	<path class="st1" d="M603.701,546.902c-0.016-0.48-0.04-0.904-0.072-1.272h2.137c0.031,0.288,0.056,0.62,0.071,0.996
		s0.024,0.685,0.024,0.924h0.072c0.319-0.672,0.787-1.212,1.403-1.62c0.616-0.407,1.309-0.611,2.076-0.611
		c0.352,0,0.648,0.032,0.888,0.096l-0.096,2.088c-0.32-0.08-0.664-0.12-1.032-0.12c-0.544,0-1.016,0.101-1.416,0.3
		c-0.399,0.201-0.731,0.469-0.995,0.805c-0.265,0.336-0.461,0.724-0.589,1.164s-0.191,0.899-0.191,1.38v5.976h-2.256v-8.928
		C603.726,547.774,603.717,547.382,603.701,546.902z"/>
	<path class="st1" d="M623.98,547.479h-3.023v5.909c0,0.687,0.128,1.177,0.384,1.472s0.664,0.442,1.224,0.442
		c0.208,0,0.433-0.021,0.672-0.065c0.24-0.044,0.456-0.11,0.648-0.198l0.072,1.848c-0.272,0.097-0.572,0.172-0.9,0.229
		c-0.328,0.056-0.668,0.084-1.02,0.084c-1.072,0-1.893-0.296-2.46-0.888c-0.568-0.592-0.853-1.48-0.853-2.664v-6.168h-2.184v-1.849
		h2.184v-3.264h2.232v3.264h3.023v1.848H623.98z"/>
	<path class="st1" d="M628.948,541.526c0,0.416-0.147,0.76-0.44,1.031c-0.294,0.272-0.647,0.408-1.06,0.408s-0.762-0.14-1.047-0.42
		c-0.286-0.279-0.429-0.62-0.429-1.02c0-0.416,0.143-0.764,0.429-1.044c0.285-0.28,0.635-0.42,1.047-0.42s0.766,0.14,1.06,0.42
		C628.801,540.763,628.948,541.11,628.948,541.526z M628.588,557.006h-2.256V545.63h2.256V557.006z"/>
	<path class="st1" d="M636.112,545.954c0.632-0.424,1.38-0.636,2.244-0.636c0.768,0,1.46,0.176,2.075,0.527
		c0.616,0.353,1.101,0.937,1.452,1.752c0.385-0.735,0.92-1.299,1.608-1.691c0.688-0.392,1.439-0.588,2.256-0.588
		c0.735,0,1.368,0.124,1.896,0.372c0.527,0.248,0.968,0.58,1.319,0.996s0.612,0.903,0.78,1.464c0.168,0.56,0.252,1.16,0.252,1.8
		v7.056h-2.256v-6.312c0-0.464-0.04-0.904-0.12-1.32s-0.216-0.783-0.408-1.104c-0.191-0.32-0.448-0.576-0.768-0.769
		c-0.32-0.191-0.729-0.288-1.225-0.288c-0.512,0-0.952,0.108-1.319,0.324c-0.368,0.216-0.669,0.496-0.9,0.84
		c-0.232,0.345-0.4,0.732-0.504,1.164s-0.156,0.872-0.156,1.32v6.144h-2.256v-6.768c0-0.448-0.04-0.855-0.12-1.225
		c-0.08-0.367-0.216-0.684-0.408-0.947c-0.191-0.265-0.439-0.472-0.743-0.624c-0.305-0.152-0.681-0.229-1.129-0.229
		c-0.832,0-1.523,0.341-2.075,1.021c-0.553,0.68-0.828,1.588-0.828,2.724v6.048h-2.256v-8.928c0-0.304-0.009-0.696-0.024-1.176
		c-0.016-0.48-0.04-0.904-0.072-1.272h2.137c0.031,0.288,0.056,0.612,0.071,0.973c0.016,0.359,0.024,0.659,0.024,0.899h0.072
		C635.021,546.895,635.479,546.378,636.112,545.954z"/>
	<path class="st1" d="M664.444,551.222c0,0.129,0,0.257,0,0.385s-0.009,0.256-0.024,0.384h-9.048
		c0.016,0.477,0.124,0.926,0.324,1.347s0.468,0.786,0.804,1.097c0.336,0.31,0.724,0.552,1.164,0.727s0.908,0.262,1.404,0.262
		c0.768,0,1.432-0.168,1.992-0.504s0.999-0.744,1.319-1.224l1.584,1.271c-0.608,0.807-1.324,1.4-2.147,1.781
		c-0.824,0.381-1.74,0.571-2.748,0.571c-0.864,0-1.664-0.145-2.4-0.433s-1.368-0.691-1.896-1.212
		c-0.528-0.52-0.944-1.147-1.248-1.884c-0.305-0.735-0.456-1.552-0.456-2.448c0-0.88,0.147-1.691,0.444-2.436s0.71-1.38,1.239-1.908
		c0.528-0.528,1.154-0.939,1.876-1.236c0.722-0.296,1.499-0.443,2.333-0.443c0.833,0,1.591,0.136,2.272,0.408
		c0.682,0.271,1.259,0.664,1.731,1.176c0.474,0.512,0.838,1.132,1.095,1.859C664.315,549.49,664.444,550.311,664.444,551.222z
		 M662.141,550.311c-0.017-0.448-0.093-0.868-0.229-1.261c-0.136-0.392-0.336-0.731-0.6-1.02c-0.265-0.288-0.593-0.517-0.984-0.685
		c-0.393-0.168-0.852-0.252-1.38-0.252c-0.48,0-0.933,0.084-1.356,0.252s-0.792,0.396-1.104,0.685
		c-0.312,0.288-0.568,0.628-0.769,1.02c-0.2,0.393-0.315,0.812-0.348,1.261H662.141z"/>
	<path class="st1" d="M675.796,555.206v1.8h-2.184v-18.144h2.256v8.472h0.072c0.383-0.56,0.917-1.035,1.604-1.428
		c0.687-0.392,1.5-0.588,2.442-0.588c0.846,0,1.615,0.152,2.31,0.456s1.293,0.728,1.796,1.271s0.89,1.181,1.161,1.908
		c0.271,0.729,0.407,1.508,0.407,2.34s-0.136,1.616-0.407,2.353c-0.271,0.735-0.654,1.376-1.149,1.92s-1.093,0.972-1.795,1.284
		c-0.702,0.312-1.493,0.468-2.37,0.468c-0.814,0-1.589-0.181-2.323-0.54c-0.733-0.36-1.324-0.884-1.771-1.572L675.796,555.206
		L675.796,555.206z M683.356,551.306c0-0.526-0.081-1.036-0.24-1.531c-0.16-0.494-0.4-0.933-0.72-1.315
		c-0.32-0.383-0.717-0.687-1.188-0.909c-0.472-0.224-1.02-0.336-1.644-0.336c-0.576,0-1.101,0.112-1.572,0.336
		c-0.473,0.223-0.876,0.526-1.212,0.909s-0.597,0.821-0.78,1.315c-0.184,0.495-0.276,1.014-0.276,1.556
		c0,0.543,0.093,1.062,0.276,1.556s0.444,0.929,0.78,1.304s0.739,0.674,1.212,0.897c0.472,0.224,0.996,0.335,1.572,0.335
		c0.624,0,1.172-0.115,1.644-0.347s0.868-0.538,1.188-0.921c0.319-0.384,0.56-0.822,0.72-1.316
		C683.275,552.344,683.356,551.833,683.356,551.306z"/>
	<path class="st1" d="M693.147,554.558h0.048l3.145-8.928h2.4l-5.521,14.064c-0.192,0.479-0.4,0.907-0.624,1.284
		c-0.225,0.375-0.488,0.695-0.792,0.96c-0.304,0.264-0.66,0.468-1.068,0.611c-0.407,0.145-0.892,0.216-1.451,0.216
		c-0.24,0-0.484-0.012-0.732-0.035c-0.248-0.024-0.5-0.068-0.756-0.133l0.216-1.991c0.384,0.128,0.76,0.191,1.128,0.191
		c0.592,0,1.032-0.164,1.32-0.492s0.552-0.796,0.792-1.403l0.72-1.896L687.1,545.63h2.521L693.147,554.558z"/>
	<path class="st1" d="M714.892,548.51c-0.24-0.367-0.601-0.676-1.08-0.924c-0.48-0.248-0.992-0.372-1.536-0.372
		c-0.592,0-1.116,0.112-1.572,0.336c-0.456,0.225-0.844,0.524-1.164,0.9c-0.319,0.376-0.563,0.812-0.731,1.308
		s-0.252,1.017-0.252,1.561s0.084,1.064,0.252,1.56s0.412,0.933,0.731,1.309c0.32,0.376,0.712,0.676,1.177,0.899
		c0.464,0.225,0.991,0.336,1.584,0.336c0.576,0,1.1-0.111,1.571-0.336c0.472-0.224,0.86-0.528,1.164-0.912l1.513,1.368
		c-0.48,0.561-1.08,0.996-1.801,1.309c-0.72,0.312-1.535,0.468-2.447,0.468c-0.881,0-1.692-0.145-2.437-0.433
		s-1.388-0.691-1.932-1.212c-0.544-0.52-0.972-1.147-1.284-1.884c-0.312-0.735-0.468-1.56-0.468-2.472
		c0-0.896,0.151-1.712,0.456-2.448c0.304-0.735,0.728-1.368,1.271-1.896c0.544-0.527,1.188-0.936,1.933-1.224
		c0.743-0.288,1.548-0.432,2.412-0.432c0.8,0,1.596,0.16,2.388,0.479c0.792,0.32,1.42,0.784,1.884,1.393L714.892,548.51z"/>
	<path class="st1" d="M730.299,551.294c0,0.88-0.156,1.688-0.468,2.424s-0.744,1.372-1.296,1.908s-1.204,0.952-1.956,1.248
		s-1.561,0.444-2.424,0.444c-0.864,0-1.673-0.148-2.424-0.444c-0.753-0.296-1.4-0.712-1.944-1.248s-0.972-1.172-1.284-1.908
		c-0.312-0.735-0.468-1.544-0.468-2.424s0.156-1.684,0.468-2.412c0.312-0.728,0.74-1.355,1.284-1.884s1.191-0.939,1.944-1.236
		c0.751-0.296,1.56-0.443,2.424-0.443c0.863,0,1.672,0.147,2.424,0.443c0.752,0.297,1.404,0.708,1.956,1.236
		s0.983,1.156,1.296,1.884C730.143,549.61,730.299,550.414,730.299,551.294z M727.947,551.306c0-0.542-0.085-1.061-0.253-1.555
		c-0.169-0.494-0.413-0.93-0.734-1.305s-0.719-0.674-1.191-0.896c-0.474-0.224-1.016-0.336-1.626-0.336
		c-0.609,0-1.151,0.112-1.625,0.336c-0.474,0.223-0.871,0.521-1.191,0.896c-0.321,0.375-0.566,0.811-0.734,1.305
		c-0.169,0.494-0.253,1.013-0.253,1.555c0,0.543,0.084,1.062,0.253,1.556c0.168,0.495,0.413,0.934,0.734,1.316
		c0.32,0.383,0.718,0.686,1.191,0.909s1.016,0.335,1.625,0.335c0.61,0,1.152-0.111,1.626-0.335c0.473-0.224,0.87-0.526,1.191-0.909
		s0.565-0.821,0.734-1.316C727.862,552.367,727.947,551.849,727.947,551.306z"/>
	<path class="st1" d="M735.459,545.63c0.031,0.288,0.056,0.612,0.071,0.973c0.016,0.359,0.024,0.659,0.024,0.899h0.072
		c0.144-0.304,0.34-0.588,0.588-0.852c0.248-0.265,0.531-0.496,0.852-0.696s0.672-0.355,1.057-0.468
		c0.384-0.112,0.783-0.168,1.199-0.168c0.736,0,1.368,0.124,1.896,0.372s0.968,0.58,1.32,0.996c0.352,0.416,0.611,0.903,0.779,1.464
		c0.168,0.56,0.252,1.16,0.252,1.8v7.056h-2.256v-6.312c0-0.464-0.036-0.904-0.107-1.32c-0.072-0.416-0.204-0.783-0.396-1.104
		s-0.456-0.576-0.792-0.769c-0.336-0.191-0.768-0.288-1.296-0.288c-0.896,0-1.628,0.341-2.196,1.021s-0.852,1.588-0.852,2.724v6.048
		h-2.256v-8.928c0-0.304-0.009-0.696-0.024-1.176c-0.016-0.48-0.04-0.904-0.072-1.272L735.459,545.63L735.459,545.63z"/>
	<path class="st1" d="M752.954,547.479h-3.023v5.909c0,0.687,0.128,1.177,0.384,1.472s0.664,0.442,1.224,0.442
		c0.208,0,0.433-0.021,0.672-0.065c0.24-0.044,0.456-0.11,0.648-0.198l0.072,1.848c-0.272,0.097-0.572,0.172-0.9,0.229
		c-0.328,0.056-0.668,0.084-1.02,0.084c-1.072,0-1.893-0.296-2.46-0.888c-0.568-0.592-0.853-1.48-0.853-2.664v-6.168h-2.184v-1.849
		h2.184v-3.264h2.232v3.264h3.023v1.848H752.954z"/>
	<path class="st1" d="M757.922,541.526c0,0.416-0.147,0.76-0.44,1.031c-0.294,0.272-0.647,0.408-1.06,0.408s-0.762-0.14-1.047-0.42
		c-0.286-0.279-0.429-0.62-0.429-1.02c0-0.416,0.143-0.764,0.429-1.044c0.285-0.28,0.635-0.42,1.047-0.42s0.766,0.14,1.06,0.42
		C757.774,540.763,757.922,541.11,757.922,541.526z M757.562,557.006h-2.256V545.63h2.256V557.006z"/>
	<path class="st1" d="M763.538,545.63c0.031,0.288,0.056,0.612,0.071,0.973c0.016,0.359,0.024,0.659,0.024,0.899h0.072
		c0.144-0.304,0.34-0.588,0.588-0.852c0.248-0.265,0.531-0.496,0.852-0.696s0.672-0.355,1.057-0.468
		c0.384-0.112,0.783-0.168,1.199-0.168c0.736,0,1.368,0.124,1.896,0.372s0.968,0.58,1.32,0.996c0.352,0.416,0.611,0.903,0.779,1.464
		c0.168,0.56,0.252,1.16,0.252,1.8v7.056h-2.256v-6.312c0-0.464-0.036-0.904-0.107-1.32c-0.072-0.416-0.204-0.783-0.396-1.104
		s-0.456-0.576-0.792-0.769c-0.336-0.191-0.768-0.288-1.296-0.288c-0.896,0-1.628,0.341-2.196,1.021s-0.852,1.588-0.852,2.724v6.048
		h-2.256v-8.928c0-0.304-0.009-0.696-0.024-1.176c-0.016-0.48-0.04-0.904-0.072-1.272L763.538,545.63L763.538,545.63z"/>
	<path class="st1" d="M783.481,557.006c-0.032-0.288-0.057-0.611-0.072-0.972s-0.023-0.66-0.023-0.9h-0.048
		c-0.288,0.608-0.772,1.125-1.452,1.548c-0.681,0.424-1.437,0.637-2.269,0.637c-0.735,0-1.372-0.12-1.907-0.36
		c-0.537-0.24-0.977-0.572-1.32-0.996c-0.345-0.424-0.601-0.916-0.769-1.476c-0.168-0.561-0.252-1.16-0.252-1.8v-7.057h2.256v6.288
		c0,0.465,0.036,0.908,0.108,1.332s0.204,0.796,0.396,1.116c0.191,0.32,0.456,0.576,0.792,0.768s0.768,0.288,1.296,0.288
		c0.912,0,1.647-0.34,2.208-1.02c0.56-0.68,0.84-1.588,0.84-2.725v-6.048h2.256v8.928c0,0.305,0.008,0.696,0.024,1.177
		c0.016,0.479,0.039,0.904,0.071,1.271L783.481,557.006L783.481,557.006z"/>
	<path class="st1" d="M796.514,549.638c0-0.848-0.257-1.476-0.769-1.884s-1.192-0.611-2.04-0.611c-0.64,0-1.244,0.124-1.812,0.371
		c-0.568,0.249-1.044,0.564-1.429,0.948l-1.199-1.439c0.56-0.528,1.243-0.944,2.052-1.248c0.808-0.304,1.676-0.456,2.604-0.456
		c0.816,0,1.524,0.116,2.124,0.348c0.601,0.232,1.093,0.548,1.477,0.948s0.672,0.872,0.864,1.416
		c0.191,0.544,0.287,1.128,0.287,1.752v4.968c0,0.384,0.013,0.788,0.036,1.212c0.024,0.424,0.068,0.772,0.132,1.044h-2.04
		c-0.128-0.544-0.191-1.088-0.191-1.632h-0.072c-0.416,0.608-0.94,1.08-1.572,1.416s-1.38,0.504-2.243,0.504
		c-0.448,0-0.917-0.06-1.404-0.18c-0.488-0.12-0.933-0.315-1.332-0.588c-0.4-0.272-0.732-0.632-0.996-1.08s-0.396-1-0.396-1.656
		c0-0.864,0.232-1.548,0.696-2.052s1.072-0.888,1.824-1.152c0.752-0.264,1.6-0.436,2.544-0.516s1.896-0.12,2.856-0.12v-0.313
		H796.514z M795.961,551.582c-0.56,0-1.14,0.024-1.739,0.072c-0.601,0.048-1.145,0.144-1.633,0.288
		c-0.488,0.144-0.892,0.359-1.212,0.647s-0.479,0.672-0.479,1.152c0,0.336,0.067,0.616,0.204,0.84
		c0.136,0.225,0.315,0.408,0.54,0.552c0.224,0.145,0.472,0.244,0.744,0.301c0.271,0.056,0.552,0.084,0.84,0.084
		c1.056,0,1.867-0.316,2.436-0.948s0.853-1.428,0.853-2.389v-0.6L795.961,551.582L795.961,551.582z"/>
	<path class="st1" d="M804.745,557.006h-2.256v-18.144h2.256V557.006z"/>
	<path class="st1" d="M810.985,557.006h-2.256v-18.144h2.256V557.006z"/>
	<path class="st1" d="M819.241,554.558h0.048l3.145-8.928h2.4l-5.521,14.064c-0.192,0.479-0.4,0.907-0.624,1.284
		c-0.225,0.375-0.488,0.695-0.792,0.96c-0.304,0.264-0.66,0.468-1.068,0.611c-0.407,0.145-0.892,0.216-1.451,0.216
		c-0.24,0-0.484-0.012-0.732-0.035c-0.248-0.024-0.5-0.068-0.756-0.133l0.216-1.991c0.384,0.128,0.76,0.191,1.128,0.191
		c0.592,0,1.032-0.164,1.32-0.492s0.552-0.796,0.792-1.403l0.72-1.896l-4.872-11.376h2.521L819.241,554.558z"/>
	<path class="st1" d="M391.496,590.51c-0.24-0.367-0.6-0.676-1.08-0.924s-0.992-0.372-1.536-0.372c-0.592,0-1.116,0.112-1.572,0.336
		c-0.456,0.225-0.844,0.524-1.164,0.9c-0.32,0.376-0.564,0.812-0.732,1.308s-0.252,1.017-0.252,1.561s0.084,1.064,0.252,1.56
		s0.412,0.933,0.732,1.309c0.32,0.376,0.712,0.676,1.176,0.899c0.464,0.225,0.992,0.336,1.584,0.336c0.576,0,1.1-0.111,1.572-0.336
		c0.472-0.224,0.86-0.528,1.164-0.912l1.512,1.368c-0.48,0.561-1.08,0.996-1.8,1.309c-0.72,0.312-1.536,0.468-2.448,0.468
		c-0.88,0-1.692-0.145-2.436-0.433c-0.744-0.288-1.388-0.691-1.932-1.212c-0.544-0.52-0.972-1.147-1.284-1.884
		c-0.312-0.735-0.468-1.56-0.468-2.472c0-0.896,0.152-1.712,0.456-2.448c0.304-0.735,0.728-1.368,1.272-1.896
		c0.543-0.527,1.188-0.936,1.932-1.224c0.744-0.288,1.548-0.432,2.412-0.432c0.8,0,1.596,0.16,2.388,0.479
		c0.792,0.32,1.419,0.784,1.884,1.393L391.496,590.51z"/>
	<path class="st1" d="M397.688,599.006h-2.256v-18.144h2.256V599.006z"/>
	<path class="st1" d="M412.255,593.222c0,0.129,0,0.257,0,0.385s-0.008,0.256-0.024,0.384h-9.048
		c0.016,0.477,0.124,0.926,0.324,1.347c0.2,0.421,0.468,0.786,0.804,1.097c0.336,0.31,0.724,0.552,1.164,0.727
		s0.908,0.262,1.404,0.262c0.768,0,1.432-0.168,1.992-0.504s1-0.744,1.32-1.224l1.584,1.271c-0.608,0.807-1.324,1.4-2.148,1.781
		c-0.825,0.381-1.74,0.571-2.748,0.571c-0.864,0-1.665-0.145-2.4-0.433s-1.368-0.691-1.896-1.212
		c-0.528-0.52-0.944-1.147-1.248-1.884c-0.304-0.735-0.456-1.552-0.456-2.448c0-0.88,0.148-1.691,0.444-2.436
		c0.297-0.744,0.71-1.38,1.239-1.908c0.529-0.528,1.155-0.939,1.876-1.236c0.722-0.296,1.499-0.443,2.333-0.443
		c0.833,0,1.591,0.136,2.273,0.408c0.681,0.271,1.258,0.664,1.732,1.176c0.473,0.512,0.837,1.132,1.094,1.859
		C412.127,591.49,412.255,592.311,412.255,593.222z M409.951,592.311c-0.016-0.448-0.092-0.868-0.228-1.261
		c-0.136-0.392-0.336-0.731-0.6-1.02c-0.264-0.288-0.592-0.517-0.984-0.685s-0.852-0.252-1.38-0.252
		c-0.48,0-0.932,0.084-1.356,0.252c-0.424,0.168-0.792,0.396-1.104,0.685s-0.568,0.628-0.768,1.02
		c-0.2,0.393-0.316,0.812-0.348,1.261H409.951z"/>
	<path class="st1" d="M422.311,591.638c0-0.848-0.256-1.476-0.768-1.884s-1.192-0.611-2.04-0.611c-0.64,0-1.244,0.124-1.812,0.371
		c-0.568,0.249-1.044,0.564-1.428,0.948l-1.2-1.439c0.56-0.528,1.244-0.944,2.052-1.248s1.676-0.456,2.604-0.456
		c0.816,0,1.524,0.116,2.124,0.348s1.092,0.548,1.476,0.948s0.672,0.872,0.864,1.416s0.288,1.128,0.288,1.752v4.968
		c0,0.384,0.012,0.788,0.036,1.212c0.024,0.424,0.068,0.772,0.132,1.044h-2.04c-0.128-0.544-0.192-1.088-0.192-1.632h-0.072
		c-0.416,0.608-0.94,1.08-1.572,1.416s-1.38,0.504-2.244,0.504c-0.448,0-0.916-0.06-1.404-0.18s-0.933-0.315-1.332-0.588
		c-0.4-0.272-0.732-0.632-0.996-1.08s-0.396-1-0.396-1.656c0-0.864,0.232-1.548,0.696-2.052s1.072-0.888,1.824-1.152
		s1.6-0.436,2.544-0.516s1.896-0.12,2.856-0.12L422.311,591.638L422.311,591.638z M421.759,593.582c-0.561,0-1.14,0.024-1.74,0.072
		s-1.144,0.144-1.632,0.288c-0.488,0.144-0.892,0.359-1.212,0.647c-0.32,0.288-0.48,0.672-0.48,1.152
		c0,0.336,0.068,0.616,0.204,0.84c0.136,0.225,0.316,0.408,0.54,0.552c0.224,0.145,0.472,0.244,0.744,0.301
		c0.272,0.056,0.552,0.084,0.84,0.084c1.056,0,1.868-0.316,2.436-0.948s0.852-1.428,0.852-2.389v-0.6L421.759,593.582
		L421.759,593.582z"/>
	<path class="st1" d="M430.279,587.63c0.032,0.288,0.056,0.612,0.072,0.973c0.016,0.359,0.024,0.659,0.024,0.899h0.072
		c0.144-0.304,0.34-0.588,0.588-0.852c0.248-0.265,0.532-0.496,0.852-0.696c0.32-0.2,0.672-0.355,1.056-0.468
		c0.384-0.112,0.784-0.168,1.2-0.168c0.736,0,1.368,0.124,1.896,0.372c0.528,0.248,0.968,0.58,1.32,0.996
		c0.352,0.416,0.612,0.903,0.78,1.464c0.168,0.56,0.252,1.16,0.252,1.8v7.056h-2.256v-6.312c0-0.464-0.036-0.904-0.108-1.32
		s-0.204-0.783-0.396-1.104s-0.456-0.576-0.792-0.769c-0.336-0.191-0.768-0.288-1.296-0.288c-0.896,0-1.628,0.341-2.196,1.021
		s-0.852,1.588-0.852,2.724v6.048h-2.256v-8.928c0-0.304-0.008-0.696-0.024-1.176c-0.016-0.48-0.04-0.904-0.072-1.272
		L430.279,587.63L430.279,587.63z"/>
	<path class="st1" d="M444.847,583.526c0,0.416-0.147,0.76-0.44,1.031c-0.294,0.272-0.647,0.408-1.06,0.408s-0.762-0.14-1.047-0.42
		c-0.286-0.279-0.429-0.62-0.429-1.02c0-0.416,0.143-0.764,0.429-1.044s0.635-0.42,1.047-0.42s0.766,0.14,1.06,0.42
		C444.7,582.763,444.847,583.11,444.847,583.526z M444.487,599.006h-2.256V587.63h2.256V599.006z"/>
	<path class="st1" d="M450.462,587.63c0.032,0.288,0.056,0.612,0.072,0.973c0.016,0.359,0.024,0.659,0.024,0.899h0.072
		c0.144-0.304,0.34-0.588,0.588-0.852c0.248-0.265,0.532-0.496,0.852-0.696c0.32-0.2,0.672-0.355,1.056-0.468
		c0.384-0.112,0.784-0.168,1.2-0.168c0.736,0,1.368,0.124,1.896,0.372c0.528,0.248,0.968,0.58,1.32,0.996
		c0.352,0.416,0.612,0.903,0.78,1.464c0.168,0.56,0.252,1.16,0.252,1.8v7.056h-2.256v-6.312c0-0.464-0.036-0.904-0.108-1.32
		s-0.204-0.783-0.396-1.104s-0.456-0.576-0.792-0.769c-0.336-0.191-0.768-0.288-1.296-0.288c-0.896,0-1.628,0.341-2.196,1.021
		s-0.852,1.588-0.852,2.724v6.048h-2.256v-8.928c0-0.304-0.008-0.696-0.024-1.176c-0.016-0.48-0.04-0.904-0.072-1.272
		L450.462,587.63L450.462,587.63z"/>
	<path class="st1" d="M463.278,600.95c0.496,0.56,1.116,1.008,1.86,1.344s1.508,0.504,2.292,0.504c0.752,0,1.384-0.107,1.896-0.324
		c0.512-0.216,0.924-0.512,1.236-0.888s0.536-0.82,0.672-1.332c0.136-0.512,0.204-1.064,0.204-1.656v-1.464h-0.048
		c-0.416,0.641-0.984,1.128-1.704,1.464c-0.72,0.337-1.488,0.505-2.304,0.505c-0.864,0-1.652-0.152-2.364-0.456
		s-1.316-0.721-1.812-1.248c-0.496-0.528-0.88-1.148-1.152-1.86s-0.408-1.476-0.408-2.292s0.136-1.584,0.408-2.304
		c0.272-0.721,0.656-1.348,1.152-1.885c0.496-0.535,1.096-0.96,1.8-1.271c0.704-0.312,1.488-0.468,2.352-0.468
		c0.816,0,1.596,0.176,2.34,0.527c0.744,0.353,1.332,0.889,1.764,1.608h0.048v-1.824h2.184v10.8c0,0.832-0.104,1.628-0.312,2.389
		c-0.208,0.76-0.56,1.432-1.056,2.016s-1.144,1.052-1.944,1.404s-1.792,0.527-2.976,0.527c-0.992,0-1.988-0.18-2.988-0.539
		c-1-0.36-1.86-0.868-2.58-1.524L463.278,600.95z M463.95,593.198c0,0.528,0.084,1.032,0.253,1.512
		c0.168,0.48,0.417,0.904,0.746,1.272s0.726,0.664,1.192,0.888c0.465,0.225,0.995,0.336,1.589,0.336
		c0.577,0,1.107-0.104,1.589-0.312s0.891-0.492,1.228-0.853s0.598-0.783,0.782-1.271s0.277-1.012,0.277-1.572
		c0-0.544-0.093-1.056-0.277-1.536s-0.449-0.903-0.794-1.272c-0.345-0.367-0.755-0.659-1.228-0.876
		c-0.474-0.216-1-0.323-1.577-0.323c-0.594,0-1.124,0.107-1.589,0.323c-0.466,0.217-0.863,0.505-1.192,0.864
		c-0.329,0.36-0.578,0.784-0.746,1.272C464.034,592.139,463.95,592.654,463.95,593.198z"/>
	<path class="st1" d="M489.702,590.51c-0.256-0.416-0.616-0.756-1.08-1.02s-0.984-0.396-1.56-0.396
		c-0.256,0-0.513,0.028-0.768,0.084c-0.256,0.057-0.484,0.145-0.684,0.265c-0.2,0.12-0.36,0.271-0.48,0.456
		c-0.12,0.184-0.18,0.412-0.18,0.684c0,0.48,0.216,0.836,0.648,1.068c0.432,0.231,1.08,0.443,1.944,0.636
		c0.543,0.128,1.047,0.28,1.512,0.456c0.464,0.176,0.868,0.396,1.212,0.66s0.612,0.58,0.804,0.948s0.288,0.8,0.288,1.296
		c0,0.672-0.128,1.239-0.384,1.704c-0.256,0.464-0.596,0.844-1.02,1.14s-0.908,0.508-1.452,0.636s-1.104,0.192-1.68,0.192
		c-0.864,0-1.708-0.168-2.532-0.504s-1.508-0.849-2.052-1.536l1.608-1.368c0.304,0.448,0.724,0.824,1.26,1.128
		s1.124,0.456,1.764,0.456c0.288,0,0.564-0.027,0.828-0.084c0.264-0.056,0.504-0.147,0.72-0.276
		c0.216-0.128,0.388-0.296,0.516-0.504s0.192-0.472,0.192-0.792c0-0.527-0.252-0.92-0.756-1.176s-1.244-0.496-2.22-0.72
		c-0.384-0.097-0.772-0.212-1.164-0.349c-0.392-0.136-0.748-0.323-1.068-0.563s-0.581-0.54-0.78-0.9c-0.2-0.359-0.3-0.804-0.3-1.332
		c0-0.607,0.124-1.132,0.372-1.571c0.248-0.44,0.572-0.801,0.972-1.08c0.4-0.28,0.856-0.488,1.368-0.624
		c0.512-0.136,1.04-0.204,1.584-0.204c0.816,0,1.604,0.16,2.364,0.479c0.76,0.32,1.348,0.784,1.764,1.393L489.702,590.51z"/>
	<path class="st1" d="M502.229,599.006c-0.032-0.288-0.056-0.611-0.072-0.972c-0.016-0.36-0.024-0.66-0.024-0.9h-0.048
		c-0.288,0.608-0.772,1.125-1.452,1.548c-0.68,0.424-1.436,0.637-2.268,0.637c-0.736,0-1.373-0.12-1.908-0.36
		c-0.536-0.24-0.976-0.572-1.32-0.996c-0.344-0.424-0.6-0.916-0.768-1.476c-0.168-0.561-0.252-1.16-0.252-1.8v-7.057h2.256v6.288
		c0,0.465,0.036,0.908,0.108,1.332c0.072,0.424,0.204,0.796,0.396,1.116s0.456,0.576,0.792,0.768s0.768,0.288,1.296,0.288
		c0.912,0,1.648-0.34,2.208-1.02s0.84-1.588,0.84-2.725v-6.048h2.256v8.928c0,0.305,0.008,0.696,0.024,1.177
		c0.016,0.479,0.04,0.904,0.072,1.271L502.229,599.006L502.229,599.006z"/>
	<path class="st1" d="M508.157,588.902c-0.016-0.48-0.04-0.904-0.072-1.272h2.136c0.032,0.288,0.056,0.62,0.072,0.996
		s0.024,0.685,0.024,0.924h0.072c0.32-0.672,0.789-1.212,1.404-1.62c0.616-0.407,1.309-0.611,2.076-0.611
		c0.352,0,0.648,0.032,0.888,0.096l-0.096,2.088c-0.32-0.08-0.664-0.12-1.032-0.12c-0.544,0-1.016,0.101-1.416,0.3
		c-0.399,0.201-0.731,0.469-0.996,0.805c-0.264,0.336-0.459,0.724-0.588,1.164c-0.128,0.44-0.191,0.899-0.191,1.38v5.976h-2.256
		v-8.928C508.181,589.774,508.173,589.382,508.157,588.902z"/>
	<path class="st1" d="M522.222,589.479h-2.64v9.527h-2.256v-9.527h-2.257v-1.849h2.257v-2.376c0-0.672,0.075-1.292,0.228-1.859
		c0.152-0.568,0.399-1.061,0.744-1.477c0.344-0.416,0.783-0.744,1.32-0.983c0.535-0.24,1.188-0.36,1.956-0.36
		c0.543,0,1.016,0.056,1.416,0.168l-0.265,1.944c-0.176-0.049-0.352-0.088-0.527-0.12c-0.177-0.032-0.377-0.048-0.601-0.048
		c-0.432,0-0.78,0.075-1.044,0.228s-0.468,0.356-0.612,0.612s-0.239,0.548-0.288,0.876c-0.048,0.328-0.071,0.668-0.071,1.02v2.376
		h2.64L522.222,589.479L522.222,589.479z"/>
	<path class="st1" d="M531.391,591.638c0-0.848-0.257-1.476-0.769-1.884s-1.192-0.611-2.04-0.611c-0.64,0-1.244,0.124-1.812,0.371
		c-0.568,0.249-1.044,0.564-1.429,0.948l-1.199-1.439c0.56-0.528,1.243-0.944,2.052-1.248c0.808-0.304,1.676-0.456,2.604-0.456
		c0.816,0,1.524,0.116,2.124,0.348c0.601,0.232,1.093,0.548,1.477,0.948s0.672,0.872,0.864,1.416
		c0.191,0.544,0.287,1.128,0.287,1.752v4.968c0,0.384,0.013,0.788,0.036,1.212c0.024,0.424,0.068,0.772,0.132,1.044h-2.04
		c-0.128-0.544-0.191-1.088-0.191-1.632h-0.072c-0.416,0.608-0.94,1.08-1.572,1.416s-1.38,0.504-2.243,0.504
		c-0.448,0-0.917-0.06-1.404-0.18c-0.488-0.12-0.933-0.315-1.332-0.588c-0.4-0.272-0.732-0.632-0.996-1.08s-0.396-1-0.396-1.656
		c0-0.864,0.232-1.548,0.696-2.052s1.072-0.888,1.824-1.152c0.752-0.264,1.6-0.436,2.544-0.516s1.896-0.12,2.856-0.12v-0.313
		H531.391z M530.838,593.582c-0.56,0-1.14,0.024-1.739,0.072c-0.601,0.048-1.145,0.144-1.633,0.288
		c-0.488,0.144-0.892,0.359-1.212,0.647s-0.479,0.672-0.479,1.152c0,0.336,0.067,0.616,0.204,0.84
		c0.136,0.225,0.315,0.408,0.54,0.552c0.224,0.145,0.472,0.244,0.744,0.301c0.271,0.056,0.552,0.084,0.84,0.084
		c1.056,0,1.867-0.316,2.436-0.948s0.853-1.428,0.853-2.389v-0.6L530.838,593.582L530.838,593.582z"/>
	<path class="st1" d="M545.286,590.51c-0.24-0.367-0.601-0.676-1.08-0.924c-0.48-0.248-0.992-0.372-1.536-0.372
		c-0.592,0-1.116,0.112-1.572,0.336c-0.456,0.225-0.844,0.524-1.164,0.9c-0.319,0.376-0.563,0.812-0.731,1.308
		s-0.252,1.017-0.252,1.561s0.084,1.064,0.252,1.56s0.412,0.933,0.731,1.309c0.32,0.376,0.712,0.676,1.177,0.899
		c0.464,0.225,0.991,0.336,1.584,0.336c0.576,0,1.1-0.111,1.571-0.336c0.472-0.224,0.86-0.528,1.164-0.912l1.513,1.368
		c-0.48,0.561-1.08,0.996-1.801,1.309c-0.72,0.312-1.535,0.468-2.447,0.468c-0.881,0-1.692-0.145-2.437-0.433
		s-1.388-0.691-1.932-1.212c-0.544-0.52-0.972-1.147-1.284-1.884c-0.312-0.735-0.468-1.56-0.468-2.472
		c0-0.896,0.151-1.712,0.456-2.448c0.304-0.735,0.728-1.368,1.271-1.896c0.544-0.527,1.188-0.936,1.933-1.224
		c0.743-0.288,1.548-0.432,2.412-0.432c0.8,0,1.596,0.16,2.388,0.479c0.792,0.32,1.42,0.784,1.884,1.393L545.286,590.51z"/>
	<path class="st1" d="M559.806,593.222c0,0.129,0,0.257,0,0.385s-0.009,0.256-0.024,0.384h-9.048
		c0.016,0.477,0.124,0.926,0.324,1.347s0.468,0.786,0.804,1.097c0.336,0.31,0.724,0.552,1.164,0.727s0.908,0.262,1.404,0.262
		c0.768,0,1.432-0.168,1.992-0.504s0.999-0.744,1.319-1.224l1.584,1.271c-0.608,0.807-1.324,1.4-2.147,1.781
		c-0.824,0.381-1.74,0.571-2.748,0.571c-0.864,0-1.664-0.145-2.4-0.433s-1.368-0.691-1.896-1.212
		c-0.528-0.52-0.944-1.147-1.248-1.884c-0.305-0.735-0.456-1.552-0.456-2.448c0-0.88,0.147-1.691,0.444-2.436s0.71-1.38,1.239-1.908
		c0.528-0.528,1.154-0.939,1.876-1.236c0.722-0.296,1.499-0.443,2.333-0.443c0.833,0,1.591,0.136,2.272,0.408
		c0.682,0.271,1.259,0.664,1.731,1.176c0.474,0.512,0.838,1.132,1.095,1.859C559.677,591.49,559.806,592.311,559.806,593.222z
		 M557.502,592.311c-0.017-0.448-0.093-0.868-0.229-1.261c-0.136-0.392-0.336-0.731-0.6-1.02c-0.265-0.288-0.593-0.517-0.984-0.685
		c-0.393-0.168-0.852-0.252-1.38-0.252c-0.48,0-0.933,0.084-1.356,0.252s-0.792,0.396-1.104,0.685
		c-0.312,0.288-0.568,0.628-0.769,1.02c-0.2,0.393-0.315,0.812-0.348,1.261H557.502z"/>
	<path class="st1" d="M569.069,590.51c-0.256-0.416-0.616-0.756-1.08-1.02s-0.983-0.396-1.56-0.396
		c-0.257,0-0.513,0.028-0.769,0.084c-0.256,0.057-0.483,0.145-0.684,0.265s-0.36,0.271-0.48,0.456
		c-0.119,0.184-0.18,0.412-0.18,0.684c0,0.48,0.216,0.836,0.648,1.068c0.432,0.231,1.08,0.443,1.943,0.636
		c0.544,0.128,1.048,0.28,1.513,0.456c0.464,0.176,0.867,0.396,1.212,0.66c0.344,0.264,0.611,0.58,0.804,0.948
		s0.288,0.8,0.288,1.296c0,0.672-0.128,1.239-0.384,1.704c-0.257,0.464-0.597,0.844-1.021,1.14s-0.908,0.508-1.452,0.636
		s-1.104,0.192-1.68,0.192c-0.864,0-1.708-0.168-2.532-0.504s-1.508-0.849-2.052-1.536l1.608-1.368
		c0.304,0.448,0.724,0.824,1.26,1.128s1.124,0.456,1.764,0.456c0.288,0,0.564-0.027,0.828-0.084c0.264-0.056,0.504-0.147,0.72-0.276
		c0.216-0.128,0.388-0.296,0.517-0.504c0.128-0.208,0.191-0.472,0.191-0.792c0-0.527-0.252-0.92-0.756-1.176s-1.244-0.496-2.22-0.72
		c-0.384-0.097-0.772-0.212-1.164-0.349c-0.393-0.136-0.748-0.323-1.068-0.563s-0.58-0.54-0.779-0.9
		c-0.2-0.359-0.301-0.804-0.301-1.332c0-0.607,0.124-1.132,0.372-1.571c0.248-0.44,0.572-0.801,0.973-1.08
		c0.399-0.28,0.855-0.488,1.367-0.624c0.513-0.136,1.04-0.204,1.584-0.204c0.816,0,1.604,0.16,2.364,0.479
		c0.76,0.32,1.348,0.784,1.765,1.393L569.069,590.51z"/>
	<path class="st1" d="M586.661,591.638c0-0.848-0.257-1.476-0.769-1.884s-1.192-0.611-2.04-0.611c-0.64,0-1.244,0.124-1.812,0.371
		c-0.568,0.249-1.044,0.564-1.429,0.948l-1.199-1.439c0.56-0.528,1.243-0.944,2.052-1.248c0.808-0.304,1.676-0.456,2.604-0.456
		c0.816,0,1.524,0.116,2.124,0.348c0.601,0.232,1.093,0.548,1.477,0.948s0.672,0.872,0.864,1.416
		c0.191,0.544,0.287,1.128,0.287,1.752v4.968c0,0.384,0.013,0.788,0.036,1.212c0.024,0.424,0.068,0.772,0.132,1.044h-2.04
		c-0.128-0.544-0.191-1.088-0.191-1.632h-0.072c-0.416,0.608-0.94,1.08-1.572,1.416s-1.38,0.504-2.243,0.504
		c-0.448,0-0.917-0.06-1.404-0.18c-0.488-0.12-0.933-0.315-1.332-0.588c-0.4-0.272-0.732-0.632-0.996-1.08s-0.396-1-0.396-1.656
		c0-0.864,0.232-1.548,0.696-2.052s1.072-0.888,1.824-1.152c0.752-0.264,1.6-0.436,2.544-0.516s1.896-0.12,2.856-0.12v-0.313
		H586.661z M586.108,593.582c-0.56,0-1.14,0.024-1.739,0.072c-0.601,0.048-1.145,0.144-1.633,0.288
		c-0.488,0.144-0.892,0.359-1.212,0.647s-0.479,0.672-0.479,1.152c0,0.336,0.067,0.616,0.204,0.84
		c0.136,0.225,0.315,0.408,0.54,0.552c0.224,0.145,0.472,0.244,0.744,0.301c0.271,0.056,0.552,0.084,0.84,0.084
		c1.056,0,1.867-0.316,2.436-0.948s0.853-1.428,0.853-2.389v-0.6L586.108,593.582L586.108,593.582z"/>
	<path class="st1" d="M594.629,587.63c0.031,0.288,0.056,0.612,0.071,0.973c0.016,0.359,0.024,0.659,0.024,0.899h0.072
		c0.144-0.304,0.34-0.588,0.588-0.852c0.248-0.265,0.531-0.496,0.852-0.696s0.672-0.355,1.057-0.468
		c0.384-0.112,0.783-0.168,1.199-0.168c0.736,0,1.368,0.124,1.896,0.372s0.968,0.58,1.32,0.996c0.352,0.416,0.611,0.903,0.779,1.464
		c0.168,0.56,0.252,1.16,0.252,1.8v7.056h-2.256v-6.312c0-0.464-0.036-0.904-0.107-1.32c-0.072-0.416-0.204-0.783-0.396-1.104
		s-0.456-0.576-0.792-0.769c-0.336-0.191-0.768-0.288-1.296-0.288c-0.896,0-1.628,0.341-2.196,1.021s-0.852,1.588-0.852,2.724v6.048
		h-2.256v-8.928c0-0.304-0.009-0.696-0.024-1.176c-0.016-0.48-0.04-0.904-0.072-1.272L594.629,587.63L594.629,587.63z"/>
	<path class="st1" d="M615.628,597.206c-0.432,0.688-1.02,1.212-1.764,1.572c-0.744,0.359-1.524,0.54-2.34,0.54
		c-0.88,0-1.672-0.156-2.376-0.468s-1.305-0.74-1.8-1.284c-0.496-0.544-0.881-1.185-1.152-1.92
		c-0.272-0.736-0.408-1.521-0.408-2.353s0.136-1.611,0.408-2.34c0.271-0.728,0.66-1.364,1.164-1.908s1.107-0.968,1.812-1.271
		s1.48-0.456,2.328-0.456c0.928,0,1.736,0.196,2.424,0.588c0.688,0.393,1.232,0.868,1.633,1.428h0.048v-8.472h2.256v18.144h-2.184
		v-1.8L615.628,597.206L615.628,597.206z M608.141,593.306c0,0.527,0.079,1.038,0.239,1.532s0.4,0.933,0.721,1.316
		c0.319,0.383,0.712,0.689,1.176,0.921s1.008,0.347,1.632,0.347c0.576,0,1.1-0.111,1.572-0.335c0.472-0.224,0.876-0.522,1.212-0.897
		s0.596-0.81,0.78-1.304s0.275-1.013,0.275-1.556c0-0.542-0.092-1.061-0.275-1.556c-0.185-0.494-0.444-0.933-0.78-1.315
		s-0.74-0.687-1.212-0.909c-0.473-0.224-0.996-0.336-1.572-0.336c-0.624,0-1.168,0.112-1.632,0.336
		c-0.464,0.223-0.856,0.526-1.176,0.909s-0.561,0.821-0.721,1.315C608.22,592.27,608.141,592.779,608.141,593.306z"/>
	<path class="st1" d="M633.364,589.479h-3.023v5.909c0,0.687,0.128,1.177,0.384,1.472s0.664,0.442,1.224,0.442
		c0.208,0,0.433-0.021,0.672-0.065c0.24-0.044,0.456-0.11,0.648-0.198l0.072,1.848c-0.272,0.097-0.572,0.172-0.9,0.229
		c-0.328,0.056-0.668,0.084-1.02,0.084c-1.072,0-1.893-0.296-2.46-0.888c-0.568-0.592-0.853-1.48-0.853-2.664v-6.168h-2.184v-1.849
		h2.184v-3.264h2.232v3.264h3.023v1.848H633.364z"/>
	<path class="st1" d="M638.044,589.358c0.272-0.561,0.736-1.04,1.393-1.44c0.655-0.399,1.392-0.6,2.208-0.6
		c0.735,0,1.367,0.124,1.896,0.372s0.968,0.58,1.32,0.996c0.352,0.416,0.611,0.903,0.779,1.464c0.168,0.56,0.252,1.16,0.252,1.8
		v7.056h-2.256v-6.303c0-0.466-0.036-0.907-0.107-1.324c-0.072-0.417-0.204-0.785-0.396-1.106c-0.191-0.32-0.452-0.577-0.78-0.77
		s-0.756-0.289-1.283-0.289c-0.896,0-1.632,0.341-2.208,1.022c-0.576,0.683-0.864,1.592-0.864,2.731v6.038h-2.256v-18.144h2.256
		v8.496L638.044,589.358L638.044,589.358z"/>
	<path class="st1" d="M660.34,593.222c0,0.129,0,0.257,0,0.385s-0.009,0.256-0.024,0.384h-9.048
		c0.016,0.477,0.124,0.926,0.324,1.347s0.468,0.786,0.804,1.097c0.336,0.31,0.724,0.552,1.164,0.727s0.908,0.262,1.404,0.262
		c0.768,0,1.432-0.168,1.992-0.504s0.999-0.744,1.319-1.224l1.584,1.271c-0.608,0.807-1.324,1.4-2.147,1.781
		c-0.824,0.381-1.74,0.571-2.748,0.571c-0.864,0-1.664-0.145-2.4-0.433s-1.368-0.691-1.896-1.212
		c-0.528-0.52-0.944-1.147-1.248-1.884c-0.305-0.735-0.456-1.552-0.456-2.448c0-0.88,0.147-1.691,0.444-2.436s0.71-1.38,1.239-1.908
		c0.528-0.528,1.154-0.939,1.876-1.236c0.722-0.296,1.499-0.443,2.333-0.443c0.833,0,1.591,0.136,2.272,0.408
		c0.682,0.271,1.259,0.664,1.731,1.176c0.474,0.512,0.838,1.132,1.095,1.859C660.211,591.49,660.34,592.311,660.34,593.222z
		 M658.036,592.311c-0.017-0.448-0.093-0.868-0.229-1.261c-0.136-0.392-0.336-0.731-0.6-1.02c-0.265-0.288-0.593-0.517-0.984-0.685
		c-0.393-0.168-0.852-0.252-1.38-0.252c-0.48,0-0.933,0.084-1.356,0.252s-0.792,0.396-1.104,0.685
		c-0.312,0.288-0.568,0.628-0.769,1.02c-0.2,0.393-0.315,0.812-0.348,1.261H658.036z"/>
	<path class="st1" d="M676.54,591.638c0-0.848-0.257-1.476-0.769-1.884s-1.192-0.611-2.04-0.611c-0.64,0-1.244,0.124-1.812,0.371
		c-0.568,0.249-1.044,0.564-1.429,0.948l-1.199-1.439c0.56-0.528,1.243-0.944,2.052-1.248c0.808-0.304,1.676-0.456,2.604-0.456
		c0.816,0,1.524,0.116,2.124,0.348c0.601,0.232,1.093,0.548,1.477,0.948s0.672,0.872,0.864,1.416
		c0.191,0.544,0.287,1.128,0.287,1.752v4.968c0,0.384,0.013,0.788,0.036,1.212c0.024,0.424,0.068,0.772,0.132,1.044h-2.04
		c-0.128-0.544-0.191-1.088-0.191-1.632h-0.072c-0.416,0.608-0.94,1.08-1.572,1.416s-1.38,0.504-2.243,0.504
		c-0.448,0-0.917-0.06-1.404-0.18c-0.488-0.12-0.933-0.315-1.332-0.588c-0.4-0.272-0.732-0.632-0.996-1.08s-0.396-1-0.396-1.656
		c0-0.864,0.232-1.548,0.696-2.052s1.072-0.888,1.824-1.152c0.752-0.264,1.6-0.436,2.544-0.516s1.896-0.12,2.856-0.12v-0.313H676.54
		z M675.987,593.582c-0.56,0-1.14,0.024-1.739,0.072c-0.601,0.048-1.145,0.144-1.633,0.288c-0.488,0.144-0.892,0.359-1.212,0.647
		s-0.479,0.672-0.479,1.152c0,0.336,0.067,0.616,0.204,0.84c0.136,0.225,0.315,0.408,0.54,0.552
		c0.224,0.145,0.472,0.244,0.744,0.301c0.271,0.056,0.552,0.084,0.84,0.084c1.056,0,1.867-0.316,2.436-0.948
		s0.853-1.428,0.853-2.389v-0.6L675.987,593.582L675.987,593.582z"/>
	<path class="st1" d="M685.107,583.526c0,0.416-0.147,0.76-0.44,1.031c-0.294,0.272-0.647,0.408-1.06,0.408s-0.762-0.14-1.047-0.42
		c-0.286-0.279-0.429-0.62-0.429-1.02c0-0.416,0.143-0.764,0.429-1.044c0.285-0.28,0.635-0.42,1.047-0.42s0.766,0.14,1.06,0.42
		C684.96,582.763,685.107,583.11,685.107,583.526z M684.747,599.006h-2.256V587.63h2.256V599.006z"/>
	<path class="st1" d="M688.659,588.902c-0.016-0.48-0.04-0.904-0.072-1.272h2.137c0.031,0.288,0.056,0.62,0.071,0.996
		s0.024,0.685,0.024,0.924h0.072c0.319-0.672,0.787-1.212,1.403-1.62c0.616-0.407,1.309-0.611,2.076-0.611
		c0.352,0,0.648,0.032,0.888,0.096l-0.096,2.088c-0.32-0.08-0.664-0.12-1.032-0.12c-0.544,0-1.016,0.101-1.416,0.3
		c-0.399,0.201-0.731,0.469-0.995,0.805c-0.265,0.336-0.461,0.724-0.589,1.164s-0.191,0.899-0.191,1.38v5.976h-2.256v-8.928
		C688.684,589.774,688.675,589.382,688.659,588.902z"/>
	<path class="st1" d="M708.723,589.479h-2.64v9.527h-2.256v-9.527h-2.257v-1.849h2.257v-2.376c0-0.672,0.075-1.292,0.228-1.859
		c0.152-0.568,0.399-1.061,0.744-1.477c0.344-0.416,0.783-0.744,1.32-0.983c0.535-0.24,1.188-0.36,1.956-0.36
		c0.543,0,1.016,0.056,1.416,0.168l-0.265,1.944c-0.176-0.049-0.352-0.088-0.527-0.12c-0.177-0.032-0.377-0.048-0.601-0.048
		c-0.432,0-0.78,0.075-1.044,0.228s-0.468,0.356-0.612,0.612s-0.239,0.548-0.288,0.876c-0.048,0.328-0.071,0.668-0.071,1.02v2.376
		h2.64L708.723,589.479L708.723,589.479z"/>
	<path class="st1" d="M722.33,593.294c0,0.88-0.156,1.688-0.468,2.424s-0.744,1.372-1.296,1.908s-1.204,0.952-1.956,1.248
		s-1.561,0.444-2.424,0.444c-0.864,0-1.673-0.148-2.424-0.444c-0.753-0.296-1.4-0.712-1.944-1.248s-0.972-1.172-1.284-1.908
		c-0.312-0.735-0.468-1.544-0.468-2.424s0.156-1.684,0.468-2.412c0.312-0.728,0.74-1.355,1.284-1.884s1.191-0.939,1.944-1.236
		c0.751-0.296,1.56-0.443,2.424-0.443c0.863,0,1.672,0.147,2.424,0.443c0.752,0.297,1.404,0.708,1.956,1.236
		s0.983,1.156,1.296,1.884C722.174,591.61,722.33,592.414,722.33,593.294z M719.979,593.306c0-0.542-0.085-1.061-0.253-1.555
		c-0.169-0.494-0.413-0.93-0.734-1.305s-0.719-0.674-1.191-0.896c-0.474-0.224-1.016-0.336-1.626-0.336
		c-0.609,0-1.151,0.112-1.625,0.336c-0.474,0.223-0.871,0.521-1.191,0.896c-0.321,0.375-0.566,0.811-0.734,1.305
		c-0.169,0.494-0.253,1.013-0.253,1.555c0,0.543,0.084,1.062,0.253,1.556c0.168,0.495,0.413,0.934,0.734,1.316
		c0.32,0.383,0.718,0.686,1.191,0.909s1.016,0.335,1.625,0.335c0.61,0,1.152-0.111,1.626-0.335c0.473-0.224,0.87-0.526,1.191-0.909
		s0.565-0.821,0.734-1.316C719.894,594.367,719.979,593.849,719.979,593.306z"/>
	<path class="st1" d="M725.426,588.902c-0.016-0.48-0.04-0.904-0.072-1.272h2.137c0.031,0.288,0.056,0.62,0.071,0.996
		s0.024,0.685,0.024,0.924h0.072c0.319-0.672,0.787-1.212,1.403-1.62c0.616-0.407,1.309-0.611,2.076-0.611
		c0.352,0,0.648,0.032,0.888,0.096l-0.096,2.088c-0.32-0.08-0.664-0.12-1.032-0.12c-0.544,0-1.016,0.101-1.416,0.3
		c-0.399,0.201-0.731,0.469-0.995,0.805c-0.265,0.336-0.461,0.724-0.589,1.164s-0.191,0.899-0.191,1.38v5.976h-2.256v-8.928
		C725.45,589.774,725.441,589.382,725.426,588.902z"/>
	<path class="st1" d="M748.154,599.006c-0.032-0.288-0.057-0.611-0.072-0.972s-0.023-0.66-0.023-0.9h-0.048
		c-0.288,0.608-0.772,1.125-1.452,1.548c-0.681,0.424-1.437,0.637-2.269,0.637c-0.735,0-1.372-0.12-1.907-0.36
		c-0.537-0.24-0.977-0.572-1.32-0.996c-0.345-0.424-0.601-0.916-0.769-1.476c-0.168-0.561-0.252-1.16-0.252-1.8v-7.057h2.256v6.288
		c0,0.465,0.036,0.908,0.108,1.332s0.204,0.796,0.396,1.116c0.191,0.32,0.456,0.576,0.792,0.768s0.768,0.288,1.296,0.288
		c0.912,0,1.647-0.34,2.208-1.02c0.56-0.68,0.84-1.588,0.84-2.725v-6.048h2.256v8.928c0,0.305,0.008,0.696,0.024,1.177
		c0.016,0.479,0.039,0.904,0.071,1.271L748.154,599.006L748.154,599.006z"/>
	<path class="st1" d="M756.362,604.766h-2.256V587.63h2.208v1.776h0.071c0.367-0.608,0.906-1.107,1.616-1.5
		c0.71-0.392,1.536-0.588,2.479-0.588c0.846,0,1.615,0.152,2.31,0.456s1.293,0.728,1.796,1.271c0.502,0.544,0.89,1.181,1.161,1.908
		c0.271,0.729,0.407,1.508,0.407,2.34s-0.136,1.616-0.407,2.353c-0.271,0.735-0.654,1.376-1.149,1.92s-1.094,0.972-1.795,1.284
		c-0.703,0.312-1.493,0.468-2.37,0.468c-0.814,0-1.58-0.177-2.299-0.528s-1.285-0.848-1.699-1.488h-0.072v7.464H756.362z
		 M763.851,593.294c0-0.528-0.081-1.04-0.24-1.536c-0.16-0.495-0.4-0.936-0.721-1.319c-0.319-0.385-0.716-0.688-1.188-0.912
		c-0.472-0.225-1.021-0.336-1.644-0.336c-0.576,0-1.101,0.111-1.572,0.336c-0.473,0.224-0.876,0.527-1.212,0.912
		c-0.336,0.384-0.597,0.824-0.78,1.319c-0.185,0.496-0.276,1.017-0.276,1.561s0.092,1.064,0.276,1.56s0.444,0.933,0.78,1.309
		s0.739,0.676,1.212,0.899c0.472,0.225,0.996,0.336,1.572,0.336c0.623,0,1.172-0.115,1.644-0.348
		c0.472-0.231,0.868-0.54,1.188-0.924c0.32-0.385,0.561-0.824,0.721-1.32C763.77,594.334,763.851,593.822,763.851,593.294z"/>
	<path class="st1" d="M780.89,589.479h-3.023v5.909c0,0.687,0.128,1.177,0.384,1.472s0.664,0.442,1.224,0.442
		c0.208,0,0.433-0.021,0.672-0.065c0.24-0.044,0.456-0.11,0.648-0.198l0.072,1.848c-0.272,0.097-0.572,0.172-0.9,0.229
		c-0.328,0.056-0.668,0.084-1.02,0.084c-1.072,0-1.893-0.296-2.46-0.888c-0.568-0.592-0.853-1.48-0.853-2.664v-6.168h-2.184v-1.849
		h2.184v-3.264h2.232v3.264h3.023v1.848H780.89z"/>
	<path class="st1" d="M794.737,593.294c0,0.88-0.156,1.688-0.468,2.424s-0.744,1.372-1.296,1.908s-1.204,0.952-1.956,1.248
		s-1.561,0.444-2.424,0.444c-0.864,0-1.673-0.148-2.424-0.444c-0.753-0.296-1.4-0.712-1.944-1.248s-0.972-1.172-1.284-1.908
		c-0.312-0.735-0.468-1.544-0.468-2.424s0.156-1.684,0.468-2.412c0.312-0.728,0.74-1.355,1.284-1.884s1.191-0.939,1.944-1.236
		c0.751-0.296,1.56-0.443,2.424-0.443c0.863,0,1.672,0.147,2.424,0.443c0.752,0.297,1.404,0.708,1.956,1.236
		s0.983,1.156,1.296,1.884C794.581,591.61,794.737,592.414,794.737,593.294z M792.386,593.306c0-0.542-0.085-1.061-0.253-1.555
		c-0.169-0.494-0.413-0.93-0.734-1.305s-0.719-0.674-1.191-0.896c-0.474-0.224-1.016-0.336-1.626-0.336
		c-0.609,0-1.151,0.112-1.625,0.336c-0.474,0.223-0.871,0.521-1.191,0.896c-0.321,0.375-0.566,0.811-0.734,1.305
		c-0.169,0.494-0.253,1.013-0.253,1.555c0,0.543,0.084,1.062,0.253,1.556c0.168,0.495,0.413,0.934,0.734,1.316
		c0.32,0.383,0.718,0.686,1.191,0.909s1.016,0.335,1.625,0.335c0.61,0,1.152-0.111,1.626-0.335c0.473-0.224,0.87-0.526,1.191-0.909
		s0.565-0.821,0.734-1.316C792.301,594.367,792.386,593.849,792.386,593.306z"/>
	<path class="st1" d="M810.657,592.143l-0.023-0.024c-0.239,0.144-0.567,0.256-0.982,0.336c-0.191,0.032-0.387,0.06-0.587,0.084
		c-0.199,0.024-0.387,0.036-0.562,0.036c-0.751,0-1.445-0.132-2.084-0.396s-1.197-0.632-1.676-1.104s-0.854-1.036-1.126-1.692
		c-0.271-0.655-0.407-1.368-0.407-2.136c0-0.848,0.147-1.62,0.443-2.316c0.295-0.695,0.706-1.291,1.233-1.787
		c0.526-0.496,1.149-0.88,1.868-1.152s1.493-0.408,2.323-0.408s1.604,0.141,2.323,0.42c0.719,0.28,1.337,0.668,1.856,1.164
		c0.519,0.496,0.926,1.088,1.221,1.776c0.296,0.688,0.443,1.432,0.443,2.231c0,0.929-0.151,1.769-0.455,2.521
		s-0.694,1.52-1.174,2.304l-4.431,7.008h-2.754L810.657,592.143z M812.617,587.15c0-0.496-0.084-0.964-0.252-1.404
		c-0.168-0.439-0.408-0.824-0.72-1.152c-0.312-0.327-0.685-0.588-1.116-0.779c-0.433-0.192-0.912-0.288-1.44-0.288
		c-0.527,0-1.008,0.092-1.439,0.275c-0.433,0.185-0.805,0.437-1.116,0.756c-0.312,0.32-0.552,0.705-0.72,1.152
		c-0.168,0.448-0.252,0.937-0.252,1.464c0,0.513,0.084,0.984,0.252,1.416c0.168,0.433,0.403,0.809,0.708,1.128
		c0.304,0.32,0.672,0.568,1.104,0.744c0.432,0.177,0.912,0.265,1.44,0.265c0.527,0,1.012-0.088,1.451-0.265
		c0.44-0.176,0.816-0.424,1.129-0.744c0.312-0.319,0.552-0.695,0.72-1.128C812.533,588.158,812.617,587.678,812.617,587.15z"/>
	<path class="st1" d="M823.345,581.582c1.008,0,1.875,0.232,2.604,0.696c0.728,0.464,1.328,1.1,1.8,1.908
		c0.472,0.808,0.82,1.756,1.044,2.844c0.225,1.088,0.336,2.248,0.336,3.479c0,1.248-0.111,2.412-0.336,3.492
		c-0.224,1.08-0.572,2.024-1.044,2.832c-0.472,0.809-1.072,1.444-1.8,1.908c-0.729,0.464-1.596,0.696-2.604,0.696
		c-1.009,0-1.881-0.232-2.616-0.696c-0.736-0.464-1.341-1.1-1.812-1.908c-0.472-0.808-0.819-1.752-1.044-2.832
		c-0.224-1.08-0.336-2.244-0.336-3.492c0-1.231,0.112-2.392,0.336-3.479c0.225-1.088,0.572-2.036,1.044-2.844
		c0.472-0.809,1.076-1.444,1.812-1.908C821.464,581.814,822.336,581.582,823.345,581.582z M823.345,583.526
		c-0.705,0-1.28,0.228-1.729,0.684s-0.796,1.032-1.044,1.729c-0.248,0.695-0.42,1.451-0.516,2.268
		c-0.097,0.816-0.145,1.584-0.145,2.304c0,0.721,0.048,1.488,0.145,2.305c0.096,0.815,0.268,1.568,0.516,2.256
		s0.596,1.26,1.044,1.716s1.023,0.684,1.729,0.684c0.688,0,1.251-0.228,1.691-0.684s0.788-1.028,1.044-1.716s0.433-1.44,0.528-2.256
		c0.096-0.816,0.144-1.584,0.144-2.305c0-0.72-0.048-1.487-0.144-2.304s-0.272-1.572-0.528-2.268
		c-0.256-0.696-0.604-1.272-1.044-1.729S824.032,583.526,823.345,583.526z"/>
	<path class="st1" d="M847.487,597.206c-0.432,0.688-1.02,1.212-1.764,1.572c-0.744,0.359-1.524,0.54-2.34,0.54
		c-0.88,0-1.672-0.156-2.376-0.468s-1.305-0.74-1.8-1.284c-0.496-0.544-0.881-1.185-1.152-1.92
		c-0.272-0.736-0.408-1.521-0.408-2.353s0.136-1.611,0.408-2.34c0.271-0.728,0.66-1.364,1.164-1.908s1.107-0.968,1.812-1.271
		s1.48-0.456,2.328-0.456c0.928,0,1.736,0.196,2.424,0.588c0.688,0.393,1.232,0.868,1.633,1.428h0.048v-8.472h2.256v18.144h-2.184
		v-1.8L847.487,597.206L847.487,597.206z M840,593.306c0,0.527,0.079,1.038,0.239,1.532s0.4,0.933,0.721,1.316
		c0.319,0.383,0.712,0.689,1.176,0.921s1.008,0.347,1.632,0.347c0.576,0,1.1-0.111,1.572-0.335c0.472-0.224,0.876-0.522,1.212-0.897
		s0.596-0.81,0.78-1.304s0.275-1.013,0.275-1.556c0-0.542-0.092-1.061-0.275-1.556c-0.185-0.494-0.444-0.933-0.78-1.315
		s-0.74-0.687-1.212-0.909c-0.473-0.224-0.996-0.336-1.572-0.336c-0.624,0-1.168,0.112-1.632,0.336
		c-0.464,0.223-0.856,0.526-1.176,0.909s-0.561,0.821-0.721,1.315C840.079,592.27,840,592.779,840,593.306z"/>
	<path class="st1" d="M860.736,591.638c0-0.848-0.257-1.476-0.769-1.884s-1.192-0.611-2.04-0.611c-0.64,0-1.244,0.124-1.812,0.371
		c-0.568,0.249-1.044,0.564-1.429,0.948l-1.199-1.439c0.56-0.528,1.243-0.944,2.052-1.248c0.808-0.304,1.676-0.456,2.604-0.456
		c0.816,0,1.524,0.116,2.124,0.348c0.601,0.232,1.093,0.548,1.477,0.948s0.672,0.872,0.864,1.416
		c0.191,0.544,0.287,1.128,0.287,1.752v4.968c0,0.384,0.013,0.788,0.036,1.212c0.024,0.424,0.068,0.772,0.132,1.044h-2.04
		c-0.128-0.544-0.191-1.088-0.191-1.632h-0.072c-0.416,0.608-0.94,1.08-1.572,1.416s-1.38,0.504-2.243,0.504
		c-0.448,0-0.917-0.06-1.404-0.18c-0.488-0.12-0.933-0.315-1.332-0.588c-0.4-0.272-0.732-0.632-0.996-1.08s-0.396-1-0.396-1.656
		c0-0.864,0.232-1.548,0.696-2.052s1.072-0.888,1.824-1.152c0.752-0.264,1.6-0.436,2.544-0.516s1.896-0.12,2.856-0.12v-0.313
		H860.736z M860.184,593.582c-0.56,0-1.14,0.024-1.739,0.072c-0.601,0.048-1.145,0.144-1.633,0.288
		c-0.488,0.144-0.892,0.359-1.212,0.647s-0.479,0.672-0.479,1.152c0,0.336,0.067,0.616,0.204,0.84
		c0.136,0.225,0.315,0.408,0.54,0.552c0.224,0.145,0.472,0.244,0.744,0.301c0.271,0.056,0.552,0.084,0.84,0.084
		c1.056,0,1.867-0.316,2.436-0.948s0.853-1.428,0.853-2.389v-0.6L860.184,593.582L860.184,593.582z"/>
	<path class="st1" d="M870.983,596.558h0.048l3.145-8.928h2.4l-5.521,14.064c-0.192,0.479-0.4,0.907-0.624,1.284
		c-0.225,0.375-0.488,0.695-0.792,0.96c-0.304,0.264-0.66,0.468-1.068,0.611c-0.407,0.145-0.892,0.216-1.451,0.216
		c-0.24,0-0.484-0.012-0.732-0.035c-0.248-0.024-0.5-0.068-0.756-0.133l0.216-1.991c0.384,0.128,0.76,0.191,1.128,0.191
		c0.592,0,1.032-0.164,1.32-0.492s0.552-0.796,0.792-1.403l0.72-1.896l-4.872-11.376h2.521L870.983,596.558z"/>
	<path class="st1" d="M884.903,590.51c-0.256-0.416-0.616-0.756-1.08-1.02s-0.983-0.396-1.56-0.396
		c-0.257,0-0.513,0.028-0.769,0.084c-0.256,0.057-0.483,0.145-0.684,0.265s-0.36,0.271-0.48,0.456
		c-0.119,0.184-0.18,0.412-0.18,0.684c0,0.48,0.216,0.836,0.648,1.068c0.432,0.231,1.08,0.443,1.943,0.636
		c0.544,0.128,1.048,0.28,1.513,0.456c0.464,0.176,0.867,0.396,1.212,0.66c0.344,0.264,0.611,0.58,0.804,0.948
		s0.288,0.8,0.288,1.296c0,0.672-0.128,1.239-0.384,1.704c-0.257,0.464-0.597,0.844-1.021,1.14s-0.908,0.508-1.452,0.636
		s-1.104,0.192-1.68,0.192c-0.864,0-1.708-0.168-2.532-0.504s-1.508-0.849-2.052-1.536l1.608-1.368
		c0.304,0.448,0.724,0.824,1.26,1.128s1.124,0.456,1.764,0.456c0.288,0,0.564-0.027,0.828-0.084c0.264-0.056,0.504-0.147,0.72-0.276
		c0.216-0.128,0.388-0.296,0.517-0.504c0.128-0.208,0.191-0.472,0.191-0.792c0-0.527-0.252-0.92-0.756-1.176s-1.244-0.496-2.22-0.72
		c-0.384-0.097-0.772-0.212-1.164-0.349c-0.393-0.136-0.748-0.323-1.068-0.563s-0.58-0.54-0.779-0.9
		c-0.2-0.359-0.301-0.804-0.301-1.332c0-0.607,0.124-1.132,0.372-1.571c0.248-0.44,0.572-0.801,0.973-1.08
		c0.399-0.28,0.855-0.488,1.367-0.624c0.513-0.136,1.04-0.204,1.584-0.204c0.816,0,1.604,0.16,2.364,0.479
		c0.76,0.32,1.348,0.784,1.765,1.393L884.903,590.51z"/>
	<path class="st1" d="M892.198,597.566c0,0.416-0.151,0.784-0.455,1.104c-0.305,0.32-0.688,0.48-1.152,0.48
		c-0.448,0-0.828-0.156-1.14-0.469c-0.312-0.312-0.469-0.675-0.469-1.092c0-0.432,0.152-0.804,0.456-1.116s0.688-0.468,1.152-0.468
		s0.848,0.152,1.152,0.456C892.047,596.767,892.198,597.134,892.198,597.566z"/>
</g>
<g>
	<path class="st1" d="M415.434,226.396c-1.158-1.57-2.666-2.717-4.526-3.441c-1.86-0.723-3.68-1.085-5.456-1.085
		c-2.274,0-4.34,0.414-6.2,1.24c-1.86,0.828-3.462,1.964-4.805,3.41c-1.343,1.447-2.377,3.142-3.1,5.084
		c-0.724,1.943-1.085,4.051-1.085,6.324c0,2.397,0.351,4.588,1.054,6.572c0.703,1.984,1.705,3.689,3.007,5.115
		c1.302,1.426,2.861,2.532,4.681,3.317c1.818,0.786,3.864,1.178,6.138,1.178c2.356,0,4.442-0.465,6.262-1.395
		c1.818-0.93,3.286-2.159,4.402-3.689l6.262,4.402c-1.943,2.439-4.319,4.33-7.13,5.673c-2.812,1.343-6.097,2.015-9.858,2.015
		c-3.431,0-6.583-0.569-9.455-1.705c-2.874-1.137-5.343-2.728-7.409-4.774c-2.067-2.046-3.679-4.484-4.836-7.316
		c-1.158-2.831-1.736-5.961-1.736-9.393c0-3.513,0.609-6.686,1.829-9.517c1.219-2.831,2.893-5.239,5.022-7.223
		c2.128-1.984,4.639-3.513,7.533-4.588c2.893-1.074,6.035-1.612,9.424-1.612c1.405,0,2.872,0.135,4.402,0.403
		c1.529,0.269,2.997,0.682,4.402,1.24s2.728,1.251,3.968,2.077c1.24,0.827,2.294,1.819,3.162,2.976L415.434,226.396z"/>
	<path class="st1" d="M426.904,216.104h15.252c2.066,0,4.071,0.217,6.014,0.651c1.942,0.434,3.667,1.147,5.177,2.139
		c1.508,0.992,2.718,2.294,3.627,3.906c0.909,1.612,1.364,3.576,1.364,5.89c0,3.184-0.899,5.777-2.697,7.781
		c-1.798,2.005-4.247,3.358-7.347,4.061L460.012,260h-9.424l-10.168-18.6h-5.704V260h-7.812L426.904,216.104L426.904,216.104z
		 M441.102,235.014c1.116,0,2.232-0.083,3.348-0.248c1.116-0.165,2.118-0.475,3.007-0.93c0.888-0.454,1.622-1.105,2.201-1.953
		c0.579-0.847,0.868-1.932,0.868-3.255c0-1.198-0.27-2.18-0.806-2.945c-0.538-0.765-1.22-1.374-2.046-1.829
		c-0.827-0.455-1.767-0.764-2.821-0.93c-1.054-0.165-2.077-0.248-3.069-0.248h-7.068v12.338H441.102z"/>
	<path class="st1" d="M465.902,216.104h29.078v6.82h-21.266v11.16h20.15v6.572h-20.15v12.4h22.382V260h-30.194V216.104z"/>
	<path class="st1" d="M517.485,216.104h6.758L543.153,260h-8.929l-4.092-10.044h-19.034L507.131,260h-8.742L517.485,216.104z
		 M527.405,243.26l-6.758-17.856l-6.883,17.856H527.405z"/>
	<path class="st1" d="M552.639,222.924h-13.454v-6.82h34.72v6.82h-13.453V260h-7.812v-37.076H552.639z"/>
	<path class="st1" d="M578.988,216.104h29.078v6.82H586.8v11.16h20.149v6.572H586.8v12.4h22.382V260h-30.194L578.988,216.104
		L578.988,216.104z"/>
	<path class="st1" d="M644.956,216.104h6.758L670.624,260h-8.928l-4.092-10.044H638.57L634.603,260h-8.742L644.956,216.104z
		 M654.876,243.26l-6.758-17.856l-6.882,17.856H654.876z"/>
	<path class="st1" d="M674.964,216.104h10.354l20.398,32.86h0.124v-32.86h7.812V260h-9.92L682.9,226.086h-0.124V260h-7.812V216.104z
		"/>
	<path class="st1" d="M383.752,280.104h29.078v6.82h-21.266v11.16h20.15v6.572h-20.15v12.4h22.382V324h-30.194V280.104z"/>
	<path class="st1" d="M421.571,280.104h10.354l20.398,32.86h0.124v-32.86h7.812V324h-9.92l-20.832-33.914h-0.124V324h-7.812V280.104
		z"/>
	<path class="st1" d="M469.931,280.104h15.562c2.852,0,5.725,0.372,8.618,1.116s5.497,1.974,7.812,3.689
		c2.314,1.715,4.194,3.968,5.642,6.758c1.446,2.79,2.17,6.252,2.17,10.385c0,3.844-0.724,7.151-2.17,9.92
		c-1.448,2.77-3.328,5.043-5.642,6.82c-2.315,1.778-4.919,3.09-7.812,3.937c-2.894,0.848-5.766,1.271-8.618,1.271h-15.562V280.104z
		 M484.253,317.18c2.024,0,4.05-0.237,6.076-0.713c2.025-0.475,3.854-1.28,5.487-2.418c1.632-1.136,2.965-2.675,3.999-4.619
		c1.033-1.942,1.55-4.402,1.55-7.378c0-3.141-0.517-5.704-1.55-7.688c-1.034-1.984-2.367-3.534-3.999-4.65
		c-1.633-1.116-3.462-1.88-5.487-2.294c-2.025-0.413-4.051-0.62-6.076-0.62h-6.51v30.38L484.253,317.18L484.253,317.18z"/>
	<path class="st1" d="M552.268,307.88c0,2.646-0.456,5.033-1.364,7.161c-0.91,2.129-2.149,3.937-3.72,5.425
		c-1.571,1.488-3.432,2.635-5.58,3.441c-2.15,0.806-4.485,1.209-7.007,1.209s-4.856-0.403-7.006-1.209
		c-2.149-0.806-4.02-1.953-5.61-3.441c-1.592-1.488-2.832-3.295-3.721-5.425c-0.889-2.128-1.333-4.515-1.333-7.161v-27.776h7.812
		v27.466c0,1.282,0.165,2.553,0.496,3.813c0.33,1.262,0.878,2.387,1.643,3.379s1.777,1.798,3.038,2.418
		c1.261,0.62,2.821,0.93,4.681,0.93c1.86,0,3.42-0.31,4.682-0.93c1.26-0.62,2.272-1.426,3.038-2.418
		c0.764-0.992,1.312-2.118,1.643-3.379c0.33-1.26,0.496-2.531,0.496-3.813v-27.466h7.812L552.268,307.88L552.268,307.88z"/>
	<path class="st1" d="M561.566,280.104h15.252c2.066,0,4.071,0.217,6.015,0.651c1.942,0.434,3.667,1.147,5.177,2.139
		c1.508,0.992,2.718,2.294,3.627,3.906c0.908,1.612,1.364,3.576,1.364,5.89c0,3.184-0.899,5.777-2.697,7.781
		c-1.798,2.005-4.247,3.358-7.347,4.061L594.675,324h-9.424l-10.168-18.6h-5.704V324h-7.812L561.566,280.104L561.566,280.104z
		 M575.765,299.014c1.116,0,2.232-0.083,3.348-0.248c1.116-0.165,2.118-0.475,3.008-0.93c0.888-0.454,1.621-1.105,2.2-1.953
		c0.579-0.847,0.868-1.932,0.868-3.255c0-1.198-0.27-2.18-0.806-2.945c-0.538-0.765-1.22-1.374-2.046-1.829
		c-0.827-0.455-1.768-0.764-2.821-0.93c-1.054-0.165-2.077-0.248-3.069-0.248h-7.067v12.338L575.765,299.014L575.765,299.014z"/>
	<path class="st1" d="M600.564,280.104h7.812V324h-7.812V280.104z"/>
	<path class="st1" d="M618.049,280.104h10.354l20.398,32.86h0.124v-32.86h7.812V324h-9.92l-20.832-33.914h-0.124V324h-7.812
		L618.049,280.104L618.049,280.104z"/>
	<path class="st1" d="M704.849,321.706c-2.232,1.075-4.681,1.912-7.347,2.511c-2.666,0.599-5.735,0.899-9.207,0.899
		c-3.556,0-6.8-0.569-9.734-1.705c-2.936-1.137-5.456-2.728-7.564-4.774c-2.107-2.046-3.751-4.484-4.929-7.316
		c-1.178-2.831-1.767-5.961-1.767-9.393c0-3.513,0.609-6.686,1.829-9.517c1.219-2.831,2.893-5.239,5.021-7.223
		s4.64-3.513,7.533-4.588c2.893-1.074,6.034-1.612,9.424-1.612c3.513,0,6.728,0.507,9.641,1.519c2.914,1.014,5.26,2.347,7.037,3.999
		l-5.394,5.828c-1.116-1.24-2.677-2.294-4.681-3.162c-2.006-0.868-4.186-1.302-6.541-1.302c-2.315,0-4.413,0.414-6.293,1.24
		c-1.882,0.828-3.483,1.964-4.806,3.41c-1.323,1.447-2.346,3.142-3.068,5.084c-0.724,1.943-1.085,4.051-1.085,6.324
		c0,2.356,0.361,4.516,1.085,6.479c0.723,1.963,1.756,3.668,3.1,5.115c1.343,1.447,2.976,2.573,4.898,3.379s4.102,1.209,6.541,1.209
		c3.348,0,6.262-0.516,8.741-1.55V305.4h-9.237v-6.448h16.802v22.754H704.849z"/>
	<path class="st1" d="M761.516,290.396c-1.157-1.57-2.666-2.717-4.525-3.441c-1.86-0.723-3.68-1.085-5.456-1.085
		c-2.273,0-4.34,0.414-6.2,1.24c-1.859,0.828-3.462,1.964-4.805,3.41c-1.344,1.447-2.377,3.142-3.1,5.084
		c-0.724,1.943-1.085,4.051-1.085,6.324c0,2.397,0.351,4.588,1.054,6.572c0.702,1.984,1.705,3.689,3.007,5.115
		s2.861,2.532,4.681,3.317c1.818,0.786,3.864,1.178,6.139,1.178c2.355,0,4.442-0.465,6.262-1.395
		c1.818-0.93,3.286-2.159,4.401-3.689l6.263,4.402c-1.943,2.439-4.32,4.33-7.13,5.673c-2.812,1.343-6.098,2.015-9.858,2.015
		c-3.431,0-6.582-0.569-9.455-1.705c-2.873-1.137-5.343-2.728-7.409-4.774s-3.679-4.484-4.836-7.316
		c-1.157-2.831-1.735-5.961-1.735-9.393c0-3.513,0.609-6.686,1.829-9.517c1.219-2.831,2.893-5.239,5.021-7.223
		s4.64-3.513,7.533-4.588c2.893-1.074,6.034-1.612,9.424-1.612c1.405,0,2.872,0.135,4.401,0.403c1.529,0.269,2.997,0.682,4.402,1.24
		c1.405,0.558,2.729,1.251,3.968,2.077c1.24,0.827,2.294,1.819,3.162,2.976L761.516,290.396z"/>
	<path class="st1" d="M772.986,280.104h7.812v36.952h18.661V324h-26.474L772.986,280.104L772.986,280.104z"/>
	<path class="st1" d="M804.668,280.104h29.078v6.82H812.48v11.16h20.149v6.572H812.48v12.4h22.382V324h-30.194L804.668,280.104
		L804.668,280.104z"/>
	<path class="st1" d="M856.251,280.104h6.759L881.919,324h-8.928l-4.092-10.044h-19.034L845.897,324h-8.742L856.251,280.104z
		 M866.171,307.26l-6.758-17.856l-6.882,17.856H866.171z"/>
	<path class="st1" d="M886.259,280.104h10.354l20.397,32.86h0.124v-32.86h7.812V324h-9.921l-20.831-33.914h-0.124V324h-7.812
		v-43.896H886.259z"/>
</g>
<polygon class="st1" points="1006.3,413.547 979.1,408.097 979.1,418.997 "/>
<g>
	<path class="st1" d="M823.54,418.997v-10.836h2.52v8.799h8.127v2.037H823.54z"/>
	<path class="st1" d="M836.623,418.997v-10.836h11.088v1.848h-8.568v2.415h4.998v1.849h-4.998v2.688h8.673v2.037L836.623,418.997
		L836.623,418.997z"/>
	<path class="st1" d="M849.139,418.997l6.132-10.836h2.437l6.216,10.836h-2.835l-1.303-2.373h-6.866l-1.261,2.373H849.139z
		 M853.989,414.671h4.746l-2.331-4.41L853.989,414.671z"/>
	<path class="st1" d="M866.148,418.997v-10.836h9.282c1.624,0,2.437,0.7,2.437,2.1v2.541c0,1.4-0.812,2.101-2.437,2.101h-1.428
		l4.998,4.095h-3.612l-4.368-4.095h-2.394v4.095h-2.478V418.997z M874.297,410.009h-5.67v3.045h5.67
		c0.392,0,0.665-0.042,0.818-0.127c0.211-0.126,0.315-0.373,0.315-0.739v-1.312c0-0.366-0.104-0.613-0.315-0.74
		C874.962,410.052,874.688,410.009,874.297,410.009z"/>
	<path class="st1" d="M881.709,418.997v-10.836h1.723l7.623,6.384c0.546,0.462,0.958,0.854,1.238,1.176
		c-0.07-1.008-0.104-1.631-0.104-1.868v-5.691h2.268v10.836h-1.722l-7.959-6.699c-0.336-0.279-0.638-0.573-0.903-0.882
		c0.07,0.7,0.105,1.274,0.105,1.722v5.859L881.709,418.997L881.709,418.997z"/>
	<path class="st1" d="M905.564,418.997v-10.836h2.037l5.104,6.552l4.998-6.552h2.016v10.836h-2.331v-6.699
		c0-0.266,0.028-0.65,0.084-1.154c-0.266,0.546-0.476,0.924-0.63,1.134l-4.074,5.418h-0.504l-4.074-5.439
		c-0.294-0.392-0.511-0.763-0.65-1.112c0.042,0.434,0.062,0.818,0.062,1.154v6.699h-2.038V418.997z"/>
	<path class="st1" d="M923.541,410.723c0-1.008,0.188-1.687,0.566-2.036c0.378-0.351,1.085-0.525,2.121-0.525h7.98
		c1.036,0,1.743,0.175,2.121,0.525s0.566,1.028,0.566,2.036v5.713c0,1.008-0.188,1.687-0.566,2.036
		c-0.378,0.351-1.085,0.525-2.121,0.525h-7.98c-1.036,0-1.743-0.175-2.121-0.525s-0.566-1.028-0.566-2.036V410.723z M926.061,416.96
		h8.316v-6.867h-8.316V416.96z"/>
	<path class="st1" d="M940.949,418.997v-10.836h9.281c1.624,0,2.437,0.7,2.437,2.1v2.541c0,1.4-0.812,2.101-2.437,2.101h-1.428
		l4.998,4.095h-3.612l-4.368-4.095h-2.394v4.095h-2.477V418.997z M949.097,410.009h-5.67v3.045h5.67
		c0.392,0,0.665-0.042,0.819-0.127c0.21-0.126,0.314-0.373,0.314-0.739v-1.312c0-0.366-0.104-0.613-0.314-0.74
		C949.762,410.052,949.488,410.009,949.097,410.009z"/>
	<path class="st1" d="M956.531,418.997v-10.836h11.088v1.848h-8.568v2.415h4.998v1.849h-4.998v2.688h8.673v2.037L956.531,418.997
		L956.531,418.997z"/>
</g>
<g>
	<path class="st1" d="M423.854,394.917c-1.583-1.359-3.975-2.021-7.313-2.021h-33.694v40.34h10.988v-14.838h22.706
		c3.338,0,5.73-0.661,7.312-2.021c1.613-1.383,2.432-3.558,2.432-6.463v-8.498C426.285,398.488,425.466,396.301,423.854,394.917z
		 M393.835,401.76h18.78c1.772,0,2.321,0.323,2.448,0.424c0.359,0.282,0.413,1.016,0.413,1.428v4.071
		c0,0.735-0.146,1.256-0.413,1.465c-0.126,0.1-0.677,0.424-2.448,0.424h-18.78V401.76z"/>
	<path class="st1" d="M464.938,423.795h-22.973v-30.898h-11.132v30.2c0,3.84,0.755,6.435,2.31,7.934
		c1.543,1.484,4.245,2.206,8.262,2.206h24.058c4.043,0,6.753-0.723,8.285-2.211c1.54-1.5,2.289-4.094,2.289-7.929v-30.2H464.94
		v30.898H464.938z"/>
	<path class="st1" d="M515.105,418.867c3.337,0,5.73-0.668,7.318-2.042c1.608-1.397,2.425-3.576,2.425-6.476v-8.934
		c0-2.929-0.817-5.115-2.43-6.499c-1.584-1.359-3.977-2.021-7.313-2.021H481.41v40.34h10.989v-14.369h6.806l15.343,14.369h16.348
		l-17.574-14.369L515.105,418.867L515.105,418.867z M514.04,403.611v4.575c0,0.735-0.146,1.257-0.414,1.467
		c-0.125,0.1-0.672,0.422-2.447,0.422h-18.78v-8.315h18.78c1.772,0,2.322,0.324,2.448,0.424
		C513.986,402.466,514.04,403.199,514.04,403.611z"/>
	<polygon class="st1" points="528.426,401.978 545.893,401.978 545.893,433.237 557.026,433.237 557.026,401.978 574.563,401.978 
		574.563,392.896 528.426,392.896 	"/>
	<polygon class="st1" points="589.525,416.635 607.099,416.635 607.099,407.878 589.525,407.878 589.525,401.652 619.633,401.652 
		619.633,392.896 578.393,392.896 578.393,433.237 619.992,433.237 619.992,423.795 589.525,423.795 	"/>
	<path class="st1" d="M672.105,395.131c-1.533-1.503-4.243-2.233-8.286-2.233h-28.021c-4.046,0-6.757,0.731-8.285,2.233
		c-1.54,1.508-2.288,4.094-2.288,7.906v20.06c0,3.838,0.749,6.432,2.291,7.93c1.528,1.487,4.238,2.211,8.282,2.211h14.888
		l4.285,9.794h11.354l-4.792-9.794h2.286c4.041,0,6.75-0.723,8.283-2.211c1.54-1.501,2.289-4.095,2.289-7.93v-20.06
		C674.392,399.228,673.644,396.642,672.105,395.131z M663.294,401.977v21.819h-6.285l-5.304-11.157l-8.475,3.43l3.308,7.728h-10.179
		v-21.819L663.294,401.977L663.294,401.977z"/>
</g>
<g>
	<g>
		<g>
			<path class="st2" d="M383.638,432.1v-38.067h32.557c3.025,0,5.215,0.582,6.573,1.746c1.356,1.165,2.035,3.044,2.035,5.637v8.499
				c0,2.57-0.678,4.436-2.035,5.6c-1.357,1.165-3.547,1.748-6.573,1.748h-23.842V432.1H383.638z M412.27,400.624h-19.916v10.084
				h19.916c1.536,0,2.587-0.223,3.151-0.667c0.564-0.443,0.847-1.23,0.847-2.36v-4.069c0-1.103-0.283-1.878-0.847-2.322
				C414.856,400.846,413.806,400.624,412.27,400.624z"/>
			<path class="st2" d="M440.483,394.033v30.9h25.246v-30.9h8.823v29.064c0,3.481-0.649,5.852-1.945,7.113
				c-1.296,1.26-3.794,1.89-7.491,1.89h-24.058c-3.673,0-6.164-0.63-7.473-1.89c-1.309-1.261-1.963-3.631-1.963-7.113v-29.064
				H440.483z"/>
			<path class="st2" d="M482.2,432.1v-38.067h32.559c3.023,0,5.215,0.582,6.573,1.746c1.356,1.165,2.033,3.044,2.033,5.637v8.931
				c0,2.57-0.677,4.443-2.033,5.619c-1.358,1.177-3.549,1.764-6.573,1.764h-4.971l17.575,14.37H514.65l-15.343-14.37h-8.391v14.37
				H482.2z M510.832,400.624h-19.916v10.588h19.916c1.536,0,2.587-0.221,3.151-0.666c0.563-0.445,0.847-1.23,0.847-2.36v-4.574
				c0-1.103-0.284-1.878-0.847-2.322C513.419,400.846,512.369,400.624,510.832,400.624z"/>
			<path class="st3" d="M555.542,400.84v31.26h-8.86v-31.26h-17.466v-6.807h43.865v6.807H555.542z"/>
			<path class="st3" d="M579.182,432.1v-38.067h38.967v6.483H588.04v8.499h17.575v6.483H588.04v9.435h30.468v7.167H579.182z"/>
			<path class="st3" d="M626.014,403.036c0-3.458,0.648-5.822,1.947-7.095c1.294-1.272,3.792-1.909,7.491-1.909h28.019
				c3.697,0,6.194,0.637,7.491,1.909c1.296,1.273,1.945,3.637,1.945,7.095v20.061c0,3.481-0.649,5.852-1.945,7.113
				c-1.297,1.26-3.794,1.89-7.491,1.89h-4.106l4.79,9.795h-8.789l-4.286-9.795h-15.629c-3.699,0-6.196-0.63-7.491-1.89
				c-1.299-1.261-1.947-3.631-1.947-7.113v-20.061H626.014z M634.875,424.933h13.037l-3.529-8.247l6.409-2.593l5.151,10.839h8.139
				V400.84h-29.207V424.933z"/>
		</g>
		<path class="st3" d="M675.094,394.047c0-0.415,0.079-0.806,0.239-1.173c0.159-0.366,0.375-0.684,0.649-0.954
			c0.273-0.269,0.594-0.484,0.96-0.643c0.367-0.159,0.757-0.238,1.173-0.238c0.415,0,0.806,0.08,1.172,0.238
			c0.366,0.159,0.687,0.373,0.96,0.643c0.274,0.269,0.491,0.587,0.65,0.954c0.159,0.366,0.238,0.757,0.238,1.173
			c0,0.415-0.079,0.804-0.238,1.166s-0.376,0.678-0.65,0.947c-0.273,0.269-0.594,0.482-0.96,0.636
			c-0.367,0.155-0.758,0.232-1.172,0.232c-0.416,0-0.806-0.077-1.173-0.232c-0.366-0.154-0.687-0.366-0.96-0.636
			c-0.274-0.269-0.49-0.585-0.649-0.947C675.173,394.85,675.094,394.462,675.094,394.047z M675.571,394.047
			c0,0.344,0.066,0.671,0.199,0.98c0.132,0.309,0.313,0.581,0.543,0.815c0.229,0.234,0.498,0.417,0.808,0.55
			c0.309,0.132,0.64,0.199,0.994,0.199c0.353,0,0.684-0.066,0.993-0.199c0.309-0.132,0.578-0.316,0.808-0.55
			c0.229-0.234,0.411-0.505,0.543-0.815c0.133-0.309,0.199-0.636,0.199-0.98c0-0.353-0.066-0.684-0.199-0.994
			c-0.132-0.309-0.313-0.578-0.543-0.808c-0.23-0.23-0.5-0.411-0.808-0.543c-0.309-0.132-0.641-0.199-0.993-0.199
			c-0.354,0-0.685,0.066-0.994,0.199c-0.309,0.132-0.578,0.314-0.808,0.543c-0.23,0.23-0.411,0.499-0.543,0.808
			C675.637,393.362,675.571,393.693,675.571,394.047z M676.935,392.337h1.193c0.159,0,0.313,0.018,0.464,0.053
			c0.15,0.035,0.285,0.093,0.404,0.172c0.119,0.08,0.214,0.181,0.285,0.305s0.106,0.278,0.106,0.464
			c0,0.247-0.071,0.448-0.212,0.603c-0.142,0.155-0.331,0.258-0.57,0.311l0.914,1.484h-0.742l-0.795-1.418h-0.437v1.418h-0.61
			V392.337z M678.035,393.821c0.177,0,0.345-0.033,0.503-0.099c0.159-0.066,0.239-0.201,0.239-0.404
			c0-0.185-0.073-0.309-0.218-0.371c-0.146-0.062-0.298-0.093-0.457-0.093h-0.556v0.967L678.035,393.821L678.035,393.821z"/>
	</g>
</g>
<g>
	<path class="st1" d="M511.936,454.333h-0.476v-2.983h-1.09v-0.418h2.656v0.418h-1.091v2.983H511.936z"/>
	<path class="st1" d="M515.236,453.545h0.009l1.004-2.614h0.74v3.401h-0.476v-2.844h-0.01l-1.129,2.844h-0.303l-1.124-2.844h-0.009
		v2.844h-0.461v-3.401h0.739L515.236,453.545z"/>
</g>
<g>
	<path class="st1" d="M384.279,467v-16.05h13.748c2.405,0,3.608,1.037,3.608,3.11v3.577c0,2.074-1.203,3.11-3.608,3.11h-10.078V467
		H384.279z M396.347,453.688h-8.398v4.323h8.398c0.58,0,0.984-0.062,1.213-0.189c0.311-0.188,0.466-0.557,0.466-1.104v-1.735
		c0-0.547-0.155-0.915-0.466-1.104C397.332,453.751,396.927,453.688,396.347,453.688z"/>
	<path class="st1" d="M404.279,467v-16.05h13.748c2.405,0,3.608,1.037,3.608,3.11v3.764c0,2.074-1.203,3.11-3.608,3.11h-2.115
		l7.403,6.065h-5.35l-6.47-6.065h-3.546V467H404.279z M416.347,453.688h-8.398v4.51h8.398c0.58,0,0.984-0.062,1.213-0.188
		c0.311-0.188,0.466-0.554,0.466-1.097v-1.941c0-0.543-0.155-0.908-0.466-1.096C417.332,453.75,416.927,453.688,416.347,453.688z"/>
	<path class="st1" d="M426.113,467v-16.05h16.423v2.737h-12.69v3.577h7.402v2.737h-7.402v3.981h12.846V467H426.113z"/>
	<path class="st1" d="M453.454,467l-9.269-16.05h4.261l6.5,11.602l6.19-11.602h3.732L456.035,467H453.454z"/>
	<path class="st1" d="M467.637,467v-16.05h2.55l11.291,9.456c0.809,0.684,1.42,1.265,1.835,1.741
		c-0.104-1.493-0.155-2.415-0.155-2.768v-8.43h3.359V467h-2.55l-11.789-9.922c-0.498-0.415-0.944-0.851-1.337-1.307
		c0.104,1.037,0.156,1.887,0.156,2.551V467H467.637z"/>
	<path class="st1" d="M500.606,453.812V467h-3.732v-13.188h-7.372v-2.861h18.507v2.861H500.606z"/>
</g>
</svg>
