<?xml version="1.0" encoding="utf-8"?>
<!-- Generator: Adobe Illustrator 27.7.0, SVG Export Plug-In . SVG Version: 6.00 Build 0)  -->
<svg version="1.1" id="Layer_1" xmlns="http://www.w3.org/2000/svg" xmlns:xlink="http://www.w3.org/1999/xlink" x="0px" y="0px"
	 viewBox="0 0 1024 747" style="enable-background:new 0 0 1024 747;" xml:space="preserve">
<style type="text/css">
	.st0{fill:none;}
	.st1{fill:#FFFFFF;}
	.st2{fill:#76BC21;}
	.st3{fill:#0069A7;}
</style>
<g id="ART">
	<rect id="Bounding_Box" class="st0" width="1024" height="747"/>
	<g id="CTA_-_Learn_More">
		<g id="text">
			<path d="M823.5,389v-10.8h2.5v8.8h8.1v2H823.5z"/>
			<path d="M836.6,389v-10.8h11.1v1.9h-8.6v2.4h5v1.9h-5v2.7h8.7v2H836.6z"/>
			<path d="M849.1,389l6.1-10.8h2.4l6.2,10.8h-2.8l-1.3-2.4h-6.9l-1.3,2.4H849.1z M854,384.7h4.8l-2.3-4.4L854,384.7z"/>
			<path d="M866.2,389v-10.8h9.3c1.6,0,2.4,0.7,2.4,2.1v2.5c0,1.4-0.8,2.1-2.4,2.1H874l5,4.1h-3.6l-4.4-4.1h-2.4v4.1H866.2z
				 M874.3,380h-5.7v3h5.7c0.4,0,0.7,0,0.8-0.1c0.2-0.1,0.3-0.4,0.3-0.7v-1.3c0-0.4-0.1-0.6-0.3-0.7C875,380,874.7,380,874.3,380z"
				/>
			<path d="M881.7,389v-10.8h1.7l7.6,6.4c0.5,0.5,1,0.9,1.2,1.2c-0.1-1-0.1-1.6-0.1-1.9v-5.7h2.3V389h-1.7l-8-6.7
				c-0.3-0.3-0.6-0.6-0.9-0.9c0.1,0.7,0.1,1.3,0.1,1.7v5.9H881.7z"/>
			<path d="M905.6,389v-10.8h2l5.1,6.5l5-6.5h2V389h-2.3v-6.7c0-0.3,0-0.6,0.1-1.1c-0.3,0.5-0.5,0.9-0.6,1.1l-4.1,5.4h-0.5l-4.1-5.4
				c-0.3-0.4-0.5-0.8-0.7-1.1c0,0.4,0.1,0.8,0.1,1.1v6.7L905.6,389L905.6,389z"/>
			<path d="M923.5,380.7c0-1,0.2-1.7,0.6-2s1.1-0.5,2.1-0.5h8c1,0,1.7,0.2,2.1,0.5c0.4,0.4,0.6,1,0.6,2v5.7c0,1-0.2,1.7-0.6,2
				s-1.1,0.5-2.1,0.5h-8c-1,0-1.7-0.2-2.1-0.5c-0.4-0.4-0.6-1-0.6-2V380.7z M926.1,387h8.3v-6.9h-8.3V387z"/>
			<path d="M941,389v-10.8h9.3c1.6,0,2.4,0.7,2.4,2.1v2.5c0,1.4-0.8,2.1-2.4,2.1h-1.4l5,4.1h-3.6l-4.4-4.1h-2.4v4.1H941z M949.1,380
				h-5.7v3h5.7c0.4,0,0.7,0,0.8-0.1c0.2-0.1,0.3-0.4,0.3-0.7v-1.3c0-0.4-0.1-0.6-0.3-0.7C949.8,380,949.5,380,949.1,380z"/>
			<path d="M956.5,389v-10.8h11.1v1.9h-8.6v2.4h5v1.9h-5v2.7h8.7v2H956.5z"/>
		</g>
		<polygon id="arrow" points="1006.3,383.5 979.1,378.1 979.1,389 		"/>
	</g>
	<g id="Body_Text">
		<g>
			<path d="M399.3,484.6c-0.9,0.4-1.8,0.7-2.8,1s-2.2,0.4-3.6,0.4c-1.4,0-2.6-0.2-3.8-0.7c-1.1-0.4-2.1-1.1-2.9-1.9
				s-1.5-1.7-1.9-2.8c-0.5-1.1-0.7-2.3-0.7-3.6c0-1.4,0.2-2.6,0.7-3.7c0.5-1.1,1.1-2,1.9-2.8s1.8-1.4,2.9-1.8
				c1.1-0.4,2.3-0.6,3.6-0.6c1.4,0,2.6,0.2,3.7,0.6c1.1,0.4,2,0.9,2.7,1.5l-2.1,2.3c-0.4-0.5-1-0.9-1.8-1.2
				c-0.8-0.3-1.6-0.5-2.5-0.5c-0.9,0-1.7,0.2-2.4,0.5s-1.4,0.8-1.9,1.3c-0.5,0.6-0.9,1.2-1.2,2s-0.4,1.6-0.4,2.5
				c0,0.9,0.1,1.8,0.4,2.5s0.7,1.4,1.2,2c0.5,0.6,1.1,1,1.9,1.3c0.7,0.3,1.6,0.5,2.5,0.5c1.3,0,2.4-0.2,3.4-0.6v-4.3h-3.6v-2.5h6.5
				L399.3,484.6L399.3,484.6z"/>
			<path d="M413.4,479.8c0,0.1,0,0.3,0,0.4c0,0.1,0,0.3,0,0.4h-8.8c0,0.4,0.1,0.8,0.3,1.1s0.4,0.6,0.7,0.9c0.3,0.2,0.6,0.4,1,0.6
				c0.4,0.1,0.8,0.2,1.2,0.2c0.7,0,1.3-0.1,1.8-0.4s0.9-0.6,1.2-1.1l1.9,1.5c-1.1,1.5-2.8,2.3-4.9,2.3c-0.9,0-1.7-0.1-2.5-0.4
				s-1.4-0.7-2-1.2c-0.5-0.5-1-1.1-1.3-1.9s-0.5-1.6-0.5-2.5c0-0.9,0.2-1.8,0.5-2.5s0.7-1.4,1.3-1.9c0.5-0.5,1.2-1,1.9-1.2
				s1.5-0.4,2.4-0.4c0.8,0,1.5,0.1,2.2,0.4c0.7,0.3,1.3,0.7,1.8,1.2c0.5,0.5,0.9,1.2,1.2,1.9C413.2,477.9,413.4,478.8,413.4,479.8z
				 M410.5,478.5c0-0.4,0-0.7-0.2-1.1c-0.1-0.3-0.3-0.6-0.5-0.9s-0.5-0.5-0.9-0.6s-0.8-0.2-1.2-0.2c-0.9,0-1.6,0.3-2.2,0.8
				s-0.9,1.2-1,2L410.5,478.5L410.5,478.5z"/>
			<path d="M414,476.2v-2.3h2v-3.3h2.8v3.3h2.9v2.3h-2.9v5.4c0,0.5,0.1,0.9,0.3,1.3c0.2,0.3,0.6,0.5,1.2,0.5c0.2,0,0.4,0,0.6-0.1
				s0.4-0.1,0.6-0.2l0.1,2.3c-0.3,0.1-0.6,0.2-0.9,0.2s-0.7,0.1-1,0.1c-0.8,0-1.4-0.1-1.9-0.3s-0.9-0.5-1.1-0.9
				c-0.3-0.4-0.5-0.8-0.6-1.3c-0.1-0.5-0.2-1-0.2-1.6v-5.4L414,476.2L414,476.2z"/>
			<path d="M442.6,473.6c0.8,0,1.4,0.1,1.9,0.4c0.5,0.3,1,0.6,1.3,1c0.3,0.4,0.6,0.9,0.8,1.5s0.2,1.1,0.2,1.7v7.2H444v-6.4
				c0-0.3,0-0.7-0.1-1.1c0-0.4-0.1-0.7-0.3-1s-0.4-0.5-0.7-0.7s-0.6-0.3-1.1-0.3c-0.5,0-0.8,0.1-1.1,0.3s-0.6,0.4-0.8,0.7
				c-0.2,0.3-0.4,0.6-0.5,1c-0.1,0.4-0.1,0.8-0.1,1.1v6.3h-2.9v-7c0-0.7-0.2-1.3-0.5-1.8c-0.3-0.5-0.9-0.7-1.6-0.7
				c-0.4,0-0.8,0.1-1.1,0.3c-0.3,0.2-0.6,0.4-0.8,0.7c-0.2,0.3-0.4,0.6-0.5,1c-0.1,0.4-0.2,0.8-0.2,1.1v6.3h-2.9V474h2.7v1.9h0
				c0.1-0.3,0.3-0.6,0.5-0.8s0.5-0.5,0.8-0.7c0.3-0.2,0.6-0.4,1-0.5c0.4-0.1,0.8-0.2,1.3-0.2c0.9,0,1.6,0.2,2.2,0.6s1,0.9,1.4,1.6
				c0.4-0.7,0.9-1.2,1.5-1.6C441,473.8,441.8,473.6,442.6,473.6z"/>
			<path d="M460.8,479.8c0,0.1,0,0.3,0,0.4c0,0.1,0,0.3,0,0.4H452c0,0.4,0.1,0.8,0.3,1.1s0.4,0.6,0.7,0.9c0.3,0.2,0.6,0.4,1,0.6
				c0.4,0.1,0.8,0.2,1.2,0.2c0.7,0,1.3-0.1,1.8-0.4s0.9-0.6,1.2-1.1l1.9,1.5c-1.1,1.5-2.8,2.3-4.9,2.3c-0.9,0-1.7-0.1-2.5-0.4
				s-1.4-0.7-2-1.2c-0.5-0.5-1-1.1-1.3-1.9s-0.5-1.6-0.5-2.5c0-0.9,0.2-1.8,0.5-2.5s0.7-1.4,1.3-1.9c0.5-0.5,1.2-1,1.9-1.2
				s1.5-0.4,2.4-0.4c0.8,0,1.5,0.1,2.2,0.4c0.7,0.3,1.3,0.7,1.8,1.2c0.5,0.5,0.9,1.2,1.2,1.9C460.6,477.9,460.8,478.8,460.8,479.8z
				 M457.9,478.5c0-0.4,0-0.7-0.2-1.1c-0.1-0.3-0.3-0.6-0.5-0.9s-0.5-0.5-0.9-0.6s-0.8-0.2-1.2-0.2c-0.9,0-1.6,0.3-2.2,0.8
				s-0.9,1.2-1,2L457.9,478.5L457.9,478.5z"/>
			<path d="M474.8,473.9v10.5c0,1-0.1,2-0.4,2.8c-0.3,0.8-0.6,1.5-1.2,2.1c-0.5,0.6-1.2,1-2,1.4c-0.8,0.3-1.8,0.5-2.9,0.5
				c-0.5,0-1,0-1.5-0.1s-1-0.2-1.5-0.4c-0.5-0.2-1-0.4-1.5-0.6c-0.5-0.2-0.9-0.5-1.2-0.8l1.7-2.2c0.6,0.5,1.2,0.9,1.9,1.2
				c0.7,0.3,1.4,0.4,2.1,0.4c0.7,0,1.3-0.1,1.7-0.3c0.5-0.2,0.9-0.5,1.1-0.8s0.5-0.8,0.6-1.2s0.2-1,0.2-1.6v-0.8h0
				c-0.4,0.6-1,1-1.6,1.3s-1.4,0.5-2.2,0.5c-0.9,0-1.6-0.2-2.4-0.5s-1.3-0.8-1.8-1.3c-0.5-0.5-0.9-1.2-1.1-1.9
				c-0.3-0.7-0.4-1.5-0.4-2.3c0-0.8,0.1-1.6,0.4-2.4c0.3-0.7,0.6-1.4,1.1-1.9s1.1-1,1.8-1.3s1.5-0.5,2.3-0.5c0.8,0,1.6,0.2,2.3,0.5
				c0.7,0.3,1.3,0.9,1.7,1.6h0v-1.7H474.8z M468.6,476c-0.5,0-1,0.1-1.4,0.3c-0.4,0.2-0.8,0.5-1,0.8s-0.5,0.7-0.6,1.2
				s-0.2,0.9-0.2,1.4c0,0.5,0.1,0.9,0.2,1.3c0.1,0.4,0.4,0.8,0.6,1.2s0.6,0.6,1,0.8s0.9,0.3,1.4,0.3c0.5,0,1-0.1,1.4-0.3
				c0.4-0.2,0.8-0.5,1.1-0.8s0.5-0.7,0.7-1.2s0.2-0.9,0.2-1.4c0-0.5-0.1-1-0.2-1.4s-0.4-0.8-0.7-1.2s-0.6-0.6-1.1-0.8
				S469.1,476,468.6,476z"/>
			<path d="M484.9,484L484.9,484c-0.4,0.5-0.8,0.9-1.5,1.3c-0.6,0.3-1.4,0.5-2.2,0.5c-0.5,0-1-0.1-1.5-0.2s-1-0.3-1.4-0.6
				s-0.8-0.6-1.1-1.1c-0.3-0.5-0.4-1-0.4-1.7c0-0.9,0.2-1.5,0.7-2.1c0.5-0.5,1.1-0.9,1.9-1.2c0.8-0.3,1.6-0.5,2.6-0.5
				s1.9-0.1,2.8-0.1V478c0-0.7-0.3-1.2-0.8-1.6s-1.1-0.5-1.9-0.5c-0.6,0-1.2,0.1-1.8,0.4s-1,0.6-1.4,0.9l-1.5-1.8
				c0.7-0.6,1.4-1.1,2.3-1.4c0.9-0.3,1.7-0.5,2.6-0.5c1,0,1.9,0.1,2.5,0.4c0.7,0.3,1.2,0.7,1.6,1.1c0.4,0.5,0.6,1,0.8,1.6
				s0.2,1.1,0.2,1.7v7h-2.7L484.9,484L484.9,484z M484.9,480.2h-0.6c-0.5,0-1,0-1.5,0.1c-0.5,0-1,0.1-1.4,0.3
				c-0.4,0.1-0.8,0.3-1.1,0.6s-0.4,0.6-0.4,1c0,0.3,0.1,0.5,0.2,0.7s0.3,0.3,0.5,0.4s0.4,0.2,0.6,0.2s0.5,0.1,0.7,0.1
				c1,0,1.7-0.3,2.3-0.8c0.5-0.5,0.8-1.2,0.8-2.2L484.9,480.2L484.9,480.2z"/>
			<path d="M503.9,477.1c-0.2-0.3-0.6-0.6-1-0.8c-0.5-0.2-0.9-0.3-1.4-0.3c-0.5,0-1,0.1-1.4,0.3c-0.4,0.2-0.7,0.5-1,0.9
				c-0.3,0.4-0.5,0.8-0.6,1.2s-0.2,0.9-0.2,1.3c0,0.5,0.1,0.9,0.2,1.3c0.1,0.4,0.3,0.8,0.6,1.2s0.6,0.6,1,0.9
				c0.4,0.2,0.9,0.3,1.4,0.3c0.5,0,0.9-0.1,1.3-0.3c0.5-0.2,0.8-0.4,1.1-0.8l1.8,1.8c-0.5,0.5-1.1,0.9-1.8,1.2
				c-0.7,0.3-1.5,0.4-2.4,0.4c-0.9,0-1.6-0.1-2.4-0.4s-1.4-0.7-2-1.2c-0.6-0.5-1-1.2-1.3-1.9s-0.5-1.6-0.5-2.6
				c0-0.9,0.2-1.8,0.5-2.5s0.8-1.4,1.3-1.9s1.2-0.9,2-1.2c0.7-0.3,1.5-0.4,2.4-0.4s1.7,0.2,2.5,0.5s1.4,0.8,1.9,1.3L503.9,477.1z"/>
			<path d="M507.3,467.3h2.9v18.1h-2.9V467.3z"/>
			<path d="M524.2,479.8c0,0.1,0,0.3,0,0.4c0,0.1,0,0.3,0,0.4h-8.8c0,0.4,0.1,0.8,0.3,1.1s0.4,0.6,0.7,0.9s0.7,0.4,1,0.6
				c0.4,0.1,0.8,0.2,1.2,0.2c0.7,0,1.3-0.1,1.8-0.4s0.9-0.6,1.2-1.1l1.9,1.5c-1.1,1.5-2.8,2.3-4.9,2.3c-0.9,0-1.7-0.1-2.5-0.4
				s-1.4-0.7-2-1.2c-0.5-0.5-1-1.1-1.3-1.9s-0.5-1.6-0.5-2.5c0-0.9,0.2-1.8,0.5-2.5s0.7-1.4,1.3-1.9c0.5-0.5,1.2-1,1.9-1.2
				s1.5-0.4,2.4-0.4c0.8,0,1.5,0.1,2.2,0.4c0.7,0.3,1.3,0.7,1.8,1.2c0.5,0.5,0.9,1.2,1.2,1.9C524,477.9,524.2,478.8,524.2,479.8z
				 M521.3,478.5c0-0.4,0-0.7-0.2-1.1c-0.1-0.3-0.3-0.6-0.5-0.9s-0.5-0.5-0.8-0.6c-0.3-0.1-0.8-0.2-1.2-0.2c-0.9,0-1.6,0.3-2.2,0.8
				s-0.9,1.2-1,2L521.3,478.5L521.3,478.5z"/>
			<path d="M533.5,484L533.5,484c-0.4,0.5-0.8,0.9-1.5,1.3c-0.6,0.3-1.4,0.5-2.2,0.5c-0.5,0-1-0.1-1.5-0.2s-1-0.3-1.4-0.6
				s-0.8-0.6-1.1-1.1c-0.3-0.5-0.4-1-0.4-1.7c0-0.9,0.2-1.5,0.7-2.1s1.1-0.9,1.9-1.2c0.8-0.3,1.6-0.5,2.6-0.5s1.8-0.1,2.8-0.1V478
				c0-0.7-0.3-1.2-0.8-1.6s-1.1-0.5-1.9-0.5c-0.6,0-1.2,0.1-1.8,0.4c-0.6,0.3-1,0.6-1.4,0.9l-1.5-1.8c0.7-0.6,1.4-1.1,2.3-1.4
				c0.9-0.3,1.7-0.5,2.6-0.5c1,0,1.9,0.1,2.5,0.4c0.7,0.3,1.2,0.7,1.6,1.1s0.7,1,0.8,1.6s0.2,1.1,0.2,1.7v7h-2.7L533.5,484
				L533.5,484z M533.4,480.2h-0.7c-0.5,0-1,0-1.5,0.1s-1,0.1-1.4,0.3c-0.4,0.1-0.8,0.3-1.1,0.6s-0.4,0.6-0.4,1
				c0,0.3,0.1,0.5,0.2,0.7s0.3,0.3,0.5,0.4c0.2,0.1,0.4,0.2,0.7,0.2c0.2,0,0.5,0.1,0.7,0.1c1,0,1.7-0.3,2.3-0.8
				c0.5-0.5,0.8-1.2,0.8-2.2L533.4,480.2L533.4,480.2z"/>
			<path d="M539,473.9h2.7v1.9h0c0.3-0.6,0.7-1.1,1.3-1.5s1.4-0.7,2.2-0.7c0.8,0,1.4,0.1,1.9,0.4c0.5,0.3,1,0.6,1.3,1
				c0.3,0.4,0.6,0.9,0.8,1.5c0.2,0.6,0.2,1.1,0.2,1.7v7.2h-2.9v-6.4c0-0.3,0-0.7-0.1-1.1s-0.2-0.7-0.3-1s-0.4-0.5-0.7-0.7
				c-0.3-0.2-0.7-0.3-1.1-0.3s-0.9,0.1-1.2,0.3c-0.3,0.2-0.6,0.4-0.8,0.7c-0.2,0.3-0.4,0.6-0.5,1s-0.2,0.8-0.2,1.1v6.3H539V473.9z"
				/>
			<path d="M552.2,470c0-0.5,0.2-0.9,0.5-1.2c0.3-0.3,0.8-0.5,1.3-0.5c0.5,0,1,0.2,1.3,0.5c0.4,0.3,0.5,0.7,0.5,1.2
				s-0.2,0.9-0.5,1.2s-0.8,0.5-1.3,0.5s-1-0.2-1.3-0.5C552.3,470.9,552.2,470.5,552.2,470z M552.6,473.9h2.9v11.5h-2.9V473.9z"/>
			<path d="M558.5,473.9h2.7v1.9h0c0.3-0.6,0.7-1.1,1.3-1.5s1.4-0.7,2.2-0.7c0.8,0,1.4,0.1,1.9,0.4c0.5,0.3,1,0.6,1.3,1
				c0.3,0.4,0.6,0.9,0.8,1.5c0.2,0.6,0.2,1.1,0.2,1.7v7.2h-2.9v-6.4c0-0.3,0-0.7-0.1-1.1s-0.2-0.7-0.3-1s-0.4-0.5-0.7-0.7
				c-0.3-0.2-0.7-0.3-1.1-0.3s-0.9,0.1-1.2,0.3c-0.3,0.2-0.6,0.4-0.8,0.7c-0.2,0.3-0.4,0.6-0.5,1s-0.2,0.8-0.2,1.1v6.3h-2.9V473.9z"
				/>
			<path d="M583.7,473.9v10.5c0,1-0.1,2-0.4,2.8s-0.7,1.5-1.2,2.1s-1.2,1-2,1.4c-0.8,0.3-1.8,0.5-2.9,0.5c-0.5,0-1,0-1.5-0.1
				c-0.5-0.1-1-0.2-1.5-0.4c-0.5-0.2-1-0.4-1.5-0.6s-0.9-0.5-1.2-0.8l1.7-2.2c0.6,0.5,1.2,0.9,1.9,1.2c0.7,0.3,1.4,0.4,2.1,0.4
				c0.7,0,1.3-0.1,1.7-0.3c0.5-0.2,0.8-0.5,1.1-0.8c0.3-0.4,0.5-0.8,0.6-1.2s0.2-1,0.2-1.6v-0.8h0c-0.4,0.6-1,1-1.6,1.3
				s-1.4,0.5-2.2,0.5c-0.9,0-1.7-0.2-2.3-0.5c-0.7-0.3-1.3-0.8-1.8-1.3c-0.5-0.5-0.9-1.2-1.1-1.9s-0.4-1.5-0.4-2.3
				c0-0.8,0.1-1.6,0.4-2.4c0.3-0.7,0.6-1.4,1.1-1.9s1.1-1,1.8-1.3c0.7-0.3,1.5-0.5,2.3-0.5c0.8,0,1.6,0.2,2.3,0.5s1.3,0.9,1.7,1.6h0
				v-1.7H583.7z M577.5,476c-0.5,0-1,0.1-1.4,0.3c-0.4,0.2-0.8,0.5-1,0.8s-0.5,0.7-0.7,1.2s-0.2,0.9-0.2,1.4c0,0.5,0.1,0.9,0.2,1.3
				s0.4,0.8,0.7,1.2s0.6,0.6,1,0.8c0.4,0.2,0.9,0.3,1.4,0.3c0.5,0,1-0.1,1.4-0.3c0.4-0.2,0.8-0.5,1.1-0.8s0.5-0.7,0.7-1.2
				s0.2-0.9,0.2-1.4c0-0.5-0.1-1-0.2-1.4s-0.4-0.8-0.7-1.2c-0.3-0.3-0.7-0.6-1.1-0.8S578.1,476,577.5,476z"/>
			<path d="M594.9,473.9v1.6h0.1c0.1-0.2,0.3-0.5,0.6-0.7c0.2-0.2,0.5-0.4,0.8-0.6c0.3-0.2,0.7-0.3,1.1-0.5c0.4-0.1,0.9-0.2,1.4-0.2
				c0.8,0,1.6,0.2,2.3,0.5s1.3,0.7,1.8,1.3s0.9,1.2,1.2,1.9c0.3,0.7,0.4,1.5,0.4,2.4s-0.1,1.6-0.4,2.4c-0.3,0.7-0.6,1.4-1.1,1.9
				s-1.1,1-1.8,1.3s-1.5,0.5-2.4,0.5c-0.8,0-1.6-0.2-2.2-0.5c-0.7-0.3-1.2-0.8-1.6-1.4h0v7.3h-2.9v-17.3L594.9,473.9L594.9,473.9z
				 M601.7,479.6c0-0.5-0.1-0.9-0.2-1.3c-0.1-0.4-0.3-0.8-0.6-1.2c-0.3-0.4-0.6-0.6-1-0.9c-0.4-0.2-0.9-0.3-1.5-0.3
				c-0.5,0-1,0.1-1.4,0.3c-0.4,0.2-0.8,0.5-1.1,0.9c-0.3,0.4-0.5,0.8-0.7,1.2c-0.2,0.5-0.2,0.9-0.2,1.3c0,0.5,0.1,0.9,0.2,1.3
				c0.2,0.4,0.4,0.8,0.7,1.2c0.3,0.4,0.7,0.6,1.1,0.9c0.4,0.2,0.9,0.3,1.4,0.3c0.6,0,1-0.1,1.5-0.3c0.4-0.2,0.8-0.5,1-0.9
				c0.3-0.4,0.5-0.8,0.6-1.2C601.6,480.5,601.7,480.1,601.7,479.6z"/>
			<path d="M606.2,479.6c0-0.9,0.2-1.7,0.5-2.5s0.8-1.4,1.3-1.9s1.2-0.9,2-1.2c0.8-0.3,1.6-0.4,2.5-0.4c0.9,0,1.7,0.1,2.5,0.4
				c0.8,0.3,1.4,0.7,2,1.2c0.6,0.5,1,1.2,1.3,1.9s0.5,1.6,0.5,2.5s-0.2,1.7-0.5,2.5c-0.3,0.8-0.8,1.4-1.3,1.9c-0.6,0.5-1.2,1-2,1.3
				c-0.8,0.3-1.6,0.5-2.5,0.5c-0.9,0-1.7-0.1-2.5-0.5c-0.8-0.3-1.4-0.7-2-1.3s-1-1.2-1.3-1.9C606.4,481.4,606.2,480.6,606.2,479.6z
				 M609.1,479.6c0,0.5,0.1,0.9,0.2,1.3c0.1,0.5,0.3,0.9,0.6,1.2c0.3,0.4,0.6,0.6,1,0.9c0.4,0.2,0.9,0.3,1.5,0.3s1.1-0.1,1.5-0.3
				c0.4-0.2,0.8-0.5,1-0.9c0.3-0.4,0.5-0.8,0.6-1.2c0.1-0.5,0.2-0.9,0.2-1.3c0-0.5-0.1-0.9-0.2-1.3c-0.1-0.4-0.3-0.8-0.6-1.2
				s-0.6-0.6-1-0.9c-0.4-0.2-0.9-0.3-1.5-0.3s-1.1,0.1-1.5,0.3c-0.4,0.2-0.8,0.5-1,0.9s-0.5,0.8-0.6,1.2
				C609.2,478.8,609.1,479.2,609.1,479.6z"/>
			<path d="M619.4,473.9h3.1l2.4,8.3h0l2.5-8.3h3.1l2.5,8.3h0l2.5-8.3h3l-4,11.5h-2.9l-2.6-8.1h0l-2.6,8.1h-2.9L619.4,473.9z"/>
			<path d="M650.8,479.8c0,0.1,0,0.3,0,0.4c0,0.1,0,0.3,0,0.4h-8.8c0,0.4,0.1,0.8,0.3,1.1s0.4,0.6,0.7,0.9s0.7,0.4,1,0.6
				c0.4,0.1,0.8,0.2,1.2,0.2c0.7,0,1.3-0.1,1.8-0.4s0.9-0.6,1.2-1.1l1.9,1.5c-1.1,1.5-2.8,2.3-4.9,2.3c-0.9,0-1.7-0.1-2.5-0.4
				s-1.4-0.7-2-1.2c-0.5-0.5-1-1.1-1.3-1.9c-0.3-0.7-0.5-1.6-0.5-2.5c0-0.9,0.2-1.8,0.5-2.5s0.7-1.4,1.3-1.9s1.2-1,1.9-1.2
				s1.5-0.4,2.4-0.4c0.8,0,1.5,0.1,2.2,0.4c0.7,0.3,1.3,0.7,1.8,1.2c0.5,0.5,0.9,1.2,1.2,1.9C650.7,477.9,650.8,478.8,650.8,479.8z
				 M648,478.5c0-0.4,0-0.7-0.2-1.1c-0.1-0.3-0.3-0.6-0.5-0.9s-0.5-0.5-0.8-0.6c-0.3-0.1-0.8-0.2-1.2-0.2c-0.9,0-1.6,0.3-2.2,0.8
				c-0.6,0.5-0.9,1.2-1,2L648,478.5L648,478.5z"/>
			<path d="M653.2,473.9h2.8v1.9h0c0.3-0.7,0.8-1.2,1.3-1.6s1.2-0.6,2-0.6c0.1,0,0.2,0,0.4,0s0.2,0,0.3,0.1v2.6
				c-0.2,0-0.4-0.1-0.5-0.1c-0.1,0-0.3,0-0.4,0c-0.7,0-1.2,0.1-1.6,0.4s-0.7,0.5-0.9,0.9c-0.2,0.3-0.4,0.7-0.5,1s-0.1,0.6-0.1,0.8
				v6.2h-2.9V473.9z"/>
			<path d="M669.8,470c0,0.4-0.2,0.8-0.4,1s-0.7,0.4-1.1,0.4s-0.8-0.1-1-0.4s-0.4-0.6-0.4-1c0-0.4,0.1-0.8,0.4-1s0.6-0.4,1-0.4
				s0.8,0.1,1.1,0.4C669.6,469.2,669.8,469.6,669.8,470z M669.4,485.5h-2.3v-11.4h2.3V485.5z"/>
			<path d="M674.9,474.1c0,0.3,0.1,0.6,0.1,1s0,0.7,0,0.9h0.1c0.1-0.3,0.3-0.6,0.6-0.9s0.5-0.5,0.8-0.7s0.7-0.4,1.1-0.5
				c0.4-0.1,0.8-0.2,1.2-0.2c0.7,0,1.4,0.1,1.9,0.4s1,0.6,1.3,1c0.3,0.4,0.6,0.9,0.8,1.5c0.2,0.6,0.2,1.2,0.2,1.8v7.1h-2.3v-6.3
				c0-0.5,0-0.9-0.1-1.3s-0.2-0.8-0.4-1.1c-0.2-0.3-0.5-0.6-0.8-0.8c-0.3-0.2-0.8-0.3-1.3-0.3c-0.9,0-1.6,0.3-2.2,1
				s-0.8,1.6-0.8,2.7v6h-2.3v-8.9c0-0.3,0-0.7,0-1.2c0-0.5,0-0.9-0.1-1.3L674.9,474.1L674.9,474.1z"/>
			<path d="M697.5,475.9h-3v5.9c0,0.7,0.1,1.2,0.4,1.5s0.7,0.4,1.2,0.4c0.2,0,0.4,0,0.7-0.1c0.2,0,0.5-0.1,0.7-0.2l0.1,1.9
				c-0.3,0.1-0.6,0.2-0.9,0.2s-0.7,0.1-1,0.1c-1.1,0-1.9-0.3-2.5-0.9c-0.6-0.6-0.8-1.5-0.8-2.7v-6.2H690v-1.9h2.2v-3.3h2.2v3.3h3
				L697.5,475.9L697.5,475.9z"/>
			<path d="M701.7,475.8c0.3-0.6,0.7-1,1.4-1.4c0.7-0.4,1.4-0.6,2.2-0.6c0.7,0,1.4,0.1,1.9,0.4s1,0.6,1.3,1c0.3,0.4,0.6,0.9,0.8,1.5
				c0.2,0.6,0.2,1.2,0.2,1.8v7.1h-2.3v-6.3c0-0.5,0-0.9-0.1-1.3c-0.1-0.4-0.2-0.8-0.4-1.1c-0.2-0.3-0.5-0.6-0.8-0.8
				s-0.8-0.3-1.3-0.3c-0.9,0-1.6,0.3-2.2,1s-0.9,1.6-0.9,2.7v6h-2.3v-18.1h2.3L701.7,475.8L701.7,475.8L701.7,475.8z"/>
			<path d="M715.5,470c0,0.4-0.2,0.8-0.4,1s-0.7,0.4-1.1,0.4s-0.8-0.1-1-0.4s-0.4-0.6-0.4-1c0-0.4,0.1-0.8,0.4-1s0.6-0.4,1-0.4
				s0.8,0.1,1.1,0.4C715.3,469.2,715.5,469.6,715.5,470z M715.1,485.5h-2.3v-11.4h2.3V485.5z"/>
			<path d="M724.7,477c-0.3-0.4-0.6-0.8-1.1-1c-0.5-0.3-1-0.4-1.6-0.4c-0.3,0-0.5,0-0.8,0.1s-0.5,0.1-0.7,0.3s-0.4,0.3-0.5,0.5
				c-0.1,0.2-0.2,0.4-0.2,0.7c0,0.5,0.2,0.8,0.7,1.1c0.4,0.2,1.1,0.4,1.9,0.6c0.5,0.1,1,0.3,1.5,0.5s0.9,0.4,1.2,0.7s0.6,0.6,0.8,1
				s0.3,0.8,0.3,1.3c0,0.7-0.1,1.2-0.4,1.7c-0.3,0.5-0.6,0.8-1,1.1c-0.4,0.3-0.9,0.5-1.5,0.6s-1.1,0.2-1.7,0.2
				c-0.9,0-1.7-0.2-2.5-0.5s-1.5-0.9-2-1.5l1.6-1.4c0.3,0.5,0.7,0.8,1.3,1.1c0.5,0.3,1.1,0.5,1.8,0.5c0.3,0,0.6,0,0.8-0.1
				c0.3-0.1,0.5-0.1,0.7-0.3s0.4-0.3,0.5-0.5c0.1-0.2,0.2-0.5,0.2-0.8c0-0.5-0.2-0.9-0.8-1.2c-0.5-0.2-1.2-0.5-2.2-0.7
				c-0.4-0.1-0.8-0.2-1.2-0.4c-0.4-0.1-0.8-0.3-1.1-0.6s-0.6-0.5-0.8-0.9s-0.3-0.8-0.3-1.3c0-0.6,0.1-1.1,0.4-1.6s0.6-0.8,1-1.1
				c0.4-0.3,0.9-0.5,1.4-0.6c0.5-0.1,1-0.2,1.6-0.2c0.8,0,1.6,0.2,2.4,0.5s1.3,0.8,1.8,1.4L724.7,477z"/>
			<path d="M737.9,474.4c0.6-0.4,1.4-0.6,2.2-0.6c0.8,0,1.5,0.2,2.1,0.5s1.1,0.9,1.5,1.8c0.4-0.7,0.9-1.3,1.6-1.7s1.4-0.6,2.3-0.6
				c0.7,0,1.4,0.1,1.9,0.4s1,0.6,1.3,1s0.6,0.9,0.8,1.5c0.2,0.6,0.2,1.2,0.2,1.8v7.1h-2.3v-6.3c0-0.5,0-0.9-0.1-1.3
				s-0.2-0.8-0.4-1.1s-0.5-0.6-0.8-0.8s-0.7-0.3-1.2-0.3c-0.5,0-1,0.1-1.3,0.3c-0.4,0.2-0.7,0.5-0.9,0.8c-0.2,0.3-0.4,0.7-0.5,1.2
				s-0.2,0.9-0.2,1.3v6.1h-2.3v-6.8c0-0.5,0-0.9-0.1-1.2s-0.2-0.7-0.4-1c-0.2-0.3-0.4-0.5-0.7-0.6s-0.7-0.2-1.1-0.2
				c-0.8,0-1.5,0.3-2.1,1c-0.5,0.7-0.8,1.6-0.8,2.7v6h-2.3v-8.9c0-0.3,0-0.7,0-1.2c0-0.5,0-0.9-0.1-1.3h2.1c0,0.3,0.1,0.6,0.1,1
				s0,0.7,0,0.9h0.1C736.8,475.3,737.2,474.8,737.9,474.4z"/>
			<path d="M763.1,485.5c0-0.3-0.1-0.6-0.1-1c0-0.4,0-0.7,0-0.9h0c-0.3,0.6-0.8,1.1-1.5,1.5c-0.7,0.4-1.4,0.6-2.3,0.6
				c-0.7,0-1.4-0.1-1.9-0.4s-1-0.6-1.3-1c-0.3-0.4-0.6-0.9-0.8-1.5c-0.2-0.6-0.2-1.2-0.2-1.8v-7.1h2.3v6.3c0,0.5,0,0.9,0.1,1.3
				s0.2,0.8,0.4,1.1c0.2,0.3,0.5,0.6,0.8,0.8c0.3,0.2,0.8,0.3,1.3,0.3c0.9,0,1.7-0.3,2.2-1s0.8-1.6,0.8-2.7v-6h2.3v8.9
				c0,0.3,0,0.7,0,1.2c0,0.5,0,0.9,0.1,1.3L763.1,485.5L763.1,485.5z"/>
			<path d="M770.9,485.5h-2.3v-18.1h2.3V485.5z"/>
			<path d="M779.9,475.9h-3v5.9c0,0.7,0.1,1.2,0.4,1.5s0.7,0.4,1.2,0.4c0.2,0,0.4,0,0.7-0.1c0.2,0,0.5-0.1,0.7-0.2l0.1,1.9
				c-0.3,0.1-0.6,0.2-0.9,0.2s-0.7,0.1-1,0.1c-1.1,0-1.9-0.3-2.5-0.9c-0.6-0.6-0.8-1.5-0.8-2.7v-6.2h-2.2v-1.9h2.2v-3.3h2.2v3.3h3
				L779.9,475.9L779.9,475.9z"/>
			<path d="M784.4,470c0,0.4-0.2,0.8-0.4,1s-0.7,0.4-1.1,0.4s-0.8-0.1-1-0.4s-0.4-0.6-0.4-1c0-0.4,0.1-0.8,0.4-1s0.6-0.4,1-0.4
				s0.8,0.1,1.1,0.4C784.2,469.2,784.4,469.6,784.4,470z M784,485.5h-2.3v-11.4h2.3V485.5z"/>
			<path d="M792.2,480.6h-5.6v-1.9h5.6V480.6z"/>
			<path d="M796.9,491.2h-2.3v-17.1h2.2v1.8h0.1c0.4-0.6,0.9-1.1,1.6-1.5s1.5-0.6,2.5-0.6c0.8,0,1.6,0.1,2.3,0.5
				c0.7,0.3,1.3,0.7,1.8,1.3c0.5,0.5,0.9,1.2,1.2,1.9c0.3,0.7,0.4,1.5,0.4,2.3s-0.1,1.6-0.4,2.4c-0.3,0.7-0.7,1.4-1.2,1.9
				s-1.1,1-1.8,1.3c-0.7,0.3-1.5,0.5-2.4,0.5c-0.8,0-1.6-0.2-2.3-0.5s-1.3-0.9-1.7-1.5h-0.1L796.9,491.2L796.9,491.2z M804.4,479.7
				c0-0.5-0.1-1-0.2-1.5s-0.4-0.9-0.7-1.3c-0.3-0.4-0.7-0.7-1.2-0.9c-0.5-0.2-1-0.3-1.6-0.3c-0.6,0-1.1,0.1-1.6,0.3
				c-0.5,0.2-0.9,0.5-1.2,0.9s-0.6,0.8-0.8,1.3c-0.2,0.5-0.3,1-0.3,1.6s0.1,1.1,0.3,1.6c0.2,0.5,0.4,0.9,0.8,1.3s0.7,0.7,1.2,0.9
				c0.5,0.2,1,0.3,1.6,0.3c0.6,0,1.2-0.1,1.6-0.4c0.5-0.2,0.9-0.5,1.2-0.9s0.6-0.8,0.7-1.3C804.3,480.8,804.4,480.3,804.4,479.7z"/>
			<path d="M817.4,485.5c0-0.3-0.1-0.6-0.1-1c0-0.4,0-0.7,0-0.9h0c-0.3,0.6-0.8,1.1-1.5,1.5c-0.7,0.4-1.4,0.6-2.3,0.6
				c-0.7,0-1.4-0.1-1.9-0.4s-1-0.6-1.3-1c-0.3-0.4-0.6-0.9-0.8-1.5c-0.2-0.6-0.2-1.2-0.2-1.8v-7.1h2.3v6.3c0,0.5,0,0.9,0.1,1.3
				s0.2,0.8,0.4,1.1c0.2,0.3,0.5,0.6,0.8,0.8c0.3,0.2,0.8,0.3,1.3,0.3c0.9,0,1.7-0.3,2.2-1s0.8-1.6,0.8-2.7v-6h2.3v8.9
				c0,0.3,0,0.7,0,1.2c0,0.5,0,0.9,0.1,1.3L817.4,485.5L817.4,485.5z"/>
			<path d="M822.9,475.4c0-0.5,0-0.9-0.1-1.3h2.1c0,0.3,0.1,0.6,0.1,1s0,0.7,0,0.9h0.1c0.3-0.7,0.8-1.2,1.4-1.6s1.3-0.6,2.1-0.6
				c0.3,0,0.7,0,0.9,0.1l-0.1,2.1c-0.3-0.1-0.7-0.1-1-0.1c-0.5,0-1,0.1-1.4,0.3c-0.4,0.2-0.7,0.5-1,0.8c-0.3,0.3-0.5,0.7-0.6,1.2
				s-0.2,0.9-0.2,1.4v6h-2.3v-8.9C822.9,476.2,822.9,475.8,822.9,475.4z"/>
			<path d="M833.4,491.2h-2.3v-17.1h2.2v1.8h0.1c0.4-0.6,0.9-1.1,1.6-1.5s1.5-0.6,2.5-0.6c0.8,0,1.6,0.1,2.3,0.5
				c0.7,0.3,1.3,0.7,1.8,1.3c0.5,0.5,0.9,1.2,1.2,1.9c0.3,0.7,0.4,1.5,0.4,2.3s-0.1,1.6-0.4,2.4c-0.3,0.7-0.7,1.4-1.2,1.9
				s-1.1,1-1.8,1.3c-0.7,0.3-1.5,0.5-2.4,0.5c-0.8,0-1.6-0.2-2.3-0.5s-1.3-0.9-1.7-1.5h-0.1L833.4,491.2L833.4,491.2z M840.9,479.7
				c0-0.5-0.1-1-0.2-1.5s-0.4-0.9-0.7-1.3c-0.3-0.4-0.7-0.7-1.2-0.9c-0.5-0.2-1-0.3-1.6-0.3c-0.6,0-1.1,0.1-1.6,0.3
				c-0.5,0.2-0.9,0.5-1.2,0.9s-0.6,0.8-0.8,1.3c-0.2,0.5-0.3,1-0.3,1.6s0.1,1.1,0.3,1.6c0.2,0.5,0.4,0.9,0.8,1.3s0.7,0.7,1.2,0.9
				c0.5,0.2,1,0.3,1.6,0.3c0.6,0,1.2-0.1,1.6-0.4c0.5-0.2,0.9-0.5,1.2-0.9s0.6-0.8,0.7-1.3C840.8,480.8,840.9,480.3,840.9,479.7z"/>
			<path d="M857.4,479.7c0,0.9-0.2,1.7-0.5,2.4c-0.3,0.7-0.7,1.4-1.3,1.9s-1.2,1-2,1.2s-1.6,0.4-2.4,0.4s-1.7-0.1-2.4-0.4
				c-0.8-0.3-1.4-0.7-1.9-1.2s-1-1.2-1.3-1.9c-0.3-0.7-0.5-1.5-0.5-2.4s0.2-1.7,0.5-2.4s0.7-1.4,1.3-1.9c0.5-0.5,1.2-0.9,1.9-1.2
				s1.6-0.4,2.4-0.4s1.7,0.1,2.4,0.4s1.4,0.7,2,1.2c0.5,0.5,1,1.2,1.3,1.9C857.2,478.1,857.4,478.9,857.4,479.7z M855,479.8
				c0-0.5-0.1-1.1-0.2-1.6c-0.2-0.5-0.4-0.9-0.7-1.3s-0.7-0.7-1.2-0.9c-0.5-0.2-1-0.3-1.6-0.3s-1.2,0.1-1.6,0.3s-0.9,0.5-1.2,0.9
				s-0.6,0.8-0.7,1.3c-0.2,0.5-0.2,1-0.2,1.6c0,0.5,0.1,1.1,0.2,1.6c0.2,0.5,0.4,0.9,0.7,1.3c0.3,0.4,0.7,0.7,1.2,0.9s1,0.3,1.6,0.3
				c0.6,0,1.2-0.1,1.6-0.3c0.5-0.2,0.9-0.5,1.2-0.9s0.6-0.8,0.7-1.3C854.9,480.8,855,480.3,855,479.8z"/>
			<path d="M866.2,477c-0.3-0.4-0.6-0.8-1.1-1c-0.5-0.3-1-0.4-1.6-0.4c-0.3,0-0.5,0-0.8,0.1s-0.5,0.1-0.7,0.3s-0.4,0.3-0.5,0.5
				c-0.1,0.2-0.2,0.4-0.2,0.7c0,0.5,0.2,0.8,0.7,1.1c0.4,0.2,1.1,0.4,1.9,0.6c0.5,0.1,1,0.3,1.5,0.5s0.9,0.4,1.2,0.7s0.6,0.6,0.8,1
				s0.3,0.8,0.3,1.3c0,0.7-0.1,1.2-0.4,1.7c-0.3,0.5-0.6,0.8-1,1.1c-0.4,0.3-0.9,0.5-1.5,0.6s-1.1,0.2-1.7,0.2
				c-0.9,0-1.7-0.2-2.5-0.5s-1.5-0.9-2-1.5l1.6-1.4c0.3,0.5,0.7,0.8,1.3,1.1c0.5,0.3,1.1,0.5,1.8,0.5c0.3,0,0.6,0,0.8-0.1
				c0.3-0.1,0.5-0.1,0.7-0.3s0.4-0.3,0.5-0.5c0.1-0.2,0.2-0.5,0.2-0.8c0-0.5-0.2-0.9-0.8-1.2c-0.5-0.2-1.2-0.5-2.2-0.7
				c-0.4-0.1-0.8-0.2-1.2-0.4c-0.4-0.1-0.8-0.3-1.1-0.6s-0.6-0.5-0.8-0.9s-0.3-0.8-0.3-1.3c0-0.6,0.1-1.1,0.4-1.6s0.6-0.8,1-1.1
				c0.4-0.3,0.9-0.5,1.4-0.6c0.5-0.1,1-0.2,1.6-0.2c0.8,0,1.6,0.2,2.4,0.5s1.3,0.8,1.8,1.4L866.2,477z"/>
			<path d="M880.8,479.7c0,0.1,0,0.3,0,0.4s0,0.3,0,0.4h-9c0,0.5,0.1,0.9,0.3,1.4s0.5,0.8,0.8,1.1s0.7,0.5,1.2,0.7s0.9,0.3,1.4,0.3
				c0.8,0,1.4-0.2,2-0.5c0.6-0.3,1-0.7,1.3-1.2l1.6,1.3c-0.6,0.8-1.3,1.4-2.2,1.8c-0.8,0.4-1.7,0.6-2.8,0.6c-0.9,0-1.7-0.1-2.4-0.4
				s-1.4-0.7-1.9-1.2s-0.9-1.1-1.2-1.9c-0.3-0.7-0.5-1.5-0.5-2.5c0-0.9,0.2-1.7,0.4-2.4s0.7-1.4,1.2-1.9c0.5-0.5,1.2-0.9,1.9-1.2
				s1.5-0.4,2.3-0.4s1.6,0.1,2.3,0.4s1.3,0.7,1.7,1.2c0.5,0.5,0.8,1.1,1.1,1.9C880.7,477.9,880.8,478.8,880.8,479.7z M878.5,478.8
				c0-0.5-0.1-0.9-0.2-1.3s-0.3-0.7-0.6-1c-0.3-0.3-0.6-0.5-1-0.7c-0.4-0.2-0.8-0.2-1.4-0.2c-0.5,0-0.9,0.1-1.4,0.2
				s-0.8,0.4-1.1,0.7c-0.3,0.3-0.6,0.6-0.8,1s-0.3,0.8-0.3,1.3H878.5z"/>
			<path d="M884.2,488.6h-1.9l1.7-6h2.3L884.2,488.6z"/>
			<path d="M395.2,517.7c0,0.1,0,0.3,0,0.4s0,0.3,0,0.4h-9c0,0.5,0.1,0.9,0.3,1.3s0.5,0.8,0.8,1.1s0.7,0.5,1.2,0.7s0.9,0.3,1.4,0.3
				c0.8,0,1.4-0.2,2-0.5s1-0.7,1.3-1.2l1.6,1.3c-0.6,0.8-1.3,1.4-2.1,1.8c-0.8,0.4-1.7,0.6-2.8,0.6c-0.9,0-1.7-0.1-2.4-0.4
				s-1.4-0.7-1.9-1.2s-0.9-1.2-1.2-1.9c-0.3-0.7-0.5-1.5-0.5-2.5c0-0.9,0.1-1.7,0.4-2.4c0.3-0.7,0.7-1.4,1.2-1.9
				c0.5-0.5,1.1-0.9,1.9-1.2c0.7-0.3,1.5-0.4,2.3-0.4s1.6,0.1,2.3,0.4c0.7,0.3,1.3,0.7,1.7,1.2c0.5,0.5,0.8,1.1,1.1,1.9
				C395,515.9,395.2,516.8,395.2,517.7z M392.9,516.8c0-0.5-0.1-0.9-0.2-1.3s-0.3-0.7-0.6-1c-0.3-0.3-0.6-0.5-1-0.7
				s-0.9-0.2-1.4-0.2c-0.5,0-0.9,0.1-1.4,0.2c-0.4,0.2-0.8,0.4-1.1,0.7s-0.6,0.6-0.8,1c-0.2,0.4-0.3,0.8-0.4,1.3H392.9z"/>
			<path d="M405.8,515c-0.2-0.4-0.6-0.7-1.1-0.9s-1-0.4-1.5-0.4c-0.6,0-1.1,0.1-1.6,0.3s-0.8,0.5-1.2,0.9s-0.6,0.8-0.7,1.3
				s-0.2,1-0.2,1.6s0.1,1.1,0.2,1.6s0.4,0.9,0.7,1.3s0.7,0.7,1.2,0.9c0.5,0.2,1,0.3,1.6,0.3c0.6,0,1.1-0.1,1.6-0.3
				c0.5-0.2,0.9-0.5,1.2-0.9l1.5,1.4c-0.5,0.6-1.1,1-1.8,1.3s-1.5,0.5-2.5,0.5c-0.9,0-1.7-0.1-2.4-0.4c-0.7-0.3-1.4-0.7-1.9-1.2
				c-0.5-0.5-1-1.2-1.3-1.9c-0.3-0.7-0.5-1.6-0.5-2.5c0-0.9,0.1-1.7,0.5-2.5c0.3-0.7,0.7-1.4,1.3-1.9c0.5-0.5,1.2-0.9,1.9-1.2
				c0.7-0.3,1.5-0.4,2.4-0.4c0.8,0,1.6,0.2,2.4,0.5c0.8,0.3,1.4,0.8,1.9,1.4L405.8,515z"/>
			<path d="M420.7,517.7c0,0.9-0.2,1.7-0.5,2.4s-0.7,1.4-1.3,1.9c-0.5,0.5-1.2,1-2,1.2c-0.8,0.3-1.6,0.4-2.4,0.4
				c-0.9,0-1.7-0.2-2.4-0.4c-0.8-0.3-1.4-0.7-1.9-1.2s-1-1.2-1.3-1.9s-0.5-1.5-0.5-2.4s0.2-1.7,0.5-2.4s0.7-1.4,1.3-1.9
				c0.5-0.5,1.2-0.9,1.9-1.2s1.6-0.4,2.4-0.4c0.9,0,1.7,0.1,2.4,0.4c0.8,0.3,1.4,0.7,2,1.2c0.5,0.5,1,1.2,1.3,1.9
				S420.7,516.9,420.7,517.7z M418.3,517.8c0-0.5-0.1-1.1-0.2-1.6c-0.2-0.5-0.4-0.9-0.7-1.3s-0.7-0.7-1.2-0.9s-1-0.3-1.6-0.3
				c-0.6,0-1.1,0.1-1.6,0.3c-0.5,0.2-0.9,0.5-1.2,0.9s-0.6,0.8-0.7,1.3c-0.2,0.5-0.2,1-0.2,1.6c0,0.5,0.1,1.1,0.2,1.6
				c0.2,0.5,0.4,0.9,0.7,1.3c0.3,0.4,0.7,0.7,1.2,0.9s1,0.3,1.6,0.3c0.6,0,1.1-0.1,1.6-0.3s0.9-0.5,1.2-0.9s0.6-0.8,0.7-1.3
				C418.3,518.8,418.3,518.3,418.3,517.8z"/>
			<path d="M428,518.6h-5.6v-1.9h5.6V518.6z"/>
			<path d="M435.9,513.9h-2.6v9.5H431v-9.5h-2.3v-1.8h2.3v-2.4c0-0.7,0.1-1.3,0.2-1.9c0.1-0.6,0.4-1.1,0.7-1.5s0.8-0.7,1.3-1
				s1.2-0.4,2-0.4c0.5,0,1,0.1,1.4,0.2l-0.3,1.9c-0.2,0-0.4-0.1-0.5-0.1s-0.4,0-0.6,0c-0.4,0-0.8,0.1-1,0.2
				c-0.3,0.1-0.5,0.4-0.6,0.6s-0.2,0.5-0.3,0.9c0,0.3-0.1,0.7-0.1,1v2.4h2.6L435.9,513.9L435.9,513.9z"/>
			<path d="M437.5,513.3c0-0.5,0-0.9-0.1-1.3h2.1c0,0.3,0.1,0.6,0.1,1c0,0.4,0,0.7,0,0.9h0.1c0.3-0.7,0.8-1.2,1.4-1.6
				c0.6-0.4,1.3-0.6,2.1-0.6c0.4,0,0.6,0,0.9,0.1L444,514c-0.3-0.1-0.7-0.1-1-0.1c-0.5,0-1,0.1-1.4,0.3c-0.4,0.2-0.7,0.5-1,0.8
				s-0.5,0.7-0.6,1.2s-0.2,0.9-0.2,1.4v6h-2.3v-8.9C437.5,514.2,437.5,513.8,437.5,513.3z"/>
			<path d="M448.3,508c0,0.4-0.1,0.8-0.4,1s-0.6,0.4-1.1,0.4s-0.8-0.1-1-0.4s-0.4-0.6-0.4-1c0-0.4,0.1-0.8,0.4-1
				c0.3-0.3,0.6-0.4,1-0.4s0.8,0.1,1.1,0.4C448.2,507.2,448.3,507.6,448.3,508z M448,523.5h-2.3v-11.4h2.3V523.5z"/>
			<path d="M462.1,517.7c0,0.1,0,0.3,0,0.4s0,0.3,0,0.4H453c0,0.5,0.1,0.9,0.3,1.3s0.5,0.8,0.8,1.1s0.7,0.5,1.2,0.7s0.9,0.3,1.4,0.3
				c0.8,0,1.4-0.2,2-0.5s1-0.7,1.3-1.2l1.6,1.3c-0.6,0.8-1.3,1.4-2.1,1.8c-0.8,0.4-1.7,0.6-2.8,0.6c-0.9,0-1.7-0.1-2.4-0.4
				s-1.4-0.7-1.9-1.2s-0.9-1.2-1.2-1.9c-0.3-0.7-0.5-1.5-0.5-2.5c0-0.9,0.1-1.7,0.4-2.4c0.3-0.7,0.7-1.4,1.2-1.9
				c0.5-0.5,1.1-0.9,1.9-1.2c0.7-0.3,1.5-0.4,2.3-0.4s1.6,0.1,2.3,0.4c0.7,0.3,1.3,0.7,1.7,1.2c0.5,0.5,0.8,1.1,1.1,1.9
				C461.9,515.9,462.1,516.8,462.1,517.7z M459.8,516.8c0-0.5-0.1-0.9-0.2-1.3s-0.3-0.7-0.6-1c-0.3-0.3-0.6-0.5-1-0.7
				s-0.9-0.2-1.4-0.2c-0.5,0-0.9,0.1-1.4,0.2c-0.4,0.2-0.8,0.4-1.1,0.7s-0.6,0.6-0.8,1c-0.2,0.4-0.3,0.8-0.4,1.3H459.8z"/>
			<path d="M466.8,512.1c0,0.3,0.1,0.6,0.1,1c0,0.4,0,0.7,0,0.9h0.1c0.1-0.3,0.3-0.6,0.6-0.8c0.2-0.3,0.5-0.5,0.9-0.7
				s0.7-0.4,1.1-0.5c0.4-0.1,0.8-0.2,1.2-0.2c0.7,0,1.4,0.1,1.9,0.4s1,0.6,1.3,1s0.6,0.9,0.8,1.5s0.2,1.2,0.2,1.8v7.1h-2.3v-6.3
				c0-0.5,0-0.9-0.1-1.3c-0.1-0.4-0.2-0.8-0.4-1.1c-0.2-0.3-0.5-0.6-0.8-0.8c-0.3-0.2-0.8-0.3-1.3-0.3c-0.9,0-1.6,0.3-2.2,1
				s-0.9,1.6-0.9,2.7v6h-2.3v-8.9c0-0.3,0-0.7,0-1.2c0-0.5,0-0.9-0.1-1.3L466.8,512.1L466.8,512.1z"/>
			<path d="M487.3,521.7c-0.4,0.7-1,1.2-1.8,1.6c-0.7,0.4-1.5,0.5-2.3,0.5c-0.9,0-1.7-0.2-2.4-0.5c-0.7-0.3-1.3-0.7-1.8-1.3
				s-0.9-1.2-1.1-1.9s-0.4-1.5-0.4-2.3s0.1-1.6,0.4-2.3c0.3-0.7,0.7-1.4,1.2-1.9s1.1-1,1.8-1.3c0.7-0.3,1.5-0.5,2.3-0.5
				c0.9,0,1.7,0.2,2.4,0.6c0.7,0.4,1.2,0.9,1.6,1.4h0v-8.5h2.3v18.1h-2.2L487.3,521.7L487.3,521.7z M479.8,517.8
				c0,0.5,0.1,1,0.2,1.5c0.2,0.5,0.4,0.9,0.7,1.3c0.3,0.4,0.7,0.7,1.2,0.9c0.5,0.2,1,0.3,1.6,0.3c0.6,0,1.1-0.1,1.6-0.3
				c0.5-0.2,0.9-0.5,1.2-0.9s0.6-0.8,0.8-1.3s0.3-1,0.3-1.5s-0.1-1.1-0.3-1.6s-0.4-0.9-0.8-1.3s-0.7-0.7-1.2-0.9s-1-0.3-1.6-0.3
				c-0.6,0-1.2,0.1-1.6,0.3c-0.5,0.2-0.9,0.5-1.2,0.9c-0.3,0.4-0.6,0.8-0.7,1.3C479.9,516.7,479.8,517.2,479.8,517.8z"/>
			<path d="M495.3,523.5H493v-18.1h2.3V523.5z"/>
			<path d="M503,521L503,521l3.2-8.9h2.4l-5.5,14.1c-0.2,0.5-0.4,0.9-0.6,1.3s-0.5,0.7-0.8,1c-0.3,0.3-0.7,0.5-1.1,0.6
				s-0.9,0.2-1.5,0.2c-0.2,0-0.5,0-0.7,0c-0.2,0-0.5-0.1-0.8-0.1l0.2-2c0.4,0.1,0.8,0.2,1.1,0.2c0.6,0,1-0.2,1.3-0.5
				s0.5-0.8,0.8-1.4l0.7-1.9l-4.9-11.4h2.5L503,521z"/>
			<path d="M521.2,513.9h-2.6v9.5h-2.3v-9.5H514v-1.8h2.3v-2.4c0-0.7,0.1-1.3,0.2-1.9c0.2-0.6,0.4-1.1,0.7-1.5
				c0.3-0.4,0.8-0.7,1.3-1c0.5-0.2,1.2-0.4,2-0.4c0.5,0,1,0.1,1.4,0.2l-0.3,1.9c-0.2,0-0.3-0.1-0.5-0.1c-0.2,0-0.4,0-0.6,0
				c-0.4,0-0.8,0.1-1,0.2c-0.3,0.1-0.5,0.4-0.6,0.6c-0.1,0.3-0.2,0.5-0.3,0.9c0,0.3-0.1,0.7-0.1,1v2.4h2.6L521.2,513.9L521.2,513.9z
				"/>
			<path d="M534.3,517.7c0,0.9-0.2,1.7-0.5,2.4c-0.3,0.7-0.7,1.4-1.3,1.9s-1.2,1-2,1.2s-1.6,0.4-2.4,0.4s-1.7-0.2-2.4-0.4
				c-0.8-0.3-1.4-0.7-1.9-1.2s-1-1.2-1.3-1.9c-0.3-0.7-0.5-1.5-0.5-2.4s0.2-1.7,0.5-2.4s0.7-1.4,1.3-1.9c0.5-0.5,1.2-0.9,1.9-1.2
				s1.6-0.4,2.4-0.4s1.7,0.1,2.4,0.4c0.8,0.3,1.4,0.7,2,1.2c0.5,0.5,1,1.2,1.3,1.9C534.2,516.1,534.3,516.9,534.3,517.7z M532,517.8
				c0-0.5-0.1-1.1-0.2-1.6c-0.2-0.5-0.4-0.9-0.7-1.3s-0.7-0.7-1.2-0.9c-0.5-0.2-1-0.3-1.6-0.3s-1.2,0.1-1.6,0.3s-0.9,0.5-1.2,0.9
				s-0.6,0.8-0.7,1.3c-0.2,0.5-0.2,1-0.2,1.6c0,0.5,0.1,1.1,0.2,1.6c0.2,0.5,0.4,0.9,0.7,1.3c0.3,0.4,0.7,0.7,1.2,0.9s1,0.3,1.6,0.3
				c0.6,0,1.2-0.1,1.6-0.3c0.5-0.2,0.9-0.5,1.2-0.9s0.6-0.8,0.7-1.3C531.9,518.8,532,518.3,532,517.8z"/>
			<path d="M537,513.3c0-0.5,0-0.9-0.1-1.3h2.1c0,0.3,0.1,0.6,0.1,1s0,0.7,0,0.9h0.1c0.3-0.7,0.8-1.2,1.4-1.6s1.3-0.6,2.1-0.6
				c0.3,0,0.7,0,0.9,0.1l-0.1,2.1c-0.3-0.1-0.7-0.1-1-0.1c-0.5,0-1,0.1-1.4,0.3c-0.4,0.2-0.7,0.5-1,0.8c-0.3,0.3-0.5,0.7-0.6,1.2
				s-0.2,0.9-0.2,1.4v6H537v-8.9C537,514.2,537,513.8,537,513.3z"/>
			<path d="M548.8,512.4c0.6-0.4,1.4-0.6,2.2-0.6c0.8,0,1.5,0.2,2.1,0.5c0.6,0.3,1.1,0.9,1.5,1.8c0.4-0.7,0.9-1.3,1.6-1.7
				s1.4-0.6,2.3-0.6c0.7,0,1.4,0.1,1.9,0.4c0.5,0.2,1,0.6,1.3,1s0.6,0.9,0.8,1.5c0.2,0.6,0.2,1.2,0.2,1.8v7.1h-2.3v-6.3
				c0-0.5,0-0.9-0.1-1.3s-0.2-0.8-0.4-1.1c-0.2-0.3-0.5-0.6-0.8-0.8s-0.7-0.3-1.2-0.3c-0.5,0-1,0.1-1.3,0.3
				c-0.4,0.2-0.7,0.5-0.9,0.8c-0.2,0.3-0.4,0.7-0.5,1.2s-0.2,0.9-0.2,1.3v6.1h-2.3v-6.8c0-0.5,0-0.9-0.1-1.2s-0.2-0.7-0.4-1
				c-0.2-0.3-0.4-0.5-0.7-0.6s-0.7-0.2-1.1-0.2c-0.8,0-1.5,0.3-2.1,1c-0.5,0.7-0.8,1.6-0.8,2.7v6h-2.3v-8.9c0-0.3,0-0.7,0-1.2
				c0-0.5,0-0.9-0.1-1.3h2.1c0,0.3,0.1,0.6,0.1,1s0,0.7,0,0.9h0.1C547.7,513.3,548.1,512.8,548.8,512.4z"/>
			<path d="M574,523.5c0-0.3-0.1-0.6-0.1-1c0-0.4,0-0.7,0-0.9h0c-0.3,0.6-0.8,1.1-1.5,1.5c-0.7,0.4-1.4,0.6-2.3,0.6
				c-0.7,0-1.4-0.1-1.9-0.4s-1-0.6-1.3-1c-0.3-0.4-0.6-0.9-0.8-1.5c-0.2-0.6-0.2-1.2-0.2-1.8v-7.1h2.3v6.3c0,0.5,0,0.9,0.1,1.3
				s0.2,0.8,0.4,1.1c0.2,0.3,0.5,0.6,0.8,0.8c0.3,0.2,0.8,0.3,1.3,0.3c0.9,0,1.7-0.3,2.2-1s0.8-1.6,0.8-2.7v-6h2.3v8.9
				c0,0.3,0,0.7,0,1.2c0,0.5,0,0.9,0.1,1.3L574,523.5L574,523.5z"/>
			<path d="M581.8,523.5h-2.3v-18.1h2.3V523.5z"/>
			<path d="M592.3,516.1c0-0.8-0.3-1.5-0.8-1.9c-0.5-0.4-1.2-0.6-2-0.6c-0.6,0-1.2,0.1-1.8,0.4s-1,0.6-1.4,1l-1.2-1.4
				c0.6-0.5,1.2-0.9,2-1.2c0.8-0.3,1.7-0.5,2.6-0.5c0.8,0,1.5,0.1,2.1,0.4c0.6,0.2,1.1,0.5,1.5,1c0.4,0.4,0.7,0.9,0.9,1.4
				c0.2,0.5,0.3,1.1,0.3,1.8v5c0,0.4,0,0.8,0,1.2c0,0.4,0.1,0.8,0.1,1h-2c-0.1-0.5-0.2-1.1-0.2-1.6h-0.1c-0.4,0.6-0.9,1.1-1.6,1.4
				s-1.4,0.5-2.2,0.5c-0.5,0-0.9-0.1-1.4-0.2c-0.5-0.1-0.9-0.3-1.3-0.6s-0.7-0.6-1-1.1c-0.3-0.5-0.4-1-0.4-1.7c0-0.9,0.2-1.5,0.7-2
				s1.1-0.9,1.8-1.2s1.6-0.4,2.5-0.5s1.9-0.1,2.9-0.1L592.3,516.1L592.3,516.1z M591.8,518c-0.6,0-1.1,0-1.7,0.1s-1.1,0.1-1.6,0.3
				c-0.5,0.1-0.9,0.4-1.2,0.7s-0.5,0.7-0.5,1.2c0,0.3,0.1,0.6,0.2,0.8c0.1,0.2,0.3,0.4,0.5,0.5s0.5,0.2,0.7,0.3s0.5,0.1,0.8,0.1
				c1.1,0,1.9-0.3,2.4-1s0.8-1.4,0.8-2.4V518L591.8,518L591.8,518z"/>
			<path d="M605.5,529.2h-2.3v-17.1h2.2v1.8h0.1c0.4-0.6,0.9-1.1,1.6-1.5s1.5-0.6,2.5-0.6c0.8,0,1.6,0.1,2.3,0.5
				c0.7,0.3,1.3,0.7,1.8,1.3c0.5,0.5,0.9,1.2,1.2,1.9c0.3,0.7,0.4,1.5,0.4,2.3s-0.1,1.6-0.4,2.3c-0.3,0.7-0.7,1.4-1.2,1.9
				s-1.1,1-1.8,1.3c-0.7,0.3-1.5,0.5-2.4,0.5c-0.8,0-1.6-0.2-2.3-0.5c-0.7-0.3-1.3-0.8-1.7-1.5h-0.1L605.5,529.2L605.5,529.2z
				 M613,517.7c0-0.5-0.1-1-0.2-1.5s-0.4-0.9-0.7-1.3c-0.3-0.4-0.7-0.7-1.2-0.9c-0.5-0.2-1-0.3-1.6-0.3c-0.6,0-1.1,0.1-1.6,0.3
				c-0.5,0.2-0.9,0.5-1.2,0.9s-0.6,0.8-0.8,1.3c-0.2,0.5-0.3,1-0.3,1.6s0.1,1.1,0.3,1.6c0.2,0.5,0.4,0.9,0.8,1.3s0.7,0.7,1.2,0.9
				c0.5,0.2,1,0.3,1.6,0.3c0.6,0,1.2-0.1,1.6-0.3c0.5-0.2,0.9-0.5,1.2-0.9s0.6-0.8,0.7-1.3C613,518.8,613,518.3,613,517.7z"/>
			<path d="M629.5,517.7c0,0.9-0.2,1.7-0.5,2.4c-0.3,0.7-0.7,1.4-1.3,1.9s-1.2,1-2,1.2s-1.6,0.4-2.4,0.4s-1.7-0.2-2.4-0.4
				c-0.8-0.3-1.4-0.7-1.9-1.2s-1-1.2-1.3-1.9c-0.3-0.7-0.5-1.5-0.5-2.4s0.2-1.7,0.5-2.4s0.7-1.4,1.3-1.9c0.5-0.5,1.2-0.9,1.9-1.2
				s1.6-0.4,2.4-0.4s1.7,0.1,2.4,0.4c0.8,0.3,1.4,0.7,2,1.2c0.5,0.5,1,1.2,1.3,1.9C629.4,516.1,629.5,516.9,629.5,517.7z
				 M627.2,517.8c0-0.5-0.1-1.1-0.2-1.6c-0.2-0.5-0.4-0.9-0.7-1.3s-0.7-0.7-1.2-0.9c-0.5-0.2-1-0.3-1.6-0.3s-1.2,0.1-1.6,0.3
				s-0.9,0.5-1.2,0.9s-0.6,0.8-0.7,1.3c-0.2,0.5-0.2,1-0.2,1.6c0,0.5,0.1,1.1,0.2,1.6c0.2,0.5,0.4,0.9,0.7,1.3
				c0.3,0.4,0.7,0.7,1.2,0.9s1,0.3,1.6,0.3c0.6,0,1.2-0.1,1.6-0.3c0.5-0.2,0.9-0.5,1.2-0.9s0.6-0.8,0.7-1.3
				C627.1,518.8,627.2,518.3,627.2,517.8z"/>
			<path d="M633,512.1l2.6,8.7h0l2.7-8.7h2.4l2.8,8.7h0l2.6-8.7h2.4l-3.8,11.4h-2.3l-2.8-8.5h0l-2.8,8.5h-2.3l-3.8-11.4H633z"/>
			<path d="M660.9,517.7c0,0.1,0,0.3,0,0.4s0,0.3,0,0.4h-9c0,0.5,0.1,0.9,0.3,1.3s0.5,0.8,0.8,1.1s0.7,0.5,1.2,0.7s0.9,0.3,1.4,0.3
				c0.8,0,1.4-0.2,2-0.5c0.6-0.3,1-0.7,1.3-1.2l1.6,1.3c-0.6,0.8-1.3,1.4-2.2,1.8c-0.8,0.4-1.7,0.6-2.8,0.6c-0.9,0-1.7-0.1-2.4-0.4
				s-1.4-0.7-1.9-1.2s-0.9-1.2-1.2-1.9c-0.3-0.7-0.5-1.5-0.5-2.5c0-0.9,0.2-1.7,0.4-2.4s0.7-1.4,1.2-1.9c0.5-0.5,1.2-0.9,1.9-1.2
				s1.5-0.4,2.3-0.4s1.6,0.1,2.3,0.4c0.7,0.3,1.3,0.7,1.7,1.2c0.5,0.5,0.8,1.1,1.1,1.9C660.8,515.9,660.9,516.8,660.9,517.7z
				 M658.6,516.8c0-0.5-0.1-0.9-0.2-1.3s-0.3-0.7-0.6-1c-0.3-0.3-0.6-0.5-1-0.7c-0.4-0.2-0.8-0.2-1.4-0.2c-0.5,0-0.9,0.1-1.4,0.2
				s-0.8,0.4-1.1,0.7c-0.3,0.3-0.6,0.6-0.8,1s-0.3,0.8-0.3,1.3H658.6z"/>
			<path d="M663.5,513.3c0-0.5,0-0.9-0.1-1.3h2.1c0,0.3,0.1,0.6,0.1,1s0,0.7,0,0.9h0.1c0.3-0.7,0.8-1.2,1.4-1.6s1.3-0.6,2.1-0.6
				c0.3,0,0.7,0,0.9,0.1L670,514c-0.3-0.1-0.7-0.1-1-0.1c-0.5,0-1,0.1-1.4,0.3c-0.4,0.2-0.7,0.5-1,0.8c-0.3,0.3-0.5,0.7-0.6,1.2
				s-0.2,0.9-0.2,1.4v6h-2.3v-8.9C663.5,514.2,663.5,513.8,663.5,513.3z"/>
			<path d="M681.9,517.7c0,0.1,0,0.3,0,0.4s0,0.3,0,0.4h-9c0,0.5,0.1,0.9,0.3,1.3s0.5,0.8,0.8,1.1s0.7,0.5,1.2,0.7s0.9,0.3,1.4,0.3
				c0.8,0,1.4-0.2,2-0.5c0.6-0.3,1-0.7,1.3-1.2l1.6,1.3c-0.6,0.8-1.3,1.4-2.2,1.8c-0.8,0.4-1.7,0.6-2.8,0.6c-0.9,0-1.7-0.1-2.4-0.4
				s-1.4-0.7-1.9-1.2s-0.9-1.2-1.2-1.9c-0.3-0.7-0.5-1.5-0.5-2.5c0-0.9,0.2-1.7,0.4-2.4s0.7-1.4,1.2-1.9c0.5-0.5,1.2-0.9,1.9-1.2
				s1.5-0.4,2.3-0.4s1.6,0.1,2.3,0.4c0.7,0.3,1.3,0.7,1.7,1.2c0.5,0.5,0.8,1.1,1.1,1.9C681.8,515.9,681.9,516.8,681.9,517.7z
				 M679.6,516.8c0-0.5-0.1-0.9-0.2-1.3s-0.3-0.7-0.6-1c-0.3-0.3-0.6-0.5-1-0.7c-0.4-0.2-0.8-0.2-1.4-0.2c-0.5,0-0.9,0.1-1.4,0.2
				s-0.8,0.4-1.1,0.7c-0.3,0.3-0.6,0.6-0.8,1s-0.3,0.8-0.3,1.3H679.6z"/>
			<path d="M693.7,521.7c-0.4,0.7-1,1.2-1.8,1.6s-1.5,0.5-2.3,0.5c-0.9,0-1.7-0.2-2.4-0.5s-1.3-0.7-1.8-1.3
				c-0.5-0.5-0.9-1.2-1.2-1.9s-0.4-1.5-0.4-2.3s0.1-1.6,0.4-2.3c0.3-0.7,0.7-1.4,1.2-1.9s1.1-1,1.8-1.3c0.7-0.3,1.5-0.5,2.3-0.5
				c0.9,0,1.7,0.2,2.4,0.6c0.7,0.4,1.2,0.9,1.6,1.4h0v-8.5h2.3v18.1h-2.2L693.7,521.7L693.7,521.7z M686.2,517.8
				c0,0.5,0.1,1,0.2,1.5c0.2,0.5,0.4,0.9,0.7,1.3c0.3,0.4,0.7,0.7,1.2,0.9c0.5,0.2,1,0.3,1.6,0.3c0.6,0,1.1-0.1,1.6-0.3
				c0.5-0.2,0.9-0.5,1.2-0.9s0.6-0.8,0.8-1.3c0.2-0.5,0.3-1,0.3-1.5s-0.1-1.1-0.3-1.6c-0.2-0.5-0.4-0.9-0.8-1.3s-0.7-0.7-1.2-0.9
				c-0.5-0.2-1-0.3-1.6-0.3c-0.6,0-1.2,0.1-1.6,0.3s-0.9,0.5-1.2,0.9c-0.3,0.4-0.6,0.8-0.7,1.3S686.2,517.2,686.2,517.8z"/>
			<path d="M707.1,521.7v1.8h-2.2v-18.1h2.3v8.5h0.1c0.4-0.6,0.9-1,1.6-1.4c0.7-0.4,1.5-0.6,2.4-0.6c0.8,0,1.6,0.1,2.3,0.5
				c0.7,0.3,1.3,0.7,1.8,1.3s0.9,1.2,1.2,1.9c0.3,0.7,0.4,1.5,0.4,2.3s-0.1,1.6-0.4,2.3c-0.3,0.7-0.7,1.4-1.2,1.9s-1.1,1-1.8,1.3
				s-1.5,0.5-2.4,0.5c-0.8,0-1.6-0.2-2.3-0.5S707.6,522.3,707.1,521.7L707.1,521.7L707.1,521.7z M714.7,517.8c0-0.5-0.1-1-0.2-1.5
				c-0.2-0.5-0.4-0.9-0.7-1.3c-0.3-0.4-0.7-0.7-1.2-0.9s-1-0.3-1.6-0.3c-0.6,0-1.1,0.1-1.6,0.3c-0.5,0.2-0.9,0.5-1.2,0.9
				s-0.6,0.8-0.8,1.3s-0.3,1-0.3,1.6c0,0.5,0.1,1.1,0.3,1.5c0.2,0.5,0.4,0.9,0.8,1.3s0.7,0.7,1.2,0.9c0.5,0.2,1,0.3,1.6,0.3
				c0.6,0,1.2-0.1,1.6-0.3c0.5-0.2,0.9-0.5,1.2-0.9s0.6-0.8,0.7-1.3C714.6,518.8,714.7,518.3,714.7,517.8z"/>
			<path d="M724,521L724,521l3.2-8.9h2.4l-5.5,14.1c-0.2,0.5-0.4,0.9-0.6,1.3c-0.2,0.4-0.5,0.7-0.8,1s-0.7,0.5-1.1,0.6
				c-0.4,0.1-0.9,0.2-1.5,0.2c-0.2,0-0.5,0-0.7,0c-0.2,0-0.5-0.1-0.8-0.1l0.2-2c0.4,0.1,0.8,0.2,1.1,0.2c0.6,0,1-0.2,1.3-0.5
				s0.5-0.8,0.8-1.4l0.7-1.9l-4.9-11.4h2.5L724,521z"/>
			<path d="M740.4,512.4c0.6-0.4,1.4-0.6,2.2-0.6c0.8,0,1.5,0.2,2.1,0.5c0.6,0.3,1.1,0.9,1.5,1.8c0.4-0.7,0.9-1.3,1.6-1.7
				s1.4-0.6,2.3-0.6c0.7,0,1.4,0.1,1.9,0.4c0.5,0.2,1,0.6,1.3,1s0.6,0.9,0.8,1.5c0.2,0.6,0.2,1.2,0.2,1.8v7.1H752v-6.3
				c0-0.5,0-0.9-0.1-1.3s-0.2-0.8-0.4-1.1c-0.2-0.3-0.5-0.6-0.8-0.8s-0.7-0.3-1.2-0.3c-0.5,0-1,0.1-1.3,0.3
				c-0.4,0.2-0.7,0.5-0.9,0.8c-0.2,0.3-0.4,0.7-0.5,1.2s-0.2,0.9-0.2,1.3v6.1h-2.3v-6.8c0-0.5,0-0.9-0.1-1.2s-0.2-0.7-0.4-1
				c-0.2-0.3-0.4-0.5-0.7-0.6s-0.7-0.2-1.1-0.2c-0.8,0-1.5,0.3-2.1,1c-0.5,0.7-0.8,1.6-0.8,2.7v6h-2.3v-8.9c0-0.3,0-0.7,0-1.2
				c0-0.5,0-0.9-0.1-1.3h2.1c0,0.3,0.1,0.6,0.1,1s0,0.7,0,0.9h0.1C739.3,513.3,739.7,512.8,740.4,512.4z"/>
			<path d="M760.2,508c0,0.4-0.2,0.8-0.4,1s-0.7,0.4-1.1,0.4s-0.8-0.1-1-0.4s-0.4-0.6-0.4-1c0-0.4,0.1-0.8,0.4-1s0.6-0.4,1-0.4
				s0.8,0.1,1.1,0.4C760.1,507.2,760.2,507.6,760.2,508z M759.9,523.5h-2.3v-11.4h2.3V523.5z"/>
			<path d="M765.6,523.5h-2.3v-18.1h2.3V523.5z"/>
			<path d="M771.4,523.5h-2.3v-18.1h2.3V523.5z"/>
			<path d="M777.5,508c0,0.4-0.2,0.8-0.4,1s-0.7,0.4-1.1,0.4s-0.8-0.1-1-0.4s-0.4-0.6-0.4-1c0-0.4,0.1-0.8,0.4-1s0.6-0.4,1-0.4
				s0.8,0.1,1.1,0.4C777.3,507.2,777.5,507.6,777.5,508z M777.1,523.5h-2.3v-11.4h2.3V523.5z"/>
			<path d="M792.1,517.7c0,0.9-0.2,1.7-0.5,2.4c-0.3,0.7-0.7,1.4-1.3,1.9s-1.2,1-2,1.2s-1.6,0.4-2.4,0.4s-1.7-0.2-2.4-0.4
				c-0.8-0.3-1.4-0.7-1.9-1.2s-1-1.2-1.3-1.9c-0.3-0.7-0.5-1.5-0.5-2.4s0.2-1.7,0.5-2.4s0.7-1.4,1.3-1.9c0.5-0.5,1.2-0.9,1.9-1.2
				s1.6-0.4,2.4-0.4s1.7,0.1,2.4,0.4c0.8,0.3,1.4,0.7,2,1.2c0.5,0.5,1,1.2,1.3,1.9C791.9,516.1,792.1,516.9,792.1,517.7z
				 M789.7,517.8c0-0.5-0.1-1.1-0.2-1.6c-0.2-0.5-0.4-0.9-0.7-1.3s-0.7-0.7-1.2-0.9c-0.5-0.2-1-0.3-1.6-0.3s-1.2,0.1-1.6,0.3
				s-0.9,0.5-1.2,0.9s-0.6,0.8-0.7,1.3c-0.2,0.5-0.2,1-0.2,1.6c0,0.5,0.1,1.1,0.2,1.6c0.2,0.5,0.4,0.9,0.7,1.3
				c0.3,0.4,0.7,0.7,1.2,0.9s1,0.3,1.6,0.3c0.6,0,1.2-0.1,1.6-0.3c0.5-0.2,0.9-0.5,1.2-0.9s0.6-0.8,0.7-1.3
				C789.7,518.8,789.7,518.3,789.7,517.8z"/>
			<path d="M796.8,512.1c0,0.3,0.1,0.6,0.1,1s0,0.7,0,0.9h0.1c0.1-0.3,0.3-0.6,0.6-0.8c0.2-0.3,0.5-0.5,0.8-0.7s0.7-0.4,1.1-0.5
				c0.4-0.1,0.8-0.2,1.2-0.2c0.7,0,1.4,0.1,1.9,0.4s1,0.6,1.3,1c0.3,0.4,0.6,0.9,0.8,1.5c0.2,0.6,0.2,1.2,0.2,1.8v7.1h-2.3v-6.3
				c0-0.5,0-0.9-0.1-1.3s-0.2-0.8-0.4-1.1c-0.2-0.3-0.5-0.6-0.8-0.8c-0.3-0.2-0.8-0.3-1.3-0.3c-0.9,0-1.6,0.3-2.2,1
				s-0.8,1.6-0.8,2.7v6h-2.3v-8.9c0-0.3,0-0.7,0-1.2c0-0.5,0-0.9-0.1-1.3L796.8,512.1L796.8,512.1z"/>
			<path d="M814.4,515c-0.3-0.4-0.6-0.8-1.1-1s-1-0.4-1.6-0.4c-0.3,0-0.5,0-0.8,0.1s-0.5,0.1-0.7,0.3s-0.4,0.3-0.5,0.5
				c-0.1,0.2-0.2,0.4-0.2,0.7c0,0.5,0.2,0.8,0.7,1.1c0.4,0.2,1.1,0.4,1.9,0.6c0.5,0.1,1,0.3,1.5,0.5s0.9,0.4,1.2,0.7
				c0.3,0.3,0.6,0.6,0.8,1s0.3,0.8,0.3,1.3c0,0.7-0.1,1.2-0.4,1.7c-0.3,0.5-0.6,0.8-1,1.1c-0.4,0.3-0.9,0.5-1.5,0.6
				s-1.1,0.2-1.7,0.2c-0.9,0-1.7-0.2-2.5-0.5s-1.5-0.8-2-1.5l1.6-1.4c0.3,0.5,0.7,0.8,1.3,1.1c0.5,0.3,1.1,0.5,1.8,0.5
				c0.3,0,0.6,0,0.8-0.1c0.3-0.1,0.5-0.2,0.7-0.3s0.4-0.3,0.5-0.5c0.1-0.2,0.2-0.5,0.2-0.8c0-0.5-0.2-0.9-0.8-1.2
				c-0.5-0.2-1.2-0.5-2.2-0.7c-0.4-0.1-0.8-0.2-1.2-0.3c-0.4-0.1-0.8-0.3-1.1-0.6s-0.6-0.5-0.8-0.9c-0.2-0.4-0.3-0.8-0.3-1.3
				c0-0.6,0.1-1.1,0.4-1.6s0.6-0.8,1-1.1c0.4-0.3,0.9-0.5,1.4-0.6c0.5-0.1,1-0.2,1.6-0.2c0.8,0,1.6,0.2,2.4,0.5
				c0.8,0.3,1.3,0.8,1.8,1.4L814.4,515z"/>
			<path d="M835.4,517.7c0,0.9-0.2,1.7-0.5,2.4c-0.3,0.7-0.7,1.4-1.3,1.9s-1.2,1-2,1.2s-1.6,0.4-2.4,0.4s-1.7-0.2-2.4-0.4
				c-0.8-0.3-1.4-0.7-1.9-1.2s-1-1.2-1.3-1.9c-0.3-0.7-0.5-1.5-0.5-2.4s0.2-1.7,0.5-2.4s0.7-1.4,1.3-1.9c0.5-0.5,1.2-0.9,1.9-1.2
				s1.6-0.4,2.4-0.4s1.7,0.1,2.4,0.4c0.8,0.3,1.4,0.7,2,1.2c0.5,0.5,1,1.2,1.3,1.9C835.3,516.1,835.4,516.9,835.4,517.7z
				 M833.1,517.8c0-0.5-0.1-1.1-0.2-1.6c-0.2-0.5-0.4-0.9-0.7-1.3s-0.7-0.7-1.2-0.9c-0.5-0.2-1-0.3-1.6-0.3s-1.2,0.1-1.6,0.3
				s-0.9,0.5-1.2,0.9s-0.6,0.8-0.7,1.3c-0.2,0.5-0.2,1-0.2,1.6c0,0.5,0.1,1.1,0.2,1.6c0.2,0.5,0.4,0.9,0.7,1.3
				c0.3,0.4,0.7,0.7,1.2,0.9s1,0.3,1.6,0.3c0.6,0,1.2-0.1,1.6-0.3c0.5-0.2,0.9-0.5,1.2-0.9s0.6-0.8,0.7-1.3
				C833,518.8,833.1,518.3,833.1,517.8z"/>
			<path d="M843.4,513.9h-2.6v9.5h-2.3v-9.5h-2.3v-1.8h2.3v-2.4c0-0.7,0.1-1.3,0.2-1.9c0.2-0.6,0.4-1.1,0.7-1.5
				c0.3-0.4,0.8-0.7,1.3-1c0.5-0.2,1.2-0.4,2-0.4c0.5,0,1,0.1,1.4,0.2l-0.3,1.9c-0.2,0-0.3-0.1-0.5-0.1c-0.2,0-0.4,0-0.6,0
				c-0.4,0-0.8,0.1-1,0.2c-0.3,0.1-0.5,0.4-0.6,0.6c-0.1,0.3-0.2,0.5-0.3,0.9c0,0.3-0.1,0.7-0.1,1v2.4h2.6L843.4,513.9L843.4,513.9z
				"/>
			<path d="M854.7,512.4c0.6-0.4,1.4-0.6,2.2-0.6c0.8,0,1.5,0.2,2.1,0.5c0.6,0.3,1.1,0.9,1.5,1.8c0.4-0.7,0.9-1.3,1.6-1.7
				s1.4-0.6,2.3-0.6c0.7,0,1.4,0.1,1.9,0.4c0.5,0.2,1,0.6,1.3,1s0.6,0.9,0.8,1.5c0.2,0.6,0.2,1.2,0.2,1.8v7.1h-2.3v-6.3
				c0-0.5,0-0.9-0.1-1.3s-0.2-0.8-0.4-1.1c-0.2-0.3-0.5-0.6-0.8-0.8s-0.7-0.3-1.2-0.3c-0.5,0-1,0.1-1.3,0.3
				c-0.4,0.2-0.7,0.5-0.9,0.8c-0.2,0.3-0.4,0.7-0.5,1.2s-0.2,0.9-0.2,1.3v6.1h-2.3v-6.8c0-0.5,0-0.9-0.1-1.2s-0.2-0.7-0.4-1
				c-0.2-0.3-0.4-0.5-0.7-0.6s-0.7-0.2-1.1-0.2c-0.8,0-1.5,0.3-2.1,1c-0.5,0.7-0.8,1.6-0.8,2.7v6h-2.3v-8.9c0-0.3,0-0.7,0-1.2
				c0-0.5,0-0.9-0.1-1.3h2.1c0,0.3,0.1,0.6,0.1,1s0,0.7,0,0.9h0.1C853.6,513.3,854.1,512.8,854.7,512.4z"/>
			<path d="M874.6,508c0,0.4-0.2,0.8-0.4,1s-0.7,0.4-1.1,0.4s-0.8-0.1-1-0.4s-0.4-0.6-0.4-1c0-0.4,0.1-0.8,0.4-1s0.6-0.4,1-0.4
				s0.8,0.1,1.1,0.4S874.6,507.6,874.6,508z M874.2,523.5H872v-11.4h2.3V523.5z"/>
			<path d="M885.6,515c-0.2-0.4-0.6-0.7-1.1-0.9c-0.5-0.2-1-0.4-1.5-0.4c-0.6,0-1.1,0.1-1.6,0.3s-0.8,0.5-1.2,0.9
				c-0.3,0.4-0.6,0.8-0.7,1.3s-0.2,1-0.2,1.6s0.1,1.1,0.2,1.6s0.4,0.9,0.7,1.3s0.7,0.7,1.2,0.9c0.5,0.2,1,0.3,1.6,0.3
				c0.6,0,1.1-0.1,1.6-0.3c0.5-0.2,0.9-0.5,1.2-0.9l1.5,1.4c-0.5,0.6-1.1,1-1.8,1.3s-1.5,0.5-2.5,0.5c-0.9,0-1.7-0.1-2.4-0.4
				s-1.4-0.7-1.9-1.2s-1-1.2-1.3-1.9c-0.3-0.7-0.5-1.6-0.5-2.5c0-0.9,0.2-1.7,0.5-2.5c0.3-0.7,0.7-1.4,1.3-1.9s1.2-0.9,1.9-1.2
				c0.7-0.3,1.5-0.4,2.4-0.4c0.8,0,1.6,0.2,2.4,0.5c0.8,0.3,1.4,0.8,1.9,1.4L885.6,515z"/>
			<path d="M899.7,517.7c0,0.1,0,0.3,0,0.4s0,0.3,0,0.4h-9c0,0.5,0.1,0.9,0.3,1.3s0.5,0.8,0.8,1.1s0.7,0.5,1.2,0.7s0.9,0.3,1.4,0.3
				c0.8,0,1.4-0.2,2-0.5c0.6-0.3,1-0.7,1.3-1.2l1.6,1.3c-0.6,0.8-1.3,1.4-2.2,1.8c-0.8,0.4-1.7,0.6-2.8,0.6c-0.9,0-1.7-0.1-2.4-0.4
				s-1.4-0.7-1.9-1.2s-0.9-1.2-1.2-1.9c-0.3-0.7-0.5-1.5-0.5-2.5c0-0.9,0.2-1.7,0.4-2.4s0.7-1.4,1.2-1.9c0.5-0.5,1.2-0.9,1.9-1.2
				s1.5-0.4,2.3-0.4s1.6,0.1,2.3,0.4c0.7,0.3,1.3,0.7,1.7,1.2c0.5,0.5,0.8,1.1,1.1,1.9C899.5,515.9,899.7,516.8,899.7,517.7z
				 M897.4,516.8c0-0.5-0.1-0.9-0.2-1.3s-0.3-0.7-0.6-1c-0.3-0.3-0.6-0.5-1-0.7c-0.4-0.2-0.8-0.2-1.4-0.2c-0.5,0-0.9,0.1-1.4,0.2
				s-0.8,0.4-1.1,0.7c-0.3,0.3-0.6,0.6-0.8,1s-0.3,0.8-0.3,1.3H897.4z"/>
			<path d="M904.6,523.5h-2.3v-18.1h2.3V523.5z"/>
			<path d="M910.4,523.5h-2.3v-18.1h2.3V523.5z"/>
			<path d="M924.5,517.7c0,0.1,0,0.3,0,0.4s0,0.3,0,0.4h-9c0,0.5,0.1,0.9,0.3,1.3s0.5,0.8,0.8,1.1s0.7,0.5,1.2,0.7s0.9,0.3,1.4,0.3
				c0.8,0,1.4-0.2,2-0.5c0.6-0.3,1-0.7,1.3-1.2l1.6,1.3c-0.6,0.8-1.3,1.4-2.2,1.8c-0.8,0.4-1.7,0.6-2.8,0.6c-0.9,0-1.7-0.1-2.4-0.4
				s-1.4-0.7-1.9-1.2s-0.9-1.2-1.2-1.9c-0.3-0.7-0.5-1.5-0.5-2.5c0-0.9,0.2-1.7,0.4-2.4s0.7-1.4,1.2-1.9c0.5-0.5,1.2-0.9,1.9-1.2
				s1.5-0.4,2.3-0.4s1.6,0.1,2.3,0.4c0.7,0.3,1.3,0.7,1.7,1.2c0.5,0.5,0.8,1.1,1.1,1.9C924.3,515.9,924.5,516.8,924.5,517.7z
				 M922.2,516.8c0-0.5-0.1-0.9-0.2-1.3s-0.3-0.7-0.6-1c-0.3-0.3-0.6-0.5-1-0.7c-0.4-0.2-0.8-0.2-1.4-0.2c-0.5,0-0.9,0.1-1.4,0.2
				s-0.8,0.4-1.1,0.7c-0.3,0.3-0.6,0.6-0.8,1s-0.3,0.8-0.3,1.3H922.2z"/>
			<path d="M933.3,515c-0.3-0.4-0.6-0.8-1.1-1s-1-0.4-1.6-0.4c-0.3,0-0.5,0-0.8,0.1s-0.5,0.1-0.7,0.3s-0.4,0.3-0.5,0.5
				c-0.1,0.2-0.2,0.4-0.2,0.7c0,0.5,0.2,0.8,0.7,1.1c0.4,0.2,1.1,0.4,1.9,0.6c0.5,0.1,1,0.3,1.5,0.5s0.9,0.4,1.2,0.7
				c0.3,0.3,0.6,0.6,0.8,1s0.3,0.8,0.3,1.3c0,0.7-0.1,1.2-0.4,1.7c-0.3,0.5-0.6,0.8-1,1.1c-0.4,0.3-0.9,0.5-1.5,0.6
				s-1.1,0.2-1.7,0.2c-0.9,0-1.7-0.2-2.5-0.5s-1.5-0.8-2-1.5l1.6-1.4c0.3,0.5,0.7,0.8,1.3,1.1c0.5,0.3,1.1,0.5,1.8,0.5
				c0.3,0,0.6,0,0.8-0.1c0.3-0.1,0.5-0.2,0.7-0.3s0.4-0.3,0.5-0.5c0.1-0.2,0.2-0.5,0.2-0.8c0-0.5-0.2-0.9-0.8-1.2
				c-0.5-0.2-1.2-0.5-2.2-0.7c-0.4-0.1-0.8-0.2-1.2-0.3c-0.4-0.1-0.8-0.3-1.1-0.6s-0.6-0.5-0.8-0.9c-0.2-0.4-0.3-0.8-0.3-1.3
				c0-0.6,0.1-1.1,0.4-1.6s0.6-0.8,1-1.1c0.4-0.3,0.9-0.5,1.4-0.6c0.5-0.1,1-0.2,1.6-0.2c0.8,0,1.6,0.2,2.4,0.5
				c0.8,0.3,1.3,0.8,1.8,1.4L933.3,515z"/>
			<path d="M940.1,522c0,0.4-0.2,0.8-0.5,1.1c-0.3,0.3-0.7,0.5-1.2,0.5c-0.5,0-0.8-0.2-1.1-0.5s-0.5-0.7-0.5-1.1
				c0-0.4,0.2-0.8,0.5-1.1c0.3-0.3,0.7-0.5,1.2-0.5s0.8,0.2,1.2,0.5C939.9,521.2,940.1,521.6,940.1,522z"/>
			<path d="M384.6,544.5h5.8c1.1,0,2.2,0.2,3.3,0.5c1.1,0.3,2.1,0.8,3,1.5s1.6,1.6,2.1,2.6c0.5,1.1,0.8,2.4,0.8,3.9
				c0,1.5-0.3,2.7-0.8,3.8c-0.5,1.1-1.3,1.9-2.1,2.6s-1.9,1.2-3,1.6c-1.1,0.3-2.2,0.5-3.3,0.5h-5.8V544.5z M387,559.4h3
				c1,0,2-0.1,2.8-0.4s1.6-0.7,2.3-1.2c0.6-0.5,1.1-1.2,1.5-2c0.4-0.8,0.5-1.7,0.5-2.7c0-1.1-0.2-2-0.5-2.8c-0.4-0.8-0.8-1.5-1.5-2
				c-0.6-0.5-1.4-0.9-2.3-1.2c-0.9-0.3-1.8-0.4-2.8-0.4h-3V559.4z"/>
			<path d="M405,546c0,0.4-0.1,0.8-0.4,1s-0.6,0.4-1.1,0.4s-0.8-0.1-1-0.4s-0.4-0.6-0.4-1c0-0.4,0.1-0.8,0.4-1
				c0.3-0.3,0.6-0.4,1-0.4s0.8,0.1,1.1,0.4C404.8,545.2,405,545.6,405,546z M404.6,561.5h-2.3v-11.4h2.3V561.5z"/>
			<path d="M410.4,561.5h-2.3v-18.1h2.3V561.5z"/>
			<path d="M421.8,561.5c0-0.3-0.1-0.6-0.1-1c0-0.4,0-0.7,0-0.9h0c-0.3,0.6-0.8,1.1-1.5,1.5s-1.4,0.6-2.3,0.6
				c-0.7,0-1.4-0.1-1.9-0.4s-1-0.6-1.3-1c-0.3-0.4-0.6-0.9-0.8-1.5c-0.2-0.6-0.2-1.2-0.2-1.8v-7.1h2.3v6.3c0,0.5,0,0.9,0.1,1.3
				c0.1,0.4,0.2,0.8,0.4,1.1c0.2,0.3,0.5,0.6,0.8,0.8c0.3,0.2,0.8,0.3,1.3,0.3c0.9,0,1.6-0.3,2.2-1s0.8-1.6,0.8-2.7v-6h2.3v8.9
				c0,0.3,0,0.7,0,1.2c0,0.5,0,0.9,0.1,1.3L421.8,561.5L421.8,561.5z"/>
			<path d="M432.9,551.9h-3v5.9c0,0.7,0.1,1.2,0.4,1.5c0.3,0.3,0.7,0.4,1.2,0.4c0.2,0,0.4,0,0.7-0.1c0.2,0,0.5-0.1,0.6-0.2l0.1,1.8
				c-0.3,0.1-0.6,0.2-0.9,0.2s-0.7,0.1-1,0.1c-1.1,0-1.9-0.3-2.5-0.9s-0.9-1.5-0.9-2.7v-6.2h-2.2v-1.8h2.2v-3.3h2.2v3.3h3
				L432.9,551.9L432.9,551.9z"/>
			<path d="M445.3,555.7c0,0.1,0,0.3,0,0.4s0,0.3,0,0.4h-9c0,0.5,0.1,0.9,0.3,1.3s0.5,0.8,0.8,1.1s0.7,0.5,1.2,0.7s0.9,0.3,1.4,0.3
				c0.8,0,1.4-0.2,2-0.5s1-0.7,1.3-1.2l1.6,1.3c-0.6,0.8-1.3,1.4-2.1,1.8c-0.8,0.4-1.7,0.6-2.8,0.6c-0.9,0-1.7-0.1-2.4-0.4
				s-1.4-0.7-1.9-1.2s-0.9-1.2-1.2-1.9c-0.3-0.7-0.5-1.5-0.5-2.5c0-0.9,0.1-1.7,0.4-2.4c0.3-0.7,0.7-1.4,1.2-1.9
				c0.5-0.5,1.1-0.9,1.9-1.2c0.7-0.3,1.5-0.4,2.3-0.4s1.6,0.1,2.3,0.4c0.7,0.3,1.3,0.7,1.7,1.2c0.5,0.5,0.8,1.1,1.1,1.9
				C445.2,553.9,445.3,554.8,445.3,555.7z M443,554.8c0-0.5-0.1-0.9-0.2-1.3s-0.3-0.7-0.6-1c-0.3-0.3-0.6-0.5-1-0.7
				s-0.9-0.2-1.4-0.2c-0.5,0-0.9,0.1-1.4,0.2c-0.4,0.2-0.8,0.4-1.1,0.7s-0.6,0.6-0.8,1c-0.2,0.4-0.3,0.8-0.4,1.3H443z"/>
			<path d="M458.9,551.9h-2.6v9.5h-2.3v-9.5h-2.3v-1.8h2.3v-2.4c0-0.7,0.1-1.3,0.2-1.9c0.1-0.6,0.4-1.1,0.7-1.5s0.8-0.7,1.3-1
				s1.2-0.4,2-0.4c0.5,0,1,0.1,1.4,0.2l-0.3,1.9c-0.2,0-0.4-0.1-0.5-0.1c-0.2,0-0.4,0-0.6,0c-0.4,0-0.8,0.1-1,0.2
				c-0.3,0.2-0.5,0.4-0.6,0.6s-0.2,0.5-0.3,0.9c0,0.3-0.1,0.7-0.1,1v2.4h2.6L458.9,551.9L458.9,551.9z"/>
			<path d="M472,555.7c0,0.9-0.2,1.7-0.5,2.4s-0.7,1.4-1.3,1.9c-0.5,0.5-1.2,1-2,1.2c-0.8,0.3-1.6,0.4-2.4,0.4
				c-0.9,0-1.7-0.2-2.4-0.4c-0.8-0.3-1.4-0.7-1.9-1.2s-1-1.2-1.3-1.9s-0.5-1.5-0.5-2.4s0.2-1.7,0.5-2.4s0.7-1.4,1.3-1.9
				c0.5-0.5,1.2-0.9,1.9-1.2s1.6-0.4,2.4-0.4c0.9,0,1.7,0.2,2.4,0.4c0.8,0.3,1.4,0.7,2,1.2c0.5,0.5,1,1.2,1.3,1.9
				S472,554.9,472,555.7z M469.6,555.8c0-0.5-0.1-1.1-0.2-1.6c-0.2-0.5-0.4-0.9-0.7-1.3s-0.7-0.7-1.2-0.9s-1-0.3-1.6-0.3
				c-0.6,0-1.1,0.1-1.6,0.3c-0.5,0.2-0.9,0.5-1.2,0.9s-0.6,0.8-0.7,1.3c-0.2,0.5-0.2,1-0.2,1.6c0,0.5,0.1,1.1,0.2,1.6
				c0.2,0.5,0.4,0.9,0.7,1.3c0.3,0.4,0.7,0.7,1.2,0.9s1,0.3,1.6,0.3c0.6,0,1.1-0.1,1.6-0.3s0.9-0.5,1.2-0.9s0.6-0.8,0.7-1.3
				C469.5,556.8,469.6,556.3,469.6,555.8z"/>
			<path d="M474.6,551.3c0-0.5,0-0.9-0.1-1.3h2.1c0,0.3,0.1,0.6,0.1,1c0,0.4,0,0.7,0,0.9h0.1c0.3-0.7,0.8-1.2,1.4-1.6
				c0.6-0.4,1.3-0.6,2.1-0.6c0.4,0,0.6,0,0.9,0.1l-0.1,2.1c-0.3-0.1-0.7-0.1-1-0.1c-0.5,0-1,0.1-1.4,0.3c-0.4,0.2-0.7,0.5-1,0.8
				s-0.5,0.7-0.6,1.2s-0.2,0.9-0.2,1.4v6h-2.3v-8.9C474.6,552.2,474.6,551.8,474.6,551.3z"/>
			<path d="M490.6,561.5h-2.3v-18.1h2.3V561.5z"/>
			<path d="M496.8,546c0,0.4-0.1,0.8-0.4,1s-0.6,0.4-1.1,0.4s-0.8-0.1-1-0.4s-0.4-0.6-0.4-1c0-0.4,0.1-0.8,0.4-1
				c0.3-0.3,0.6-0.4,1-0.4s0.8,0.1,1.1,0.4C496.6,545.2,496.8,545.6,496.8,546z M496.4,561.5h-2.3v-11.4h2.3V561.5z"/>
			<path d="M500.7,563.4c0.5,0.6,1.1,1,1.9,1.3c0.7,0.3,1.5,0.5,2.3,0.5c0.8,0,1.4-0.1,1.9-0.3s0.9-0.5,1.2-0.9
				c0.3-0.4,0.5-0.8,0.7-1.3c0.1-0.5,0.2-1.1,0.2-1.7v-1.5h0c-0.4,0.6-1,1.1-1.7,1.5c-0.7,0.3-1.5,0.5-2.3,0.5
				c-0.9,0-1.6-0.2-2.4-0.5c-0.7-0.3-1.3-0.7-1.8-1.2s-0.9-1.2-1.1-1.9s-0.4-1.5-0.4-2.3c0-0.8,0.1-1.6,0.4-2.3s0.7-1.3,1.1-1.9
				s1.1-1,1.8-1.3c0.7-0.3,1.5-0.5,2.4-0.5c0.8,0,1.6,0.2,2.3,0.5s1.3,0.9,1.8,1.6h0v-1.8h2.2v10.8c0,0.8-0.1,1.6-0.3,2.4
				s-0.6,1.4-1.1,2c-0.5,0.6-1.1,1-1.9,1.4c-0.8,0.3-1.8,0.5-3,0.5c-1,0-2-0.2-3-0.5s-1.9-0.9-2.6-1.5L500.7,563.4z M501.4,555.7
				c0,0.5,0.1,1,0.2,1.5s0.4,0.9,0.8,1.3s0.7,0.7,1.2,0.9c0.5,0.2,1,0.3,1.6,0.3c0.6,0,1.1-0.1,1.6-0.3s0.9-0.5,1.2-0.8
				s0.6-0.8,0.8-1.3s0.3-1,0.3-1.6c0-0.5-0.1-1.1-0.3-1.5c-0.2-0.5-0.5-0.9-0.8-1.3c-0.4-0.4-0.8-0.7-1.2-0.9
				c-0.5-0.2-1-0.3-1.6-0.3c-0.6,0-1.1,0.1-1.6,0.3c-0.5,0.2-0.9,0.5-1.2,0.9c-0.3,0.4-0.6,0.8-0.8,1.3
				C501.5,554.6,501.4,555.1,501.4,555.7z"/>
			<path d="M516.9,551.8c0.3-0.6,0.7-1,1.4-1.4c0.7-0.4,1.4-0.6,2.2-0.6c0.7,0,1.4,0.1,1.9,0.4s1,0.6,1.3,1c0.3,0.4,0.6,0.9,0.8,1.5
				c0.2,0.6,0.2,1.2,0.2,1.8v7.1h-2.3v-6.3c0-0.5,0-0.9-0.1-1.3c-0.1-0.4-0.2-0.8-0.4-1.1c-0.2-0.3-0.5-0.6-0.8-0.8
				s-0.8-0.3-1.3-0.3c-0.9,0-1.6,0.3-2.2,1s-0.9,1.6-0.9,2.7v6h-2.3v-18.1h2.3L516.9,551.8L516.9,551.8L516.9,551.8z"/>
			<path d="M533.6,551.9h-3v5.9c0,0.7,0.1,1.2,0.4,1.5s0.7,0.4,1.2,0.4c0.2,0,0.4,0,0.7-0.1c0.2,0,0.5-0.1,0.7-0.2l0.1,1.8
				c-0.3,0.1-0.6,0.2-0.9,0.2s-0.7,0.1-1,0.1c-1.1,0-1.9-0.3-2.5-0.9s-0.8-1.5-0.8-2.7v-6.2h-2.2v-1.8h2.2v-3.3h2.2v3.3h3
				L533.6,551.9L533.6,551.9z"/>
			<path d="M536.3,564.7h-1.9l1.7-6h2.3L536.3,564.7z"/>
			<path d="M549.6,550.4c0.6-0.4,1.4-0.6,2.2-0.6c0.8,0,1.5,0.2,2.1,0.5c0.6,0.3,1.1,0.9,1.5,1.8c0.4-0.7,0.9-1.3,1.6-1.7
				s1.4-0.6,2.3-0.6c0.7,0,1.4,0.1,1.9,0.4s1,0.6,1.3,1s0.6,0.9,0.8,1.5c0.2,0.6,0.2,1.2,0.2,1.8v7.1h-2.3v-6.3c0-0.5,0-0.9-0.1-1.3
				s-0.2-0.8-0.4-1.1c-0.2-0.3-0.5-0.6-0.8-0.8s-0.7-0.3-1.2-0.3c-0.5,0-1,0.1-1.3,0.3c-0.4,0.2-0.7,0.5-0.9,0.8
				c-0.2,0.3-0.4,0.7-0.5,1.2s-0.2,0.9-0.2,1.3v6.1h-2.3v-6.8c0-0.5,0-0.9-0.1-1.2s-0.2-0.7-0.4-1c-0.2-0.3-0.4-0.5-0.7-0.6
				s-0.7-0.2-1.1-0.2c-0.8,0-1.5,0.3-2.1,1c-0.5,0.7-0.8,1.6-0.8,2.7v6H546v-8.9c0-0.3,0-0.7,0-1.2c0-0.5,0-0.9-0.1-1.3h2.1
				c0,0.3,0.1,0.6,0.1,1s0,0.7,0,0.9h0.1C548.5,551.3,549,550.8,549.6,550.4z"/>
			<path d="M577.5,555.7c0,0.1,0,0.3,0,0.4s0,0.3,0,0.4h-9c0,0.5,0.1,0.9,0.3,1.3s0.5,0.8,0.8,1.1s0.7,0.5,1.2,0.7s0.9,0.3,1.4,0.3
				c0.8,0,1.4-0.2,2-0.5c0.6-0.3,1-0.7,1.3-1.2l1.6,1.3c-0.6,0.8-1.3,1.4-2.2,1.8c-0.8,0.4-1.7,0.6-2.8,0.6c-0.9,0-1.7-0.1-2.4-0.4
				s-1.4-0.7-1.9-1.2s-0.9-1.2-1.2-1.9c-0.3-0.7-0.5-1.5-0.5-2.5c0-0.9,0.2-1.7,0.4-2.4s0.7-1.4,1.2-1.9c0.5-0.5,1.2-0.9,1.9-1.2
				s1.5-0.4,2.3-0.4s1.6,0.1,2.3,0.4c0.7,0.3,1.3,0.7,1.7,1.2c0.5,0.5,0.8,1.1,1.1,1.9C577.4,553.9,577.5,554.8,577.5,555.7z
				 M575.2,554.8c0-0.5-0.1-0.9-0.2-1.3s-0.3-0.7-0.6-1c-0.3-0.3-0.6-0.5-1-0.7c-0.4-0.2-0.8-0.2-1.4-0.2c-0.5,0-0.9,0.1-1.4,0.2
				s-0.8,0.4-1.1,0.7c-0.3,0.3-0.6,0.6-0.8,1s-0.3,0.8-0.3,1.3H575.2z"/>
			<path d="M589.2,559.7c-0.4,0.7-1,1.2-1.8,1.6s-1.5,0.5-2.3,0.5c-0.9,0-1.7-0.2-2.4-0.5s-1.3-0.7-1.8-1.3
				c-0.5-0.5-0.9-1.2-1.2-1.9s-0.4-1.5-0.4-2.3s0.1-1.6,0.4-2.3c0.3-0.7,0.7-1.4,1.2-1.9s1.1-1,1.8-1.3c0.7-0.3,1.5-0.5,2.3-0.5
				c0.9,0,1.7,0.2,2.4,0.6c0.7,0.4,1.2,0.9,1.6,1.4h0v-8.5h2.3v18.1h-2.2L589.2,559.7L589.2,559.7L589.2,559.7z M581.7,555.8
				c0,0.5,0.1,1,0.2,1.5c0.2,0.5,0.4,0.9,0.7,1.3c0.3,0.4,0.7,0.7,1.2,0.9c0.5,0.2,1,0.3,1.6,0.3c0.6,0,1.1-0.1,1.6-0.3
				c0.5-0.2,0.9-0.5,1.2-0.9s0.6-0.8,0.8-1.3c0.2-0.5,0.3-1,0.3-1.5s-0.1-1.1-0.3-1.6c-0.2-0.5-0.4-0.9-0.8-1.3s-0.7-0.7-1.2-0.9
				c-0.5-0.2-1-0.3-1.6-0.3c-0.6,0-1.2,0.1-1.6,0.3s-0.9,0.5-1.2,0.9c-0.3,0.4-0.6,0.8-0.7,1.3S581.7,555.2,581.7,555.8z"/>
			<path d="M597.5,546c0,0.4-0.2,0.8-0.4,1s-0.7,0.4-1.1,0.4s-0.8-0.1-1-0.4c-0.3-0.3-0.4-0.6-0.4-1c0-0.4,0.1-0.8,0.4-1
				c0.3-0.3,0.6-0.4,1-0.4s0.8,0.1,1.1,0.4C597.4,545.2,597.5,545.6,597.5,546z M597.2,561.5h-2.3v-11.4h2.3V561.5z"/>
			<path d="M608.6,561.5c0-0.3-0.1-0.6-0.1-1c0-0.4,0-0.7,0-0.9h0c-0.3,0.6-0.8,1.1-1.5,1.5c-0.7,0.4-1.4,0.6-2.3,0.6
				c-0.7,0-1.4-0.1-1.9-0.4s-1-0.6-1.3-1c-0.3-0.4-0.6-0.9-0.8-1.5c-0.2-0.6-0.2-1.2-0.2-1.8v-7.1h2.3v6.3c0,0.5,0,0.9,0.1,1.3
				s0.2,0.8,0.4,1.1c0.2,0.3,0.5,0.6,0.8,0.8c0.3,0.2,0.8,0.3,1.3,0.3c0.9,0,1.7-0.3,2.2-1s0.8-1.6,0.8-2.7v-6h2.3v8.9
				c0,0.3,0,0.7,0,1.2c0,0.5,0,0.9,0.1,1.3L608.6,561.5L608.6,561.5z"/>
			<path d="M617.7,550.4c0.6-0.4,1.4-0.6,2.2-0.6c0.8,0,1.5,0.2,2.1,0.5c0.6,0.3,1.1,0.9,1.5,1.8c0.4-0.7,0.9-1.3,1.6-1.7
				s1.4-0.6,2.3-0.6c0.7,0,1.4,0.1,1.9,0.4s1,0.6,1.3,1s0.6,0.9,0.8,1.5c0.2,0.6,0.2,1.2,0.2,1.8v7.1h-2.3v-6.3c0-0.5,0-0.9-0.1-1.3
				s-0.2-0.8-0.4-1.1c-0.2-0.3-0.5-0.6-0.8-0.8s-0.7-0.3-1.2-0.3c-0.5,0-1,0.1-1.3,0.3c-0.4,0.2-0.7,0.5-0.9,0.8
				c-0.2,0.3-0.4,0.7-0.5,1.2s-0.2,0.9-0.2,1.3v6.1h-2.3v-6.8c0-0.5,0-0.9-0.1-1.2s-0.2-0.7-0.4-1c-0.2-0.3-0.4-0.5-0.7-0.6
				s-0.7-0.2-1.1-0.2c-0.8,0-1.5,0.3-2.1,1c-0.5,0.7-0.8,1.6-0.8,2.7v6h-2.3v-8.9c0-0.3,0-0.7,0-1.2c0-0.5,0-0.9-0.1-1.3h2.1
				c0,0.3,0.1,0.6,0.1,1s0,0.7,0,0.9h0.1C616.6,551.3,617.1,550.8,617.7,550.4z"/>
			<path d="M652,555.7c0,0.9-0.2,1.7-0.5,2.4c-0.3,0.7-0.7,1.4-1.3,1.9s-1.2,1-2,1.2s-1.6,0.4-2.4,0.4s-1.7-0.2-2.4-0.4
				c-0.8-0.3-1.4-0.7-1.9-1.2s-1-1.2-1.3-1.9c-0.3-0.7-0.5-1.5-0.5-2.4s0.2-1.7,0.5-2.4s0.7-1.4,1.3-1.9c0.5-0.5,1.2-0.9,1.9-1.2
				s1.6-0.4,2.4-0.4s1.7,0.2,2.4,0.4s1.4,0.7,2,1.2c0.5,0.5,1,1.2,1.3,1.9C651.8,554.1,652,554.9,652,555.7z M649.6,555.8
				c0-0.5-0.1-1.1-0.2-1.6c-0.2-0.5-0.4-0.9-0.7-1.3s-0.7-0.7-1.2-0.9c-0.5-0.2-1-0.3-1.6-0.3s-1.2,0.1-1.6,0.3s-0.9,0.5-1.2,0.9
				s-0.6,0.8-0.7,1.3c-0.2,0.5-0.2,1-0.2,1.6c0,0.5,0.1,1.1,0.2,1.6c0.2,0.5,0.4,0.9,0.7,1.3c0.3,0.4,0.7,0.7,1.2,0.9s1,0.3,1.6,0.3
				c0.6,0,1.2-0.1,1.6-0.3c0.5-0.2,0.9-0.5,1.2-0.9s0.6-0.8,0.7-1.3C649.5,556.8,649.6,556.3,649.6,555.8z"/>
			<path d="M654.6,551.3c0-0.5,0-0.9-0.1-1.3h2.1c0,0.3,0.1,0.6,0.1,1s0,0.7,0,0.9h0.1c0.3-0.7,0.8-1.2,1.4-1.6s1.3-0.6,2.1-0.6
				c0.3,0,0.7,0,0.9,0.1l-0.1,2.1c-0.3-0.1-0.7-0.1-1-0.1c-0.5,0-1,0.1-1.4,0.3c-0.4,0.2-0.7,0.5-1,0.8c-0.3,0.3-0.5,0.7-0.6,1.2
				s-0.2,0.9-0.2,1.4v6h-2.3v-8.9C654.6,552.2,654.6,551.8,654.6,551.3z"/>
			<path d="M670.7,551.8c0.3-0.6,0.7-1,1.4-1.4c0.7-0.4,1.4-0.6,2.2-0.6c0.7,0,1.4,0.1,1.9,0.4s1,0.6,1.3,1c0.3,0.4,0.6,0.9,0.8,1.5
				c0.2,0.6,0.2,1.2,0.2,1.8v7.1h-2.3v-6.3c0-0.5,0-0.9-0.1-1.3c-0.1-0.4-0.2-0.8-0.4-1.1c-0.2-0.3-0.5-0.6-0.8-0.8
				s-0.8-0.3-1.3-0.3c-0.9,0-1.6,0.3-2.2,1s-0.9,1.6-0.9,2.7v6h-2.3v-18.1h2.3L670.7,551.8L670.7,551.8L670.7,551.8z"/>
			<path d="M692.5,555.7c0,0.1,0,0.3,0,0.4s0,0.3,0,0.4h-9c0,0.5,0.1,0.9,0.3,1.3s0.5,0.8,0.8,1.1s0.7,0.5,1.2,0.7s0.9,0.3,1.4,0.3
				c0.8,0,1.4-0.2,2-0.5c0.6-0.3,1-0.7,1.3-1.2l1.6,1.3c-0.6,0.8-1.3,1.4-2.2,1.8c-0.8,0.4-1.7,0.6-2.8,0.6c-0.9,0-1.7-0.1-2.4-0.4
				s-1.4-0.7-1.9-1.2s-0.9-1.2-1.2-1.9c-0.3-0.7-0.5-1.5-0.5-2.5c0-0.9,0.2-1.7,0.4-2.4s0.7-1.4,1.2-1.9c0.5-0.5,1.2-0.9,1.9-1.2
				s1.5-0.4,2.3-0.4s1.6,0.1,2.3,0.4c0.7,0.3,1.3,0.7,1.7,1.2c0.5,0.5,0.8,1.1,1.1,1.9C692.4,553.9,692.5,554.8,692.5,555.7z
				 M690.2,554.8c0-0.5-0.1-0.9-0.2-1.3s-0.3-0.7-0.6-1c-0.3-0.3-0.6-0.5-1-0.7c-0.4-0.2-0.8-0.2-1.4-0.2c-0.5,0-0.9,0.1-1.4,0.2
				s-0.8,0.4-1.1,0.7c-0.3,0.3-0.6,0.6-0.8,1s-0.3,0.8-0.3,1.3H690.2z"/>
			<path d="M702.1,554.1c0-0.8-0.3-1.5-0.8-1.9c-0.5-0.4-1.2-0.6-2-0.6c-0.6,0-1.2,0.1-1.8,0.4s-1,0.6-1.4,1l-1.2-1.4
				c0.6-0.5,1.2-0.9,2-1.2c0.8-0.3,1.7-0.5,2.6-0.5c0.8,0,1.5,0.1,2.1,0.3s1.1,0.5,1.5,1c0.4,0.4,0.7,0.9,0.9,1.4
				c0.2,0.5,0.3,1.1,0.3,1.8v5c0,0.4,0,0.8,0,1.2c0,0.4,0.1,0.8,0.1,1h-2c-0.1-0.5-0.2-1.1-0.2-1.6h-0.1c-0.4,0.6-0.9,1.1-1.6,1.4
				s-1.4,0.5-2.2,0.5c-0.5,0-0.9-0.1-1.4-0.2c-0.5-0.1-0.9-0.3-1.3-0.6s-0.7-0.6-1-1.1c-0.3-0.5-0.4-1-0.4-1.7c0-0.9,0.2-1.5,0.7-2
				s1.1-0.9,1.8-1.2s1.6-0.4,2.5-0.5s1.9-0.1,2.9-0.1L702.1,554.1L702.1,554.1z M701.5,556c-0.6,0-1.1,0-1.7,0.1s-1.1,0.1-1.6,0.3
				c-0.5,0.1-0.9,0.4-1.2,0.7s-0.5,0.7-0.5,1.2c0,0.3,0.1,0.6,0.2,0.8c0.1,0.2,0.3,0.4,0.5,0.5s0.5,0.2,0.7,0.3s0.5,0.1,0.8,0.1
				c1.1,0,1.9-0.3,2.4-1s0.8-1.4,0.8-2.4V556L701.5,556L701.5,556z"/>
			<path d="M712.9,561.5h-2.5l-4.6-11.4h2.5l3.3,9h0l3.4-9h2.4L712.9,561.5z"/>
			<path d="M723.5,559L723.5,559l3.2-8.9h2.4l-5.5,14.1c-0.2,0.5-0.4,0.9-0.6,1.3c-0.2,0.4-0.5,0.7-0.8,1s-0.7,0.5-1.1,0.6
				c-0.4,0.1-0.9,0.2-1.5,0.2c-0.2,0-0.5,0-0.7,0c-0.2,0-0.5-0.1-0.8-0.1l0.2-2c0.4,0.1,0.8,0.2,1.1,0.2c0.6,0,1-0.2,1.3-0.5
				s0.5-0.8,0.8-1.4l0.7-1.9l-4.9-11.4h2.5L723.5,559z"/>
			<path d="M735.4,556.6h-5.6v-1.9h5.6V556.6z"/>
			<path d="M747,559.7c-0.4,0.7-1,1.2-1.8,1.6s-1.5,0.5-2.3,0.5c-0.9,0-1.7-0.2-2.4-0.5s-1.3-0.7-1.8-1.3c-0.5-0.5-0.9-1.2-1.2-1.9
				s-0.4-1.5-0.4-2.3s0.1-1.6,0.4-2.3c0.3-0.7,0.7-1.4,1.2-1.9s1.1-1,1.8-1.3c0.7-0.3,1.5-0.5,2.3-0.5c0.9,0,1.7,0.2,2.4,0.6
				c0.7,0.4,1.2,0.9,1.6,1.4h0.1v-8.5h2.3v18.1h-2.2L747,559.7L747,559.7L747,559.7z M739.5,555.8c0,0.5,0.1,1,0.2,1.5
				c0.2,0.5,0.4,0.9,0.7,1.3c0.3,0.4,0.7,0.7,1.2,0.9c0.5,0.2,1,0.3,1.6,0.3c0.6,0,1.1-0.1,1.6-0.3c0.5-0.2,0.9-0.5,1.2-0.9
				s0.6-0.8,0.8-1.3c0.2-0.5,0.3-1,0.3-1.5s-0.1-1.1-0.3-1.6c-0.2-0.5-0.4-0.9-0.8-1.3s-0.7-0.7-1.2-0.9c-0.5-0.2-1-0.3-1.6-0.3
				c-0.6,0-1.2,0.1-1.6,0.3s-0.9,0.5-1.2,0.9c-0.3,0.4-0.6,0.8-0.7,1.3S739.5,555.2,739.5,555.8z"/>
			<path d="M760.7,561.5c0-0.3-0.1-0.6-0.1-1c0-0.4,0-0.7,0-0.9h0c-0.3,0.6-0.8,1.1-1.5,1.5c-0.7,0.4-1.4,0.6-2.3,0.6
				c-0.7,0-1.4-0.1-1.9-0.4s-1-0.6-1.3-1c-0.3-0.4-0.6-0.9-0.8-1.5c-0.2-0.6-0.2-1.2-0.2-1.8v-7.1h2.3v6.3c0,0.5,0,0.9,0.1,1.3
				s0.2,0.8,0.4,1.1c0.2,0.3,0.5,0.6,0.8,0.8c0.3,0.2,0.8,0.3,1.3,0.3c0.9,0,1.7-0.3,2.2-1s0.8-1.6,0.8-2.7v-6h2.3v8.9
				c0,0.3,0,0.7,0,1.2c0,0.5,0,0.9,0.1,1.3L760.7,561.5L760.7,561.5z"/>
			<path d="M771.8,551.9h-3v5.9c0,0.7,0.1,1.2,0.4,1.5s0.7,0.4,1.2,0.4c0.2,0,0.4,0,0.7-0.1c0.2,0,0.5-0.1,0.7-0.2l0.1,1.8
				c-0.3,0.1-0.6,0.2-0.9,0.2s-0.7,0.1-1,0.1c-1.1,0-1.9-0.3-2.5-0.9s-0.8-1.5-0.8-2.7v-6.2h-2.2v-1.8h2.2v-3.3h2.2v3.3h3
				L771.8,551.9L771.8,551.9z"/>
			<path d="M777.9,559L777.9,559l3.2-8.9h2.4l-5.5,14.1c-0.2,0.5-0.4,0.9-0.6,1.3c-0.2,0.4-0.5,0.7-0.8,1s-0.7,0.5-1.1,0.6
				c-0.4,0.1-0.9,0.2-1.5,0.2c-0.2,0-0.5,0-0.7,0c-0.2,0-0.5-0.1-0.8-0.1l0.2-2c0.4,0.1,0.8,0.2,1.1,0.2c0.6,0,1-0.2,1.3-0.5
				s0.5-0.8,0.8-1.4l0.7-1.9l-4.9-11.4h2.5L777.9,559z"/>
			<path d="M788.3,565.2c0.3,0.1,0.6,0.1,0.9,0.1c0.3,0,0.6-0.1,0.8-0.2s0.4-0.3,0.5-0.5c0.1-0.2,0.2-0.5,0.2-0.8s0.1-0.6,0.1-1
				v-12.8h2.3v12.8c0,0.6,0,1.1-0.2,1.6s-0.3,1-0.6,1.4s-0.7,0.7-1.1,1c-0.5,0.2-1.1,0.3-1.8,0.3c-0.2,0-0.4,0-0.7,0
				c-0.2,0-0.5-0.1-0.6-0.1L788.3,565.2z M793.4,546c0,0.4-0.2,0.8-0.4,1c-0.3,0.3-0.7,0.4-1.1,0.4s-0.8-0.1-1.1-0.4s-0.4-0.6-0.4-1
				c0-0.4,0.2-0.8,0.4-1c0.3-0.3,0.7-0.4,1.1-0.4s0.8,0.1,1.1,0.4C793.3,545.2,793.4,545.6,793.4,546z"/>
			<path d="M808,555.7c0,0.9-0.2,1.7-0.5,2.4c-0.3,0.7-0.7,1.4-1.3,1.9s-1.2,1-2,1.2s-1.6,0.4-2.4,0.4s-1.7-0.2-2.4-0.4
				c-0.8-0.3-1.4-0.7-1.9-1.2s-1-1.2-1.3-1.9c-0.3-0.7-0.5-1.5-0.5-2.4s0.2-1.7,0.5-2.4s0.7-1.4,1.3-1.9c0.5-0.5,1.2-0.9,1.9-1.2
				s1.6-0.4,2.4-0.4s1.7,0.2,2.4,0.4s1.4,0.7,2,1.2c0.5,0.5,1,1.2,1.3,1.9C807.9,554.1,808,554.9,808,555.7z M805.7,555.8
				c0-0.5-0.1-1.1-0.2-1.6c-0.2-0.5-0.4-0.9-0.7-1.3s-0.7-0.7-1.2-0.9c-0.5-0.2-1-0.3-1.6-0.3s-1.2,0.1-1.6,0.3s-0.9,0.5-1.2,0.9
				s-0.6,0.8-0.7,1.3c-0.2,0.5-0.2,1-0.2,1.6c0,0.5,0.1,1.1,0.2,1.6c0.2,0.5,0.4,0.9,0.7,1.3c0.3,0.4,0.7,0.7,1.2,0.9s1,0.3,1.6,0.3
				c0.6,0,1.2-0.1,1.6-0.3c0.5-0.2,0.9-0.5,1.2-0.9s0.6-0.8,0.7-1.3C805.6,556.8,805.7,556.3,805.7,555.8z"/>
			<path d="M812.9,559.7v1.8h-2.2v-18.1h2.3v8.5h0.1c0.4-0.6,0.9-1,1.6-1.4c0.7-0.4,1.5-0.6,2.4-0.6c0.8,0,1.6,0.2,2.3,0.5
				c0.7,0.3,1.3,0.7,1.8,1.3s0.9,1.2,1.2,1.9c0.3,0.7,0.4,1.5,0.4,2.3s-0.1,1.6-0.4,2.3c-0.3,0.7-0.7,1.4-1.2,1.9s-1.1,1-1.8,1.3
				s-1.5,0.5-2.4,0.5c-0.8,0-1.6-0.2-2.3-0.5S813.4,560.3,812.9,559.7L812.9,559.7L812.9,559.7z M820.5,555.8c0-0.5-0.1-1-0.2-1.5
				c-0.2-0.5-0.4-0.9-0.7-1.3c-0.3-0.4-0.7-0.7-1.2-0.9s-1-0.3-1.6-0.3c-0.6,0-1.1,0.1-1.6,0.3c-0.5,0.2-0.9,0.5-1.2,0.9
				s-0.6,0.8-0.8,1.3s-0.3,1-0.3,1.6c0,0.5,0.1,1.1,0.3,1.5c0.2,0.5,0.4,0.9,0.8,1.3s0.7,0.7,1.2,0.9c0.5,0.2,1,0.3,1.6,0.3
				c0.6,0,1.2-0.1,1.6-0.3c0.5-0.2,0.9-0.5,1.2-0.9s0.6-0.8,0.7-1.3C820.4,556.8,820.5,556.3,820.5,555.8z"/>
			<path d="M831.6,553c-0.3-0.4-0.6-0.8-1.1-1s-1-0.4-1.6-0.4c-0.3,0-0.5,0-0.8,0.1s-0.5,0.1-0.7,0.3s-0.4,0.3-0.5,0.5
				c-0.1,0.2-0.2,0.4-0.2,0.7c0,0.5,0.2,0.8,0.7,1.1c0.4,0.2,1.1,0.4,1.9,0.6c0.5,0.1,1,0.3,1.5,0.5s0.9,0.4,1.2,0.7
				c0.3,0.3,0.6,0.6,0.8,1s0.3,0.8,0.3,1.3c0,0.7-0.1,1.2-0.4,1.7c-0.3,0.5-0.6,0.8-1,1.1c-0.4,0.3-0.9,0.5-1.5,0.6
				s-1.1,0.2-1.7,0.2c-0.9,0-1.7-0.2-2.5-0.5s-1.5-0.8-2-1.5l1.6-1.4c0.3,0.5,0.7,0.8,1.3,1.1c0.5,0.3,1.1,0.5,1.8,0.5
				c0.3,0,0.6,0,0.8-0.1c0.3-0.1,0.5-0.2,0.7-0.3s0.4-0.3,0.5-0.5c0.1-0.2,0.2-0.5,0.2-0.8c0-0.5-0.2-0.9-0.8-1.2
				c-0.5-0.2-1.2-0.5-2.2-0.7c-0.4-0.1-0.8-0.2-1.2-0.3c-0.4-0.1-0.8-0.3-1.1-0.6s-0.6-0.5-0.8-0.9c-0.2-0.4-0.3-0.8-0.3-1.3
				c0-0.6,0.1-1.1,0.4-1.6s0.6-0.8,1-1.1c0.4-0.3,0.9-0.5,1.4-0.6c0.5-0.1,1-0.2,1.6-0.2c0.8,0,1.6,0.2,2.4,0.5s1.3,0.8,1.8,1.4
				L831.6,553z"/>
			<path d="M838.4,560c0,0.4-0.2,0.8-0.5,1.1c-0.3,0.3-0.7,0.5-1.2,0.5c-0.5,0-0.8-0.2-1.1-0.5s-0.5-0.7-0.5-1.1
				c0-0.4,0.2-0.8,0.5-1.1c0.3-0.3,0.7-0.5,1.2-0.5s0.8,0.2,1.2,0.5C838.3,559.2,838.4,559.6,838.4,560z"/>
			<path d="M387,615.5h-2.4v-17h10.6v2.1H387v5.3h7.7v2H387L387,615.5L387,615.5z"/>
			<path d="M408,609.7c0,0.9-0.2,1.7-0.5,2.4s-0.7,1.4-1.3,1.9c-0.5,0.5-1.2,1-2,1.2c-0.8,0.3-1.6,0.4-2.4,0.4
				c-0.9,0-1.7-0.2-2.4-0.4c-0.8-0.3-1.4-0.7-1.9-1.2s-1-1.2-1.3-1.9s-0.5-1.5-0.5-2.4s0.2-1.7,0.5-2.4s0.7-1.4,1.3-1.9
				c0.5-0.5,1.2-0.9,1.9-1.2s1.6-0.4,2.4-0.4c0.9,0,1.7,0.2,2.4,0.4c0.8,0.3,1.4,0.7,2,1.2c0.5,0.5,1,1.2,1.3,1.9
				S408,608.9,408,609.7z M405.7,609.8c0-0.5-0.1-1.1-0.2-1.6c-0.2-0.5-0.4-0.9-0.7-1.3s-0.7-0.7-1.2-0.9s-1-0.3-1.6-0.3
				c-0.6,0-1.1,0.1-1.6,0.3c-0.5,0.2-0.9,0.5-1.2,0.9s-0.6,0.8-0.7,1.3c-0.2,0.5-0.2,1-0.2,1.6c0,0.5,0.1,1.1,0.2,1.6
				c0.2,0.5,0.4,0.9,0.7,1.3c0.3,0.4,0.7,0.7,1.2,0.9s1,0.3,1.6,0.3c0.6,0,1.1-0.1,1.6-0.3s0.9-0.5,1.2-0.9s0.6-0.8,0.7-1.3
				C405.6,610.8,405.7,610.3,405.7,609.8z"/>
			<path d="M410.7,605.3c0-0.5,0-0.9-0.1-1.3h2.1c0,0.3,0.1,0.6,0.1,1c0,0.4,0,0.7,0,0.9h0.1c0.3-0.7,0.8-1.2,1.4-1.6
				c0.6-0.4,1.3-0.6,2.1-0.6c0.4,0,0.6,0,0.9,0.1l-0.1,2.1c-0.3-0.1-0.7-0.1-1-0.1c-0.5,0-1,0.1-1.4,0.3c-0.4,0.2-0.7,0.5-1,0.8
				s-0.5,0.7-0.6,1.2s-0.2,0.9-0.2,1.4v6h-2.3v-8.9C410.7,606.2,410.7,605.8,410.7,605.3z"/>
			<path d="M425.3,617.4c0.5,0.6,1.1,1,1.9,1.3c0.7,0.3,1.5,0.5,2.3,0.5c0.8,0,1.4-0.1,1.9-0.3s0.9-0.5,1.2-0.9
				c0.3-0.4,0.5-0.8,0.7-1.3c0.1-0.5,0.2-1.1,0.2-1.7v-1.5h0c-0.4,0.6-1,1.1-1.7,1.5c-0.7,0.3-1.5,0.5-2.3,0.5
				c-0.9,0-1.6-0.2-2.4-0.5c-0.7-0.3-1.3-0.7-1.8-1.2s-0.9-1.2-1.1-1.9s-0.4-1.5-0.4-2.3c0-0.8,0.1-1.6,0.4-2.3s0.7-1.3,1.1-1.9
				s1.1-1,1.8-1.3c0.7-0.3,1.5-0.5,2.4-0.5c0.8,0,1.6,0.2,2.3,0.5s1.3,0.9,1.8,1.6h0v-1.8h2.2v10.8c0,0.8-0.1,1.6-0.3,2.4
				s-0.6,1.4-1.1,2c-0.5,0.6-1.1,1-1.9,1.4c-0.8,0.3-1.8,0.5-3,0.5c-1,0-2-0.2-3-0.5s-1.9-0.9-2.6-1.5L425.3,617.4z M426,609.7
				c0,0.5,0.1,1,0.2,1.5s0.4,0.9,0.8,1.3s0.7,0.7,1.2,0.9c0.5,0.2,1,0.3,1.6,0.3c0.6,0,1.1-0.1,1.6-0.3s0.9-0.5,1.2-0.8
				s0.6-0.8,0.8-1.3s0.3-1,0.3-1.6c0-0.5-0.1-1.1-0.3-1.5c-0.2-0.5-0.5-0.9-0.8-1.3c-0.4-0.4-0.8-0.7-1.2-0.9
				c-0.5-0.2-1-0.3-1.6-0.3c-0.6,0-1.1,0.1-1.6,0.3c-0.5,0.2-0.9,0.5-1.2,0.9c-0.3,0.4-0.6,0.8-0.8,1.3
				C426.1,608.6,426,609.1,426,609.7z"/>
			<path d="M449.7,609.7c0,0.1,0,0.3,0,0.4s0,0.3,0,0.4h-9c0,0.5,0.1,0.9,0.3,1.3s0.5,0.8,0.8,1.1s0.7,0.5,1.2,0.7s0.9,0.3,1.4,0.3
				c0.8,0,1.4-0.2,2-0.5s1-0.7,1.3-1.2l1.6,1.3c-0.6,0.8-1.3,1.4-2.1,1.8c-0.8,0.4-1.7,0.6-2.8,0.6c-0.9,0-1.7-0.1-2.4-0.4
				s-1.4-0.7-1.9-1.2s-0.9-1.2-1.2-1.9c-0.3-0.7-0.5-1.5-0.5-2.5c0-0.9,0.1-1.7,0.4-2.4c0.3-0.7,0.7-1.4,1.2-1.9
				c0.5-0.5,1.1-0.9,1.9-1.2c0.7-0.3,1.5-0.4,2.3-0.4s1.6,0.1,2.3,0.4c0.7,0.3,1.3,0.7,1.7,1.2c0.5,0.5,0.8,1.1,1.1,1.9
				C449.6,607.9,449.7,608.8,449.7,609.7z M447.4,608.8c0-0.5-0.1-0.9-0.2-1.3s-0.3-0.7-0.6-1c-0.3-0.3-0.6-0.5-1-0.7
				s-0.9-0.2-1.4-0.2c-0.5,0-0.9,0.1-1.4,0.2c-0.4,0.2-0.8,0.4-1.1,0.7s-0.6,0.6-0.8,1c-0.2,0.4-0.3,0.8-0.4,1.3H447.4z"/>
			<path d="M454.4,604.1c0,0.3,0.1,0.6,0.1,1c0,0.4,0,0.7,0,0.9h0.1c0.1-0.3,0.3-0.6,0.6-0.8c0.2-0.3,0.5-0.5,0.9-0.7
				s0.7-0.4,1.1-0.5c0.4-0.1,0.8-0.2,1.2-0.2c0.7,0,1.4,0.1,1.9,0.4s1,0.6,1.3,1s0.6,0.9,0.8,1.5s0.2,1.2,0.2,1.8v7.1h-2.3v-6.3
				c0-0.5,0-0.9-0.1-1.3c-0.1-0.4-0.2-0.8-0.4-1.1c-0.2-0.3-0.5-0.6-0.8-0.8c-0.3-0.2-0.8-0.3-1.3-0.3c-0.9,0-1.6,0.3-2.2,1
				s-0.9,1.6-0.9,2.7v6h-2.3v-8.9c0-0.3,0-0.7,0-1.2c0-0.5,0-0.9-0.1-1.3L454.4,604.1L454.4,604.1z"/>
			<path d="M476.5,609.7c0,0.1,0,0.3,0,0.4s0,0.3,0,0.4h-9c0,0.5,0.1,0.9,0.3,1.3s0.5,0.8,0.8,1.1s0.7,0.5,1.2,0.7s0.9,0.3,1.4,0.3
				c0.8,0,1.4-0.2,2-0.5s1-0.7,1.3-1.2l1.6,1.3c-0.6,0.8-1.3,1.4-2.1,1.8c-0.8,0.4-1.7,0.6-2.8,0.6c-0.9,0-1.7-0.1-2.4-0.4
				s-1.4-0.7-1.9-1.2s-0.9-1.2-1.2-1.9c-0.3-0.7-0.5-1.5-0.5-2.5c0-0.9,0.1-1.7,0.4-2.4c0.3-0.7,0.7-1.4,1.2-1.9
				c0.5-0.5,1.1-0.9,1.9-1.2c0.7-0.3,1.5-0.4,2.3-0.4s1.6,0.1,2.3,0.4c0.7,0.3,1.3,0.7,1.7,1.2c0.5,0.5,0.8,1.1,1.1,1.9
				C476.4,607.9,476.5,608.8,476.5,609.7z M474.2,608.8c0-0.5-0.1-0.9-0.2-1.3s-0.3-0.7-0.6-1c-0.3-0.3-0.6-0.5-1-0.7
				s-0.9-0.2-1.4-0.2c-0.5,0-0.9,0.1-1.4,0.2c-0.4,0.2-0.8,0.4-1.1,0.7s-0.6,0.6-0.8,1c-0.2,0.4-0.3,0.8-0.4,1.3H474.2z"/>
			<path d="M479.1,605.3c0-0.5,0-0.9-0.1-1.3h2.1c0,0.3,0.1,0.6,0.1,1c0,0.4,0,0.7,0,0.9h0.1c0.3-0.7,0.8-1.2,1.4-1.6
				c0.6-0.4,1.3-0.6,2.1-0.6c0.4,0,0.6,0,0.9,0.1l-0.1,2.1c-0.3-0.1-0.7-0.1-1-0.1c-0.5,0-1,0.1-1.4,0.3c-0.4,0.2-0.7,0.5-1,0.8
				s-0.5,0.7-0.6,1.2s-0.2,0.9-0.2,1.4v6h-2.3v-8.9C479.1,606.2,479.1,605.8,479.1,605.3z"/>
			<path d="M494.1,608.1c0-0.8-0.3-1.5-0.8-1.9c-0.5-0.4-1.2-0.6-2-0.6c-0.6,0-1.2,0.1-1.8,0.4s-1,0.6-1.4,1l-1.2-1.4
				c0.6-0.5,1.2-0.9,2-1.2c0.8-0.3,1.7-0.5,2.6-0.5c0.8,0,1.5,0.1,2.1,0.3s1.1,0.5,1.5,1c0.4,0.4,0.7,0.9,0.9,1.4
				c0.2,0.5,0.3,1.1,0.3,1.8v5c0,0.4,0,0.8,0,1.2c0,0.4,0.1,0.8,0.1,1h-2c-0.1-0.5-0.2-1.1-0.2-1.6h-0.1c-0.4,0.6-0.9,1.1-1.6,1.4
				c-0.6,0.3-1.4,0.5-2.2,0.5c-0.5,0-0.9-0.1-1.4-0.2c-0.5-0.1-0.9-0.3-1.3-0.6s-0.7-0.6-1-1.1c-0.3-0.5-0.4-1-0.4-1.7
				c0-0.9,0.2-1.5,0.7-2s1.1-0.9,1.8-1.2s1.6-0.4,2.5-0.5s1.9-0.1,2.9-0.1L494.1,608.1L494.1,608.1z M493.6,610
				c-0.6,0-1.1,0-1.7,0.1s-1.1,0.1-1.6,0.3c-0.5,0.1-0.9,0.4-1.2,0.7c-0.3,0.3-0.5,0.7-0.5,1.2c0,0.3,0.1,0.6,0.2,0.8
				c0.1,0.2,0.3,0.4,0.5,0.5s0.5,0.2,0.7,0.3s0.5,0.1,0.8,0.1c1.1,0,1.9-0.3,2.4-1s0.9-1.4,0.9-2.4V610L493.6,610L493.6,610z"/>
			<path d="M501.9,615.5h-2.3v-18.1h2.3V615.5z"/>
			<path d="M518.8,607c-0.2-0.4-0.6-0.7-1.1-0.9c-0.5-0.2-1-0.4-1.5-0.4c-0.6,0-1.1,0.1-1.6,0.3s-0.8,0.5-1.2,0.9
				c-0.3,0.4-0.6,0.8-0.7,1.3s-0.2,1-0.2,1.6s0.1,1.1,0.2,1.6s0.4,0.9,0.7,1.3s0.7,0.7,1.2,0.9c0.5,0.2,1,0.3,1.6,0.3
				c0.6,0,1.1-0.1,1.6-0.3c0.5-0.2,0.9-0.5,1.2-0.9l1.5,1.4c-0.5,0.6-1.1,1-1.8,1.3s-1.5,0.5-2.5,0.5c-0.9,0-1.7-0.1-2.4-0.4
				s-1.4-0.7-1.9-1.2c-0.5-0.5-1-1.2-1.3-1.9c-0.3-0.7-0.5-1.6-0.5-2.5c0-0.9,0.1-1.7,0.5-2.5c0.3-0.7,0.7-1.4,1.3-1.9
				s1.2-0.9,1.9-1.2c0.7-0.3,1.5-0.4,2.4-0.4c0.8,0,1.6,0.2,2.4,0.5s1.4,0.8,1.9,1.4L518.8,607z"/>
			<path d="M524.5,615.5h-2.3v-18.1h2.3V615.5z"/>
			<path d="M538.6,609.7c0,0.1,0,0.3,0,0.4s0,0.3,0,0.4h-9c0,0.5,0.1,0.9,0.3,1.3s0.5,0.8,0.8,1.1s0.7,0.5,1.2,0.7s0.9,0.3,1.4,0.3
				c0.8,0,1.4-0.2,2-0.5c0.6-0.3,1-0.7,1.3-1.2l1.6,1.3c-0.6,0.8-1.3,1.4-2.2,1.8c-0.8,0.4-1.7,0.6-2.8,0.6c-0.9,0-1.7-0.1-2.4-0.4
				s-1.4-0.7-1.9-1.2s-0.9-1.2-1.2-1.9c-0.3-0.7-0.5-1.5-0.5-2.5c0-0.9,0.2-1.7,0.4-2.4s0.7-1.4,1.2-1.9c0.5-0.5,1.2-0.9,1.9-1.2
				s1.5-0.4,2.3-0.4s1.6,0.1,2.3,0.4c0.7,0.3,1.3,0.7,1.7,1.2c0.5,0.5,0.8,1.1,1.1,1.9C538.5,607.9,538.6,608.8,538.6,609.7z
				 M536.3,608.8c0-0.5-0.1-0.9-0.2-1.3s-0.3-0.7-0.6-1c-0.3-0.3-0.6-0.5-1-0.7c-0.4-0.2-0.8-0.2-1.4-0.2c-0.5,0-0.9,0.1-1.4,0.2
				s-0.8,0.4-1.1,0.7c-0.3,0.3-0.6,0.6-0.8,1s-0.3,0.8-0.3,1.3H536.3z"/>
			<path d="M548.2,608.1c0-0.8-0.3-1.5-0.8-1.9c-0.5-0.4-1.2-0.6-2-0.6c-0.6,0-1.2,0.1-1.8,0.4s-1,0.6-1.4,1l-1.2-1.4
				c0.6-0.5,1.2-0.9,2-1.2c0.8-0.3,1.7-0.5,2.6-0.5c0.8,0,1.5,0.1,2.1,0.3s1.1,0.5,1.5,1c0.4,0.4,0.7,0.9,0.9,1.4
				c0.2,0.5,0.3,1.1,0.3,1.8v5c0,0.4,0,0.8,0,1.2c0,0.4,0.1,0.8,0.1,1h-2c-0.1-0.5-0.2-1.1-0.2-1.6h-0.1c-0.4,0.6-0.9,1.1-1.6,1.4
				s-1.4,0.5-2.2,0.5c-0.5,0-0.9-0.1-1.4-0.2c-0.5-0.1-0.9-0.3-1.3-0.6s-0.7-0.6-1-1.1c-0.3-0.5-0.4-1-0.4-1.7c0-0.9,0.2-1.5,0.7-2
				s1.1-0.9,1.8-1.2s1.6-0.4,2.5-0.5s1.9-0.1,2.9-0.1L548.2,608.1L548.2,608.1z M547.6,610c-0.6,0-1.1,0-1.7,0.1s-1.1,0.1-1.6,0.3
				c-0.5,0.1-0.9,0.4-1.2,0.7s-0.5,0.7-0.5,1.2c0,0.3,0.1,0.6,0.2,0.8c0.1,0.2,0.3,0.4,0.5,0.5s0.5,0.2,0.7,0.3s0.5,0.1,0.8,0.1
				c1.1,0,1.9-0.3,2.4-1s0.8-1.4,0.8-2.4V610L547.6,610L547.6,610z"/>
			<path d="M555.7,604.1c0,0.3,0.1,0.6,0.1,1s0,0.7,0,0.9h0.1c0.1-0.3,0.3-0.6,0.6-0.8c0.2-0.3,0.5-0.5,0.8-0.7s0.7-0.4,1.1-0.5
				c0.4-0.1,0.8-0.2,1.2-0.2c0.7,0,1.4,0.1,1.9,0.4s1,0.6,1.3,1c0.3,0.4,0.6,0.9,0.8,1.5c0.2,0.6,0.2,1.2,0.2,1.8v7.1h-2.3v-6.3
				c0-0.5,0-0.9-0.1-1.3s-0.2-0.8-0.4-1.1c-0.2-0.3-0.5-0.6-0.8-0.8c-0.3-0.2-0.8-0.3-1.3-0.3c-0.9,0-1.6,0.3-2.2,1
				s-0.8,1.6-0.8,2.7v6h-2.3v-8.9c0-0.3,0-0.7,0-1.2c0-0.5,0-0.9-0.1-1.3L555.7,604.1L555.7,604.1z"/>
			<path d="M569.8,600c0,0.4-0.2,0.8-0.4,1s-0.7,0.4-1.1,0.4s-0.8-0.1-1-0.4c-0.3-0.3-0.4-0.6-0.4-1c0-0.4,0.1-0.8,0.4-1
				c0.3-0.3,0.6-0.4,1-0.4s0.8,0.1,1.1,0.4C569.6,599.2,569.8,599.6,569.8,600z M569.4,615.5h-2.3v-11.4h2.3V615.5z"/>
			<path d="M574.9,604.1c0,0.3,0.1,0.6,0.1,1s0,0.7,0,0.9h0.1c0.1-0.3,0.3-0.6,0.6-0.8c0.2-0.3,0.5-0.5,0.8-0.7s0.7-0.4,1.1-0.5
				c0.4-0.1,0.8-0.2,1.2-0.2c0.7,0,1.4,0.1,1.9,0.4s1,0.6,1.3,1c0.3,0.4,0.6,0.9,0.8,1.5c0.2,0.6,0.2,1.2,0.2,1.8v7.1h-2.3v-6.3
				c0-0.5,0-0.9-0.1-1.3s-0.2-0.8-0.4-1.1c-0.2-0.3-0.5-0.6-0.8-0.8c-0.3-0.2-0.8-0.3-1.3-0.3c-0.9,0-1.6,0.3-2.2,1
				s-0.8,1.6-0.8,2.7v6h-2.3v-8.9c0-0.3,0-0.7,0-1.2c0-0.5,0-0.9-0.1-1.3L574.9,604.1L574.9,604.1z"/>
			<path d="M587.2,617.4c0.5,0.6,1.1,1,1.9,1.3c0.7,0.3,1.5,0.5,2.3,0.5c0.8,0,1.4-0.1,1.9-0.3s0.9-0.5,1.2-0.9
				c0.3-0.4,0.5-0.8,0.7-1.3c0.1-0.5,0.2-1.1,0.2-1.7v-1.5h0c-0.4,0.6-1,1.1-1.7,1.5c-0.7,0.3-1.5,0.5-2.3,0.5
				c-0.9,0-1.7-0.2-2.4-0.5c-0.7-0.3-1.3-0.7-1.8-1.2s-0.9-1.2-1.2-1.9c-0.3-0.7-0.4-1.5-0.4-2.3c0-0.8,0.1-1.6,0.4-2.3
				c0.3-0.7,0.7-1.3,1.2-1.9s1.1-1,1.8-1.3s1.5-0.5,2.3-0.5c0.8,0,1.6,0.2,2.3,0.5s1.3,0.9,1.8,1.6h0v-1.8h2.2v10.8
				c0,0.8-0.1,1.6-0.3,2.4s-0.6,1.4-1.1,2c-0.5,0.6-1.1,1-1.9,1.4c-0.8,0.3-1.8,0.5-3,0.5c-1,0-2-0.2-3-0.5s-1.9-0.9-2.6-1.5
				L587.2,617.4z M587.9,609.7c0,0.5,0.1,1,0.2,1.5s0.4,0.9,0.8,1.3s0.7,0.7,1.2,0.9c0.5,0.2,1,0.3,1.6,0.3c0.6,0,1.1-0.1,1.6-0.3
				s0.9-0.5,1.2-0.8c0.3-0.4,0.6-0.8,0.8-1.3c0.2-0.5,0.3-1,0.3-1.6c0-0.5-0.1-1.1-0.3-1.5c-0.2-0.5-0.5-0.9-0.8-1.3
				c-0.3-0.4-0.8-0.7-1.2-0.9c-0.5-0.2-1-0.3-1.6-0.3c-0.6,0-1.1,0.1-1.6,0.3s-0.9,0.5-1.2,0.9s-0.6,0.8-0.8,1.3
				C588,608.6,587.9,609.1,587.9,609.7z"/>
			<path d="M612.1,605.9h-3v5.9c0,0.7,0.1,1.2,0.4,1.5s0.7,0.4,1.2,0.4c0.2,0,0.4,0,0.7-0.1c0.2,0,0.5-0.1,0.7-0.2l0.1,1.8
				c-0.3,0.1-0.6,0.2-0.9,0.2s-0.7,0.1-1,0.1c-1.1,0-1.9-0.3-2.5-0.9s-0.8-1.5-0.8-2.7v-6.2h-2.2v-1.8h2.2v-3.3h2.2v3.3h3
				L612.1,605.9L612.1,605.9z"/>
			<path d="M625.5,609.7c0,0.9-0.2,1.7-0.5,2.4c-0.3,0.7-0.7,1.4-1.3,1.9s-1.2,1-2,1.2s-1.6,0.4-2.4,0.4s-1.7-0.2-2.4-0.4
				c-0.8-0.3-1.4-0.7-1.9-1.2s-1-1.2-1.3-1.9c-0.3-0.7-0.5-1.5-0.5-2.4s0.2-1.7,0.5-2.4s0.7-1.4,1.3-1.9c0.5-0.5,1.2-0.9,1.9-1.2
				s1.6-0.4,2.4-0.4s1.7,0.2,2.4,0.4s1.4,0.7,2,1.2c0.5,0.5,1,1.2,1.3,1.9C625.3,608.1,625.5,608.9,625.5,609.7z M623.1,609.8
				c0-0.5-0.1-1.1-0.2-1.6c-0.2-0.5-0.4-0.9-0.7-1.3s-0.7-0.7-1.2-0.9c-0.5-0.2-1-0.3-1.6-0.3s-1.2,0.1-1.6,0.3s-0.9,0.5-1.2,0.9
				s-0.6,0.8-0.7,1.3c-0.2,0.5-0.2,1-0.2,1.6c0,0.5,0.1,1.1,0.2,1.6c0.2,0.5,0.4,0.9,0.7,1.3c0.3,0.4,0.7,0.7,1.2,0.9s1,0.3,1.6,0.3
				c0.6,0,1.2-0.1,1.6-0.3c0.5-0.2,0.9-0.5,1.2-0.9s0.6-0.8,0.7-1.3C623,610.8,623.1,610.3,623.1,609.8z"/>
			<path d="M636,605.8c0.3-0.6,0.7-1,1.4-1.4c0.7-0.4,1.4-0.6,2.2-0.6c0.7,0,1.4,0.1,1.9,0.4s1,0.6,1.3,1c0.3,0.4,0.6,0.9,0.8,1.5
				c0.2,0.6,0.2,1.2,0.2,1.8v7.1h-2.3v-6.3c0-0.5,0-0.9-0.1-1.3c-0.1-0.4-0.2-0.8-0.4-1.1c-0.2-0.3-0.5-0.6-0.8-0.8
				s-0.8-0.3-1.3-0.3c-0.9,0-1.6,0.3-2.2,1s-0.9,1.6-0.9,2.7v6h-2.3v-18.1h2.3L636,605.8L636,605.8L636,605.8z"/>
			<path d="M657.8,609.7c0,0.1,0,0.3,0,0.4s0,0.3,0,0.4h-9c0,0.5,0.1,0.9,0.3,1.3s0.5,0.8,0.8,1.1s0.7,0.5,1.2,0.7s0.9,0.3,1.4,0.3
				c0.8,0,1.4-0.2,2-0.5c0.6-0.3,1-0.7,1.3-1.2l1.6,1.3c-0.6,0.8-1.3,1.4-2.2,1.8c-0.8,0.4-1.7,0.6-2.8,0.6c-0.9,0-1.7-0.1-2.4-0.4
				s-1.4-0.7-1.9-1.2s-0.9-1.2-1.2-1.9c-0.3-0.7-0.5-1.5-0.5-2.5c0-0.9,0.2-1.7,0.4-2.4s0.7-1.4,1.2-1.9c0.5-0.5,1.2-0.9,1.9-1.2
				s1.5-0.4,2.3-0.4s1.6,0.1,2.3,0.4c0.7,0.3,1.3,0.7,1.7,1.2c0.5,0.5,0.8,1.1,1.1,1.9C657.7,607.9,657.8,608.8,657.8,609.7z
				 M655.5,608.8c0-0.5-0.1-0.9-0.2-1.3s-0.3-0.7-0.6-1c-0.3-0.3-0.6-0.5-1-0.7c-0.4-0.2-0.8-0.2-1.4-0.2c-0.5,0-0.9,0.1-1.4,0.2
				s-0.8,0.4-1.1,0.7c-0.3,0.3-0.6,0.6-0.8,1s-0.3,0.8-0.3,1.3H655.5z"/>
			<path d="M667.4,608.1c0-0.8-0.3-1.5-0.8-1.9c-0.5-0.4-1.2-0.6-2-0.6c-0.6,0-1.2,0.1-1.8,0.4s-1,0.6-1.4,1l-1.2-1.4
				c0.6-0.5,1.2-0.9,2-1.2c0.8-0.3,1.7-0.5,2.6-0.5c0.8,0,1.5,0.1,2.1,0.3s1.1,0.5,1.5,1c0.4,0.4,0.7,0.9,0.9,1.4
				c0.2,0.5,0.3,1.1,0.3,1.8v5c0,0.4,0,0.8,0,1.2c0,0.4,0.1,0.8,0.1,1h-2c-0.1-0.5-0.2-1.1-0.2-1.6h-0.1c-0.4,0.6-0.9,1.1-1.6,1.4
				s-1.4,0.5-2.2,0.5c-0.5,0-0.9-0.1-1.4-0.2c-0.5-0.1-0.9-0.3-1.3-0.6s-0.7-0.6-1-1.1c-0.3-0.5-0.4-1-0.4-1.7c0-0.9,0.2-1.5,0.7-2
				s1.1-0.9,1.8-1.2s1.6-0.4,2.5-0.5s1.9-0.1,2.9-0.1L667.4,608.1L667.4,608.1z M666.8,610c-0.6,0-1.1,0-1.7,0.1s-1.1,0.1-1.6,0.3
				c-0.5,0.1-0.9,0.4-1.2,0.7s-0.5,0.7-0.5,1.2c0,0.3,0.1,0.6,0.2,0.8c0.1,0.2,0.3,0.4,0.5,0.5s0.5,0.2,0.7,0.3s0.5,0.1,0.8,0.1
				c1.1,0,1.9-0.3,2.4-1s0.8-1.4,0.8-2.4V610L666.8,610L666.8,610z"/>
			<path d="M678.2,615.5h-2.5l-4.6-11.4h2.5l3.3,9h0l3.4-9h2.4L678.2,615.5z"/>
			<path d="M688.8,613L688.8,613l3.2-8.9h2.4l-5.5,14.1c-0.2,0.5-0.4,0.9-0.6,1.3c-0.2,0.4-0.5,0.7-0.8,1s-0.7,0.5-1.1,0.6
				c-0.4,0.1-0.9,0.2-1.5,0.2c-0.2,0-0.5,0-0.7,0c-0.2,0-0.5-0.1-0.8-0.1l0.2-2c0.4,0.1,0.8,0.2,1.1,0.2c0.6,0,1-0.2,1.3-0.5
				s0.5-0.8,0.8-1.4l0.7-1.9l-4.9-11.4h2.5L688.8,613z"/>
			<path d="M710.7,613.7c-0.4,0.7-1,1.2-1.8,1.6s-1.5,0.5-2.3,0.5c-0.9,0-1.7-0.2-2.4-0.5s-1.3-0.7-1.8-1.3
				c-0.5-0.5-0.9-1.2-1.2-1.9s-0.4-1.5-0.4-2.3s0.1-1.6,0.4-2.3c0.3-0.7,0.7-1.4,1.2-1.9s1.1-1,1.8-1.3c0.7-0.3,1.5-0.5,2.3-0.5
				c0.9,0,1.7,0.2,2.4,0.6c0.7,0.4,1.2,0.9,1.6,1.4h0v-8.5h2.3v18.1h-2.2L710.7,613.7L710.7,613.7L710.7,613.7z M703.2,609.8
				c0,0.5,0.1,1,0.2,1.5c0.2,0.5,0.4,0.9,0.7,1.3c0.3,0.4,0.7,0.7,1.2,0.9c0.5,0.2,1,0.3,1.6,0.3c0.6,0,1.1-0.1,1.6-0.3
				c0.5-0.2,0.9-0.5,1.2-0.9s0.6-0.8,0.8-1.3c0.2-0.5,0.3-1,0.3-1.5s-0.1-1.1-0.3-1.6c-0.2-0.5-0.4-0.9-0.8-1.3s-0.7-0.7-1.2-0.9
				c-0.5-0.2-1-0.3-1.6-0.3c-0.6,0-1.2,0.1-1.6,0.3s-0.9,0.5-1.2,0.9c-0.3,0.4-0.6,0.8-0.7,1.3S703.2,609.2,703.2,609.8z"/>
			<path d="M727,609.7c0,0.1,0,0.3,0,0.4s0,0.3,0,0.4h-9c0,0.5,0.1,0.9,0.3,1.3s0.5,0.8,0.8,1.1s0.7,0.5,1.2,0.7s0.9,0.3,1.4,0.3
				c0.8,0,1.4-0.2,2-0.5c0.6-0.3,1-0.7,1.3-1.2l1.6,1.3c-0.6,0.8-1.3,1.4-2.2,1.8c-0.8,0.4-1.7,0.6-2.8,0.6c-0.9,0-1.7-0.1-2.4-0.4
				s-1.4-0.7-1.9-1.2s-0.9-1.2-1.2-1.9c-0.3-0.7-0.5-1.5-0.5-2.5c0-0.9,0.2-1.7,0.4-2.4s0.7-1.4,1.2-1.9c0.5-0.5,1.2-0.9,1.9-1.2
				s1.5-0.4,2.3-0.4s1.6,0.1,2.3,0.4c0.7,0.3,1.3,0.7,1.7,1.2c0.5,0.5,0.8,1.1,1.1,1.9C726.8,607.9,727,608.8,727,609.7z
				 M724.7,608.8c0-0.5-0.1-0.9-0.2-1.3s-0.3-0.7-0.6-1c-0.3-0.3-0.6-0.5-1-0.7c-0.4-0.2-0.8-0.2-1.4-0.2c-0.5,0-0.9,0.1-1.4,0.2
				s-0.8,0.4-1.1,0.7c-0.3,0.3-0.6,0.6-0.8,1s-0.3,0.8-0.3,1.3H724.7z"/>
			<path d="M730.5,617.4c0.5,0.6,1.1,1,1.9,1.3c0.7,0.3,1.5,0.5,2.3,0.5c0.8,0,1.4-0.1,1.9-0.3s0.9-0.5,1.2-0.9
				c0.3-0.4,0.5-0.8,0.7-1.3c0.1-0.5,0.2-1.1,0.2-1.7v-1.5h0c-0.4,0.6-1,1.1-1.7,1.5c-0.7,0.3-1.5,0.5-2.3,0.5
				c-0.9,0-1.7-0.2-2.4-0.5c-0.7-0.3-1.3-0.7-1.8-1.2s-0.9-1.2-1.2-1.9c-0.3-0.7-0.4-1.5-0.4-2.3c0-0.8,0.1-1.6,0.4-2.3
				c0.3-0.7,0.7-1.3,1.2-1.9s1.1-1,1.8-1.3s1.5-0.5,2.3-0.5c0.8,0,1.6,0.2,2.3,0.5s1.3,0.9,1.8,1.6h0v-1.8h2.2v10.8
				c0,0.8-0.1,1.6-0.3,2.4s-0.6,1.4-1.1,2c-0.5,0.6-1.1,1-1.9,1.4c-0.8,0.3-1.8,0.5-3,0.5c-1,0-2-0.2-3-0.5s-1.9-0.9-2.6-1.5
				L730.5,617.4z M731.2,609.7c0,0.5,0.1,1,0.2,1.5s0.4,0.9,0.8,1.3s0.7,0.7,1.2,0.9c0.5,0.2,1,0.3,1.6,0.3c0.6,0,1.1-0.1,1.6-0.3
				s0.9-0.5,1.2-0.8c0.3-0.4,0.6-0.8,0.8-1.3c0.2-0.5,0.3-1,0.3-1.6c0-0.5-0.1-1.1-0.3-1.5c-0.2-0.5-0.5-0.9-0.8-1.3
				c-0.3-0.4-0.8-0.7-1.2-0.9c-0.5-0.2-1-0.3-1.6-0.3c-0.6,0-1.1,0.1-1.6,0.3s-0.9,0.5-1.2,0.9s-0.6,0.8-0.8,1.3
				C731.3,608.6,731.2,609.1,731.2,609.7z"/>
			<path d="M744.3,605.3c0-0.5,0-0.9-0.1-1.3h2.1c0,0.3,0.1,0.6,0.1,1s0,0.7,0,0.9h0.1c0.3-0.7,0.8-1.2,1.4-1.6s1.3-0.6,2.1-0.6
				c0.3,0,0.7,0,0.9,0.1l-0.1,2.1c-0.3-0.1-0.7-0.1-1-0.1c-0.5,0-1,0.1-1.4,0.3c-0.4,0.2-0.7,0.5-1,0.8c-0.3,0.3-0.5,0.7-0.6,1.2
				s-0.2,0.9-0.2,1.4v6h-2.3v-8.9C744.3,606.2,744.3,605.8,744.3,605.3z"/>
			<path d="M762.7,609.7c0,0.1,0,0.3,0,0.4s0,0.3,0,0.4h-9c0,0.5,0.1,0.9,0.3,1.3s0.5,0.8,0.8,1.1s0.7,0.5,1.2,0.7s0.9,0.3,1.4,0.3
				c0.8,0,1.4-0.2,2-0.5c0.6-0.3,1-0.7,1.3-1.2l1.6,1.3c-0.6,0.8-1.3,1.4-2.2,1.8c-0.8,0.4-1.7,0.6-2.8,0.6c-0.9,0-1.7-0.1-2.4-0.4
				s-1.4-0.7-1.9-1.2s-0.9-1.2-1.2-1.9c-0.3-0.7-0.5-1.5-0.5-2.5c0-0.9,0.2-1.7,0.4-2.4s0.7-1.4,1.2-1.9c0.5-0.5,1.2-0.9,1.9-1.2
				s1.5-0.4,2.3-0.4s1.6,0.1,2.3,0.4c0.7,0.3,1.3,0.7,1.7,1.2c0.5,0.5,0.8,1.1,1.1,1.9C762.6,607.9,762.7,608.8,762.7,609.7z
				 M760.4,608.8c0-0.5-0.1-0.9-0.2-1.3s-0.3-0.7-0.6-1c-0.3-0.3-0.6-0.5-1-0.7c-0.4-0.2-0.8-0.2-1.4-0.2c-0.5,0-0.9,0.1-1.4,0.2
				s-0.8,0.4-1.1,0.7c-0.3,0.3-0.6,0.6-0.8,1s-0.3,0.8-0.3,1.3H760.4z"/>
			<path d="M772.3,608.1c0-0.8-0.3-1.5-0.8-1.9c-0.5-0.4-1.2-0.6-2-0.6c-0.6,0-1.2,0.1-1.8,0.4s-1,0.6-1.4,1l-1.2-1.4
				c0.6-0.5,1.2-0.9,2-1.2c0.8-0.3,1.7-0.5,2.6-0.5c0.8,0,1.5,0.1,2.1,0.3s1.1,0.5,1.5,1c0.4,0.4,0.7,0.9,0.9,1.4
				c0.2,0.5,0.3,1.1,0.3,1.8v5c0,0.4,0,0.8,0,1.2c0,0.4,0.1,0.8,0.1,1h-2c-0.1-0.5-0.2-1.1-0.2-1.6h-0.1c-0.4,0.6-0.9,1.1-1.6,1.4
				s-1.4,0.5-2.2,0.5c-0.5,0-0.9-0.1-1.4-0.2c-0.5-0.1-0.9-0.3-1.3-0.6s-0.7-0.6-1-1.1c-0.3-0.5-0.4-1-0.4-1.7c0-0.9,0.2-1.5,0.7-2
				s1.1-0.9,1.8-1.2s1.6-0.4,2.5-0.5s1.9-0.1,2.9-0.1L772.3,608.1L772.3,608.1z M771.7,610c-0.6,0-1.1,0-1.7,0.1s-1.1,0.1-1.6,0.3
				c-0.5,0.1-0.9,0.4-1.2,0.7s-0.5,0.7-0.5,1.2c0,0.3,0.1,0.6,0.2,0.8c0.1,0.2,0.3,0.4,0.5,0.5s0.5,0.2,0.7,0.3s0.5,0.1,0.8,0.1
				c1.1,0,1.9-0.3,2.4-1s0.8-1.4,0.8-2.4V610L771.7,610L771.7,610z"/>
			<path d="M783.9,607c-0.3-0.4-0.6-0.8-1.1-1s-1-0.4-1.6-0.4c-0.3,0-0.5,0-0.8,0.1s-0.5,0.1-0.7,0.3s-0.4,0.3-0.5,0.5
				c-0.1,0.2-0.2,0.4-0.2,0.7c0,0.5,0.2,0.8,0.7,1.1c0.4,0.2,1.1,0.4,1.9,0.6c0.5,0.1,1,0.3,1.5,0.5s0.9,0.4,1.2,0.7
				c0.3,0.3,0.6,0.6,0.8,1s0.3,0.8,0.3,1.3c0,0.7-0.1,1.2-0.4,1.7c-0.3,0.5-0.6,0.8-1,1.1c-0.4,0.3-0.9,0.5-1.5,0.6
				s-1.1,0.2-1.7,0.2c-0.9,0-1.7-0.2-2.5-0.5s-1.5-0.8-2-1.5l1.6-1.4c0.3,0.5,0.7,0.8,1.3,1.1c0.5,0.3,1.1,0.5,1.8,0.5
				c0.3,0,0.6,0,0.8-0.1c0.3-0.1,0.5-0.2,0.7-0.3s0.4-0.3,0.5-0.5c0.1-0.2,0.2-0.5,0.2-0.8c0-0.5-0.2-0.9-0.8-1.2
				c-0.5-0.2-1.2-0.5-2.2-0.7c-0.4-0.1-0.8-0.2-1.2-0.3c-0.4-0.1-0.8-0.3-1.1-0.6s-0.6-0.5-0.8-0.9c-0.2-0.4-0.3-0.8-0.3-1.3
				c0-0.6,0.1-1.1,0.4-1.6s0.6-0.8,1-1.1c0.4-0.3,0.9-0.5,1.4-0.6c0.5-0.1,1-0.2,1.6-0.2c0.8,0,1.6,0.2,2.4,0.5s1.3,0.8,1.8,1.4
				L783.9,607z"/>
			<path d="M790.5,600c0,0.4-0.2,0.8-0.4,1s-0.7,0.4-1.1,0.4s-0.8-0.1-1-0.4c-0.3-0.3-0.4-0.6-0.4-1c0-0.4,0.1-0.8,0.4-1
				c0.3-0.3,0.6-0.4,1-0.4s0.8,0.1,1.1,0.4C790.4,599.2,790.5,599.6,790.5,600z M790.2,615.5h-2.3v-11.4h2.3V615.5z"/>
			<path d="M795.7,604.1c0,0.3,0.1,0.6,0.1,1s0,0.7,0,0.9h0.1c0.1-0.3,0.3-0.6,0.6-0.8c0.2-0.3,0.5-0.5,0.8-0.7s0.7-0.4,1.1-0.5
				c0.4-0.1,0.8-0.2,1.2-0.2c0.7,0,1.4,0.1,1.9,0.4s1,0.6,1.3,1c0.3,0.4,0.6,0.9,0.8,1.5c0.2,0.6,0.2,1.2,0.2,1.8v7.1h-2.3v-6.3
				c0-0.5,0-0.9-0.1-1.3s-0.2-0.8-0.4-1.1c-0.2-0.3-0.5-0.6-0.8-0.8c-0.3-0.2-0.8-0.3-1.3-0.3c-0.9,0-1.6,0.3-2.2,1
				s-0.8,1.6-0.8,2.7v6h-2.3v-8.9c0-0.3,0-0.7,0-1.2c0-0.5,0-0.9-0.1-1.3L795.7,604.1L795.7,604.1z"/>
			<path d="M808,617.4c0.5,0.6,1.1,1,1.9,1.3c0.7,0.3,1.5,0.5,2.3,0.5c0.8,0,1.4-0.1,1.9-0.3s0.9-0.5,1.2-0.9
				c0.3-0.4,0.5-0.8,0.7-1.3c0.1-0.5,0.2-1.1,0.2-1.7v-1.5h0c-0.4,0.6-1,1.1-1.7,1.5c-0.7,0.3-1.5,0.5-2.3,0.5
				c-0.9,0-1.7-0.2-2.4-0.5c-0.7-0.3-1.3-0.7-1.8-1.2s-0.9-1.2-1.2-1.9c-0.3-0.7-0.4-1.5-0.4-2.3c0-0.8,0.1-1.6,0.4-2.3
				c0.3-0.7,0.7-1.3,1.2-1.9s1.1-1,1.8-1.3s1.5-0.5,2.3-0.5c0.8,0,1.6,0.2,2.3,0.5s1.3,0.9,1.8,1.6h0v-1.8h2.2v10.8
				c0,0.8-0.1,1.6-0.3,2.4s-0.6,1.4-1.1,2c-0.5,0.6-1.1,1-1.9,1.4c-0.8,0.3-1.8,0.5-3,0.5c-1,0-2-0.2-3-0.5s-1.9-0.9-2.6-1.5
				L808,617.4z M808.7,609.7c0,0.5,0.1,1,0.2,1.5s0.4,0.9,0.8,1.3s0.7,0.7,1.2,0.9c0.5,0.2,1,0.3,1.6,0.3c0.6,0,1.1-0.1,1.6-0.3
				s0.9-0.5,1.2-0.8c0.3-0.4,0.6-0.8,0.8-1.3c0.2-0.5,0.3-1,0.3-1.6c0-0.5-0.1-1.1-0.3-1.5c-0.2-0.5-0.5-0.9-0.8-1.3
				c-0.3-0.4-0.8-0.7-1.2-0.9c-0.5-0.2-1-0.3-1.6-0.3c-0.6,0-1.1,0.1-1.6,0.3s-0.9,0.5-1.2,0.9s-0.6,0.8-0.8,1.3
				C808.8,608.6,808.7,609.1,808.7,609.7z"/>
			<path d="M824.6,614c0,0.4-0.2,0.8-0.5,1.1c-0.3,0.3-0.7,0.5-1.2,0.5c-0.5,0-0.8-0.2-1.1-0.5s-0.5-0.7-0.5-1.1
				c0-0.4,0.2-0.8,0.5-1.1c0.3-0.3,0.7-0.5,1.2-0.5s0.8,0.2,1.2,0.5C824.5,613.2,824.6,613.6,824.6,614z"/>
		</g>
	</g>
	<g id="Logo_Lockup">
		<g id="KLENZ_1_">
			<path d="M384,437v-16h3.8v6.7l8.9-6.7h5.4l-10.6,7.6l11.9,8.5h-6l-9.6-7.1v7.1H384z"/>
			<path d="M404.8,437v-16h3.7v13h12v3H404.8z"/>
			<path d="M422.9,437v-16h16.4v2.7h-12.7v3.6h7.4v2.7h-7.4v4h12.9v3H422.9z"/>
			<path d="M441.9,437v-16h2.5l11.3,9.5c0.8,0.7,1.4,1.3,1.8,1.7c-0.1-1.5-0.1-2.4-0.1-2.8V421h3.4v16h-2.5l-11.8-9.9
				c-0.5-0.4-0.9-0.9-1.3-1.3c0.1,1,0.2,1.9,0.2,2.5v8.7H441.9z"/>
			<path d="M463.1,437v-1.7l11.2-11.5h-10.1V421h16.1v1.6L468.9,434h11.4v3H463.1z"/>
			<g>
				<path d="M483.9,424.3h-0.5v-3h-1.1v-0.4h2.6v0.4h-1.1L483.9,424.3L483.9,424.3z"/>
				<path d="M487.2,423.6L487.2,423.6l1-2.6h0.7v3.4h-0.5v-2.8h0l-1.1,2.8H487l-1.1-2.8h0v2.8h-0.5V421h0.7L487.2,423.6z"/>
			</g>
		</g>
		<g id="white_outline_00000166663379627057840630000004663505965967493307_">
			<path id="Q" class="st1" d="M672.4,365.1c-1.5-1.5-4.3-2.2-8.3-2.2H636c-4.1,0-6.7,0.8-8.3,2.2c-1.5,1.5-2.3,4.1-2.3,7.9v20.1
				c0,3.8,0.8,6.5,2.3,7.9c1.5,1.5,4.3,2.2,8.3,2.2h14.9l4.3,9.8h11.4l-4.8-9.8h2.3c4,0,6.7-0.8,8.3-2.2c1.5-1.5,2.3-4.1,2.3-7.9
				v-20.1C674.6,369.2,673.9,366.7,672.4,365.1z M663.5,372.1v21.9h-6.2l-5.3-11.2l-8.5,3.4l3.3,7.8h-10.2v-21.9H663.5L663.5,372.1z
				"/>
			<polygon id="E" class="st1" points="589.6,386.7 607.2,386.7 607.2,377.9 589.6,377.9 589.6,371.7 619.7,371.7 619.7,362.9 
				578.4,362.9 578.4,403.3 620.1,403.3 620.1,393.8 589.6,393.8 			"/>
			<polygon id="T" class="st1" points="528.4,372.1 545.9,372.1 545.9,403.3 557,403.3 557,372.1 574.6,372.1 574.6,362.9 
				528.4,362.9 			"/>
			<path id="R" class="st1" d="M515,389c3.3,0,5.7-0.7,7.3-2s2.5-3.6,2.5-6.5v-9c0-2.9-0.9-5.1-2.5-6.5s-4-2-7.3-2h-33.7v40.4h11
				v-14.4h6.8l15.4,14.4h16.4l-17.6-14.4L515,389L515,389z M513.9,373.7v4.6c0,0.8-0.2,1.3-0.4,1.5c-0.1,0.1-0.7,0.4-2.5,0.4h-18.8
				v-8.4H511c1.8,0,2.3,0.3,2.5,0.4C513.9,372.5,513.9,373.3,513.9,373.7z"/>
			<g id="">
				<rect x="464.8" y="362.9" class="st1" width="11.1" height="11.1"/>
				<path class="st1" d="M464.8,376.2v17.7h-23.1v-17.7h-11.2v17c0,3.8,0.8,6.4,2.3,7.9c1.5,1.5,4.3,2.2,8.3,2.2h24.1
					c4,0,6.7-0.7,8.3-2.2c1.5-1.5,2.3-4.1,2.3-7.9v-17H464.8z"/>
				<rect x="430.6" y="362.9" class="st1" width="11.2" height="11.1"/>
			</g>
			<path id="P" class="st1" d="M423.6,365c-1.6-1.4-4-2-7.3-2h-33.7v40.4h11v-14.9h22.7c3.3,0,5.7-0.7,7.3-2
				c1.6-1.4,2.5-3.6,2.5-6.5v-8.5C426,368.6,425.1,366.3,423.6,365z M393.5,371.8h18.8c1.8,0,2.3,0.3,2.5,0.4c0.3,0.3,0.4,1,0.4,1.5
				v4.1c0,0.8-0.2,1.3-0.4,1.5c-0.1,0.1-0.7,0.4-2.5,0.4h-18.8V371.8z"/>
		</g>
		<g id="PURTEQ_00000166645230741269679490000004985074196439106744_">
			<g>
				<path id="_xAE_" class="st1" d="M675.7,364c0-0.4,0.1-0.8,0.3-1.2c0.2-0.3,0.3-0.7,0.7-0.9c0.3-0.3,0.6-0.5,0.9-0.7
					c0.3-0.2,0.8-0.3,1.2-0.3c0.4,0,0.9,0.1,1.2,0.3c0.3,0.2,0.7,0.3,0.9,0.7c0.3,0.3,0.5,0.6,0.7,0.9c0.2,0.3,0.3,0.8,0.3,1.2
					s-0.1,0.8-0.3,1.2c-0.2,0.4-0.3,0.7-0.7,0.9c-0.3,0.3-0.6,0.5-0.9,0.7c-0.3,0.2-0.8,0.3-1.2,0.3c-0.4,0-0.9-0.1-1.2-0.3
					c-0.3-0.2-0.7-0.3-0.9-0.7c-0.3-0.3-0.5-0.6-0.7-0.9C675.8,364.9,675.7,364.5,675.7,364z M676.1,364c0,0.3,0.1,0.7,0.2,0.9
					c0.2,0.3,0.3,0.6,0.5,0.9c0.3,0.3,0.5,0.4,0.9,0.5c0.3,0.2,0.7,0.2,1,0.2c0.3,0,0.7-0.1,1-0.2c0.3-0.2,0.6-0.3,0.9-0.5
					c0.3-0.3,0.4-0.5,0.5-0.9c0.2-0.3,0.2-0.7,0.2-0.9c0-0.3-0.1-0.7-0.2-1c-0.2-0.3-0.3-0.6-0.5-0.8c-0.2-0.2-0.5-0.4-0.9-0.5
					c-0.3-0.1-0.7-0.2-1-0.2c-0.3,0-0.7,0.1-1,0.2c-0.3,0.2-0.6,0.3-0.9,0.5c-0.3,0.2-0.4,0.5-0.5,0.8
					C676.2,363.3,676.1,363.7,676.1,364z M677.5,362.3h1.2c0.2,0,0.3,0,0.4,0.1c0.2,0,0.3,0.1,0.4,0.2c0.1,0.1,0.2,0.2,0.3,0.3
					s0.1,0.3,0.1,0.4c0,0.3-0.1,0.4-0.2,0.6c-0.2,0.2-0.3,0.3-0.6,0.3l0.9,1.5h-0.8l-0.8-1.5h-0.4v1.5h-0.6L677.5,362.3L677.5,362.3
					z M678.6,363.9c0.2,0,0.3,0,0.5-0.1c0.2-0.1,0.3-0.2,0.3-0.4c0-0.2-0.1-0.3-0.3-0.3c-0.2-0.1-0.3-0.1-0.4-0.1h-0.6v0.9H678.6
					L678.6,363.9z"/>
				<g>
					<path class="st2" d="M626.5,373.1c0-3.5,0.7-5.8,2-7.1s3.8-1.9,7.5-1.9h28.1c3.7,0,6.2,0.7,7.5,1.9c1.3,1.3,2,3.7,2,7.1v20.1
						c0,3.5-0.7,5.9-2,7.2s-3.8,1.9-7.5,1.9H660l4.8,9.8H656l-4.3-9.8h-15.8c-3.7,0-6.2-0.6-7.5-1.9s-2-3.7-2-7.2L626.5,373.1
						L626.5,373.1z M635.4,395h13.1l-3.5-8.3l6.4-2.6l5.1,10.8h8.1v-24.2h-29.3L635.4,395L635.4,395z"/>
					<path class="st2" d="M579.5,402.2V364h39v6.5h-30.1v8.5H606v6.5h-17.6v9.5H619v7.2H579.5L579.5,402.2z"/>
					<path class="st2" d="M555.9,370.9v31.3H547v-31.3h-17.5V364h44v6.8H555.9z"/>
					<path class="st3" d="M482.4,402.2V364H515c3,0,5.2,0.6,6.6,1.8s2,3.1,2,5.6v9c0,2.6-0.7,4.4-2,5.6c-1.4,1.2-3.6,1.8-6.6,1.8h-5
						l17.6,14.4h-12.7l-15.4-14.4h-8.5v14.4L482.4,402.2L482.4,402.2z M511,370.7h-20v10.6h20c1.5,0,2.6-0.3,3.2-0.7
						c0.6-0.4,0.9-1.2,0.9-2.4v-4.6c0-1.1-0.3-1.9-0.9-2.3C513.7,370.9,512.6,370.7,511,370.7z"/>
					<path class="st3" d="M465.9,372.9V364h8.9v8.9H465.9z M465.9,377.4V395h-25.3v-17.7h-8.9v15.9c0,3.5,0.7,5.9,2,7.1
						c1.3,1.3,3.8,1.9,7.5,1.9h24.1c3.7,0,6.2-0.6,7.5-1.9c1.3-1.3,2-3.7,2-7.1v-15.9H465.9z M440.6,372.9V364h-8.9v8.9H440.6z"/>
					<path class="st3" d="M383.6,402.2V364h32.6c3,0,5.2,0.6,6.6,1.8c1.4,1.2,2,3.1,2,5.6v8.5c0,2.6-0.7,4.4-2,5.6
						c-1.4,1.2-3.6,1.8-6.6,1.8h-23.9v14.9L383.6,402.2L383.6,402.2z M412.3,370.7h-20v10.1h20c1.5,0,2.6-0.3,3.2-0.7
						c0.6-0.4,0.9-1.2,0.9-2.4v-4.1c0-1.1-0.3-1.9-0.9-2.3C414.9,370.9,413.9,370.7,412.3,370.7z"/>
				</g>
			</g>
		</g>
	</g>
	<g id="Headline">
		<g>
			<path d="M384.7,205.8h15.1c2.8,0,5.5,0.4,8.3,1.1s5.3,1.9,7.6,3.6s4.1,3.8,5.5,6.5s2.1,6.1,2.1,10.1c0,3.7-0.7,6.9-2.1,9.6
				c-1.4,2.7-3.2,4.9-5.5,6.6s-4.8,3-7.6,3.8c-2.8,0.8-5.6,1.2-8.3,1.2h-15.1V205.8z M398.5,241.7c2,0,3.9-0.2,5.9-0.7
				s3.7-1.2,5.3-2.3c1.6-1.1,2.9-2.6,3.9-4.5s1.5-4.3,1.5-7.1c0-3-0.5-5.5-1.5-7.4s-2.3-3.4-3.9-4.5s-3.4-1.8-5.3-2.2
				s-3.9-0.6-5.9-0.6h-6.3v29.4L398.5,241.7L398.5,241.7z"/>
			<path d="M430.5,205.8h7.6v42.5h-7.6V205.8z"/>
			<path d="M447.4,205.8h7.6v35.8H473v6.7h-25.6V205.8z"/>
			<path d="M510.5,232.7c0,2.6-0.4,4.9-1.3,6.9s-2.1,3.8-3.6,5.2c-1.5,1.4-3.3,2.6-5.4,3.3s-4.3,1.2-6.8,1.2s-4.7-0.4-6.8-1.2
				s-3.9-1.9-5.4-3.3c-1.5-1.4-2.7-3.2-3.6-5.2c-0.9-2.1-1.3-4.4-1.3-6.9v-26.9h7.6v26.6c0,1.2,0.2,2.5,0.5,3.7s0.9,2.3,1.6,3.3
				s1.7,1.7,2.9,2.3c1.2,0.6,2.7,0.9,4.5,0.9s3.3-0.3,4.5-0.9c1.2-0.6,2.2-1.4,2.9-2.3c0.7-1,1.3-2.1,1.6-3.3s0.5-2.4,0.5-3.7v-26.6
				h7.6V232.7z"/>
			<path d="M528.1,212.4h-13v-6.6h33.6v6.6h-13v35.9h-7.6L528.1,212.4L528.1,212.4z"/>
			<path d="M553.6,205.8h28.1v6.6h-20.6v10.8h19.5v6.4h-19.5v12h21.7v6.7h-29.2V205.8z"/>
			<path d="M634.7,238.1l9.9,10.1H635l-4.7-4.9c-1.4,1.6-3.1,3-5.1,4.1s-4.5,1.6-7.6,1.6c-1.9,0-3.7-0.3-5.4-0.8
				c-1.7-0.5-3.2-1.3-4.5-2.3c-1.3-1-2.3-2.3-3.1-3.9c-0.8-1.5-1.2-3.3-1.2-5.4c0-1.6,0.3-3,0.8-4.2s1.2-2.4,2.1-3.4
				c0.9-1,1.8-1.9,3-2.6c1.1-0.7,2.3-1.3,3.5-1.9c-1.4-1.4-2.5-2.9-3.4-4.5c-0.8-1.5-1.2-3.2-1.2-5.1c0-1.8,0.3-3.4,1-4.7
				c0.7-1.3,1.6-2.4,2.8-3.3s2.4-1.5,3.8-1.9c1.4-0.4,2.9-0.6,4.3-0.6c1.5,0,3,0.2,4.4,0.6s2.7,1.1,3.8,1.9s2,1.9,2.6,3.2
				s1,2.8,1,4.5c0,1.4-0.2,2.6-0.7,3.8s-1.1,2.2-1.9,3.1c-0.8,0.9-1.7,1.8-2.8,2.5s-2.2,1.4-3.4,1.9l7,7.3l4.9-7.7h8.2L634.7,238.1z
				 M616.7,229.3c-0.8,0.3-1.5,0.6-2.2,1c-0.7,0.4-1.3,0.9-1.9,1.4s-1,1.2-1.3,2s-0.5,1.7-0.5,2.7c0,1,0.2,2,0.6,2.8s1,1.5,1.7,2.1
				c0.7,0.6,1.4,1,2.3,1.3c0.8,0.3,1.7,0.4,2.5,0.4c1.8,0,3.3-0.4,4.5-1.1s2.4-1.8,3.4-3.2L616.7,229.3z M620.2,210.5
				c-1.4,0-2.6,0.4-3.5,1.3c-1,0.9-1.4,2-1.4,3.4c0,1.2,0.3,2.4,1,3.5c0.7,1.1,1.6,2.2,2.8,3.3c0.8-0.4,1.6-0.8,2.4-1.2
				c0.7-0.4,1.4-0.9,1.9-1.5s1-1.2,1.3-1.9c0.3-0.7,0.5-1.4,0.5-2.2c0-1.3-0.5-2.4-1.4-3.3C622.8,211,621.6,210.5,620.2,210.5z"/>
			<path d="M695.3,215.8c-1.1-1.5-2.6-2.6-4.4-3.3s-3.6-1.1-5.3-1.1c-2.2,0-4.2,0.4-6,1.2s-3.3,1.9-4.7,3.3c-1.3,1.4-2.3,3-3,4.9
				s-1,3.9-1,6.1c0,2.3,0.3,4.4,1,6.4s1.7,3.6,2.9,4.9c1.3,1.4,2.8,2.4,4.5,3.2c1.8,0.8,3.7,1.1,5.9,1.1c2.3,0,4.3-0.4,6.1-1.4
				c1.8-0.9,3.2-2.1,4.3-3.6l6.1,4.3c-1.9,2.4-4.2,4.2-6.9,5.5c-2.7,1.3-5.9,1.9-9.5,1.9c-3.3,0-6.4-0.6-9.2-1.6
				c-2.8-1.1-5.2-2.6-7.2-4.6s-3.6-4.3-4.7-7.1s-1.7-5.8-1.7-9.1c0-3.4,0.6-6.5,1.8-9.2s2.8-5.1,4.9-7s4.5-3.4,7.3-4.4
				c2.8-1,5.8-1.6,9.1-1.6c1.4,0,2.8,0.1,4.3,0.4s2.9,0.7,4.3,1.2s2.6,1.2,3.8,2c1.2,0.8,2.2,1.8,3.1,2.9L695.3,215.8z"/>
			<path d="M703.6,226.9c0-3.4,0.6-6.5,1.7-9.2s2.7-5.1,4.7-7s4.4-3.4,7.2-4.4c2.8-1,5.8-1.6,9.1-1.6c3.3,0,6.4,0.5,9.2,1.6
				s5.2,2.5,7.3,4.4s3.6,4.2,4.8,7s1.7,5.8,1.7,9.2c0,3.3-0.6,6.4-1.7,9.1c-1.1,2.7-2.7,5.1-4.8,7.1s-4.5,3.5-7.3,4.6
				c-2.8,1.1-5.9,1.6-9.2,1.6c-3.3,0-6.3-0.6-9.1-1.6c-2.8-1.1-5.2-2.6-7.2-4.6s-3.6-4.3-4.7-7.1S703.6,230.2,703.6,226.9z
				 M711.8,226.9c0,2.3,0.3,4.4,1,6.3c0.7,1.9,1.7,3.6,3,4.9s2.8,2.5,4.6,3.3c1.8,0.8,3.8,1.2,5.9,1.2s4.1-0.4,5.9-1.2
				s3.3-1.9,4.7-3.3c1.3-1.4,2.3-3.1,3-4.9s1-4,1-6.3c0-2.2-0.3-4.2-1-6.1c-0.7-1.9-1.7-3.5-3-4.9c-1.3-1.4-2.8-2.5-4.6-3.3
				s-3.8-1.2-6-1.2s-4.2,0.4-6,1.2c-1.8,0.8-3.3,1.9-4.6,3.3c-1.3,1.4-2.3,3-3,4.9C712.2,222.7,711.8,224.7,711.8,226.9z"/>
			<path d="M756.6,205.8h10l19.7,31.8h0.1v-31.8h7.6v42.5h-9.6l-20.2-32.8h-0.1v32.8h-7.6L756.6,205.8L756.6,205.8z"/>
			<path d="M849.2,248.3h-25.6c-3.4,0-6.5-0.5-9.3-1.5s-5.2-2.4-7.1-4.3c-2-1.9-3.5-4.1-4.6-6.8s-1.6-5.8-1.6-9.2
				c0-3.2,0.6-6.2,1.7-8.9s2.7-4.9,4.8-6.9s4.5-3.4,7.2-4.5c2.8-1.1,5.8-1.6,9-1.6s6.2,0.5,9,1.6s5.2,2.6,7.2,4.5
				c2,1.9,3.6,4.2,4.7,6.9c1.1,2.7,1.7,5.6,1.7,8.9c0,1.9-0.2,3.7-0.7,5.3s-1,3.1-1.7,4.4s-1.5,2.4-2.4,3.4s-1.8,1.8-2.8,2.5v0.1
				h10.5V248.3z M823.7,211.5c-2,0-4,0.4-5.7,1.1c-1.8,0.8-3.3,1.8-4.6,3.1s-2.3,2.9-3,4.7c-0.7,1.8-1.1,3.8-1.1,6
				c0,2.3,0.3,4.4,1,6.2s1.7,3.4,2.9,4.8s2.8,2.4,4.5,3.1c1.8,0.7,3.7,1.1,5.8,1.1c2.1,0,4-0.4,5.8-1.1c1.8-0.7,3.3-1.8,4.6-3.1
				c1.3-1.3,2.3-2.9,3-4.8s1.1-3.9,1.1-6.2c0-2.2-0.3-4.2-1-6s-1.7-3.4-2.9-4.7s-2.8-2.4-4.5-3.1
				C827.8,211.9,825.8,211.5,823.7,211.5z"/>
			<path d="M888.4,232.7c0,2.6-0.4,4.9-1.3,6.9s-2.1,3.8-3.6,5.2s-3.3,2.6-5.4,3.3s-4.3,1.2-6.8,1.2s-4.7-0.4-6.8-1.2
				s-3.9-1.9-5.4-3.3s-2.7-3.2-3.6-5.2s-1.3-4.4-1.3-6.9v-26.9h7.6v26.6c0,1.2,0.2,2.5,0.5,3.7s0.8,2.3,1.6,3.3
				c0.7,1,1.7,1.7,2.9,2.3c1.2,0.6,2.7,0.9,4.5,0.9s3.3-0.3,4.5-0.9c1.2-0.6,2.2-1.4,2.9-2.3s1.3-2.1,1.6-3.3s0.5-2.4,0.5-3.7v-26.6
				h7.6L888.4,232.7L888.4,232.7z"/>
			<path d="M897.4,205.8h28.1v6.6h-20.6v10.8h19.5v6.4h-19.5v12h21.7v6.7h-29.2V205.8z"/>
			<path d="M934,205.8h14.8c2,0,3.9,0.2,5.8,0.6s3.5,1.1,5,2.1s2.6,2.2,3.5,3.8s1.3,3.5,1.3,5.7c0,3.1-0.9,5.6-2.6,7.5
				s-4.1,3.2-7.1,3.9l11.3,18.8h-9.1l-9.8-18h-5.5v18H934L934,205.8L934,205.8z M947.7,224.1c1.1,0,2.2-0.1,3.2-0.2s2-0.5,2.9-0.9
				c0.9-0.4,1.6-1.1,2.1-1.9c0.6-0.8,0.8-1.9,0.8-3.1c0-1.2-0.3-2.1-0.8-2.9s-1.2-1.3-2-1.8s-1.7-0.7-2.7-0.9c-1-0.2-2-0.2-3-0.2
				h-6.8v11.9H947.7z"/>
		</g>
	</g>
</g>
<g id="Guides">
</g>
</svg>
