<?xml version="1.0" encoding="utf-8"?>
<!-- Generator: Adobe Illustrator 27.7.0, SVG Export Plug-In . SVG Version: 6.00 Build 0)  -->
<svg version="1.1" id="Layer_1" xmlns="http://www.w3.org/2000/svg" xmlns:xlink="http://www.w3.org/1999/xlink" x="0px" y="0px"
	 viewBox="0 0 720 740" style="enable-background:new 0 0 720 740;" xml:space="preserve">
<style type="text/css">
	.st0{fill:none;}
	.st1{fill:#FFFFFF;}
	.st2{fill:#76BC21;}
	.st3{fill:#0069A7;}
</style>
<g id="ART">
	<rect id="Bounding_Box" class="st0" width="720" height="740"/>
	<g id="CTA_-_Learn_More_1_">
		<g id="text_1_">
			<path d="M382.8,685.5v-10.8h2.5v8.8h8.1v2L382.8,685.5L382.8,685.5z"/>
			<path d="M395.9,685.5v-10.8H407v1.8h-8.6v2.4h5v1.8h-5v2.7h8.7v2L395.9,685.5L395.9,685.5z"/>
			<path d="M408.4,685.5l6.1-10.8h2.4l6.2,10.8h-2.8l-1.3-2.4h-6.9l-1.3,2.4H408.4z M413.3,681.2h4.8l-2.3-4.4L413.3,681.2z"/>
			<path d="M425.4,685.5v-10.8h9.3c1.6,0,2.4,0.7,2.4,2.1v2.5c0,1.4-0.8,2.1-2.4,2.1h-1.4l5,4.1h-3.6l-4.4-4.1h-2.4v4.1L425.4,685.5
				L425.4,685.5z M433.6,676.6h-5.7v3h5.7c0.4,0,0.7,0,0.8-0.1c0.2-0.1,0.3-0.4,0.3-0.7v-1.3c0-0.4-0.1-0.6-0.3-0.7
				C434.2,676.6,434,676.6,433.6,676.6z"/>
			<path d="M441,685.5v-10.8h1.7l7.6,6.4c0.5,0.5,1,0.8,1.2,1.2c-0.1-1-0.1-1.6-0.1-1.9v-5.7h2.3v10.8H452l-8-6.7
				c-0.3-0.3-0.6-0.6-0.9-0.9c0.1,0.7,0.1,1.3,0.1,1.7v5.9L441,685.5L441,685.5z"/>
			<path d="M464.9,685.5v-10.8h2l5.1,6.5l5-6.5h2v10.8h-2.3v-6.7c0-0.3,0-0.7,0.1-1.2c-0.3,0.5-0.5,0.9-0.6,1.1l-4.1,5.4h-0.5
				l-4.1-5.4c-0.3-0.4-0.5-0.8-0.6-1.1c0,0.4,0.1,0.8,0.1,1.2v6.7H464.9z"/>
			<path d="M482.8,677.3c0-1,0.2-1.7,0.6-2s1.1-0.5,2.1-0.5h8c1,0,1.7,0.2,2.1,0.5c0.4,0.3,0.6,1,0.6,2v5.7c0,1-0.2,1.7-0.6,2
				s-1.1,0.5-2.1,0.5h-8c-1,0-1.7-0.2-2.1-0.5c-0.4-0.3-0.6-1-0.6-2V677.3z M485.3,683.5h8.3v-6.9h-8.3V683.5z"/>
			<path d="M500.2,685.5v-10.8h9.3c1.6,0,2.4,0.7,2.4,2.1v2.5c0,1.4-0.8,2.1-2.4,2.1h-1.4l5,4.1h-3.6l-4.4-4.1h-2.4v4.1L500.2,685.5
				L500.2,685.5z M508.4,676.6h-5.7v3h5.7c0.4,0,0.7,0,0.8-0.1c0.2-0.1,0.3-0.4,0.3-0.7v-1.3c0-0.4-0.1-0.6-0.3-0.7
				C509,676.6,508.8,676.6,508.4,676.6z"/>
			<path d="M515.8,685.5v-10.8h11.1v1.8h-8.6v2.4h5v1.8h-5v2.7h8.7v2L515.8,685.5L515.8,685.5z"/>
		</g>
		<polygon id="arrow_1_" points="565.6,680.1 538.4,674.7 538.4,685.5 		"/>
	</g>
	<g id="Body_Text">
		<g>
			<path d="M347.1,346.3c-0.9,0.4-1.8,0.7-2.8,1s-2.2,0.4-3.6,0.4c-1.4,0-2.6-0.2-3.8-0.7c-1.1-0.4-2.1-1.1-2.9-1.9
				s-1.5-1.7-1.9-2.8c-0.5-1.1-0.7-2.3-0.7-3.6c0-1.4,0.2-2.6,0.7-3.7c0.5-1.1,1.1-2,1.9-2.8s1.8-1.4,2.9-1.8s2.3-0.6,3.6-0.6
				c1.4,0,2.6,0.2,3.7,0.6s2,0.9,2.7,1.5l-2.1,2.3c-0.4-0.5-1-0.9-1.8-1.2c-0.8-0.3-1.6-0.5-2.5-0.5c-0.9,0-1.7,0.2-2.4,0.5
				s-1.4,0.8-1.9,1.3c-0.5,0.6-0.9,1.2-1.2,2s-0.4,1.6-0.4,2.5c0,0.9,0.1,1.8,0.4,2.5s0.7,1.4,1.2,2c0.5,0.6,1.1,1,1.9,1.3
				c0.7,0.3,1.6,0.5,2.5,0.5c1.3,0,2.4-0.2,3.4-0.6v-4.3h-3.6v-2.5h6.5L347.1,346.3L347.1,346.3z"/>
			<path d="M361.2,341.6c0,0.1,0,0.3,0,0.4c0,0.1,0,0.3,0,0.4h-8.8c0,0.4,0.1,0.8,0.3,1.1c0.2,0.3,0.4,0.6,0.7,0.9
				c0.3,0.2,0.6,0.4,1,0.6c0.4,0.1,0.8,0.2,1.2,0.2c0.7,0,1.3-0.1,1.8-0.4s0.9-0.6,1.2-1.1l1.9,1.5c-1.1,1.5-2.8,2.3-4.9,2.3
				c-0.9,0-1.7-0.1-2.5-0.4s-1.4-0.7-2-1.2c-0.5-0.5-1-1.1-1.3-1.9c-0.3-0.7-0.5-1.6-0.5-2.5c0-0.9,0.2-1.8,0.5-2.5s0.7-1.4,1.3-1.9
				c0.5-0.5,1.2-1,1.9-1.2s1.5-0.4,2.4-0.4c0.8,0,1.5,0.1,2.2,0.4c0.7,0.3,1.3,0.7,1.8,1.2c0.5,0.5,0.9,1.2,1.2,1.9
				C361,339.7,361.2,340.6,361.2,341.6z M358.3,340.3c0-0.4,0-0.7-0.2-1.1c-0.1-0.3-0.3-0.6-0.5-0.9s-0.5-0.5-0.9-0.6
				s-0.8-0.2-1.2-0.2c-0.9,0-1.6,0.3-2.2,0.8s-0.9,1.2-1,2L358.3,340.3L358.3,340.3z"/>
			<path d="M361.8,338v-2.3h2v-3.3h2.8v3.3h2.9v2.3h-2.9v5.4c0,0.5,0.1,0.9,0.3,1.3c0.2,0.3,0.6,0.5,1.2,0.5c0.2,0,0.4,0,0.6-0.1
				s0.4-0.1,0.6-0.2l0.1,2.3c-0.3,0.1-0.6,0.2-0.9,0.2s-0.7,0.1-1,0.1c-0.8,0-1.4-0.1-1.9-0.3c-0.5-0.2-0.9-0.5-1.1-0.9
				c-0.3-0.4-0.5-0.8-0.6-1.3c-0.1-0.5-0.2-1-0.2-1.6V338L361.8,338L361.8,338z"/>
			<path d="M390.4,335.4c0.8,0,1.4,0.1,1.9,0.4s1,0.6,1.3,1c0.3,0.4,0.6,0.9,0.8,1.5s0.2,1.1,0.2,1.7v7.2h-2.9v-6.4
				c0-0.3,0-0.7-0.1-1.1c0-0.4-0.1-0.7-0.3-1s-0.4-0.5-0.7-0.7s-0.6-0.3-1.1-0.3c-0.5,0-0.8,0.1-1.1,0.3s-0.6,0.4-0.8,0.7
				s-0.4,0.6-0.5,1c-0.1,0.4-0.1,0.8-0.1,1.1v6.3h-2.9v-7c0-0.7-0.2-1.3-0.5-1.8c-0.3-0.5-0.9-0.7-1.6-0.7c-0.4,0-0.8,0.1-1.1,0.3
				c-0.3,0.2-0.6,0.4-0.8,0.7c-0.2,0.3-0.4,0.6-0.5,1c-0.1,0.4-0.2,0.8-0.2,1.1v6.3h-2.9v-11.5h2.7v1.9h0c0.1-0.3,0.3-0.6,0.5-0.8
				s0.5-0.5,0.8-0.7c0.3-0.2,0.6-0.4,1-0.5c0.4-0.1,0.8-0.2,1.3-0.2c0.9,0,1.6,0.2,2.2,0.6s1,0.9,1.4,1.6c0.4-0.7,0.9-1.2,1.5-1.6
				S389.6,335.4,390.4,335.4z"/>
			<path d="M408.5,341.6c0,0.1,0,0.3,0,0.4c0,0.1,0,0.3,0,0.4h-8.8c0,0.4,0.1,0.8,0.3,1.1c0.2,0.3,0.4,0.6,0.7,0.9
				c0.3,0.2,0.6,0.4,1,0.6c0.4,0.1,0.8,0.2,1.2,0.2c0.7,0,1.3-0.1,1.8-0.4s0.9-0.6,1.2-1.1l1.9,1.5c-1.1,1.5-2.8,2.3-4.9,2.3
				c-0.9,0-1.7-0.1-2.5-0.4s-1.4-0.7-2-1.2c-0.5-0.5-1-1.1-1.3-1.9c-0.3-0.7-0.5-1.6-0.5-2.5c0-0.9,0.2-1.8,0.5-2.5s0.7-1.4,1.3-1.9
				c0.5-0.5,1.2-1,1.9-1.2s1.5-0.4,2.4-0.4c0.8,0,1.5,0.1,2.2,0.4c0.7,0.3,1.3,0.7,1.8,1.2c0.5,0.5,0.9,1.2,1.2,1.9
				C408.4,339.7,408.5,340.6,408.5,341.6z M405.7,340.3c0-0.4,0-0.7-0.2-1.1c-0.1-0.3-0.3-0.6-0.5-0.9s-0.5-0.5-0.9-0.6
				s-0.8-0.2-1.2-0.2c-0.9,0-1.6,0.3-2.2,0.8s-0.9,1.2-1,2L405.7,340.3L405.7,340.3z"/>
			<path d="M422.6,335.7v10.5c0,1-0.1,2-0.4,2.8s-0.6,1.5-1.2,2.1s-1.2,1-2,1.4c-0.8,0.3-1.8,0.5-2.9,0.5c-0.5,0-1,0-1.5-0.1
				c-0.5-0.1-1-0.2-1.5-0.4c-0.5-0.2-1-0.4-1.5-0.6c-0.5-0.2-0.9-0.5-1.2-0.8l1.7-2.2c0.6,0.5,1.2,0.9,1.9,1.2
				c0.7,0.3,1.4,0.4,2.1,0.4c0.7,0,1.3-0.1,1.7-0.3c0.5-0.2,0.9-0.5,1.1-0.8c0.3-0.4,0.5-0.8,0.6-1.2s0.2-1,0.2-1.6v-0.8h0
				c-0.4,0.6-1,1-1.6,1.3s-1.4,0.5-2.2,0.5c-0.9,0-1.6-0.2-2.4-0.5s-1.3-0.8-1.8-1.3c-0.5-0.5-0.9-1.2-1.1-1.9
				c-0.3-0.7-0.4-1.5-0.4-2.3c0-0.8,0.1-1.6,0.4-2.4c0.3-0.7,0.6-1.4,1.1-1.9s1.1-1,1.8-1.3c0.7-0.3,1.5-0.5,2.3-0.5
				c0.8,0,1.6,0.2,2.3,0.5s1.3,0.9,1.7,1.6h0v-1.7H422.6z M416.4,337.7c-0.5,0-1,0.1-1.4,0.3c-0.4,0.2-0.8,0.5-1,0.8
				s-0.5,0.7-0.6,1.2s-0.2,0.9-0.2,1.4c0,0.5,0.1,0.9,0.2,1.3c0.1,0.4,0.4,0.8,0.6,1.2s0.6,0.6,1,0.8s0.9,0.3,1.4,0.3
				c0.5,0,1-0.1,1.4-0.3c0.4-0.2,0.8-0.5,1.1-0.8s0.5-0.7,0.7-1.2s0.2-0.9,0.2-1.4c0-0.5-0.1-1-0.2-1.4s-0.4-0.8-0.7-1.2
				c-0.3-0.3-0.6-0.6-1.1-0.8S417,337.7,416.4,337.7z"/>
			<path d="M432.7,345.8L432.7,345.8c-0.4,0.5-0.8,0.9-1.5,1.3c-0.6,0.3-1.4,0.5-2.2,0.5c-0.5,0-1-0.1-1.5-0.2s-1-0.3-1.4-0.6
				s-0.8-0.6-1.1-1.1c-0.3-0.5-0.4-1-0.4-1.7c0-0.9,0.2-1.5,0.7-2.1c0.5-0.5,1.1-0.9,1.9-1.2c0.8-0.3,1.6-0.5,2.6-0.5
				s1.9-0.1,2.8-0.1v-0.3c0-0.7-0.3-1.2-0.8-1.6c-0.5-0.3-1.1-0.5-1.9-0.5c-0.6,0-1.2,0.1-1.8,0.4c-0.6,0.3-1,0.6-1.4,0.9l-1.5-1.8
				c0.7-0.6,1.4-1.1,2.3-1.4c0.9-0.3,1.7-0.5,2.6-0.5c1,0,1.9,0.1,2.5,0.4c0.7,0.3,1.2,0.7,1.6,1.1c0.4,0.5,0.6,1,0.8,1.6
				s0.2,1.1,0.2,1.7v7h-2.7L432.7,345.8L432.7,345.8z M432.6,342H432c-0.5,0-1,0-1.5,0.1c-0.5,0-1,0.1-1.4,0.3
				c-0.4,0.1-0.8,0.3-1.1,0.6c-0.3,0.2-0.4,0.6-0.4,1c0,0.3,0.1,0.5,0.2,0.7s0.3,0.3,0.5,0.4c0.2,0.1,0.4,0.2,0.6,0.2
				s0.5,0.1,0.7,0.1c1,0,1.7-0.3,2.3-0.8c0.5-0.5,0.8-1.2,0.8-2.2L432.6,342L432.6,342z"/>
			<path d="M451.6,338.9c-0.2-0.3-0.6-0.6-1-0.8c-0.5-0.2-0.9-0.3-1.4-0.3c-0.5,0-1,0.1-1.4,0.3c-0.4,0.2-0.7,0.5-1,0.9
				s-0.5,0.8-0.6,1.2s-0.2,0.9-0.2,1.3s0.1,0.9,0.2,1.3s0.3,0.8,0.6,1.2s0.6,0.6,1,0.9c0.4,0.2,0.9,0.3,1.4,0.3
				c0.5,0,0.9-0.1,1.3-0.3c0.5-0.2,0.8-0.4,1.1-0.8l1.8,1.8c-0.5,0.5-1.1,0.9-1.8,1.2s-1.5,0.4-2.4,0.4c-0.9,0-1.6-0.1-2.4-0.4
				s-1.4-0.7-2-1.2c-0.6-0.5-1-1.2-1.3-1.9c-0.3-0.8-0.5-1.6-0.5-2.6c0-0.9,0.2-1.8,0.5-2.5s0.8-1.4,1.3-1.9s1.2-0.9,2-1.2
				c0.7-0.3,1.5-0.4,2.4-0.4s1.7,0.2,2.5,0.5c0.8,0.3,1.4,0.8,1.9,1.3L451.6,338.9z"/>
			<path d="M455.1,329.1h2.9v18.1h-2.9V329.1z"/>
			<path d="M472,341.6c0,0.1,0,0.3,0,0.4c0,0.1,0,0.3,0,0.4h-8.8c0,0.4,0.1,0.8,0.3,1.1c0.2,0.3,0.4,0.6,0.7,0.9
				c0.3,0.2,0.6,0.4,1,0.6c0.4,0.1,0.8,0.2,1.2,0.2c0.7,0,1.3-0.1,1.8-0.4s0.9-0.6,1.2-1.1l1.9,1.5c-1.1,1.5-2.8,2.3-4.9,2.3
				c-0.9,0-1.7-0.1-2.5-0.4s-1.4-0.7-2-1.2c-0.5-0.5-1-1.1-1.3-1.9c-0.3-0.7-0.5-1.6-0.5-2.5c0-0.9,0.2-1.8,0.5-2.5s0.7-1.4,1.3-1.9
				c0.5-0.5,1.2-1,1.9-1.2s1.5-0.4,2.4-0.4c0.8,0,1.5,0.1,2.2,0.4c0.7,0.3,1.3,0.7,1.8,1.2c0.5,0.5,0.9,1.2,1.2,1.9
				C471.8,339.7,472,340.6,472,341.6z M469.1,340.3c0-0.4,0-0.7-0.2-1.1c-0.1-0.3-0.3-0.6-0.5-0.9s-0.5-0.5-0.9-0.6
				s-0.8-0.2-1.2-0.2c-0.9,0-1.6,0.3-2.2,0.8s-0.9,1.2-1,2L469.1,340.3L469.1,340.3z"/>
			<path d="M481.3,345.8L481.3,345.8c-0.4,0.5-0.8,0.9-1.5,1.3c-0.6,0.3-1.4,0.5-2.2,0.5c-0.5,0-1-0.1-1.5-0.2s-1-0.3-1.4-0.6
				s-0.8-0.6-1.1-1.1c-0.3-0.5-0.4-1-0.4-1.7c0-0.9,0.2-1.5,0.7-2.1c0.5-0.5,1.1-0.9,1.9-1.2c0.8-0.3,1.6-0.5,2.6-0.5
				s1.9-0.1,2.8-0.1v-0.3c0-0.7-0.3-1.2-0.8-1.6c-0.5-0.3-1.1-0.5-1.9-0.5c-0.6,0-1.2,0.1-1.8,0.4c-0.6,0.3-1,0.6-1.4,0.9l-1.5-1.8
				c0.7-0.6,1.4-1.1,2.3-1.4c0.9-0.3,1.7-0.5,2.6-0.5c1,0,1.9,0.1,2.5,0.4c0.7,0.3,1.2,0.7,1.6,1.1c0.4,0.5,0.6,1,0.8,1.6
				s0.2,1.1,0.2,1.7v7h-2.7L481.3,345.8L481.3,345.8z M481.2,342h-0.6c-0.5,0-1,0-1.5,0.1c-0.5,0-1,0.1-1.4,0.3
				c-0.4,0.1-0.8,0.3-1.1,0.6c-0.3,0.2-0.4,0.6-0.4,1c0,0.3,0.1,0.5,0.2,0.7s0.3,0.3,0.5,0.4c0.2,0.1,0.4,0.2,0.6,0.2
				s0.5,0.1,0.7,0.1c1,0,1.7-0.3,2.3-0.8c0.5-0.5,0.8-1.2,0.8-2.2L481.2,342L481.2,342z"/>
			<path d="M486.8,335.7h2.7v1.9h0c0.3-0.6,0.7-1.1,1.3-1.5s1.4-0.7,2.2-0.7c0.8,0,1.4,0.1,1.9,0.4s1,0.6,1.3,1s0.6,0.9,0.8,1.5
				s0.2,1.1,0.2,1.7v7.2h-2.9v-6.4c0-0.3,0-0.7-0.1-1.1c0-0.4-0.1-0.7-0.3-1s-0.4-0.5-0.7-0.7s-0.6-0.3-1.1-0.3s-0.9,0.1-1.2,0.3
				c-0.3,0.2-0.6,0.4-0.8,0.7c-0.2,0.3-0.4,0.6-0.5,1s-0.2,0.8-0.2,1.1v6.3h-2.9L486.8,335.7L486.8,335.7z"/>
			<path d="M500,331.8c0-0.5,0.2-0.9,0.5-1.2c0.3-0.3,0.8-0.5,1.3-0.5s1,0.2,1.3,0.5s0.5,0.7,0.5,1.2s-0.2,0.9-0.5,1.2
				c-0.4,0.3-0.8,0.5-1.3,0.5s-1-0.2-1.3-0.5C500.1,332.7,500,332.3,500,331.8z M500.4,335.7h2.9v11.5h-2.9V335.7z"/>
			<path d="M506.3,335.7h2.7v1.9h0c0.3-0.6,0.7-1.1,1.3-1.5s1.4-0.7,2.2-0.7c0.8,0,1.4,0.1,1.9,0.4s1,0.6,1.3,1s0.6,0.9,0.8,1.5
				c0.2,0.6,0.2,1.1,0.2,1.7v7.2H514v-6.4c0-0.3,0-0.7-0.1-1.1s-0.2-0.7-0.3-1s-0.4-0.5-0.7-0.7c-0.3-0.2-0.7-0.3-1.1-0.3
				s-0.9,0.1-1.2,0.3c-0.3,0.2-0.6,0.4-0.8,0.7c-0.2,0.3-0.4,0.6-0.5,1s-0.2,0.8-0.2,1.1v6.3h-2.9L506.3,335.7L506.3,335.7z"/>
			<path d="M531.5,335.7v10.5c0,1-0.1,2-0.4,2.8s-0.7,1.5-1.2,2.1s-1.2,1-2,1.4c-0.8,0.3-1.8,0.5-2.9,0.5c-0.5,0-1,0-1.5-0.1
				c-0.5-0.1-1-0.2-1.5-0.4c-0.5-0.2-1-0.4-1.5-0.6c-0.5-0.2-0.9-0.5-1.2-0.8l1.7-2.2c0.6,0.5,1.2,0.9,1.9,1.2
				c0.7,0.3,1.4,0.4,2.1,0.4c0.7,0,1.3-0.1,1.7-0.3c0.5-0.2,0.8-0.5,1.1-0.8c0.3-0.4,0.5-0.8,0.6-1.2s0.2-1,0.2-1.6v-0.8h0
				c-0.4,0.6-1,1-1.6,1.3s-1.4,0.5-2.2,0.5c-0.9,0-1.7-0.2-2.3-0.5c-0.7-0.3-1.3-0.8-1.8-1.3c-0.5-0.5-0.9-1.2-1.1-1.9
				s-0.4-1.5-0.4-2.3c0-0.8,0.1-1.6,0.4-2.4c0.3-0.7,0.6-1.4,1.1-1.9s1.1-1,1.8-1.3c0.7-0.3,1.5-0.5,2.3-0.5c0.8,0,1.6,0.2,2.3,0.5
				s1.3,0.9,1.7,1.6h0v-1.7H531.5z M525.3,337.7c-0.5,0-1,0.1-1.4,0.3c-0.4,0.2-0.8,0.5-1,0.8s-0.5,0.7-0.7,1.2s-0.2,0.9-0.2,1.4
				c0,0.5,0.1,0.9,0.2,1.3c0.2,0.4,0.4,0.8,0.7,1.2s0.6,0.6,1,0.8c0.4,0.2,0.9,0.3,1.4,0.3c0.5,0,1-0.1,1.4-0.3
				c0.4-0.2,0.8-0.5,1.1-0.8s0.5-0.7,0.7-1.2s0.2-0.9,0.2-1.4c0-0.5-0.1-1-0.2-1.4s-0.4-0.8-0.7-1.2c-0.3-0.3-0.7-0.6-1.1-0.8
				S525.9,337.7,525.3,337.7z"/>
			<path d="M542.7,335.7v1.6h0.1c0.1-0.2,0.3-0.5,0.6-0.7c0.2-0.2,0.5-0.4,0.8-0.6c0.3-0.2,0.7-0.3,1.1-0.5c0.4-0.1,0.9-0.2,1.4-0.2
				c0.8,0,1.6,0.2,2.3,0.5s1.3,0.7,1.8,1.3s0.9,1.2,1.2,1.9c0.3,0.7,0.4,1.5,0.4,2.4s-0.1,1.6-0.4,2.4c-0.3,0.7-0.6,1.4-1.1,1.9
				s-1.1,1-1.8,1.3c-0.7,0.3-1.5,0.5-2.4,0.5c-0.8,0-1.6-0.2-2.2-0.5c-0.7-0.3-1.2-0.8-1.6-1.4h0v7.3H540v-17.3L542.7,335.7
				L542.7,335.7z M549.5,341.4c0-0.5-0.1-0.9-0.2-1.3c-0.1-0.4-0.3-0.8-0.6-1.2c-0.3-0.4-0.6-0.6-1-0.9c-0.4-0.2-0.9-0.3-1.5-0.3
				c-0.5,0-1,0.1-1.4,0.3c-0.4,0.2-0.8,0.5-1.1,0.9c-0.3,0.4-0.5,0.8-0.7,1.2c-0.2,0.5-0.2,0.9-0.2,1.3s0.1,0.9,0.2,1.3
				c0.2,0.4,0.4,0.8,0.7,1.2c0.3,0.4,0.7,0.6,1.1,0.9c0.4,0.2,0.9,0.3,1.4,0.3c0.6,0,1-0.1,1.5-0.3c0.4-0.2,0.8-0.5,1-0.9
				c0.3-0.4,0.5-0.8,0.6-1.2S549.5,341.9,549.5,341.4z"/>
			<path d="M554,341.4c0-0.9,0.2-1.7,0.5-2.5s0.8-1.4,1.3-1.9s1.2-0.9,2-1.2c0.8-0.3,1.6-0.4,2.5-0.4c0.9,0,1.7,0.1,2.5,0.4
				c0.8,0.3,1.4,0.7,2,1.2c0.6,0.5,1,1.2,1.3,1.9s0.5,1.6,0.5,2.5s-0.2,1.7-0.5,2.5s-0.8,1.4-1.3,1.9c-0.6,0.5-1.2,1-2,1.3
				c-0.8,0.3-1.6,0.5-2.5,0.5c-0.9,0-1.7-0.1-2.5-0.5c-0.8-0.3-1.4-0.7-2-1.3s-1-1.2-1.3-1.9S554,342.3,554,341.4z M556.9,341.4
				c0,0.5,0.1,0.9,0.2,1.3c0.1,0.5,0.3,0.9,0.6,1.2c0.3,0.4,0.6,0.6,1,0.9c0.4,0.2,0.9,0.3,1.5,0.3s1.1-0.1,1.5-0.3
				c0.4-0.2,0.8-0.5,1-0.9c0.3-0.4,0.5-0.8,0.6-1.2c0.1-0.5,0.2-0.9,0.2-1.3c0-0.5-0.1-0.9-0.2-1.3c-0.1-0.4-0.3-0.8-0.6-1.2
				c-0.3-0.4-0.6-0.6-1-0.9c-0.4-0.2-0.9-0.3-1.5-0.3s-1.1,0.1-1.5,0.3c-0.4,0.2-0.8,0.5-1,0.9s-0.5,0.8-0.6,1.2
				C557,340.5,556.9,341,556.9,341.4z"/>
			<path d="M567.2,335.7h3.1l2.4,8.3h0l2.5-8.3h3.1l2.5,8.3h0l2.5-8.3h3l-4,11.5h-2.9l-2.6-8.1h0l-2.6,8.1h-2.9L567.2,335.7z"/>
			<path d="M598.7,341.6c0,0.1,0,0.3,0,0.4c0,0.1,0,0.3,0,0.4h-8.8c0,0.4,0.1,0.8,0.3,1.1c0.2,0.3,0.4,0.6,0.7,0.9s0.7,0.4,1,0.6
				c0.4,0.1,0.8,0.2,1.2,0.2c0.7,0,1.3-0.1,1.8-0.4s0.9-0.6,1.2-1.1l1.9,1.5c-1.1,1.5-2.8,2.3-4.9,2.3c-0.9,0-1.7-0.1-2.5-0.4
				s-1.4-0.7-2-1.2c-0.5-0.5-1-1.1-1.3-1.9c-0.3-0.7-0.5-1.6-0.5-2.5c0-0.9,0.2-1.8,0.5-2.5s0.7-1.4,1.3-1.9c0.5-0.5,1.2-1,1.9-1.2
				s1.5-0.4,2.4-0.4c0.8,0,1.5,0.1,2.2,0.4c0.7,0.3,1.3,0.7,1.8,1.2c0.5,0.5,0.9,1.2,1.2,1.9C598.5,339.7,598.7,340.6,598.7,341.6z
				 M595.8,340.3c0-0.4,0-0.7-0.2-1.1c-0.1-0.3-0.3-0.6-0.5-0.9s-0.5-0.5-0.8-0.6c-0.3-0.1-0.8-0.2-1.2-0.2c-0.9,0-1.6,0.3-2.2,0.8
				c-0.6,0.5-0.9,1.2-1,2L595.8,340.3L595.8,340.3z"/>
			<path d="M601,335.7h2.8v1.9h0c0.3-0.7,0.8-1.2,1.3-1.6s1.2-0.6,2-0.6c0.1,0,0.2,0,0.4,0s0.2,0,0.3,0.1v2.6
				c-0.2,0-0.4-0.1-0.5-0.1c-0.1,0-0.3,0-0.4,0c-0.7,0-1.2,0.1-1.6,0.4s-0.7,0.5-0.9,0.9c-0.2,0.3-0.4,0.7-0.5,1s-0.1,0.6-0.1,0.8
				v6.2H601V335.7z"/>
			<path d="M335,367.8c0,0.4-0.1,0.8-0.4,1s-0.6,0.4-1.1,0.4s-0.8-0.1-1-0.4c-0.3-0.3-0.4-0.6-0.4-1c0-0.4,0.1-0.8,0.4-1
				c0.3-0.3,0.6-0.4,1-0.4s0.8,0.1,1.1,0.4C334.8,367,335,367.3,335,367.8z M334.6,383.2h-2.3v-11.4h2.3V383.2z"/>
			<path d="M340.1,371.9c0,0.3,0.1,0.6,0.1,1c0,0.4,0,0.7,0,0.9h0.1c0.1-0.3,0.3-0.6,0.6-0.9s0.5-0.5,0.9-0.7s0.7-0.4,1.1-0.5
				c0.4-0.1,0.8-0.2,1.2-0.2c0.7,0,1.4,0.1,1.9,0.4s1,0.6,1.3,1s0.6,0.9,0.8,1.5s0.2,1.2,0.2,1.8v7.1H346v-6.3c0-0.5,0-0.9-0.1-1.3
				c-0.1-0.4-0.2-0.8-0.4-1.1c-0.2-0.3-0.5-0.6-0.8-0.8s-0.8-0.3-1.3-0.3c-0.9,0-1.6,0.3-2.2,1s-0.9,1.6-0.9,2.7v6H338v-8.9
				c0-0.3,0-0.7,0-1.2c0-0.5,0-0.9-0.1-1.3L340.1,371.9L340.1,371.9z"/>
			<path d="M362.6,373.7h-3v5.9c0,0.7,0.1,1.2,0.4,1.5s0.7,0.4,1.2,0.4c0.2,0,0.4,0,0.7-0.1c0.2,0,0.5-0.1,0.6-0.2l0.1,1.9
				c-0.3,0.1-0.6,0.2-0.9,0.2s-0.7,0.1-1,0.1c-1.1,0-1.9-0.3-2.5-0.9c-0.6-0.6-0.9-1.5-0.9-2.7v-6.2h-2.2v-1.9h2.2v-3.3h2.2v3.3h3
				L362.6,373.7L362.6,373.7z"/>
			<path d="M366.8,373.6c0.3-0.6,0.7-1,1.4-1.4c0.7-0.4,1.4-0.6,2.2-0.6c0.7,0,1.4,0.1,1.9,0.4s1,0.6,1.3,1s0.6,0.9,0.8,1.5
				s0.2,1.2,0.2,1.8v7.1h-2.3v-6.3c0-0.5,0-0.9-0.1-1.3c-0.1-0.4-0.2-0.8-0.4-1.1c-0.2-0.3-0.5-0.6-0.8-0.8s-0.8-0.3-1.3-0.3
				c-0.9,0-1.6,0.3-2.2,1s-0.9,1.6-0.9,2.7v6h-2.3v-18.1h2.3L366.8,373.6L366.8,373.6L366.8,373.6z"/>
			<path d="M380.7,367.8c0,0.4-0.1,0.8-0.4,1s-0.6,0.4-1.1,0.4s-0.8-0.1-1-0.4c-0.3-0.3-0.4-0.6-0.4-1c0-0.4,0.1-0.8,0.4-1
				c0.3-0.3,0.6-0.4,1-0.4s0.8,0.1,1.1,0.4C380.5,367,380.7,367.3,380.7,367.8z M380.3,383.2H378v-11.4h2.3V383.2z"/>
			<path d="M389.9,374.7c-0.3-0.4-0.6-0.8-1.1-1c-0.5-0.3-1-0.4-1.6-0.4c-0.3,0-0.5,0-0.8,0.1c-0.3,0.1-0.5,0.1-0.7,0.3
				c-0.2,0.1-0.4,0.3-0.5,0.5c-0.1,0.2-0.2,0.4-0.2,0.7c0,0.5,0.2,0.8,0.6,1.1s1.1,0.4,1.9,0.6c0.5,0.1,1,0.3,1.5,0.5
				c0.5,0.2,0.9,0.4,1.2,0.7s0.6,0.6,0.8,1c0.2,0.4,0.3,0.8,0.3,1.3c0,0.7-0.1,1.2-0.4,1.7c-0.3,0.5-0.6,0.8-1,1.1s-0.9,0.5-1.5,0.6
				s-1.1,0.2-1.7,0.2c-0.9,0-1.7-0.2-2.5-0.5s-1.5-0.9-2-1.5l1.6-1.4c0.3,0.5,0.7,0.8,1.3,1.1s1.1,0.5,1.8,0.5c0.3,0,0.6,0,0.8-0.1
				c0.3-0.1,0.5-0.1,0.7-0.3s0.4-0.3,0.5-0.5c0.1-0.2,0.2-0.5,0.2-0.8c0-0.5-0.2-0.9-0.8-1.2s-1.2-0.5-2.2-0.7
				c-0.4-0.1-0.8-0.2-1.2-0.4s-0.8-0.3-1.1-0.6s-0.6-0.5-0.8-0.9s-0.3-0.8-0.3-1.3c0-0.6,0.1-1.1,0.4-1.6s0.6-0.8,1-1.1
				s0.9-0.5,1.4-0.6c0.5-0.1,1-0.2,1.6-0.2c0.8,0,1.6,0.2,2.4,0.5s1.4,0.8,1.8,1.4L389.9,374.7z"/>
			<path d="M403,372.2c0.6-0.4,1.4-0.6,2.2-0.6c0.8,0,1.5,0.2,2.1,0.5s1.1,0.9,1.5,1.8c0.4-0.7,0.9-1.3,1.6-1.7
				c0.7-0.4,1.4-0.6,2.3-0.6c0.7,0,1.4,0.1,1.9,0.4s1,0.6,1.3,1s0.6,0.9,0.8,1.5s0.2,1.2,0.2,1.8v7.1h-2.3v-6.3c0-0.5,0-0.9-0.1-1.3
				s-0.2-0.8-0.4-1.1s-0.5-0.6-0.8-0.8c-0.3-0.2-0.7-0.3-1.2-0.3c-0.5,0-1,0.1-1.3,0.3c-0.4,0.2-0.7,0.5-0.9,0.8
				c-0.2,0.3-0.4,0.7-0.5,1.2s-0.2,0.9-0.2,1.3v6.1H407v-6.8c0-0.5,0-0.9-0.1-1.2s-0.2-0.7-0.4-1c-0.2-0.3-0.4-0.5-0.7-0.6
				s-0.7-0.2-1.1-0.2c-0.8,0-1.5,0.3-2.1,1c-0.5,0.7-0.8,1.6-0.8,2.7v6h-2.3v-8.9c0-0.3,0-0.7,0-1.2c0-0.5,0-0.9-0.1-1.3h2.1
				c0,0.3,0.1,0.6,0.1,1c0,0.4,0,0.7,0,0.9h0.1C402,373.1,402.4,372.6,403,372.2z"/>
			<path d="M428.3,383.2c0-0.3-0.1-0.6-0.1-1c0-0.4,0-0.7,0-0.9h0c-0.3,0.6-0.8,1.1-1.5,1.5c-0.7,0.4-1.4,0.6-2.3,0.6
				c-0.7,0-1.4-0.1-1.9-0.4s-1-0.6-1.3-1c-0.3-0.4-0.6-0.9-0.8-1.5c-0.2-0.6-0.2-1.2-0.2-1.8v-7.1h2.3v6.3c0,0.5,0,0.9,0.1,1.3
				s0.2,0.8,0.4,1.1c0.2,0.3,0.5,0.6,0.8,0.8s0.8,0.3,1.3,0.3c0.9,0,1.6-0.3,2.2-1s0.8-1.6,0.8-2.7v-6h2.3v8.9c0,0.3,0,0.7,0,1.2
				c0,0.5,0,0.9,0.1,1.3L428.3,383.2L428.3,383.2z"/>
			<path d="M436,383.2h-2.3v-18.1h2.3V383.2z"/>
			<path d="M445.1,373.7h-3v5.9c0,0.7,0.1,1.2,0.4,1.5s0.7,0.4,1.2,0.4c0.2,0,0.4,0,0.7-0.1c0.2,0,0.5-0.1,0.6-0.2l0.1,1.9
				c-0.3,0.1-0.6,0.2-0.9,0.2s-0.7,0.1-1,0.1c-1.1,0-1.9-0.3-2.5-0.9c-0.6-0.6-0.9-1.5-0.9-2.7v-6.2h-2.2v-1.9h2.2v-3.3h2.2v3.3h3
				L445.1,373.7L445.1,373.7z"/>
			<path d="M449.6,367.8c0,0.4-0.1,0.8-0.4,1s-0.6,0.4-1.1,0.4s-0.8-0.1-1-0.4c-0.3-0.3-0.4-0.6-0.4-1c0-0.4,0.1-0.8,0.4-1
				c0.3-0.3,0.6-0.4,1-0.4s0.8,0.1,1.1,0.4C449.4,367,449.6,367.3,449.6,367.8z M449.2,383.2h-2.3v-11.4h2.3V383.2z"/>
			<path d="M457.3,378.3h-5.6v-1.9h5.6V378.3z"/>
			<path d="M462.1,389h-2.3v-17.1h2.2v1.8h0.1c0.4-0.6,0.9-1.1,1.6-1.5s1.5-0.6,2.5-0.6c0.9,0,1.6,0.1,2.3,0.5
				c0.7,0.3,1.3,0.7,1.8,1.3c0.5,0.5,0.9,1.2,1.2,1.9s0.4,1.5,0.4,2.3s-0.1,1.6-0.4,2.4c-0.3,0.7-0.6,1.4-1.1,1.9s-1.1,1-1.8,1.3
				s-1.5,0.5-2.4,0.5c-0.8,0-1.6-0.2-2.3-0.5s-1.3-0.9-1.7-1.5h-0.1L462.1,389L462.1,389z M469.6,377.5c0-0.5-0.1-1-0.2-1.5
				s-0.4-0.9-0.7-1.3s-0.7-0.7-1.2-0.9s-1-0.3-1.6-0.3c-0.6,0-1.1,0.1-1.6,0.3c-0.5,0.2-0.9,0.5-1.2,0.9c-0.3,0.4-0.6,0.8-0.8,1.3
				s-0.3,1-0.3,1.6s0.1,1.1,0.3,1.6c0.2,0.5,0.4,0.9,0.8,1.3s0.7,0.7,1.2,0.9s1,0.3,1.6,0.3c0.6,0,1.2-0.1,1.6-0.4s0.9-0.5,1.2-0.9
				s0.6-0.8,0.7-1.3C469.5,378.6,469.6,378,469.6,377.5z"/>
			<path d="M482.6,383.2c0-0.3-0.1-0.6-0.1-1c0-0.4,0-0.7,0-0.9h0c-0.3,0.6-0.8,1.1-1.5,1.5c-0.7,0.4-1.4,0.6-2.3,0.6
				c-0.7,0-1.4-0.1-1.9-0.4s-1-0.6-1.3-1c-0.3-0.4-0.6-0.9-0.8-1.5c-0.2-0.6-0.2-1.2-0.2-1.8v-7.1h2.3v6.3c0,0.5,0,0.9,0.1,1.3
				s0.2,0.8,0.4,1.1c0.2,0.3,0.5,0.6,0.8,0.8s0.8,0.3,1.3,0.3c0.9,0,1.6-0.3,2.2-1s0.8-1.6,0.8-2.7v-6h2.3v8.9c0,0.3,0,0.7,0,1.2
				c0,0.5,0,0.9,0.1,1.3L482.6,383.2L482.6,383.2z"/>
			<path d="M488.1,373.1c0-0.5,0-0.9-0.1-1.3h2.1c0,0.3,0.1,0.6,0.1,1s0,0.7,0,0.9h0.1c0.3-0.7,0.8-1.2,1.4-1.6s1.3-0.6,2.1-0.6
				c0.4,0,0.6,0,0.9,0.1l-0.1,2.1c-0.3-0.1-0.7-0.1-1-0.1c-0.5,0-1,0.1-1.4,0.3c-0.4,0.2-0.7,0.5-1,0.8c-0.3,0.3-0.5,0.7-0.6,1.2
				s-0.2,0.9-0.2,1.4v6h-2.3v-8.9C488.1,374,488.1,373.6,488.1,373.1z"/>
			<path d="M498.5,389h-2.3v-17.1h2.2v1.8h0.1c0.4-0.6,0.9-1.1,1.6-1.5s1.5-0.6,2.5-0.6c0.9,0,1.6,0.1,2.3,0.5
				c0.7,0.3,1.3,0.7,1.8,1.3c0.5,0.5,0.9,1.2,1.2,1.9s0.4,1.5,0.4,2.3s-0.1,1.6-0.4,2.4c-0.3,0.7-0.6,1.4-1.1,1.9s-1.1,1-1.8,1.3
				s-1.5,0.5-2.4,0.5c-0.8,0-1.6-0.2-2.3-0.5s-1.3-0.9-1.7-1.5h-0.1L498.5,389L498.5,389z M506,377.5c0-0.5-0.1-1-0.2-1.5
				s-0.4-0.9-0.7-1.3s-0.7-0.7-1.2-0.9s-1-0.3-1.6-0.3c-0.6,0-1.1,0.1-1.6,0.3c-0.5,0.2-0.9,0.5-1.2,0.9c-0.3,0.4-0.6,0.8-0.8,1.3
				s-0.3,1-0.3,1.6s0.1,1.1,0.3,1.6c0.2,0.5,0.4,0.9,0.8,1.3s0.7,0.7,1.2,0.9s1,0.3,1.6,0.3c0.6,0,1.2-0.1,1.6-0.4s0.9-0.5,1.2-0.9
				s0.6-0.8,0.7-1.3C506,378.6,506,378,506,377.5z"/>
			<path d="M522.5,377.5c0,0.9-0.2,1.7-0.5,2.4c-0.3,0.7-0.7,1.4-1.3,1.9s-1.2,1-2,1.2s-1.6,0.4-2.4,0.4s-1.7-0.1-2.4-0.4
				c-0.8-0.3-1.4-0.7-1.9-1.2s-1-1.2-1.3-1.9s-0.5-1.5-0.5-2.4s0.2-1.7,0.5-2.4s0.7-1.4,1.3-1.9c0.5-0.5,1.2-0.9,1.9-1.2
				s1.6-0.4,2.4-0.4s1.7,0.1,2.4,0.4c0.8,0.3,1.4,0.7,2,1.2c0.5,0.5,1,1.2,1.3,1.9C522.4,375.8,522.5,376.6,522.5,377.5z
				 M520.2,377.5c0-0.5-0.1-1.1-0.2-1.6c-0.2-0.5-0.4-0.9-0.7-1.3s-0.7-0.7-1.2-0.9c-0.5-0.2-1-0.3-1.6-0.3s-1.2,0.1-1.6,0.3
				s-0.9,0.5-1.2,0.9s-0.6,0.8-0.7,1.3c-0.2,0.5-0.2,1-0.2,1.6c0,0.5,0.1,1.1,0.2,1.6s0.4,0.9,0.7,1.3c0.3,0.4,0.7,0.7,1.2,0.9
				s1,0.3,1.6,0.3c0.6,0,1.2-0.1,1.6-0.3c0.5-0.2,0.9-0.5,1.2-0.9s0.6-0.8,0.7-1.3C520.1,378.6,520.2,378.1,520.2,377.5z"/>
			<path d="M531.3,374.7c-0.3-0.4-0.6-0.8-1.1-1c-0.5-0.3-1-0.4-1.6-0.4c-0.3,0-0.5,0-0.8,0.1c-0.3,0.1-0.5,0.1-0.7,0.3
				s-0.4,0.3-0.5,0.5c-0.1,0.2-0.2,0.4-0.2,0.7c0,0.5,0.2,0.8,0.7,1.1c0.4,0.2,1.1,0.4,1.9,0.6c0.5,0.1,1,0.3,1.5,0.5
				s0.9,0.4,1.2,0.7s0.6,0.6,0.8,1c0.2,0.4,0.3,0.8,0.3,1.3c0,0.7-0.1,1.2-0.4,1.7c-0.3,0.5-0.6,0.8-1,1.1s-0.9,0.5-1.5,0.6
				s-1.1,0.2-1.7,0.2c-0.9,0-1.7-0.2-2.5-0.5s-1.5-0.9-2-1.5l1.6-1.4c0.3,0.5,0.7,0.8,1.3,1.1s1.1,0.5,1.8,0.5c0.3,0,0.6,0,0.8-0.1
				c0.3-0.1,0.5-0.1,0.7-0.3s0.4-0.3,0.5-0.5c0.1-0.2,0.2-0.5,0.2-0.8c0-0.5-0.2-0.9-0.8-1.2s-1.2-0.5-2.2-0.7
				c-0.4-0.1-0.8-0.2-1.2-0.4c-0.4-0.1-0.8-0.3-1.1-0.6s-0.6-0.5-0.8-0.9s-0.3-0.8-0.3-1.3c0-0.6,0.1-1.1,0.4-1.6s0.6-0.8,1-1.1
				c0.4-0.3,0.9-0.5,1.4-0.6c0.5-0.1,1-0.2,1.6-0.2c0.8,0,1.6,0.2,2.4,0.5s1.3,0.8,1.8,1.4L531.3,374.7z"/>
			<path d="M546,377.4c0,0.1,0,0.3,0,0.4c0,0.1,0,0.3,0,0.4h-9c0,0.5,0.1,0.9,0.3,1.4s0.5,0.8,0.8,1.1c0.3,0.3,0.7,0.5,1.2,0.7
				s0.9,0.3,1.4,0.3c0.8,0,1.4-0.2,2-0.5c0.6-0.3,1-0.7,1.3-1.2l1.6,1.3c-0.6,0.8-1.3,1.4-2.2,1.8c-0.8,0.4-1.7,0.6-2.8,0.6
				c-0.9,0-1.7-0.1-2.4-0.4s-1.4-0.7-1.9-1.2s-0.9-1.1-1.2-1.9c-0.3-0.7-0.5-1.5-0.5-2.5c0-0.9,0.2-1.7,0.4-2.4
				c0.3-0.7,0.7-1.4,1.2-1.9c0.5-0.5,1.2-0.9,1.9-1.2c0.7-0.3,1.5-0.4,2.3-0.4s1.6,0.1,2.3,0.4s1.3,0.7,1.7,1.2
				c0.5,0.5,0.8,1.1,1.1,1.9C545.9,375.7,546,376.5,546,377.4z M543.7,376.5c0-0.5-0.1-0.9-0.2-1.3c-0.1-0.4-0.3-0.7-0.6-1
				c-0.3-0.3-0.6-0.5-1-0.7c-0.4-0.2-0.8-0.2-1.4-0.2c-0.5,0-0.9,0.1-1.4,0.2s-0.8,0.4-1.1,0.7c-0.3,0.3-0.6,0.6-0.8,1
				c-0.2,0.4-0.3,0.8-0.3,1.3H543.7z"/>
			<path d="M549.4,386.4h-1.9l1.7-6h2.3L549.4,386.4z"/>
			<path d="M343,413.4c0,0.1,0,0.3,0,0.4c0,0.1,0,0.3,0,0.4h-9c0,0.5,0.1,0.9,0.3,1.4s0.5,0.8,0.8,1.1c0.3,0.3,0.7,0.5,1.2,0.7
				s0.9,0.3,1.4,0.3c0.8,0,1.4-0.2,2-0.5c0.6-0.3,1-0.7,1.3-1.2l1.6,1.3c-0.6,0.8-1.3,1.4-2.1,1.8c-0.8,0.4-1.7,0.6-2.8,0.6
				c-0.9,0-1.7-0.1-2.4-0.4s-1.4-0.7-1.9-1.2s-0.9-1.1-1.2-1.9c-0.3-0.7-0.5-1.5-0.5-2.5c0-0.9,0.1-1.7,0.4-2.4
				c0.3-0.7,0.7-1.4,1.2-1.9s1.1-0.9,1.9-1.2c0.7-0.3,1.5-0.4,2.3-0.4s1.6,0.1,2.3,0.4s1.3,0.7,1.7,1.2c0.5,0.5,0.8,1.1,1.1,1.9
				C342.8,411.7,343,412.5,343,413.4z M340.6,412.5c0-0.5-0.1-0.9-0.2-1.3s-0.3-0.7-0.6-1c-0.3-0.3-0.6-0.5-1-0.7
				c-0.4-0.2-0.9-0.2-1.4-0.2c-0.5,0-0.9,0.1-1.4,0.2s-0.8,0.4-1.1,0.7c-0.3,0.3-0.6,0.6-0.8,1c-0.2,0.4-0.3,0.8-0.4,1.3H340.6z"/>
			<path d="M353.6,410.7c-0.2-0.4-0.6-0.7-1.1-0.9c-0.5-0.2-1-0.4-1.5-0.4c-0.6,0-1.1,0.1-1.6,0.3c-0.5,0.2-0.8,0.5-1.2,0.9
				s-0.6,0.8-0.7,1.3s-0.2,1-0.2,1.6s0.1,1.1,0.2,1.6s0.4,0.9,0.7,1.3s0.7,0.7,1.2,0.9c0.5,0.2,1,0.3,1.6,0.3c0.6,0,1.1-0.1,1.6-0.3
				c0.5-0.2,0.9-0.5,1.2-0.9l1.5,1.4c-0.5,0.6-1.1,1-1.8,1.3s-1.5,0.5-2.5,0.5c-0.9,0-1.7-0.1-2.4-0.4s-1.4-0.7-1.9-1.2
				c-0.5-0.5-1-1.1-1.3-1.9c-0.3-0.7-0.5-1.6-0.5-2.5c0-0.9,0.1-1.7,0.5-2.5c0.3-0.7,0.7-1.4,1.3-1.9c0.5-0.5,1.2-0.9,1.9-1.2
				c0.7-0.3,1.5-0.4,2.4-0.4c0.8,0,1.6,0.2,2.4,0.5s1.4,0.8,1.9,1.4L353.6,410.7z"/>
			<path d="M368.5,413.5c0,0.9-0.2,1.7-0.5,2.4c-0.3,0.7-0.7,1.4-1.3,1.9s-1.2,1-2,1.2s-1.6,0.4-2.4,0.4c-0.9,0-1.7-0.1-2.4-0.4
				c-0.8-0.3-1.4-0.7-1.9-1.2s-1-1.2-1.3-1.9s-0.5-1.5-0.5-2.4s0.2-1.7,0.5-2.4s0.7-1.4,1.3-1.9c0.5-0.5,1.2-0.9,1.9-1.2
				s1.6-0.4,2.4-0.4c0.9,0,1.7,0.1,2.4,0.4c0.8,0.3,1.4,0.7,2,1.2c0.5,0.5,1,1.2,1.3,1.9C368.3,411.8,368.5,412.6,368.5,413.5z
				 M366.1,413.5c0-0.5-0.1-1.1-0.2-1.6c-0.2-0.5-0.4-0.9-0.7-1.3s-0.7-0.7-1.2-0.9c-0.5-0.2-1-0.3-1.6-0.3c-0.6,0-1.1,0.1-1.6,0.3
				s-0.9,0.5-1.2,0.9s-0.6,0.8-0.7,1.3c-0.2,0.5-0.2,1-0.2,1.6c0,0.5,0.1,1.1,0.2,1.6s0.4,0.9,0.7,1.3c0.3,0.4,0.7,0.7,1.2,0.9
				s1,0.3,1.6,0.3c0.6,0,1.1-0.1,1.6-0.3c0.5-0.2,0.9-0.5,1.2-0.9s0.6-0.8,0.7-1.3C366.1,414.6,366.1,414.1,366.1,413.5z"/>
			<path d="M375.8,414.3h-5.6v-1.9h5.6V414.3z"/>
			<path d="M383.7,409.7H381v9.5h-2.3v-9.5h-2.3v-1.9h2.3v-2.4c0-0.7,0.1-1.3,0.2-1.9c0.1-0.6,0.4-1.1,0.7-1.5s0.8-0.7,1.3-1
				c0.5-0.2,1.2-0.4,2-0.4c0.5,0,1,0.1,1.4,0.2l-0.3,1.9c-0.2,0-0.4-0.1-0.5-0.1s-0.4,0-0.6,0c-0.4,0-0.8,0.1-1,0.2
				s-0.5,0.4-0.6,0.6c-0.1,0.3-0.2,0.5-0.3,0.9c0,0.3-0.1,0.7-0.1,1v2.4h2.6L383.7,409.7L383.7,409.7z"/>
			<path d="M385.3,409.1c0-0.5,0-0.9-0.1-1.3h2.1c0,0.3,0.1,0.6,0.1,1s0,0.7,0,0.9h0.1c0.3-0.7,0.8-1.2,1.4-1.6s1.3-0.6,2.1-0.6
				c0.4,0,0.6,0,0.9,0.1l-0.1,2.1c-0.3-0.1-0.7-0.1-1-0.1c-0.5,0-1,0.1-1.4,0.3c-0.4,0.2-0.7,0.5-1,0.8c-0.3,0.3-0.5,0.7-0.6,1.2
				s-0.2,0.9-0.2,1.4v6h-2.3v-8.9C385.3,410,385.3,409.6,385.3,409.1z"/>
			<path d="M396.1,403.8c0,0.4-0.1,0.8-0.4,1s-0.6,0.4-1.1,0.4s-0.8-0.1-1-0.4c-0.3-0.3-0.4-0.6-0.4-1c0-0.4,0.1-0.8,0.4-1
				c0.3-0.3,0.6-0.4,1-0.4s0.8,0.1,1.1,0.4C396,403,396.1,403.3,396.1,403.8z M395.8,419.2h-2.3v-11.4h2.3V419.2z"/>
			<path d="M409.9,413.4c0,0.1,0,0.3,0,0.4c0,0.1,0,0.3,0,0.4h-9c0,0.5,0.1,0.9,0.3,1.4s0.5,0.8,0.8,1.1c0.3,0.3,0.7,0.5,1.2,0.7
				s0.9,0.3,1.4,0.3c0.8,0,1.4-0.2,2-0.5c0.6-0.3,1-0.7,1.3-1.2l1.6,1.3c-0.6,0.8-1.3,1.4-2.1,1.8c-0.8,0.4-1.7,0.6-2.8,0.6
				c-0.9,0-1.7-0.1-2.4-0.4s-1.4-0.7-1.9-1.2s-0.9-1.1-1.2-1.9c-0.3-0.7-0.5-1.5-0.5-2.5c0-0.9,0.1-1.7,0.4-2.4
				c0.3-0.7,0.7-1.4,1.2-1.9s1.1-0.9,1.9-1.2c0.7-0.3,1.5-0.4,2.3-0.4s1.6,0.1,2.3,0.4s1.3,0.7,1.7,1.2c0.5,0.5,0.8,1.1,1.1,1.9
				C409.7,411.7,409.9,412.5,409.9,413.4z M407.6,412.5c0-0.5-0.1-0.9-0.2-1.3s-0.3-0.7-0.6-1c-0.3-0.3-0.6-0.5-1-0.7
				c-0.4-0.2-0.9-0.2-1.4-0.2c-0.5,0-0.9,0.1-1.4,0.2s-0.8,0.4-1.1,0.7c-0.3,0.3-0.6,0.6-0.8,1c-0.2,0.4-0.3,0.8-0.4,1.3H407.6z"/>
			<path d="M414.5,407.9c0,0.3,0.1,0.6,0.1,1c0,0.4,0,0.7,0,0.9h0.1c0.1-0.3,0.3-0.6,0.6-0.9s0.5-0.5,0.9-0.7s0.7-0.4,1.1-0.5
				c0.4-0.1,0.8-0.2,1.2-0.2c0.7,0,1.4,0.1,1.9,0.4s1,0.6,1.3,1s0.6,0.9,0.8,1.5s0.2,1.2,0.2,1.8v7.1h-2.3v-6.3c0-0.5,0-0.9-0.1-1.3
				c-0.1-0.4-0.2-0.8-0.4-1.1c-0.2-0.3-0.5-0.6-0.8-0.8s-0.8-0.3-1.3-0.3c-0.9,0-1.6,0.3-2.2,1s-0.9,1.6-0.9,2.7v6h-2.3v-8.9
				c0-0.3,0-0.7,0-1.2c0-0.5,0-0.9-0.1-1.3L414.5,407.9L414.5,407.9z"/>
			<path d="M435.1,417.4c-0.4,0.7-1,1.2-1.8,1.6c-0.7,0.4-1.5,0.5-2.3,0.5c-0.9,0-1.7-0.2-2.4-0.5c-0.7-0.3-1.3-0.7-1.8-1.3
				s-0.9-1.2-1.1-1.9c-0.3-0.7-0.4-1.5-0.4-2.4s0.1-1.6,0.4-2.3s0.7-1.4,1.2-1.9s1.1-1,1.8-1.3s1.5-0.5,2.3-0.5
				c0.9,0,1.7,0.2,2.4,0.6c0.7,0.4,1.2,0.9,1.6,1.4h0v-8.5h2.3v18.1h-2.2L435.1,417.4L435.1,417.4z M427.6,413.5
				c0,0.5,0.1,1,0.2,1.5c0.2,0.5,0.4,0.9,0.7,1.3c0.3,0.4,0.7,0.7,1.2,0.9s1,0.4,1.6,0.4c0.6,0,1.1-0.1,1.6-0.3s0.9-0.5,1.2-0.9
				s0.6-0.8,0.8-1.3c0.2-0.5,0.3-1,0.3-1.6s-0.1-1.1-0.3-1.6c-0.2-0.5-0.4-0.9-0.8-1.3c-0.3-0.4-0.7-0.7-1.2-0.9s-1-0.3-1.6-0.3
				c-0.6,0-1.2,0.1-1.6,0.3s-0.9,0.5-1.2,0.9s-0.6,0.8-0.7,1.3S427.6,413,427.6,413.5z"/>
			<path d="M443.1,419.2h-2.3v-18.1h2.3V419.2z"/>
			<path d="M450.8,416.8L450.8,416.8l3.2-8.9h2.4l-5.5,14.1c-0.2,0.5-0.4,0.9-0.6,1.3c-0.2,0.4-0.5,0.7-0.8,1
				c-0.3,0.3-0.7,0.5-1.1,0.6c-0.4,0.1-0.9,0.2-1.5,0.2c-0.2,0-0.5,0-0.7,0c-0.2,0-0.5-0.1-0.8-0.1l0.2-2c0.4,0.1,0.8,0.2,1.1,0.2
				c0.6,0,1-0.2,1.3-0.5s0.5-0.8,0.8-1.4l0.7-1.9l-4.9-11.4h2.5L450.8,416.8z"/>
			<path d="M469,409.7h-2.6v9.5h-2.3v-9.5h-2.3v-1.9h2.3v-2.4c0-0.7,0.1-1.3,0.2-1.9c0.1-0.6,0.4-1.1,0.7-1.5s0.8-0.7,1.3-1
				c0.5-0.2,1.2-0.4,2-0.4c0.5,0,1,0.1,1.4,0.2l-0.3,1.9c-0.2,0-0.4-0.1-0.5-0.1s-0.4,0-0.6,0c-0.4,0-0.8,0.1-1,0.2
				s-0.5,0.4-0.6,0.6c-0.1,0.3-0.2,0.5-0.3,0.9c0,0.3-0.1,0.7-0.1,1v2.4h2.6V409.7z"/>
			<path d="M482.1,413.5c0,0.9-0.2,1.7-0.5,2.4c-0.3,0.7-0.7,1.4-1.3,1.9s-1.2,1-2,1.2s-1.6,0.4-2.4,0.4c-0.9,0-1.7-0.1-2.4-0.4
				c-0.8-0.3-1.4-0.7-1.9-1.2s-1-1.2-1.3-1.9s-0.5-1.5-0.5-2.4s0.2-1.7,0.5-2.4s0.7-1.4,1.3-1.9c0.5-0.5,1.2-0.9,1.9-1.2
				s1.6-0.4,2.4-0.4c0.9,0,1.7,0.1,2.4,0.4c0.8,0.3,1.4,0.7,2,1.2c0.5,0.5,1,1.2,1.3,1.9C482,411.8,482.1,412.6,482.1,413.5z
				 M479.8,413.5c0-0.5-0.1-1.1-0.2-1.6c-0.2-0.5-0.4-0.9-0.7-1.3s-0.7-0.7-1.2-0.9c-0.5-0.2-1-0.3-1.6-0.3c-0.6,0-1.1,0.1-1.6,0.3
				s-0.9,0.5-1.2,0.9s-0.6,0.8-0.7,1.3c-0.2,0.5-0.2,1-0.2,1.6c0,0.5,0.1,1.1,0.2,1.6s0.4,0.9,0.7,1.3c0.3,0.4,0.7,0.7,1.2,0.9
				s1,0.3,1.6,0.3c0.6,0,1.1-0.1,1.6-0.3c0.5-0.2,0.9-0.5,1.2-0.9s0.6-0.8,0.7-1.3S479.8,414.1,479.8,413.5z"/>
			<path d="M484.8,409.1c0-0.5,0-0.9-0.1-1.3h2.1c0,0.3,0.1,0.6,0.1,1s0,0.7,0,0.9h0.1c0.3-0.7,0.8-1.2,1.4-1.6s1.3-0.6,2.1-0.6
				c0.4,0,0.6,0,0.9,0.1l-0.1,2.1c-0.3-0.1-0.7-0.1-1-0.1c-0.5,0-1,0.1-1.4,0.3c-0.4,0.2-0.7,0.5-1,0.8c-0.3,0.3-0.5,0.7-0.6,1.2
				s-0.2,0.9-0.2,1.4v6h-2.3v-8.9C484.8,410,484.8,409.6,484.8,409.1z"/>
			<path d="M496.6,408.2c0.6-0.4,1.4-0.6,2.2-0.6c0.8,0,1.5,0.2,2.1,0.5s1.1,0.9,1.5,1.8c0.4-0.7,0.9-1.3,1.6-1.7
				c0.7-0.4,1.4-0.6,2.3-0.6c0.7,0,1.4,0.1,1.9,0.4s1,0.6,1.3,1s0.6,0.9,0.8,1.5s0.2,1.2,0.2,1.8v7.1h-2.3v-6.3c0-0.5,0-0.9-0.1-1.3
				s-0.2-0.8-0.4-1.1s-0.5-0.6-0.8-0.8c-0.3-0.2-0.7-0.3-1.2-0.3c-0.5,0-1,0.1-1.3,0.3c-0.4,0.2-0.7,0.5-0.9,0.8
				c-0.2,0.3-0.4,0.7-0.5,1.2s-0.2,0.9-0.2,1.3v6.1h-2.3v-6.8c0-0.5,0-0.9-0.1-1.2s-0.2-0.7-0.4-1c-0.2-0.3-0.4-0.5-0.7-0.6
				s-0.7-0.2-1.1-0.2c-0.8,0-1.5,0.3-2.1,1c-0.5,0.7-0.8,1.6-0.8,2.7v6H493v-8.9c0-0.3,0-0.7,0-1.2c0-0.5,0-0.9-0.1-1.3h2.1
				c0,0.3,0.1,0.6,0.1,1c0,0.4,0,0.7,0,0.9h0.1C495.5,409.1,495.9,408.6,496.6,408.2z"/>
			<path d="M521.8,419.2c0-0.3-0.1-0.6-0.1-1c0-0.4,0-0.7,0-0.9h0c-0.3,0.6-0.8,1.1-1.5,1.5c-0.7,0.4-1.4,0.6-2.3,0.6
				c-0.7,0-1.4-0.1-1.9-0.4s-1-0.6-1.3-1c-0.3-0.4-0.6-0.9-0.8-1.5c-0.2-0.6-0.2-1.2-0.2-1.8v-7.1h2.3v6.3c0,0.5,0,0.9,0.1,1.3
				s0.2,0.8,0.4,1.1c0.2,0.3,0.5,0.6,0.8,0.8s0.8,0.3,1.3,0.3c0.9,0,1.7-0.3,2.2-1s0.8-1.6,0.8-2.7v-6h2.3v8.9c0,0.3,0,0.7,0,1.2
				c0,0.5,0,0.9,0.1,1.3L521.8,419.2L521.8,419.2z"/>
			<path d="M529.6,419.2h-2.3v-18.1h2.3V419.2z"/>
			<path d="M540.1,411.9c0-0.9-0.3-1.5-0.8-1.9s-1.2-0.6-2-0.6c-0.6,0-1.2,0.1-1.8,0.4s-1,0.6-1.4,1l-1.2-1.4c0.6-0.5,1.2-0.9,2-1.2
				c0.8-0.3,1.7-0.5,2.6-0.5c0.8,0,1.5,0.1,2.1,0.4s1.1,0.5,1.5,1c0.4,0.4,0.7,0.9,0.9,1.4c0.2,0.5,0.3,1.1,0.3,1.8v5
				c0,0.4,0,0.8,0,1.2c0,0.4,0.1,0.8,0.1,1h-2c-0.1-0.5-0.2-1.1-0.2-1.6h-0.1c-0.4,0.6-0.9,1.1-1.6,1.4s-1.4,0.5-2.2,0.5
				c-0.5,0-0.9-0.1-1.4-0.2c-0.5-0.1-0.9-0.3-1.3-0.6s-0.7-0.6-1-1.1c-0.3-0.5-0.4-1-0.4-1.7c0-0.9,0.2-1.5,0.7-2
				c0.5-0.5,1.1-0.9,1.8-1.1s1.6-0.4,2.5-0.5s1.9-0.1,2.9-0.1L540.1,411.9L540.1,411.9z M539.6,413.8c-0.6,0-1.1,0-1.7,0.1
				c-0.6,0-1.1,0.1-1.6,0.3c-0.5,0.1-0.9,0.4-1.2,0.6s-0.5,0.7-0.5,1.1c0,0.3,0.1,0.6,0.2,0.8c0.1,0.2,0.3,0.4,0.5,0.5
				c0.2,0.1,0.5,0.2,0.7,0.3s0.5,0.1,0.8,0.1c1.1,0,1.9-0.3,2.4-1s0.8-1.4,0.8-2.4v-0.6L539.6,413.8L539.6,413.8z"/>
			<path d="M334.6,461h-2.3v-17.1h2.2v1.8h0.1c0.4-0.6,0.9-1.1,1.6-1.5s1.5-0.6,2.5-0.6c0.9,0,1.6,0.1,2.3,0.5
				c0.7,0.3,1.3,0.7,1.8,1.3c0.5,0.5,0.9,1.2,1.2,1.9s0.4,1.5,0.4,2.3s-0.1,1.6-0.4,2.4c-0.3,0.7-0.6,1.4-1.1,1.9s-1.1,1-1.8,1.3
				s-1.5,0.5-2.4,0.5c-0.8,0-1.6-0.2-2.3-0.5s-1.3-0.9-1.7-1.5h-0.1L334.6,461L334.6,461z M342.1,449.5c0-0.5-0.1-1-0.2-1.5
				s-0.4-0.9-0.7-1.3s-0.7-0.7-1.2-0.9s-1-0.3-1.6-0.3c-0.6,0-1.1,0.1-1.6,0.3c-0.5,0.2-0.9,0.5-1.2,0.9c-0.3,0.4-0.6,0.8-0.8,1.3
				s-0.3,1-0.3,1.6s0.1,1.1,0.3,1.6c0.2,0.5,0.4,0.9,0.8,1.3s0.7,0.7,1.2,0.9s1,0.3,1.6,0.3c0.6,0,1.2-0.1,1.6-0.4s0.9-0.5,1.2-0.9
				s0.6-0.8,0.7-1.3C342,450.6,342.1,450,342.1,449.5z"/>
			<path d="M358.6,449.5c0,0.9-0.2,1.7-0.5,2.4c-0.3,0.7-0.7,1.4-1.3,1.9s-1.2,1-2,1.2s-1.6,0.4-2.4,0.4c-0.9,0-1.7-0.1-2.4-0.4
				c-0.8-0.3-1.4-0.7-1.9-1.2s-1-1.2-1.3-1.9s-0.5-1.5-0.5-2.4s0.2-1.7,0.5-2.4s0.7-1.4,1.3-1.9c0.5-0.5,1.2-0.9,1.9-1.2
				s1.6-0.4,2.4-0.4c0.9,0,1.7,0.1,2.4,0.4c0.8,0.3,1.4,0.7,2,1.2c0.5,0.5,1,1.2,1.3,1.9C358.4,447.8,358.6,448.6,358.6,449.5z
				 M356.2,449.5c0-0.5-0.1-1.1-0.2-1.6c-0.2-0.5-0.4-0.9-0.7-1.3s-0.7-0.7-1.2-0.9c-0.5-0.2-1-0.3-1.6-0.3c-0.6,0-1.1,0.1-1.6,0.3
				s-0.9,0.5-1.2,0.9s-0.6,0.8-0.7,1.3c-0.2,0.5-0.2,1-0.2,1.6c0,0.5,0.1,1.1,0.2,1.6s0.4,0.9,0.7,1.3c0.3,0.4,0.7,0.7,1.2,0.9
				s1,0.3,1.6,0.3c0.6,0,1.1-0.1,1.6-0.3c0.5-0.2,0.9-0.5,1.2-0.9s0.6-0.8,0.7-1.3C356.1,450.6,356.2,450.1,356.2,449.5z"/>
			<path d="M362.1,443.9l2.6,8.7h0l2.7-8.7h2.4l2.8,8.7h0l2.6-8.7h2.4l-3.8,11.4h-2.4l-2.8-8.5h0l-2.8,8.5h-2.4l-3.8-11.4H362.1z"/>
			<path d="M389.9,449.4c0,0.1,0,0.3,0,0.4c0,0.1,0,0.3,0,0.4h-9c0,0.5,0.1,0.9,0.3,1.4s0.5,0.8,0.8,1.1c0.3,0.3,0.7,0.5,1.2,0.7
				s0.9,0.3,1.4,0.3c0.8,0,1.4-0.2,2-0.5c0.6-0.3,1-0.7,1.3-1.2l1.6,1.3c-0.6,0.8-1.3,1.4-2.1,1.8c-0.8,0.4-1.7,0.6-2.8,0.6
				c-0.9,0-1.7-0.1-2.4-0.4s-1.4-0.7-1.9-1.2s-0.9-1.1-1.2-1.9c-0.3-0.7-0.5-1.5-0.5-2.5c0-0.9,0.1-1.7,0.4-2.4
				c0.3-0.7,0.7-1.4,1.2-1.9s1.1-0.9,1.9-1.2c0.7-0.3,1.5-0.4,2.3-0.4s1.6,0.1,2.3,0.4s1.3,0.7,1.7,1.2c0.5,0.5,0.8,1.1,1.1,1.9
				C389.8,447.7,389.9,448.5,389.9,449.4z M387.6,448.5c0-0.5-0.1-0.9-0.2-1.3s-0.3-0.7-0.6-1c-0.3-0.3-0.6-0.5-1-0.7
				c-0.4-0.2-0.9-0.2-1.4-0.2c-0.5,0-0.9,0.1-1.4,0.2s-0.8,0.4-1.1,0.7c-0.3,0.3-0.6,0.6-0.8,1c-0.2,0.4-0.3,0.8-0.4,1.3H387.6z"/>
			<path d="M392.5,445.1c0-0.5,0-0.9-0.1-1.3h2.1c0,0.3,0.1,0.6,0.1,1s0,0.7,0,0.9h0.1c0.3-0.7,0.8-1.2,1.4-1.6s1.3-0.6,2.1-0.6
				c0.4,0,0.6,0,0.9,0.1l-0.1,2.1c-0.3-0.1-0.7-0.1-1-0.1c-0.5,0-1,0.1-1.4,0.3c-0.4,0.2-0.7,0.5-1,0.8c-0.3,0.3-0.5,0.7-0.6,1.2
				s-0.2,0.9-0.2,1.4v6h-2.3v-8.9C392.6,446,392.6,445.6,392.5,445.1z"/>
			<path d="M411,449.4c0,0.1,0,0.3,0,0.4c0,0.1,0,0.3,0,0.4h-9c0,0.5,0.1,0.9,0.3,1.4s0.5,0.8,0.8,1.1c0.3,0.3,0.7,0.5,1.2,0.7
				s0.9,0.3,1.4,0.3c0.8,0,1.4-0.2,2-0.5c0.6-0.3,1-0.7,1.3-1.2l1.6,1.3c-0.6,0.8-1.3,1.4-2.1,1.8c-0.8,0.4-1.7,0.6-2.8,0.6
				c-0.9,0-1.7-0.1-2.4-0.4s-1.4-0.7-1.9-1.2s-0.9-1.1-1.2-1.9c-0.3-0.7-0.5-1.5-0.5-2.5c0-0.9,0.1-1.7,0.4-2.4
				c0.3-0.7,0.7-1.4,1.2-1.9s1.1-0.9,1.9-1.2c0.7-0.3,1.5-0.4,2.3-0.4s1.6,0.1,2.3,0.4s1.3,0.7,1.7,1.2c0.5,0.5,0.8,1.1,1.1,1.9
				C410.8,447.7,411,448.5,411,449.4z M408.7,448.5c0-0.5-0.1-0.9-0.2-1.3s-0.3-0.7-0.6-1c-0.3-0.3-0.6-0.5-1-0.7
				c-0.4-0.2-0.9-0.2-1.4-0.2c-0.5,0-0.9,0.1-1.4,0.2s-0.8,0.4-1.1,0.7c-0.3,0.3-0.6,0.6-0.8,1c-0.2,0.4-0.3,0.8-0.4,1.3H408.7z"/>
			<path d="M422.7,453.4c-0.4,0.7-1,1.2-1.8,1.6c-0.7,0.4-1.5,0.5-2.3,0.5c-0.9,0-1.7-0.2-2.4-0.5c-0.7-0.3-1.3-0.7-1.8-1.3
				s-0.9-1.2-1.1-1.9c-0.3-0.7-0.4-1.5-0.4-2.4s0.1-1.6,0.4-2.3s0.7-1.4,1.2-1.9s1.1-1,1.8-1.3s1.5-0.5,2.3-0.5
				c0.9,0,1.7,0.2,2.4,0.6c0.7,0.4,1.2,0.9,1.6,1.4h0v-8.5h2.3v18.1h-2.2L422.7,453.4L422.7,453.4z M415.2,449.5
				c0,0.5,0.1,1,0.2,1.5c0.2,0.5,0.4,0.9,0.7,1.3c0.3,0.4,0.7,0.7,1.2,0.9s1,0.4,1.6,0.4c0.6,0,1.1-0.1,1.6-0.3s0.9-0.5,1.2-0.9
				s0.6-0.8,0.8-1.3c0.2-0.5,0.3-1,0.3-1.6s-0.1-1.1-0.3-1.6c-0.2-0.5-0.4-0.9-0.8-1.3c-0.3-0.4-0.7-0.7-1.2-0.9s-1-0.3-1.6-0.3
				c-0.6,0-1.2,0.1-1.6,0.3s-0.9,0.5-1.2,0.9s-0.6,0.8-0.7,1.3S415.2,449,415.2,449.5z"/>
			<path d="M436.1,453.4v1.8H434v-18.1h2.3v8.5h0.1c0.4-0.6,0.9-1,1.6-1.4c0.7-0.4,1.5-0.6,2.4-0.6c0.9,0,1.6,0.1,2.3,0.5
				c0.7,0.3,1.3,0.7,1.8,1.3s0.9,1.2,1.2,1.9s0.4,1.5,0.4,2.3s-0.1,1.6-0.4,2.4c-0.3,0.7-0.6,1.4-1.1,1.9s-1.1,1-1.8,1.3
				s-1.5,0.5-2.4,0.5c-0.8,0-1.6-0.2-2.3-0.5C437.2,454.6,436.6,454.1,436.1,453.4L436.1,453.4L436.1,453.4z M443.7,449.5
				c0-0.5-0.1-1-0.2-1.5s-0.4-0.9-0.7-1.3c-0.3-0.4-0.7-0.7-1.2-0.9s-1-0.3-1.6-0.3c-0.6,0-1.1,0.1-1.6,0.3s-0.9,0.5-1.2,0.9
				c-0.3,0.4-0.6,0.8-0.8,1.3s-0.3,1-0.3,1.6s0.1,1.1,0.3,1.6c0.2,0.5,0.4,0.9,0.8,1.3s0.7,0.7,1.2,0.9c0.5,0.2,1,0.3,1.6,0.3
				c0.6,0,1.2-0.1,1.6-0.4s0.9-0.5,1.2-0.9s0.6-0.8,0.7-1.3C443.6,450.6,443.7,450,443.7,449.5z"/>
			<path d="M453,452.8L453,452.8l3.2-8.9h2.4l-5.5,14.1c-0.2,0.5-0.4,0.9-0.6,1.3c-0.2,0.4-0.5,0.7-0.8,1c-0.3,0.3-0.7,0.5-1.1,0.6
				c-0.4,0.1-0.9,0.2-1.5,0.2c-0.2,0-0.5,0-0.7,0c-0.2,0-0.5-0.1-0.8-0.1l0.2-2c0.4,0.1,0.8,0.2,1.1,0.2c0.6,0,1-0.2,1.3-0.5
				s0.5-0.8,0.8-1.4l0.7-1.9l-4.9-11.4h2.5L453,452.8z"/>
			<path d="M469.4,444.2c0.6-0.4,1.4-0.6,2.2-0.6c0.8,0,1.5,0.2,2.1,0.5s1.1,0.9,1.5,1.8c0.4-0.7,0.9-1.3,1.6-1.7
				c0.7-0.4,1.4-0.6,2.3-0.6c0.7,0,1.4,0.1,1.9,0.4s1,0.6,1.3,1s0.6,0.9,0.8,1.5s0.2,1.2,0.2,1.8v7.1H481v-6.3c0-0.5,0-0.9-0.1-1.3
				s-0.2-0.8-0.4-1.1s-0.5-0.6-0.8-0.8c-0.3-0.2-0.7-0.3-1.2-0.3c-0.5,0-1,0.1-1.3,0.3c-0.4,0.2-0.7,0.5-0.9,0.8
				c-0.2,0.3-0.4,0.7-0.5,1.2s-0.2,0.9-0.2,1.3v6.1h-2.3v-6.8c0-0.5,0-0.9-0.1-1.2s-0.2-0.7-0.4-1c-0.2-0.3-0.4-0.5-0.7-0.6
				s-0.7-0.2-1.1-0.2c-0.8,0-1.5,0.3-2.1,1c-0.5,0.7-0.8,1.6-0.8,2.7v6h-2.3v-8.9c0-0.3,0-0.7,0-1.2c0-0.5,0-0.9-0.1-1.3h2.1
				c0,0.3,0.1,0.6,0.1,1c0,0.4,0,0.7,0,0.9h0.1C468.3,445.1,468.8,444.6,469.4,444.2z"/>
			<path d="M489.3,439.8c0,0.4-0.1,0.8-0.4,1s-0.6,0.4-1.1,0.4s-0.8-0.1-1-0.4c-0.3-0.3-0.4-0.6-0.4-1c0-0.4,0.1-0.8,0.4-1
				c0.3-0.3,0.6-0.4,1-0.4s0.8,0.1,1.1,0.4C489.1,439,489.3,439.3,489.3,439.8z M488.9,455.2h-2.3v-11.4h2.3V455.2z"/>
			<path d="M494.7,455.2h-2.3v-18.1h2.3V455.2z"/>
			<path d="M500.4,455.2h-2.3v-18.1h2.3V455.2z"/>
			<path d="M506.5,439.8c0,0.4-0.1,0.8-0.4,1s-0.6,0.4-1.1,0.4s-0.8-0.1-1-0.4c-0.3-0.3-0.4-0.6-0.4-1c0-0.4,0.1-0.8,0.4-1
				c0.3-0.3,0.6-0.4,1-0.4s0.8,0.1,1.1,0.4C506.4,439,506.5,439.3,506.5,439.8z M506.2,455.2h-2.3v-11.4h2.3V455.2z"/>
			<path d="M521.1,449.5c0,0.9-0.2,1.7-0.5,2.4c-0.3,0.7-0.7,1.4-1.3,1.9s-1.2,1-2,1.2s-1.6,0.4-2.4,0.4s-1.7-0.1-2.4-0.4
				c-0.8-0.3-1.4-0.7-1.9-1.2s-1-1.2-1.3-1.9s-0.5-1.5-0.5-2.4s0.2-1.7,0.5-2.4s0.7-1.4,1.3-1.9c0.5-0.5,1.2-0.9,1.9-1.2
				s1.6-0.4,2.4-0.4s1.7,0.1,2.4,0.4c0.8,0.3,1.4,0.7,2,1.2c0.5,0.5,1,1.2,1.3,1.9C521,447.8,521.1,448.6,521.1,449.5z M518.8,449.5
				c0-0.5-0.1-1.1-0.2-1.6c-0.2-0.5-0.4-0.9-0.7-1.3s-0.7-0.7-1.2-0.9c-0.5-0.2-1-0.3-1.6-0.3s-1.2,0.1-1.6,0.3s-0.9,0.5-1.2,0.9
				s-0.6,0.8-0.7,1.3c-0.2,0.5-0.2,1-0.2,1.6c0,0.5,0.1,1.1,0.2,1.6s0.4,0.9,0.7,1.3c0.3,0.4,0.7,0.7,1.2,0.9c0.5,0.2,1,0.3,1.6,0.3
				c0.6,0,1.2-0.1,1.6-0.3c0.5-0.2,0.9-0.5,1.2-0.9s0.6-0.8,0.7-1.3C518.7,450.6,518.8,450.1,518.8,449.5z"/>
			<path d="M525.8,443.9c0,0.3,0.1,0.6,0.1,1c0,0.4,0,0.7,0,0.9h0.1c0.1-0.3,0.3-0.6,0.6-0.9s0.5-0.5,0.8-0.7s0.7-0.4,1.1-0.5
				c0.4-0.1,0.8-0.2,1.2-0.2c0.7,0,1.4,0.1,1.9,0.4s1,0.6,1.3,1c0.3,0.4,0.6,0.9,0.8,1.5c0.2,0.6,0.2,1.2,0.2,1.8v7.1h-2.3v-6.3
				c0-0.5,0-0.9-0.1-1.3s-0.2-0.8-0.4-1.1c-0.2-0.3-0.5-0.6-0.8-0.8s-0.8-0.3-1.3-0.3c-0.9,0-1.6,0.3-2.2,1s-0.8,1.6-0.8,2.7v6h-2.3
				v-8.9c0-0.3,0-0.7,0-1.2c0-0.5,0-0.9-0.1-1.3L525.8,443.9L525.8,443.9z"/>
			<path d="M543.4,446.7c-0.3-0.4-0.6-0.8-1.1-1c-0.5-0.3-1-0.4-1.6-0.4c-0.3,0-0.5,0-0.8,0.1c-0.3,0.1-0.5,0.1-0.7,0.3
				s-0.4,0.3-0.5,0.5c-0.1,0.2-0.2,0.4-0.2,0.7c0,0.5,0.2,0.8,0.7,1.1c0.4,0.2,1.1,0.4,1.9,0.6c0.5,0.1,1,0.3,1.5,0.5
				s0.9,0.4,1.2,0.7s0.6,0.6,0.8,1c0.2,0.4,0.3,0.8,0.3,1.3c0,0.7-0.1,1.2-0.4,1.7c-0.3,0.5-0.6,0.8-1,1.1s-0.9,0.5-1.5,0.6
				s-1.1,0.2-1.7,0.2c-0.9,0-1.7-0.2-2.5-0.5s-1.5-0.9-2-1.5l1.6-1.4c0.3,0.5,0.7,0.8,1.3,1.1s1.1,0.5,1.8,0.5c0.3,0,0.6,0,0.8-0.1
				c0.3-0.1,0.5-0.1,0.7-0.3s0.4-0.3,0.5-0.5c0.1-0.2,0.2-0.5,0.2-0.8c0-0.5-0.2-0.9-0.8-1.2s-1.2-0.5-2.2-0.7
				c-0.4-0.1-0.8-0.2-1.2-0.4c-0.4-0.1-0.8-0.3-1.1-0.6s-0.6-0.5-0.8-0.9s-0.3-0.8-0.3-1.3c0-0.6,0.1-1.1,0.4-1.6s0.6-0.8,1-1.1
				c0.4-0.3,0.9-0.5,1.4-0.6c0.5-0.1,1-0.2,1.6-0.2c0.8,0,1.6,0.2,2.4,0.5s1.3,0.8,1.8,1.4L543.4,446.7z"/>
			<path d="M564.5,449.5c0,0.9-0.2,1.7-0.5,2.4c-0.3,0.7-0.7,1.4-1.3,1.9s-1.2,1-2,1.2s-1.6,0.4-2.4,0.4s-1.7-0.1-2.4-0.4
				c-0.8-0.3-1.4-0.7-1.9-1.2s-1-1.2-1.3-1.9c-0.3-0.7-0.5-1.5-0.5-2.4s0.2-1.7,0.5-2.4s0.7-1.4,1.3-1.9c0.5-0.5,1.2-0.9,1.9-1.2
				s1.6-0.4,2.4-0.4s1.7,0.1,2.4,0.4c0.8,0.3,1.4,0.7,2,1.2c0.5,0.5,1,1.2,1.3,1.9C564.3,447.8,564.5,448.6,564.5,449.5z
				 M562.1,449.5c0-0.5-0.1-1.1-0.2-1.6c-0.2-0.5-0.4-0.9-0.7-1.3s-0.7-0.7-1.2-0.9c-0.5-0.2-1-0.3-1.6-0.3s-1.2,0.1-1.6,0.3
				s-0.9,0.5-1.2,0.9s-0.6,0.8-0.7,1.3c-0.2,0.5-0.2,1-0.2,1.6c0,0.5,0.1,1.1,0.2,1.6s0.4,0.9,0.7,1.3c0.3,0.4,0.7,0.7,1.2,0.9
				s1,0.3,1.6,0.3c0.6,0,1.2-0.1,1.6-0.3c0.5-0.2,0.9-0.5,1.2-0.9s0.6-0.8,0.7-1.3C562,450.6,562.1,450.1,562.1,449.5z"/>
			<path d="M572.5,445.7h-2.6v9.5h-2.3v-9.5h-2.3v-1.9h2.3v-2.4c0-0.7,0.1-1.3,0.2-1.9c0.2-0.6,0.4-1.1,0.7-1.5
				c0.3-0.4,0.8-0.7,1.3-1c0.5-0.2,1.2-0.4,2-0.4c0.5,0,1,0.1,1.4,0.2l-0.3,1.9c-0.2,0-0.3-0.1-0.5-0.1c-0.2,0-0.4,0-0.6,0
				c-0.4,0-0.8,0.1-1,0.2s-0.5,0.4-0.6,0.6c-0.1,0.3-0.2,0.5-0.3,0.9c0,0.3-0.1,0.7-0.1,1v2.4h2.6L572.5,445.7L572.5,445.7z"/>
			<path d="M335.9,480.2c0.6-0.4,1.4-0.6,2.2-0.6c0.8,0,1.5,0.2,2.1,0.5s1.1,0.9,1.5,1.8c0.4-0.7,0.9-1.3,1.6-1.7
				c0.7-0.4,1.4-0.6,2.3-0.6c0.7,0,1.4,0.1,1.9,0.4s1,0.6,1.3,1s0.6,0.9,0.8,1.5s0.2,1.2,0.2,1.8v7.1h-2.3v-6.3c0-0.5,0-0.9-0.1-1.3
				s-0.2-0.8-0.4-1.1s-0.5-0.6-0.8-0.8c-0.3-0.2-0.7-0.3-1.2-0.3c-0.5,0-1,0.1-1.3,0.3c-0.4,0.2-0.7,0.5-0.9,0.8
				c-0.2,0.3-0.4,0.7-0.5,1.2s-0.2,0.9-0.2,1.3v6.1h-2.3v-6.8c0-0.5,0-0.9-0.1-1.2s-0.2-0.7-0.4-1c-0.2-0.3-0.4-0.5-0.7-0.6
				s-0.7-0.2-1.1-0.2c-0.8,0-1.5,0.3-2.1,1c-0.5,0.7-0.8,1.6-0.8,2.7v6h-2.3v-8.9c0-0.3,0-0.7,0-1.2c0-0.5,0-0.9-0.1-1.3h2.1
				c0,0.3,0.1,0.6,0.1,1c0,0.4,0,0.7,0,0.9h0.1C334.8,481.1,335.3,480.6,335.9,480.2z"/>
			<path d="M355.8,475.8c0,0.4-0.1,0.8-0.4,1s-0.6,0.4-1.1,0.4s-0.8-0.1-1-0.4c-0.3-0.3-0.4-0.6-0.4-1c0-0.4,0.1-0.8,0.4-1
				c0.3-0.3,0.6-0.4,1-0.4s0.8,0.1,1.1,0.4C355.6,475,355.8,475.3,355.8,475.8z M355.4,491.2h-2.3v-11.4h2.3V491.2z"/>
			<path d="M366.8,482.7c-0.2-0.4-0.6-0.7-1.1-0.9c-0.5-0.2-1-0.4-1.5-0.4c-0.6,0-1.1,0.1-1.6,0.3c-0.5,0.2-0.8,0.5-1.2,0.9
				s-0.6,0.8-0.7,1.3s-0.2,1-0.2,1.6s0.1,1.1,0.2,1.6s0.4,0.9,0.7,1.3s0.7,0.7,1.2,0.9c0.5,0.2,1,0.3,1.6,0.3c0.6,0,1.1-0.1,1.6-0.3
				c0.5-0.2,0.9-0.5,1.2-0.9l1.5,1.4c-0.5,0.6-1.1,1-1.8,1.3s-1.5,0.5-2.5,0.5c-0.9,0-1.7-0.1-2.4-0.4s-1.4-0.7-1.9-1.2
				c-0.5-0.5-1-1.1-1.3-1.9c-0.3-0.7-0.5-1.6-0.5-2.5c0-0.9,0.1-1.7,0.5-2.5c0.3-0.7,0.7-1.4,1.3-1.9c0.5-0.5,1.2-0.9,1.9-1.2
				c0.7-0.3,1.5-0.4,2.4-0.4c0.8,0,1.6,0.2,2.4,0.5s1.4,0.8,1.9,1.4L366.8,482.7z"/>
			<path d="M380.9,485.4c0,0.1,0,0.3,0,0.4c0,0.1,0,0.3,0,0.4h-9c0,0.5,0.1,0.9,0.3,1.4s0.5,0.8,0.8,1.1c0.3,0.3,0.7,0.5,1.2,0.7
				s0.9,0.3,1.4,0.3c0.8,0,1.4-0.2,2-0.5c0.6-0.3,1-0.7,1.3-1.2l1.6,1.3c-0.6,0.8-1.3,1.4-2.1,1.8c-0.8,0.4-1.7,0.6-2.8,0.6
				c-0.9,0-1.7-0.1-2.4-0.4s-1.4-0.7-1.9-1.2s-0.9-1.1-1.2-1.9c-0.3-0.7-0.5-1.5-0.5-2.5c0-0.9,0.1-1.7,0.4-2.4
				c0.3-0.7,0.7-1.4,1.2-1.9s1.1-0.9,1.9-1.2c0.7-0.3,1.5-0.4,2.3-0.4s1.6,0.1,2.3,0.4s1.3,0.7,1.7,1.2c0.5,0.5,0.8,1.1,1.1,1.9
				C380.8,483.7,380.9,484.5,380.9,485.4z M378.6,484.5c0-0.5-0.1-0.9-0.2-1.3s-0.3-0.7-0.6-1c-0.3-0.3-0.6-0.5-1-0.7
				c-0.4-0.2-0.9-0.2-1.4-0.2c-0.5,0-0.9,0.1-1.4,0.2s-0.8,0.4-1.1,0.7c-0.3,0.3-0.6,0.6-0.8,1c-0.2,0.4-0.3,0.8-0.4,1.3H378.6z"/>
			<path d="M385.8,491.2h-2.3v-18.1h2.3V491.2z"/>
			<path d="M391.6,491.2h-2.3v-18.1h2.3V491.2z"/>
			<path d="M405.7,485.4c0,0.1,0,0.3,0,0.4c0,0.1,0,0.3,0,0.4h-9c0,0.5,0.1,0.9,0.3,1.4s0.5,0.8,0.8,1.1c0.3,0.3,0.7,0.5,1.2,0.7
				s0.9,0.3,1.4,0.3c0.8,0,1.4-0.2,2-0.5c0.6-0.3,1-0.7,1.3-1.2l1.6,1.3c-0.6,0.8-1.3,1.4-2.1,1.8c-0.8,0.4-1.7,0.6-2.8,0.6
				c-0.9,0-1.7-0.1-2.4-0.4s-1.4-0.7-1.9-1.2s-0.9-1.1-1.2-1.9c-0.3-0.7-0.5-1.5-0.5-2.5c0-0.9,0.1-1.7,0.4-2.4
				c0.3-0.7,0.7-1.4,1.2-1.9s1.1-0.9,1.9-1.2c0.7-0.3,1.5-0.4,2.3-0.4s1.6,0.1,2.3,0.4s1.3,0.7,1.7,1.2c0.5,0.5,0.8,1.1,1.1,1.9
				C405.5,483.7,405.7,484.5,405.7,485.4z M403.4,484.5c0-0.5-0.1-0.9-0.2-1.3s-0.3-0.7-0.6-1c-0.3-0.3-0.6-0.5-1-0.7
				c-0.4-0.2-0.9-0.2-1.4-0.2c-0.5,0-0.9,0.1-1.4,0.2s-0.8,0.4-1.1,0.7c-0.3,0.3-0.6,0.6-0.8,1c-0.2,0.4-0.3,0.8-0.4,1.3H403.4z"/>
			<path d="M414.5,482.7c-0.3-0.4-0.6-0.8-1.1-1c-0.5-0.3-1-0.4-1.6-0.4c-0.3,0-0.5,0-0.8,0.1c-0.3,0.1-0.5,0.1-0.7,0.3
				c-0.2,0.1-0.4,0.3-0.5,0.5c-0.1,0.2-0.2,0.4-0.2,0.7c0,0.5,0.2,0.8,0.6,1.1s1.1,0.4,1.9,0.6c0.5,0.1,1,0.3,1.5,0.5
				c0.5,0.2,0.9,0.4,1.2,0.7s0.6,0.6,0.8,1c0.2,0.4,0.3,0.8,0.3,1.3c0,0.7-0.1,1.2-0.4,1.7c-0.3,0.5-0.6,0.8-1,1.1s-0.9,0.5-1.5,0.6
				s-1.1,0.2-1.7,0.2c-0.9,0-1.7-0.2-2.5-0.5s-1.5-0.9-2-1.5l1.6-1.4c0.3,0.5,0.7,0.8,1.3,1.1s1.1,0.5,1.8,0.5c0.3,0,0.6,0,0.8-0.1
				c0.3-0.1,0.5-0.1,0.7-0.3s0.4-0.3,0.5-0.5c0.1-0.2,0.2-0.5,0.2-0.8c0-0.5-0.2-0.9-0.8-1.2s-1.2-0.5-2.2-0.7
				c-0.4-0.1-0.8-0.2-1.2-0.4s-0.8-0.3-1.1-0.6s-0.6-0.5-0.8-0.9s-0.3-0.8-0.3-1.3c0-0.6,0.1-1.1,0.4-1.6s0.6-0.8,1-1.1
				s0.9-0.5,1.4-0.6c0.5-0.1,1-0.2,1.6-0.2c0.8,0,1.6,0.2,2.4,0.5s1.4,0.8,1.8,1.4L414.5,482.7z"/>
			<path d="M421.3,489.8c0,0.4-0.1,0.8-0.5,1.1c-0.3,0.3-0.7,0.5-1.1,0.5c-0.5,0-0.8-0.2-1.1-0.5c-0.3-0.3-0.5-0.7-0.5-1.1
				c0-0.4,0.1-0.8,0.5-1.1c0.3-0.3,0.7-0.5,1.1-0.5s0.9,0.1,1.1,0.5C421.1,489,421.3,489.4,421.3,489.8z"/>
			<path d="M429.2,474.2h5.8c1.1,0,2.2,0.2,3.3,0.5s2.1,0.8,3,1.5s1.6,1.6,2.1,2.6c0.5,1.1,0.8,2.4,0.8,3.9c0,1.5-0.3,2.7-0.8,3.8
				s-1.3,1.9-2.1,2.6s-1.9,1.2-3,1.6c-1.1,0.3-2.2,0.5-3.3,0.5h-5.8V474.2z M431.5,489.1h3c1,0,2-0.1,2.8-0.4
				c0.9-0.3,1.6-0.7,2.3-1.2s1.1-1.2,1.5-2c0.4-0.8,0.5-1.7,0.5-2.7c0-1.1-0.2-2-0.5-2.8s-0.8-1.5-1.5-2s-1.4-0.9-2.3-1.2
				s-1.8-0.4-2.8-0.4h-3V489.1z"/>
			<path d="M449.5,475.8c0,0.4-0.1,0.8-0.4,1s-0.6,0.4-1.1,0.4s-0.8-0.1-1-0.4c-0.3-0.3-0.4-0.6-0.4-1c0-0.4,0.1-0.8,0.4-1
				c0.3-0.3,0.6-0.4,1-0.4s0.8,0.1,1.1,0.4C449.3,475,449.5,475.3,449.5,475.8z M449.1,491.2h-2.3v-11.4h2.3V491.2z"/>
			<path d="M454.9,491.2h-2.3v-18.1h2.3V491.2z"/>
			<path d="M466.3,491.2c0-0.3-0.1-0.6-0.1-1c0-0.4,0-0.7,0-0.9h0c-0.3,0.6-0.8,1.1-1.5,1.5c-0.7,0.4-1.4,0.6-2.3,0.6
				c-0.7,0-1.4-0.1-1.9-0.4s-1-0.6-1.3-1c-0.3-0.4-0.6-0.9-0.8-1.5c-0.2-0.6-0.2-1.2-0.2-1.8v-7.1h2.3v6.3c0,0.5,0,0.9,0.1,1.3
				s0.2,0.8,0.4,1.1c0.2,0.3,0.5,0.6,0.8,0.8s0.8,0.3,1.3,0.3c0.9,0,1.6-0.3,2.2-1s0.8-1.6,0.8-2.7v-6h2.3v8.9c0,0.3,0,0.7,0,1.2
				c0,0.5,0,0.9,0.1,1.3L466.3,491.2L466.3,491.2z"/>
			<path d="M477.4,481.7h-3v5.9c0,0.7,0.1,1.2,0.4,1.5s0.7,0.4,1.2,0.4c0.2,0,0.4,0,0.7-0.1c0.2,0,0.5-0.1,0.6-0.2l0.1,1.9
				c-0.3,0.1-0.6,0.2-0.9,0.2s-0.7,0.1-1,0.1c-1.1,0-1.9-0.3-2.5-0.9c-0.6-0.6-0.9-1.5-0.9-2.7v-6.2h-2.2v-1.9h2.2v-3.3h2.2v3.3h3
				L477.4,481.7L477.4,481.7z"/>
			<path d="M489.9,485.4c0,0.1,0,0.3,0,0.4c0,0.1,0,0.3,0,0.4h-9c0,0.5,0.1,0.9,0.3,1.4s0.5,0.8,0.8,1.1c0.3,0.3,0.7,0.5,1.2,0.7
				s0.9,0.3,1.4,0.3c0.8,0,1.4-0.2,2-0.5c0.6-0.3,1-0.7,1.3-1.2l1.6,1.3c-0.6,0.8-1.3,1.4-2.1,1.8c-0.8,0.4-1.7,0.6-2.8,0.6
				c-0.9,0-1.7-0.1-2.4-0.4s-1.4-0.7-1.9-1.2s-0.9-1.1-1.2-1.9c-0.3-0.7-0.5-1.5-0.5-2.5c0-0.9,0.1-1.7,0.4-2.4
				c0.3-0.7,0.7-1.4,1.2-1.9s1.1-0.9,1.9-1.2c0.7-0.3,1.5-0.4,2.3-0.4s1.6,0.1,2.3,0.4s1.3,0.7,1.7,1.2c0.5,0.5,0.8,1.1,1.1,1.9
				C489.7,483.7,489.9,484.5,489.9,485.4z M487.6,484.5c0-0.5-0.1-0.9-0.2-1.3s-0.3-0.7-0.6-1c-0.3-0.3-0.6-0.5-1-0.7
				c-0.4-0.2-0.9-0.2-1.4-0.2c-0.5,0-0.9,0.1-1.4,0.2s-0.8,0.4-1.1,0.7c-0.3,0.3-0.6,0.6-0.8,1c-0.2,0.4-0.3,0.8-0.4,1.3H487.6z"/>
			<path d="M503.4,481.7h-2.6v9.5h-2.3v-9.5h-2.3v-1.9h2.3v-2.4c0-0.7,0.1-1.3,0.2-1.9c0.1-0.6,0.4-1.1,0.7-1.5s0.8-0.7,1.3-1
				c0.5-0.2,1.2-0.4,2-0.4c0.5,0,1,0.1,1.4,0.2l-0.3,1.9c-0.2,0-0.4-0.1-0.5-0.1s-0.4,0-0.6,0c-0.4,0-0.8,0.1-1,0.2
				s-0.5,0.4-0.6,0.6c-0.1,0.3-0.2,0.5-0.3,0.9c0,0.3-0.1,0.7-0.1,1v2.4h2.6L503.4,481.7L503.4,481.7z"/>
			<path d="M516.5,485.5c0,0.9-0.2,1.7-0.5,2.4c-0.3,0.7-0.7,1.4-1.3,1.9s-1.2,1-2,1.2c-0.8,0.3-1.6,0.4-2.4,0.4
				c-0.9,0-1.7-0.1-2.4-0.4c-0.8-0.3-1.4-0.7-1.9-1.2s-1-1.2-1.3-1.9s-0.5-1.5-0.5-2.4s0.2-1.7,0.5-2.4s0.7-1.4,1.3-1.9
				c0.5-0.5,1.2-0.9,1.9-1.2s1.6-0.4,2.4-0.4c0.9,0,1.7,0.1,2.4,0.4c0.8,0.3,1.4,0.7,2,1.2c0.5,0.5,1,1.2,1.3,1.9
				C516.3,483.8,516.5,484.6,516.5,485.5z M514.2,485.5c0-0.5-0.1-1.1-0.2-1.6c-0.2-0.5-0.4-0.9-0.7-1.3c-0.3-0.4-0.7-0.7-1.2-0.9
				c-0.5-0.2-1-0.3-1.6-0.3c-0.6,0-1.1,0.1-1.6,0.3s-0.9,0.5-1.2,0.9s-0.6,0.8-0.7,1.3c-0.2,0.5-0.2,1-0.2,1.6
				c0,0.5,0.1,1.1,0.2,1.6s0.4,0.9,0.7,1.3c0.3,0.4,0.7,0.7,1.2,0.9s1,0.3,1.6,0.3c0.6,0,1.1-0.1,1.6-0.3c0.5-0.2,0.9-0.5,1.2-0.9
				s0.6-0.8,0.7-1.3S514.2,486.1,514.2,485.5z"/>
			<path d="M519.1,481.1c0-0.5,0-0.9-0.1-1.3h2.1c0,0.3,0.1,0.6,0.1,1s0,0.7,0,0.9h0.1c0.3-0.7,0.8-1.2,1.4-1.6s1.3-0.6,2.1-0.6
				c0.3,0,0.7,0,0.9,0.1l-0.1,2.1c-0.3-0.1-0.7-0.1-1-0.1c-0.5,0-1,0.1-1.4,0.3c-0.4,0.2-0.7,0.5-1,0.8c-0.3,0.3-0.5,0.7-0.6,1.2
				s-0.2,0.9-0.2,1.4v6h-2.3v-8.9C519.1,482,519.1,481.6,519.1,481.1z"/>
			<path d="M535.2,491.2h-2.3v-18.1h2.3V491.2z"/>
			<path d="M541.3,475.8c0,0.4-0.2,0.8-0.4,1s-0.7,0.4-1.1,0.4s-0.8-0.1-1-0.4s-0.4-0.6-0.4-1c0-0.4,0.1-0.8,0.4-1s0.6-0.4,1-0.4
				s0.8,0.1,1.1,0.4C541.1,475,541.3,475.3,541.3,475.8z M540.9,491.2h-2.3v-11.4h2.3V491.2z"/>
			<path d="M545.2,493.2c0.5,0.6,1.1,1,1.9,1.3c0.7,0.3,1.5,0.5,2.3,0.5c0.8,0,1.4-0.1,1.9-0.3s0.9-0.5,1.2-0.9
				c0.3-0.4,0.5-0.8,0.7-1.3c0.1-0.5,0.2-1.1,0.2-1.7v-1.5h0c-0.4,0.6-1,1.1-1.7,1.5c-0.7,0.3-1.5,0.5-2.3,0.5
				c-0.9,0-1.7-0.1-2.4-0.5c-0.7-0.3-1.3-0.7-1.8-1.2c-0.5-0.5-0.9-1.1-1.2-1.9s-0.4-1.5-0.4-2.3c0-0.8,0.1-1.6,0.4-2.3
				c0.3-0.7,0.7-1.4,1.2-1.9c0.5-0.5,1.1-1,1.8-1.3s1.5-0.5,2.3-0.5c0.8,0,1.6,0.2,2.3,0.5c0.7,0.4,1.3,0.9,1.8,1.6h0v-1.8h2.2v10.8
				c0,0.8-0.1,1.6-0.3,2.4s-0.6,1.4-1.1,2s-1.1,1-1.9,1.4s-1.8,0.5-3,0.5c-1,0-2-0.2-3-0.5c-1-0.4-1.9-0.9-2.6-1.5L545.2,493.2z
				 M545.9,485.4c0,0.5,0.1,1,0.2,1.5s0.4,0.9,0.8,1.3s0.7,0.7,1.2,0.9c0.5,0.2,1,0.3,1.6,0.3c0.6,0,1.1-0.1,1.6-0.3
				c0.5-0.2,0.9-0.5,1.2-0.9s0.6-0.8,0.8-1.3c0.2-0.5,0.3-1,0.3-1.6c0-0.5-0.1-1.1-0.3-1.5c-0.2-0.5-0.5-0.9-0.8-1.3
				c-0.3-0.4-0.8-0.7-1.2-0.9c-0.5-0.2-1-0.3-1.6-0.3c-0.6,0-1.1,0.1-1.6,0.3s-0.9,0.5-1.2,0.9s-0.6,0.8-0.8,1.3
				C546,484.4,545.9,484.9,545.9,485.4z"/>
			<path d="M561.4,481.6c0.3-0.6,0.7-1,1.4-1.4c0.7-0.4,1.4-0.6,2.2-0.6c0.7,0,1.4,0.1,1.9,0.4s1,0.6,1.3,1c0.3,0.4,0.6,0.9,0.8,1.5
				c0.2,0.6,0.2,1.2,0.2,1.8v7.1H567v-6.3c0-0.5,0-0.9-0.1-1.3c-0.1-0.4-0.2-0.8-0.4-1.1c-0.2-0.3-0.5-0.6-0.8-0.8s-0.8-0.3-1.3-0.3
				c-0.9,0-1.6,0.3-2.2,1s-0.9,1.6-0.9,2.7v6h-2.3v-18.1h2.3L561.4,481.6L561.4,481.6L561.4,481.6z"/>
			<path d="M578.2,481.7h-3v5.9c0,0.7,0.1,1.2,0.4,1.5s0.7,0.4,1.2,0.4c0.2,0,0.4,0,0.7-0.1c0.2,0,0.5-0.1,0.7-0.2l0.1,1.9
				c-0.3,0.1-0.6,0.2-0.9,0.2s-0.7,0.1-1,0.1c-1.1,0-1.9-0.3-2.5-0.9c-0.6-0.6-0.8-1.5-0.8-2.7v-6.2h-2.2v-1.9h2.2v-3.3h2.2v3.3h3
				L578.2,481.7L578.2,481.7z"/>
			<path d="M580.8,494.4h-1.9l1.7-6h2.3L580.8,494.4z"/>
			<path d="M335.9,516.2c0.6-0.4,1.4-0.6,2.2-0.6c0.8,0,1.5,0.2,2.1,0.5c0.6,0.3,1.1,0.9,1.5,1.8c0.4-0.7,0.9-1.3,1.6-1.7
				c0.7-0.4,1.4-0.6,2.3-0.6c0.7,0,1.4,0.1,1.9,0.4s1,0.6,1.3,1s0.6,0.9,0.8,1.5s0.2,1.2,0.2,1.8v7.1h-2.3v-6.3c0-0.5,0-0.9-0.1-1.3
				s-0.2-0.8-0.4-1.1c-0.2-0.3-0.5-0.6-0.8-0.8c-0.3-0.2-0.7-0.3-1.2-0.3c-0.5,0-1,0.1-1.3,0.3c-0.4,0.2-0.7,0.5-0.9,0.8
				c-0.2,0.3-0.4,0.7-0.5,1.2s-0.2,0.9-0.2,1.3v6.1h-2.3v-6.8c0-0.5,0-0.9-0.1-1.2s-0.2-0.7-0.4-1c-0.2-0.3-0.4-0.5-0.7-0.6
				s-0.7-0.2-1.1-0.2c-0.8,0-1.5,0.3-2.1,1c-0.5,0.7-0.8,1.6-0.8,2.7v6h-2.3v-8.9c0-0.3,0-0.7,0-1.2c0-0.5,0-0.9-0.1-1.3h2.1
				c0,0.3,0.1,0.6,0.1,1c0,0.4,0,0.7,0,0.9h0.1C334.8,517.1,335.3,516.6,335.9,516.2z"/>
			<path d="M363.8,521.4c0,0.1,0,0.3,0,0.4c0,0.1,0,0.3,0,0.4h-9c0,0.5,0.1,0.9,0.3,1.3s0.5,0.8,0.8,1.1c0.3,0.3,0.7,0.5,1.2,0.7
				s0.9,0.3,1.4,0.3c0.8,0,1.4-0.2,2-0.5c0.6-0.3,1-0.7,1.3-1.2l1.6,1.3c-0.6,0.8-1.3,1.4-2.1,1.8c-0.8,0.4-1.7,0.6-2.8,0.6
				c-0.9,0-1.7-0.1-2.4-0.4s-1.4-0.7-1.9-1.2s-0.9-1.2-1.2-1.9c-0.3-0.7-0.5-1.5-0.5-2.5c0-0.9,0.1-1.7,0.4-2.4
				c0.3-0.7,0.7-1.4,1.2-1.9c0.5-0.5,1.1-0.9,1.9-1.2c0.7-0.3,1.5-0.4,2.3-0.4s1.6,0.1,2.3,0.4c0.7,0.3,1.3,0.7,1.7,1.2
				c0.5,0.5,0.8,1.1,1.1,1.9C363.6,519.7,363.8,520.5,363.8,521.4z M361.5,520.5c0-0.5-0.1-0.9-0.2-1.3s-0.3-0.7-0.6-1
				c-0.3-0.3-0.6-0.5-1-0.7c-0.4-0.2-0.9-0.2-1.4-0.2c-0.5,0-0.9,0.1-1.4,0.2s-0.8,0.4-1.1,0.7c-0.3,0.3-0.6,0.6-0.8,1
				c-0.2,0.4-0.3,0.8-0.4,1.3H361.5z"/>
			<path d="M375.5,525.4c-0.4,0.7-1,1.2-1.8,1.6c-0.7,0.4-1.5,0.5-2.3,0.5c-0.9,0-1.7-0.2-2.4-0.5c-0.7-0.3-1.3-0.7-1.8-1.3
				c-0.5-0.5-0.9-1.2-1.1-1.9s-0.4-1.5-0.4-2.3s0.1-1.6,0.4-2.3c0.3-0.7,0.7-1.4,1.2-1.9s1.1-1,1.8-1.3c0.7-0.3,1.5-0.5,2.3-0.5
				c0.9,0,1.7,0.2,2.4,0.6c0.7,0.4,1.2,0.9,1.6,1.4h0v-8.5h2.3v18.1h-2.2L375.5,525.4L375.5,525.4z M368,521.5c0,0.5,0.1,1,0.2,1.5
				c0.2,0.5,0.4,0.9,0.7,1.3c0.3,0.4,0.7,0.7,1.2,0.9s1,0.3,1.6,0.3c0.6,0,1.1-0.1,1.6-0.3c0.5-0.2,0.9-0.5,1.2-0.9s0.6-0.8,0.8-1.3
				c0.2-0.5,0.3-1,0.3-1.6s-0.1-1.1-0.3-1.6c-0.2-0.5-0.4-0.9-0.8-1.3c-0.3-0.4-0.7-0.7-1.2-0.9s-1-0.3-1.6-0.3
				c-0.6,0-1.2,0.1-1.6,0.3s-0.9,0.5-1.2,0.9c-0.3,0.4-0.6,0.8-0.7,1.3S368,521,368,521.5z"/>
			<path d="M383.8,511.8c0,0.4-0.1,0.8-0.4,1s-0.6,0.4-1.1,0.4s-0.8-0.1-1-0.4c-0.3-0.3-0.4-0.6-0.4-1c0-0.4,0.1-0.8,0.4-1
				c0.3-0.3,0.6-0.4,1-0.4s0.8,0.1,1.1,0.4C383.7,511,383.8,511.3,383.8,511.8z M383.5,527.2h-2.3v-11.4h2.3V527.2z"/>
			<path d="M394.9,527.2c0-0.3-0.1-0.6-0.1-1c0-0.4,0-0.7,0-0.9h0c-0.3,0.6-0.8,1.1-1.5,1.5c-0.7,0.4-1.4,0.6-2.3,0.6
				c-0.7,0-1.4-0.1-1.9-0.4s-1-0.6-1.3-1c-0.3-0.4-0.6-0.9-0.8-1.5c-0.2-0.6-0.2-1.2-0.2-1.8v-7.1h2.3v6.3c0,0.5,0,0.9,0.1,1.3
				s0.2,0.8,0.4,1.1c0.2,0.3,0.5,0.6,0.8,0.8s0.8,0.3,1.3,0.3c0.9,0,1.6-0.3,2.2-1s0.8-1.6,0.8-2.7v-6h2.3v8.9c0,0.3,0,0.7,0,1.2
				c0,0.5,0,0.9,0.1,1.3L394.9,527.2L394.9,527.2z"/>
			<path d="M404,516.2c0.6-0.4,1.4-0.6,2.2-0.6c0.8,0,1.5,0.2,2.1,0.5c0.6,0.3,1.1,0.9,1.5,1.8c0.4-0.7,0.9-1.3,1.6-1.7
				c0.7-0.4,1.4-0.6,2.3-0.6c0.7,0,1.4,0.1,1.9,0.4s1,0.6,1.3,1s0.6,0.9,0.8,1.5s0.2,1.2,0.2,1.8v7.1h-2.3v-6.3c0-0.5,0-0.9-0.1-1.3
				s-0.2-0.8-0.4-1.1c-0.2-0.3-0.5-0.6-0.8-0.8c-0.3-0.2-0.7-0.3-1.2-0.3c-0.5,0-1,0.1-1.3,0.3c-0.4,0.2-0.7,0.5-0.9,0.8
				c-0.2,0.3-0.4,0.7-0.5,1.2s-0.2,0.9-0.2,1.3v6.1h-2.3v-6.8c0-0.5,0-0.9-0.1-1.2s-0.2-0.7-0.4-1c-0.2-0.3-0.4-0.5-0.7-0.6
				s-0.7-0.2-1.1-0.2c-0.8,0-1.5,0.3-2.1,1c-0.5,0.7-0.8,1.6-0.8,2.7v6h-2.3v-8.9c0-0.3,0-0.7,0-1.2c0-0.5,0-0.9-0.1-1.3h2.1
				c0,0.3,0.1,0.6,0.1,1c0,0.4,0,0.7,0,0.9h0.1C402.9,517.1,403.4,516.6,404,516.2z"/>
			<path d="M438.2,521.5c0,0.9-0.2,1.7-0.5,2.4c-0.3,0.7-0.7,1.4-1.3,1.9s-1.2,1-2,1.2s-1.6,0.4-2.4,0.4c-0.9,0-1.7-0.2-2.4-0.4
				c-0.8-0.3-1.4-0.7-1.9-1.2s-1-1.2-1.3-1.9s-0.5-1.5-0.5-2.4s0.2-1.7,0.5-2.4s0.7-1.4,1.3-1.9c0.5-0.5,1.2-0.9,1.9-1.2
				s1.6-0.4,2.4-0.4c0.9,0,1.7,0.2,2.4,0.4c0.8,0.3,1.4,0.7,2,1.2c0.5,0.5,1,1.2,1.3,1.9C438.1,519.8,438.2,520.6,438.2,521.5z
				 M435.9,521.5c0-0.5-0.1-1.1-0.2-1.6c-0.2-0.5-0.4-0.9-0.7-1.3s-0.7-0.7-1.2-0.9c-0.5-0.2-1-0.3-1.6-0.3c-0.6,0-1.1,0.1-1.6,0.3
				s-0.9,0.5-1.2,0.9s-0.6,0.8-0.7,1.3c-0.2,0.5-0.2,1-0.2,1.6c0,0.5,0.1,1.1,0.2,1.6s0.4,0.9,0.7,1.3c0.3,0.4,0.7,0.7,1.2,0.9
				s1,0.3,1.6,0.3c0.6,0,1.1-0.1,1.6-0.3c0.5-0.2,0.9-0.5,1.2-0.9s0.6-0.8,0.7-1.3C435.8,522.6,435.9,522.1,435.9,521.5z"/>
			<path d="M440.9,517.1c0-0.5,0-0.9-0.1-1.3h2.1c0,0.3,0.1,0.6,0.1,1s0,0.7,0,0.9h0.1c0.3-0.7,0.8-1.2,1.4-1.6s1.3-0.6,2.1-0.6
				c0.4,0,0.6,0,0.9,0.1l-0.1,2.1c-0.3-0.1-0.7-0.1-1-0.1c-0.5,0-1,0.1-1.4,0.3c-0.4,0.2-0.7,0.5-1,0.8c-0.3,0.3-0.5,0.7-0.6,1.2
				s-0.2,0.9-0.2,1.4v6h-2.3v-8.9C440.9,518,440.9,517.6,440.9,517.1z"/>
			<path d="M457,517.6c0.3-0.6,0.7-1,1.4-1.4c0.7-0.4,1.4-0.6,2.2-0.6c0.7,0,1.4,0.1,1.9,0.4s1,0.6,1.3,1s0.6,0.9,0.8,1.5
				s0.2,1.2,0.2,1.8v7.1h-2.3v-6.3c0-0.5,0-0.9-0.1-1.3c-0.1-0.4-0.2-0.8-0.4-1.1c-0.2-0.3-0.5-0.6-0.8-0.8s-0.8-0.3-1.3-0.3
				c-0.9,0-1.6,0.3-2.2,1s-0.9,1.6-0.9,2.7v6h-2.3v-18.1h2.3L457,517.6L457,517.6L457,517.6z"/>
			<path d="M478.8,521.4c0,0.1,0,0.3,0,0.4c0,0.1,0,0.3,0,0.4h-9c0,0.5,0.1,0.9,0.3,1.3s0.5,0.8,0.8,1.1c0.3,0.3,0.7,0.5,1.2,0.7
				s0.9,0.3,1.4,0.3c0.8,0,1.4-0.2,2-0.5c0.6-0.3,1-0.7,1.3-1.2l1.6,1.3c-0.6,0.8-1.3,1.4-2.1,1.8c-0.8,0.4-1.7,0.6-2.8,0.6
				c-0.9,0-1.7-0.1-2.4-0.4s-1.4-0.7-1.9-1.2s-0.9-1.2-1.2-1.9c-0.3-0.7-0.5-1.5-0.5-2.5c0-0.9,0.1-1.7,0.4-2.4
				c0.3-0.7,0.7-1.4,1.2-1.9c0.5-0.5,1.1-0.9,1.9-1.2c0.7-0.3,1.5-0.4,2.3-0.4s1.6,0.1,2.3,0.4c0.7,0.3,1.3,0.7,1.7,1.2
				c0.5,0.5,0.8,1.1,1.1,1.9C478.6,519.7,478.8,520.5,478.8,521.4z M476.5,520.5c0-0.5-0.1-0.9-0.2-1.3s-0.3-0.7-0.6-1
				c-0.3-0.3-0.6-0.5-1-0.7c-0.4-0.2-0.9-0.2-1.4-0.2c-0.5,0-0.9,0.1-1.4,0.2s-0.8,0.4-1.1,0.7c-0.3,0.3-0.6,0.6-0.8,1
				c-0.2,0.4-0.3,0.8-0.4,1.3H476.5z"/>
			<path d="M488.4,519.9c0-0.8-0.3-1.5-0.8-1.9s-1.2-0.6-2-0.6c-0.6,0-1.2,0.1-1.8,0.4s-1,0.6-1.4,1l-1.2-1.4c0.6-0.5,1.2-0.9,2-1.2
				c0.8-0.3,1.7-0.5,2.6-0.5c0.8,0,1.5,0.1,2.1,0.3s1.1,0.5,1.5,1c0.4,0.4,0.7,0.9,0.9,1.4c0.2,0.5,0.3,1.1,0.3,1.8v5
				c0,0.4,0,0.8,0,1.2c0,0.4,0.1,0.8,0.1,1h-2c-0.1-0.5-0.2-1.1-0.2-1.6h-0.1c-0.4,0.6-0.9,1.1-1.6,1.4s-1.4,0.5-2.2,0.5
				c-0.5,0-0.9-0.1-1.4-0.2c-0.5-0.1-0.9-0.3-1.3-0.6s-0.7-0.6-1-1.1c-0.3-0.5-0.4-1-0.4-1.7c0-0.9,0.2-1.5,0.7-2
				c0.5-0.5,1.1-0.9,1.8-1.2s1.6-0.4,2.5-0.5s1.9-0.1,2.9-0.1L488.4,519.9L488.4,519.9z M487.8,521.8c-0.6,0-1.1,0-1.7,0.1
				c-0.6,0-1.1,0.1-1.6,0.3c-0.5,0.1-0.9,0.4-1.2,0.7s-0.5,0.7-0.5,1.2c0,0.3,0.1,0.6,0.2,0.8c0.1,0.2,0.3,0.4,0.5,0.5
				s0.5,0.2,0.7,0.3s0.5,0.1,0.8,0.1c1.1,0,1.9-0.3,2.4-1s0.9-1.4,0.9-2.4v-0.6L487.8,521.8L487.8,521.8z"/>
			<path d="M499.1,527.2h-2.5l-4.6-11.4h2.5l3.3,9h0l3.4-9h2.4L499.1,527.2z"/>
			<path d="M509.7,524.8L509.7,524.8l3.2-8.9h2.4l-5.5,14.1c-0.2,0.5-0.4,0.9-0.6,1.3c-0.2,0.4-0.5,0.7-0.8,1
				c-0.3,0.3-0.7,0.5-1.1,0.6s-0.9,0.2-1.5,0.2c-0.2,0-0.5,0-0.7,0c-0.2,0-0.5-0.1-0.8-0.1l0.2-2c0.4,0.1,0.8,0.2,1.1,0.2
				c0.6,0,1-0.2,1.3-0.5s0.5-0.8,0.8-1.4l0.7-1.9l-4.9-11.4h2.5L509.7,524.8z"/>
			<path d="M521.7,522.3h-5.6v-1.9h5.6V522.3z"/>
			<path d="M533.3,525.4c-0.4,0.7-1,1.2-1.8,1.6s-1.5,0.5-2.3,0.5c-0.9,0-1.7-0.2-2.4-0.5c-0.7-0.3-1.3-0.7-1.8-1.3
				c-0.5-0.5-0.9-1.2-1.2-1.9s-0.4-1.5-0.4-2.3s0.1-1.6,0.4-2.3c0.3-0.7,0.7-1.4,1.2-1.9s1.1-1,1.8-1.3c0.7-0.3,1.5-0.5,2.3-0.5
				c0.9,0,1.7,0.2,2.4,0.6c0.7,0.4,1.2,0.9,1.6,1.4h0v-8.5h2.3v18.1h-2.2L533.3,525.4L533.3,525.4z M525.8,521.5
				c0,0.5,0.1,1,0.2,1.5c0.2,0.5,0.4,0.9,0.7,1.3c0.3,0.4,0.7,0.7,1.2,0.9s1,0.3,1.6,0.3c0.6,0,1.1-0.1,1.6-0.3
				c0.5-0.2,0.9-0.5,1.2-0.9s0.6-0.8,0.8-1.3c0.2-0.5,0.3-1,0.3-1.6s-0.1-1.1-0.3-1.6c-0.2-0.5-0.4-0.9-0.8-1.3
				c-0.3-0.4-0.7-0.7-1.2-0.9c-0.5-0.2-1-0.3-1.6-0.3c-0.6,0-1.2,0.1-1.6,0.3s-0.9,0.5-1.2,0.9c-0.3,0.4-0.6,0.8-0.7,1.3
				S525.8,521,525.8,521.5z"/>
			<path d="M547,527.2c0-0.3-0.1-0.6-0.1-1c0-0.4,0-0.7,0-0.9h0c-0.3,0.6-0.8,1.1-1.5,1.5c-0.7,0.4-1.4,0.6-2.3,0.6
				c-0.7,0-1.4-0.1-1.9-0.4s-1-0.6-1.3-1c-0.3-0.4-0.6-0.9-0.8-1.5c-0.2-0.6-0.2-1.2-0.2-1.8v-7.1h2.3v6.3c0,0.5,0,0.9,0.1,1.3
				s0.2,0.8,0.4,1.1c0.2,0.3,0.5,0.6,0.8,0.8s0.8,0.3,1.3,0.3c0.9,0,1.7-0.3,2.2-1s0.8-1.6,0.8-2.7v-6h2.3v8.9c0,0.3,0,0.7,0,1.2
				c0,0.5,0,0.9,0.1,1.3L547,527.2L547,527.2z"/>
			<path d="M558,517.7h-3v5.9c0,0.7,0.1,1.2,0.4,1.5s0.7,0.4,1.2,0.4c0.2,0,0.4,0,0.7-0.1c0.2,0,0.5-0.1,0.7-0.2l0.1,1.8
				c-0.3,0.1-0.6,0.2-0.9,0.2s-0.7,0.1-1,0.1c-1.1,0-1.9-0.3-2.5-0.9s-0.8-1.5-0.8-2.7v-6.2h-2.2v-1.8h2.2v-3.3h2.2v3.3h3L558,517.7
				L558,517.7z"/>
			<path d="M564.2,524.8L564.2,524.8l3.2-8.9h2.4l-5.5,14.1c-0.2,0.5-0.4,0.9-0.6,1.3c-0.2,0.4-0.5,0.7-0.8,1s-0.7,0.5-1.1,0.6
				c-0.4,0.1-0.9,0.2-1.5,0.2c-0.2,0-0.5,0-0.7,0c-0.2,0-0.5-0.1-0.8-0.1l0.2-2c0.4,0.1,0.8,0.2,1.1,0.2c0.6,0,1-0.2,1.3-0.5
				s0.5-0.8,0.8-1.4l0.7-1.9l-4.9-11.4h2.5L564.2,524.8z"/>
			<path d="M574.6,530.9c0.3,0.1,0.6,0.1,0.9,0.1c0.3,0,0.6-0.1,0.8-0.2s0.4-0.3,0.5-0.5c0.1-0.2,0.2-0.5,0.2-0.8s0.1-0.6,0.1-1
				v-12.8h2.3v12.8c0,0.6,0,1.1-0.2,1.6s-0.3,1-0.6,1.4s-0.7,0.7-1.1,1c-0.5,0.2-1.1,0.3-1.8,0.3c-0.2,0-0.4,0-0.7,0
				s-0.5-0.1-0.6-0.1L574.6,530.9z M579.7,511.8c0,0.4-0.2,0.8-0.4,1c-0.3,0.3-0.7,0.4-1.1,0.4s-0.8-0.1-1.1-0.4s-0.4-0.6-0.4-1
				c0-0.4,0.2-0.8,0.4-1c0.3-0.3,0.7-0.4,1.1-0.4s0.8,0.1,1.1,0.4C579.6,511,579.7,511.3,579.7,511.8z"/>
			<path d="M594.3,521.5c0,0.9-0.2,1.7-0.5,2.4c-0.3,0.7-0.7,1.4-1.3,1.9s-1.2,1-2,1.2s-1.6,0.4-2.4,0.4s-1.7-0.2-2.4-0.4
				c-0.8-0.3-1.4-0.7-1.9-1.2s-1-1.2-1.3-1.9c-0.3-0.7-0.5-1.5-0.5-2.4s0.2-1.7,0.5-2.4s0.7-1.4,1.3-1.9c0.5-0.5,1.2-0.9,1.9-1.2
				s1.6-0.4,2.4-0.4s1.7,0.2,2.4,0.4c0.8,0.3,1.4,0.7,2,1.2c0.5,0.5,1,1.2,1.3,1.9C594.2,519.8,594.3,520.6,594.3,521.5z M592,521.5
				c0-0.5-0.1-1.1-0.2-1.6c-0.2-0.5-0.4-0.9-0.7-1.3s-0.7-0.7-1.2-0.9c-0.5-0.2-1-0.3-1.6-0.3s-1.2,0.1-1.6,0.3s-0.9,0.5-1.2,0.9
				s-0.6,0.8-0.7,1.3c-0.2,0.5-0.2,1-0.2,1.6c0,0.5,0.1,1.1,0.2,1.6s0.4,0.9,0.7,1.3c0.3,0.4,0.7,0.7,1.2,0.9s1,0.3,1.6,0.3
				c0.6,0,1.2-0.1,1.6-0.3c0.5-0.2,0.9-0.5,1.2-0.9s0.6-0.8,0.7-1.3S592,522.1,592,521.5z"/>
			<path d="M599.2,525.4v1.8H597v-18.1h2.3v8.5h0.1c0.4-0.6,0.9-1,1.6-1.4c0.7-0.4,1.5-0.6,2.4-0.6c0.8,0,1.6,0.2,2.3,0.5
				c0.7,0.3,1.3,0.7,1.8,1.3s0.9,1.2,1.2,1.9c0.3,0.7,0.4,1.5,0.4,2.3s-0.1,1.6-0.4,2.3c-0.3,0.7-0.7,1.4-1.2,1.9s-1.1,1-1.8,1.3
				c-0.7,0.3-1.5,0.5-2.4,0.5c-0.8,0-1.6-0.2-2.3-0.5S599.7,526.1,599.2,525.4L599.2,525.4L599.2,525.4z M606.7,521.5
				c0-0.5-0.1-1-0.2-1.5c-0.2-0.5-0.4-0.9-0.7-1.3c-0.3-0.4-0.7-0.7-1.2-0.9s-1-0.3-1.6-0.3c-0.6,0-1.1,0.1-1.6,0.3
				c-0.5,0.2-0.9,0.5-1.2,0.9c-0.3,0.4-0.6,0.8-0.8,1.3s-0.3,1-0.3,1.6s0.1,1.1,0.3,1.6c0.2,0.5,0.4,0.9,0.8,1.3s0.7,0.7,1.2,0.9
				c0.5,0.2,1,0.3,1.6,0.3c0.6,0,1.2-0.1,1.6-0.3s0.9-0.5,1.2-0.9s0.6-0.8,0.7-1.3C606.7,522.6,606.7,522,606.7,521.5z"/>
			<path d="M617.9,518.7c-0.3-0.4-0.6-0.8-1.1-1s-1-0.4-1.6-0.4c-0.3,0-0.5,0-0.8,0.1c-0.3,0.1-0.5,0.1-0.7,0.3s-0.4,0.3-0.5,0.5
				c-0.1,0.2-0.2,0.4-0.2,0.7c0,0.5,0.2,0.8,0.7,1.1c0.4,0.2,1.1,0.4,1.9,0.6c0.5,0.1,1,0.3,1.5,0.5s0.9,0.4,1.2,0.7
				c0.3,0.3,0.6,0.6,0.8,1s0.3,0.8,0.3,1.3c0,0.7-0.1,1.2-0.4,1.7c-0.3,0.5-0.6,0.8-1,1.1s-0.9,0.5-1.5,0.6s-1.1,0.2-1.7,0.2
				c-0.9,0-1.7-0.2-2.5-0.5s-1.5-0.8-2-1.5l1.6-1.4c0.3,0.5,0.7,0.8,1.3,1.1s1.1,0.5,1.8,0.5c0.3,0,0.6,0,0.8-0.1
				c0.3-0.1,0.5-0.2,0.7-0.3s0.4-0.3,0.5-0.5c0.1-0.2,0.2-0.5,0.2-0.8c0-0.5-0.2-0.9-0.8-1.2s-1.2-0.5-2.2-0.7
				c-0.4-0.1-0.8-0.2-1.2-0.3c-0.4-0.1-0.8-0.3-1.1-0.6s-0.6-0.5-0.8-0.9c-0.2-0.4-0.3-0.8-0.3-1.3c0-0.6,0.1-1.1,0.4-1.6
				s0.6-0.8,1-1.1c0.4-0.3,0.9-0.5,1.4-0.6c0.5-0.1,1-0.2,1.6-0.2c0.8,0,1.6,0.2,2.4,0.5s1.3,0.8,1.8,1.4L617.9,518.7z"/>
			<path d="M624.7,525.8c0,0.4-0.2,0.8-0.5,1.1c-0.3,0.3-0.7,0.5-1.2,0.5c-0.5,0-0.8-0.2-1.1-0.5s-0.5-0.7-0.5-1.1
				c0-0.4,0.2-0.8,0.5-1.1c0.3-0.3,0.7-0.5,1.2-0.5s0.8,0.2,1.2,0.5C624.5,525,624.7,525.4,624.7,525.8z"/>
			<path d="M334.8,579.2h-2.4v-17H343v2.1h-8.2v5.3h7.7v2h-7.7L334.8,579.2L334.8,579.2z"/>
			<path d="M355.9,573.5c0,0.9-0.2,1.7-0.5,2.4c-0.3,0.7-0.7,1.4-1.3,1.9s-1.2,1-2,1.2s-1.6,0.4-2.4,0.4c-0.9,0-1.7-0.2-2.4-0.4
				c-0.8-0.3-1.4-0.7-1.9-1.2s-1-1.2-1.3-1.9s-0.5-1.5-0.5-2.4s0.2-1.7,0.5-2.4s0.7-1.4,1.3-1.9c0.5-0.5,1.2-0.9,1.9-1.2
				s1.6-0.4,2.4-0.4c0.9,0,1.7,0.2,2.4,0.4c0.8,0.3,1.4,0.7,2,1.2c0.5,0.5,1,1.2,1.3,1.9C355.7,571.8,355.9,572.6,355.9,573.5z
				 M353.5,573.5c0-0.5-0.1-1.1-0.2-1.6c-0.2-0.5-0.4-0.9-0.7-1.3s-0.7-0.7-1.2-0.9c-0.5-0.2-1-0.3-1.6-0.3c-0.6,0-1.1,0.1-1.6,0.3
				s-0.9,0.5-1.2,0.9s-0.6,0.8-0.7,1.3c-0.2,0.5-0.2,1-0.2,1.6c0,0.5,0.1,1.1,0.2,1.6s0.4,0.9,0.7,1.3c0.3,0.4,0.7,0.7,1.2,0.9
				s1,0.3,1.6,0.3c0.6,0,1.1-0.1,1.6-0.3c0.5-0.2,0.9-0.5,1.2-0.9s0.6-0.8,0.7-1.3C353.4,574.6,353.5,574.1,353.5,573.5z"/>
			<path d="M358.5,569.1c0-0.5,0-0.9-0.1-1.3h2.1c0,0.3,0.1,0.6,0.1,1s0,0.7,0,0.9h0.1c0.3-0.7,0.8-1.2,1.4-1.6s1.3-0.6,2.1-0.6
				c0.4,0,0.6,0,0.9,0.1l-0.1,2.1c-0.3-0.1-0.7-0.1-1-0.1c-0.5,0-1,0.1-1.4,0.3c-0.4,0.2-0.7,0.5-1,0.8c-0.3,0.3-0.5,0.7-0.6,1.2
				s-0.2,0.9-0.2,1.4v6h-2.3v-8.9C358.5,570,358.5,569.6,358.5,569.1z"/>
			<path d="M373.1,581.2c0.5,0.6,1.1,1,1.9,1.3c0.7,0.3,1.5,0.5,2.3,0.5c0.8,0,1.4-0.1,1.9-0.3s0.9-0.5,1.2-0.9
				c0.3-0.4,0.5-0.8,0.7-1.3c0.1-0.5,0.2-1.1,0.2-1.7v-1.5h0c-0.4,0.6-1,1.1-1.7,1.5c-0.7,0.3-1.5,0.5-2.3,0.5
				c-0.9,0-1.6-0.2-2.4-0.5c-0.7-0.3-1.3-0.7-1.8-1.2c-0.5-0.5-0.9-1.2-1.1-1.9c-0.3-0.7-0.4-1.5-0.4-2.3c0-0.8,0.1-1.6,0.4-2.3
				s0.7-1.3,1.1-1.9c0.5-0.5,1.1-1,1.8-1.3c0.7-0.3,1.5-0.5,2.4-0.5c0.8,0,1.6,0.2,2.3,0.5c0.7,0.3,1.3,0.9,1.8,1.6h0v-1.8h2.2v10.8
				c0,0.8-0.1,1.6-0.3,2.4s-0.6,1.4-1.1,2s-1.1,1-1.9,1.4c-0.8,0.3-1.8,0.5-3,0.5c-1,0-2-0.2-3-0.5s-1.9-0.9-2.6-1.5L373.1,581.2z
				 M373.8,573.4c0,0.5,0.1,1,0.2,1.5s0.4,0.9,0.8,1.3s0.7,0.7,1.2,0.9c0.5,0.2,1,0.3,1.6,0.3c0.6,0,1.1-0.1,1.6-0.3
				s0.9-0.5,1.2-0.8s0.6-0.8,0.8-1.3s0.3-1,0.3-1.6c0-0.5-0.1-1.1-0.3-1.5c-0.2-0.5-0.5-0.9-0.8-1.3c-0.4-0.4-0.8-0.7-1.2-0.9
				c-0.5-0.2-1-0.3-1.6-0.3c-0.6,0-1.1,0.1-1.6,0.3s-0.9,0.5-1.2,0.9s-0.6,0.8-0.8,1.3C373.9,572.4,373.8,572.9,373.8,573.4z"/>
			<path d="M397.5,573.4c0,0.1,0,0.3,0,0.4c0,0.1,0,0.3,0,0.4h-9c0,0.5,0.1,0.9,0.3,1.3s0.5,0.8,0.8,1.1c0.3,0.3,0.7,0.5,1.2,0.7
				s0.9,0.3,1.4,0.3c0.8,0,1.4-0.2,2-0.5c0.6-0.3,1-0.7,1.3-1.2l1.6,1.3c-0.6,0.8-1.3,1.4-2.1,1.8c-0.8,0.4-1.7,0.6-2.8,0.6
				c-0.9,0-1.7-0.1-2.4-0.4s-1.4-0.7-1.9-1.2s-0.9-1.2-1.2-1.9c-0.3-0.7-0.5-1.5-0.5-2.5c0-0.9,0.1-1.7,0.4-2.4
				c0.3-0.7,0.7-1.4,1.2-1.9c0.5-0.5,1.1-0.9,1.9-1.2c0.7-0.3,1.5-0.4,2.3-0.4s1.6,0.1,2.3,0.4c0.7,0.3,1.3,0.7,1.7,1.2
				c0.5,0.5,0.8,1.1,1.1,1.9C397.4,571.7,397.5,572.5,397.5,573.4z M395.2,572.5c0-0.5-0.1-0.9-0.2-1.3s-0.3-0.7-0.6-1
				c-0.3-0.3-0.6-0.5-1-0.7c-0.4-0.2-0.9-0.2-1.4-0.2c-0.5,0-0.9,0.1-1.4,0.2s-0.8,0.4-1.1,0.7c-0.3,0.3-0.6,0.6-0.8,1
				c-0.2,0.4-0.3,0.8-0.4,1.3H395.2z"/>
			<path d="M402.2,567.8c0,0.3,0.1,0.6,0.1,1c0,0.4,0,0.7,0,0.9h0.1c0.1-0.3,0.3-0.6,0.6-0.8c0.2-0.3,0.5-0.5,0.9-0.7
				s0.7-0.4,1.1-0.5c0.4-0.1,0.8-0.2,1.2-0.2c0.7,0,1.4,0.1,1.9,0.4s1,0.6,1.3,1s0.6,0.9,0.8,1.5s0.2,1.2,0.2,1.8v7.1h-2.3v-6.3
				c0-0.5,0-0.9-0.1-1.3c-0.1-0.4-0.2-0.8-0.4-1.1c-0.2-0.3-0.5-0.6-0.8-0.8s-0.8-0.3-1.3-0.3c-0.9,0-1.6,0.3-2.2,1
				s-0.9,1.6-0.9,2.7v6h-2.3v-8.9c0-0.3,0-0.7,0-1.2c0-0.5,0-0.9-0.1-1.3L402.2,567.8L402.2,567.8z"/>
			<path d="M424.3,573.4c0,0.1,0,0.3,0,0.4c0,0.1,0,0.3,0,0.4h-9c0,0.5,0.1,0.9,0.3,1.3s0.5,0.8,0.8,1.1c0.3,0.3,0.7,0.5,1.2,0.7
				s0.9,0.3,1.4,0.3c0.8,0,1.4-0.2,2-0.5c0.6-0.3,1-0.7,1.3-1.2l1.6,1.3c-0.6,0.8-1.3,1.4-2.1,1.8c-0.8,0.4-1.7,0.6-2.8,0.6
				c-0.9,0-1.7-0.1-2.4-0.4s-1.4-0.7-1.9-1.2s-0.9-1.2-1.2-1.9c-0.3-0.7-0.5-1.5-0.5-2.5c0-0.9,0.1-1.7,0.4-2.4
				c0.3-0.7,0.7-1.4,1.2-1.9c0.5-0.5,1.1-0.9,1.9-1.2c0.7-0.3,1.5-0.4,2.3-0.4s1.6,0.1,2.3,0.4c0.7,0.3,1.3,0.7,1.7,1.2
				c0.5,0.5,0.8,1.1,1.1,1.9C424.2,571.7,424.3,572.5,424.3,573.4z M422,572.5c0-0.5-0.1-0.9-0.2-1.3s-0.3-0.7-0.6-1
				c-0.3-0.3-0.6-0.5-1-0.7c-0.4-0.2-0.9-0.2-1.4-0.2c-0.5,0-0.9,0.1-1.4,0.2s-0.8,0.4-1.1,0.7c-0.3,0.3-0.6,0.6-0.8,1
				c-0.2,0.4-0.3,0.8-0.4,1.3H422z"/>
			<path d="M426.9,569.1c0-0.5,0-0.9-0.1-1.3h2.1c0,0.3,0.1,0.6,0.1,1s0,0.7,0,0.9h0.1c0.3-0.7,0.8-1.2,1.4-1.6s1.3-0.6,2.1-0.6
				c0.4,0,0.6,0,0.9,0.1l-0.1,2.1c-0.3-0.1-0.7-0.1-1-0.1c-0.5,0-1,0.1-1.4,0.3c-0.4,0.2-0.7,0.5-1,0.8c-0.3,0.3-0.5,0.7-0.6,1.2
				s-0.2,0.9-0.2,1.4v6h-2.3v-8.9C426.9,570,426.9,569.6,426.9,569.1z"/>
			<path d="M441.9,571.9c0-0.8-0.3-1.5-0.8-1.9s-1.2-0.6-2-0.6c-0.6,0-1.2,0.1-1.8,0.4s-1,0.6-1.4,1l-1.2-1.4c0.6-0.5,1.2-0.9,2-1.2
				c0.8-0.3,1.7-0.5,2.6-0.5c0.8,0,1.5,0.1,2.1,0.3s1.1,0.5,1.5,1c0.4,0.4,0.7,0.9,0.9,1.4c0.2,0.5,0.3,1.1,0.3,1.8v5
				c0,0.4,0,0.8,0,1.2c0,0.4,0.1,0.8,0.1,1h-2c-0.1-0.5-0.2-1.1-0.2-1.6h-0.1c-0.4,0.6-0.9,1.1-1.6,1.4s-1.4,0.5-2.2,0.5
				c-0.5,0-0.9-0.1-1.4-0.2c-0.5-0.1-0.9-0.3-1.3-0.6s-0.7-0.6-1-1.1c-0.3-0.5-0.4-1-0.4-1.7c0-0.9,0.2-1.5,0.7-2
				c0.5-0.5,1.1-0.9,1.8-1.2s1.6-0.4,2.5-0.5s1.9-0.1,2.9-0.1L441.9,571.9L441.9,571.9z M441.4,573.8c-0.6,0-1.1,0-1.7,0.1
				c-0.6,0-1.1,0.1-1.6,0.3c-0.5,0.1-0.9,0.4-1.2,0.7s-0.5,0.7-0.5,1.2c0,0.3,0.1,0.6,0.2,0.8c0.1,0.2,0.3,0.4,0.5,0.5
				s0.5,0.2,0.7,0.3s0.5,0.1,0.8,0.1c1.1,0,1.9-0.3,2.4-1s0.9-1.4,0.9-2.4v-0.6L441.4,573.8L441.4,573.8z"/>
			<path d="M449.7,579.2h-2.3v-18.1h2.3V579.2z"/>
			<path d="M466.6,570.7c-0.2-0.4-0.6-0.7-1.1-0.9c-0.5-0.2-1-0.4-1.5-0.4c-0.6,0-1.1,0.1-1.6,0.3c-0.5,0.2-0.8,0.5-1.2,0.9
				s-0.6,0.8-0.7,1.3s-0.2,1-0.2,1.6s0.1,1.1,0.2,1.6s0.4,0.9,0.7,1.3s0.7,0.7,1.2,0.9c0.5,0.2,1,0.3,1.6,0.3c0.6,0,1.1-0.1,1.6-0.3
				c0.5-0.2,0.9-0.5,1.2-0.9l1.5,1.4c-0.5,0.6-1.1,1-1.8,1.3s-1.5,0.5-2.5,0.5c-0.9,0-1.7-0.1-2.4-0.4s-1.4-0.7-1.9-1.2
				c-0.5-0.5-1-1.2-1.3-1.9c-0.3-0.7-0.5-1.6-0.5-2.5c0-0.9,0.1-1.7,0.5-2.5c0.3-0.7,0.7-1.4,1.3-1.9c0.5-0.5,1.2-0.9,1.9-1.2
				c0.7-0.3,1.5-0.4,2.4-0.4c0.8,0,1.6,0.2,2.4,0.5s1.4,0.8,1.9,1.4L466.6,570.7z"/>
			<path d="M472.3,579.2h-2.3v-18.1h2.3V579.2z"/>
			<path d="M486.4,573.4c0,0.1,0,0.3,0,0.4c0,0.1,0,0.3,0,0.4h-9c0,0.5,0.1,0.9,0.3,1.3s0.5,0.8,0.8,1.1c0.3,0.3,0.7,0.5,1.2,0.7
				s0.9,0.3,1.4,0.3c0.8,0,1.4-0.2,2-0.5c0.6-0.3,1-0.7,1.3-1.2l1.6,1.3c-0.6,0.8-1.3,1.4-2.1,1.8c-0.8,0.4-1.7,0.6-2.8,0.6
				c-0.9,0-1.7-0.1-2.4-0.4s-1.4-0.7-1.9-1.2s-0.9-1.2-1.2-1.9c-0.3-0.7-0.5-1.5-0.5-2.5c0-0.9,0.1-1.7,0.4-2.4
				c0.3-0.7,0.7-1.4,1.2-1.9c0.5-0.5,1.1-0.9,1.9-1.2c0.7-0.3,1.5-0.4,2.3-0.4s1.6,0.1,2.3,0.4c0.7,0.3,1.3,0.7,1.7,1.2
				c0.5,0.5,0.8,1.1,1.1,1.9C486.3,571.7,486.4,572.5,486.4,573.4z M484.1,572.5c0-0.5-0.1-0.9-0.2-1.3s-0.3-0.7-0.6-1
				c-0.3-0.3-0.6-0.5-1-0.7c-0.4-0.2-0.9-0.2-1.4-0.2c-0.5,0-0.9,0.1-1.4,0.2s-0.8,0.4-1.1,0.7c-0.3,0.3-0.6,0.6-0.8,1
				c-0.2,0.4-0.3,0.8-0.4,1.3H484.1z"/>
			<path d="M496,571.9c0-0.8-0.3-1.5-0.8-1.9s-1.2-0.6-2-0.6c-0.6,0-1.2,0.1-1.8,0.4s-1,0.6-1.4,1l-1.2-1.4c0.6-0.5,1.2-0.9,2-1.2
				c0.8-0.3,1.7-0.5,2.6-0.5c0.8,0,1.5,0.1,2.1,0.3s1.1,0.5,1.5,1c0.4,0.4,0.7,0.9,0.9,1.4c0.2,0.5,0.3,1.1,0.3,1.8v5
				c0,0.4,0,0.8,0,1.2c0,0.4,0.1,0.8,0.1,1h-2c-0.1-0.5-0.2-1.1-0.2-1.6H496c-0.4,0.6-0.9,1.1-1.6,1.4s-1.4,0.5-2.2,0.5
				c-0.5,0-0.9-0.1-1.4-0.2c-0.5-0.1-0.9-0.3-1.3-0.6s-0.7-0.6-1-1.1c-0.3-0.5-0.4-1-0.4-1.7c0-0.9,0.2-1.5,0.7-2
				c0.5-0.5,1.1-0.9,1.8-1.2s1.6-0.4,2.5-0.5s1.9-0.1,2.9-0.1L496,571.9L496,571.9z M495.4,573.8c-0.6,0-1.1,0-1.7,0.1
				c-0.6,0-1.1,0.1-1.6,0.3c-0.5,0.1-0.9,0.4-1.2,0.7s-0.5,0.7-0.5,1.2c0,0.3,0.1,0.6,0.2,0.8c0.1,0.2,0.3,0.4,0.5,0.5
				s0.5,0.2,0.7,0.3s0.5,0.1,0.8,0.1c1.1,0,1.9-0.3,2.4-1s0.9-1.4,0.9-2.4v-0.6L495.4,573.8L495.4,573.8z"/>
			<path d="M503.5,567.8c0,0.3,0.1,0.6,0.1,1c0,0.4,0,0.7,0,0.9h0.1c0.1-0.3,0.3-0.6,0.6-0.8c0.2-0.3,0.5-0.5,0.9-0.7
				s0.7-0.4,1.1-0.5c0.4-0.1,0.8-0.2,1.2-0.2c0.7,0,1.4,0.1,1.9,0.4s1,0.6,1.3,1s0.6,0.9,0.8,1.5s0.2,1.2,0.2,1.8v7.1h-2.3v-6.3
				c0-0.5,0-0.9-0.1-1.3c-0.1-0.4-0.2-0.8-0.4-1.1c-0.2-0.3-0.5-0.6-0.8-0.8s-0.8-0.3-1.3-0.3c-0.9,0-1.6,0.3-2.2,1
				s-0.9,1.6-0.9,2.7v6h-2.3v-8.9c0-0.3,0-0.7,0-1.2c0-0.5,0-0.9-0.1-1.3L503.5,567.8L503.5,567.8z"/>
			<path d="M517.6,563.8c0,0.4-0.2,0.8-0.4,1s-0.7,0.4-1.1,0.4s-0.8-0.1-1-0.4c-0.3-0.3-0.4-0.6-0.4-1c0-0.4,0.1-0.8,0.4-1
				c0.3-0.3,0.6-0.4,1-0.4s0.8,0.1,1.1,0.4C517.4,563,517.6,563.3,517.6,563.8z M517.2,579.2h-2.3v-11.4h2.3V579.2z"/>
			<path d="M522.7,567.8c0,0.3,0.1,0.6,0.1,1c0,0.4,0,0.7,0,0.9h0.1c0.1-0.3,0.3-0.6,0.6-0.8c0.2-0.3,0.5-0.5,0.8-0.7
				s0.7-0.4,1.1-0.5c0.4-0.1,0.8-0.2,1.2-0.2c0.7,0,1.4,0.1,1.9,0.4s1,0.6,1.3,1c0.3,0.4,0.6,0.9,0.8,1.5c0.2,0.6,0.2,1.2,0.2,1.8
				v7.1h-2.3v-6.3c0-0.5,0-0.9-0.1-1.3s-0.2-0.8-0.4-1.1c-0.2-0.3-0.5-0.6-0.8-0.8s-0.8-0.3-1.3-0.3c-0.9,0-1.6,0.3-2.2,1
				s-0.8,1.6-0.8,2.7v6h-2.3v-8.9c0-0.3,0-0.7,0-1.2c0-0.5,0-0.9-0.1-1.3L522.7,567.8L522.7,567.8z"/>
			<path d="M535,581.2c0.5,0.6,1.1,1,1.9,1.3c0.7,0.3,1.5,0.5,2.3,0.5c0.8,0,1.4-0.1,1.9-0.3s0.9-0.5,1.2-0.9
				c0.3-0.4,0.5-0.8,0.7-1.3c0.1-0.5,0.2-1.1,0.2-1.7v-1.5h0c-0.4,0.6-1,1.1-1.7,1.5c-0.7,0.3-1.5,0.5-2.3,0.5
				c-0.9,0-1.7-0.2-2.4-0.5c-0.7-0.3-1.3-0.7-1.8-1.2c-0.5-0.5-0.9-1.2-1.2-1.9c-0.3-0.7-0.4-1.5-0.4-2.3c0-0.8,0.1-1.6,0.4-2.3
				c0.3-0.7,0.7-1.3,1.2-1.9c0.5-0.5,1.1-1,1.8-1.3s1.5-0.5,2.3-0.5c0.8,0,1.6,0.2,2.3,0.5c0.7,0.3,1.3,0.9,1.8,1.6h0v-1.8h2.2v10.8
				c0,0.8-0.1,1.6-0.3,2.4s-0.6,1.4-1.1,2s-1.1,1-1.9,1.4c-0.8,0.3-1.8,0.5-3,0.5c-1,0-2-0.2-3-0.5s-1.9-0.9-2.6-1.5L535,581.2z
				 M535.7,573.4c0,0.5,0.1,1,0.2,1.5s0.4,0.9,0.8,1.3s0.7,0.7,1.2,0.9c0.5,0.2,1,0.3,1.6,0.3c0.6,0,1.1-0.1,1.6-0.3
				c0.5-0.2,0.9-0.5,1.2-0.8s0.6-0.8,0.8-1.3c0.2-0.5,0.3-1,0.3-1.6c0-0.5-0.1-1.1-0.3-1.5c-0.2-0.5-0.5-0.9-0.8-1.3
				c-0.3-0.4-0.8-0.7-1.2-0.9c-0.5-0.2-1-0.3-1.6-0.3c-0.6,0-1.1,0.1-1.6,0.3s-0.9,0.5-1.2,0.9s-0.6,0.8-0.8,1.3
				C535.8,572.4,535.7,572.9,535.7,573.4z"/>
			<path d="M559.9,569.7h-3v5.9c0,0.7,0.1,1.2,0.4,1.5s0.7,0.4,1.2,0.4c0.2,0,0.4,0,0.7-0.1c0.2,0,0.5-0.1,0.7-0.2l0.1,1.8
				c-0.3,0.1-0.6,0.2-0.9,0.2s-0.7,0.1-1,0.1c-1.1,0-1.9-0.3-2.5-0.9s-0.8-1.5-0.8-2.7v-6.2h-2.2v-1.8h2.2v-3.3h2.2v3.3h3
				L559.9,569.7L559.9,569.7z"/>
			<path d="M573.3,573.5c0,0.9-0.2,1.7-0.5,2.4c-0.3,0.7-0.7,1.4-1.3,1.9s-1.2,1-2,1.2s-1.6,0.4-2.4,0.4s-1.7-0.2-2.4-0.4
				c-0.8-0.3-1.4-0.7-1.9-1.2s-1-1.2-1.3-1.9c-0.3-0.7-0.5-1.5-0.5-2.4s0.2-1.7,0.5-2.4s0.7-1.4,1.3-1.9c0.5-0.5,1.2-0.9,1.9-1.2
				s1.6-0.4,2.4-0.4s1.7,0.2,2.4,0.4c0.8,0.3,1.4,0.7,2,1.2c0.5,0.5,1,1.2,1.3,1.9C573.1,571.8,573.3,572.6,573.3,573.5z
				 M570.9,573.5c0-0.5-0.1-1.1-0.2-1.6c-0.2-0.5-0.4-0.9-0.7-1.3s-0.7-0.7-1.2-0.9c-0.5-0.2-1-0.3-1.6-0.3s-1.2,0.1-1.6,0.3
				s-0.9,0.5-1.2,0.9s-0.6,0.8-0.7,1.3c-0.2,0.5-0.2,1-0.2,1.6c0,0.5,0.1,1.1,0.2,1.6s0.4,0.9,0.7,1.3c0.3,0.4,0.7,0.7,1.2,0.9
				s1,0.3,1.6,0.3c0.6,0,1.2-0.1,1.6-0.3c0.5-0.2,0.9-0.5,1.2-0.9s0.6-0.8,0.7-1.3C570.8,574.6,570.9,574.1,570.9,573.5z"/>
			<path d="M334.7,605.6c0.3-0.6,0.7-1,1.4-1.4c0.7-0.4,1.4-0.6,2.2-0.6c0.7,0,1.4,0.1,1.9,0.4s1,0.6,1.3,1s0.6,0.9,0.8,1.5
				s0.2,1.2,0.2,1.8v7.1h-2.3v-6.3c0-0.5,0-0.9-0.1-1.3c-0.1-0.4-0.2-0.8-0.4-1.1c-0.2-0.3-0.5-0.6-0.8-0.8s-0.8-0.3-1.3-0.3
				c-0.9,0-1.6,0.3-2.2,1s-0.9,1.6-0.9,2.7v6h-2.3v-18.1h2.3L334.7,605.6L334.7,605.6L334.7,605.6z"/>
			<path d="M356.5,609.4c0,0.1,0,0.3,0,0.4c0,0.1,0,0.3,0,0.4h-9c0,0.5,0.1,0.9,0.3,1.3s0.5,0.8,0.8,1.1c0.3,0.3,0.7,0.5,1.2,0.7
				s0.9,0.3,1.4,0.3c0.8,0,1.4-0.2,2-0.5c0.6-0.3,1-0.7,1.3-1.2l1.6,1.3c-0.6,0.8-1.3,1.4-2.1,1.8c-0.8,0.4-1.7,0.6-2.8,0.6
				c-0.9,0-1.7-0.1-2.4-0.4s-1.4-0.7-1.9-1.2s-0.9-1.2-1.2-1.9c-0.3-0.7-0.5-1.5-0.5-2.5c0-0.9,0.1-1.7,0.4-2.4
				c0.3-0.7,0.7-1.4,1.2-1.9c0.5-0.5,1.1-0.9,1.9-1.2c0.7-0.3,1.5-0.4,2.3-0.4s1.6,0.1,2.3,0.4c0.7,0.3,1.3,0.7,1.7,1.2
				c0.5,0.5,0.8,1.1,1.1,1.9C356.4,607.7,356.5,608.5,356.5,609.4z M354.2,608.5c0-0.5-0.1-0.9-0.2-1.3s-0.3-0.7-0.6-1
				c-0.3-0.3-0.6-0.5-1-0.7c-0.4-0.2-0.9-0.2-1.4-0.2c-0.5,0-0.9,0.1-1.4,0.2s-0.8,0.4-1.1,0.7c-0.3,0.3-0.6,0.6-0.8,1
				c-0.2,0.4-0.3,0.8-0.4,1.3H354.2z"/>
			<path d="M366.1,607.9c0-0.8-0.3-1.5-0.8-1.9s-1.2-0.6-2-0.6c-0.6,0-1.2,0.1-1.8,0.4s-1,0.6-1.4,1l-1.2-1.4c0.6-0.5,1.2-0.9,2-1.2
				c0.8-0.3,1.7-0.5,2.6-0.5c0.8,0,1.5,0.1,2.1,0.3s1.1,0.5,1.5,1c0.4,0.4,0.7,0.9,0.9,1.4c0.2,0.5,0.3,1.1,0.3,1.8v5
				c0,0.4,0,0.8,0,1.2c0,0.4,0.1,0.8,0.1,1h-2c-0.1-0.5-0.2-1.1-0.2-1.6h-0.1c-0.4,0.6-0.9,1.1-1.6,1.4s-1.4,0.5-2.2,0.5
				c-0.5,0-0.9-0.1-1.4-0.2c-0.5-0.1-0.9-0.3-1.3-0.6s-0.7-0.6-1-1.1c-0.3-0.5-0.4-1-0.4-1.7c0-0.9,0.2-1.5,0.7-2
				c0.5-0.5,1.1-0.9,1.8-1.2s1.6-0.4,2.5-0.5s1.9-0.1,2.9-0.1L366.1,607.9L366.1,607.9z M365.5,609.8c-0.6,0-1.1,0-1.7,0.1
				c-0.6,0-1.1,0.1-1.6,0.3c-0.5,0.1-0.9,0.4-1.2,0.7s-0.5,0.7-0.5,1.2c0,0.3,0.1,0.6,0.2,0.8c0.1,0.2,0.3,0.4,0.5,0.5
				s0.5,0.2,0.7,0.3s0.5,0.1,0.8,0.1c1.1,0,1.9-0.3,2.4-1s0.9-1.4,0.9-2.4v-0.6L365.5,609.8L365.5,609.8z"/>
			<path d="M376.9,615.2h-2.5l-4.6-11.4h2.5l3.3,9h0l3.4-9h2.4L376.9,615.2z"/>
			<path d="M387.5,612.8L387.5,612.8l3.2-8.9h2.4l-5.5,14.1c-0.2,0.5-0.4,0.9-0.6,1.3c-0.2,0.4-0.5,0.7-0.8,1
				c-0.3,0.3-0.7,0.5-1.1,0.6s-0.9,0.2-1.5,0.2c-0.2,0-0.5,0-0.7,0c-0.2,0-0.5-0.1-0.8-0.1l0.2-2c0.4,0.1,0.8,0.2,1.1,0.2
				c0.6,0,1-0.2,1.3-0.5s0.5-0.8,0.8-1.4l0.7-1.9l-4.9-11.4h2.5L387.5,612.8z"/>
			<path d="M409.3,613.4c-0.4,0.7-1,1.2-1.8,1.6c-0.7,0.4-1.5,0.5-2.3,0.5c-0.9,0-1.7-0.2-2.4-0.5c-0.7-0.3-1.3-0.7-1.8-1.3
				c-0.5-0.5-0.9-1.2-1.1-1.9s-0.4-1.5-0.4-2.3s0.1-1.6,0.4-2.3c0.3-0.7,0.7-1.4,1.2-1.9s1.1-1,1.8-1.3c0.7-0.3,1.5-0.5,2.3-0.5
				c0.9,0,1.7,0.2,2.4,0.6c0.7,0.4,1.2,0.9,1.6,1.4h0v-8.5h2.3v18.1h-2.2L409.3,613.4L409.3,613.4L409.3,613.4z M401.9,609.5
				c0,0.5,0.1,1,0.2,1.5c0.2,0.5,0.4,0.9,0.7,1.3c0.3,0.4,0.7,0.7,1.2,0.9s1,0.3,1.6,0.3c0.6,0,1.1-0.1,1.6-0.3
				c0.5-0.2,0.9-0.5,1.2-0.9s0.6-0.8,0.8-1.3c0.2-0.5,0.3-1,0.3-1.6s-0.1-1.1-0.3-1.6c-0.2-0.5-0.4-0.9-0.8-1.3
				c-0.3-0.4-0.7-0.7-1.2-0.9s-1-0.3-1.6-0.3c-0.6,0-1.2,0.1-1.6,0.3s-0.9,0.5-1.2,0.9c-0.3,0.4-0.6,0.8-0.7,1.3
				S401.9,609,401.9,609.5z"/>
			<path d="M425.7,609.4c0,0.1,0,0.3,0,0.4c0,0.1,0,0.3,0,0.4h-9c0,0.5,0.1,0.9,0.3,1.3s0.5,0.8,0.8,1.1c0.3,0.3,0.7,0.5,1.2,0.7
				s0.9,0.3,1.4,0.3c0.8,0,1.4-0.2,2-0.5c0.6-0.3,1-0.7,1.3-1.2l1.6,1.3c-0.6,0.8-1.3,1.4-2.1,1.8c-0.8,0.4-1.7,0.6-2.8,0.6
				c-0.9,0-1.7-0.1-2.4-0.4s-1.4-0.7-1.9-1.2s-0.9-1.2-1.2-1.9c-0.3-0.7-0.5-1.5-0.5-2.5c0-0.9,0.1-1.7,0.4-2.4
				c0.3-0.7,0.7-1.4,1.2-1.9c0.5-0.5,1.1-0.9,1.9-1.2c0.7-0.3,1.5-0.4,2.3-0.4s1.6,0.1,2.3,0.4c0.7,0.3,1.3,0.7,1.7,1.2
				c0.5,0.5,0.8,1.1,1.1,1.9C425.5,607.7,425.7,608.5,425.7,609.4z M423.4,608.5c0-0.5-0.1-0.9-0.2-1.3s-0.3-0.7-0.6-1
				c-0.3-0.3-0.6-0.5-1-0.7c-0.4-0.2-0.9-0.2-1.4-0.2c-0.5,0-0.9,0.1-1.4,0.2s-0.8,0.4-1.1,0.7c-0.3,0.3-0.6,0.6-0.8,1
				c-0.2,0.4-0.3,0.8-0.4,1.3H423.4z"/>
			<path d="M429.2,617.2c0.5,0.6,1.1,1,1.9,1.3c0.7,0.3,1.5,0.5,2.3,0.5c0.8,0,1.4-0.1,1.9-0.3s0.9-0.5,1.2-0.9
				c0.3-0.4,0.5-0.8,0.7-1.3c0.1-0.5,0.2-1.1,0.2-1.7v-1.5h0c-0.4,0.6-1,1.1-1.7,1.5c-0.7,0.3-1.5,0.5-2.3,0.5
				c-0.9,0-1.6-0.2-2.4-0.5c-0.7-0.3-1.3-0.7-1.8-1.2c-0.5-0.5-0.9-1.2-1.1-1.9c-0.3-0.7-0.4-1.5-0.4-2.3c0-0.8,0.1-1.6,0.4-2.3
				s0.7-1.3,1.1-1.9c0.5-0.5,1.1-1,1.8-1.3c0.7-0.3,1.5-0.5,2.4-0.5c0.8,0,1.6,0.2,2.3,0.5c0.7,0.3,1.3,0.9,1.8,1.6h0v-1.8h2.2v10.8
				c0,0.8-0.1,1.6-0.3,2.4s-0.6,1.4-1.1,2s-1.1,1-1.9,1.4c-0.8,0.3-1.8,0.5-3,0.5c-1,0-2-0.2-3-0.5s-1.9-0.9-2.6-1.5L429.2,617.2z
				 M429.9,609.4c0,0.5,0.1,1,0.2,1.5s0.4,0.9,0.8,1.3s0.7,0.7,1.2,0.9c0.5,0.2,1,0.3,1.6,0.3c0.6,0,1.1-0.1,1.6-0.3
				s0.9-0.5,1.2-0.8s0.6-0.8,0.8-1.3s0.3-1,0.3-1.6c0-0.5-0.1-1.1-0.3-1.5c-0.2-0.5-0.5-0.9-0.8-1.3c-0.4-0.4-0.8-0.7-1.2-0.9
				c-0.5-0.2-1-0.3-1.6-0.3c-0.6,0-1.1,0.1-1.6,0.3s-0.9,0.5-1.2,0.9s-0.6,0.8-0.8,1.3C430,608.4,429.9,608.9,429.9,609.4z"/>
			<path d="M443,605.1c0-0.5,0-0.9-0.1-1.3h2.1c0,0.3,0.1,0.6,0.1,1s0,0.7,0,0.9h0.1c0.3-0.7,0.8-1.2,1.4-1.6s1.3-0.6,2.1-0.6
				c0.4,0,0.6,0,0.9,0.1l-0.1,2.1c-0.3-0.1-0.7-0.1-1-0.1c-0.5,0-1,0.1-1.4,0.3c-0.4,0.2-0.7,0.5-1,0.8c-0.3,0.3-0.5,0.7-0.6,1.2
				s-0.2,0.9-0.2,1.4v6H443v-8.9C443,606,443,605.6,443,605.1z"/>
			<path d="M461.4,609.4c0,0.1,0,0.3,0,0.4c0,0.1,0,0.3,0,0.4h-9c0,0.5,0.1,0.9,0.3,1.3s0.5,0.8,0.8,1.1c0.3,0.3,0.7,0.5,1.2,0.7
				s0.9,0.3,1.4,0.3c0.8,0,1.4-0.2,2-0.5c0.6-0.3,1-0.7,1.3-1.2l1.6,1.3c-0.6,0.8-1.3,1.4-2.1,1.8c-0.8,0.4-1.7,0.6-2.8,0.6
				c-0.9,0-1.7-0.1-2.4-0.4s-1.4-0.7-1.9-1.2s-0.9-1.2-1.2-1.9c-0.3-0.7-0.5-1.5-0.5-2.5c0-0.9,0.1-1.7,0.4-2.4
				c0.3-0.7,0.7-1.4,1.2-1.9c0.5-0.5,1.1-0.9,1.9-1.2c0.7-0.3,1.5-0.4,2.3-0.4s1.6,0.1,2.3,0.4c0.7,0.3,1.3,0.7,1.7,1.2
				c0.5,0.5,0.8,1.1,1.1,1.9C461.3,607.7,461.4,608.5,461.4,609.4z M459.1,608.5c0-0.5-0.1-0.9-0.2-1.3s-0.3-0.7-0.6-1
				c-0.3-0.3-0.6-0.5-1-0.7c-0.4-0.2-0.9-0.2-1.4-0.2c-0.5,0-0.9,0.1-1.4,0.2s-0.8,0.4-1.1,0.7c-0.3,0.3-0.6,0.6-0.8,1
				c-0.2,0.4-0.3,0.8-0.4,1.3H459.1z"/>
			<path d="M471,607.9c0-0.8-0.3-1.5-0.8-1.9s-1.2-0.6-2-0.6c-0.6,0-1.2,0.1-1.8,0.4s-1,0.6-1.4,1l-1.2-1.4c0.6-0.5,1.2-0.9,2-1.2
				c0.8-0.3,1.7-0.5,2.6-0.5c0.8,0,1.5,0.1,2.1,0.3s1.1,0.5,1.5,1c0.4,0.4,0.7,0.9,0.9,1.4c0.2,0.5,0.3,1.1,0.3,1.8v5
				c0,0.4,0,0.8,0,1.2c0,0.4,0.1,0.8,0.1,1h-2c-0.1-0.5-0.2-1.1-0.2-1.6H471c-0.4,0.6-0.9,1.1-1.6,1.4s-1.4,0.5-2.2,0.5
				c-0.5,0-0.9-0.1-1.4-0.2c-0.5-0.1-0.9-0.3-1.3-0.6s-0.7-0.6-1-1.1c-0.3-0.5-0.4-1-0.4-1.7c0-0.9,0.2-1.5,0.7-2
				c0.5-0.5,1.1-0.9,1.8-1.2s1.6-0.4,2.5-0.5s1.9-0.1,2.9-0.1L471,607.9L471,607.9z M470.4,609.8c-0.6,0-1.1,0-1.7,0.1
				c-0.6,0-1.1,0.1-1.6,0.3c-0.5,0.1-0.9,0.4-1.2,0.7s-0.5,0.7-0.5,1.2c0,0.3,0.1,0.6,0.2,0.8c0.1,0.2,0.3,0.4,0.5,0.5
				s0.5,0.2,0.7,0.3s0.5,0.1,0.8,0.1c1.1,0,1.9-0.3,2.4-1s0.9-1.4,0.9-2.4v-0.6L470.4,609.8L470.4,609.8z"/>
			<path d="M482.6,606.7c-0.3-0.4-0.6-0.8-1.1-1s-1-0.4-1.6-0.4c-0.3,0-0.5,0-0.8,0.1c-0.3,0.1-0.5,0.1-0.7,0.3
				c-0.2,0.1-0.4,0.3-0.5,0.5c-0.1,0.2-0.2,0.4-0.2,0.7c0,0.5,0.2,0.8,0.6,1.1s1.1,0.4,1.9,0.6c0.5,0.1,1,0.3,1.5,0.5
				c0.5,0.2,0.9,0.4,1.2,0.7c0.3,0.3,0.6,0.6,0.8,1s0.3,0.8,0.3,1.3c0,0.7-0.1,1.2-0.4,1.7c-0.3,0.5-0.6,0.8-1,1.1s-0.9,0.5-1.5,0.6
				s-1.1,0.2-1.7,0.2c-0.9,0-1.7-0.2-2.5-0.5s-1.5-0.8-2-1.5l1.6-1.4c0.3,0.5,0.7,0.8,1.3,1.1s1.1,0.5,1.8,0.5c0.3,0,0.6,0,0.8-0.1
				c0.3-0.1,0.5-0.2,0.7-0.3s0.4-0.3,0.5-0.5c0.1-0.2,0.2-0.5,0.2-0.8c0-0.5-0.2-0.9-0.8-1.2s-1.2-0.5-2.2-0.7
				c-0.4-0.1-0.8-0.2-1.2-0.3c-0.4-0.1-0.8-0.3-1.1-0.6s-0.6-0.5-0.8-0.9c-0.2-0.4-0.3-0.8-0.3-1.3c0-0.6,0.1-1.1,0.4-1.6
				s0.6-0.8,1-1.1s0.9-0.5,1.4-0.6c0.5-0.1,1-0.2,1.6-0.2c0.8,0,1.6,0.2,2.4,0.5s1.4,0.8,1.8,1.4L482.6,606.7z"/>
			<path d="M489.2,599.8c0,0.4-0.1,0.8-0.4,1s-0.6,0.4-1.1,0.4s-0.8-0.1-1-0.4c-0.3-0.3-0.4-0.6-0.4-1c0-0.4,0.1-0.8,0.4-1
				c0.3-0.3,0.6-0.4,1-0.4s0.8,0.1,1.1,0.4C489.1,599,489.2,599.3,489.2,599.8z M488.9,615.2h-2.3v-11.4h2.3V615.2z"/>
			<path d="M494.4,603.8c0,0.3,0.1,0.6,0.1,1c0,0.4,0,0.7,0,0.9h0.1c0.1-0.3,0.3-0.6,0.6-0.8c0.2-0.3,0.5-0.5,0.9-0.7
				s0.7-0.4,1.1-0.5c0.4-0.1,0.8-0.2,1.2-0.2c0.7,0,1.4,0.1,1.9,0.4s1,0.6,1.3,1s0.6,0.9,0.8,1.5s0.2,1.2,0.2,1.8v7.1h-2.3v-6.3
				c0-0.5,0-0.9-0.1-1.3c-0.1-0.4-0.2-0.8-0.4-1.1c-0.2-0.3-0.5-0.6-0.8-0.8s-0.8-0.3-1.3-0.3c-0.9,0-1.6,0.3-2.2,1
				s-0.9,1.6-0.9,2.7v6h-2.3v-8.9c0-0.3,0-0.7,0-1.2c0-0.5,0-0.9-0.1-1.3L494.4,603.8L494.4,603.8z"/>
			<path d="M506.7,617.2c0.5,0.6,1.1,1,1.9,1.3c0.7,0.3,1.5,0.5,2.3,0.5c0.8,0,1.4-0.1,1.9-0.3c0.5-0.2,0.9-0.5,1.2-0.9
				c0.3-0.4,0.5-0.8,0.7-1.3c0.1-0.5,0.2-1.1,0.2-1.7v-1.5h0c-0.4,0.6-1,1.1-1.7,1.5c-0.7,0.3-1.5,0.5-2.3,0.5
				c-0.9,0-1.6-0.2-2.4-0.5c-0.7-0.3-1.3-0.7-1.8-1.2c-0.5-0.5-0.9-1.2-1.1-1.9c-0.3-0.7-0.4-1.5-0.4-2.3c0-0.8,0.1-1.6,0.4-2.3
				s0.7-1.3,1.1-1.9c0.5-0.5,1.1-1,1.8-1.3c0.7-0.3,1.5-0.5,2.4-0.5c0.8,0,1.6,0.2,2.3,0.5c0.7,0.3,1.3,0.9,1.8,1.6h0v-1.8h2.2v10.8
				c0,0.8-0.1,1.6-0.3,2.4s-0.6,1.4-1.1,2s-1.1,1-1.9,1.4c-0.8,0.3-1.8,0.5-3,0.5c-1,0-2-0.2-3-0.5s-1.9-0.9-2.6-1.5L506.7,617.2z
				 M507.4,609.4c0,0.5,0.1,1,0.2,1.5s0.4,0.9,0.8,1.3s0.7,0.7,1.2,0.9c0.5,0.2,1,0.3,1.6,0.3c0.6,0,1.1-0.1,1.6-0.3
				s0.9-0.5,1.2-0.8s0.6-0.8,0.8-1.3c0.2-0.5,0.3-1,0.3-1.6c0-0.5-0.1-1.1-0.3-1.5c-0.2-0.5-0.5-0.9-0.8-1.3
				c-0.3-0.4-0.8-0.7-1.2-0.9c-0.5-0.2-1-0.3-1.6-0.3c-0.6,0-1.1,0.1-1.6,0.3s-0.9,0.5-1.2,0.9s-0.6,0.8-0.8,1.3
				C507.5,608.4,507.4,608.9,507.4,609.4z"/>
			<path d="M523.3,613.8c0,0.4-0.2,0.8-0.5,1.1c-0.3,0.3-0.7,0.5-1.2,0.5c-0.5,0-0.8-0.2-1.1-0.5s-0.5-0.7-0.5-1.1
				c0-0.4,0.2-0.8,0.5-1.1c0.3-0.3,0.7-0.5,1.2-0.5s0.8,0.2,1.2,0.5C523.1,613,523.3,613.4,523.3,613.8z"/>
		</g>
	</g>
	<g id="Logo_Lockup">
		<g id="KLENZ_1_">
			<path d="M331,284.8V266h4.4v7.8l10.4-7.8h6.4l-12.5,8.9l14,10h-7l-11.3-8.3v8.3H331z"/>
			<path d="M355.4,284.8V266h4.4v15.3h14.1v3.5L355.4,284.8L355.4,284.8z"/>
			<path d="M376.7,284.8V266h19.3v3.2H381v4.2h8.7v3.2H381v4.7h15.1v3.5L376.7,284.8L376.7,284.8z"/>
			<path d="M399,284.8V266h3l13.2,11.1c1,0.8,1.7,1.5,2.1,2c-0.1-1.8-0.2-2.8-0.2-3.2V266h3.9v18.8h-3l-13.8-11.6
				c-0.6-0.5-1.1-1-1.6-1.5c0.1,1.2,0.2,2.2,0.2,3v10.2L399,284.8L399,284.8z"/>
			<path d="M423.8,284.8v-2l13.2-13.4h-11.9V266H444v1.9l-13.4,13.4H444v3.5H423.8z"/>
			<g>
				<path d="M448.2,270h-0.6v-3.5h-1.3V266h3.1v0.5h-1.3L448.2,270L448.2,270z"/>
				<path d="M452.1,269.1L452.1,269.1l1.2-3.1h0.9v4h-0.6v-3.3h0l-1.3,3.3h-0.4l-1.3-3.3h0v3.3H450v-4h0.9L452.1,269.1z"/>
			</g>
		</g>
		<g id="white_outline">
			<path id="Q" class="st1" d="M668.7,200.5c-1.8-1.8-5-2.6-9.7-2.6h-32.9c-4.8,0-7.9,0.9-9.7,2.6c-1.8,1.8-2.7,4.8-2.7,9.3v23.5
				c0,4.5,0.9,7.6,2.7,9.3c1.8,1.8,5,2.6,9.7,2.6h17.5l5,11.5h13.3l-5.6-11.5h2.7c4.7,0,7.9-0.9,9.7-2.6c1.8-1.8,2.7-4.8,2.7-9.3
				v-23.5C671.3,205.3,670.5,202.3,668.7,200.5z M658.3,208.6v25.6H651l-6.2-13.1l-9.9,4l3.9,9.1h-11.9v-25.6L658.3,208.6
				L658.3,208.6z"/>
			<polygon id="E" class="st1" points="571.8,225.8 592.4,225.8 592.4,215.5 571.8,215.5 571.8,208.2 607.1,208.2 607.1,197.9 
				558.7,197.9 558.7,245.2 607.5,245.2 607.5,234.1 571.8,234.1 			"/>
			<polygon id="T" class="st1" points="500.1,208.6 520.6,208.6 520.6,245.2 533.6,245.2 533.6,208.6 554.2,208.6 554.2,197.9 
				500.1,197.9 			"/>
			<path id="R" class="st1" d="M484.4,228.4c3.9,0,6.7-0.8,8.6-2.4c1.9-1.6,2.9-4.2,2.9-7.6v-10.5c0-3.4-1-6-2.9-7.6
				c-1.9-1.6-4.7-2.4-8.6-2.4h-39.5v47.3h12.9v-16.9h8l18,16.9H503l-20.6-16.9L484.4,228.4L484.4,228.4z M483.2,210.5v5.4
				c0,0.9-0.2,1.5-0.5,1.7c-0.1,0.1-0.8,0.5-2.9,0.5h-22v-9.8h22c2.1,0,2.7,0.4,2.9,0.5C483.1,209.1,483.2,210,483.2,210.5z"/>
			<g id="">
				<rect x="425.6" y="197.9" class="st1" width="13" height="13"/>
				<path class="st1" d="M425.6,213.4l0,20.7h-27v-20.7h-13.1v19.9c0,4.5,0.9,7.5,2.7,9.3c1.8,1.7,5,2.6,9.7,2.6h28.2
					c4.7,0,7.9-0.8,9.7-2.6c1.8-1.8,2.7-4.8,2.7-9.3v-19.9H425.6z"/>
				<rect x="385.6" y="197.9" class="st1" width="13.1" height="13"/>
			</g>
			<path id="P" class="st1" d="M377.4,200.3c-1.9-1.6-4.7-2.4-8.6-2.4h-39.5v47.3h12.9v-17.4h26.6c3.9,0,6.7-0.8,8.6-2.4
				c1.9-1.6,2.9-4.2,2.9-7.6v-10C380.2,204.5,379.2,201.9,377.4,200.3z M342.1,208.3h22c2.1,0,2.7,0.4,2.9,0.5
				c0.4,0.3,0.5,1.2,0.5,1.7v4.8c0,0.9-0.2,1.5-0.5,1.7c-0.1,0.1-0.8,0.5-2.9,0.5h-22V208.3z"/>
		</g>
		<g id="PURTEQ">
			<g>
				<path id="_xAE_" class="st1" d="M672.6,199.2c0-0.5,0.1-0.9,0.3-1.4c0.2-0.4,0.4-0.8,0.8-1.1c0.3-0.3,0.7-0.6,1.1-0.8
					c0.4-0.2,0.9-0.3,1.4-0.3s1,0.1,1.4,0.3s0.8,0.4,1.1,0.8c0.3,0.3,0.6,0.7,0.8,1.1c0.2,0.4,0.3,0.9,0.3,1.4s-0.1,0.9-0.3,1.4
					s-0.4,0.8-0.8,1.1c-0.3,0.3-0.7,0.6-1.1,0.8c-0.4,0.2-0.9,0.3-1.4,0.3s-1-0.1-1.4-0.3c-0.4-0.2-0.8-0.4-1.1-0.8
					s-0.6-0.7-0.8-1.1C672.7,200.2,672.6,199.7,672.6,199.2z M673.1,199.2c0,0.4,0.1,0.8,0.2,1.1c0.2,0.4,0.4,0.7,0.6,1
					c0.3,0.3,0.6,0.5,1,0.6c0.4,0.2,0.8,0.2,1.2,0.2c0.4,0,0.8-0.1,1.2-0.2c0.4-0.2,0.7-0.4,1-0.6c0.3-0.3,0.5-0.6,0.6-1
					c0.2-0.4,0.2-0.8,0.2-1.1c0-0.4-0.1-0.8-0.2-1.2c-0.2-0.4-0.4-0.7-0.6-0.9s-0.6-0.5-1-0.6s-0.8-0.2-1.2-0.2s-0.8,0.1-1.2,0.2
					c-0.4,0.2-0.7,0.4-1,0.6s-0.5,0.6-0.6,0.9C673.2,198.4,673.1,198.8,673.1,199.2z M674.7,197.2h1.4c0.2,0,0.4,0,0.5,0.1
					c0.2,0,0.3,0.1,0.5,0.2c0.1,0.1,0.2,0.2,0.3,0.4s0.1,0.3,0.1,0.5c0,0.3-0.1,0.5-0.2,0.7c-0.2,0.2-0.4,0.3-0.7,0.4l1.1,1.7h-0.9
					l-0.9-1.7h-0.5v1.7h-0.7L674.7,197.2L674.7,197.2z M676,199c0.2,0,0.4,0,0.6-0.1s0.3-0.2,0.3-0.5c0-0.2-0.1-0.4-0.3-0.4
					c-0.2-0.1-0.3-0.1-0.5-0.1h-0.7v1.1L676,199L676,199z"/>
				<g>
					<path class="st2" d="M615,209.8c0-4.1,0.8-6.8,2.3-8.3c1.5-1.5,4.5-2.2,8.8-2.2h32.9c4.3,0,7.3,0.8,8.8,2.2
						c1.5,1.5,2.3,4.3,2.3,8.3v23.5c0,4.1-0.8,6.9-2.3,8.4c-1.5,1.5-4.5,2.2-8.8,2.2h-4.8l5.6,11.5h-10.3l-5-11.5H626
						c-4.3,0-7.3-0.7-8.8-2.2c-1.5-1.5-2.3-4.3-2.3-8.4L615,209.8L615,209.8z M625.4,235.5h15.3l-4.1-9.7l7.5-3l6,12.7h9.5v-28.3
						h-34.3L625.4,235.5L625.4,235.5z"/>
					<path class="st2" d="M560,243.9v-44.7h45.7v7.6h-35.3v10H591v7.6h-20.6v11.1h35.8v8.4H560z"/>
					<path class="st2" d="M532.3,207.2v36.7h-10.4v-36.7h-20.5v-8h51.5v8H532.3z"/>
					<path class="st3" d="M446.2,243.9v-44.7h38.2c3.5,0,6.1,0.7,7.7,2.1c1.6,1.4,2.4,3.6,2.4,6.6v10.5c0,3-0.8,5.2-2.4,6.6
						c-1.6,1.4-4.2,2.1-7.7,2.1h-5.8l20.6,16.9h-14.9l-18-16.9h-9.9v16.9L446.2,243.9L446.2,243.9z M479.8,207h-23.4v12.4h23.4
						c1.8,0,3-0.3,3.7-0.8s1-1.4,1-2.8v-5.4c0-1.3-0.3-2.2-1-2.7C482.9,207.2,481.6,207,479.8,207z"/>
					<path class="st3" d="M426.9,209.6v-10.4h10.4v10.4H426.9z M426.9,214.8v20.7h-29.6v-20.7h-10.4v18.6c0,4.1,0.8,6.9,2.3,8.3
						c1.5,1.5,4.5,2.2,8.8,2.2h28.2c4.3,0,7.3-0.7,8.8-2.2c1.5-1.5,2.3-4.3,2.3-8.3v-18.6H426.9z M397.3,209.6v-10.4h-10.4v10.4
						H397.3z"/>
					<path class="st3" d="M330.6,243.9v-44.7h38.2c3.5,0,6.1,0.7,7.7,2.1c1.6,1.4,2.4,3.6,2.4,6.6v10c0,3-0.8,5.2-2.4,6.6
						c-1.6,1.4-4.2,2.1-7.7,2.1h-28v17.4L330.6,243.9L330.6,243.9z M364.2,207h-23.4v11.8h23.4c1.8,0,3-0.3,3.7-0.8s1-1.4,1-2.8
						v-4.8c0-1.3-0.3-2.2-1-2.7C367.2,207.2,366,207,364.2,207z"/>
				</g>
			</g>
		</g>
	</g>
	<g id="Headline">
		<g>
			<path d="M109.7,81.6h13.1c2.4,0,4.8,0.3,7.2,0.9c2.4,0.6,4.6,1.7,6.6,3.1c1.9,1.4,3.5,3.3,4.7,5.7c1.2,2.3,1.8,5.2,1.8,8.7
				c0,3.2-0.6,6-1.8,8.3s-2.8,4.2-4.7,5.7s-4.1,2.6-6.6,3.3c-2.4,0.7-4.8,1.1-7.2,1.1h-13.1C109.7,118.5,109.7,81.6,109.7,81.6z
				 M121.7,112.7c1.7,0,3.4-0.2,5.1-0.6c1.7-0.4,3.2-1.1,4.6-2c1.4-0.9,2.5-2.2,3.4-3.9c0.9-1.6,1.3-3.7,1.3-6.2
				c0-2.6-0.4-4.8-1.3-6.4c-0.9-1.7-2-3-3.4-3.9c-1.4-0.9-2.9-1.6-4.6-1.9c-1.7-0.3-3.4-0.5-5.1-0.5h-5.5v25.5
				C116.2,112.7,121.7,112.7,121.7,112.7z"/>
			<path d="M149.4,81.6h6.6v36.8h-6.6V81.6z"/>
			<path d="M164.1,81.6h6.6v31h15.6v5.8h-22.2V81.6z"/>
			<path d="M218.7,104.9c0,2.2-0.4,4.2-1.1,6s-1.8,3.3-3.1,4.6c-1.3,1.2-2.9,2.2-4.7,2.9c-1.8,0.7-3.8,1-5.9,1c-2.1,0-4.1-0.3-5.9-1
				c-1.8-0.7-3.4-1.6-4.7-2.9c-1.3-1.2-2.4-2.8-3.1-4.6c-0.8-1.8-1.1-3.8-1.1-6V81.6h6.6v23c0,1.1,0.1,2.1,0.4,3.2s0.7,2,1.4,2.8
				s1.5,1.5,2.6,2s2.4,0.8,3.9,0.8s2.9-0.3,3.9-0.8s1.9-1.2,2.6-2s1.1-1.8,1.4-2.8c0.3-1.1,0.4-2.1,0.4-3.2v-23h6.6L218.7,104.9
				L218.7,104.9z"/>
			<path d="M233.9,87.4h-11.3v-5.7h29.1v5.7h-11.3v31.1h-6.6V87.4z"/>
			<path d="M256,81.6h24.4v5.7h-17.8v9.4h16.9v5.5h-16.9v10.4h18.8v5.8H256V81.6z"/>
			<path d="M326.4,109.7l8.6,8.8h-8.3l-4.1-4.2c-1.2,1.4-2.7,2.6-4.4,3.5s-3.9,1.4-6.6,1.4c-1.6,0-3.2-0.2-4.7-0.7s-2.8-1.1-3.9-2
				s-2-2-2.7-3.3c-0.7-1.3-1-2.9-1-4.7c0-1.3,0.2-2.6,0.7-3.7c0.5-1.1,1-2.1,1.8-2.9s1.6-1.6,2.6-2.2s2-1.2,3-1.6
				c-1.2-1.2-2.2-2.5-2.9-3.9s-1.1-2.8-1.1-4.4c0-1.6,0.3-2.9,0.9-4.1c0.6-1.1,1.4-2.1,2.4-2.8c1-0.7,2.1-1.3,3.3-1.6
				c1.2-0.3,2.5-0.5,3.8-0.5c1.3,0,2.6,0.2,3.8,0.6c1.2,0.4,2.3,0.9,3.2,1.7c0.9,0.8,1.7,1.7,2.3,2.8s0.9,2.4,0.9,3.9
				c0,1.2-0.2,2.3-0.6,3.2s-0.9,1.9-1.6,2.7c-0.7,0.8-1.5,1.5-2.4,2.2c-0.9,0.6-1.9,1.2-2.9,1.7l6,6.3l4.3-6.7h7.1L326.4,109.7z
				 M310.8,102c-0.7,0.2-1.3,0.5-2,0.9c-0.6,0.3-1.1,0.8-1.6,1.2c-0.5,0.5-0.8,1.1-1.1,1.7c-0.3,0.7-0.4,1.4-0.4,2.3
				c0,0.9,0.2,1.7,0.5,2.4c0.4,0.7,0.8,1.3,1.4,1.8s1.2,0.9,2,1.1s1.4,0.4,2.1,0.4c1.5,0,2.8-0.3,3.9-1c1.1-0.7,2.1-1.6,3-2.8
				L310.8,102z M313.8,85.8c-1.2,0-2.2,0.4-3,1.1s-1.2,1.8-1.2,3c0,1,0.3,2.1,0.9,3c0.6,1,1.4,1.9,2.4,2.9c0.7-0.3,1.4-0.7,2-1
				s1.2-0.8,1.7-1.3c0.5-0.5,0.9-1,1.1-1.6c0.3-0.6,0.4-1.2,0.4-1.9c0-1.1-0.4-2.1-1.2-2.9C316,86.2,315,85.8,313.8,85.8z"/>
			<path d="M378.9,90.3c-1-1.3-2.2-2.3-3.8-2.9s-3.1-0.9-4.6-0.9c-1.9,0-3.6,0.3-5.2,1s-2.9,1.7-4,2.9s-2,2.6-2.6,4.3
				c-0.6,1.6-0.9,3.4-0.9,5.3c0,2,0.3,3.8,0.9,5.5s1.4,3.1,2.5,4.3c1.1,1.2,2.4,2.1,3.9,2.8c1.5,0.7,3.2,1,5.1,1
				c2,0,3.7-0.4,5.2-1.2s2.8-1.8,3.7-3.1l5.2,3.7c-1.6,2.1-3.6,3.6-6,4.8c-2.4,1.1-5.1,1.7-8.3,1.7c-2.9,0-5.5-0.5-7.9-1.4
				s-4.5-2.3-6.2-4c-1.7-1.7-3.1-3.8-4.1-6.1c-1-2.4-1.5-5-1.5-7.9c0-2.9,0.5-5.6,1.5-8s2.4-4.4,4.2-6.1c1.8-1.7,3.9-2.9,6.3-3.8
				s5.1-1.3,7.9-1.3c1.2,0,2.4,0.1,3.7,0.3c1.3,0.2,2.5,0.6,3.7,1s2.3,1.1,3.3,1.7c1,0.7,1.9,1.5,2.6,2.5L378.9,90.3z"/>
			<path d="M386.1,99.9c0-2.9,0.5-5.6,1.5-8c1-2.4,2.4-4.4,4.1-6.1c1.8-1.7,3.8-2.9,6.2-3.8s5-1.3,7.9-1.3c2.9,0,5.5,0.4,8,1.3
				s4.5,2.2,6.3,3.8c1.8,1.7,3.1,3.7,4.1,6.1c1,2.4,1.5,5,1.5,8c0,2.9-0.5,5.5-1.5,7.9c-1,2.4-2.4,4.4-4.1,6.1s-3.9,3.1-6.3,4
				c-2.4,0.9-5.1,1.4-8,1.4c-2.8,0-5.5-0.5-7.9-1.4s-4.5-2.3-6.2-4c-1.8-1.7-3.1-3.8-4.1-6.1S386.1,102.8,386.1,99.9z M393.2,99.9
				c0,2,0.3,3.8,0.9,5.4c0.6,1.7,1.5,3.1,2.6,4.3s2.5,2.2,4,2.8c1.5,0.7,3.2,1,5.1,1s3.6-0.3,5.1-1c1.6-0.7,2.9-1.6,4-2.8
				s2-2.6,2.6-4.3c0.6-1.7,0.9-3.5,0.9-5.4c0-1.9-0.3-3.7-0.9-5.3c-0.6-1.6-1.5-3.1-2.6-4.3c-1.1-1.2-2.4-2.2-4-2.9s-3.3-1-5.2-1
				s-3.6,0.3-5.2,1s-2.9,1.7-4,2.9c-1.1,1.2-2,2.6-2.6,4.3C393.5,96.3,393.2,98,393.2,99.9z"/>
			<path d="M432,81.6h8.7l17.1,27.6h0.1V81.6h6.5v36.8h-8.3L438.7,90h-0.1v28.4H432V81.6z"/>
			<path d="M512.3,118.4h-22.2c-3,0-5.6-0.4-8-1.3s-4.5-2.1-6.2-3.7s-3-3.6-4-5.9s-1.4-5-1.4-8c0-2.8,0.5-5.4,1.5-7.7
				c1-2.3,2.4-4.3,4.1-5.9s3.9-3,6.3-3.9c2.4-0.9,5-1.4,7.8-1.4s5.4,0.5,7.8,1.4c2.4,0.9,4.5,2.2,6.2,3.9s3.1,3.7,4.1,5.9
				c1,2.3,1.5,4.9,1.5,7.7c0,1.7-0.2,3.2-0.6,4.6s-0.9,2.6-1.5,3.8c-0.6,1.1-1.3,2.1-2.1,3s-1.6,1.6-2.4,2.2v0.1h9.1L512.3,118.4
				L512.3,118.4z M490.2,86.6c-1.8,0-3.4,0.3-5,1c-1.5,0.7-2.9,1.6-4,2.7c-1.1,1.1-2,2.5-2.6,4.1c-0.6,1.6-1,3.3-1,5.2
				c0,2,0.3,3.8,0.9,5.4c0.6,1.6,1.5,3,2.5,4.1s2.4,2,3.9,2.7s3.2,1,5,1c1.8,0,3.5-0.3,5-1c1.5-0.6,2.9-1.5,4-2.7
				c1.1-1.1,2-2.5,2.6-4.1s0.9-3.4,0.9-5.4c0-1.9-0.3-3.6-0.9-5.2c-0.6-1.6-1.4-3-2.5-4.1c-1.1-1.1-2.4-2-3.9-2.7
				S492,86.6,490.2,86.6z"/>
			<path d="M546.2,104.9c0,2.2-0.4,4.2-1.1,6s-1.8,3.3-3.1,4.6s-2.9,2.2-4.7,2.9s-3.8,1-5.9,1s-4.1-0.3-5.9-1
				c-1.8-0.7-3.4-1.6-4.7-2.9c-1.3-1.2-2.4-2.8-3.1-4.6c-0.8-1.8-1.1-3.8-1.1-6V81.6h6.5v23c0,1.1,0.1,2.1,0.4,3.2
				c0.3,1.1,0.7,2,1.4,2.8s1.5,1.5,2.5,2s2.4,0.8,3.9,0.8s2.9-0.3,3.9-0.8s1.9-1.2,2.5-2s1.1-1.8,1.4-2.8c0.3-1.1,0.4-2.1,0.4-3.2
				v-23h6.5L546.2,104.9L546.2,104.9z"/>
			<path d="M554,81.6h24.4v5.7h-17.8v9.4h16.9v5.5h-16.9v10.4h18.8v5.8H554V81.6z"/>
			<path d="M585.7,81.6h12.8c1.7,0,3.4,0.2,5,0.6c1.6,0.4,3.1,1,4.3,1.8s2.3,1.9,3,3.3c0.8,1.3,1.1,3,1.1,4.9c0,2.7-0.8,4.8-2.3,6.5
				c-1.5,1.7-3.6,2.8-6.2,3.4l9.8,16.3h-7.9l-8.5-15.6h-4.8v15.6h-6.5L585.7,81.6L585.7,81.6z M597.6,97.5c0.9,0,1.9-0.1,2.8-0.2
				s1.8-0.4,2.5-0.8c0.8-0.4,1.4-0.9,1.8-1.6c0.5-0.7,0.7-1.6,0.7-2.7c0-1-0.2-1.8-0.7-2.5s-1-1.2-1.7-1.5c-0.7-0.4-1.5-0.6-2.4-0.8
				c-0.9-0.1-1.7-0.2-2.6-0.2h-5.9v10.3H597.6z"/>
		</g>
	</g>
</g>
<g id="Guides">
</g>
</svg>
