<?xml version="1.0" encoding="utf-8"?>
<!-- Generator: Adobe Illustrator 24.3.0, SVG Export Plug-In . SVG Version: 6.00 Build 0)  -->
<svg version="1.1" id="Layer_1" xmlns="http://www.w3.org/2000/svg" xmlns:xlink="http://www.w3.org/1999/xlink" x="0px" y="0px"
	 viewBox="0 0 720 740" style="enable-background:new 0 0 720 740;" xml:space="preserve">
<style type="text/css">
	.st0{fill:none;}
	.st1{fill:#FFFFFF;}
</style>
<rect class="st0" width="720" height="740"/>
<g>
	<path class="st1" d="M83.57,52.18h7.33l10.14,28.34h0.21l10.24-28.34h7.07L103.8,89h-5.67L83.57,52.18z"/>
	<path class="st1" d="M132.09,52.18h5.67L153.61,89h-7.49l-3.43-8.42h-15.96L123.4,89h-7.33L132.09,52.18z M140.41,74.96
		l-5.67-14.98l-5.77,14.98H140.41z"/>
	<path class="st1" d="M157.25,52.18h6.55v30.99h15.65V89h-22.2V52.18z"/>
	<path class="st1" d="M183.83,52.18h6.55V89h-6.55V52.18z"/>
	<path class="st1" d="M198.49,52.18h13.05c2.39,0,4.8,0.31,7.23,0.94c2.43,0.62,4.61,1.66,6.55,3.09c1.94,1.44,3.52,3.33,4.73,5.67
		c1.21,2.34,1.82,5.24,1.82,8.71c0,3.22-0.61,6-1.82,8.32c-1.21,2.32-2.79,4.23-4.73,5.72c-1.94,1.49-4.13,2.59-6.55,3.3
		c-2.43,0.71-4.84,1.07-7.23,1.07h-13.05V52.18z M210.5,83.28c1.7,0,3.4-0.2,5.1-0.6c1.7-0.4,3.23-1.07,4.6-2.03
		c1.37-0.95,2.49-2.24,3.35-3.87c0.87-1.63,1.3-3.69,1.3-6.19c0-2.63-0.43-4.78-1.3-6.45c-0.87-1.66-1.98-2.96-3.35-3.9
		c-1.37-0.94-2.9-1.58-4.6-1.92c-1.7-0.35-3.4-0.52-5.1-0.52h-5.46v25.48H210.5z"/>
	<path class="st1" d="M248.51,52.18h5.67L270.04,89h-7.49l-3.43-8.42h-15.96L239.83,89h-7.33L248.51,52.18z M256.83,74.96
		l-5.67-14.98l-5.77,14.98H256.83z"/>
	<path class="st1" d="M278,57.9h-11.28v-5.72h29.12v5.72h-11.28V89H278V57.9z"/>
	<path class="st1" d="M300.1,52.18h24.39v5.72h-17.84v9.36h16.9v5.51h-16.9v10.4h18.77V89H300.1V52.18z"/>
	<path class="st1" d="M351,57.9h-11.28v-5.72h29.12v5.72h-11.28V89H351V57.9z"/>
	<path class="st1" d="M373.1,52.18h6.55v14.87h17.21V52.18h6.55V89h-6.55V72.67h-17.21V89h-6.55V52.18z"/>
	<path class="st1" d="M411.53,52.18h24.39v5.72h-17.84v9.36h16.9v5.51h-16.9v10.4h18.77V89h-25.32V52.18z"/>
	<path class="st1" d="M482.82,60.82c-0.97-1.32-2.24-2.28-3.8-2.89c-1.56-0.61-3.09-0.91-4.58-0.91c-1.91,0-3.64,0.35-5.2,1.04
		c-1.56,0.69-2.9,1.65-4.03,2.86c-1.13,1.21-1.99,2.64-2.6,4.26c-0.61,1.63-0.91,3.4-0.91,5.3c0,2.01,0.29,3.85,0.88,5.51
		c0.59,1.66,1.43,3.09,2.52,4.29c1.09,1.2,2.4,2.12,3.93,2.78c1.52,0.66,3.24,0.99,5.15,0.99c1.98,0,3.73-0.39,5.25-1.17
		c1.52-0.78,2.76-1.81,3.69-3.09l5.25,3.69c-1.63,2.05-3.62,3.63-5.98,4.76c-2.36,1.13-5.11,1.69-8.27,1.69
		c-2.88,0-5.52-0.48-7.93-1.43c-2.41-0.95-4.48-2.29-6.21-4c-1.73-1.72-3.09-3.76-4.06-6.14c-0.97-2.37-1.46-5-1.46-7.88
		c0-2.95,0.51-5.61,1.53-7.98c1.02-2.37,2.43-4.39,4.21-6.06c1.78-1.66,3.89-2.95,6.32-3.85c2.43-0.9,5.06-1.35,7.9-1.35
		c1.18,0,2.41,0.11,3.69,0.34c1.28,0.23,2.51,0.57,3.69,1.04c1.18,0.47,2.29,1.05,3.33,1.74c1.04,0.69,1.92,1.53,2.65,2.5
		L482.82,60.82z"/>
	<path class="st1" d="M492.44,52.18H499v30.99h15.65V89h-22.2V52.18z"/>
	<path class="st1" d="M519.02,52.18h24.39v5.72h-17.84v9.36h16.9v5.51h-16.9v10.4h18.77V89h-25.32V52.18z"/>
	<path class="st1" d="M562.28,52.18h5.67L583.81,89h-7.49l-3.43-8.42h-15.96L553.59,89h-7.33L562.28,52.18z M570.6,74.96
		l-5.67-14.98l-5.77,14.98H570.6z"/>
	<path class="st1" d="M587.45,52.18h8.68l17.11,27.56h0.1V52.18h6.55V89h-8.32L594.1,60.56H594V89h-6.55V52.18z"/>
	<path class="st1" d="M626.55,85.36c0-1.11,0.41-2.06,1.22-2.86c0.81-0.8,1.79-1.2,2.94-1.2c1.11,0,2.08,0.38,2.91,1.14
		c0.83,0.76,1.25,1.7,1.25,2.81c0,1.11-0.41,2.06-1.22,2.86c-0.82,0.8-1.79,1.2-2.94,1.2c-0.55,0-1.08-0.1-1.59-0.31
		c-0.5-0.21-0.95-0.48-1.33-0.83c-0.38-0.35-0.68-0.76-0.91-1.25C626.66,86.44,626.55,85.92,626.55,85.36z"/>
</g>
<g>
	<path class="st1" d="M61.75,259.34h0.05l5.44-14.14h4v18.41h-2.57v-15.39h-0.05l-6.11,15.39h-1.64l-6.08-15.39h-0.05v15.39h-2.5
		V245.2h4L61.75,259.34z"/>
	<path class="st1" d="M88.06,257.42c0,0.95-0.17,1.83-0.51,2.63c-0.34,0.8-0.81,1.49-1.4,2.07c-0.6,0.58-1.3,1.03-2.12,1.35
		c-0.81,0.32-1.69,0.48-2.63,0.48c-0.94,0-1.81-0.16-2.63-0.48c-0.81-0.32-1.52-0.77-2.11-1.35c-0.59-0.58-1.05-1.27-1.39-2.07
		c-0.34-0.8-0.51-1.67-0.51-2.63c0-0.95,0.17-1.82,0.51-2.61s0.8-1.47,1.39-2.04c0.59-0.57,1.29-1.02,2.11-1.34
		c0.81-0.32,1.69-0.48,2.63-0.48c0.94,0,1.81,0.16,2.63,0.48c0.81,0.32,1.52,0.77,2.12,1.34c0.6,0.57,1.07,1.25,1.4,2.04
		S88.06,256.46,88.06,257.42z M85.52,257.43c0-0.59-0.09-1.15-0.27-1.69c-0.18-0.54-0.45-1.01-0.8-1.41s-0.78-0.73-1.29-0.97
		c-0.51-0.24-1.1-0.36-1.76-0.36c-0.66,0-1.25,0.12-1.76,0.36c-0.51,0.24-0.94,0.57-1.29,0.97s-0.61,0.88-0.8,1.41
		c-0.18,0.54-0.27,1.1-0.27,1.69c0,0.59,0.09,1.15,0.27,1.69s0.45,1.01,0.8,1.43c0.35,0.42,0.78,0.74,1.29,0.99s1.1,0.36,1.76,0.36
		c0.66,0,1.25-0.12,1.76-0.36s0.94-0.57,1.29-0.99c0.35-0.41,0.61-0.89,0.8-1.43C85.42,258.58,85.52,258.02,85.52,257.43z"/>
	<path class="st1" d="M93.65,251.28c0.03,0.31,0.06,0.66,0.08,1.05c0.02,0.39,0.03,0.71,0.03,0.98h0.08
		c0.16-0.33,0.37-0.64,0.64-0.92c0.27-0.29,0.58-0.54,0.92-0.75c0.35-0.22,0.73-0.39,1.14-0.51c0.42-0.12,0.85-0.18,1.3-0.18
		c0.8,0,1.48,0.13,2.05,0.4c0.57,0.27,1.05,0.63,1.43,1.08c0.38,0.45,0.66,0.98,0.84,1.59c0.18,0.61,0.27,1.26,0.27,1.95v7.64H100
		v-6.84c0-0.5-0.04-0.98-0.12-1.43c-0.08-0.45-0.22-0.85-0.43-1.2s-0.49-0.62-0.86-0.83s-0.83-0.31-1.4-0.31
		c-0.97,0-1.76,0.37-2.38,1.1s-0.92,1.72-0.92,2.95v6.55h-2.44v-9.67c0-0.33-0.01-0.75-0.03-1.27c-0.02-0.52-0.04-0.98-0.08-1.38
		H93.65z"/>
	<path class="st1" d="M109.44,246.83c0,0.45-0.16,0.82-0.48,1.12c-0.32,0.29-0.7,0.44-1.15,0.44c-0.45,0-0.83-0.15-1.13-0.46
		c-0.31-0.3-0.46-0.67-0.46-1.1c0-0.45,0.15-0.83,0.46-1.13s0.69-0.46,1.13-0.46c0.45,0,0.83,0.15,1.15,0.46
		C109.28,246.01,109.44,246.38,109.44,246.83z M109.05,263.6h-2.44v-12.32h2.44V263.6z"/>
	<path class="st1" d="M119.34,253.28h-3.28v6.4c0,0.74,0.14,1.27,0.42,1.59c0.28,0.32,0.72,0.48,1.33,0.48
		c0.23,0,0.47-0.02,0.73-0.07c0.26-0.05,0.49-0.12,0.7-0.21l0.08,2c-0.29,0.1-0.62,0.19-0.98,0.25c-0.36,0.06-0.72,0.09-1.1,0.09
		c-1.16,0-2.05-0.32-2.67-0.96c-0.62-0.64-0.92-1.6-0.92-2.89v-6.68h-2.37v-2h2.37v-3.54h2.42v3.54h3.28V253.28z"/>
	<path class="st1" d="M134.34,257.42c0,0.95-0.17,1.83-0.51,2.63c-0.34,0.8-0.81,1.49-1.4,2.07c-0.6,0.58-1.3,1.03-2.12,1.35
		c-0.81,0.32-1.69,0.48-2.63,0.48c-0.94,0-1.81-0.16-2.63-0.48c-0.81-0.32-1.52-0.77-2.11-1.35c-0.59-0.58-1.05-1.27-1.39-2.07
		c-0.34-0.8-0.51-1.67-0.51-2.63c0-0.95,0.17-1.82,0.51-2.61s0.8-1.47,1.39-2.04c0.59-0.57,1.29-1.02,2.11-1.34
		c0.81-0.32,1.69-0.48,2.63-0.48c0.94,0,1.81,0.16,2.63,0.48c0.81,0.32,1.52,0.77,2.12,1.34c0.6,0.57,1.07,1.25,1.4,2.04
		S134.34,256.46,134.34,257.42z M131.79,257.43c0-0.59-0.09-1.15-0.27-1.69c-0.18-0.54-0.45-1.01-0.8-1.41s-0.78-0.73-1.29-0.97
		c-0.51-0.24-1.1-0.36-1.76-0.36c-0.66,0-1.25,0.12-1.76,0.36c-0.51,0.24-0.94,0.57-1.29,0.97s-0.61,0.88-0.8,1.41
		c-0.18,0.54-0.27,1.1-0.27,1.69c0,0.59,0.09,1.15,0.27,1.69s0.45,1.01,0.8,1.43c0.35,0.42,0.78,0.74,1.29,0.99s1.1,0.36,1.76,0.36
		c0.66,0,1.25-0.12,1.76-0.36s0.94-0.57,1.29-0.99c0.35-0.41,0.61-0.89,0.8-1.43C131.7,258.58,131.79,258.02,131.79,257.43z"/>
	<path class="st1" d="M137.7,252.66c-0.02-0.52-0.04-0.98-0.08-1.38h2.31c0.03,0.31,0.06,0.67,0.08,1.08c0.02,0.41,0.03,0.74,0.03,1
		h0.08c0.35-0.73,0.85-1.31,1.52-1.75c0.67-0.44,1.42-0.66,2.25-0.66c0.38,0,0.7,0.04,0.96,0.1l-0.1,2.26
		c-0.35-0.09-0.72-0.13-1.12-0.13c-0.59,0-1.1,0.11-1.53,0.32c-0.43,0.22-0.79,0.51-1.08,0.87c-0.29,0.36-0.5,0.78-0.64,1.26
		c-0.14,0.48-0.21,0.98-0.21,1.5v6.47h-2.44v-9.67C137.72,253.6,137.71,253.18,137.7,252.66z"/>
	<path class="st1" d="M162.27,254.4c-0.26-0.4-0.65-0.73-1.17-1c-0.52-0.27-1.08-0.4-1.66-0.4c-0.64,0-1.21,0.12-1.7,0.36
		c-0.49,0.24-0.92,0.57-1.26,0.98c-0.35,0.41-0.61,0.88-0.79,1.42c-0.18,0.54-0.27,1.1-0.27,1.69c0,0.59,0.09,1.15,0.27,1.69
		c0.18,0.54,0.45,1.01,0.79,1.42c0.35,0.41,0.77,0.73,1.27,0.98c0.5,0.24,1.07,0.36,1.72,0.36c0.62,0,1.19-0.12,1.7-0.36
		c0.51-0.24,0.93-0.57,1.26-0.99l1.64,1.48c-0.52,0.61-1.17,1.08-1.95,1.42s-1.66,0.51-2.65,0.51c-0.95,0-1.83-0.16-2.64-0.47
		s-1.5-0.75-2.09-1.31c-0.59-0.56-1.05-1.24-1.39-2.04s-0.51-1.69-0.51-2.68c0-0.97,0.17-1.85,0.49-2.65
		c0.33-0.8,0.79-1.48,1.38-2.05c0.59-0.57,1.29-1.01,2.09-1.33c0.81-0.31,1.68-0.47,2.61-0.47c0.87,0,1.73,0.17,2.59,0.52
		c0.86,0.35,1.54,0.85,2.04,1.51L162.27,254.4z"/>
	<path class="st1" d="M168.97,263.6h-2.44v-19.66h2.44V263.6z"/>
	<path class="st1" d="M184.76,257.34c0,0.14,0,0.28,0,0.42c0,0.14-0.01,0.28-0.03,0.42h-9.8c0.02,0.52,0.13,1,0.35,1.46
		c0.22,0.46,0.51,0.85,0.87,1.19c0.36,0.34,0.78,0.6,1.26,0.79c0.48,0.19,0.98,0.28,1.52,0.28c0.83,0,1.55-0.18,2.16-0.55
		c0.61-0.36,1.08-0.81,1.43-1.33l1.72,1.38c-0.66,0.87-1.43,1.52-2.33,1.93c-0.89,0.41-1.89,0.62-2.98,0.62
		c-0.94,0-1.8-0.16-2.6-0.47c-0.8-0.31-1.48-0.75-2.05-1.31c-0.57-0.56-1.02-1.24-1.35-2.04s-0.49-1.68-0.49-2.65
		c0-0.95,0.16-1.83,0.48-2.64c0.32-0.81,0.77-1.5,1.34-2.07c0.57-0.57,1.25-1.02,2.03-1.34c0.78-0.32,1.62-0.48,2.53-0.48
		s1.72,0.15,2.46,0.44c0.74,0.29,1.36,0.72,1.88,1.27s0.91,1.23,1.19,2.01C184.62,255.46,184.76,256.35,184.76,257.34z
		 M182.26,256.35c-0.02-0.49-0.1-0.94-0.25-1.37c-0.15-0.42-0.36-0.79-0.65-1.1c-0.29-0.31-0.64-0.56-1.07-0.74
		c-0.42-0.18-0.92-0.27-1.5-0.27c-0.52,0-1.01,0.09-1.47,0.27c-0.46,0.18-0.86,0.43-1.2,0.74s-0.62,0.68-0.83,1.1
		c-0.22,0.43-0.34,0.88-0.38,1.37H182.26z"/>
	<path class="st1" d="M195.65,255.62c0-0.92-0.28-1.6-0.83-2.04c-0.56-0.44-1.29-0.66-2.21-0.66c-0.69,0-1.35,0.13-1.96,0.4
		c-0.62,0.27-1.13,0.61-1.55,1.03l-1.3-1.56c0.61-0.57,1.35-1.02,2.22-1.35c0.88-0.33,1.82-0.49,2.82-0.49
		c0.88,0,1.65,0.13,2.3,0.38c0.65,0.25,1.18,0.59,1.6,1.03s0.73,0.94,0.94,1.53c0.21,0.59,0.31,1.22,0.31,1.9v5.38
		c0,0.42,0.01,0.85,0.04,1.31c0.03,0.46,0.07,0.84,0.14,1.13h-2.21c-0.14-0.59-0.21-1.18-0.21-1.77h-0.08
		c-0.45,0.66-1.02,1.17-1.7,1.53c-0.68,0.36-1.5,0.55-2.43,0.55c-0.49,0-0.99-0.06-1.52-0.19c-0.53-0.13-1.01-0.34-1.44-0.64
		c-0.43-0.29-0.79-0.68-1.08-1.17s-0.43-1.08-0.43-1.79c0-0.94,0.25-1.68,0.75-2.22c0.5-0.55,1.16-0.96,1.98-1.25
		s1.73-0.47,2.76-0.56c1.02-0.09,2.05-0.13,3.09-0.13V255.62z M195.05,257.73c-0.61,0-1.23,0.03-1.88,0.08
		c-0.65,0.05-1.24,0.16-1.77,0.31c-0.53,0.16-0.97,0.39-1.31,0.7s-0.52,0.73-0.52,1.25c0,0.36,0.07,0.67,0.22,0.91
		s0.34,0.44,0.58,0.6c0.24,0.16,0.51,0.26,0.81,0.32c0.29,0.06,0.6,0.09,0.91,0.09c1.14,0,2.02-0.34,2.64-1.03
		c0.62-0.68,0.92-1.55,0.92-2.59v-0.65H195.05z"/>
	<path class="st1" d="M204.28,251.28c0.03,0.31,0.06,0.66,0.08,1.05c0.02,0.39,0.03,0.71,0.03,0.98h0.08
		c0.16-0.33,0.37-0.64,0.64-0.92c0.27-0.29,0.58-0.54,0.92-0.75c0.35-0.22,0.73-0.39,1.14-0.51c0.42-0.12,0.85-0.18,1.3-0.18
		c0.8,0,1.48,0.13,2.05,0.4c0.57,0.27,1.05,0.63,1.43,1.08c0.38,0.45,0.66,0.98,0.84,1.59c0.18,0.61,0.27,1.26,0.27,1.95v7.64h-2.44
		v-6.84c0-0.5-0.04-0.98-0.12-1.43c-0.08-0.45-0.22-0.85-0.43-1.2s-0.49-0.62-0.86-0.83s-0.83-0.31-1.4-0.31
		c-0.97,0-1.76,0.37-2.38,1.1s-0.92,1.72-0.92,2.95v6.55h-2.44v-9.67c0-0.33-0.01-0.75-0.03-1.27c-0.02-0.52-0.04-0.98-0.08-1.38
		H204.28z"/>
	<path class="st1" d="M219.7,263.6h-2.44v-19.66h2.44V263.6z"/>
	<path class="st1" d="M226.82,246.83c0,0.45-0.16,0.82-0.48,1.12c-0.32,0.29-0.7,0.44-1.15,0.44c-0.45,0-0.83-0.15-1.13-0.46
		c-0.31-0.3-0.46-0.67-0.46-1.1c0-0.45,0.15-0.83,0.46-1.13s0.69-0.46,1.13-0.46c0.45,0,0.83,0.15,1.15,0.46
		C226.66,246.01,226.82,246.38,226.82,246.83z M226.43,263.6h-2.44v-12.32h2.44V263.6z"/>
	<path class="st1" d="M232.91,251.28c0.03,0.31,0.06,0.66,0.08,1.05c0.02,0.39,0.03,0.71,0.03,0.98h0.08
		c0.16-0.33,0.37-0.64,0.64-0.92c0.27-0.29,0.58-0.54,0.92-0.75c0.35-0.22,0.73-0.39,1.14-0.51c0.42-0.12,0.85-0.18,1.3-0.18
		c0.8,0,1.48,0.13,2.05,0.4c0.57,0.27,1.05,0.63,1.43,1.08c0.38,0.45,0.66,0.98,0.84,1.59c0.18,0.61,0.27,1.26,0.27,1.95v7.64h-2.44
		v-6.84c0-0.5-0.04-0.98-0.12-1.43c-0.08-0.45-0.22-0.85-0.43-1.2s-0.49-0.62-0.86-0.83s-0.83-0.31-1.4-0.31
		c-0.97,0-1.76,0.37-2.38,1.1s-0.92,1.72-0.92,2.95v6.55h-2.44v-9.67c0-0.33-0.01-0.75-0.03-1.27c-0.02-0.52-0.04-0.98-0.08-1.38
		H232.91z"/>
	<path class="st1" d="M257.35,257.34c0,0.14,0,0.28,0,0.42c0,0.14-0.01,0.28-0.03,0.42h-9.8c0.02,0.52,0.13,1,0.35,1.46
		c0.22,0.46,0.51,0.85,0.87,1.19c0.36,0.34,0.78,0.6,1.26,0.79c0.48,0.19,0.98,0.28,1.52,0.28c0.83,0,1.55-0.18,2.16-0.55
		c0.61-0.36,1.08-0.81,1.43-1.33l1.72,1.38c-0.66,0.87-1.43,1.52-2.33,1.93c-0.89,0.41-1.89,0.62-2.98,0.62
		c-0.94,0-1.8-0.16-2.6-0.47c-0.8-0.31-1.48-0.75-2.05-1.31c-0.57-0.56-1.02-1.24-1.35-2.04s-0.49-1.68-0.49-2.65
		c0-0.95,0.16-1.83,0.48-2.64c0.32-0.81,0.77-1.5,1.34-2.07c0.57-0.57,1.25-1.02,2.03-1.34c0.78-0.32,1.62-0.48,2.53-0.48
		s1.72,0.15,2.46,0.44c0.74,0.29,1.36,0.72,1.88,1.27s0.91,1.23,1.19,2.01C257.21,255.46,257.35,256.35,257.35,257.34z
		 M254.85,256.35c-0.02-0.49-0.1-0.94-0.25-1.37c-0.15-0.42-0.36-0.79-0.65-1.1c-0.29-0.31-0.64-0.56-1.07-0.74
		c-0.42-0.18-0.92-0.27-1.5-0.27c-0.52,0-1.01,0.09-1.47,0.27c-0.46,0.18-0.86,0.43-1.2,0.74s-0.62,0.68-0.83,1.1
		c-0.22,0.43-0.34,0.88-0.38,1.37H254.85z"/>
	<path class="st1" d="M267.38,254.4c-0.28-0.45-0.67-0.82-1.17-1.1s-1.07-0.43-1.69-0.43c-0.28,0-0.56,0.03-0.83,0.09
		c-0.28,0.06-0.52,0.16-0.74,0.29c-0.22,0.13-0.39,0.29-0.52,0.49c-0.13,0.2-0.19,0.45-0.19,0.74c0,0.52,0.23,0.91,0.7,1.16
		c0.47,0.25,1.17,0.48,2.11,0.69c0.59,0.14,1.13,0.3,1.64,0.49c0.5,0.19,0.94,0.43,1.31,0.72c0.37,0.29,0.66,0.63,0.87,1.03
		c0.21,0.4,0.31,0.87,0.31,1.4c0,0.73-0.14,1.34-0.42,1.85c-0.28,0.5-0.65,0.91-1.1,1.23c-0.46,0.32-0.98,0.55-1.57,0.69
		c-0.59,0.14-1.2,0.21-1.82,0.21c-0.94,0-1.85-0.18-2.74-0.55c-0.89-0.36-1.63-0.92-2.22-1.66l1.74-1.48
		c0.33,0.49,0.78,0.89,1.37,1.22c0.58,0.33,1.22,0.49,1.91,0.49c0.31,0,0.61-0.03,0.9-0.09c0.29-0.06,0.55-0.16,0.78-0.3
		s0.42-0.32,0.56-0.55c0.14-0.22,0.21-0.51,0.21-0.86c0-0.57-0.27-1-0.82-1.27c-0.55-0.28-1.35-0.54-2.41-0.78
		c-0.42-0.1-0.84-0.23-1.26-0.38c-0.42-0.15-0.81-0.35-1.16-0.61c-0.35-0.26-0.63-0.58-0.84-0.98c-0.22-0.39-0.33-0.87-0.33-1.44
		c0-0.66,0.13-1.23,0.4-1.7c0.27-0.48,0.62-0.87,1.05-1.17c0.43-0.3,0.93-0.53,1.48-0.68c0.55-0.15,1.13-0.22,1.72-0.22
		c0.88,0,1.74,0.17,2.56,0.52c0.82,0.35,1.46,0.85,1.91,1.51L267.38,254.4z"/>
	<path class="st1" d="M278.93,254.4c-0.28-0.45-0.67-0.82-1.17-1.1s-1.07-0.43-1.69-0.43c-0.28,0-0.56,0.03-0.83,0.09
		c-0.28,0.06-0.52,0.16-0.74,0.29c-0.22,0.13-0.39,0.29-0.52,0.49c-0.13,0.2-0.19,0.45-0.19,0.74c0,0.52,0.23,0.91,0.7,1.16
		c0.47,0.25,1.17,0.48,2.11,0.69c0.59,0.14,1.13,0.3,1.64,0.49c0.5,0.19,0.94,0.43,1.31,0.72c0.37,0.29,0.66,0.63,0.87,1.03
		c0.21,0.4,0.31,0.87,0.31,1.4c0,0.73-0.14,1.34-0.42,1.85c-0.28,0.5-0.65,0.91-1.1,1.23c-0.46,0.32-0.98,0.55-1.57,0.69
		c-0.59,0.14-1.2,0.21-1.82,0.21c-0.94,0-1.85-0.18-2.74-0.55c-0.89-0.36-1.63-0.92-2.22-1.66l1.74-1.48
		c0.33,0.49,0.78,0.89,1.37,1.22c0.58,0.33,1.22,0.49,1.91,0.49c0.31,0,0.61-0.03,0.9-0.09c0.29-0.06,0.55-0.16,0.78-0.3
		s0.42-0.32,0.56-0.55c0.14-0.22,0.21-0.51,0.21-0.86c0-0.57-0.27-1-0.82-1.27c-0.55-0.28-1.35-0.54-2.41-0.78
		c-0.42-0.1-0.84-0.23-1.26-0.38c-0.42-0.15-0.81-0.35-1.16-0.61c-0.35-0.26-0.63-0.58-0.84-0.98c-0.22-0.39-0.33-0.87-0.33-1.44
		c0-0.66,0.13-1.23,0.4-1.7c0.27-0.48,0.62-0.87,1.05-1.17c0.43-0.3,0.93-0.53,1.48-0.68c0.55-0.15,1.13-0.22,1.72-0.22
		c0.88,0,1.74,0.17,2.56,0.52c0.82,0.35,1.46,0.85,1.91,1.51L278.93,254.4z"/>
	<path class="st1" d="M293.17,246.83c0,0.45-0.16,0.82-0.48,1.12c-0.32,0.29-0.7,0.44-1.15,0.44c-0.45,0-0.83-0.15-1.13-0.46
		c-0.31-0.3-0.46-0.67-0.46-1.1c0-0.45,0.15-0.83,0.46-1.13s0.69-0.46,1.13-0.46c0.45,0,0.83,0.15,1.15,0.46
		C293.01,246.01,293.17,246.38,293.17,246.83z M292.78,263.6h-2.44v-12.32h2.44V263.6z"/>
	<path class="st1" d="M299.26,251.28c0.03,0.31,0.06,0.66,0.08,1.05c0.02,0.39,0.03,0.71,0.03,0.98h0.08
		c0.16-0.33,0.37-0.64,0.64-0.92c0.27-0.29,0.58-0.54,0.92-0.75c0.35-0.22,0.73-0.39,1.14-0.51c0.42-0.12,0.85-0.18,1.3-0.18
		c0.8,0,1.48,0.13,2.05,0.4c0.57,0.27,1.05,0.63,1.43,1.08c0.38,0.45,0.66,0.98,0.84,1.59c0.18,0.61,0.27,1.26,0.27,1.95v7.64h-2.44
		v-6.84c0-0.5-0.04-0.98-0.12-1.43c-0.08-0.45-0.22-0.85-0.43-1.2s-0.49-0.62-0.86-0.83s-0.83-0.31-1.4-0.31
		c-0.97,0-1.76,0.37-2.38,1.1s-0.92,1.72-0.92,2.95v6.55h-2.44v-9.67c0-0.33-0.01-0.75-0.03-1.27c-0.02-0.52-0.04-0.98-0.08-1.38
		H299.26z"/>
	<path class="st1" d="M319.59,251.28l2.78,9.41h0.05l2.94-9.41h2.57l2.99,9.41h0.05l2.78-9.41h2.57l-4.08,12.32h-2.55l-3.04-9.26
		h-0.05l-3.02,9.26h-2.55l-4.11-12.32H319.59z"/>
	<path class="st1" d="M346.45,255.62c0-0.92-0.28-1.6-0.83-2.04c-0.56-0.44-1.29-0.66-2.21-0.66c-0.69,0-1.35,0.13-1.96,0.4
		c-0.62,0.27-1.13,0.61-1.55,1.03l-1.3-1.56c0.61-0.57,1.35-1.02,2.22-1.35c0.88-0.33,1.82-0.49,2.82-0.49
		c0.88,0,1.65,0.13,2.3,0.38c0.65,0.25,1.18,0.59,1.6,1.03s0.73,0.94,0.94,1.53c0.21,0.59,0.31,1.22,0.31,1.9v5.38
		c0,0.42,0.01,0.85,0.04,1.31c0.03,0.46,0.07,0.84,0.14,1.13h-2.21c-0.14-0.59-0.21-1.18-0.21-1.77h-0.08
		c-0.45,0.66-1.02,1.17-1.7,1.53c-0.68,0.36-1.5,0.55-2.43,0.55c-0.49,0-0.99-0.06-1.52-0.19c-0.53-0.13-1.01-0.34-1.44-0.64
		c-0.43-0.29-0.79-0.68-1.08-1.17s-0.43-1.08-0.43-1.79c0-0.94,0.25-1.68,0.75-2.22c0.5-0.55,1.16-0.96,1.98-1.25
		s1.73-0.47,2.76-0.56c1.02-0.09,2.05-0.13,3.09-0.13V255.62z M345.85,257.73c-0.61,0-1.23,0.03-1.88,0.08
		c-0.65,0.05-1.24,0.16-1.77,0.31c-0.53,0.16-0.97,0.39-1.31,0.7s-0.52,0.73-0.52,1.25c0,0.36,0.07,0.67,0.22,0.91
		s0.34,0.44,0.58,0.6c0.24,0.16,0.51,0.26,0.81,0.32c0.29,0.06,0.6,0.09,0.91,0.09c1.14,0,2.02-0.34,2.64-1.03
		c0.62-0.68,0.92-1.55,0.92-2.59v-0.65H345.85z"/>
	<path class="st1" d="M357.55,260.95h0.05l3.41-9.67h2.6l-5.98,15.24c-0.21,0.52-0.43,0.98-0.68,1.39
		c-0.24,0.41-0.53,0.75-0.86,1.04c-0.33,0.29-0.71,0.51-1.16,0.66c-0.44,0.16-0.97,0.23-1.57,0.23c-0.26,0-0.52-0.01-0.79-0.04
		c-0.27-0.03-0.54-0.07-0.82-0.14l0.23-2.16c0.42,0.14,0.82,0.21,1.22,0.21c0.64,0,1.12-0.18,1.43-0.53
		c0.31-0.36,0.6-0.86,0.86-1.52l0.78-2.05L351,251.28h2.73L357.55,260.95z"/>
	<path class="st1" d="M372.63,254.4c-0.28-0.45-0.67-0.82-1.17-1.1s-1.07-0.43-1.69-0.43c-0.28,0-0.56,0.03-0.83,0.09
		c-0.28,0.06-0.52,0.16-0.74,0.29c-0.22,0.13-0.39,0.29-0.52,0.49c-0.13,0.2-0.19,0.45-0.19,0.74c0,0.52,0.23,0.91,0.7,1.16
		c0.47,0.25,1.17,0.48,2.11,0.69c0.59,0.14,1.13,0.3,1.64,0.49c0.5,0.19,0.94,0.43,1.31,0.72c0.37,0.29,0.66,0.63,0.87,1.03
		c0.21,0.4,0.31,0.87,0.31,1.4c0,0.73-0.14,1.34-0.42,1.85c-0.28,0.5-0.65,0.91-1.1,1.23c-0.46,0.32-0.98,0.55-1.57,0.69
		c-0.59,0.14-1.2,0.21-1.82,0.21c-0.94,0-1.85-0.18-2.74-0.55c-0.89-0.36-1.63-0.92-2.22-1.66l1.74-1.48
		c0.33,0.49,0.78,0.89,1.37,1.22c0.58,0.33,1.22,0.49,1.91,0.49c0.31,0,0.61-0.03,0.9-0.09c0.29-0.06,0.55-0.16,0.78-0.3
		s0.42-0.32,0.56-0.55c0.14-0.22,0.21-0.51,0.21-0.86c0-0.57-0.27-1-0.82-1.27c-0.55-0.28-1.35-0.54-2.41-0.78
		c-0.42-0.1-0.84-0.23-1.26-0.38c-0.42-0.15-0.81-0.35-1.16-0.61c-0.35-0.26-0.63-0.58-0.84-0.98c-0.22-0.39-0.33-0.87-0.33-1.44
		c0-0.66,0.13-1.23,0.4-1.7c0.27-0.48,0.62-0.87,1.05-1.17c0.43-0.3,0.93-0.53,1.48-0.68c0.55-0.15,1.13-0.22,1.72-0.22
		c0.88,0,1.74,0.17,2.56,0.52c0.82,0.35,1.46,0.85,1.91,1.51L372.63,254.4z"/>
	<path class="st1" d="M386.23,251.28c0.03,0.31,0.06,0.66,0.08,1.05c0.02,0.39,0.03,0.71,0.03,0.98h0.08
		c0.16-0.33,0.37-0.64,0.64-0.92c0.27-0.29,0.58-0.54,0.92-0.75c0.35-0.22,0.73-0.39,1.14-0.51c0.42-0.12,0.85-0.18,1.3-0.18
		c0.8,0,1.48,0.13,2.05,0.4c0.57,0.27,1.05,0.63,1.43,1.08c0.38,0.45,0.66,0.98,0.84,1.59c0.18,0.61,0.27,1.26,0.27,1.95v7.64h-2.44
		v-6.84c0-0.5-0.04-0.98-0.12-1.43c-0.08-0.45-0.22-0.85-0.43-1.2s-0.49-0.62-0.86-0.83s-0.83-0.31-1.4-0.31
		c-0.97,0-1.76,0.37-2.38,1.1s-0.92,1.72-0.92,2.95v6.55h-2.44v-9.67c0-0.33-0.01-0.75-0.03-1.27c-0.02-0.52-0.04-0.98-0.08-1.38
		H386.23z"/>
	<path class="st1" d="M411.63,257.42c0,0.95-0.17,1.83-0.51,2.63c-0.34,0.8-0.81,1.49-1.4,2.07c-0.6,0.58-1.3,1.03-2.12,1.35
		c-0.81,0.32-1.69,0.48-2.63,0.48c-0.94,0-1.81-0.16-2.63-0.48c-0.81-0.32-1.52-0.77-2.11-1.35c-0.59-0.58-1.05-1.27-1.39-2.07
		c-0.34-0.8-0.51-1.67-0.51-2.63c0-0.95,0.17-1.82,0.51-2.61s0.8-1.47,1.39-2.04c0.59-0.57,1.29-1.02,2.11-1.34
		c0.81-0.32,1.69-0.48,2.63-0.48c0.94,0,1.81,0.16,2.63,0.48c0.81,0.32,1.52,0.77,2.12,1.34c0.6,0.57,1.07,1.25,1.4,2.04
		S411.63,256.46,411.63,257.42z M409.08,257.43c0-0.59-0.09-1.15-0.27-1.69c-0.18-0.54-0.45-1.01-0.8-1.41s-0.78-0.73-1.29-0.97
		c-0.51-0.24-1.1-0.36-1.76-0.36c-0.66,0-1.25,0.12-1.76,0.36c-0.51,0.24-0.94,0.57-1.29,0.97s-0.61,0.88-0.8,1.41
		c-0.18,0.54-0.27,1.1-0.27,1.69c0,0.59,0.09,1.15,0.27,1.69s0.45,1.01,0.8,1.43c0.35,0.42,0.78,0.74,1.29,0.99s1.1,0.36,1.76,0.36
		c0.66,0,1.25-0.12,1.76-0.36s0.94-0.57,1.29-0.99c0.35-0.41,0.61-0.89,0.8-1.43C408.99,258.58,409.08,258.02,409.08,257.43z"/>
	<path class="st1" d="M421.04,253.28h-3.28v6.4c0,0.74,0.14,1.27,0.42,1.59c0.28,0.32,0.72,0.48,1.33,0.48
		c0.23,0,0.47-0.02,0.73-0.07c0.26-0.05,0.49-0.12,0.7-0.21l0.08,2c-0.29,0.1-0.62,0.19-0.98,0.25c-0.36,0.06-0.72,0.09-1.1,0.09
		c-1.16,0-2.05-0.32-2.67-0.96c-0.62-0.64-0.92-1.6-0.92-2.89v-6.68h-2.37v-2h2.37v-3.54h2.42v3.54h3.28V253.28z"/>
	<path class="st1" d="M435.86,263.6h-2.65l-5.02-12.32h2.7l3.61,9.7h0.05l3.64-9.7h2.6L435.86,263.6z"/>
	<path class="st1" d="M446.02,246.83c0,0.45-0.16,0.82-0.48,1.12c-0.32,0.29-0.7,0.44-1.15,0.44c-0.45,0-0.83-0.15-1.13-0.46
		c-0.31-0.3-0.46-0.67-0.46-1.1c0-0.45,0.15-0.83,0.46-1.13s0.69-0.46,1.13-0.46c0.45,0,0.83,0.15,1.15,0.46
		C445.86,246.01,446.02,246.38,446.02,246.83z M445.63,263.6h-2.44v-12.32h2.44V263.6z"/>
	<path class="st1" d="M456.55,254.4c-0.28-0.45-0.67-0.82-1.17-1.1s-1.07-0.43-1.69-0.43c-0.28,0-0.56,0.03-0.83,0.09
		c-0.28,0.06-0.52,0.16-0.74,0.29c-0.22,0.13-0.39,0.29-0.52,0.49c-0.13,0.2-0.19,0.45-0.19,0.74c0,0.52,0.23,0.91,0.7,1.16
		c0.47,0.25,1.17,0.48,2.11,0.69c0.59,0.14,1.13,0.3,1.64,0.49c0.5,0.19,0.94,0.43,1.31,0.72c0.37,0.29,0.66,0.63,0.87,1.03
		c0.21,0.4,0.31,0.87,0.31,1.4c0,0.73-0.14,1.34-0.42,1.85c-0.28,0.5-0.65,0.91-1.1,1.23c-0.46,0.32-0.98,0.55-1.57,0.69
		c-0.59,0.14-1.2,0.21-1.82,0.21c-0.94,0-1.85-0.18-2.74-0.55c-0.89-0.36-1.63-0.92-2.22-1.66l1.74-1.48
		c0.33,0.49,0.78,0.89,1.37,1.22c0.58,0.33,1.22,0.49,1.91,0.49c0.31,0,0.61-0.03,0.9-0.09c0.29-0.06,0.55-0.16,0.78-0.3
		s0.42-0.32,0.56-0.55c0.14-0.22,0.21-0.51,0.21-0.86c0-0.57-0.27-1-0.82-1.27c-0.55-0.28-1.35-0.54-2.41-0.78
		c-0.42-0.1-0.84-0.23-1.26-0.38c-0.42-0.15-0.81-0.35-1.16-0.61c-0.35-0.26-0.63-0.58-0.84-0.98c-0.22-0.39-0.33-0.87-0.33-1.44
		c0-0.66,0.13-1.23,0.4-1.7c0.27-0.48,0.62-0.87,1.05-1.17c0.43-0.3,0.93-0.53,1.48-0.68c0.55-0.15,1.13-0.22,1.72-0.22
		c0.88,0,1.74,0.17,2.56,0.52c0.82,0.35,1.46,0.85,1.91,1.51L456.55,254.4z"/>
	<path class="st1" d="M464.3,246.83c0,0.45-0.16,0.82-0.48,1.12c-0.32,0.29-0.7,0.44-1.15,0.44c-0.45,0-0.83-0.15-1.13-0.46
		c-0.31-0.3-0.46-0.67-0.46-1.1c0-0.45,0.15-0.83,0.46-1.13s0.69-0.46,1.13-0.46c0.45,0,0.83,0.15,1.15,0.46
		C464.14,246.01,464.3,246.38,464.3,246.83z M463.91,263.6h-2.44v-12.32h2.44V263.6z"/>
	<path class="st1" d="M470.59,261.65v1.95h-2.37v-19.66h2.44v9.18h0.08c0.42-0.61,0.99-1.12,1.74-1.55
		c0.74-0.42,1.62-0.64,2.65-0.64c0.92,0,1.75,0.17,2.5,0.49c0.75,0.33,1.4,0.79,1.94,1.38c0.54,0.59,0.96,1.28,1.26,2.07
		c0.29,0.79,0.44,1.63,0.44,2.54c0,0.9-0.15,1.75-0.44,2.55c-0.29,0.8-0.71,1.49-1.24,2.08c-0.54,0.59-1.18,1.05-1.95,1.39
		s-1.62,0.51-2.57,0.51c-0.88,0-1.72-0.19-2.52-0.58s-1.44-0.96-1.92-1.7H470.59z M478.78,257.43c0-0.57-0.09-1.12-0.26-1.66
		c-0.17-0.54-0.43-1.01-0.78-1.43c-0.35-0.41-0.78-0.74-1.29-0.98c-0.51-0.24-1.1-0.36-1.78-0.36c-0.62,0-1.19,0.12-1.7,0.36
		c-0.51,0.24-0.95,0.57-1.31,0.98c-0.36,0.42-0.65,0.89-0.84,1.43s-0.3,1.1-0.3,1.69c0,0.59,0.1,1.15,0.3,1.69s0.48,1.01,0.84,1.41
		s0.8,0.73,1.31,0.97c0.51,0.24,1.08,0.36,1.7,0.36c0.68,0,1.27-0.13,1.78-0.38c0.51-0.25,0.94-0.58,1.29-1
		c0.35-0.42,0.61-0.89,0.78-1.43C478.7,258.55,478.78,258,478.78,257.43z"/>
	<path class="st1" d="M487.21,263.6h-2.44v-19.66h2.44V263.6z"/>
	<path class="st1" d="M502.99,257.34c0,0.14,0,0.28,0,0.42c0,0.14-0.01,0.28-0.03,0.42h-9.8c0.02,0.52,0.13,1,0.35,1.46
		c0.22,0.46,0.51,0.85,0.87,1.19c0.36,0.34,0.78,0.6,1.26,0.79c0.48,0.19,0.98,0.28,1.52,0.28c0.83,0,1.55-0.18,2.16-0.55
		c0.61-0.36,1.08-0.81,1.43-1.33l1.72,1.38c-0.66,0.87-1.43,1.52-2.33,1.93c-0.89,0.41-1.89,0.62-2.98,0.62
		c-0.94,0-1.8-0.16-2.6-0.47c-0.8-0.31-1.48-0.75-2.05-1.31c-0.57-0.56-1.02-1.24-1.35-2.04s-0.49-1.68-0.49-2.65
		c0-0.95,0.16-1.83,0.48-2.64c0.32-0.81,0.77-1.5,1.34-2.07c0.57-0.57,1.25-1.02,2.03-1.34c0.78-0.32,1.62-0.48,2.53-0.48
		s1.72,0.15,2.46,0.44c0.74,0.29,1.36,0.72,1.88,1.27s0.91,1.23,1.19,2.01C502.85,255.46,502.99,256.35,502.99,257.34z
		 M500.49,256.35c-0.02-0.49-0.1-0.94-0.25-1.37c-0.15-0.42-0.36-0.79-0.65-1.1c-0.29-0.31-0.64-0.56-1.07-0.74
		c-0.42-0.18-0.92-0.27-1.5-0.27c-0.52,0-1.01,0.09-1.47,0.27c-0.46,0.18-0.86,0.43-1.2,0.74s-0.62,0.68-0.83,1.1
		c-0.22,0.43-0.34,0.88-0.38,1.37H500.49z"/>
	<path class="st1" d="M518.9,253.28h-3.28v6.4c0,0.74,0.14,1.27,0.42,1.59c0.28,0.32,0.72,0.48,1.33,0.48
		c0.23,0,0.47-0.02,0.73-0.07c0.26-0.05,0.49-0.12,0.7-0.21l0.08,2c-0.29,0.1-0.62,0.19-0.98,0.25c-0.36,0.06-0.72,0.09-1.1,0.09
		c-1.16,0-2.05-0.32-2.67-0.96c-0.62-0.64-0.92-1.6-0.92-2.89v-6.68h-2.37v-2h2.37v-3.54h2.42v3.54h3.28V253.28z"/>
	<path class="st1" d="M533.9,257.42c0,0.95-0.17,1.83-0.51,2.63c-0.34,0.8-0.81,1.49-1.4,2.07c-0.6,0.58-1.3,1.03-2.12,1.35
		c-0.81,0.32-1.69,0.48-2.63,0.48c-0.94,0-1.81-0.16-2.63-0.48c-0.81-0.32-1.52-0.77-2.11-1.35c-0.59-0.58-1.05-1.27-1.39-2.07
		c-0.34-0.8-0.51-1.67-0.51-2.63c0-0.95,0.17-1.82,0.51-2.61s0.8-1.47,1.39-2.04c0.59-0.57,1.29-1.02,2.11-1.34
		c0.81-0.32,1.69-0.48,2.63-0.48c0.94,0,1.81,0.16,2.63,0.48c0.81,0.32,1.52,0.77,2.12,1.34c0.6,0.57,1.07,1.25,1.4,2.04
		S533.9,256.46,533.9,257.42z M531.35,257.43c0-0.59-0.09-1.15-0.27-1.69c-0.18-0.54-0.45-1.01-0.8-1.41s-0.78-0.73-1.29-0.97
		c-0.51-0.24-1.1-0.36-1.76-0.36c-0.66,0-1.25,0.12-1.76,0.36c-0.51,0.24-0.94,0.57-1.29,0.97s-0.61,0.88-0.8,1.41
		c-0.18,0.54-0.27,1.1-0.27,1.69c0,0.59,0.09,1.15,0.27,1.69s0.45,1.01,0.8,1.43c0.35,0.42,0.78,0.74,1.29,0.99s1.1,0.36,1.76,0.36
		c0.66,0,1.25-0.12,1.76-0.36s0.94-0.57,1.29-0.99c0.35-0.41,0.61-0.89,0.8-1.43C531.26,258.58,531.35,258.02,531.35,257.43z"/>
	<path class="st1" d="M549.81,253.28h-3.28v6.4c0,0.74,0.14,1.27,0.42,1.59c0.28,0.32,0.72,0.48,1.33,0.48
		c0.23,0,0.47-0.02,0.73-0.07c0.26-0.05,0.49-0.12,0.7-0.21l0.08,2c-0.29,0.1-0.62,0.19-0.98,0.25c-0.36,0.06-0.72,0.09-1.1,0.09
		c-1.16,0-2.05-0.32-2.67-0.96c-0.62-0.64-0.92-1.6-0.92-2.89v-6.68h-2.37v-2h2.37v-3.54h2.42v3.54h3.28V253.28z"/>
	<path class="st1" d="M554.88,253.15c0.29-0.61,0.8-1.13,1.51-1.56c0.71-0.43,1.51-0.65,2.39-0.65c0.8,0,1.48,0.13,2.05,0.4
		c0.57,0.27,1.05,0.63,1.43,1.08c0.38,0.45,0.66,0.98,0.84,1.59c0.18,0.61,0.27,1.26,0.27,1.95v7.64h-2.44v-6.83
		c0-0.5-0.04-0.98-0.12-1.43s-0.22-0.85-0.43-1.2s-0.49-0.63-0.84-0.83c-0.36-0.21-0.82-0.31-1.39-0.31c-0.97,0-1.77,0.37-2.39,1.11
		c-0.62,0.74-0.94,1.72-0.94,2.96v6.54h-2.44v-19.66h2.44v9.2H554.88z"/>
	<path class="st1" d="M579.04,257.34c0,0.14,0,0.28,0,0.42c0,0.14-0.01,0.28-0.03,0.42h-9.8c0.02,0.52,0.13,1,0.35,1.46
		c0.22,0.46,0.51,0.85,0.87,1.19c0.36,0.34,0.78,0.6,1.26,0.79c0.48,0.19,0.98,0.28,1.52,0.28c0.83,0,1.55-0.18,2.16-0.55
		c0.61-0.36,1.08-0.81,1.43-1.33l1.72,1.38c-0.66,0.87-1.43,1.52-2.33,1.93c-0.89,0.41-1.89,0.62-2.98,0.62
		c-0.94,0-1.8-0.16-2.6-0.47c-0.8-0.31-1.48-0.75-2.05-1.31c-0.57-0.56-1.02-1.24-1.35-2.04s-0.49-1.68-0.49-2.65
		c0-0.95,0.16-1.83,0.48-2.64c0.32-0.81,0.77-1.5,1.34-2.07c0.57-0.57,1.25-1.02,2.03-1.34c0.78-0.32,1.62-0.48,2.53-0.48
		s1.72,0.15,2.46,0.44c0.74,0.29,1.36,0.72,1.88,1.27s0.91,1.23,1.19,2.01C578.9,255.46,579.04,256.35,579.04,257.34z
		 M576.54,256.35c-0.02-0.49-0.1-0.94-0.25-1.37c-0.15-0.42-0.36-0.79-0.65-1.1c-0.29-0.31-0.64-0.56-1.07-0.74
		c-0.42-0.18-0.92-0.27-1.5-0.27c-0.52,0-1.01,0.09-1.47,0.27c-0.46,0.18-0.86,0.43-1.2,0.74s-0.62,0.68-0.83,1.1
		c-0.22,0.43-0.34,0.88-0.38,1.37H576.54z"/>
	<path class="st1" d="M591.13,251.28c0.03,0.31,0.06,0.66,0.08,1.05c0.02,0.39,0.03,0.71,0.03,0.98h0.08
		c0.16-0.33,0.37-0.64,0.64-0.92c0.27-0.29,0.58-0.54,0.92-0.75c0.35-0.22,0.73-0.39,1.14-0.51c0.42-0.12,0.85-0.18,1.3-0.18
		c0.8,0,1.48,0.13,2.05,0.4c0.57,0.27,1.05,0.63,1.43,1.08c0.38,0.45,0.66,0.98,0.84,1.59c0.18,0.61,0.27,1.26,0.27,1.95v7.64h-2.44
		v-6.84c0-0.5-0.04-0.98-0.12-1.43c-0.08-0.45-0.22-0.85-0.43-1.2s-0.49-0.62-0.86-0.83s-0.83-0.31-1.4-0.31
		c-0.97,0-1.76,0.37-2.38,1.1s-0.92,1.72-0.92,2.95v6.55h-2.44v-9.67c0-0.33-0.01-0.75-0.03-1.27c-0.02-0.52-0.04-0.98-0.08-1.38
		H591.13z"/>
	<path class="st1" d="M611.72,255.62c0-0.92-0.28-1.6-0.83-2.04c-0.56-0.44-1.29-0.66-2.21-0.66c-0.69,0-1.35,0.13-1.96,0.4
		c-0.62,0.27-1.13,0.61-1.55,1.03l-1.3-1.56c0.61-0.57,1.35-1.02,2.22-1.35c0.88-0.33,1.82-0.49,2.82-0.49
		c0.88,0,1.65,0.13,2.3,0.38c0.65,0.25,1.18,0.59,1.6,1.03s0.73,0.94,0.94,1.53c0.21,0.59,0.31,1.22,0.31,1.9v5.38
		c0,0.42,0.01,0.85,0.04,1.31c0.03,0.46,0.07,0.84,0.14,1.13h-2.21c-0.14-0.59-0.21-1.18-0.21-1.77h-0.08
		c-0.45,0.66-1.02,1.17-1.7,1.53c-0.68,0.36-1.5,0.55-2.43,0.55c-0.49,0-0.99-0.06-1.52-0.19c-0.53-0.13-1.01-0.34-1.44-0.64
		c-0.43-0.29-0.79-0.68-1.08-1.17s-0.43-1.08-0.43-1.79c0-0.94,0.25-1.68,0.75-2.22c0.5-0.55,1.16-0.96,1.98-1.25
		s1.73-0.47,2.76-0.56c1.02-0.09,2.05-0.13,3.09-0.13V255.62z M611.12,257.73c-0.61,0-1.23,0.03-1.88,0.08
		c-0.65,0.05-1.24,0.16-1.77,0.31c-0.53,0.16-0.97,0.39-1.31,0.7s-0.52,0.73-0.52,1.25c0,0.36,0.07,0.67,0.22,0.91
		s0.34,0.44,0.58,0.6c0.24,0.16,0.51,0.26,0.81,0.32c0.29,0.06,0.6,0.09,0.91,0.09c1.14,0,2.02-0.34,2.64-1.03
		c0.62-0.68,0.92-1.55,0.92-2.59v-0.65H611.12z"/>
	<path class="st1" d="M620.64,256.64h0.08l5.17-5.36h3.28l-5.77,5.59l6.27,6.73h-3.38l-5.56-6.4h-0.08v6.4h-2.44v-19.66h2.44V256.64
		z"/>
	<path class="st1" d="M642.89,257.34c0,0.14,0,0.28,0,0.42c0,0.14-0.01,0.28-0.03,0.42h-9.8c0.02,0.52,0.13,1,0.35,1.46
		c0.22,0.46,0.51,0.85,0.87,1.19c0.36,0.34,0.78,0.6,1.26,0.79c0.48,0.19,0.98,0.28,1.52,0.28c0.83,0,1.55-0.18,2.16-0.55
		c0.61-0.36,1.08-0.81,1.43-1.33l1.72,1.38c-0.66,0.87-1.43,1.52-2.33,1.93c-0.89,0.41-1.89,0.62-2.98,0.62
		c-0.94,0-1.8-0.16-2.6-0.47c-0.8-0.31-1.48-0.75-2.05-1.31c-0.57-0.56-1.02-1.24-1.35-2.04s-0.49-1.68-0.49-2.65
		c0-0.95,0.16-1.83,0.48-2.64c0.32-0.81,0.77-1.5,1.34-2.07c0.57-0.57,1.25-1.02,2.03-1.34c0.78-0.32,1.62-0.48,2.53-0.48
		s1.72,0.15,2.46,0.44c0.74,0.29,1.36,0.72,1.88,1.27s0.91,1.23,1.19,2.01C642.75,255.46,642.89,256.35,642.89,257.34z
		 M640.4,256.35c-0.02-0.49-0.1-0.94-0.25-1.37c-0.15-0.42-0.36-0.79-0.65-1.1c-0.29-0.31-0.64-0.56-1.07-0.74
		c-0.42-0.18-0.92-0.27-1.5-0.27c-0.52,0-1.01,0.09-1.47,0.27c-0.46,0.18-0.86,0.43-1.2,0.74s-0.62,0.68-0.83,1.1
		c-0.22,0.43-0.34,0.88-0.38,1.37H640.4z"/>
	<path class="st1" d="M656.1,261.65c-0.47,0.75-1.1,1.31-1.91,1.7c-0.81,0.39-1.65,0.58-2.54,0.58c-0.95,0-1.81-0.17-2.57-0.51
		s-1.41-0.8-1.95-1.39c-0.54-0.59-0.95-1.28-1.25-2.08c-0.29-0.8-0.44-1.65-0.44-2.55c0-0.9,0.15-1.75,0.44-2.54
		c0.29-0.79,0.71-1.48,1.26-2.07c0.55-0.59,1.2-1.05,1.96-1.38c0.76-0.33,1.6-0.49,2.52-0.49c1,0,1.88,0.21,2.63,0.64
		s1.33,0.94,1.77,1.55h0.05v-9.18h2.44v19.66h-2.37v-1.95H656.1z M647.99,257.43c0,0.57,0.09,1.12,0.26,1.66
		c0.17,0.54,0.43,1.01,0.78,1.43c0.35,0.41,0.77,0.75,1.27,1s1.09,0.38,1.77,0.38c0.62,0,1.19-0.12,1.7-0.36
		c0.51-0.24,0.95-0.57,1.31-0.97s0.65-0.88,0.84-1.41s0.3-1.1,0.3-1.69c0-0.59-0.1-1.15-0.3-1.69s-0.48-1.01-0.84-1.43
		c-0.36-0.41-0.8-0.74-1.31-0.98c-0.51-0.24-1.08-0.36-1.7-0.36c-0.68,0-1.27,0.12-1.77,0.36c-0.5,0.24-0.93,0.57-1.27,0.98
		c-0.35,0.42-0.61,0.89-0.78,1.43C648.08,256.31,647.99,256.86,647.99,257.43z"/>
	<path class="st1" d="M344.01,299.34c0,0.14,0,0.28,0,0.42c0,0.14-0.01,0.28-0.03,0.42h-9.8c0.02,0.52,0.13,1,0.35,1.46
		c0.22,0.46,0.51,0.85,0.87,1.19c0.36,0.34,0.78,0.6,1.26,0.79c0.48,0.19,0.98,0.28,1.52,0.28c0.83,0,1.55-0.18,2.16-0.55
		c0.61-0.36,1.08-0.81,1.43-1.33l1.72,1.38c-0.66,0.87-1.43,1.52-2.33,1.93c-0.89,0.41-1.89,0.62-2.98,0.62
		c-0.94,0-1.8-0.16-2.6-0.47c-0.8-0.31-1.48-0.75-2.05-1.31c-0.57-0.56-1.02-1.24-1.35-2.04s-0.49-1.68-0.49-2.65
		c0-0.95,0.16-1.83,0.48-2.64c0.32-0.81,0.77-1.5,1.34-2.07c0.57-0.57,1.25-1.02,2.03-1.34c0.78-0.32,1.62-0.48,2.53-0.48
		s1.72,0.15,2.46,0.44c0.74,0.29,1.36,0.72,1.88,1.27s0.91,1.23,1.19,2.01C343.87,297.46,344.01,298.35,344.01,299.34z
		 M341.51,298.35c-0.02-0.49-0.1-0.94-0.25-1.37c-0.15-0.42-0.36-0.79-0.65-1.1c-0.29-0.31-0.64-0.56-1.07-0.74
		c-0.42-0.18-0.92-0.27-1.5-0.27c-0.52,0-1.01,0.09-1.47,0.27c-0.46,0.18-0.86,0.43-1.2,0.74s-0.62,0.68-0.83,1.1
		c-0.22,0.43-0.34,0.88-0.38,1.37H341.51z"/>
	<path class="st1" d="M352.07,302.95h0.05l3.41-9.67h2.6l-5.98,15.24c-0.21,0.52-0.43,0.98-0.68,1.39
		c-0.24,0.41-0.53,0.75-0.86,1.04c-0.33,0.29-0.71,0.51-1.16,0.66c-0.44,0.16-0.97,0.23-1.57,0.23c-0.26,0-0.52-0.01-0.79-0.04
		c-0.27-0.03-0.54-0.07-0.82-0.14l0.23-2.16c0.42,0.14,0.82,0.21,1.22,0.21c0.64,0,1.12-0.18,1.43-0.53
		c0.31-0.36,0.6-0.86,0.86-1.52l0.78-2.05l-5.28-12.32h2.73L352.07,302.95z"/>
	<path class="st1" d="M372.01,299.34c0,0.14,0,0.28,0,0.42c0,0.14-0.01,0.28-0.03,0.42h-9.8c0.02,0.52,0.13,1,0.35,1.46
		c0.22,0.46,0.51,0.85,0.87,1.19c0.36,0.34,0.78,0.6,1.26,0.79c0.48,0.19,0.98,0.28,1.52,0.28c0.83,0,1.55-0.18,2.16-0.55
		c0.61-0.36,1.08-0.81,1.43-1.33l1.72,1.38c-0.66,0.87-1.43,1.52-2.33,1.93c-0.89,0.41-1.89,0.62-2.98,0.62
		c-0.94,0-1.8-0.16-2.6-0.47c-0.8-0.31-1.48-0.75-2.05-1.31c-0.57-0.56-1.02-1.24-1.35-2.04s-0.49-1.68-0.49-2.65
		c0-0.95,0.16-1.83,0.48-2.64c0.32-0.81,0.77-1.5,1.34-2.07c0.57-0.57,1.25-1.02,2.03-1.34c0.78-0.32,1.62-0.48,2.53-0.48
		s1.72,0.15,2.46,0.44c0.74,0.29,1.36,0.72,1.88,1.27s0.91,1.23,1.19,2.01C371.87,297.46,372.01,298.35,372.01,299.34z
		 M369.51,298.35c-0.02-0.49-0.1-0.94-0.25-1.37c-0.15-0.42-0.36-0.79-0.65-1.1c-0.29-0.31-0.64-0.56-1.07-0.74
		c-0.42-0.18-0.92-0.27-1.5-0.27c-0.52,0-1.01,0.09-1.47,0.27c-0.46,0.18-0.86,0.43-1.2,0.74s-0.62,0.68-0.83,1.1
		c-0.22,0.43-0.34,0.88-0.38,1.37H369.51z"/>
	<path class="st1" d="M378.4,304.04c0,0.45-0.17,0.85-0.49,1.2s-0.75,0.52-1.25,0.52c-0.49,0-0.9-0.17-1.24-0.51
		c-0.34-0.34-0.51-0.73-0.51-1.18c0-0.47,0.17-0.87,0.49-1.21c0.33-0.34,0.75-0.51,1.25-0.51s0.92,0.17,1.25,0.49
		S378.4,303.58,378.4,304.04z"/>
	<path class="st1" d="M390.57,303.32h8.22v2.29H388V287.2h2.57V303.32z"/>
	<path class="st1" d="M409.52,305.6c-0.04-0.31-0.06-0.66-0.08-1.05c-0.02-0.39-0.03-0.71-0.03-0.97h-0.05
		c-0.31,0.66-0.84,1.22-1.57,1.68c-0.74,0.46-1.56,0.69-2.46,0.69c-0.8,0-1.49-0.13-2.07-0.39c-0.58-0.26-1.06-0.62-1.43-1.08
		c-0.37-0.46-0.65-0.99-0.83-1.6c-0.18-0.61-0.27-1.26-0.27-1.95v-7.64h2.44v6.81c0,0.5,0.04,0.98,0.12,1.44
		c0.08,0.46,0.22,0.86,0.43,1.21s0.49,0.62,0.86,0.83c0.36,0.21,0.83,0.31,1.4,0.31c0.99,0,1.79-0.37,2.39-1.1
		c0.61-0.74,0.91-1.72,0.91-2.95v-6.55h2.44v9.67c0,0.33,0.01,0.75,0.03,1.27c0.02,0.52,0.04,0.98,0.08,1.38H409.52z"/>
	<path class="st1" d="M419.86,293.63c0.68-0.46,1.5-0.69,2.43-0.69c0.83,0,1.58,0.19,2.25,0.57s1.19,1.01,1.57,1.9
		c0.42-0.8,1-1.41,1.74-1.83c0.75-0.42,1.56-0.64,2.44-0.64c0.8,0,1.48,0.13,2.05,0.4c0.57,0.27,1.05,0.63,1.43,1.08
		c0.38,0.45,0.66,0.98,0.84,1.59c0.18,0.61,0.27,1.26,0.27,1.95v7.64h-2.44v-6.84c0-0.5-0.04-0.98-0.13-1.43
		c-0.09-0.45-0.23-0.85-0.44-1.2s-0.49-0.62-0.83-0.83s-0.79-0.31-1.33-0.31c-0.56,0-1.03,0.12-1.43,0.35
		c-0.4,0.23-0.72,0.54-0.97,0.91c-0.25,0.37-0.43,0.79-0.55,1.26c-0.11,0.47-0.17,0.94-0.17,1.43v6.66h-2.44v-7.33
		c0-0.48-0.04-0.93-0.13-1.33c-0.09-0.4-0.23-0.74-0.44-1.03s-0.48-0.51-0.81-0.68s-0.74-0.25-1.22-0.25c-0.9,0-1.65,0.37-2.25,1.1
		c-0.6,0.74-0.9,1.72-0.9,2.95v6.55h-2.44v-9.67c0-0.33-0.01-0.75-0.03-1.27c-0.02-0.52-0.04-0.98-0.08-1.38h2.31
		c0.03,0.31,0.06,0.66,0.08,1.05c0.02,0.39,0.03,0.71,0.03,0.98h0.08C418.68,294.65,419.17,294.09,419.86,293.63z"/>
	<path class="st1" d="M441.89,288.83c0,0.45-0.16,0.82-0.48,1.12c-0.32,0.29-0.7,0.44-1.15,0.44c-0.45,0-0.83-0.15-1.13-0.46
		c-0.31-0.3-0.46-0.67-0.46-1.1c0-0.45,0.15-0.83,0.46-1.13s0.69-0.46,1.13-0.46c0.45,0,0.83,0.15,1.15,0.46
		C441.73,288.01,441.89,288.38,441.89,288.83z M441.5,305.6h-2.44v-12.32h2.44V305.6z"/>
	<path class="st1" d="M447.98,293.28c0.03,0.31,0.06,0.66,0.08,1.05c0.02,0.39,0.03,0.71,0.03,0.98h0.08
		c0.16-0.33,0.37-0.64,0.64-0.92c0.27-0.29,0.58-0.54,0.92-0.75c0.35-0.22,0.73-0.39,1.14-0.51c0.42-0.12,0.85-0.18,1.3-0.18
		c0.8,0,1.48,0.13,2.05,0.4c0.57,0.27,1.05,0.63,1.43,1.08c0.38,0.45,0.66,0.98,0.84,1.59c0.18,0.61,0.27,1.26,0.27,1.95v7.64h-2.44
		v-6.84c0-0.5-0.04-0.98-0.12-1.43c-0.08-0.45-0.22-0.85-0.43-1.2s-0.49-0.62-0.86-0.83s-0.83-0.31-1.4-0.31
		c-0.97,0-1.76,0.37-2.38,1.1s-0.92,1.72-0.92,2.95v6.55h-2.44v-9.67c0-0.33-0.01-0.75-0.03-1.27c-0.02-0.52-0.04-0.98-0.08-1.38
		H447.98z"/>
	<path class="st1" d="M473.38,299.42c0,0.95-0.17,1.83-0.51,2.63c-0.34,0.8-0.81,1.49-1.4,2.07c-0.6,0.58-1.3,1.03-2.12,1.35
		c-0.81,0.32-1.69,0.48-2.63,0.48c-0.94,0-1.81-0.16-2.63-0.48c-0.81-0.32-1.52-0.77-2.11-1.35c-0.59-0.58-1.05-1.27-1.39-2.07
		c-0.34-0.8-0.51-1.67-0.51-2.63c0-0.95,0.17-1.82,0.51-2.61s0.8-1.47,1.39-2.04c0.59-0.57,1.29-1.02,2.11-1.34
		c0.81-0.32,1.69-0.48,2.63-0.48c0.94,0,1.81,0.16,2.63,0.48c0.81,0.32,1.52,0.77,2.12,1.34c0.6,0.57,1.07,1.25,1.4,2.04
		S473.38,298.46,473.38,299.42z M470.83,299.43c0-0.59-0.09-1.15-0.27-1.69c-0.18-0.54-0.45-1.01-0.8-1.41s-0.78-0.73-1.29-0.97
		c-0.51-0.24-1.1-0.36-1.76-0.36c-0.66,0-1.25,0.12-1.76,0.36c-0.51,0.24-0.94,0.57-1.29,0.97s-0.61,0.88-0.8,1.41
		c-0.18,0.54-0.27,1.1-0.27,1.69c0,0.59,0.09,1.15,0.27,1.69s0.45,1.01,0.8,1.43c0.35,0.42,0.78,0.74,1.29,0.99s1.1,0.36,1.76,0.36
		c0.66,0,1.25-0.12,1.76-0.36s0.94-0.57,1.29-0.99c0.35-0.41,0.61-0.89,0.8-1.43C470.74,300.58,470.83,300.02,470.83,299.43z"/>
	<path class="st1" d="M480.65,293.63c0.68-0.46,1.5-0.69,2.43-0.69c0.83,0,1.58,0.19,2.25,0.57s1.19,1.01,1.57,1.9
		c0.42-0.8,1-1.41,1.74-1.83c0.75-0.42,1.56-0.64,2.44-0.64c0.8,0,1.48,0.13,2.05,0.4c0.57,0.27,1.05,0.63,1.43,1.08
		c0.38,0.45,0.66,0.98,0.84,1.59c0.18,0.61,0.27,1.26,0.27,1.95v7.64h-2.44v-6.84c0-0.5-0.04-0.98-0.13-1.43
		c-0.09-0.45-0.23-0.85-0.44-1.2s-0.49-0.62-0.83-0.83s-0.79-0.31-1.33-0.31c-0.56,0-1.03,0.12-1.43,0.35
		c-0.4,0.23-0.72,0.54-0.97,0.91c-0.25,0.37-0.43,0.79-0.55,1.26c-0.11,0.47-0.17,0.94-0.17,1.43v6.66h-2.44v-7.33
		c0-0.48-0.04-0.93-0.13-1.33c-0.09-0.4-0.23-0.74-0.44-1.03s-0.48-0.51-0.81-0.68s-0.74-0.25-1.22-0.25c-0.9,0-1.65,0.37-2.25,1.1
		c-0.6,0.74-0.9,1.72-0.9,2.95v6.55h-2.44v-9.67c0-0.33-0.01-0.75-0.03-1.27c-0.02-0.52-0.04-0.98-0.08-1.38h2.31
		c0.03,0.31,0.06,0.66,0.08,1.05c0.02,0.39,0.03,0.71,0.03,0.98h0.08C479.46,294.65,479.96,294.09,480.65,293.63z"/>
	<path class="st1" d="M511.34,299.34c0,0.14,0,0.28,0,0.42c0,0.14-0.01,0.28-0.03,0.42h-9.8c0.02,0.52,0.13,1,0.35,1.46
		c0.22,0.46,0.51,0.85,0.87,1.19c0.36,0.34,0.78,0.6,1.26,0.79c0.48,0.19,0.98,0.28,1.52,0.28c0.83,0,1.55-0.18,2.16-0.55
		c0.61-0.36,1.08-0.81,1.43-1.33l1.72,1.38c-0.66,0.87-1.43,1.52-2.33,1.93c-0.89,0.41-1.89,0.62-2.98,0.62
		c-0.94,0-1.8-0.16-2.6-0.47c-0.8-0.31-1.48-0.75-2.05-1.31c-0.57-0.56-1.02-1.24-1.35-2.04s-0.49-1.68-0.49-2.65
		c0-0.95,0.16-1.83,0.48-2.64c0.32-0.81,0.77-1.5,1.34-2.07c0.57-0.57,1.25-1.02,2.03-1.34c0.78-0.32,1.62-0.48,2.53-0.48
		s1.72,0.15,2.46,0.44c0.74,0.29,1.36,0.72,1.88,1.27s0.91,1.23,1.19,2.01C511.2,297.46,511.34,298.35,511.34,299.34z
		 M508.84,298.35c-0.02-0.49-0.1-0.94-0.25-1.37c-0.15-0.42-0.36-0.79-0.65-1.1c-0.29-0.31-0.64-0.56-1.07-0.74
		c-0.42-0.18-0.92-0.27-1.5-0.27c-0.52,0-1.01,0.09-1.47,0.27c-0.46,0.18-0.86,0.43-1.2,0.74s-0.62,0.68-0.83,1.1
		c-0.22,0.43-0.34,0.88-0.38,1.37H508.84z"/>
	<path class="st1" d="M520.75,295.28h-3.28v6.4c0,0.74,0.14,1.27,0.42,1.59c0.28,0.32,0.72,0.48,1.33,0.48
		c0.23,0,0.47-0.02,0.73-0.07c0.26-0.05,0.49-0.12,0.7-0.21l0.08,2c-0.29,0.1-0.62,0.19-0.98,0.25c-0.36,0.06-0.72,0.09-1.1,0.09
		c-1.16,0-2.05-0.32-2.67-0.96c-0.62-0.64-0.92-1.6-0.92-2.89v-6.68h-2.37v-2h2.37v-3.54h2.42v3.54h3.28V295.28z"/>
	<path class="st1" d="M534.79,299.34c0,0.14,0,0.28,0,0.42c0,0.14-0.01,0.28-0.03,0.42h-9.8c0.02,0.52,0.13,1,0.35,1.46
		c0.22,0.46,0.51,0.85,0.87,1.19c0.36,0.34,0.78,0.6,1.26,0.79c0.48,0.19,0.98,0.28,1.52,0.28c0.83,0,1.55-0.18,2.16-0.55
		c0.61-0.36,1.08-0.81,1.43-1.33l1.72,1.38c-0.66,0.87-1.43,1.52-2.33,1.93c-0.89,0.41-1.89,0.62-2.98,0.62
		c-0.94,0-1.8-0.16-2.6-0.47c-0.8-0.31-1.48-0.75-2.05-1.31c-0.57-0.56-1.02-1.24-1.35-2.04s-0.49-1.68-0.49-2.65
		c0-0.95,0.16-1.83,0.48-2.64c0.32-0.81,0.77-1.5,1.34-2.07c0.57-0.57,1.25-1.02,2.03-1.34c0.78-0.32,1.62-0.48,2.53-0.48
		s1.72,0.15,2.46,0.44c0.74,0.29,1.36,0.72,1.88,1.27s0.91,1.23,1.19,2.01C534.65,297.46,534.79,298.35,534.79,299.34z
		 M532.29,298.35c-0.02-0.49-0.1-0.94-0.25-1.37c-0.15-0.42-0.36-0.79-0.65-1.1c-0.29-0.31-0.64-0.56-1.07-0.74
		c-0.42-0.18-0.92-0.27-1.5-0.27c-0.52,0-1.01,0.09-1.47,0.27c-0.46,0.18-0.86,0.43-1.2,0.74s-0.62,0.68-0.83,1.1
		c-0.22,0.43-0.34,0.88-0.38,1.37H532.29z"/>
	<path class="st1" d="M538.14,294.66c-0.02-0.52-0.04-0.98-0.08-1.38h2.31c0.03,0.31,0.06,0.67,0.08,1.08
		c0.02,0.41,0.03,0.74,0.03,1h0.08c0.35-0.73,0.85-1.31,1.52-1.75c0.67-0.44,1.42-0.66,2.25-0.66c0.38,0,0.7,0.04,0.96,0.1
		l-0.1,2.26c-0.35-0.09-0.72-0.13-1.12-0.13c-0.59,0-1.1,0.11-1.53,0.32c-0.43,0.22-0.79,0.51-1.08,0.87
		c-0.29,0.36-0.5,0.78-0.64,1.26c-0.14,0.48-0.21,0.98-0.21,1.5v6.47h-2.44v-9.67C538.17,295.6,538.16,295.18,538.14,294.66z"/>
	<path class="st1" d="M560.11,295.28h-3.28v6.4c0,0.74,0.14,1.27,0.42,1.59c0.28,0.32,0.72,0.48,1.33,0.48
		c0.23,0,0.47-0.02,0.73-0.07c0.26-0.05,0.49-0.12,0.7-0.21l0.08,2c-0.29,0.1-0.62,0.19-0.98,0.25c-0.36,0.06-0.72,0.09-1.1,0.09
		c-1.16,0-2.05-0.32-2.67-0.96c-0.62-0.64-0.92-1.6-0.92-2.89v-6.68h-2.37v-2h2.37v-3.54h2.42v3.54h3.28V295.28z"/>
	<path class="st1" d="M574.15,299.34c0,0.14,0,0.28,0,0.42c0,0.14-0.01,0.28-0.03,0.42h-9.8c0.02,0.52,0.13,1,0.35,1.46
		c0.22,0.46,0.51,0.85,0.87,1.19c0.36,0.34,0.78,0.6,1.26,0.79c0.48,0.19,0.98,0.28,1.52,0.28c0.83,0,1.55-0.18,2.16-0.55
		c0.61-0.36,1.08-0.81,1.43-1.33l1.72,1.38c-0.66,0.87-1.43,1.52-2.33,1.93c-0.89,0.41-1.89,0.62-2.98,0.62
		c-0.94,0-1.8-0.16-2.6-0.47c-0.8-0.31-1.48-0.75-2.05-1.31c-0.57-0.56-1.02-1.24-1.35-2.04s-0.49-1.68-0.49-2.65
		c0-0.95,0.16-1.83,0.48-2.64c0.32-0.81,0.77-1.5,1.34-2.07c0.57-0.57,1.25-1.02,2.03-1.34c0.78-0.32,1.62-0.48,2.53-0.48
		s1.72,0.15,2.46,0.44c0.74,0.29,1.36,0.72,1.88,1.27s0.91,1.23,1.19,2.01C574.01,297.46,574.15,298.35,574.15,299.34z
		 M571.66,298.35c-0.02-0.49-0.1-0.94-0.25-1.37c-0.15-0.42-0.36-0.79-0.65-1.1c-0.29-0.31-0.64-0.56-1.07-0.74
		c-0.42-0.18-0.92-0.27-1.5-0.27c-0.52,0-1.01,0.09-1.47,0.27c-0.46,0.18-0.86,0.43-1.2,0.74s-0.62,0.68-0.83,1.1
		c-0.22,0.43-0.34,0.88-0.38,1.37H571.66z"/>
	<path class="st1" d="M584.19,296.4c-0.28-0.45-0.67-0.82-1.17-1.1s-1.07-0.43-1.69-0.43c-0.28,0-0.56,0.03-0.83,0.09
		c-0.28,0.06-0.52,0.16-0.74,0.29c-0.22,0.13-0.39,0.29-0.52,0.49c-0.13,0.2-0.19,0.45-0.19,0.74c0,0.52,0.23,0.91,0.7,1.16
		c0.47,0.25,1.17,0.48,2.11,0.69c0.59,0.14,1.13,0.3,1.64,0.49c0.5,0.19,0.94,0.43,1.31,0.72c0.37,0.29,0.66,0.63,0.87,1.03
		c0.21,0.4,0.31,0.87,0.31,1.4c0,0.73-0.14,1.34-0.42,1.85c-0.28,0.5-0.65,0.91-1.1,1.23c-0.46,0.32-0.98,0.55-1.57,0.69
		c-0.59,0.14-1.2,0.21-1.82,0.21c-0.94,0-1.85-0.18-2.74-0.55c-0.89-0.36-1.63-0.92-2.22-1.66l1.74-1.48
		c0.33,0.49,0.78,0.89,1.37,1.22c0.58,0.33,1.22,0.49,1.91,0.49c0.31,0,0.61-0.03,0.9-0.09c0.29-0.06,0.55-0.16,0.78-0.3
		s0.42-0.32,0.56-0.55c0.14-0.22,0.21-0.51,0.21-0.86c0-0.57-0.27-1-0.82-1.27c-0.55-0.28-1.35-0.54-2.41-0.78
		c-0.42-0.1-0.84-0.23-1.26-0.38c-0.42-0.15-0.81-0.35-1.16-0.61c-0.35-0.26-0.63-0.58-0.84-0.98c-0.22-0.39-0.33-0.87-0.33-1.44
		c0-0.66,0.13-1.23,0.4-1.7c0.27-0.48,0.62-0.87,1.05-1.17c0.43-0.3,0.93-0.53,1.48-0.68c0.55-0.15,1.13-0.22,1.72-0.22
		c0.88,0,1.74,0.17,2.56,0.52c0.82,0.35,1.46,0.85,1.91,1.51L584.19,296.4z"/>
	<path class="st1" d="M595.11,295.28h-3.28v6.4c0,0.74,0.14,1.27,0.42,1.59c0.28,0.32,0.72,0.48,1.33,0.48
		c0.23,0,0.47-0.02,0.73-0.07c0.26-0.05,0.49-0.12,0.7-0.21l0.08,2c-0.29,0.1-0.62,0.19-0.98,0.25c-0.36,0.06-0.72,0.09-1.1,0.09
		c-1.16,0-2.05-0.32-2.67-0.96c-0.62-0.64-0.92-1.6-0.92-2.89v-6.68h-2.37v-2h2.37v-3.54h2.42v3.54h3.28V295.28z"/>
	<path class="st1" d="M600.49,288.83c0,0.45-0.16,0.82-0.48,1.12c-0.32,0.29-0.7,0.44-1.15,0.44c-0.45,0-0.83-0.15-1.13-0.46
		c-0.31-0.3-0.46-0.67-0.46-1.1c0-0.45,0.15-0.83,0.46-1.13s0.69-0.46,1.13-0.46c0.45,0,0.83,0.15,1.15,0.46
		C600.33,288.01,600.49,288.38,600.49,288.83z M600.1,305.6h-2.44v-12.32h2.44V305.6z"/>
	<path class="st1" d="M606.57,293.28c0.03,0.31,0.06,0.66,0.08,1.05c0.02,0.39,0.03,0.71,0.03,0.98h0.08
		c0.16-0.33,0.37-0.64,0.64-0.92c0.27-0.29,0.58-0.54,0.92-0.75c0.35-0.22,0.73-0.39,1.14-0.51c0.42-0.12,0.85-0.18,1.3-0.18
		c0.8,0,1.48,0.13,2.05,0.4c0.57,0.27,1.05,0.63,1.43,1.08c0.38,0.45,0.66,0.98,0.84,1.59c0.18,0.61,0.27,1.26,0.27,1.95v7.64h-2.44
		v-6.84c0-0.5-0.04-0.98-0.12-1.43c-0.08-0.45-0.22-0.85-0.43-1.2s-0.49-0.62-0.86-0.83s-0.83-0.31-1.4-0.31
		c-0.97,0-1.76,0.37-2.38,1.1s-0.92,1.72-0.92,2.95v6.55h-2.44v-9.67c0-0.33-0.01-0.75-0.03-1.27c-0.02-0.52-0.04-0.98-0.08-1.38
		H606.57z"/>
	<path class="st1" d="M620.46,307.71c0.54,0.61,1.21,1.09,2.01,1.46s1.63,0.55,2.48,0.55c0.81,0,1.5-0.12,2.05-0.35
		c0.55-0.23,1-0.55,1.34-0.96s0.58-0.89,0.73-1.44c0.15-0.56,0.22-1.15,0.22-1.79v-1.59h-0.05c-0.45,0.69-1.07,1.22-1.85,1.59
		c-0.78,0.36-1.61,0.55-2.5,0.55c-0.94,0-1.79-0.16-2.56-0.49c-0.77-0.33-1.43-0.78-1.96-1.35c-0.54-0.57-0.95-1.24-1.25-2.01
		c-0.29-0.77-0.44-1.6-0.44-2.48c0-0.88,0.15-1.72,0.44-2.5c0.29-0.78,0.71-1.46,1.25-2.04c0.54-0.58,1.19-1.04,1.95-1.38
		c0.76-0.34,1.61-0.51,2.55-0.51c0.88,0,1.73,0.19,2.54,0.57c0.81,0.38,1.44,0.96,1.91,1.74h0.05v-1.98h2.37v11.7
		c0,0.9-0.11,1.76-0.34,2.59s-0.61,1.55-1.14,2.18c-0.54,0.63-1.24,1.14-2.11,1.52c-0.87,0.38-1.94,0.57-3.22,0.57
		c-1.08,0-2.15-0.2-3.24-0.59c-1.08-0.39-2.01-0.94-2.79-1.65L620.46,307.71z M621.18,299.31c0,0.57,0.09,1.12,0.27,1.64
		s0.45,0.98,0.81,1.38c0.36,0.4,0.79,0.72,1.29,0.96c0.5,0.24,1.08,0.36,1.72,0.36c0.63,0,1.2-0.11,1.72-0.34
		c0.52-0.23,0.96-0.53,1.33-0.92s0.65-0.85,0.85-1.38c0.2-0.53,0.3-1.1,0.3-1.7c0-0.59-0.1-1.14-0.3-1.66
		c-0.2-0.52-0.49-0.98-0.86-1.38c-0.37-0.4-0.82-0.71-1.33-0.95c-0.51-0.23-1.08-0.35-1.71-0.35c-0.64,0-1.22,0.12-1.72,0.35
		c-0.5,0.23-0.93,0.55-1.29,0.94c-0.36,0.39-0.63,0.85-0.81,1.38C621.28,298.16,621.18,298.72,621.18,299.31z"/>
	<path class="st1" d="M334.93,353.84h-2.44v-18.56h2.39v1.92h0.08c0.4-0.66,0.98-1.2,1.75-1.62s1.66-0.64,2.68-0.64
		c0.92,0,1.75,0.17,2.5,0.49c0.75,0.33,1.4,0.79,1.95,1.38c0.54,0.59,0.96,1.28,1.26,2.07c0.29,0.79,0.44,1.63,0.44,2.54
		c0,0.9-0.15,1.75-0.44,2.55c-0.29,0.8-0.71,1.49-1.25,2.08c-0.54,0.59-1.18,1.05-1.94,1.39c-0.76,0.34-1.62,0.51-2.57,0.51
		c-0.88,0-1.71-0.19-2.49-0.57c-0.78-0.38-1.39-0.92-1.84-1.61h-0.08V353.84z M343.04,341.42c0-0.57-0.09-1.13-0.26-1.66
		c-0.17-0.54-0.43-1.01-0.78-1.43s-0.78-0.74-1.29-0.99c-0.51-0.24-1.1-0.36-1.78-0.36c-0.62,0-1.19,0.12-1.7,0.36
		c-0.51,0.24-0.95,0.57-1.31,0.99s-0.65,0.89-0.84,1.43c-0.2,0.54-0.3,1.1-0.3,1.69c0,0.59,0.1,1.15,0.3,1.69
		c0.2,0.54,0.48,1.01,0.84,1.42c0.36,0.41,0.8,0.73,1.31,0.98c0.51,0.24,1.08,0.36,1.7,0.36c0.68,0,1.27-0.13,1.78-0.38
		c0.51-0.25,0.94-0.59,1.29-1c0.35-0.42,0.61-0.89,0.78-1.43C342.96,342.54,343.04,341.99,343.04,341.42z"/>
	<path class="st1" d="M348.56,336.66c-0.02-0.52-0.04-0.98-0.08-1.38h2.31c0.03,0.31,0.06,0.67,0.08,1.08
		c0.02,0.41,0.03,0.74,0.03,1h0.08c0.35-0.73,0.85-1.31,1.52-1.75c0.67-0.44,1.42-0.66,2.25-0.66c0.38,0,0.7,0.04,0.96,0.1
		l-0.1,2.26c-0.35-0.09-0.72-0.13-1.12-0.13c-0.59,0-1.1,0.11-1.53,0.32c-0.43,0.22-0.79,0.51-1.08,0.87
		c-0.29,0.36-0.5,0.78-0.64,1.26c-0.14,0.48-0.21,0.98-0.21,1.5v6.47h-2.44v-9.67C348.58,337.6,348.57,337.18,348.56,336.66z"/>
	<path class="st1" d="M369.62,341.42c0,0.95-0.17,1.83-0.51,2.63c-0.34,0.8-0.81,1.49-1.4,2.07c-0.6,0.58-1.3,1.03-2.12,1.35
		c-0.81,0.32-1.69,0.48-2.63,0.48c-0.94,0-1.81-0.16-2.63-0.48c-0.81-0.32-1.52-0.77-2.11-1.35c-0.59-0.58-1.05-1.27-1.39-2.07
		c-0.34-0.8-0.51-1.67-0.51-2.63c0-0.95,0.17-1.82,0.51-2.61s0.8-1.47,1.39-2.04c0.59-0.57,1.29-1.02,2.11-1.34
		c0.81-0.32,1.69-0.48,2.63-0.48c0.94,0,1.81,0.16,2.63,0.48c0.81,0.32,1.52,0.77,2.12,1.34c0.6,0.57,1.07,1.25,1.4,2.04
		S369.62,340.46,369.62,341.42z M367.07,341.43c0-0.59-0.09-1.15-0.27-1.69c-0.18-0.54-0.45-1.01-0.8-1.41s-0.78-0.73-1.29-0.97
		c-0.51-0.24-1.1-0.36-1.76-0.36c-0.66,0-1.25,0.12-1.76,0.36c-0.51,0.24-0.94,0.57-1.29,0.97s-0.61,0.88-0.8,1.41
		c-0.18,0.54-0.27,1.1-0.27,1.69c0,0.59,0.09,1.15,0.27,1.69s0.45,1.01,0.8,1.43c0.35,0.42,0.78,0.74,1.29,0.99s1.1,0.36,1.76,0.36
		c0.66,0,1.25-0.12,1.76-0.36s0.94-0.57,1.29-0.99c0.35-0.41,0.61-0.89,0.8-1.43C366.98,342.58,367.07,342.02,367.07,341.43z"/>
	<path class="st1" d="M378.4,347.6h-2.65l-5.02-12.32h2.7l3.61,9.7h0.05l3.64-9.7h2.6L378.4,347.6z"/>
	<path class="st1" d="M396.84,341.34c0,0.14,0,0.28,0,0.42c0,0.14-0.01,0.28-0.03,0.42h-9.8c0.02,0.52,0.13,1,0.35,1.46
		c0.22,0.46,0.51,0.85,0.87,1.19c0.36,0.34,0.78,0.6,1.26,0.79c0.48,0.19,0.98,0.28,1.52,0.28c0.83,0,1.55-0.18,2.16-0.55
		c0.61-0.36,1.08-0.81,1.43-1.33l1.72,1.38c-0.66,0.87-1.43,1.52-2.33,1.93c-0.89,0.41-1.89,0.62-2.98,0.62
		c-0.94,0-1.8-0.16-2.6-0.47c-0.8-0.31-1.48-0.75-2.05-1.31c-0.57-0.56-1.02-1.24-1.35-2.04s-0.49-1.68-0.49-2.65
		c0-0.95,0.16-1.83,0.48-2.64c0.32-0.81,0.77-1.5,1.34-2.07c0.57-0.57,1.25-1.02,2.03-1.34c0.78-0.32,1.62-0.48,2.53-0.48
		s1.72,0.15,2.46,0.44c0.74,0.29,1.36,0.72,1.88,1.27s0.91,1.23,1.19,2.01C396.7,339.46,396.84,340.35,396.84,341.34z
		 M394.34,340.35c-0.02-0.49-0.1-0.94-0.25-1.37c-0.15-0.42-0.36-0.79-0.65-1.1c-0.29-0.31-0.64-0.56-1.07-0.74
		c-0.42-0.18-0.92-0.27-1.5-0.27c-0.52,0-1.01,0.09-1.47,0.27c-0.46,0.18-0.86,0.43-1.2,0.74s-0.62,0.68-0.83,1.1
		c-0.22,0.43-0.34,0.88-0.38,1.37H394.34z"/>
	<path class="st1" d="M406.48,338.4c-0.28-0.45-0.67-0.82-1.17-1.1s-1.07-0.43-1.69-0.43c-0.28,0-0.56,0.03-0.83,0.09
		c-0.28,0.06-0.52,0.16-0.74,0.29c-0.22,0.13-0.39,0.29-0.52,0.49c-0.13,0.2-0.19,0.45-0.19,0.74c0,0.52,0.23,0.91,0.7,1.16
		c0.47,0.25,1.17,0.48,2.11,0.69c0.59,0.14,1.13,0.3,1.64,0.49c0.5,0.19,0.94,0.43,1.31,0.72c0.37,0.29,0.66,0.63,0.87,1.03
		c0.21,0.4,0.31,0.87,0.31,1.4c0,0.73-0.14,1.34-0.42,1.85c-0.28,0.5-0.65,0.91-1.1,1.23c-0.46,0.32-0.98,0.55-1.57,0.69
		c-0.59,0.14-1.2,0.21-1.82,0.21c-0.94,0-1.85-0.18-2.74-0.55c-0.89-0.36-1.63-0.92-2.22-1.66l1.74-1.48
		c0.33,0.49,0.78,0.89,1.37,1.22c0.58,0.33,1.22,0.49,1.91,0.49c0.31,0,0.61-0.03,0.9-0.09c0.29-0.06,0.55-0.16,0.78-0.3
		s0.42-0.32,0.56-0.55c0.14-0.22,0.21-0.51,0.21-0.86c0-0.57-0.27-1-0.82-1.27c-0.55-0.28-1.35-0.54-2.41-0.78
		c-0.42-0.1-0.84-0.23-1.26-0.38c-0.42-0.15-0.81-0.35-1.16-0.61c-0.35-0.26-0.63-0.58-0.84-0.98c-0.22-0.39-0.33-0.87-0.33-1.44
		c0-0.66,0.13-1.23,0.4-1.7c0.27-0.48,0.62-0.87,1.05-1.17c0.43-0.3,0.93-0.53,1.48-0.68c0.55-0.15,1.13-0.22,1.72-0.22
		c0.88,0,1.74,0.17,2.56,0.52c0.82,0.35,1.46,0.85,1.91,1.51L406.48,338.4z"/>
	<path class="st1" d="M423.12,337.28h-3.28v6.4c0,0.74,0.14,1.27,0.42,1.59c0.28,0.32,0.72,0.48,1.33,0.48
		c0.23,0,0.47-0.02,0.73-0.07c0.26-0.05,0.49-0.12,0.7-0.21l0.08,2c-0.29,0.1-0.62,0.19-0.98,0.25c-0.36,0.06-0.72,0.09-1.1,0.09
		c-1.16,0-2.05-0.32-2.67-0.96c-0.62-0.64-0.92-1.6-0.92-2.89v-6.68h-2.37v-2h2.37v-3.54h2.42v3.54h3.28V337.28z"/>
	<path class="st1" d="M427.8,337.15c0.29-0.61,0.8-1.13,1.51-1.56c0.71-0.43,1.51-0.65,2.39-0.65c0.8,0,1.48,0.13,2.05,0.4
		c0.57,0.27,1.05,0.63,1.43,1.08c0.38,0.45,0.66,0.98,0.84,1.59c0.18,0.61,0.27,1.26,0.27,1.95v7.64h-2.44v-6.83
		c0-0.5-0.04-0.98-0.12-1.43s-0.22-0.85-0.43-1.2s-0.49-0.63-0.84-0.83c-0.36-0.21-0.82-0.31-1.39-0.31c-0.97,0-1.77,0.37-2.39,1.11
		c-0.62,0.74-0.94,1.72-0.94,2.96v6.54h-2.44v-19.66h2.44v9.2H427.8z"/>
	<path class="st1" d="M447.72,339.62c0-0.92-0.28-1.6-0.83-2.04c-0.56-0.44-1.29-0.66-2.21-0.66c-0.69,0-1.35,0.13-1.96,0.4
		c-0.62,0.27-1.13,0.61-1.55,1.03l-1.3-1.56c0.61-0.57,1.35-1.02,2.22-1.35c0.88-0.33,1.82-0.49,2.82-0.49
		c0.88,0,1.65,0.13,2.3,0.38c0.65,0.25,1.18,0.59,1.6,1.03s0.73,0.94,0.94,1.53c0.21,0.59,0.31,1.22,0.31,1.9v5.38
		c0,0.42,0.01,0.85,0.04,1.31c0.03,0.46,0.07,0.84,0.14,1.13h-2.21c-0.14-0.59-0.21-1.18-0.21-1.77h-0.08
		c-0.45,0.66-1.02,1.17-1.7,1.53c-0.68,0.36-1.5,0.55-2.43,0.55c-0.49,0-0.99-0.06-1.52-0.19c-0.53-0.13-1.01-0.34-1.44-0.64
		c-0.43-0.29-0.79-0.68-1.08-1.17s-0.43-1.08-0.43-1.79c0-0.94,0.25-1.68,0.75-2.22c0.5-0.55,1.16-0.96,1.98-1.25
		s1.73-0.47,2.76-0.56c1.02-0.09,2.05-0.13,3.09-0.13V339.62z M447.12,341.73c-0.61,0-1.23,0.03-1.88,0.08
		c-0.65,0.05-1.24,0.16-1.77,0.31c-0.53,0.16-0.97,0.39-1.31,0.7s-0.52,0.73-0.52,1.25c0,0.36,0.07,0.67,0.22,0.91
		s0.34,0.44,0.58,0.6c0.24,0.16,0.51,0.26,0.81,0.32c0.29,0.06,0.6,0.09,0.91,0.09c1.14,0,2.02-0.34,2.64-1.03
		c0.62-0.68,0.92-1.55,0.92-2.59v-0.65H447.12z"/>
	<path class="st1" d="M459.52,337.28h-3.28v6.4c0,0.74,0.14,1.27,0.42,1.59c0.28,0.32,0.72,0.48,1.33,0.48
		c0.23,0,0.47-0.02,0.73-0.07c0.26-0.05,0.49-0.12,0.7-0.21l0.08,2c-0.29,0.1-0.62,0.19-0.98,0.25c-0.36,0.06-0.72,0.09-1.1,0.09
		c-1.16,0-2.05-0.32-2.67-0.96c-0.62-0.64-0.92-1.6-0.92-2.89v-6.68h-2.37v-2h2.37v-3.54h2.42v3.54h3.28V337.28z"/>
	<path class="st1" d="M467.9,329.2h5.62c0.99,0,1.89,0.1,2.7,0.3s1.51,0.51,2.08,0.92c0.57,0.42,1.01,0.94,1.33,1.59
		c0.31,0.64,0.47,1.41,0.47,2.31c0,0.92-0.17,1.71-0.51,2.37s-0.81,1.2-1.4,1.61c-0.6,0.42-1.31,0.72-2.13,0.92s-1.71,0.3-2.67,0.3
		h-2.91v8.09h-2.57V329.2z M470.47,337.33h2.73c0.62,0,1.2-0.06,1.73-0.17c0.53-0.11,0.98-0.29,1.37-0.52s0.68-0.54,0.88-0.92
		s0.31-0.85,0.31-1.4c0-0.55-0.11-1.02-0.33-1.39s-0.51-0.68-0.88-0.91c-0.37-0.23-0.82-0.4-1.34-0.49
		c-0.52-0.1-1.08-0.14-1.69-0.14h-2.78V337.33z"/>
	<path class="st1" d="M489.99,348.07c-1.21,0-2.27-0.2-3.17-0.61s-1.65-0.95-2.24-1.62c-0.59-0.68-1.03-1.45-1.31-2.33
		c-0.29-0.88-0.43-1.78-0.43-2.72v-11.6h2.57v11.44c0,0.62,0.08,1.24,0.23,1.86s0.41,1.17,0.77,1.65c0.36,0.49,0.82,0.88,1.4,1.17
		c0.58,0.29,1.3,0.44,2.17,0.44c0.85,0,1.57-0.15,2.16-0.44c0.59-0.29,1.06-0.68,1.42-1.17c0.36-0.48,0.61-1.04,0.77-1.65
		c0.16-0.62,0.23-1.24,0.23-1.86V329.2h2.57v11.6c0,0.94-0.14,1.84-0.43,2.72c-0.29,0.88-0.72,1.65-1.31,2.33
		c-0.59,0.68-1.33,1.22-2.24,1.62S491.21,348.07,489.99,348.07z"/>
	<path class="st1" d="M503.67,347.6h-2.57V329.2h5.9c0.88,0,1.72,0.09,2.52,0.27c0.8,0.18,1.5,0.47,2.09,0.87
		c0.6,0.4,1.07,0.92,1.42,1.57c0.35,0.65,0.52,1.44,0.52,2.38c0,1.35-0.42,2.44-1.25,3.28c-0.83,0.83-1.91,1.36-3.22,1.59l5.15,8.45
		h-3.12l-4.68-8.19h-2.76V347.6z M503.67,337.26h2.96c0.61,0,1.17-0.05,1.69-0.16c0.52-0.1,0.98-0.27,1.37-0.51
		c0.39-0.23,0.7-0.54,0.92-0.91c0.23-0.37,0.34-0.84,0.34-1.39c0-0.55-0.11-1.02-0.34-1.39c-0.23-0.37-0.52-0.67-0.9-0.9
		c-0.37-0.23-0.81-0.39-1.31-0.48c-0.5-0.1-1.03-0.14-1.59-0.14h-3.15V337.26z"/>
	<path class="st1" d="M522.81,347.6h-2.57v-16.15h-5.9v-2.26h14.38v2.26h-5.9V347.6z"/>
	<path class="st1" d="M533.33,345.32h9.62v2.29h-12.19V329.2h11.8v2.26h-9.23v5.51h8.68v2.21h-8.68V345.32z"/>
	<path class="st1" d="M565.45,347.6h-10.82c-1.4,0-2.69-0.23-3.86-0.68s-2.18-1.08-3.03-1.9c-0.85-0.81-1.51-1.8-1.98-2.96
		c-0.47-1.16-0.7-2.46-0.7-3.9c0-1.39,0.24-2.66,0.73-3.81c0.48-1.15,1.15-2.15,2-2.98c0.85-0.83,1.86-1.48,3.03-1.95
		c1.17-0.47,2.45-0.7,3.83-0.7c1.37,0,2.63,0.23,3.8,0.7c1.16,0.47,2.17,1.12,3.02,1.95c0.85,0.83,1.51,1.82,1.99,2.98
		c0.48,1.15,0.71,2.42,0.71,3.81c0,1.65-0.35,3.09-1.04,4.32c-0.69,1.23-1.61,2.2-2.76,2.91v0.05h5.07V347.6z M547.84,338.17
		c0,1.01,0.16,1.95,0.48,2.82c0.32,0.88,0.78,1.63,1.36,2.28s1.3,1.15,2.13,1.52s1.77,0.56,2.81,0.56c1,0,1.93-0.19,2.77-0.56
		s1.56-0.88,2.15-1.52c0.59-0.64,1.05-1.4,1.38-2.28c0.33-0.88,0.49-1.82,0.49-2.82c0-0.99-0.16-1.92-0.47-2.78
		c-0.31-0.87-0.76-1.62-1.35-2.27c-0.59-0.65-1.3-1.17-2.13-1.55c-0.83-0.38-1.77-0.57-2.81-0.57s-1.98,0.19-2.81,0.57
		c-0.83,0.38-1.55,0.9-2.14,1.55c-0.6,0.65-1.06,1.41-1.38,2.27C548,336.25,547.84,337.18,547.84,338.17z"/>
	<path class="st1" d="M582.22,338.4c-0.26-0.4-0.65-0.73-1.17-1c-0.52-0.27-1.08-0.4-1.66-0.4c-0.64,0-1.21,0.12-1.7,0.36
		c-0.49,0.24-0.92,0.57-1.26,0.98c-0.35,0.41-0.61,0.88-0.79,1.42c-0.18,0.54-0.27,1.1-0.27,1.69c0,0.59,0.09,1.15,0.27,1.69
		c0.18,0.54,0.45,1.01,0.79,1.42c0.35,0.41,0.77,0.73,1.27,0.98c0.5,0.24,1.07,0.36,1.72,0.36c0.62,0,1.19-0.12,1.7-0.36
		c0.51-0.24,0.93-0.57,1.26-0.99l1.64,1.48c-0.52,0.61-1.17,1.08-1.95,1.42s-1.66,0.51-2.65,0.51c-0.95,0-1.83-0.16-2.64-0.47
		s-1.5-0.75-2.09-1.31c-0.59-0.56-1.05-1.24-1.39-2.04s-0.51-1.69-0.51-2.68c0-0.97,0.17-1.85,0.49-2.65
		c0.33-0.8,0.79-1.48,1.38-2.05c0.59-0.57,1.29-1.01,2.09-1.33c0.81-0.31,1.68-0.47,2.61-0.47c0.87,0,1.73,0.17,2.59,0.52
		c0.86,0.35,1.54,0.85,2.04,1.51L582.22,338.4z"/>
	<path class="st1" d="M588.53,347.6h-2.44v-19.66h2.44V347.6z"/>
	<path class="st1" d="M603.92,341.34c0,0.14,0,0.28,0,0.42c0,0.14-0.01,0.28-0.03,0.42h-9.8c0.02,0.52,0.13,1,0.35,1.46
		c0.22,0.46,0.51,0.85,0.87,1.19c0.36,0.34,0.78,0.6,1.26,0.79c0.48,0.19,0.98,0.28,1.52,0.28c0.83,0,1.55-0.18,2.16-0.55
		c0.61-0.36,1.08-0.81,1.43-1.33l1.72,1.38c-0.66,0.87-1.43,1.52-2.33,1.93c-0.89,0.41-1.89,0.62-2.98,0.62
		c-0.94,0-1.8-0.16-2.6-0.47c-0.8-0.31-1.48-0.75-2.05-1.31c-0.57-0.56-1.02-1.24-1.35-2.04s-0.49-1.68-0.49-2.65
		c0-0.95,0.16-1.83,0.48-2.64c0.32-0.81,0.77-1.5,1.34-2.07c0.57-0.57,1.25-1.02,2.03-1.34c0.78-0.32,1.62-0.48,2.53-0.48
		s1.72,0.15,2.46,0.44c0.74,0.29,1.36,0.72,1.88,1.27s0.91,1.23,1.19,2.01C603.79,339.46,603.92,340.35,603.92,341.34z
		 M601.43,340.35c-0.02-0.49-0.1-0.94-0.25-1.37c-0.15-0.42-0.36-0.79-0.65-1.1c-0.29-0.31-0.64-0.56-1.07-0.74
		c-0.42-0.18-0.92-0.27-1.5-0.27c-0.52,0-1.01,0.09-1.47,0.27c-0.46,0.18-0.86,0.43-1.2,0.74s-0.62,0.68-0.83,1.1
		c-0.22,0.43-0.34,0.88-0.38,1.37H601.43z"/>
	<path class="st1" d="M614.43,339.62c0-0.92-0.28-1.6-0.83-2.04c-0.56-0.44-1.29-0.66-2.21-0.66c-0.69,0-1.35,0.13-1.96,0.4
		c-0.62,0.27-1.13,0.61-1.55,1.03l-1.3-1.56c0.61-0.57,1.35-1.02,2.22-1.35c0.88-0.33,1.82-0.49,2.82-0.49
		c0.88,0,1.65,0.13,2.3,0.38c0.65,0.25,1.18,0.59,1.6,1.03s0.73,0.94,0.94,1.53c0.21,0.59,0.31,1.22,0.31,1.9v5.38
		c0,0.42,0.01,0.85,0.04,1.31c0.03,0.46,0.07,0.84,0.14,1.13h-2.21c-0.14-0.59-0.21-1.18-0.21-1.77h-0.08
		c-0.45,0.66-1.02,1.17-1.7,1.53c-0.68,0.36-1.5,0.55-2.43,0.55c-0.49,0-0.99-0.06-1.52-0.19c-0.53-0.13-1.01-0.34-1.44-0.64
		c-0.43-0.29-0.79-0.68-1.08-1.17s-0.43-1.08-0.43-1.79c0-0.94,0.25-1.68,0.75-2.22c0.5-0.55,1.16-0.96,1.98-1.25
		s1.73-0.47,2.76-0.56c1.02-0.09,2.05-0.13,3.09-0.13V339.62z M613.83,341.73c-0.61,0-1.23,0.03-1.88,0.08
		c-0.65,0.05-1.24,0.16-1.77,0.31c-0.53,0.16-0.97,0.39-1.31,0.7s-0.52,0.73-0.52,1.25c0,0.36,0.07,0.67,0.22,0.91
		s0.34,0.44,0.58,0.6c0.24,0.16,0.51,0.26,0.81,0.32c0.29,0.06,0.6,0.09,0.91,0.09c1.14,0,2.02-0.34,2.64-1.03
		c0.62-0.68,0.92-1.55,0.92-2.59v-0.65H613.83z"/>
	<path class="st1" d="M622.67,335.28c0.03,0.31,0.06,0.66,0.08,1.05c0.02,0.39,0.03,0.71,0.03,0.98h0.08
		c0.16-0.33,0.37-0.64,0.64-0.92c0.27-0.29,0.58-0.54,0.92-0.75c0.35-0.22,0.73-0.39,1.14-0.51c0.42-0.12,0.85-0.18,1.3-0.18
		c0.8,0,1.48,0.13,2.05,0.4c0.57,0.27,1.05,0.63,1.43,1.08c0.38,0.45,0.66,0.98,0.84,1.59c0.18,0.61,0.27,1.26,0.27,1.95v7.64h-2.44
		v-6.84c0-0.5-0.04-0.98-0.12-1.43c-0.08-0.45-0.22-0.85-0.43-1.2s-0.49-0.62-0.86-0.83s-0.83-0.31-1.4-0.31
		c-0.97,0-1.76,0.37-2.38,1.1s-0.92,1.72-0.92,2.95v6.55h-2.44v-9.67c0-0.33-0.01-0.75-0.03-1.27c-0.02-0.52-0.04-0.98-0.08-1.38
		H622.67z"/>
	<path class="st1" d="M646.72,341.34c0,0.14,0,0.28,0,0.42c0,0.14-0.01,0.28-0.03,0.42h-9.8c0.02,0.52,0.13,1,0.35,1.46
		c0.22,0.46,0.51,0.85,0.87,1.19c0.36,0.34,0.78,0.6,1.26,0.79c0.48,0.19,0.98,0.28,1.52,0.28c0.83,0,1.55-0.18,2.16-0.55
		c0.61-0.36,1.08-0.81,1.43-1.33l1.72,1.38c-0.66,0.87-1.43,1.52-2.33,1.93c-0.89,0.41-1.89,0.62-2.98,0.62
		c-0.94,0-1.8-0.16-2.6-0.47c-0.8-0.31-1.48-0.75-2.05-1.31c-0.57-0.56-1.02-1.24-1.35-2.04s-0.49-1.68-0.49-2.65
		c0-0.95,0.16-1.83,0.48-2.64c0.32-0.81,0.77-1.5,1.34-2.07c0.57-0.57,1.25-1.02,2.03-1.34c0.78-0.32,1.62-0.48,2.53-0.48
		s1.72,0.15,2.46,0.44c0.74,0.29,1.36,0.72,1.88,1.27s0.91,1.23,1.19,2.01C646.58,339.46,646.72,340.35,646.72,341.34z
		 M644.22,340.35c-0.02-0.49-0.1-0.94-0.25-1.37c-0.15-0.42-0.36-0.79-0.65-1.1c-0.29-0.31-0.64-0.56-1.07-0.74
		c-0.42-0.18-0.92-0.27-1.5-0.27c-0.52,0-1.01,0.09-1.47,0.27c-0.46,0.18-0.86,0.43-1.2,0.74s-0.62,0.68-0.83,1.1
		c-0.22,0.43-0.34,0.88-0.38,1.37H644.22z"/>
	<path class="st1" d="M649.68,336.66c-0.02-0.52-0.04-0.98-0.08-1.38h2.31c0.03,0.31,0.06,0.67,0.08,1.08
		c0.02,0.41,0.03,0.74,0.03,1h0.08c0.35-0.73,0.85-1.31,1.52-1.75c0.67-0.44,1.42-0.66,2.25-0.66c0.38,0,0.7,0.04,0.96,0.1
		l-0.1,2.26c-0.35-0.09-0.72-0.13-1.12-0.13c-0.59,0-1.1,0.11-1.53,0.32c-0.43,0.22-0.79,0.51-1.08,0.87
		c-0.29,0.36-0.5,0.78-0.64,1.26c-0.14,0.48-0.21,0.98-0.21,1.5v6.47h-2.44v-9.67C649.71,337.6,649.7,337.18,649.68,336.66z"/>
	<path class="st1" d="M665.39,338.4c-0.28-0.45-0.67-0.82-1.17-1.1s-1.07-0.43-1.69-0.43c-0.28,0-0.56,0.03-0.83,0.09
		c-0.28,0.06-0.52,0.16-0.74,0.29c-0.22,0.13-0.39,0.29-0.52,0.49c-0.13,0.2-0.19,0.45-0.19,0.74c0,0.52,0.23,0.91,0.7,1.16
		c0.47,0.25,1.17,0.48,2.11,0.69c0.59,0.14,1.13,0.3,1.64,0.49c0.5,0.19,0.94,0.43,1.31,0.72c0.37,0.29,0.66,0.63,0.87,1.03
		c0.21,0.4,0.31,0.87,0.31,1.4c0,0.73-0.14,1.34-0.42,1.85c-0.28,0.5-0.65,0.91-1.1,1.23c-0.46,0.32-0.98,0.55-1.57,0.69
		c-0.59,0.14-1.2,0.21-1.82,0.21c-0.94,0-1.85-0.18-2.74-0.55c-0.89-0.36-1.63-0.92-2.22-1.66l1.74-1.48
		c0.33,0.49,0.78,0.89,1.37,1.22c0.58,0.33,1.22,0.49,1.91,0.49c0.31,0,0.61-0.03,0.9-0.09c0.29-0.06,0.55-0.16,0.78-0.3
		s0.42-0.32,0.56-0.55c0.14-0.22,0.21-0.51,0.21-0.86c0-0.57-0.27-1-0.82-1.27c-0.55-0.28-1.35-0.54-2.41-0.78
		c-0.42-0.1-0.84-0.23-1.26-0.38c-0.42-0.15-0.81-0.35-1.16-0.61c-0.35-0.26-0.63-0.58-0.84-0.98c-0.22-0.39-0.33-0.87-0.33-1.44
		c0-0.66,0.13-1.23,0.4-1.7c0.27-0.48,0.62-0.87,1.05-1.17c0.43-0.3,0.93-0.53,1.48-0.68c0.55-0.15,1.13-0.22,1.72-0.22
		c0.88,0,1.74,0.17,2.56,0.52c0.82,0.35,1.46,0.85,1.91,1.51L665.39,338.4z"/>
	<path class="st1" d="M333.45,391.71c0.54,0.61,1.21,1.09,2.01,1.46c0.81,0.36,1.63,0.55,2.48,0.55c0.81,0,1.5-0.12,2.05-0.35
		s1-0.55,1.34-0.96s0.58-0.89,0.73-1.44s0.22-1.15,0.22-1.79v-1.59h-0.05c-0.45,0.69-1.07,1.22-1.85,1.59
		c-0.78,0.36-1.61,0.55-2.5,0.55c-0.94,0-1.79-0.16-2.56-0.49c-0.77-0.33-1.43-0.78-1.96-1.35c-0.54-0.57-0.95-1.24-1.25-2.01
		c-0.29-0.77-0.44-1.6-0.44-2.48s0.15-1.72,0.44-2.5c0.29-0.78,0.71-1.46,1.25-2.04c0.54-0.58,1.19-1.04,1.95-1.38
		c0.76-0.34,1.61-0.51,2.55-0.51c0.88,0,1.73,0.19,2.54,0.57c0.81,0.38,1.44,0.96,1.91,1.74h0.05v-1.98h2.37v11.7
		c0,0.9-0.11,1.76-0.34,2.59s-0.61,1.55-1.14,2.18s-1.24,1.14-2.11,1.52c-0.87,0.38-1.94,0.57-3.22,0.57c-1.08,0-2.15-0.2-3.24-0.59
		c-1.08-0.39-2.01-0.94-2.79-1.65L333.45,391.71z M334.18,383.31c0,0.57,0.09,1.12,0.27,1.64c0.18,0.52,0.45,0.98,0.81,1.38
		c0.36,0.4,0.79,0.72,1.29,0.96c0.5,0.24,1.08,0.36,1.72,0.36c0.63,0,1.2-0.11,1.72-0.34s0.96-0.53,1.33-0.92
		c0.37-0.39,0.65-0.85,0.85-1.38c0.2-0.53,0.3-1.1,0.3-1.7c0-0.59-0.1-1.14-0.3-1.66c-0.2-0.52-0.49-0.98-0.86-1.38
		c-0.37-0.4-0.82-0.71-1.33-0.95c-0.51-0.23-1.08-0.35-1.71-0.35c-0.64,0-1.22,0.12-1.72,0.35c-0.5,0.23-0.93,0.55-1.29,0.94
		c-0.36,0.39-0.63,0.85-0.81,1.38C334.27,382.16,334.18,382.72,334.18,383.31z"/>
	<path class="st1" d="M361.14,383.42c0,0.95-0.17,1.83-0.51,2.63c-0.34,0.8-0.81,1.49-1.4,2.07c-0.6,0.58-1.3,1.03-2.12,1.35
		c-0.81,0.32-1.69,0.48-2.63,0.48c-0.94,0-1.81-0.16-2.63-0.48c-0.81-0.32-1.52-0.77-2.11-1.35c-0.59-0.58-1.05-1.27-1.39-2.07
		c-0.34-0.8-0.51-1.67-0.51-2.63c0-0.95,0.17-1.82,0.51-2.61c0.34-0.79,0.8-1.47,1.39-2.04c0.59-0.57,1.29-1.02,2.11-1.34
		c0.81-0.32,1.69-0.48,2.63-0.48c0.94,0,1.81,0.16,2.63,0.48c0.81,0.32,1.52,0.77,2.12,1.34c0.6,0.57,1.07,1.25,1.4,2.04
		C360.97,381.59,361.14,382.46,361.14,383.42z M358.59,383.43c0-0.59-0.09-1.15-0.27-1.69c-0.18-0.54-0.45-1.01-0.8-1.41
		s-0.78-0.73-1.29-0.97s-1.1-0.36-1.76-0.36c-0.66,0-1.25,0.12-1.76,0.36s-0.94,0.57-1.29,0.97s-0.61,0.88-0.8,1.41
		c-0.18,0.54-0.27,1.1-0.27,1.69s0.09,1.15,0.27,1.68c0.18,0.54,0.45,1.01,0.8,1.43c0.35,0.42,0.78,0.74,1.29,0.99
		s1.1,0.36,1.76,0.36c0.66,0,1.25-0.12,1.76-0.36s0.94-0.57,1.29-0.99c0.35-0.41,0.61-0.89,0.8-1.43
		C358.5,384.58,358.59,384.02,358.59,383.43z"/>
	<path class="st1" d="M376.3,379.28h-2.86v10.32h-2.44v-10.32h-2.44v-2h2.44v-2.57c0-0.73,0.08-1.4,0.25-2.01
		c0.17-0.61,0.43-1.15,0.81-1.6c0.37-0.45,0.85-0.81,1.43-1.07c0.58-0.26,1.29-0.39,2.12-0.39c0.59,0,1.1,0.06,1.53,0.18l-0.29,2.11
		c-0.19-0.05-0.38-0.09-0.57-0.13c-0.19-0.03-0.41-0.05-0.65-0.05c-0.47,0-0.84,0.08-1.13,0.25c-0.29,0.17-0.51,0.39-0.66,0.66
		c-0.16,0.28-0.26,0.59-0.31,0.95c-0.05,0.36-0.08,0.72-0.08,1.1v2.57h2.86V379.28z"/>
	<path class="st1" d="M385.97,381.62c0-0.92-0.28-1.6-0.83-2.04c-0.56-0.44-1.29-0.66-2.21-0.66c-0.69,0-1.35,0.13-1.96,0.4
		c-0.62,0.27-1.13,0.61-1.55,1.03l-1.3-1.56c0.61-0.57,1.35-1.02,2.22-1.35c0.88-0.33,1.82-0.49,2.82-0.49
		c0.88,0,1.65,0.13,2.3,0.38c0.65,0.25,1.18,0.59,1.6,1.03c0.42,0.43,0.73,0.94,0.94,1.53c0.21,0.59,0.31,1.22,0.31,1.9v5.38
		c0,0.42,0.01,0.85,0.04,1.31c0.03,0.46,0.07,0.84,0.14,1.13h-2.21c-0.14-0.59-0.21-1.18-0.21-1.77h-0.08
		c-0.45,0.66-1.02,1.17-1.7,1.53s-1.5,0.55-2.43,0.55c-0.49,0-0.99-0.06-1.52-0.19c-0.53-0.13-1.01-0.34-1.44-0.64
		c-0.43-0.29-0.79-0.68-1.08-1.17s-0.43-1.08-0.43-1.79c0-0.94,0.25-1.68,0.75-2.22c0.5-0.55,1.16-0.96,1.98-1.25
		s1.73-0.47,2.76-0.56c1.02-0.09,2.05-0.13,3.09-0.13V381.62z M385.37,383.73c-0.61,0-1.23,0.03-1.88,0.08
		c-0.65,0.05-1.24,0.16-1.77,0.31c-0.53,0.16-0.97,0.39-1.31,0.7c-0.35,0.31-0.52,0.73-0.52,1.25c0,0.36,0.07,0.67,0.22,0.91
		c0.15,0.24,0.34,0.44,0.58,0.6c0.24,0.16,0.51,0.26,0.81,0.33s0.6,0.09,0.91,0.09c1.14,0,2.02-0.34,2.64-1.03
		c0.62-0.68,0.92-1.55,0.92-2.59v-0.65H385.37z"/>
	<path class="st1" d="M392.1,378.66c-0.02-0.52-0.04-0.98-0.08-1.38h2.31c0.03,0.31,0.06,0.67,0.08,1.08c0.02,0.41,0.03,0.74,0.03,1
		h0.08c0.35-0.73,0.85-1.31,1.52-1.75c0.67-0.44,1.42-0.66,2.25-0.66c0.38,0,0.7,0.04,0.96,0.1l-0.1,2.26
		c-0.35-0.09-0.72-0.13-1.12-0.13c-0.59,0-1.1,0.11-1.53,0.32c-0.43,0.22-0.79,0.51-1.08,0.87c-0.29,0.36-0.5,0.79-0.64,1.26
		c-0.14,0.48-0.21,0.98-0.21,1.5v6.47h-2.44v-9.67C392.13,379.6,392.12,379.18,392.1,378.66z"/>
	<path class="st1" d="M409.94,387.65v1.95h-2.37v-19.66h2.44v9.18h0.08c0.42-0.61,0.99-1.12,1.74-1.55
		c0.74-0.42,1.62-0.64,2.65-0.64c0.92,0,1.75,0.17,2.5,0.49c0.75,0.33,1.4,0.79,1.94,1.38s0.96,1.28,1.26,2.07
		c0.29,0.79,0.44,1.63,0.44,2.54c0,0.9-0.15,1.75-0.44,2.55c-0.29,0.8-0.71,1.49-1.24,2.08c-0.54,0.59-1.18,1.05-1.95,1.39
		s-1.62,0.51-2.57,0.51c-0.88,0-1.72-0.2-2.52-0.58c-0.8-0.39-1.44-0.96-1.92-1.7H409.94z M418.13,383.43
		c0-0.57-0.09-1.12-0.26-1.66c-0.17-0.54-0.43-1.01-0.78-1.43s-0.78-0.74-1.29-0.99c-0.51-0.24-1.1-0.36-1.78-0.36
		c-0.62,0-1.19,0.12-1.7,0.36c-0.51,0.24-0.95,0.57-1.31,0.99s-0.65,0.89-0.84,1.43c-0.2,0.54-0.3,1.1-0.3,1.68
		c0,0.59,0.1,1.15,0.3,1.69c0.2,0.54,0.48,1.01,0.84,1.41s0.8,0.73,1.31,0.97c0.51,0.24,1.08,0.36,1.7,0.36
		c0.68,0,1.27-0.13,1.78-0.38c0.51-0.25,0.94-0.58,1.29-1c0.35-0.42,0.61-0.89,0.78-1.43C418.04,384.55,418.13,384,418.13,383.43z"
		/>
	<path class="st1" d="M435.32,383.34c0,0.14,0,0.28,0,0.42c0,0.14-0.01,0.28-0.03,0.42h-9.8c0.02,0.52,0.13,1,0.35,1.46
		c0.22,0.46,0.51,0.85,0.87,1.19c0.36,0.33,0.78,0.6,1.26,0.79c0.48,0.19,0.98,0.28,1.52,0.28c0.83,0,1.55-0.18,2.16-0.55
		c0.61-0.36,1.08-0.81,1.43-1.33l1.72,1.38c-0.66,0.87-1.43,1.52-2.33,1.93c-0.89,0.41-1.89,0.62-2.98,0.62
		c-0.94,0-1.8-0.16-2.6-0.47c-0.8-0.31-1.48-0.75-2.05-1.31c-0.57-0.56-1.02-1.24-1.35-2.04c-0.33-0.8-0.49-1.68-0.49-2.65
		c0-0.95,0.16-1.83,0.48-2.64s0.77-1.5,1.34-2.07c0.57-0.57,1.25-1.02,2.03-1.34c0.78-0.32,1.62-0.48,2.53-0.48s1.72,0.15,2.46,0.44
		c0.74,0.29,1.36,0.72,1.88,1.27s0.91,1.23,1.19,2.01C435.18,381.46,435.32,382.35,435.32,383.34z M432.82,382.35
		c-0.02-0.49-0.1-0.94-0.25-1.37s-0.36-0.79-0.65-1.11c-0.29-0.31-0.64-0.56-1.07-0.74c-0.42-0.18-0.92-0.27-1.5-0.27
		c-0.52,0-1.01,0.09-1.47,0.27c-0.46,0.18-0.86,0.43-1.2,0.74c-0.34,0.31-0.62,0.68-0.83,1.11s-0.34,0.88-0.38,1.37H432.82z"/>
	<path class="st1" d="M443.12,386.95h0.05l3.41-9.67h2.6l-5.98,15.24c-0.21,0.52-0.43,0.98-0.68,1.39
		c-0.24,0.41-0.53,0.75-0.86,1.04s-0.71,0.51-1.16,0.66c-0.44,0.16-0.97,0.23-1.57,0.23c-0.26,0-0.52-0.01-0.79-0.04
		c-0.27-0.03-0.54-0.07-0.82-0.14l0.23-2.16c0.42,0.14,0.82,0.21,1.22,0.21c0.64,0,1.12-0.18,1.43-0.53
		c0.31-0.36,0.6-0.86,0.86-1.52l0.78-2.05l-5.28-12.32h2.73L443.12,386.95z"/>
	<path class="st1" d="M463.76,383.42c0,0.95-0.17,1.83-0.51,2.63c-0.34,0.8-0.81,1.49-1.4,2.07c-0.6,0.58-1.3,1.03-2.12,1.35
		c-0.81,0.32-1.69,0.48-2.63,0.48c-0.94,0-1.81-0.16-2.63-0.48c-0.81-0.32-1.52-0.77-2.11-1.35c-0.59-0.58-1.05-1.27-1.39-2.07
		c-0.34-0.8-0.51-1.67-0.51-2.63c0-0.95,0.17-1.82,0.51-2.61c0.34-0.79,0.8-1.47,1.39-2.04c0.59-0.57,1.29-1.02,2.11-1.34
		c0.81-0.32,1.69-0.48,2.63-0.48c0.94,0,1.81,0.16,2.63,0.48c0.81,0.32,1.52,0.77,2.12,1.34c0.6,0.57,1.07,1.25,1.4,2.04
		C463.59,381.59,463.76,382.46,463.76,383.42z M461.21,383.43c0-0.59-0.09-1.15-0.27-1.69c-0.18-0.54-0.45-1.01-0.8-1.41
		s-0.78-0.73-1.29-0.97s-1.1-0.36-1.76-0.36c-0.66,0-1.25,0.12-1.76,0.36s-0.94,0.57-1.29,0.97s-0.61,0.88-0.8,1.41
		c-0.18,0.54-0.27,1.1-0.27,1.69s0.09,1.15,0.27,1.68c0.18,0.54,0.45,1.01,0.8,1.43c0.35,0.42,0.78,0.74,1.29,0.99
		s1.1,0.36,1.76,0.36c0.66,0,1.25-0.12,1.76-0.36s0.94-0.57,1.29-0.99c0.35-0.41,0.61-0.89,0.8-1.43
		C461.12,384.58,461.21,384.02,461.21,383.43z"/>
	<path class="st1" d="M469.09,377.28c0.03,0.31,0.06,0.66,0.08,1.05c0.02,0.39,0.03,0.71,0.03,0.98h0.08
		c0.16-0.33,0.37-0.64,0.64-0.92c0.27-0.29,0.58-0.54,0.92-0.75c0.35-0.22,0.73-0.38,1.14-0.51c0.42-0.12,0.85-0.18,1.3-0.18
		c0.8,0,1.48,0.13,2.05,0.4c0.57,0.27,1.05,0.63,1.43,1.08c0.38,0.45,0.66,0.98,0.84,1.59c0.18,0.61,0.27,1.26,0.27,1.95v7.64h-2.44
		v-6.84c0-0.5-0.04-0.98-0.12-1.43c-0.08-0.45-0.22-0.85-0.43-1.2s-0.49-0.62-0.86-0.83s-0.83-0.31-1.4-0.31
		c-0.97,0-1.76,0.37-2.38,1.11c-0.62,0.74-0.92,1.72-0.92,2.95v6.55h-2.44v-9.67c0-0.33-0.01-0.75-0.03-1.27
		c-0.02-0.52-0.04-0.98-0.08-1.38H469.09z"/>
	<path class="st1" d="M491.58,387.65c-0.47,0.75-1.1,1.31-1.91,1.7c-0.81,0.39-1.65,0.58-2.54,0.58c-0.95,0-1.81-0.17-2.57-0.51
		s-1.41-0.8-1.95-1.39c-0.54-0.59-0.95-1.28-1.25-2.08c-0.29-0.8-0.44-1.65-0.44-2.55c0-0.9,0.15-1.75,0.44-2.54
		c0.29-0.79,0.71-1.48,1.26-2.07c0.55-0.59,1.2-1.05,1.96-1.38c0.76-0.33,1.6-0.49,2.52-0.49c1,0,1.88,0.21,2.63,0.64
		s1.33,0.94,1.77,1.55h0.05v-9.18H494v19.66h-2.37v-1.95H491.58z M483.47,383.43c0,0.57,0.09,1.12,0.26,1.66
		c0.17,0.54,0.43,1.01,0.78,1.43c0.35,0.41,0.77,0.75,1.27,1c0.5,0.25,1.09,0.38,1.77,0.38c0.62,0,1.19-0.12,1.7-0.36
		c0.51-0.24,0.95-0.57,1.31-0.97s0.65-0.88,0.84-1.41c0.2-0.54,0.3-1.1,0.3-1.69c0-0.59-0.1-1.15-0.3-1.68
		c-0.2-0.54-0.48-1.01-0.84-1.43s-0.8-0.74-1.31-0.99c-0.51-0.24-1.08-0.36-1.7-0.36c-0.68,0-1.27,0.12-1.77,0.36
		s-0.93,0.57-1.27,0.99c-0.35,0.42-0.61,0.89-0.78,1.43C483.55,382.31,483.47,382.86,483.47,383.43z"/>
	<path class="st1" d="M506.69,395.84h-2.44v-18.56h2.39v1.92h0.08c0.4-0.66,0.98-1.2,1.75-1.62s1.66-0.64,2.68-0.64
		c0.92,0,1.75,0.17,2.5,0.49c0.75,0.33,1.4,0.79,1.95,1.38s0.96,1.28,1.26,2.07c0.29,0.79,0.44,1.63,0.44,2.54
		c0,0.9-0.15,1.75-0.44,2.55c-0.29,0.8-0.71,1.49-1.25,2.08c-0.54,0.59-1.18,1.05-1.94,1.39c-0.76,0.34-1.62,0.51-2.57,0.51
		c-0.88,0-1.71-0.19-2.49-0.57c-0.78-0.38-1.39-0.92-1.84-1.61h-0.08V395.84z M514.8,383.42c0-0.57-0.09-1.13-0.26-1.66
		c-0.17-0.54-0.43-1.01-0.78-1.43s-0.78-0.75-1.29-0.99c-0.51-0.24-1.1-0.36-1.78-0.36c-0.62,0-1.19,0.12-1.7,0.36
		c-0.51,0.24-0.95,0.57-1.31,0.99s-0.65,0.89-0.84,1.43c-0.2,0.54-0.3,1.1-0.3,1.69s0.1,1.15,0.3,1.69c0.2,0.54,0.48,1.01,0.84,1.42
		c0.36,0.41,0.8,0.73,1.31,0.98c0.51,0.24,1.08,0.36,1.7,0.36c0.68,0,1.27-0.13,1.78-0.38c0.51-0.25,0.94-0.59,1.29-1
		c0.35-0.42,0.61-0.89,0.78-1.43C514.71,384.54,514.8,383.99,514.8,383.42z"/>
	<path class="st1" d="M520.44,378.66c-0.02-0.52-0.04-0.98-0.08-1.38h2.31c0.03,0.31,0.06,0.67,0.08,1.08
		c0.02,0.41,0.03,0.74,0.03,1h0.08c0.35-0.73,0.85-1.31,1.52-1.75c0.67-0.44,1.42-0.66,2.25-0.66c0.38,0,0.7,0.04,0.96,0.1
		l-0.1,2.26c-0.35-0.09-0.72-0.13-1.12-0.13c-0.59,0-1.1,0.11-1.53,0.32c-0.43,0.22-0.79,0.51-1.08,0.87
		c-0.29,0.36-0.5,0.79-0.64,1.26c-0.14,0.48-0.21,0.98-0.21,1.5v6.47h-2.44v-9.67C520.46,379.6,520.45,379.18,520.44,378.66z"/>
	<path class="st1" d="M541.63,383.42c0,0.95-0.17,1.83-0.51,2.63c-0.34,0.8-0.81,1.49-1.4,2.07c-0.6,0.58-1.3,1.03-2.12,1.35
		c-0.81,0.32-1.69,0.48-2.63,0.48c-0.94,0-1.81-0.16-2.63-0.48c-0.81-0.32-1.52-0.77-2.11-1.35c-0.59-0.58-1.05-1.27-1.39-2.07
		c-0.34-0.8-0.51-1.67-0.51-2.63c0-0.95,0.17-1.82,0.51-2.61c0.34-0.79,0.8-1.47,1.39-2.04c0.59-0.57,1.29-1.02,2.11-1.34
		c0.81-0.32,1.69-0.48,2.63-0.48c0.94,0,1.81,0.16,2.63,0.48c0.81,0.32,1.52,0.77,2.12,1.34c0.6,0.57,1.07,1.25,1.4,2.04
		C541.46,381.59,541.63,382.46,541.63,383.42z M539.08,383.43c0-0.59-0.09-1.15-0.27-1.69c-0.18-0.54-0.45-1.01-0.8-1.41
		s-0.78-0.73-1.29-0.97s-1.1-0.36-1.76-0.36c-0.66,0-1.25,0.12-1.76,0.36s-0.94,0.57-1.29,0.97s-0.61,0.88-0.8,1.41
		c-0.18,0.54-0.27,1.1-0.27,1.69s0.09,1.15,0.27,1.68c0.18,0.54,0.45,1.01,0.8,1.43c0.35,0.42,0.78,0.74,1.29,0.99
		s1.1,0.36,1.76,0.36c0.66,0,1.25-0.12,1.76-0.36s0.94-0.57,1.29-0.99c0.35-0.41,0.61-0.89,0.8-1.43
		C538.99,384.58,539.08,384.02,539.08,383.43z"/>
	<path class="st1" d="M548.63,377.63c0.68-0.46,1.5-0.69,2.43-0.69c0.83,0,1.58,0.19,2.25,0.57c0.67,0.38,1.19,1.01,1.57,1.9
		c0.42-0.8,1-1.41,1.74-1.83c0.75-0.42,1.56-0.64,2.44-0.64c0.8,0,1.48,0.13,2.05,0.4c0.57,0.27,1.05,0.63,1.43,1.08
		c0.38,0.45,0.66,0.98,0.84,1.59c0.18,0.61,0.27,1.26,0.27,1.95v7.64h-2.44v-6.84c0-0.5-0.04-0.98-0.13-1.43
		c-0.09-0.45-0.23-0.85-0.44-1.2s-0.49-0.62-0.83-0.83s-0.79-0.31-1.33-0.31c-0.56,0-1.03,0.12-1.43,0.35
		c-0.4,0.23-0.72,0.54-0.97,0.91c-0.25,0.37-0.43,0.79-0.55,1.26c-0.11,0.47-0.17,0.94-0.17,1.43v6.66h-2.44v-7.33
		c0-0.49-0.04-0.93-0.13-1.33s-0.23-0.74-0.44-1.03s-0.48-0.51-0.81-0.68c-0.33-0.16-0.74-0.25-1.22-0.25
		c-0.9,0-1.65,0.37-2.25,1.11c-0.6,0.74-0.9,1.72-0.9,2.95v6.55h-2.44v-9.67c0-0.33-0.01-0.75-0.03-1.27
		c-0.02-0.52-0.04-0.98-0.08-1.38h2.31c0.03,0.31,0.06,0.66,0.08,1.05c0.02,0.39,0.03,0.71,0.03,0.98h0.08
		C547.45,378.65,547.95,378.09,548.63,377.63z"/>
	<path class="st1" d="M570.41,372.83c0,0.45-0.16,0.82-0.48,1.12c-0.32,0.29-0.7,0.44-1.15,0.44c-0.45,0-0.83-0.15-1.13-0.46
		c-0.31-0.3-0.46-0.67-0.46-1.1c0-0.45,0.15-0.83,0.46-1.13s0.69-0.46,1.13-0.46c0.45,0,0.83,0.15,1.15,0.46
		C570.25,372.01,570.41,372.38,570.41,372.83z M570.02,389.6h-2.44v-12.32h2.44V389.6z"/>
	<path class="st1" d="M580.68,380.4c-0.28-0.45-0.67-0.82-1.17-1.11s-1.07-0.43-1.69-0.43c-0.28,0-0.56,0.03-0.83,0.09
		c-0.28,0.06-0.52,0.16-0.74,0.29s-0.39,0.29-0.52,0.49c-0.13,0.2-0.19,0.45-0.19,0.74c0,0.52,0.23,0.91,0.7,1.16
		c0.47,0.25,1.17,0.48,2.11,0.69c0.59,0.14,1.13,0.3,1.64,0.49s0.94,0.43,1.31,0.71c0.37,0.29,0.66,0.63,0.87,1.03
		s0.31,0.87,0.31,1.4c0,0.73-0.14,1.34-0.42,1.85s-0.65,0.91-1.1,1.23c-0.46,0.32-0.98,0.55-1.57,0.69
		c-0.59,0.14-1.2,0.21-1.82,0.21c-0.94,0-1.85-0.18-2.74-0.55c-0.89-0.36-1.63-0.92-2.22-1.66l1.74-1.48
		c0.33,0.49,0.78,0.89,1.37,1.22c0.58,0.33,1.22,0.49,1.91,0.49c0.31,0,0.61-0.03,0.9-0.09c0.29-0.06,0.55-0.16,0.78-0.3
		s0.42-0.32,0.56-0.55c0.14-0.22,0.21-0.51,0.21-0.86c0-0.57-0.27-1-0.82-1.27s-1.35-0.54-2.41-0.78c-0.42-0.1-0.84-0.23-1.26-0.38
		c-0.42-0.15-0.81-0.35-1.16-0.61c-0.35-0.26-0.63-0.58-0.84-0.97c-0.22-0.39-0.33-0.87-0.33-1.44c0-0.66,0.13-1.23,0.4-1.7
		c0.27-0.48,0.62-0.87,1.05-1.17c0.43-0.3,0.93-0.53,1.48-0.68c0.55-0.15,1.13-0.22,1.72-0.22c0.88,0,1.74,0.17,2.56,0.52
		c0.82,0.35,1.46,0.85,1.91,1.51L580.68,380.4z"/>
	<path class="st1" d="M596.82,383.34c0,0.14,0,0.28,0,0.42c0,0.14-0.01,0.28-0.03,0.42H587c0.02,0.52,0.13,1,0.35,1.46
		c0.22,0.46,0.51,0.85,0.87,1.19c0.36,0.33,0.78,0.6,1.26,0.79c0.48,0.19,0.98,0.28,1.52,0.28c0.83,0,1.55-0.18,2.16-0.55
		c0.61-0.36,1.08-0.81,1.43-1.33l1.72,1.38c-0.66,0.87-1.43,1.52-2.33,1.93c-0.89,0.41-1.89,0.62-2.98,0.62
		c-0.94,0-1.8-0.16-2.6-0.47c-0.8-0.31-1.48-0.75-2.05-1.31c-0.57-0.56-1.02-1.24-1.35-2.04c-0.33-0.8-0.49-1.68-0.49-2.65
		c0-0.95,0.16-1.83,0.48-2.64s0.77-1.5,1.34-2.07c0.57-0.57,1.25-1.02,2.03-1.34c0.78-0.32,1.62-0.48,2.53-0.48s1.72,0.15,2.46,0.44
		c0.74,0.29,1.36,0.72,1.88,1.27s0.91,1.23,1.19,2.01C596.69,381.46,596.82,382.35,596.82,383.34z M594.33,382.35
		c-0.02-0.49-0.1-0.94-0.25-1.37s-0.36-0.79-0.65-1.11c-0.29-0.31-0.64-0.56-1.07-0.74c-0.42-0.18-0.92-0.27-1.5-0.27
		c-0.52,0-1.01,0.09-1.47,0.27c-0.46,0.18-0.86,0.43-1.2,0.74c-0.34,0.31-0.62,0.68-0.83,1.11s-0.34,0.88-0.38,1.37H594.33z"/>
	<path class="st1" d="M606.6,380.4c-0.28-0.45-0.67-0.82-1.17-1.11s-1.07-0.43-1.69-0.43c-0.28,0-0.56,0.03-0.83,0.09
		c-0.28,0.06-0.52,0.16-0.74,0.29s-0.39,0.29-0.52,0.49c-0.13,0.2-0.19,0.45-0.19,0.74c0,0.52,0.23,0.91,0.7,1.16
		c0.47,0.25,1.17,0.48,2.11,0.69c0.59,0.14,1.13,0.3,1.64,0.49s0.94,0.43,1.31,0.71c0.37,0.29,0.66,0.63,0.87,1.03
		s0.31,0.87,0.31,1.4c0,0.73-0.14,1.34-0.42,1.85s-0.65,0.91-1.1,1.23c-0.46,0.32-0.98,0.55-1.57,0.69
		c-0.59,0.14-1.2,0.21-1.82,0.21c-0.94,0-1.85-0.18-2.74-0.55c-0.89-0.36-1.63-0.92-2.22-1.66l1.74-1.48
		c0.33,0.49,0.78,0.89,1.37,1.22c0.58,0.33,1.22,0.49,1.91,0.49c0.31,0,0.61-0.03,0.9-0.09c0.29-0.06,0.55-0.16,0.78-0.3
		s0.42-0.32,0.56-0.55c0.14-0.22,0.21-0.51,0.21-0.86c0-0.57-0.27-1-0.82-1.27s-1.35-0.54-2.41-0.78c-0.42-0.1-0.84-0.23-1.26-0.38
		c-0.42-0.15-0.81-0.35-1.16-0.61c-0.35-0.26-0.63-0.58-0.84-0.97c-0.22-0.39-0.33-0.87-0.33-1.44c0-0.66,0.13-1.23,0.4-1.7
		c0.27-0.48,0.62-0.87,1.05-1.17c0.43-0.3,0.93-0.53,1.48-0.68c0.55-0.15,1.13-0.22,1.72-0.22c0.88,0,1.74,0.17,2.56,0.52
		c0.82,0.35,1.46,0.85,1.91,1.51L606.6,380.4z"/>
	<path class="st1" d="M614.24,388.04c0,0.45-0.17,0.85-0.49,1.2s-0.75,0.52-1.25,0.52c-0.49,0-0.9-0.17-1.24-0.51
		c-0.34-0.34-0.51-0.73-0.51-1.18c0-0.47,0.17-0.87,0.49-1.21s0.75-0.51,1.25-0.51s0.92,0.17,1.25,0.49S614.24,387.58,614.24,388.04
		z"/>
</g>
<g id="Logo">
	<path d="M513.6,196.51h11.1c0.9,0,1.6-0.2,2-0.7s0.6-1.4,0.6-2.6v-39c0-1.3,0.2-2.1,0.6-2.6c0.4-0.5,1-0.7,1.9-0.7h17.7
		c0.9,0,1.5-0.2,1.9-0.7c0.3-0.5,0.5-1.4,0.5-2.7v-7.8c0-1.3-0.2-2.2-0.5-2.6c-0.3-0.5-1-0.7-1.9-0.7H491c-0.9,0-1.6,0.2-2,0.7
		s-0.6,1.4-0.6,2.6v7.8c0,1.3,0.2,2.1,0.6,2.6c0.4,0.5,1,0.7,2,0.7h17.6c0.9,0,1.6,0.2,2,0.7s0.6,1.4,0.6,2.6v39
		c0,1.3,0.2,2.1,0.5,2.6C512,196.21,512.6,196.51,513.6,196.51z M375,153.71c-0.8,0-1.4,0.2-1.7,0.5s-0.5,0.9-0.5,1.8v38.9
		c0,0.8,0.2,1.4,0.5,1.8c0.3,0.3,0.9,0.5,1.7,0.5h45.9c0.8,0,1.4-0.2,1.7-0.5s0.5-0.9,0.5-1.8v-5.4c0-0.8-0.2-1.4-0.5-1.8
		c-0.3-0.3-0.9-0.5-1.7-0.5h-31.7c-0.8,0-1.4-0.2-1.7-0.5s-0.5-0.9-0.5-1.8v-2.5c0-0.8,0.2-1.4,0.5-1.8c0.3-0.3,0.9-0.5,1.7-0.5
		h31.7c0.8,0,1.4-0.2,1.7-0.5s0.5-0.9,0.5-1.8v-5.2c0-0.9-0.2-1.5-0.5-1.8s-0.9-0.5-1.7-0.5h-31.7c-0.8,0-1.4-0.2-1.7-0.5
		s-0.5-0.9-0.5-1.8v-2.3c0-0.8,0.2-1.4,0.5-1.8c0.3-0.3,0.9-0.5,1.7-0.5h31.7c0.8,0,1.4-0.2,1.7-0.5s0.5-0.9,0.5-1.8v-5.3
		c0-0.9-0.2-1.5-0.5-1.8s-0.9-0.5-1.7-0.5H375V153.71z M356.9,180.21c2.3,0,4.2-0.8,5.7-2.3s2.3-3.4,2.3-5.7v-5v-5.4
		c0-2.3-0.8-4.2-2.3-5.7s-3.4-2.3-5.7-2.3h-45.5c-0.8,0-1.4,0.2-1.7,0.5s-0.5,0.9-0.5,1.8v38.9c0,0.8,0.2,1.4,0.5,1.8
		c0.3,0.3,0.9,0.5,1.7,0.5h9.8c0.8,0,1.4-0.2,1.7-0.5s0.5-0.9,0.5-1.8v-12.4c0-0.8,0.2-1.4,0.5-1.8c0.3-0.3,0.9-0.5,1.7-0.5h31.3
		V180.21z M348,163.61c0.9,0,1.5,0.2,2,0.7c0.4,0.4,0.7,1.1,0.7,1.9v1.9c0,0.8-0.2,1.5-0.7,1.9c-0.4,0.4-1.1,0.6-2,0.6h-22.4
		c-0.8,0-1.4-0.2-1.7-0.5s-0.5-0.9-0.5-1.8v-2.5c0-0.8,0.2-1.4,0.5-1.8c0.3-0.3,0.9-0.5,1.7-0.5H348V163.61z M253.6,180.11h29.1
		c0.8,0,1.5,0.2,1.9,0.7c0.4,0.4,0.7,1.1,0.7,2v2.6c0,0.8-0.2,1.5-0.7,1.9c-0.4,0.4-1.1,0.6-2,0.6h-20.3c-0.7,0-1.2-0.1-1.7-0.4
		s-0.7-0.6-0.7-0.9c0-0.6-0.2-1.1-0.7-1.5s-1.1-0.6-1.9-0.6h-9.2c-0.8,0-1.5,0.2-2,0.7c-0.5,0.4-0.7,1.1-0.7,1.9v2.1
		c0,2.3,0.8,4.2,2.3,5.7s3.4,2.3,5.7,2.3h38c2.3,0,4.2-0.8,5.7-2.3s2.3-3.4,2.3-5.7v-10.3c0-2.3-0.8-4.2-2.3-5.7s-3.4-2.3-5.7-2.3
		h-29.1c-0.8,0-1.5-0.2-2-0.7c-0.5-0.4-0.7-1.1-0.7-1.9v-2.7c0-0.8,0.2-1.5,0.7-1.9c0.5-0.5,1.1-0.7,2-0.7h20.3
		c0.7,0,1.2,0.2,1.7,0.5s0.7,0.6,0.7,0.9c0,0.6,0.2,1.1,0.7,1.5s1.1,0.6,1.9,0.6h9.3c0.8,0,1.5-0.2,1.9-0.7c0.4-0.4,0.7-1.1,0.7-1.9
		v-2.1c0-2.3-0.8-4.2-2.3-5.7s-3.4-2.3-5.7-2.3h-38c-2.3,0-4.2,0.8-5.7,2.3s-2.3,3.4-2.3,5.7v10.3c0,2.3,0.8,4.2,2.3,5.7
		C249.4,179.31,251.3,180.11,253.6,180.11z M440.4,153.71c-2.3,0-4.2,0.8-5.7,2.3s-2.3,3.4-2.3,5.7v27.4c0,2.3,0.8,4.2,2.3,5.7
		s3.4,2.3,5.7,2.3h39.8c2.3,0,4.1-0.8,5.7-2.3c1.5-1.5,2.3-3.4,2.3-5.7v-3c0-0.8-0.2-1.5-0.7-1.9s-1.1-0.7-2-0.7h-9.2
		c-0.8,0-1.4,0.2-1.9,0.6s-0.7,0.9-0.7,1.5c0,0.3-0.2,0.6-0.7,0.9s-1.1,0.5-1.7,0.5h-21.9c-0.9,0-1.5-0.2-2-0.7
		c-0.4-0.4-0.7-1.1-0.7-1.9v-17.9c0-0.8,0.2-1.5,0.7-1.9s1.1-0.7,2-0.7h21.9c0.6,0,1.1,0.1,1.5,0.3c0.4,0.2,0.7,0.6,1,1.1
		c0,0,0.1,0.1,0.1,0.2c0.6,1,1.4,1.4,2.4,1.4h9.2c0.9,0,1.5-0.2,2-0.7c0.5-0.4,0.7-1.1,0.7-1.9v-2.5c0-2.3-0.8-4.2-2.3-5.7
		s-3.4-2.3-5.7-2.3h-39.8V153.71z M235.7,193.41c0,1.2-0.2,2-0.5,2.5c-0.4,0.5-1,0.7-1.9,0.7H228h-5.6h-6h-8.8
		c-0.7,0-1.2-0.1-1.6-0.4c-0.4-0.2-0.9-0.8-1.4-1.7l-14.6-43.7c-0.3-0.5-0.7-0.8-1-1.1c-0.3-0.2-0.7-0.3-1.2-0.3
		c-0.4,0-0.8,0.2-1.1,0.6c-0.3,0.4-0.4,0.9-0.4,1.6v29.6v2v10.1c0,1.2-0.2,2-0.5,2.5c-0.4,0.5-1,0.7-1.9,0.7h-11.3
		c-0.9,0-1.6-0.2-1.9-0.7c-0.4-0.5-0.5-1.3-0.5-2.5v-54.6c0-1.2,0.2-2,0.5-2.5c0.4-0.5,1-0.7,1.9-0.7h5.6h0.6h17.8
		c0.7,0,1.3,0.1,1.7,0.4c0.4,0.2,0.9,0.8,1.4,1.6l16.4,44.1c0.3,0.5,0.7,0.9,1,1.1s0.7,0.3,1.1,0.3c0.5,0,0.9-0.2,1.2-0.6
		c0.3-0.4,0.4-0.9,0.4-1.6v-14.5v-20.7v-6.5c0-1.2,0.2-2,0.5-2.5c0.4-0.5,1-0.7,1.9-0.7h10.9c0.9,0,1.6,0.2,1.9,0.7
		c0.4,0.5,0.5,1.3,0.5,2.5v54.3H235.7z"/>
	<g>
		<path class="st1" d="M555.2,139.41h-1.6v-1h4.4v1h-1.6v4.5h-1.2L555.2,139.41L555.2,139.41z"/>
		<path class="st1" d="M563.6,139.91l-1.6,4h-0.5l-1.6-4v4h-1.2v-5.5h1.7l1.3,3.5l1.3-3.5h1.7v5.5h-1.1V139.91z"/>
	</g>
	<path class="st1" d="M529,193.41c0,1.7-0.3,3-1,3.9s-1.7,1.3-3,1.3h-11.6c-1.3,0-2.3-0.4-3-1.3s-1-2.2-1-3.9v-39.1
		c0-0.5-0.1-0.8-0.2-1c-0.2-0.2-0.4-0.3-0.8-0.3h-17.6c-1.3,0-2.3-0.5-3-1.4s-1-2.2-1-4v-8.4c0-1.7,0.3-3,1-3.9s1.7-1.3,3-1.3h56.8
		c1.3,0,2.3,0.4,3,1.3s1,2.2,1,3.9v8.4c0,1.7-0.4,3.1-1.1,4c-0.7,0.9-1.7,1.4-3,1.4h-17.6c-0.4,0-0.6,0.1-0.8,0.3
		c-0.1,0.2-0.2,0.5-0.2,1v39.1H529z M513.6,196.51h11.1c0.9,0,1.6-0.2,2-0.7s0.6-1.4,0.6-2.6v-39c0-1.3,0.2-2.1,0.6-2.6
		c0.4-0.5,1-0.7,1.9-0.7h17.7c0.9,0,1.5-0.2,1.9-0.7c0.3-0.5,0.5-1.4,0.5-2.7v-7.8c0-1.3-0.2-2.2-0.5-2.6c-0.3-0.5-1-0.7-1.9-0.7
		H491c-0.9,0-1.6,0.2-2,0.7s-0.6,1.4-0.6,2.6v7.8c0,1.3,0.2,2.1,0.6,2.6c0.4,0.5,1,0.7,2,0.7h17.6c0.9,0,1.6,0.2,2,0.7
		s0.6,1.4,0.6,2.6v39c0,1.3,0.2,2.1,0.5,2.6C512,196.21,512.6,196.51,513.6,196.51z M548,139.61v7.6c0,0.5-0.1,0.8-0.2,1
		c-0.1,0.2-0.4,0.3-0.8,0.3h-17.6c-1.3,0-2.3,0.4-3,1.3s-1,2.2-1,3.9v39.1c0,0.5-0.1,0.8-0.3,1.1c-0.2,0.2-0.4,0.3-0.8,0.3h-10.6
		c-0.3,0-0.6-0.1-0.7-0.3c-0.1-0.2-0.2-0.6-0.2-1.1v-39.1c0-1.7-0.3-3-1-3.9s-1.7-1.3-3-1.3h-17.6c-0.4,0-0.6-0.1-0.8-0.3
		c-0.2-0.2-0.3-0.5-0.3-1v-7.6c0-0.5,0.1-0.8,0.2-1c0.2-0.2,0.4-0.3,0.8-0.3h55.8c0.4,0,0.6,0.1,0.8,0.3
		C548,138.91,548,139.21,548,139.61z"/>
	<path class="st1" d="M424.7,155.81v5.7c0,1.2-0.3,2.1-0.9,2.7c-0.6,0.6-1.5,0.9-2.7,0.9h-31.5c-0.3,0-0.6,0.1-0.7,0.2
		c-0.1,0.1-0.2,0.4-0.2,0.7v2c0,0.3,0.1,0.5,0.2,0.7c0.1,0.1,0.4,0.2,0.7,0.2h31.5c1.2,0,2.1,0.3,2.7,0.9c0.6,0.6,0.9,1.5,0.9,2.7
		v5.7c0,1.2-0.3,2.1-0.9,2.7c-0.6,0.6-1.5,0.9-2.7,0.9h-31.5c-0.3,0-0.6,0.1-0.7,0.2s-0.2,0.3-0.2,0.7v2.3c0,0.3,0.1,0.5,0.2,0.7
		c0.1,0.1,0.4,0.2,0.7,0.2h31.5c1.2,0,2.1,0.3,2.7,0.9c0.6,0.6,0.9,1.5,0.9,2.6v5.7c0,1.2-0.3,2.1-0.9,2.7c-0.6,0.6-1.5,0.9-2.7,0.9
		h-46.2c-1.2,0-2.1-0.3-2.7-0.9c-0.6-0.6-0.9-1.5-0.9-2.7v-39.3c0-1.2,0.3-2.1,0.9-2.6c0.6-0.6,1.5-0.9,2.7-0.9h46.2
		c1.2,0,2.1,0.3,2.7,0.9C424.3,153.81,424.7,154.61,424.7,155.81z M375,153.71c-0.8,0-1.4,0.2-1.7,0.5s-0.5,0.9-0.5,1.8v38.9
		c0,0.8,0.2,1.4,0.5,1.8c0.3,0.3,0.9,0.5,1.7,0.5h45.9c0.8,0,1.4-0.2,1.7-0.5s0.5-0.9,0.5-1.8v-5.4c0-0.8-0.2-1.4-0.5-1.8
		c-0.3-0.3-0.9-0.5-1.7-0.5h-31.7c-0.8,0-1.4-0.2-1.7-0.5s-0.5-0.9-0.5-1.8v-2.5c0-0.8,0.2-1.4,0.5-1.8c0.3-0.3,0.9-0.5,1.7-0.5
		h31.7c0.8,0,1.4-0.2,1.7-0.5s0.5-0.9,0.5-1.8v-5.2c0-0.9-0.2-1.5-0.5-1.8s-0.9-0.5-1.7-0.5h-31.7c-0.8,0-1.4-0.2-1.7-0.5
		s-0.5-0.9-0.5-1.8v-2.3c0-0.8,0.2-1.4,0.5-1.8c0.3-0.3,0.9-0.5,1.7-0.5h31.7c0.8,0,1.4-0.2,1.7-0.5s0.5-0.9,0.5-1.8v-5.3
		c0-0.9-0.2-1.5-0.5-1.8s-0.9-0.5-1.7-0.5H375V153.71z M421.5,194.71c0,0.3-0.1,0.6-0.2,0.7c-0.1,0.1-0.4,0.2-0.7,0.2h-45.4
		c-0.3,0-0.6-0.1-0.7-0.2c-0.1-0.1-0.2-0.4-0.2-0.7v-38.7c0-0.3,0.1-0.5,0.2-0.7c0.1-0.1,0.4-0.2,0.7-0.2h45.4
		c0.3,0,0.5,0.1,0.7,0.2c0.1,0.1,0.2,0.3,0.2,0.7v5.2c0,0.3-0.1,0.6-0.2,0.7c-0.1,0.1-0.4,0.2-0.7,0.2H389c-1.2,0-2.1,0.3-2.6,0.9
		c-0.6,0.6-0.9,1.5-0.9,2.6v2.7c0,1.2,0.3,2.1,0.9,2.7c0.6,0.6,1.5,0.9,2.6,0.9h31.6c0.3,0,0.5,0.1,0.7,0.2c0.1,0.1,0.2,0.3,0.2,0.7
		v5.2c0,0.3-0.1,0.6-0.2,0.7c-0.1,0.1-0.4,0.2-0.7,0.2H389c-1.2,0-2.1,0.3-2.6,0.9c-0.6,0.6-0.9,1.5-0.9,2.6v2.9
		c0,1.2,0.3,2.1,0.9,2.7c0.6,0.6,1.5,0.9,2.6,0.9h31.6c0.3,0,0.5,0.1,0.7,0.2c0.1,0.1,0.2,0.4,0.2,0.7V194.71z"/>
	<path class="st1" d="M325.9,181.71c-0.3,0-0.6,0.1-0.7,0.2s-0.2,0.3-0.2,0.7v12.5c0,1.2-0.3,2.1-0.9,2.7c-0.6,0.6-1.5,0.9-2.7,0.9
		h-10.2c-1.2,0-2.1-0.3-2.7-0.9c-0.6-0.6-0.9-1.5-0.9-2.7v-39.3c0-1.2,0.3-2.1,0.9-2.6c0.6-0.6,1.5-0.9,2.7-0.9h45.7
		c2.7,0,5,0.9,6.8,2.7c1.8,1.8,2.8,4.1,2.8,6.8v5.4v5.1c0,2.7-0.9,5-2.8,6.8c-1.8,1.8-4.1,2.7-6.8,2.7h-31V181.71z M356.9,180.21
		c2.3,0,4.2-0.8,5.7-2.3s2.3-3.4,2.3-5.7v-5v-5.4c0-2.3-0.8-4.2-2.3-5.7s-3.4-2.3-5.7-2.3h-45.5c-0.8,0-1.4,0.2-1.7,0.5
		s-0.5,0.9-0.5,1.8v38.9c0,0.8,0.2,1.4,0.5,1.8c0.3,0.3,0.9,0.5,1.7,0.5h9.8c0.8,0,1.4-0.2,1.7-0.5s0.5-0.9,0.5-1.8v-12.4
		c0-0.8,0.2-1.4,0.5-1.8c0.3-0.3,0.9-0.5,1.7-0.5h31.3V180.21z M325.4,178.71c-1.2,0-2.1,0.3-2.6,0.9c-0.6,0.6-0.9,1.5-0.9,2.6v12.5
		c0,0.3-0.1,0.6-0.2,0.7c-0.2,0.2-0.4,0.2-0.7,0.2h-9.3c-0.3,0-0.6-0.1-0.7-0.2c-0.1-0.1-0.2-0.4-0.2-0.7v-38.7
		c0-0.3,0.1-0.5,0.2-0.7c0.1-0.1,0.4-0.2,0.7-0.2H357c1.8,0,3.3,0.6,4.6,1.9c1.2,1.3,1.8,2.8,1.8,4.7v5.4v5c0,1.9-0.6,3.4-1.8,4.7
		c-1.2,1.3-2.7,1.9-4.6,1.9L325.4,178.71L325.4,178.71z M348,162.11h-22.6c-1.2,0-2.1,0.3-2.6,0.9c-0.6,0.6-0.9,1.5-0.9,2.6v2.9
		c0,1.2,0.3,2.1,0.9,2.7c0.6,0.6,1.5,0.9,2.6,0.9H348c1.3,0,2.3-0.4,3.1-1.1s1.1-1.7,1.1-2.9v-1.9c0-1.3-0.4-2.3-1.1-3
		C350.4,162.51,349.3,162.11,348,162.11z M348,163.61c0.9,0,1.5,0.2,2,0.7c0.4,0.4,0.7,1.1,0.7,1.9v1.9c0,0.8-0.2,1.5-0.7,1.9
		c-0.4,0.4-1.1,0.6-2,0.6h-22.4c-0.8,0-1.4-0.2-1.7-0.5s-0.5-0.9-0.5-1.8v-2.5c0-0.8,0.2-1.4,0.5-1.8c0.3-0.3,0.9-0.5,1.7-0.5H348
		V163.61z M348,165.11h-22.1c-0.3,0-0.6,0.1-0.7,0.2c-0.1,0.1-0.2,0.4-0.2,0.7v2.3c0,0.3,0.1,0.5,0.2,0.7s0.4,0.2,0.7,0.2H348
		c0.4,0,0.7-0.1,0.9-0.2c0.1-0.1,0.2-0.4,0.2-0.9v-1.9c0-0.4-0.1-0.7-0.2-0.9C348.7,165.21,348.4,165.11,348,165.11z"/>
	<path class="st1" d="M253.6,181.61c-2.7,0-5-0.9-6.8-2.8c-1.8-1.8-2.8-4.1-2.8-6.8v-10.3c0-2.7,0.9-5,2.8-6.8
		c1.8-1.8,4.1-2.7,6.8-2.7h38c2.7,0,5,0.9,6.8,2.7c1.8,1.8,2.7,4.1,2.7,6.8v2.1c0,1.3-0.4,2.3-1.1,3c-0.7,0.7-1.7,1.1-3.1,1.1h-9.3
		c-1,0-1.8-0.2-2.3-0.5s-0.9-0.9-1.2-1.7c-0.2-0.6-0.4-1-0.6-1.1s-0.4-0.2-0.8-0.2h-20.3c-0.4,0-0.7,0.1-0.8,0.2
		c-0.1,0.2-0.2,0.5-0.2,0.9v2.5c0,0.5,0.1,0.8,0.2,0.9c0.1,0.2,0.4,0.2,0.8,0.2h29.2c2.7,0,5,0.9,6.8,2.7c1.8,1.8,2.7,4.1,2.7,6.8
		v10.3c0,2.7-0.9,5-2.7,6.8s-4.1,2.7-6.8,2.7h-38c-2.7,0-5-0.9-6.8-2.7c-1.8-1.8-2.8-4.1-2.8-6.8v-2.1c0-1.3,0.4-2.3,1.1-3
		c0.8-0.7,1.8-1.1,3.1-1.1h9.2c1.1,0,1.9,0.2,2.4,0.5s0.9,0.9,1.2,1.6c0.2,0.6,0.4,0.9,0.6,1.1c0.2,0.1,0.4,0.2,0.8,0.2h20.3
		c0.4,0,0.7-0.1,0.9-0.2c0.1-0.1,0.2-0.4,0.2-0.9v-2.6c0-0.4-0.1-0.7-0.2-0.9c-0.1-0.1-0.4-0.2-0.9-0.2h-29.1V181.61z M253.6,180.11
		h29.1c0.8,0,1.5,0.2,1.9,0.7c0.4,0.4,0.7,1.1,0.7,2v2.6c0,0.8-0.2,1.5-0.7,1.9c-0.4,0.4-1.1,0.6-2,0.6h-20.3
		c-0.7,0-1.2-0.1-1.7-0.4s-0.7-0.6-0.7-0.9c0-0.6-0.2-1.1-0.7-1.5s-1.1-0.6-1.9-0.6h-9.2c-0.8,0-1.5,0.2-2,0.7
		c-0.5,0.4-0.7,1.1-0.7,1.9v2.1c0,2.3,0.8,4.2,2.3,5.7s3.4,2.3,5.7,2.3h38c2.3,0,4.2-0.8,5.7-2.3s2.3-3.4,2.3-5.7v-10.3
		c0-2.3-0.8-4.2-2.3-5.7s-3.4-2.3-5.7-2.3h-29.1c-0.8,0-1.5-0.2-2-0.7c-0.5-0.4-0.7-1.1-0.7-1.9v-2.7c0-0.8,0.2-1.5,0.7-1.9
		c0.5-0.5,1.1-0.7,2-0.7h20.3c0.7,0,1.2,0.2,1.7,0.5s0.7,0.6,0.7,0.9c0,0.6,0.2,1.1,0.7,1.5s1.1,0.6,1.9,0.6h9.3
		c0.8,0,1.5-0.2,1.9-0.7c0.4-0.4,0.7-1.1,0.7-1.9v-2.1c0-2.3-0.8-4.2-2.3-5.7s-3.4-2.3-5.7-2.3h-38c-2.3,0-4.2,0.8-5.7,2.3
		s-2.3,3.4-2.3,5.7v10.3c0,2.3,0.8,4.2,2.3,5.7C249.4,179.31,251.3,180.11,253.6,180.11z M253.6,178.61c-1.8,0-3.4-0.6-4.6-1.9
		s-1.8-2.8-1.8-4.7v-10.3c0-1.9,0.6-3.4,1.8-4.7c1.2-1.3,2.8-1.9,4.6-1.9h38c1.8,0,3.4,0.6,4.6,1.9s1.8,2.8,1.8,4.7v2.1
		c0,0.4-0.1,0.7-0.2,0.9c-0.1,0.1-0.4,0.2-0.9,0.2h-9.3c-0.4,0-0.7,0-0.8-0.1c-0.1-0.1-0.2-0.2-0.3-0.4c-0.5-1.2-1-2-1.5-2.3
		c-0.5-0.4-1.3-0.5-2.4-0.5h-20.3c-1.3,0-2.3,0.4-3.1,1.1s-1.1,1.7-1.1,3v2.5c0,1.2,0.4,2.2,1.1,3c0.8,0.7,1.8,1.1,3.1,1.1h29.3
		c1.8,0,3.4,0.6,4.6,1.9s1.8,2.8,1.8,4.7v10.3c0,1.8-0.6,3.4-1.8,4.7c-1.2,1.3-2.8,1.9-4.6,1.9h-38c-1.8,0-3.4-0.6-4.6-1.9
		s-1.8-2.8-1.8-4.7v-2.1c0-0.5,0.1-0.8,0.2-0.9s0.4-0.2,0.8-0.2h9.2c0.4,0,0.6,0,0.8,0.1s0.3,0.2,0.4,0.5c0.5,1.2,1,2,1.5,2.3
		s1.3,0.5,2.4,0.5h20.3c1.3,0,2.3-0.4,3.1-1.1c0.7-0.7,1.1-1.7,1.1-3v-2.6c0-1.3-0.4-2.3-1.1-3s-1.8-1.1-3-1.1H253.6z"/>
	<path class="st1" d="M489.6,161.81v2.5c0,1.3-0.4,2.3-1.1,3c-0.7,0.7-1.8,1.1-3.1,1.1h-9.2c-0.9,0-1.6-0.2-2.2-0.5
		c-0.5-0.3-1.1-0.9-1.6-1.7l0,0c-0.3-0.5-0.8-0.8-1.3-0.8h-21.9c-0.4,0-0.7,0.1-0.8,0.2c-0.1,0.2-0.2,0.5-0.2,0.9v17.9
		c0,0.4,0.1,0.7,0.2,0.9c0.1,0.1,0.4,0.2,0.8,0.2h21.9c0.4,0,0.7-0.1,0.8-0.2c0.2-0.1,0.4-0.5,0.6-1.1c0.3-0.8,0.7-1.4,1.2-1.7
		c0.5-0.3,1.3-0.5,2.4-0.5h9.2c1.3,0,2.4,0.4,3.1,1.1c0.7,0.7,1.1,1.7,1.1,3v3c0,2.7-0.9,5-2.7,6.8s-4.1,2.7-6.7,2.7h-39.8
		c-2.7,0-5-0.9-6.8-2.7c-1.8-1.8-2.8-4.1-2.8-6.8v-27.4c0-2.7,0.9-5,2.8-6.8c1.8-1.8,4.1-2.7,6.8-2.7h39.8c2.7,0,4.9,0.9,6.7,2.7
		C488.7,156.81,489.6,159.11,489.6,161.81z M440.4,153.71c-2.3,0-4.2,0.8-5.7,2.3s-2.3,3.4-2.3,5.7v27.4c0,2.3,0.8,4.2,2.3,5.7
		s3.4,2.3,5.7,2.3h39.8c2.3,0,4.1-0.8,5.7-2.3c1.5-1.5,2.3-3.4,2.3-5.7v-3c0-0.8-0.2-1.5-0.7-1.9s-1.1-0.7-2-0.7h-9.2
		c-0.8,0-1.4,0.2-1.9,0.6s-0.7,0.9-0.7,1.5c0,0.3-0.2,0.6-0.7,0.9s-1.1,0.5-1.7,0.5h-21.9c-0.9,0-1.5-0.2-2-0.7
		c-0.4-0.4-0.7-1.1-0.7-1.9v-17.9c0-0.8,0.2-1.5,0.7-1.9s1.1-0.7,2-0.7h21.9c0.6,0,1.1,0.1,1.5,0.3c0.4,0.2,0.7,0.6,1,1.1
		c0,0,0.1,0.1,0.1,0.2c0.6,1,1.4,1.4,2.4,1.4h9.2c0.9,0,1.5-0.2,2-0.7c0.5-0.4,0.7-1.1,0.7-1.9v-2.5c0-2.3-0.8-4.2-2.3-5.7
		s-3.4-2.3-5.7-2.3h-39.8V153.71z M440.4,155.21h39.8c1.8,0,3.3,0.6,4.6,1.9c1.2,1.3,1.8,2.8,1.8,4.7v2.5c0,0.4-0.1,0.7-0.2,0.9
		c-0.2,0.2-0.4,0.3-0.9,0.3h-9.2c-0.3,0-0.5,0-0.7-0.1s-0.3-0.2-0.4-0.5c-0.7-1.1-1.2-1.8-1.8-2.1c-0.5-0.3-1.3-0.4-2.2-0.4h-21.9
		c-1.3,0-2.3,0.4-3.1,1.1s-1.1,1.7-1.1,3v17.9c0,1.3,0.4,2.3,1.1,3c0.8,0.7,1.8,1.1,3.1,1.1h21.9c1.1,0,1.9-0.2,2.4-0.6
		c0.6-0.4,1.1-1.1,1.5-2.3c0.1-0.2,0.2-0.4,0.3-0.5s0.4-0.1,0.7-0.1h9.2c0.4,0,0.7,0.1,0.9,0.2c0.2,0.2,0.2,0.5,0.2,0.9v3
		c0,1.8-0.6,3.4-1.8,4.7c-1.2,1.3-2.7,1.9-4.6,1.9h-39.8c-1.8,0-3.4-0.6-4.6-1.9c-1.2-1.3-1.8-2.8-1.8-4.7v-27.4
		c0-1.9,0.6-3.4,1.8-4.7S438.5,155.21,440.4,155.21z"/>
	<path class="st1" d="M178.8,137.41h17.6c0.4,0,0.7,0.1,1,0.2c0.2,0.1,0.5,0.4,0.8,0.8l16.7,44.6c0.5,0.7,1,1.2,1.5,1.5
		s1.1,0.5,1.8,0.5c1.1,0,1.9-0.4,2.5-1.1s0.9-1.7,0.9-3.1v-14.7v-19.8v-6.9c0-0.4,0.1-0.7,0.2-0.9c0.1-0.2,0.4-0.3,0.7-0.3h10.4
		c0.4,0,0.7,0.1,0.8,0.3c0.2,0.2,0.2,0.5,0.2,0.9v53.9c0,0.5-0.1,0.8-0.3,1c-0.2,0.2-0.4,0.3-0.8,0.3h-5h-5.4h-4.1h-10.7
		c-0.4,0-0.8-0.1-1-0.2s-0.5-0.4-0.7-0.9l-14.8-43.9c-0.5-0.7-1-1.2-1.5-1.5s-1.2-0.5-1.9-0.5c-1,0-1.8,0.4-2.4,1.1
		c-0.6,0.8-0.9,1.8-0.9,3.1v28.5v2.8v10c0,0.5-0.1,0.8-0.3,1c-0.2,0.2-0.4,0.3-0.8,0.3h-10.4c-0.4,0-0.6-0.1-0.8-0.3
		c-0.2-0.2-0.2-0.5-0.2-1v-54.7c0-0.4,0.1-0.7,0.2-0.9c0.1-0.2,0.4-0.3,0.8-0.3h5.3h0.6V137.41z"/>
	<path class="st1" d="M236.4,135.31c-0.7-0.8-1.7-1.2-3-1.2H222c-1.3,0-2.3,0.4-3,1.2c-0.7,0.8-1,2.1-1,3.7v6.2l0.1,18.9v16.8
		c0,0.1,0,0.1,0,0.2c0,0-0.1,0.1-0.2,0.1s-0.1,0-0.1,0l-0.1-0.1l-16.6-44.5c-0.7-1.1-1.4-1.8-1.9-2.1c-0.6-0.3-1.3-0.5-2.3-0.5
		h-13.6h-4.5h-6.4c-1.3,0-2.3,0.4-3,1.2c-0.7,0.8-1,2-1,3.7v54.7c0,1.6,0.3,2.9,1,3.7c0.5,0.7,1.2,1.2,3,1.2h11.4
		c1.3,0,2.3-0.4,3-1.2c0.7-0.8,1-2.1,1-3.7v-9.9v-2v-29.9c0-0.1,0-0.2,0.1-0.2c0,0,0.1-0.1,0.2-0.1c0,0,0.1,0,0.1,0.1
		c0,0,0.1,0.1,0.1,0.2l14.8,44.3c0.7,1.1,1.3,1.8,1.9,2.1c0.6,0.3,1.3,0.5,2.2,0.5h13.7h1.2h5.4h6c1.3,0,2.3-0.4,3-1.2
		c0.7-0.8,1-2.1,1-3.7v-54.7C237.4,137.31,237.1,136.11,236.4,135.31z M235.7,193.41c0,1.2-0.2,2-0.5,2.5c-0.4,0.5-1,0.7-1.9,0.7
		H228h-5.6h-6h-8.8c-0.7,0-1.2-0.1-1.6-0.4c-0.4-0.2-0.9-0.8-1.4-1.7l-14.6-43.7c-0.3-0.5-0.7-0.8-1-1.1c-0.3-0.2-0.7-0.3-1.2-0.3
		c-0.4,0-0.8,0.2-1.1,0.6c-0.3,0.4-0.4,0.9-0.4,1.6v29.6v2v10.1c0,1.2-0.2,2-0.5,2.5c-0.4,0.5-1,0.7-1.9,0.7h-11.3
		c-0.9,0-1.6-0.2-1.9-0.7c-0.4-0.5-0.5-1.3-0.5-2.5v-54.6c0-1.2,0.2-2,0.5-2.5c0.4-0.5,1-0.7,1.9-0.7h5.6h0.6h17.8
		c0.7,0,1.3,0.1,1.7,0.4c0.4,0.2,0.9,0.8,1.4,1.6l16.4,44.1c0.3,0.5,0.7,0.9,1,1.1s0.7,0.3,1.1,0.3c0.5,0,0.9-0.2,1.2-0.6
		c0.3-0.4,0.4-0.9,0.4-1.6v-14.5v-20.7v-6.5c0-1.2,0.2-2,0.5-2.5c0.4-0.5,1-0.7,1.9-0.7h10.9c0.9,0,1.6,0.2,1.9,0.7
		c0.4,0.5,0.5,1.3,0.5,2.5v54.3H235.7z"/>
</g>
<g>
	<path class="st1" d="M330.38,685.55l2.25-12.74h2.21l-1.91,10.76h5.45l-0.34,1.98H330.38z"/>
	<path class="st1" d="M340.3,685.55l2.25-12.74h8.03l-0.34,1.94h-5.87l-0.58,3.29h5.6l-0.34,1.87h-5.58l-0.65,3.65h6.37l-0.34,1.98
		H340.3z"/>
	<path class="st1" d="M359.94,685.55l-0.52-2.93h-5.45l-1.82,2.93h-2.63l8.32-12.74h1.93l2.54,12.74H359.94z M358.26,675.36
		l-3.22,5.35h4.07L358.26,675.36z"/>
	<path class="st1" d="M374,685.55h-2.5l-2.41-5.44h-1.69l-0.94,5.44h-2.18l2.25-12.74h3.78c1.4,0,2.49,0.29,3.25,0.87
		c0.76,0.58,1.14,1.39,1.14,2.42c0,1.02-0.3,1.85-0.91,2.48c-0.61,0.63-1.42,1.06-2.44,1.29L374,685.55z M369.37,678.3
		c0.97,0,1.72-0.16,2.25-0.47c0.53-0.31,0.79-0.81,0.79-1.49c0-0.62-0.22-1.06-0.67-1.3c-0.44-0.24-1.04-0.36-1.78-0.36h-1.6
		l-0.65,3.62H369.37z"/>
	<path class="st1" d="M384.4,685.55l-4.18-9.9h-0.04l-1.75,9.9h-2.21l2.25-12.74h2.88l4.1,9.59h0.04l1.69-9.59h2.21l-2.25,12.74
		H384.4z"/>
	<path class="st1" d="M407.89,685.55l1.84-10.28h-0.05l-5.74,10.28h-1.55l-2.07-10.28h-0.04l-1.82,10.28h-2.11l2.25-12.74h3.46
		l1.73,9.13h0.04l4.99-9.13h3.51l-2.23,12.74H407.89z"/>
	<path class="st1" d="M421.44,672.48c0.91,0,1.74,0.13,2.47,0.39c0.74,0.26,1.37,0.62,1.9,1.1s0.94,1.05,1.22,1.74
		c0.29,0.68,0.43,1.45,0.43,2.3c0,1.08-0.18,2.1-0.55,3.06c-0.37,0.96-0.87,1.79-1.52,2.5c-0.65,0.71-1.42,1.27-2.3,1.68
		c-0.89,0.41-1.86,0.62-2.92,0.62c-0.94,0-1.78-0.13-2.54-0.38c-0.76-0.25-1.4-0.62-1.94-1.1c-0.53-0.48-0.94-1.06-1.23-1.75
		s-0.43-1.45-0.43-2.3c0-1.08,0.19-2.1,0.57-3.06c0.38-0.96,0.9-1.79,1.56-2.5c0.66-0.71,1.44-1.27,2.34-1.68
		C419.41,672.69,420.39,672.48,421.44,672.48z M420.18,683.93c0.8,0,1.51-0.16,2.13-0.49c0.62-0.32,1.14-0.76,1.57-1.3
		c0.43-0.54,0.75-1.15,0.97-1.84c0.22-0.68,0.33-1.39,0.33-2.11c0-0.52-0.08-1.01-0.25-1.48c-0.17-0.47-0.41-0.87-0.74-1.22
		c-0.32-0.34-0.73-0.61-1.21-0.82c-0.48-0.2-1.03-0.31-1.66-0.31c-0.77,0-1.46,0.16-2.08,0.49c-0.62,0.32-1.14,0.76-1.58,1.3
		c-0.43,0.54-0.77,1.15-1,1.84c-0.23,0.68-0.35,1.39-0.35,2.11c0,0.53,0.08,1.02,0.25,1.48c0.17,0.46,0.41,0.86,0.74,1.21
		c0.32,0.34,0.73,0.62,1.21,0.82C419.01,683.83,419.56,683.93,420.18,683.93z"/>
	<path class="st1" d="M438.99,685.55h-2.5l-2.41-5.44h-1.69l-0.94,5.44h-2.18l2.25-12.74h3.78c1.4,0,2.49,0.29,3.25,0.87
		c0.76,0.58,1.14,1.39,1.14,2.42c0,1.02-0.3,1.85-0.91,2.48c-0.61,0.63-1.42,1.06-2.44,1.29L438.99,685.55z M434.37,678.3
		c0.97,0,1.72-0.16,2.25-0.47c0.53-0.31,0.79-0.81,0.79-1.49c0-0.62-0.22-1.06-0.67-1.3c-0.44-0.24-1.04-0.36-1.78-0.36h-1.6
		l-0.65,3.62H434.37z"/>
	<path class="st1" d="M441.23,685.55l2.25-12.74h8.03l-0.34,1.94h-5.87l-0.58,3.29h5.6l-0.34,1.87h-5.58l-0.65,3.65h6.37l-0.34,1.98
		H441.23z"/>
</g>
<polygon class="st1" points="488.76,679.15 463.14,673.03 461.5,685.26 "/>
</svg>
