<?xml version="1.0" encoding="utf-8"?>
<!-- Generator: Adobe Illustrator 27.7.0, SVG Export Plug-In . SVG Version: 6.00 Build 0)  -->
<svg version="1.1" id="Layer_1" xmlns="http://www.w3.org/2000/svg" xmlns:xlink="http://www.w3.org/1999/xlink" x="0px" y="0px"
	 viewBox="0 0 720 740" style="enable-background:new 0 0 720 740;" xml:space="preserve">
<style type="text/css">
	.st0{fill:none;}
	.st1{fill:#FFFFFF;}
	.st2{fill:#76BC21;}
	.st3{fill:#0069A7;}
</style>
<g id="ART">
	<rect id="Bounding_Box" class="st0" width="720" height="740"/>
	<g id="CTA_-_Learn_More_1_">
		<g id="text_1_">
			<path d="M330.4,685.6v-10.8h2.5v8.8h8.1v2H330.4z"/>
			<path d="M343.5,685.6v-10.8h11.1v1.8H346v2.4h5v1.8h-5v2.7h8.7v2L343.5,685.6L343.5,685.6z"/>
			<path d="M356,685.6l6.1-10.8h2.4l6.2,10.8h-2.8l-1.3-2.4h-6.9l-1.3,2.4H356z M360.8,681.2h4.7l-2.3-4.4L360.8,681.2z"/>
			<path d="M373,685.6v-10.8h9.3c1.6,0,2.4,0.7,2.4,2.1v2.5c0,1.4-0.8,2.1-2.4,2.1h-1.4l5,4.1h-3.6l-4.4-4.1h-2.4v4.1L373,685.6
				L373,685.6z M381.1,676.6h-5.7v3h5.7c0.4,0,0.7,0,0.8-0.1c0.2-0.1,0.3-0.4,0.3-0.7v-1.3c0-0.4-0.1-0.6-0.3-0.7
				C381.8,676.6,381.5,676.6,381.1,676.6z"/>
			<path d="M388.6,685.6v-10.8h1.7l7.6,6.4c0.5,0.5,1,0.9,1.2,1.2c-0.1-1-0.1-1.6-0.1-1.9v-5.7h2.3v10.8h-1.7l-8-6.7
				c-0.3-0.3-0.6-0.6-0.9-0.9c0.1,0.7,0.1,1.3,0.1,1.7v5.9L388.6,685.6L388.6,685.6z"/>
			<path d="M412.4,685.6v-10.8h2l5.1,6.6l5-6.6h2v10.8h-2.3v-6.7c0-0.3,0-0.7,0.1-1.2c-0.3,0.5-0.5,0.9-0.6,1.1l-4.1,5.4h-0.5
				l-4.1-5.4c-0.3-0.4-0.5-0.8-0.6-1.1c0,0.4,0.1,0.8,0.1,1.2v6.7L412.4,685.6L412.4,685.6z"/>
			<path d="M430.4,677.3c0-1,0.2-1.7,0.6-2c0.4-0.4,1.1-0.5,2.1-0.5h8c1,0,1.7,0.2,2.1,0.5c0.4,0.3,0.6,1,0.6,2v5.7
				c0,1-0.2,1.7-0.6,2c-0.4,0.4-1.1,0.5-2.1,0.5h-8c-1,0-1.7-0.2-2.1-0.5c-0.4-0.3-0.6-1-0.6-2V677.3z M432.9,683.5h8.3v-6.9h-8.3
				V683.5z"/>
			<path d="M447.8,685.6v-10.8h9.3c1.6,0,2.4,0.7,2.4,2.1v2.5c0,1.4-0.8,2.1-2.4,2.1h-1.4l5,4.1H457l-4.4-4.1h-2.4v4.1L447.8,685.6
				L447.8,685.6z M455.9,676.6h-5.7v3h5.7c0.4,0,0.7,0,0.8-0.1c0.2-0.1,0.3-0.4,0.3-0.7v-1.3c0-0.4-0.1-0.6-0.3-0.7
				C456.6,676.6,456.3,676.6,455.9,676.6z"/>
			<path d="M463.4,685.6v-10.8h11.1v1.8h-8.6v2.4h5v1.8h-5v2.7h8.7v2L463.4,685.6L463.4,685.6z"/>
		</g>
		<polygon id="arrow_1_" points="513.1,680.1 485.9,674.7 485.9,685.6 		"/>
	</g>
	<g id="Body_Text">
		<g>
			<path d="M332.3,330.2h5.5c1,0,1.9,0.1,2.6,0.3c0.8,0.2,1.5,0.5,2,0.9c0.6,0.4,1,0.9,1.3,1.5c0.3,0.6,0.5,1.4,0.5,2.3
				c0,0.9-0.2,1.7-0.5,2.4s-0.8,1.2-1.4,1.5c-0.6,0.4-1.3,0.7-2.1,0.9c-0.8,0.2-1.6,0.3-2.5,0.3h-2.3v7h-3L332.3,330.2L332.3,330.2z
				 M337.4,337.7c0.5,0,1,0,1.4-0.1s0.8-0.2,1.2-0.4c0.4-0.2,0.6-0.4,0.8-0.8s0.3-0.7,0.3-1.2c0-0.5-0.1-0.9-0.3-1.2
				s-0.5-0.6-0.8-0.7s-0.7-0.3-1.2-0.3s-0.9-0.1-1.4-0.1h-2.2v4.9H337.4z"/>
			<path d="M344.2,341.4c0-0.9,0.2-1.7,0.5-2.5s0.8-1.4,1.3-1.9c0.6-0.5,1.2-0.9,2-1.2s1.6-0.4,2.4-0.4c0.9,0,1.7,0.1,2.4,0.4
				c0.8,0.3,1.4,0.7,2,1.2c0.6,0.5,1,1.2,1.3,1.9s0.5,1.6,0.5,2.5s-0.2,1.7-0.5,2.5s-0.8,1.4-1.3,1.9c-0.6,0.5-1.2,1-2,1.3
				c-0.8,0.3-1.6,0.5-2.4,0.5c-0.9,0-1.7-0.2-2.4-0.5c-0.8-0.3-1.4-0.7-2-1.3c-0.6-0.5-1-1.2-1.3-1.9S344.2,342.3,344.2,341.4z
				 M347.1,341.4c0,0.4,0.1,0.9,0.2,1.3c0.1,0.4,0.3,0.8,0.6,1.2c0.3,0.4,0.6,0.6,1,0.9s0.9,0.3,1.5,0.3s1.1-0.1,1.5-0.3
				s0.8-0.5,1-0.9c0.3-0.4,0.5-0.8,0.6-1.2s0.2-0.9,0.2-1.3s-0.1-0.9-0.2-1.3c-0.1-0.4-0.3-0.8-0.6-1.2s-0.6-0.6-1-0.9
				c-0.4-0.2-0.9-0.3-1.5-0.3s-1.1,0.1-1.5,0.3c-0.4,0.2-0.8,0.5-1,0.9s-0.5,0.7-0.6,1.2C347.2,340.5,347.1,341,347.1,341.4z"/>
			<path d="M357.5,335.7h3.1l2.4,8.3h0l2.5-8.3h3.1l2.5,8.3h0l2.4-8.3h3l-4,11.5h-2.9l-2.6-8.1h0l-2.6,8.1h-2.9L357.5,335.7z"/>
			<path d="M389,341.6c0,0.1,0,0.3,0,0.4s0,0.3,0,0.4h-8.8c0,0.4,0.1,0.8,0.3,1.1c0.2,0.3,0.4,0.6,0.7,0.9s0.6,0.4,1,0.6
				c0.4,0.1,0.8,0.2,1.2,0.2c0.7,0,1.3-0.1,1.8-0.4s0.9-0.6,1.2-1.1l1.9,1.5c-1.1,1.5-2.8,2.3-4.9,2.3c-0.9,0-1.7-0.1-2.5-0.4
				c-0.8-0.3-1.4-0.7-2-1.2c-0.6-0.5-1-1.1-1.3-1.9c-0.3-0.7-0.5-1.6-0.5-2.5c0-0.9,0.2-1.8,0.5-2.5c0.3-0.8,0.7-1.4,1.3-1.9
				c0.5-0.5,1.2-1,1.9-1.2c0.7-0.3,1.5-0.4,2.4-0.4c0.8,0,1.5,0.1,2.2,0.4c0.7,0.3,1.3,0.7,1.8,1.2c0.5,0.5,0.9,1.2,1.2,1.9
				S389,340.6,389,341.6z M386.2,340.3c0-0.4-0.1-0.7-0.2-1.1s-0.3-0.6-0.5-0.9c-0.2-0.3-0.5-0.5-0.9-0.6s-0.7-0.2-1.2-0.2
				c-0.9,0-1.6,0.3-2.2,0.8s-0.9,1.2-1,2H386.2z"/>
			<path d="M391.5,335.7h2.8v1.9h0c0.3-0.7,0.8-1.2,1.3-1.6s1.2-0.6,2-0.6c0.1,0,0.2,0,0.4,0c0.1,0,0.2,0,0.3,0.1v2.6
				c-0.2,0-0.4-0.1-0.5-0.1c-0.1,0-0.3,0-0.4,0c-0.7,0-1.2,0.1-1.6,0.4c-0.4,0.2-0.7,0.5-0.9,0.9c-0.2,0.3-0.4,0.7-0.5,1
				s-0.1,0.6-0.1,0.8v6.2h-2.9L391.5,335.7L391.5,335.7z"/>
			<path d="M410.4,341.6c0,0.1,0,0.3,0,0.4s0,0.3,0,0.4h-8.8c0,0.4,0.1,0.8,0.3,1.1c0.2,0.3,0.4,0.6,0.7,0.9s0.6,0.4,1,0.6
				c0.4,0.1,0.8,0.2,1.2,0.2c0.7,0,1.3-0.1,1.8-0.4s0.9-0.6,1.2-1.1l1.9,1.5c-1.1,1.5-2.8,2.3-4.9,2.3c-0.9,0-1.7-0.1-2.5-0.4
				c-0.8-0.3-1.4-0.7-2-1.2c-0.6-0.5-1-1.1-1.3-1.9c-0.3-0.7-0.5-1.6-0.5-2.5c0-0.9,0.2-1.8,0.5-2.5c0.3-0.8,0.7-1.4,1.3-1.9
				c0.5-0.5,1.2-1,1.9-1.2c0.7-0.3,1.5-0.4,2.4-0.4c0.8,0,1.5,0.1,2.2,0.4c0.7,0.3,1.3,0.7,1.8,1.2c0.5,0.5,0.9,1.2,1.2,1.9
				S410.4,340.6,410.4,341.6z M407.5,340.3c0-0.4-0.1-0.7-0.2-1.1s-0.3-0.6-0.5-0.9c-0.2-0.3-0.5-0.5-0.9-0.6s-0.7-0.2-1.2-0.2
				c-0.9,0-1.6,0.3-2.2,0.8s-0.9,1.2-1,2H407.5z"/>
			<path d="M424.5,347.2h-2.7v-1.7h0c-0.4,0.7-1,1.2-1.7,1.5c-0.7,0.4-1.5,0.5-2.3,0.5c-0.9,0-1.7-0.2-2.4-0.5s-1.3-0.8-1.8-1.3
				s-0.9-1.2-1.1-1.9c-0.3-0.7-0.4-1.5-0.4-2.4s0.1-1.6,0.4-2.4c0.3-0.7,0.7-1.4,1.2-1.9s1.1-1,1.8-1.3s1.4-0.5,2.3-0.5
				c0.5,0,1,0.1,1.4,0.2s0.8,0.3,1.1,0.4s0.6,0.4,0.8,0.6c0.2,0.2,0.4,0.4,0.6,0.6h0.1v-8.1h2.9L424.5,347.2L424.5,347.2z
				 M415.1,341.4c0,0.4,0.1,0.9,0.2,1.3s0.3,0.8,0.6,1.2c0.3,0.4,0.6,0.6,1,0.9s0.9,0.3,1.5,0.3c0.5,0,1-0.1,1.4-0.3
				c0.4-0.2,0.8-0.5,1.1-0.9s0.5-0.7,0.7-1.2c0.2-0.4,0.2-0.9,0.2-1.3s-0.1-0.9-0.2-1.3c-0.2-0.4-0.4-0.8-0.7-1.2
				c-0.3-0.4-0.7-0.6-1.1-0.9c-0.4-0.2-0.9-0.3-1.4-0.3c-0.6,0-1,0.1-1.5,0.3s-0.8,0.5-1,0.9c-0.3,0.4-0.5,0.7-0.6,1.2
				S415.1,341,415.1,341.4z"/>
			<path d="M436.2,329.1v8.1h0.1c0.1-0.2,0.3-0.4,0.6-0.6c0.2-0.2,0.5-0.4,0.8-0.6c0.3-0.2,0.7-0.3,1.1-0.4c0.4-0.1,0.9-0.2,1.4-0.2
				c0.8,0,1.6,0.2,2.3,0.5c0.7,0.3,1.3,0.7,1.8,1.3s0.9,1.2,1.2,1.9c0.3,0.7,0.4,1.5,0.4,2.4s-0.1,1.6-0.4,2.4s-0.6,1.4-1.1,1.9
				c-0.5,0.6-1.1,1-1.8,1.3c-0.7,0.3-1.5,0.5-2.4,0.5c-0.8,0-1.6-0.2-2.3-0.5c-0.7-0.4-1.3-0.9-1.7-1.5h0v1.7h-2.7v-18.1H436.2z
				 M442.8,341.4c0-0.4-0.1-0.9-0.2-1.3c-0.1-0.4-0.3-0.8-0.6-1.2c-0.3-0.4-0.6-0.6-1-0.9c-0.4-0.2-0.9-0.3-1.5-0.3
				c-0.5,0-1,0.1-1.4,0.3c-0.4,0.2-0.8,0.5-1.1,0.9c-0.3,0.4-0.5,0.8-0.7,1.2c-0.2,0.4-0.2,0.9-0.2,1.3s0.1,0.9,0.2,1.3
				c0.2,0.4,0.4,0.8,0.7,1.2c0.3,0.4,0.7,0.6,1.1,0.9c0.4,0.2,0.9,0.3,1.4,0.3c0.6,0,1-0.1,1.5-0.3s0.8-0.5,1-0.9
				c0.3-0.4,0.5-0.8,0.6-1.2S442.8,341.9,442.8,341.4z"/>
			<path d="M446.5,335.7h3.2l3.2,8.4h0l2.9-8.4h3l-5.4,14c-0.2,0.5-0.4,1-0.7,1.4c-0.2,0.4-0.5,0.8-0.9,1s-0.7,0.5-1.2,0.6
				s-1,0.2-1.6,0.2c-0.2,0-0.5,0-0.7,0s-0.5-0.1-0.8-0.1l0.2-2.5c0.2,0.1,0.4,0.1,0.6,0.1c0.2,0,0.4,0,0.5,0c0.3,0,0.6,0,0.8-0.1
				s0.4-0.2,0.5-0.3s0.3-0.3,0.4-0.6s0.2-0.5,0.4-0.8l0.6-1.5L446.5,335.7z"/>
			<path d="M465.8,335.7h2.7v1.8h0c0.3-0.6,0.7-1.1,1.3-1.5s1.4-0.7,2.2-0.7c0.8,0,1.4,0.1,1.9,0.4s1,0.6,1.3,1s0.6,0.9,0.8,1.5
				c0.2,0.6,0.2,1.1,0.2,1.7v7.2h-2.9v-6.4c0-0.3,0-0.7-0.1-1.1s-0.2-0.7-0.3-1s-0.4-0.5-0.7-0.7c-0.3-0.2-0.7-0.3-1.1-0.3
				s-0.9,0.1-1.2,0.3s-0.6,0.4-0.8,0.7c-0.2,0.3-0.4,0.6-0.5,1c-0.1,0.4-0.2,0.8-0.2,1.1v6.3h-2.9L465.8,335.7L465.8,335.7z"/>
			<path d="M486.5,345.8L486.5,345.8c-0.4,0.5-0.8,0.9-1.5,1.3c-0.6,0.3-1.4,0.5-2.2,0.5c-0.5,0-0.9-0.1-1.5-0.2s-1-0.3-1.4-0.6
				s-0.8-0.6-1.1-1.1s-0.4-1-0.4-1.7c0-0.9,0.2-1.6,0.7-2.1c0.5-0.5,1.1-0.9,1.9-1.2c0.8-0.3,1.6-0.5,2.6-0.5s1.9-0.1,2.7-0.1v-0.3
				c0-0.7-0.3-1.3-0.8-1.6c-0.5-0.3-1.1-0.5-1.9-0.5c-0.6,0-1.2,0.1-1.8,0.4c-0.6,0.3-1,0.6-1.4,0.9l-1.5-1.8
				c0.7-0.6,1.4-1.1,2.3-1.4c0.9-0.3,1.7-0.5,2.6-0.5c1,0,1.9,0.1,2.5,0.4s1.2,0.7,1.6,1.1s0.7,1,0.8,1.6c0.2,0.6,0.2,1.2,0.2,1.7v7
				h-2.7L486.5,345.8L486.5,345.8z M486.5,342h-0.6c-0.5,0-1,0-1.5,0.1s-1,0.1-1.4,0.3c-0.4,0.1-0.8,0.3-1.1,0.6s-0.4,0.6-0.4,1
				c0,0.3,0.1,0.5,0.2,0.7s0.3,0.3,0.5,0.4c0.2,0.1,0.4,0.2,0.6,0.2s0.5,0.1,0.7,0.1c1,0,1.7-0.3,2.3-0.8c0.5-0.5,0.8-1.2,0.8-2.2
				L486.5,342L486.5,342z"/>
			<path d="M490.3,338v-2.3h2v-3.3h2.8v3.3h2.9v2.3h-2.9v5.4c0,0.5,0.1,0.9,0.3,1.3s0.6,0.5,1.2,0.5c0.2,0,0.4,0,0.6-0.1
				c0.2,0,0.4-0.1,0.6-0.2l0.1,2.3c-0.3,0.1-0.6,0.2-0.9,0.2s-0.7,0.1-1,0.1c-0.8,0-1.4-0.1-1.9-0.3c-0.5-0.2-0.9-0.5-1.1-0.9
				c-0.3-0.4-0.5-0.8-0.6-1.3c-0.1-0.5-0.2-1-0.2-1.6V338L490.3,338L490.3,338z"/>
			<path d="M510.3,347.2h-2.7v-1.8h0c-0.3,0.6-0.7,1.1-1.3,1.5c-0.6,0.4-1.4,0.7-2.2,0.7c-0.8,0-1.4-0.1-1.9-0.4s-1-0.6-1.3-1
				s-0.6-0.9-0.8-1.5s-0.2-1.1-0.2-1.7v-7.2h2.9v6.4c0,0.3,0,0.7,0.1,1.1s0.2,0.7,0.3,1c0.2,0.3,0.4,0.5,0.7,0.7s0.7,0.3,1.1,0.3
				c0.4,0,0.8-0.1,1.2-0.3s0.6-0.4,0.8-0.7s0.4-0.6,0.5-1c0.1-0.4,0.2-0.8,0.2-1.1v-6.3h2.9L510.3,347.2L510.3,347.2z"/>
			<path d="M513.4,335.7h2.8v1.9h0c0.3-0.7,0.8-1.2,1.3-1.6s1.2-0.6,2-0.6c0.1,0,0.2,0,0.4,0s0.2,0,0.3,0.1v2.6
				c-0.2,0-0.4-0.1-0.5-0.1c-0.1,0-0.3,0-0.4,0c-0.7,0-1.2,0.1-1.6,0.4c-0.4,0.2-0.7,0.5-0.9,0.9c-0.2,0.3-0.4,0.7-0.5,1
				s-0.1,0.6-0.1,0.8v6.2h-2.9V335.7z"/>
			<path d="M532.3,341.6c0,0.1,0,0.3,0,0.4s0,0.3,0,0.4h-8.8c0,0.4,0.1,0.8,0.3,1.1c0.2,0.3,0.4,0.6,0.7,0.9s0.6,0.4,1,0.6
				c0.4,0.1,0.8,0.2,1.2,0.2c0.7,0,1.3-0.1,1.8-0.4s0.9-0.6,1.2-1.1l1.9,1.5c-1.1,1.5-2.8,2.3-4.9,2.3c-0.9,0-1.7-0.1-2.5-0.4
				c-0.8-0.3-1.4-0.7-2-1.2c-0.6-0.5-1-1.1-1.3-1.9s-0.5-1.6-0.5-2.5c0-0.9,0.2-1.8,0.5-2.5c0.3-0.8,0.7-1.4,1.3-1.9s1.2-1,1.9-1.2
				c0.7-0.3,1.5-0.4,2.4-0.4c0.8,0,1.5,0.1,2.2,0.4c0.7,0.3,1.3,0.7,1.8,1.2c0.5,0.5,0.9,1.2,1.2,1.9S532.3,340.6,532.3,341.6z
				 M529.5,340.3c0-0.4-0.1-0.7-0.2-1.1s-0.3-0.6-0.5-0.9c-0.2-0.3-0.5-0.5-0.9-0.6c-0.3-0.2-0.7-0.2-1.2-0.2
				c-0.9,0-1.6,0.3-2.2,0.8s-0.9,1.2-1,2H529.5z"/>
			<path d="M535.3,343.9h2.8l-2,6.3h-2.4L535.3,343.9z"/>
			<path d="M544.9,341.4c0-0.9,0.2-1.7,0.5-2.5s0.8-1.4,1.3-1.9c0.6-0.5,1.2-0.9,2-1.2s1.6-0.4,2.4-0.4c0.9,0,1.7,0.1,2.4,0.4
				c0.8,0.3,1.4,0.7,2,1.2c0.6,0.5,1,1.2,1.3,1.9s0.5,1.6,0.5,2.5s-0.2,1.7-0.5,2.5s-0.8,1.4-1.3,1.9c-0.6,0.5-1.2,1-2,1.3
				c-0.8,0.3-1.6,0.5-2.4,0.5c-0.9,0-1.7-0.2-2.4-0.5c-0.8-0.3-1.4-0.7-2-1.3c-0.6-0.5-1-1.2-1.3-1.9
				C545.1,343.2,544.9,342.3,544.9,341.4z M547.8,341.4c0,0.4,0.1,0.9,0.2,1.3c0.1,0.4,0.3,0.8,0.6,1.2c0.3,0.4,0.6,0.6,1,0.9
				s0.9,0.3,1.5,0.3s1.1-0.1,1.5-0.3s0.8-0.5,1-0.9c0.3-0.4,0.5-0.8,0.6-1.2s0.2-0.9,0.2-1.3s-0.1-0.9-0.2-1.3
				c-0.1-0.4-0.3-0.8-0.6-1.2s-0.6-0.6-1-0.9c-0.4-0.2-0.9-0.3-1.5-0.3s-1.1,0.1-1.5,0.3c-0.4,0.2-0.8,0.5-1,0.9s-0.5,0.7-0.6,1.2
				C547.9,340.5,547.8,341,547.8,341.4z"/>
			<path d="M570.4,347.2h-2.7v-1.8h0c-0.3,0.6-0.7,1.1-1.3,1.5c-0.6,0.4-1.4,0.7-2.2,0.7c-0.8,0-1.4-0.1-1.9-0.4s-1-0.6-1.3-1
				s-0.6-0.9-0.8-1.5s-0.2-1.1-0.2-1.7v-7.2h2.9v6.4c0,0.3,0,0.7,0.1,1.1c0,0.4,0.2,0.7,0.3,1c0.2,0.3,0.4,0.5,0.7,0.7
				s0.7,0.3,1.1,0.3c0.4,0,0.8-0.1,1.2-0.3s0.6-0.4,0.8-0.7s0.4-0.6,0.5-1c0.1-0.4,0.2-0.8,0.2-1.1v-6.3h2.9L570.4,347.2
				L570.4,347.2z"/>
			<path d="M573.5,335.7h2.8v1.9h0c0.3-0.7,0.8-1.2,1.3-1.6s1.2-0.6,2-0.6c0.1,0,0.2,0,0.4,0s0.2,0,0.3,0.1v2.6
				c-0.2,0-0.4-0.1-0.5-0.1c-0.1,0-0.3,0-0.4,0c-0.7,0-1.2,0.1-1.6,0.4c-0.4,0.2-0.7,0.5-0.9,0.9c-0.2,0.3-0.4,0.7-0.5,1
				s-0.1,0.6-0.1,0.8v6.2h-2.9V335.7z"/>
			<path d="M335,367.1v8.1h0.1c0.1-0.2,0.3-0.4,0.6-0.6c0.2-0.2,0.5-0.4,0.8-0.6c0.3-0.2,0.7-0.3,1.1-0.4c0.4-0.1,0.9-0.2,1.4-0.2
				c0.8,0,1.6,0.2,2.3,0.5c0.7,0.3,1.3,0.7,1.8,1.3s0.9,1.2,1.2,1.9c0.3,0.7,0.4,1.5,0.4,2.4s-0.1,1.6-0.4,2.4s-0.6,1.4-1.1,1.9
				c-0.5,0.6-1.1,1-1.8,1.3c-0.7,0.3-1.5,0.5-2.4,0.5c-0.8,0-1.6-0.2-2.3-0.5c-0.7-0.4-1.3-0.9-1.7-1.5h0v1.7h-2.7v-18.1L335,367.1
				L335,367.1z M341.6,379.4c0-0.4-0.1-0.9-0.2-1.3c-0.1-0.4-0.3-0.8-0.6-1.2c-0.3-0.4-0.6-0.6-1-0.9s-0.9-0.3-1.5-0.3
				c-0.5,0-1,0.1-1.4,0.3c-0.4,0.2-0.8,0.5-1.1,0.9c-0.3,0.4-0.5,0.8-0.7,1.2c-0.2,0.4-0.2,0.9-0.2,1.3c0,0.4,0.1,0.9,0.2,1.3
				c0.2,0.4,0.4,0.8,0.7,1.2s0.7,0.6,1.1,0.9c0.4,0.2,0.9,0.3,1.4,0.3c0.6,0,1-0.1,1.5-0.3s0.8-0.5,1-0.9c0.3-0.4,0.5-0.8,0.6-1.2
				C341.6,380.3,341.6,379.9,341.6,379.4z"/>
			<path d="M346.3,379.4c0-0.9,0.2-1.7,0.5-2.5s0.8-1.4,1.3-1.9c0.6-0.5,1.2-0.9,2-1.2c0.8-0.3,1.6-0.4,2.4-0.4
				c0.9,0,1.7,0.1,2.4,0.4c0.8,0.3,1.4,0.7,2,1.2c0.6,0.5,1,1.2,1.3,1.9s0.5,1.6,0.5,2.5s-0.2,1.7-0.5,2.5s-0.8,1.4-1.3,1.9
				c-0.6,0.5-1.2,1-2,1.3c-0.8,0.3-1.6,0.5-2.4,0.5c-0.9,0-1.7-0.2-2.4-0.5c-0.8-0.3-1.4-0.7-2-1.3c-0.6-0.5-1-1.2-1.3-1.9
				S346.3,380.3,346.3,379.4z M349.2,379.4c0,0.4,0.1,0.9,0.2,1.3c0.1,0.4,0.3,0.8,0.6,1.2c0.3,0.4,0.6,0.6,1,0.9s0.9,0.3,1.5,0.3
				s1.1-0.1,1.5-0.3s0.8-0.5,1-0.9c0.3-0.4,0.5-0.8,0.6-1.2c0.1-0.4,0.2-0.9,0.2-1.3c0-0.4-0.1-0.9-0.2-1.3
				c-0.1-0.4-0.3-0.8-0.6-1.2s-0.6-0.6-1-0.9s-0.9-0.3-1.5-0.3s-1.1,0.1-1.5,0.3s-0.8,0.5-1,0.9s-0.5,0.7-0.6,1.2
				C349.3,378.5,349.2,379,349.2,379.4z"/>
			<path d="M359.6,376v-2.3h2v-3.3h2.8v3.3h2.9v2.3h-2.9v5.4c0,0.5,0.1,0.9,0.3,1.3s0.6,0.5,1.2,0.5c0.2,0,0.4,0,0.6-0.1
				c0.2,0,0.4-0.1,0.6-0.2l0.1,2.3c-0.3,0.1-0.6,0.2-0.9,0.2s-0.7,0.1-1,0.1c-0.8,0-1.4-0.1-1.9-0.3c-0.5-0.2-0.9-0.5-1.1-0.9
				c-0.3-0.4-0.5-0.8-0.6-1.3c-0.1-0.5-0.2-1-0.2-1.6V376L359.6,376L359.6,376z"/>
			<path d="M376.2,383.8L376.2,383.8c-0.4,0.5-0.8,0.9-1.5,1.3c-0.6,0.3-1.4,0.5-2.2,0.5c-0.5,0-0.9-0.1-1.5-0.2s-1-0.3-1.4-0.6
				s-0.8-0.6-1.1-1.1s-0.4-1-0.4-1.7c0-0.9,0.2-1.6,0.7-2.1c0.5-0.5,1.1-0.9,1.9-1.2c0.8-0.3,1.6-0.5,2.6-0.5s1.9-0.1,2.7-0.1v-0.3
				c0-0.7-0.3-1.3-0.8-1.6s-1.1-0.5-1.9-0.5c-0.6,0-1.2,0.1-1.8,0.4c-0.6,0.3-1,0.6-1.4,0.9l-1.5-1.8c0.7-0.6,1.4-1.1,2.3-1.4
				c0.9-0.3,1.7-0.5,2.6-0.5c1,0,1.9,0.1,2.5,0.4s1.2,0.7,1.6,1.1c0.4,0.5,0.7,1,0.8,1.6s0.2,1.2,0.2,1.7v7h-2.7L376.2,383.8
				L376.2,383.8z M376.2,380h-0.6c-0.5,0-1,0-1.5,0.1s-1,0.1-1.4,0.3c-0.4,0.1-0.8,0.3-1.1,0.6s-0.4,0.6-0.4,1
				c0,0.3,0.1,0.5,0.2,0.7s0.3,0.3,0.5,0.4c0.2,0.1,0.4,0.2,0.6,0.2c0.2,0,0.5,0.1,0.7,0.1c1,0,1.7-0.3,2.3-0.8
				c0.5-0.5,0.8-1.2,0.8-2.2L376.2,380L376.2,380z"/>
			<path d="M381.9,373.7h2.7v1.8h0c0.3-0.6,0.7-1.1,1.3-1.5c0.6-0.4,1.4-0.7,2.2-0.7c0.8,0,1.4,0.1,1.9,0.4s1,0.6,1.3,1
				c0.3,0.4,0.6,0.9,0.8,1.5c0.2,0.6,0.2,1.1,0.2,1.7v7.2h-2.9v-6.4c0-0.3,0-0.7-0.1-1.1s-0.2-0.7-0.3-1s-0.4-0.5-0.7-0.7
				c-0.3-0.2-0.7-0.3-1.1-0.3s-0.9,0.1-1.2,0.3c-0.3,0.2-0.6,0.4-0.8,0.7c-0.2,0.3-0.4,0.6-0.5,1c-0.1,0.4-0.2,0.8-0.2,1.1v6.3h-2.9
				L381.9,373.7L381.9,373.7z"/>
			<path d="M395.2,369.8c0-0.5,0.2-0.9,0.5-1.2s0.8-0.5,1.3-0.5c0.5,0,1,0.2,1.3,0.5c0.4,0.3,0.5,0.7,0.5,1.2s-0.2,0.9-0.5,1.2
				c-0.4,0.3-0.8,0.5-1.3,0.5c-0.5,0-1-0.2-1.3-0.5S395.2,370.3,395.2,369.8z M395.6,373.7h2.9v11.5h-2.9V373.7z"/>
			<path d="M409.5,376.9c-0.2-0.3-0.6-0.6-1-0.8c-0.4-0.2-0.9-0.3-1.4-0.3c-0.5,0-1,0.1-1.4,0.3c-0.4,0.2-0.7,0.5-1,0.9
				s-0.5,0.7-0.6,1.2c-0.1,0.4-0.2,0.9-0.2,1.3c0,0.4,0.1,0.9,0.2,1.3c0.1,0.4,0.3,0.8,0.6,1.2c0.3,0.4,0.6,0.6,1,0.9
				c0.4,0.2,0.9,0.3,1.4,0.3c0.4,0,0.9-0.1,1.3-0.3c0.4-0.2,0.8-0.4,1.1-0.8l1.8,1.8c-0.5,0.5-1.1,0.9-1.8,1.2
				c-0.7,0.3-1.5,0.4-2.4,0.4c-0.8,0-1.7-0.1-2.4-0.4s-1.4-0.7-2-1.2c-0.6-0.5-1-1.2-1.3-1.9s-0.5-1.6-0.5-2.6
				c0-0.9,0.2-1.8,0.5-2.5s0.8-1.4,1.3-1.9c0.6-0.5,1.2-0.9,2-1.2c0.7-0.3,1.5-0.4,2.4-0.4c0.8,0,1.7,0.2,2.5,0.5s1.4,0.8,1.9,1.3
				L409.5,376.9z"/>
			<path d="M420.1,383.8L420.1,383.8c-0.4,0.5-0.8,0.9-1.5,1.3c-0.6,0.3-1.4,0.5-2.2,0.5c-0.5,0-0.9-0.1-1.5-0.2s-1-0.3-1.4-0.6
				s-0.8-0.6-1.1-1.1s-0.4-1-0.4-1.7c0-0.9,0.2-1.6,0.7-2.1c0.5-0.5,1.1-0.9,1.9-1.2c0.8-0.3,1.6-0.5,2.6-0.5s1.9-0.1,2.7-0.1v-0.3
				c0-0.7-0.3-1.3-0.8-1.6s-1.1-0.5-1.9-0.5c-0.6,0-1.2,0.1-1.8,0.4c-0.6,0.3-1,0.6-1.4,0.9l-1.5-1.8c0.7-0.6,1.4-1.1,2.3-1.4
				c0.9-0.3,1.7-0.5,2.6-0.5c1,0,1.9,0.1,2.5,0.4s1.2,0.7,1.6,1.1c0.4,0.5,0.7,1,0.8,1.6s0.2,1.2,0.2,1.7v7h-2.7L420.1,383.8
				L420.1,383.8z M420,380h-0.6c-0.5,0-1,0-1.5,0.1s-1,0.1-1.4,0.3c-0.4,0.1-0.8,0.3-1.1,0.6s-0.4,0.6-0.4,1c0,0.3,0.1,0.5,0.2,0.7
				s0.3,0.3,0.5,0.4c0.2,0.1,0.4,0.2,0.6,0.2c0.2,0,0.5,0.1,0.7,0.1c1,0,1.7-0.3,2.3-0.8c0.5-0.5,0.8-1.2,0.8-2.2L420,380L420,380z"
				/>
			<path d="M425.8,367.1h2.9v18.1h-2.9V367.1z"/>
			<path d="M432.4,381.9h2.8l-2,6.3h-2.4L432.4,381.9z"/>
			<path d="M446.1,383.1h8.9v2.1h-11.3v-17h10.9v2.1h-8.5v5.1h8v2h-8V383.1z"/>
			<path d="M457.8,368.2h5.2c0.9,0,1.7,0.1,2.5,0.3s1.4,0.5,1.9,0.9s0.9,0.9,1.2,1.5s0.4,1.3,0.4,2.1c0,0.8-0.2,1.6-0.5,2.2
				c-0.3,0.6-0.7,1.1-1.3,1.5c-0.6,0.4-1.2,0.7-2,0.9s-1.6,0.3-2.5,0.3h-2.7v7.5h-2.4L457.8,368.2L457.8,368.2z M460.1,375.7h2.5
				c0.6,0,1.1-0.1,1.6-0.2c0.5-0.1,0.9-0.3,1.3-0.5c0.4-0.2,0.6-0.5,0.8-0.9c0.2-0.4,0.3-0.8,0.3-1.3s-0.1-0.9-0.3-1.3
				s-0.5-0.6-0.8-0.8c-0.3-0.2-0.8-0.4-1.2-0.5c-0.5-0.1-1-0.1-1.6-0.1h-2.6L460.1,375.7L460.1,375.7z"/>
			<path d="M470.9,385.2h-2.6l7.4-17h2.2l7.3,17h-2.7l-1.7-4.2h-8.1L470.9,385.2z M473.5,379h6.4l-3.2-8L473.5,379z"/>
			<path d="M491.5,380.3h-5.6v-1.9h5.6V380.3z"/>
			<path d="M494.1,375.1c0-0.5,0-0.9-0.1-1.3h2.1c0,0.3,0.1,0.6,0.1,1c0,0.4,0,0.7,0,0.9h0.1c0.3-0.7,0.8-1.2,1.4-1.6
				s1.3-0.6,2.1-0.6c0.4,0,0.6,0,0.9,0.1l-0.1,2.1c-0.3-0.1-0.7-0.1-1-0.1c-0.5,0-1,0.1-1.4,0.3c-0.4,0.2-0.7,0.5-1,0.8
				c-0.3,0.3-0.5,0.7-0.6,1.2s-0.2,0.9-0.2,1.4v6h-2.3v-8.9C494.2,376,494.1,375.6,494.1,375.1z"/>
			<path d="M512.7,379.4c0,0.1,0,0.3,0,0.4s0,0.3,0,0.4h-9c0,0.5,0.1,0.9,0.3,1.3c0.2,0.4,0.5,0.8,0.8,1.1s0.7,0.6,1.2,0.7
				s0.9,0.3,1.4,0.3c0.8,0,1.4-0.2,2-0.5s1-0.7,1.3-1.2l1.6,1.3c-0.6,0.8-1.3,1.4-2.1,1.8c-0.8,0.4-1.7,0.6-2.7,0.6
				c-0.9,0-1.7-0.1-2.4-0.4c-0.7-0.3-1.4-0.7-1.9-1.2c-0.5-0.5-0.9-1.1-1.2-1.9c-0.3-0.7-0.5-1.6-0.5-2.4c0-0.9,0.1-1.7,0.4-2.4
				s0.7-1.4,1.2-1.9c0.5-0.5,1.2-0.9,1.9-1.2c0.7-0.3,1.5-0.4,2.3-0.4c0.8,0,1.6,0.1,2.3,0.4c0.7,0.3,1.3,0.7,1.7,1.2
				c0.5,0.5,0.8,1.1,1.1,1.9C512.6,377.7,512.7,378.5,512.7,379.4z M510.4,378.5c0-0.4-0.1-0.9-0.2-1.3c-0.1-0.4-0.3-0.7-0.6-1
				c-0.3-0.3-0.6-0.5-1-0.7c-0.4-0.2-0.9-0.3-1.4-0.3c-0.5,0-0.9,0.1-1.4,0.3s-0.8,0.4-1.1,0.7s-0.6,0.6-0.8,1
				c-0.2,0.4-0.3,0.8-0.3,1.3H510.4z"/>
			<path d="M516.3,387.2c0.5,0.6,1.1,1,1.9,1.3c0.7,0.3,1.5,0.5,2.3,0.5c0.8,0,1.4-0.1,1.9-0.3c0.5-0.2,0.9-0.5,1.2-0.9
				c0.3-0.4,0.5-0.8,0.7-1.3c0.1-0.5,0.2-1.1,0.2-1.7v-1.5h0c-0.4,0.6-1,1.1-1.7,1.5c-0.7,0.3-1.5,0.5-2.3,0.5
				c-0.9,0-1.7-0.2-2.4-0.5s-1.3-0.7-1.8-1.2s-0.9-1.1-1.2-1.9c-0.3-0.7-0.4-1.5-0.4-2.3c0-0.8,0.1-1.6,0.4-2.3
				c0.3-0.7,0.7-1.3,1.2-1.9c0.5-0.5,1.1-1,1.8-1.3c0.7-0.3,1.5-0.5,2.4-0.5c0.8,0,1.6,0.2,2.3,0.5c0.7,0.4,1.3,0.9,1.8,1.6h0v-1.8
				h2.2v10.8c0,0.8-0.1,1.6-0.3,2.4c-0.2,0.8-0.6,1.4-1.1,2c-0.5,0.6-1.1,1.1-1.9,1.4c-0.8,0.4-1.8,0.5-3,0.5c-1,0-2-0.2-3-0.5
				s-1.9-0.9-2.6-1.5L516.3,387.2z M517,379.4c0,0.5,0.1,1,0.3,1.5c0.2,0.5,0.4,0.9,0.7,1.3s0.7,0.7,1.2,0.9c0.5,0.2,1,0.3,1.6,0.3
				c0.6,0,1.1-0.1,1.6-0.3s0.9-0.5,1.2-0.9c0.3-0.4,0.6-0.8,0.8-1.3s0.3-1,0.3-1.6c0-0.5-0.1-1.1-0.3-1.5c-0.2-0.5-0.4-0.9-0.8-1.3
				c-0.3-0.4-0.8-0.7-1.2-0.9c-0.5-0.2-1-0.3-1.6-0.3c-0.6,0-1.1,0.1-1.6,0.3c-0.5,0.2-0.9,0.5-1.2,0.9c-0.3,0.4-0.6,0.8-0.7,1.3
				C517.1,378.4,517,378.9,517,379.4z"/>
			<path d="M532.9,369.7c0,0.4-0.1,0.8-0.4,1c-0.3,0.3-0.6,0.4-1.1,0.4s-0.8-0.1-1-0.4c-0.3-0.3-0.4-0.6-0.4-1c0-0.4,0.1-0.8,0.4-1
				c0.3-0.3,0.6-0.4,1-0.4s0.8,0.1,1.1,0.4C532.7,369,532.9,369.3,532.9,369.7z M532.5,385.2h-2.3v-11.4h2.3V385.2z"/>
			<path d="M542.2,376.7c-0.3-0.4-0.6-0.8-1.1-1c-0.5-0.3-1-0.4-1.6-0.4c-0.3,0-0.5,0-0.8,0.1c-0.3,0.1-0.5,0.1-0.7,0.3
				s-0.4,0.3-0.5,0.5c-0.1,0.2-0.2,0.4-0.2,0.7c0,0.5,0.2,0.8,0.6,1.1s1.1,0.4,1.9,0.6c0.5,0.1,1,0.3,1.5,0.5
				c0.5,0.2,0.9,0.4,1.2,0.7c0.3,0.3,0.6,0.6,0.8,0.9s0.3,0.8,0.3,1.3c0,0.7-0.1,1.2-0.4,1.7c-0.3,0.5-0.6,0.8-1,1.1
				s-0.9,0.5-1.5,0.6c-0.5,0.1-1.1,0.2-1.7,0.2c-0.9,0-1.7-0.2-2.5-0.5s-1.5-0.8-2.1-1.5l1.6-1.4c0.3,0.4,0.7,0.8,1.3,1.1
				c0.5,0.3,1.1,0.5,1.8,0.5c0.3,0,0.6,0,0.8-0.1c0.3-0.1,0.5-0.1,0.7-0.3c0.2-0.1,0.4-0.3,0.5-0.5c0.1-0.2,0.2-0.5,0.2-0.8
				c0-0.5-0.3-0.9-0.8-1.2c-0.5-0.3-1.2-0.5-2.2-0.7c-0.4-0.1-0.8-0.2-1.2-0.3c-0.4-0.1-0.7-0.3-1.1-0.6s-0.6-0.5-0.8-0.9
				c-0.2-0.4-0.3-0.8-0.3-1.3c0-0.6,0.1-1.1,0.4-1.6s0.6-0.8,1-1.1c0.4-0.3,0.9-0.5,1.4-0.6c0.5-0.1,1-0.2,1.6-0.2
				c0.8,0,1.6,0.2,2.4,0.5c0.8,0.3,1.3,0.8,1.8,1.4L542.2,376.7z"/>
			<path d="M552,375.7h-3v5.9c0,0.7,0.1,1.2,0.4,1.5s0.7,0.4,1.2,0.4c0.2,0,0.4,0,0.7-0.1c0.2,0,0.5-0.1,0.6-0.2l0.1,1.8
				c-0.3,0.1-0.6,0.2-0.9,0.2s-0.7,0.1-1,0.1c-1.1,0-1.9-0.3-2.5-0.9c-0.6-0.6-0.9-1.5-0.9-2.7v-6.2h-2.2v-1.8h2.2v-3.3h2.2v3.3h3
				L552,375.7L552,375.7z"/>
			<path d="M564.6,379.4c0,0.1,0,0.3,0,0.4s0,0.3,0,0.4h-9c0,0.5,0.1,0.9,0.3,1.3c0.2,0.4,0.5,0.8,0.8,1.1s0.7,0.6,1.2,0.7
				s0.9,0.3,1.4,0.3c0.8,0,1.4-0.2,2-0.5s1-0.7,1.3-1.2l1.6,1.3c-0.6,0.8-1.3,1.4-2.1,1.8c-0.8,0.4-1.7,0.6-2.7,0.6
				c-0.9,0-1.7-0.1-2.4-0.4c-0.7-0.3-1.4-0.7-1.9-1.2s-0.9-1.1-1.2-1.9c-0.3-0.7-0.5-1.6-0.5-2.4c0-0.9,0.1-1.7,0.4-2.4
				s0.7-1.4,1.2-1.9c0.5-0.5,1.2-0.9,1.9-1.2c0.7-0.3,1.5-0.4,2.3-0.4c0.8,0,1.6,0.1,2.3,0.4c0.7,0.3,1.3,0.7,1.7,1.2
				c0.5,0.5,0.8,1.1,1.1,1.9C564.4,377.7,564.6,378.5,564.6,379.4z M562.3,378.5c0-0.4-0.1-0.9-0.2-1.3c-0.1-0.4-0.3-0.7-0.6-1
				c-0.3-0.3-0.6-0.5-1-0.7c-0.4-0.2-0.9-0.3-1.4-0.3c-0.5,0-0.9,0.1-1.4,0.3s-0.8,0.4-1.1,0.7s-0.6,0.6-0.8,1
				c-0.2,0.4-0.3,0.8-0.3,1.3H562.3z"/>
			<path d="M567.3,375.1c0-0.5,0-0.9-0.1-1.3h2.1c0,0.3,0.1,0.6,0.1,1c0,0.4,0,0.7,0,0.9h0.1c0.3-0.7,0.8-1.2,1.4-1.6
				s1.3-0.6,2.1-0.6c0.4,0,0.6,0,0.9,0.1l-0.1,2.1c-0.3-0.1-0.7-0.1-1-0.1c-0.5,0-1,0.1-1.4,0.3c-0.4,0.2-0.7,0.5-1,0.8
				c-0.3,0.3-0.5,0.7-0.6,1.2s-0.2,0.9-0.2,1.4v6h-2.3v-8.9C567.3,376,567.3,375.6,567.3,375.1z"/>
			<path d="M585.9,379.4c0,0.1,0,0.3,0,0.4s0,0.3,0,0.4h-9c0,0.5,0.1,0.9,0.3,1.3c0.2,0.4,0.5,0.8,0.8,1.1s0.7,0.6,1.2,0.7
				s0.9,0.3,1.4,0.3c0.8,0,1.4-0.2,2-0.5s1-0.7,1.3-1.2l1.6,1.3c-0.6,0.8-1.3,1.4-2.1,1.8c-0.8,0.4-1.7,0.6-2.7,0.6
				c-0.9,0-1.7-0.1-2.4-0.4c-0.7-0.3-1.4-0.7-1.9-1.2s-0.9-1.1-1.2-1.9c-0.3-0.7-0.5-1.6-0.5-2.4c0-0.9,0.1-1.7,0.4-2.4
				s0.7-1.4,1.2-1.9c0.5-0.5,1.2-0.9,1.9-1.2c0.7-0.3,1.5-0.4,2.3-0.4c0.8,0,1.6,0.1,2.3,0.4c0.7,0.3,1.3,0.7,1.7,1.2
				c0.5,0.5,0.8,1.1,1.1,1.9C585.7,377.7,585.9,378.5,585.9,379.4z M583.6,378.5c0-0.4-0.1-0.9-0.2-1.3c-0.1-0.4-0.3-0.7-0.6-1
				c-0.3-0.3-0.6-0.5-1-0.7c-0.4-0.2-0.9-0.3-1.4-0.3c-0.5,0-0.9,0.1-1.4,0.3s-0.8,0.4-1.1,0.7s-0.6,0.6-0.8,1
				c-0.2,0.4-0.3,0.8-0.3,1.3H583.6z"/>
			<path d="M597.7,383.4c-0.4,0.7-1,1.2-1.8,1.6s-1.5,0.5-2.3,0.5c-0.9,0-1.7-0.2-2.4-0.5c-0.7-0.3-1.3-0.7-1.8-1.3
				c-0.5-0.5-0.9-1.2-1.2-1.9c-0.3-0.7-0.4-1.5-0.4-2.4s0.1-1.6,0.4-2.3c0.3-0.7,0.7-1.4,1.2-1.9c0.5-0.5,1.1-1,1.8-1.3
				c0.7-0.3,1.5-0.5,2.3-0.5c0.9,0,1.7,0.2,2.4,0.6c0.7,0.4,1.2,0.9,1.6,1.4h0v-8.5h2.3v18.1h-2.2L597.7,383.4L597.7,383.4
				L597.7,383.4z M590.2,379.5c0,0.5,0.1,1,0.2,1.5c0.2,0.5,0.4,0.9,0.7,1.3c0.3,0.4,0.7,0.7,1.2,0.9c0.5,0.2,1,0.3,1.6,0.3
				c0.6,0,1.1-0.1,1.6-0.3c0.5-0.2,0.9-0.5,1.2-0.9s0.6-0.8,0.8-1.3s0.3-1,0.3-1.6c0-0.5-0.1-1.1-0.3-1.6c-0.2-0.5-0.4-0.9-0.8-1.3
				s-0.7-0.7-1.2-0.9c-0.5-0.2-1-0.3-1.6-0.3c-0.6,0-1.2,0.1-1.6,0.3c-0.5,0.2-0.9,0.5-1.2,0.9s-0.6,0.8-0.7,1.3
				C590.3,378.5,590.2,379,590.2,379.5z"/>
			<path d="M334.8,421.1h7.6v2.1h-10v-17h2.4L334.8,421.1L334.8,421.1z"/>
			<path d="M346.9,407.7c0,0.4-0.1,0.8-0.4,1c-0.3,0.3-0.6,0.4-1.1,0.4s-0.8-0.1-1-0.4c-0.3-0.3-0.4-0.6-0.4-1c0-0.4,0.1-0.8,0.4-1
				c0.3-0.3,0.6-0.4,1-0.4s0.8,0.1,1.1,0.4C346.7,407,346.9,407.3,346.9,407.7z M346.5,423.2h-2.3v-11.4h2.3V423.2z"/>
			<path d="M356.2,414.7c-0.3-0.4-0.6-0.8-1.1-1c-0.5-0.3-1-0.4-1.6-0.4c-0.3,0-0.5,0-0.8,0.1c-0.3,0.1-0.5,0.1-0.7,0.3
				s-0.4,0.3-0.5,0.5c-0.1,0.2-0.2,0.4-0.2,0.7c0,0.5,0.2,0.8,0.6,1.1s1.1,0.4,1.9,0.6c0.5,0.1,1,0.3,1.5,0.5
				c0.5,0.2,0.9,0.4,1.2,0.7c0.3,0.3,0.6,0.6,0.8,0.9s0.3,0.8,0.3,1.3c0,0.7-0.1,1.2-0.4,1.7c-0.3,0.5-0.6,0.8-1,1.1
				s-0.9,0.5-1.5,0.6c-0.5,0.1-1.1,0.2-1.7,0.2c-0.9,0-1.7-0.2-2.5-0.5s-1.5-0.8-2.1-1.5l1.6-1.4c0.3,0.4,0.7,0.8,1.3,1.1
				c0.5,0.3,1.1,0.5,1.8,0.5c0.3,0,0.6,0,0.8-0.1c0.3-0.1,0.5-0.1,0.7-0.3c0.2-0.1,0.4-0.3,0.5-0.5c0.1-0.2,0.2-0.5,0.2-0.8
				c0-0.5-0.3-0.9-0.8-1.2c-0.5-0.3-1.2-0.5-2.2-0.7c-0.4-0.1-0.8-0.2-1.2-0.3c-0.4-0.1-0.7-0.3-1.1-0.6s-0.6-0.5-0.8-0.9
				c-0.2-0.4-0.3-0.8-0.3-1.3c0-0.6,0.1-1.1,0.4-1.6s0.6-0.8,1-1.1c0.4-0.3,0.9-0.5,1.4-0.6c0.5-0.1,1-0.2,1.6-0.2
				c0.8,0,1.6,0.2,2.4,0.5c0.8,0.3,1.3,0.8,1.8,1.4L356.2,414.7z"/>
			<path d="M365.9,413.7h-3v5.9c0,0.7,0.1,1.2,0.4,1.5s0.7,0.4,1.2,0.4c0.2,0,0.4,0,0.7-0.1c0.2,0,0.5-0.1,0.6-0.2l0.1,1.8
				c-0.3,0.1-0.6,0.2-0.9,0.2s-0.7,0.1-1,0.1c-1.1,0-1.9-0.3-2.5-0.9c-0.6-0.6-0.9-1.5-0.9-2.7v-6.2h-2.2v-1.8h2.2v-3.3h2.2v3.3h3
				L365.9,413.7L365.9,413.7z"/>
			<path d="M385.7,419.8L385.7,419.8l0-13.6h2.4v17h-3l-9-13.9h0v13.9h-2.4v-17h3.1L385.7,419.8z"/>
			<path d="M406.4,421.4c-0.4,0.7-1,1.2-1.8,1.6s-1.5,0.5-2.3,0.5c-0.9,0-1.7-0.2-2.4-0.5c-0.7-0.3-1.3-0.7-1.8-1.3
				c-0.5-0.5-0.9-1.2-1.2-1.9c-0.3-0.7-0.4-1.5-0.4-2.4s0.1-1.6,0.4-2.3c0.3-0.7,0.7-1.4,1.2-1.9c0.5-0.5,1.1-1,1.8-1.3
				c0.7-0.3,1.5-0.5,2.3-0.5c0.9,0,1.7,0.2,2.4,0.6c0.7,0.4,1.2,0.9,1.6,1.4h0v-8.5h2.3v18.1h-2.2L406.4,421.4L406.4,421.4
				L406.4,421.4z M398.9,417.5c0,0.5,0.1,1,0.2,1.5c0.2,0.5,0.4,0.9,0.7,1.3c0.3,0.4,0.7,0.7,1.2,0.9s1,0.3,1.6,0.3
				c0.6,0,1.1-0.1,1.6-0.3c0.5-0.2,0.9-0.5,1.2-0.9s0.6-0.8,0.8-1.3s0.3-1,0.3-1.6c0-0.5-0.1-1.1-0.3-1.6c-0.2-0.5-0.4-0.9-0.8-1.3
				s-0.7-0.7-1.2-0.9c-0.5-0.2-1-0.3-1.6-0.3c-0.6,0-1.2,0.1-1.6,0.3c-0.5,0.2-0.9,0.5-1.2,0.9s-0.6,0.8-0.7,1.3
				C399,416.5,398.9,417,398.9,417.5z"/>
			<path d="M414.9,407.7c0,0.4-0.1,0.8-0.4,1c-0.3,0.3-0.6,0.4-1.1,0.4s-0.8-0.1-1-0.4c-0.3-0.3-0.4-0.6-0.4-1c0-0.4,0.1-0.8,0.4-1
				c0.3-0.3,0.6-0.4,1-0.4s0.8,0.1,1.1,0.4C414.7,407,414.9,407.3,414.9,407.7z M414.5,423.2h-2.3v-11.4h2.3V423.2z"/>
			<path d="M424.2,414.7c-0.3-0.4-0.6-0.8-1.1-1c-0.5-0.3-1-0.4-1.6-0.4c-0.3,0-0.5,0-0.8,0.1c-0.3,0.1-0.5,0.1-0.7,0.3
				s-0.4,0.3-0.5,0.5c-0.1,0.2-0.2,0.4-0.2,0.7c0,0.5,0.2,0.8,0.6,1.1s1.1,0.4,1.9,0.6c0.5,0.1,1,0.3,1.5,0.5
				c0.5,0.2,0.9,0.4,1.2,0.7c0.3,0.3,0.6,0.6,0.8,0.9s0.3,0.8,0.3,1.3c0,0.7-0.1,1.2-0.4,1.7c-0.3,0.5-0.6,0.8-1,1.1
				s-0.9,0.5-1.5,0.6c-0.5,0.1-1.1,0.2-1.7,0.2c-0.9,0-1.7-0.2-2.5-0.5s-1.5-0.8-2.1-1.5l1.6-1.4c0.3,0.4,0.7,0.8,1.3,1.1
				c0.5,0.3,1.1,0.5,1.8,0.5c0.3,0,0.6,0,0.8-0.1c0.3-0.1,0.5-0.1,0.7-0.3c0.2-0.1,0.4-0.3,0.5-0.5c0.1-0.2,0.2-0.5,0.2-0.8
				c0-0.5-0.3-0.9-0.8-1.2c-0.5-0.3-1.2-0.5-2.2-0.7c-0.4-0.1-0.8-0.2-1.2-0.3c-0.4-0.1-0.7-0.3-1.1-0.6s-0.6-0.5-0.8-0.9
				c-0.2-0.4-0.3-0.8-0.3-1.3c0-0.6,0.1-1.1,0.4-1.6s0.6-0.8,1-1.1c0.4-0.3,0.9-0.5,1.4-0.6c0.5-0.1,1-0.2,1.6-0.2
				c0.8,0,1.6,0.2,2.4,0.5c0.8,0.3,1.3,0.8,1.8,1.4L424.2,414.7z"/>
			<path d="M431,407.7c0,0.4-0.1,0.8-0.4,1c-0.3,0.3-0.6,0.4-1.1,0.4s-0.8-0.1-1-0.4c-0.3-0.3-0.4-0.6-0.4-1c0-0.4,0.1-0.8,0.4-1
				c0.3-0.3,0.6-0.4,1-0.4s0.8,0.1,1.1,0.4C430.9,407,431,407.3,431,407.7z M430.7,423.2h-2.3v-11.4h2.3V423.2z"/>
			<path d="M436.3,411.9c0,0.3,0.1,0.6,0.1,1c0,0.4,0,0.7,0,0.9h0.1c0.1-0.3,0.3-0.6,0.6-0.9s0.5-0.5,0.9-0.7
				c0.3-0.2,0.7-0.4,1.1-0.5c0.4-0.1,0.8-0.2,1.2-0.2c0.7,0,1.4,0.1,1.9,0.4s1,0.6,1.3,1c0.4,0.4,0.6,0.9,0.8,1.5s0.3,1.2,0.3,1.8
				v7.1h-2.3v-6.3c0-0.5,0-0.9-0.1-1.3c-0.1-0.4-0.2-0.8-0.4-1.1s-0.5-0.6-0.8-0.8c-0.3-0.2-0.8-0.3-1.3-0.3c-0.9,0-1.6,0.3-2.2,1
				c-0.6,0.7-0.9,1.6-0.9,2.7v6h-2.3v-8.9c0-0.3,0-0.7,0-1.2s0-0.9-0.1-1.3H436.3z"/>
			<path d="M453.2,413.7h-2.6v9.5h-2.3v-9.5h-2.3v-1.8h2.3v-2.4c0-0.7,0.1-1.3,0.2-1.9s0.4-1.1,0.7-1.5c0.3-0.4,0.8-0.7,1.3-1
				c0.5-0.2,1.2-0.4,2-0.4c0.5,0,1,0.1,1.4,0.2l-0.3,1.9c-0.2,0-0.4-0.1-0.5-0.1c-0.2,0-0.4,0-0.6,0c-0.4,0-0.8,0.1-1,0.2
				c-0.3,0.2-0.5,0.4-0.6,0.6c-0.1,0.3-0.2,0.5-0.3,0.9c0,0.3-0.1,0.7-0.1,1v2.4h2.6L453.2,413.7L453.2,413.7z"/>
			<path d="M465.6,417.4c0,0.1,0,0.3,0,0.4s0,0.3,0,0.4h-9c0,0.5,0.1,0.9,0.3,1.3c0.2,0.4,0.5,0.8,0.8,1.1s0.7,0.6,1.2,0.7
				s0.9,0.3,1.4,0.3c0.8,0,1.4-0.2,2-0.5s1-0.7,1.3-1.2l1.6,1.3c-0.6,0.8-1.3,1.4-2.1,1.8c-0.8,0.4-1.7,0.6-2.7,0.6
				c-0.9,0-1.7-0.1-2.4-0.4c-0.7-0.3-1.4-0.7-1.9-1.2c-0.5-0.5-0.9-1.1-1.2-1.9c-0.3-0.7-0.5-1.6-0.5-2.4c0-0.9,0.1-1.7,0.4-2.4
				s0.7-1.4,1.2-1.9c0.5-0.5,1.2-0.9,1.9-1.2c0.7-0.3,1.5-0.4,2.3-0.4c0.8,0,1.6,0.1,2.3,0.4s1.3,0.7,1.7,1.2
				c0.5,0.5,0.8,1.1,1.1,1.9C465.4,415.7,465.6,416.5,465.6,417.4z M463.3,416.5c0-0.4-0.1-0.9-0.2-1.3c-0.1-0.4-0.3-0.7-0.6-1
				c-0.3-0.3-0.6-0.5-1-0.7c-0.4-0.2-0.9-0.3-1.4-0.3c-0.5,0-0.9,0.1-1.4,0.3s-0.8,0.4-1.1,0.7s-0.6,0.6-0.8,1
				c-0.2,0.4-0.3,0.8-0.3,1.3H463.3z"/>
			<path d="M476.3,414.7c-0.2-0.4-0.6-0.7-1.1-0.9c-0.5-0.2-1-0.4-1.5-0.4c-0.6,0-1.1,0.1-1.6,0.3c-0.5,0.2-0.8,0.5-1.2,0.9
				c-0.3,0.4-0.6,0.8-0.7,1.3s-0.3,1-0.3,1.6s0.1,1.1,0.3,1.6s0.4,0.9,0.7,1.3c0.3,0.4,0.7,0.7,1.2,0.9c0.5,0.2,1,0.3,1.6,0.3
				c0.6,0,1.1-0.1,1.6-0.3c0.5-0.2,0.9-0.5,1.2-0.9l1.5,1.4c-0.5,0.6-1.1,1-1.8,1.3c-0.7,0.3-1.5,0.5-2.4,0.5
				c-0.9,0-1.7-0.1-2.4-0.4c-0.7-0.3-1.4-0.7-1.9-1.2s-1-1.1-1.3-1.9c-0.3-0.7-0.5-1.6-0.5-2.5c0-0.9,0.2-1.7,0.5-2.4
				c0.3-0.7,0.7-1.4,1.3-1.9c0.5-0.5,1.2-0.9,1.9-1.2c0.7-0.3,1.5-0.4,2.4-0.4c0.8,0,1.6,0.2,2.4,0.5c0.8,0.3,1.4,0.8,1.9,1.4
				L476.3,414.7z"/>
			<path d="M485.4,413.7h-3v5.9c0,0.7,0.1,1.2,0.4,1.5s0.7,0.4,1.2,0.4c0.2,0,0.4,0,0.7-0.1c0.2,0,0.5-0.1,0.6-0.2l0.1,1.8
				c-0.3,0.1-0.6,0.2-0.9,0.2s-0.7,0.1-1,0.1c-1.1,0-1.9-0.3-2.5-0.9c-0.6-0.6-0.9-1.5-0.9-2.7v-6.2H478v-1.8h2.2v-3.3h2.2v3.3h3
				L485.4,413.7L485.4,413.7z"/>
			<path d="M494.4,415.9c0-0.8-0.3-1.5-0.8-1.9c-0.5-0.4-1.2-0.6-2-0.6c-0.6,0-1.2,0.1-1.8,0.4c-0.6,0.2-1,0.6-1.4,0.9l-1.2-1.4
				c0.6-0.5,1.2-0.9,2.1-1.2c0.8-0.3,1.7-0.5,2.6-0.5c0.8,0,1.5,0.1,2.1,0.3c0.6,0.2,1.1,0.5,1.5,0.9s0.7,0.9,0.9,1.4
				c0.2,0.5,0.3,1.1,0.3,1.8v5c0,0.4,0,0.8,0,1.2c0,0.4,0.1,0.8,0.1,1h-2c-0.1-0.5-0.2-1.1-0.2-1.6h-0.1c-0.4,0.6-0.9,1.1-1.6,1.4
				s-1.4,0.5-2.2,0.5c-0.4,0-0.9-0.1-1.4-0.2c-0.5-0.1-0.9-0.3-1.3-0.6c-0.4-0.3-0.7-0.6-1-1.1c-0.3-0.4-0.4-1-0.4-1.7
				c0-0.9,0.2-1.5,0.7-2.1s1.1-0.9,1.8-1.2c0.8-0.3,1.6-0.4,2.5-0.5s1.9-0.1,2.9-0.1L494.4,415.9L494.4,415.9z M493.9,417.8
				c-0.6,0-1.1,0-1.7,0.1c-0.6,0-1.1,0.1-1.6,0.3s-0.9,0.4-1.2,0.6c-0.3,0.3-0.5,0.7-0.5,1.2c0,0.3,0.1,0.6,0.2,0.8
				c0.1,0.2,0.3,0.4,0.5,0.6c0.2,0.1,0.5,0.2,0.7,0.3c0.3,0.1,0.6,0.1,0.8,0.1c1.1,0,1.9-0.3,2.4-0.9s0.9-1.4,0.9-2.4v-0.6
				L493.9,417.8L493.9,417.8z"/>
			<path d="M502,411.9c0,0.3,0.1,0.6,0.1,1c0,0.4,0,0.7,0,0.9h0.1c0.1-0.3,0.3-0.6,0.6-0.9s0.5-0.5,0.9-0.7c0.3-0.2,0.7-0.4,1.1-0.5
				c0.4-0.1,0.8-0.2,1.2-0.2c0.7,0,1.4,0.1,1.9,0.4s1,0.6,1.3,1c0.4,0.4,0.6,0.9,0.8,1.5s0.3,1.2,0.3,1.8v7.1h-2.3v-6.3
				c0-0.5,0-0.9-0.1-1.3c-0.1-0.4-0.2-0.8-0.4-1.1s-0.5-0.6-0.8-0.8c-0.3-0.2-0.8-0.3-1.3-0.3c-0.9,0-1.6,0.3-2.2,1
				c-0.6,0.7-0.9,1.6-0.9,2.7v6H500v-8.9c0-0.3,0-0.7,0-1.2s0-0.9-0.1-1.3H502z"/>
			<path d="M519.2,413.7h-3v5.9c0,0.7,0.1,1.2,0.4,1.5s0.7,0.4,1.2,0.4c0.2,0,0.4,0,0.7-0.1c0.2,0,0.5-0.1,0.6-0.2l0.1,1.8
				c-0.3,0.1-0.6,0.2-0.9,0.2s-0.7,0.1-1,0.1c-1.1,0-1.9-0.3-2.5-0.9c-0.6-0.6-0.9-1.5-0.9-2.7v-6.2h-2.2v-1.8h2.2v-3.3h2.2v3.3h3
				L519.2,413.7L519.2,413.7z"/>
			<path d="M529.1,416.8L529.1,416.8l4.8-4.9h3l-5.3,5.2l5.8,6.2h-3.1l-5.1-5.9h-0.1v5.9h-2.3v-18.1h2.3L529.1,416.8L529.1,416.8z"
				/>
			<path d="M541.7,407.7c0,0.4-0.1,0.8-0.4,1c-0.3,0.3-0.6,0.4-1.1,0.4s-0.8-0.1-1-0.4c-0.3-0.3-0.4-0.6-0.4-1c0-0.4,0.1-0.8,0.4-1
				c0.3-0.3,0.6-0.4,1-0.4s0.8,0.1,1.1,0.4C541.6,407,541.7,407.3,541.7,407.7z M541.4,423.2h-2.3v-11.4h2.3V423.2z"/>
			<path d="M547.2,423.2H545v-18.1h2.3V423.2z"/>
			<path d="M553.1,423.2h-2.3v-18.1h2.3V423.2z"/>
			<path d="M562.8,414.7c-0.3-0.4-0.6-0.8-1.1-1c-0.5-0.3-1-0.4-1.6-0.4c-0.3,0-0.5,0-0.8,0.1c-0.3,0.1-0.5,0.1-0.7,0.3
				s-0.4,0.3-0.5,0.5c-0.1,0.2-0.2,0.4-0.2,0.7c0,0.5,0.2,0.8,0.6,1.1s1.1,0.4,1.9,0.6c0.5,0.1,1,0.3,1.5,0.5
				c0.5,0.2,0.9,0.4,1.2,0.7c0.3,0.3,0.6,0.6,0.8,0.9s0.3,0.8,0.3,1.3c0,0.7-0.1,1.2-0.4,1.7c-0.3,0.5-0.6,0.8-1,1.1
				s-0.9,0.5-1.5,0.6c-0.5,0.1-1.1,0.2-1.7,0.2c-0.9,0-1.7-0.2-2.5-0.5s-1.5-0.8-2.1-1.5l1.6-1.4c0.3,0.4,0.7,0.8,1.3,1.1
				c0.5,0.3,1.1,0.5,1.8,0.5c0.3,0,0.6,0,0.8-0.1c0.3-0.1,0.5-0.1,0.7-0.3c0.2-0.1,0.4-0.3,0.5-0.5c0.1-0.2,0.2-0.5,0.2-0.8
				c0-0.5-0.3-0.9-0.8-1.2c-0.5-0.3-1.2-0.5-2.2-0.7c-0.4-0.1-0.8-0.2-1.2-0.3c-0.4-0.1-0.7-0.3-1.1-0.6s-0.6-0.5-0.8-0.9
				c-0.2-0.4-0.3-0.8-0.3-1.3c0-0.6,0.1-1.1,0.4-1.6s0.6-0.8,1-1.1c0.4-0.3,0.9-0.5,1.4-0.6c0.5-0.1,1-0.2,1.6-0.2
				c0.8,0,1.6,0.2,2.4,0.5c0.8,0.3,1.3,0.8,1.8,1.4L562.8,414.7z"/>
			<path d="M579.4,416.4L579.4,416.4c-0.3,0.1-0.6,0.2-1,0.3c-0.2,0-0.4,0.1-0.6,0.1c-0.2,0-0.4,0-0.6,0c-0.8,0-1.4-0.1-2.1-0.4
				s-1.2-0.6-1.7-1.1c-0.5-0.5-0.9-1-1.1-1.7c-0.3-0.7-0.4-1.4-0.4-2.1c0-0.8,0.1-1.6,0.4-2.3c0.3-0.7,0.7-1.3,1.2-1.8
				c0.5-0.5,1.1-0.9,1.9-1.2s1.5-0.4,2.3-0.4s1.6,0.1,2.3,0.4c0.7,0.3,1.3,0.7,1.9,1.2c0.5,0.5,0.9,1.1,1.2,1.8
				c0.3,0.7,0.4,1.4,0.4,2.2c0,0.9-0.2,1.8-0.5,2.5s-0.7,1.5-1.2,2.3l-4.4,7h-2.8L579.4,416.4z M581.4,411.4c0-0.5-0.1-1-0.3-1.4
				c-0.2-0.4-0.4-0.8-0.7-1.2c-0.3-0.3-0.7-0.6-1.1-0.8c-0.4-0.2-0.9-0.3-1.4-0.3c-0.5,0-1,0.1-1.4,0.3c-0.4,0.2-0.8,0.4-1.1,0.8
				c-0.3,0.3-0.6,0.7-0.7,1.2c-0.2,0.4-0.3,0.9-0.3,1.5c0,0.5,0.1,1,0.3,1.4c0.2,0.4,0.4,0.8,0.7,1.1c0.3,0.3,0.7,0.6,1.1,0.7
				c0.4,0.2,0.9,0.3,1.4,0.3c0.5,0,1-0.1,1.5-0.3c0.4-0.2,0.8-0.4,1.1-0.7c0.3-0.3,0.6-0.7,0.7-1.1
				C581.3,412.4,581.4,411.9,581.4,411.4z"/>
			<path d="M593.4,416.4L593.4,416.4c-0.3,0.1-0.6,0.2-1,0.3c-0.2,0-0.4,0.1-0.6,0.1c-0.2,0-0.4,0-0.6,0c-0.8,0-1.4-0.1-2.1-0.4
				s-1.2-0.6-1.7-1.1c-0.5-0.5-0.9-1-1.1-1.7c-0.3-0.7-0.4-1.4-0.4-2.1c0-0.8,0.1-1.6,0.4-2.3c0.3-0.7,0.7-1.3,1.2-1.8
				c0.5-0.5,1.1-0.9,1.9-1.2s1.5-0.4,2.3-0.4s1.6,0.1,2.3,0.4c0.7,0.3,1.3,0.7,1.9,1.2c0.5,0.5,0.9,1.1,1.2,1.8
				c0.3,0.7,0.4,1.4,0.4,2.2c0,0.9-0.2,1.8-0.5,2.5s-0.7,1.5-1.2,2.3l-4.4,7h-2.8L593.4,416.4z M595.3,411.4c0-0.5-0.1-1-0.3-1.4
				c-0.2-0.4-0.4-0.8-0.7-1.2c-0.3-0.3-0.7-0.6-1.1-0.8c-0.4-0.2-0.9-0.3-1.4-0.3c-0.5,0-1,0.1-1.4,0.3c-0.4,0.2-0.8,0.4-1.1,0.8
				c-0.3,0.3-0.6,0.7-0.7,1.2c-0.2,0.4-0.3,0.9-0.3,1.5c0,0.5,0.1,1,0.3,1.4c0.2,0.4,0.4,0.8,0.7,1.1c0.3,0.3,0.7,0.6,1.1,0.7
				c0.4,0.2,0.9,0.3,1.4,0.3c0.5,0,1-0.1,1.5-0.3c0.4-0.2,0.8-0.4,1.1-0.7c0.3-0.3,0.6-0.7,0.7-1.1
				C595.2,412.4,595.3,411.9,595.3,411.4z"/>
			<path d="M603.3,421.8c0,0.4-0.2,0.8-0.5,1.1c-0.3,0.3-0.7,0.5-1.2,0.5c-0.4,0-0.8-0.2-1.1-0.5c-0.3-0.3-0.5-0.7-0.5-1.1
				c0-0.4,0.2-0.8,0.5-1.1s0.7-0.5,1.2-0.5s0.8,0.2,1.2,0.5C603.1,421,603.3,421.4,603.3,421.8z"/>
			<path d="M613.1,416.4L613.1,416.4c-0.3,0.1-0.6,0.2-1,0.3c-0.2,0-0.4,0.1-0.6,0.1c-0.2,0-0.4,0-0.6,0c-0.8,0-1.4-0.1-2.1-0.4
				s-1.2-0.6-1.7-1.1c-0.5-0.5-0.9-1-1.1-1.7c-0.3-0.7-0.4-1.4-0.4-2.1c0-0.8,0.1-1.6,0.4-2.3c0.3-0.7,0.7-1.3,1.2-1.8
				c0.5-0.5,1.1-0.9,1.9-1.2s1.5-0.4,2.3-0.4s1.6,0.1,2.3,0.4c0.7,0.3,1.3,0.7,1.9,1.2c0.5,0.5,0.9,1.1,1.2,1.8
				c0.3,0.7,0.4,1.4,0.4,2.2c0,0.9-0.2,1.8-0.5,2.5s-0.7,1.5-1.2,2.3l-4.4,7h-2.8L613.1,416.4z M615.1,411.4c0-0.5-0.1-1-0.3-1.4
				c-0.2-0.4-0.4-0.8-0.7-1.2c-0.3-0.3-0.7-0.6-1.1-0.8c-0.4-0.2-0.9-0.3-1.4-0.3c-0.5,0-1,0.1-1.4,0.3c-0.4,0.2-0.8,0.4-1.1,0.8
				c-0.3,0.3-0.6,0.7-0.7,1.2c-0.2,0.4-0.3,0.9-0.3,1.5c0,0.5,0.1,1,0.3,1.4c0.2,0.4,0.4,0.8,0.7,1.1c0.3,0.3,0.7,0.6,1.1,0.7
				c0.4,0.2,0.9,0.3,1.4,0.3c0.5,0,1-0.1,1.5-0.3c0.4-0.2,0.8-0.4,1.1-0.7c0.3-0.3,0.6-0.7,0.7-1.1
				C615,412.4,615.1,411.9,615.1,411.4z"/>
			<path d="M619.3,410.2c0-0.6,0.1-1.1,0.3-1.7c0.2-0.5,0.5-1,0.9-1.3c0.4-0.4,0.8-0.7,1.3-0.9c0.5-0.2,1.1-0.3,1.7-0.3
				c0.6,0,1.1,0.1,1.7,0.3s1,0.5,1.3,0.9c0.4,0.4,0.7,0.8,0.9,1.3c0.2,0.5,0.3,1.1,0.3,1.7c0,0.6-0.1,1.1-0.3,1.7
				c-0.2,0.5-0.5,1-0.9,1.3c-0.4,0.4-0.8,0.7-1.3,0.9c-0.5,0.2-1.1,0.3-1.7,0.3c-0.6,0-1.1-0.1-1.7-0.3c-0.5-0.2-1-0.5-1.3-0.9
				c-0.4-0.4-0.7-0.8-0.9-1.3C619.4,411.3,619.3,410.8,619.3,410.2z M625.8,410.2c0-0.3-0.1-0.6-0.2-0.9c-0.1-0.3-0.3-0.5-0.5-0.7
				c-0.2-0.2-0.4-0.4-0.7-0.5c-0.3-0.1-0.6-0.2-0.9-0.2c-0.3,0-0.6,0.1-0.9,0.2s-0.5,0.3-0.7,0.5c-0.2,0.2-0.4,0.4-0.5,0.7
				c-0.1,0.3-0.2,0.6-0.2,0.9c0,0.3,0.1,0.6,0.2,0.9c0.1,0.3,0.3,0.5,0.5,0.7s0.4,0.4,0.7,0.5c0.3,0.1,0.6,0.2,0.9,0.2
				c0.3,0,0.6-0.1,0.9-0.2c0.3-0.1,0.5-0.3,0.7-0.5s0.4-0.4,0.5-0.7C625.8,410.8,625.8,410.5,625.8,410.2z M624.4,424l-1.6-0.8
				l10.4-17.7l1.6,0.8L624.4,424z M629.7,419.3c0-0.6,0.1-1.1,0.3-1.7c0.2-0.5,0.5-1,0.9-1.3c0.4-0.4,0.8-0.7,1.3-0.9
				c0.5-0.2,1.1-0.3,1.7-0.3c0.6,0,1.1,0.1,1.7,0.3c0.5,0.2,1,0.5,1.3,0.9c0.4,0.4,0.7,0.8,0.9,1.3c0.2,0.5,0.3,1.1,0.3,1.7
				c0,0.6-0.1,1.1-0.3,1.7c-0.2,0.5-0.5,1-0.9,1.3c-0.4,0.4-0.8,0.7-1.3,0.9c-0.5,0.2-1.1,0.3-1.7,0.3c-0.6,0-1.1-0.1-1.7-0.3
				c-0.5-0.2-1-0.5-1.3-0.9c-0.4-0.4-0.7-0.8-0.9-1.3C629.8,420.4,629.7,419.9,629.7,419.3z M636.2,419.3c0-0.3-0.1-0.6-0.2-0.9
				c-0.1-0.3-0.3-0.5-0.5-0.7c-0.2-0.2-0.4-0.4-0.7-0.5c-0.3-0.1-0.6-0.2-0.9-0.2c-0.3,0-0.6,0.1-0.9,0.2c-0.3,0.1-0.5,0.3-0.7,0.5
				c-0.2,0.2-0.4,0.4-0.5,0.7c-0.1,0.3-0.2,0.6-0.2,0.9c0,0.3,0.1,0.6,0.2,0.9s0.3,0.5,0.5,0.7s0.4,0.4,0.7,0.5
				c0.3,0.1,0.6,0.2,0.9,0.2c0.3,0,0.6-0.1,0.9-0.2c0.3-0.1,0.5-0.3,0.7-0.5s0.4-0.4,0.5-0.7S636.2,419.6,636.2,419.3z"/>
			<path d="M343.8,455.5c0,0.9-0.2,1.7-0.5,2.4c-0.3,0.7-0.7,1.4-1.3,1.9c-0.6,0.5-1.2,1-2,1.2c-0.8,0.3-1.6,0.4-2.4,0.4
				c-0.9,0-1.7-0.1-2.4-0.4c-0.8-0.3-1.4-0.7-1.9-1.2c-0.5-0.5-1-1.2-1.3-1.9c-0.3-0.7-0.5-1.5-0.5-2.4c0-0.9,0.2-1.7,0.5-2.4
				c0.3-0.7,0.7-1.4,1.3-1.9c0.5-0.5,1.2-0.9,1.9-1.2c0.8-0.3,1.6-0.4,2.4-0.4c0.9,0,1.7,0.1,2.4,0.4c0.8,0.3,1.4,0.7,2,1.2
				c0.6,0.5,1,1.2,1.3,1.9C343.7,453.8,343.8,454.6,343.8,455.5z M341.5,455.5c0-0.5-0.1-1.1-0.3-1.6c-0.2-0.5-0.4-0.9-0.7-1.3
				s-0.7-0.7-1.2-0.9c-0.5-0.2-1-0.3-1.6-0.3c-0.6,0-1.2,0.1-1.6,0.3c-0.5,0.2-0.9,0.5-1.2,0.9c-0.3,0.4-0.6,0.8-0.7,1.3
				c-0.2,0.5-0.3,1-0.3,1.6c0,0.5,0.1,1.1,0.3,1.6c0.2,0.5,0.4,0.9,0.7,1.3c0.3,0.4,0.7,0.7,1.2,0.9c0.5,0.2,1,0.3,1.6,0.3
				c0.6,0,1.2-0.1,1.6-0.3c0.5-0.2,0.9-0.5,1.2-0.9s0.6-0.8,0.7-1.3C341.4,456.6,341.5,456.1,341.5,455.5z"/>
			<path d="M352,451.7h-2.6v9.5h-2.3v-9.5h-2.3v-1.8h2.3v-2.4c0-0.7,0.1-1.3,0.2-1.9s0.4-1.1,0.7-1.5c0.3-0.4,0.8-0.7,1.3-1
				c0.5-0.2,1.2-0.4,2-0.4c0.5,0,1,0.1,1.4,0.2l-0.3,1.9c-0.2,0-0.4-0.1-0.5-0.1c-0.2,0-0.4,0-0.6,0c-0.4,0-0.8,0.1-1,0.2
				c-0.3,0.2-0.5,0.4-0.6,0.6c-0.1,0.3-0.2,0.5-0.3,0.9c0,0.3-0.1,0.7-0.1,1v2.4h2.6L352,451.7L352,451.7z"/>
			<path d="M362.1,459.4v1.8h-2.2v-18.1h2.3v8.5h0.1c0.4-0.6,0.9-1,1.6-1.4c0.7-0.4,1.5-0.6,2.4-0.6c0.8,0,1.6,0.2,2.3,0.5
				c0.7,0.3,1.3,0.7,1.8,1.3c0.5,0.5,0.9,1.2,1.2,1.9c0.3,0.7,0.4,1.5,0.4,2.3s-0.1,1.6-0.4,2.4s-0.7,1.4-1.1,1.9s-1.1,1-1.8,1.3
				c-0.7,0.3-1.5,0.5-2.4,0.5c-0.8,0-1.6-0.2-2.3-0.5C363.2,460.6,362.6,460.1,362.1,459.4L362.1,459.4L362.1,459.4z M369.7,455.5
				c0-0.5-0.1-1-0.2-1.5c-0.2-0.5-0.4-0.9-0.7-1.3c-0.3-0.4-0.7-0.7-1.2-0.9c-0.5-0.2-1-0.3-1.6-0.3c-0.6,0-1.1,0.1-1.6,0.3
				c-0.5,0.2-0.9,0.5-1.2,0.9s-0.6,0.8-0.8,1.3c-0.2,0.5-0.3,1-0.3,1.6c0,0.5,0.1,1.1,0.3,1.6s0.4,0.9,0.8,1.3s0.7,0.7,1.2,0.9
				c0.5,0.2,1,0.3,1.6,0.3c0.6,0,1.2-0.1,1.6-0.3c0.5-0.2,0.9-0.5,1.2-0.9c0.3-0.4,0.6-0.8,0.7-1.3
				C369.6,456.6,369.7,456.1,369.7,455.5z"/>
			<path d="M381.9,453.9c0-0.8-0.3-1.5-0.8-1.9c-0.5-0.4-1.2-0.6-2-0.6c-0.6,0-1.2,0.1-1.8,0.4c-0.6,0.2-1,0.6-1.4,0.9l-1.2-1.4
				c0.6-0.5,1.2-0.9,2.1-1.2c0.8-0.3,1.7-0.5,2.6-0.5c0.8,0,1.5,0.1,2.1,0.3c0.6,0.2,1.1,0.5,1.5,0.9s0.7,0.9,0.9,1.4
				c0.2,0.5,0.3,1.1,0.3,1.8v5c0,0.4,0,0.8,0,1.2c0,0.4,0.1,0.8,0.1,1h-2c-0.1-0.5-0.2-1.1-0.2-1.6h-0.1c-0.4,0.6-0.9,1.1-1.6,1.4
				s-1.4,0.5-2.2,0.5c-0.4,0-0.9-0.1-1.4-0.2c-0.5-0.1-0.9-0.3-1.3-0.6c-0.4-0.3-0.7-0.6-1-1.1c-0.3-0.4-0.4-1-0.4-1.7
				c0-0.9,0.2-1.5,0.7-2.1s1.1-0.9,1.8-1.2c0.8-0.3,1.6-0.4,2.5-0.5s1.9-0.1,2.9-0.1L381.9,453.9L381.9,453.9z M381.3,455.8
				c-0.6,0-1.1,0-1.7,0.1c-0.6,0-1.1,0.1-1.6,0.3s-0.9,0.4-1.2,0.6c-0.3,0.3-0.5,0.7-0.5,1.2c0,0.3,0.1,0.6,0.2,0.8
				c0.1,0.2,0.3,0.4,0.5,0.6c0.2,0.1,0.5,0.2,0.7,0.3c0.3,0.1,0.6,0.1,0.8,0.1c1.1,0,1.9-0.3,2.4-0.9s0.9-1.4,0.9-2.4v-0.6
				L381.3,455.8L381.3,455.8z"/>
			<path d="M395.4,452.7c-0.2-0.4-0.6-0.7-1.1-0.9c-0.5-0.2-1-0.4-1.5-0.4c-0.6,0-1.1,0.1-1.6,0.3c-0.5,0.2-0.8,0.5-1.2,0.9
				c-0.3,0.4-0.6,0.8-0.7,1.3s-0.3,1-0.3,1.6s0.1,1.1,0.3,1.6s0.4,0.9,0.7,1.3c0.3,0.4,0.7,0.7,1.2,0.9c0.5,0.2,1,0.3,1.6,0.3
				c0.6,0,1.1-0.1,1.6-0.3c0.5-0.2,0.9-0.5,1.2-0.9l1.5,1.4c-0.5,0.6-1.1,1-1.8,1.3c-0.7,0.3-1.5,0.5-2.4,0.5
				c-0.9,0-1.7-0.1-2.4-0.4c-0.7-0.3-1.4-0.7-1.9-1.2s-1-1.1-1.3-1.9c-0.3-0.7-0.5-1.6-0.5-2.5c0-0.9,0.2-1.7,0.5-2.4
				c0.3-0.7,0.7-1.4,1.3-1.9c0.5-0.5,1.2-0.9,1.9-1.2c0.7-0.3,1.5-0.4,2.4-0.4c0.8,0,1.6,0.2,2.4,0.5c0.8,0.3,1.4,0.8,1.9,1.4
				L395.4,452.7z"/>
			<path d="M404.5,451.7h-3v5.9c0,0.7,0.1,1.2,0.4,1.5s0.7,0.4,1.2,0.4c0.2,0,0.4,0,0.7-0.1c0.2,0,0.5-0.1,0.6-0.2l0.1,1.8
				c-0.3,0.1-0.6,0.2-0.9,0.2s-0.7,0.1-1,0.1c-1.1,0-1.9-0.3-2.5-0.9c-0.6-0.6-0.9-1.5-0.9-2.7v-6.2h-2.2v-1.8h2.2v-3.3h2.2v3.3h3
				L404.5,451.7L404.5,451.7z"/>
			<path d="M417.1,455.4c0,0.1,0,0.3,0,0.4s0,0.3,0,0.4h-9c0,0.5,0.1,0.9,0.3,1.3c0.2,0.4,0.5,0.8,0.8,1.1s0.7,0.6,1.2,0.7
				s0.9,0.3,1.4,0.3c0.8,0,1.4-0.2,2-0.5s1-0.7,1.3-1.2l1.6,1.3c-0.6,0.8-1.3,1.4-2.1,1.8c-0.8,0.4-1.7,0.6-2.7,0.6
				c-0.9,0-1.7-0.1-2.4-0.4c-0.7-0.3-1.4-0.7-1.9-1.2c-0.5-0.5-0.9-1.1-1.2-1.9c-0.3-0.7-0.5-1.6-0.5-2.4c0-0.9,0.1-1.7,0.4-2.4
				s0.7-1.4,1.2-1.9c0.5-0.5,1.2-0.9,1.9-1.2c0.7-0.3,1.5-0.4,2.3-0.4c0.8,0,1.6,0.1,2.3,0.4s1.3,0.7,1.7,1.2
				c0.5,0.5,0.8,1.1,1.1,1.9C417,453.7,417.1,454.5,417.1,455.4z M414.8,454.5c0-0.4-0.1-0.9-0.2-1.3c-0.1-0.4-0.3-0.7-0.6-1
				c-0.3-0.3-0.6-0.5-1-0.7c-0.4-0.2-0.9-0.3-1.4-0.3c-0.5,0-0.9,0.1-1.4,0.3s-0.8,0.4-1.1,0.7s-0.6,0.6-0.8,1
				c-0.2,0.4-0.3,0.8-0.3,1.3H414.8z"/>
			<path d="M419.9,451.1c0-0.5,0-0.9-0.1-1.3h2.1c0,0.3,0.1,0.6,0.1,1c0,0.4,0,0.7,0,0.9h0.1c0.3-0.7,0.8-1.2,1.4-1.6
				s1.3-0.6,2.1-0.6c0.4,0,0.6,0,0.9,0.1l-0.1,2.1c-0.3-0.1-0.7-0.1-1-0.1c-0.5,0-1,0.1-1.4,0.3c-0.4,0.2-0.7,0.5-1,0.8
				c-0.3,0.3-0.5,0.7-0.6,1.2s-0.2,0.9-0.2,1.4v6h-2.3v-8.9C419.9,452,419.9,451.6,419.9,451.1z"/>
			<path d="M430.8,445.7c0,0.4-0.1,0.8-0.4,1c-0.3,0.3-0.6,0.4-1.1,0.4s-0.8-0.1-1-0.4c-0.3-0.3-0.4-0.6-0.4-1c0-0.4,0.1-0.8,0.4-1
				c0.3-0.3,0.6-0.4,1-0.4s0.8,0.1,1.1,0.4C430.7,445,430.8,445.3,430.8,445.7z M430.5,461.2h-2.3v-11.4h2.3V461.2z"/>
			<path d="M441.1,453.9c0-0.8-0.3-1.5-0.8-1.9c-0.5-0.4-1.2-0.6-2-0.6c-0.6,0-1.2,0.1-1.8,0.4c-0.6,0.2-1,0.6-1.4,0.9l-1.2-1.4
				c0.6-0.5,1.2-0.9,2.1-1.2c0.8-0.3,1.7-0.5,2.6-0.5c0.8,0,1.5,0.1,2.1,0.3c0.6,0.2,1.1,0.5,1.5,0.9s0.7,0.9,0.9,1.4
				c0.2,0.5,0.3,1.1,0.3,1.8v5c0,0.4,0,0.8,0,1.2c0,0.4,0.1,0.8,0.1,1h-2c-0.1-0.5-0.2-1.1-0.2-1.6h-0.1c-0.4,0.6-0.9,1.1-1.6,1.4
				s-1.4,0.5-2.2,0.5c-0.4,0-0.9-0.1-1.4-0.2c-0.5-0.1-0.9-0.3-1.3-0.6c-0.4-0.3-0.7-0.6-1-1.1c-0.3-0.4-0.4-1-0.4-1.7
				c0-0.9,0.2-1.5,0.7-2.1s1.1-0.9,1.8-1.2c0.8-0.3,1.6-0.4,2.5-0.5s1.9-0.1,2.9-0.1L441.1,453.9L441.1,453.9z M440.6,455.8
				c-0.6,0-1.1,0-1.7,0.1c-0.6,0-1.1,0.1-1.6,0.3s-0.9,0.4-1.2,0.6c-0.3,0.3-0.5,0.7-0.5,1.2c0,0.3,0.1,0.6,0.2,0.8
				c0.1,0.2,0.3,0.4,0.5,0.6c0.2,0.1,0.5,0.2,0.7,0.3c0.3,0.1,0.6,0.1,0.8,0.1c1.1,0,1.9-0.3,2.4-0.9s0.9-1.4,0.9-2.4v-0.6
				L440.6,455.8L440.6,455.8z"/>
			<path d="M459.4,453.9c0-0.8-0.3-1.5-0.8-1.9c-0.5-0.4-1.2-0.6-2-0.6c-0.6,0-1.2,0.1-1.8,0.4c-0.6,0.2-1,0.6-1.4,0.9l-1.2-1.4
				c0.6-0.5,1.2-0.9,2.1-1.2c0.8-0.3,1.7-0.5,2.6-0.5c0.8,0,1.5,0.1,2.1,0.3c0.6,0.2,1.1,0.5,1.5,0.9s0.7,0.9,0.9,1.4
				c0.2,0.5,0.3,1.1,0.3,1.8v5c0,0.4,0,0.8,0,1.2c0,0.4,0.1,0.8,0.1,1h-2c-0.1-0.5-0.2-1.1-0.2-1.6h-0.1c-0.4,0.6-0.9,1.1-1.6,1.4
				s-1.4,0.5-2.2,0.5c-0.4,0-0.9-0.1-1.4-0.2c-0.5-0.1-0.9-0.3-1.3-0.6c-0.4-0.3-0.7-0.6-1-1.1c-0.3-0.4-0.4-1-0.4-1.7
				c0-0.9,0.2-1.5,0.7-2.1s1.1-0.9,1.8-1.2c0.8-0.3,1.6-0.4,2.5-0.5s1.9-0.1,2.9-0.1L459.4,453.9L459.4,453.9z M458.9,455.8
				c-0.6,0-1.1,0-1.7,0.1c-0.6,0-1.1,0.1-1.6,0.3s-0.9,0.4-1.2,0.6c-0.3,0.3-0.5,0.7-0.5,1.2c0,0.3,0.1,0.6,0.2,0.8
				c0.1,0.2,0.3,0.4,0.5,0.6c0.2,0.1,0.5,0.2,0.7,0.3c0.3,0.1,0.6,0.1,0.8,0.1c1.1,0,1.9-0.3,2.4-0.9s0.9-1.4,0.9-2.4v-0.6
				L458.9,455.8L458.9,455.8z"/>
			<path d="M467,449.9c0,0.3,0.1,0.6,0.1,1c0,0.4,0,0.7,0,0.9h0.1c0.1-0.3,0.3-0.6,0.6-0.9s0.5-0.5,0.9-0.7c0.3-0.2,0.7-0.4,1.1-0.5
				c0.4-0.1,0.8-0.2,1.2-0.2c0.7,0,1.4,0.1,1.9,0.4s1,0.6,1.3,1c0.4,0.4,0.6,0.9,0.8,1.5s0.3,1.2,0.3,1.8v7.1h-2.3v-6.3
				c0-0.5,0-0.9-0.1-1.3c-0.1-0.4-0.2-0.8-0.4-1.1s-0.5-0.6-0.8-0.8c-0.3-0.2-0.8-0.3-1.3-0.3c-0.9,0-1.6,0.3-2.2,1
				c-0.6,0.7-0.9,1.6-0.9,2.7v6H465v-8.9c0-0.3,0-0.7,0-1.2s0-0.9-0.1-1.3H467z"/>
			<path d="M487.7,459.4c-0.4,0.7-1,1.2-1.8,1.6s-1.5,0.5-2.3,0.5c-0.9,0-1.7-0.2-2.4-0.5c-0.7-0.3-1.3-0.7-1.8-1.3
				c-0.5-0.5-0.9-1.2-1.2-1.9c-0.3-0.7-0.4-1.5-0.4-2.4s0.1-1.6,0.4-2.3c0.3-0.7,0.7-1.4,1.2-1.9c0.5-0.5,1.1-1,1.8-1.3
				c0.7-0.3,1.5-0.5,2.3-0.5c0.9,0,1.7,0.2,2.4,0.6c0.7,0.4,1.2,0.9,1.6,1.4h0v-8.5h2.3v18.1h-2.2L487.7,459.4L487.7,459.4
				L487.7,459.4z M480.2,455.5c0,0.5,0.1,1,0.2,1.5c0.2,0.5,0.4,0.9,0.7,1.3c0.3,0.4,0.7,0.7,1.2,0.9s1,0.3,1.6,0.3
				c0.6,0,1.1-0.1,1.6-0.3c0.5-0.2,0.9-0.5,1.2-0.9s0.6-0.8,0.8-1.3s0.3-1,0.3-1.6c0-0.5-0.1-1.1-0.3-1.6c-0.2-0.5-0.4-0.9-0.8-1.3
				s-0.7-0.7-1.2-0.9c-0.5-0.2-1-0.3-1.6-0.3c-0.6,0-1.2,0.1-1.6,0.3c-0.5,0.2-0.9,0.5-1.2,0.9s-0.6,0.8-0.7,1.3
				C480.3,454.5,480.2,455,480.2,455.5z"/>
			<path d="M504.5,461.2H502l-4.6-11.4h2.5l3.3,9h0l3.4-9h2.4L504.5,461.2z"/>
			<path d="M513.5,445.7c0,0.4-0.1,0.8-0.4,1c-0.3,0.3-0.6,0.4-1.1,0.4s-0.8-0.1-1-0.4c-0.3-0.3-0.4-0.6-0.4-1c0-0.4,0.1-0.8,0.4-1
				c0.3-0.3,0.6-0.4,1-0.4s0.8,0.1,1.1,0.4C513.4,445,513.5,445.3,513.5,445.7z M513.1,461.2h-2.3v-11.4h2.3V461.2z"/>
			<path d="M516.7,451.1c0-0.5,0-0.9-0.1-1.3h2.1c0,0.3,0.1,0.6,0.1,1c0,0.4,0,0.7,0,0.9h0.1c0.3-0.7,0.8-1.2,1.4-1.6
				s1.3-0.6,2.1-0.6c0.4,0,0.6,0,0.9,0.1l-0.1,2.1c-0.3-0.1-0.7-0.1-1-0.1c-0.5,0-1,0.1-1.4,0.3c-0.4,0.2-0.7,0.5-1,0.8
				c-0.3,0.3-0.5,0.7-0.6,1.2s-0.2,0.9-0.2,1.4v6h-2.3v-8.9C516.7,452,516.7,451.6,516.7,451.1z"/>
			<path d="M533.1,461.2c0-0.3-0.1-0.6-0.1-1c0-0.4,0-0.7,0-0.9h0c-0.3,0.6-0.8,1.1-1.5,1.5c-0.7,0.4-1.4,0.6-2.3,0.6
				c-0.7,0-1.4-0.1-1.9-0.4c-0.5-0.2-1-0.6-1.3-1c-0.3-0.4-0.6-0.9-0.8-1.5s-0.3-1.2-0.3-1.8v-7.1h2.3v6.3c0,0.5,0,0.9,0.1,1.3
				s0.2,0.8,0.4,1.1c0.2,0.3,0.5,0.6,0.8,0.8c0.3,0.2,0.8,0.3,1.3,0.3c0.9,0,1.6-0.3,2.2-1c0.6-0.7,0.8-1.6,0.8-2.7v-6h2.3v8.9
				c0,0.3,0,0.7,0,1.2c0,0.5,0,0.9,0.1,1.3L533.1,461.2L533.1,461.2z"/>
			<path d="M544.8,452.7c-0.3-0.4-0.6-0.8-1.1-1c-0.5-0.3-1-0.4-1.6-0.4c-0.3,0-0.5,0-0.8,0.1c-0.3,0.1-0.5,0.1-0.7,0.3
				s-0.4,0.3-0.5,0.5c-0.1,0.2-0.2,0.4-0.2,0.7c0,0.5,0.2,0.8,0.6,1.1s1.1,0.4,1.9,0.6c0.5,0.1,1,0.3,1.5,0.5
				c0.5,0.2,0.9,0.4,1.2,0.7c0.3,0.3,0.6,0.6,0.8,0.9s0.3,0.8,0.3,1.3c0,0.7-0.1,1.2-0.4,1.7c-0.3,0.5-0.6,0.8-1,1.1
				s-0.9,0.5-1.5,0.6c-0.5,0.1-1.1,0.2-1.7,0.2c-0.9,0-1.7-0.2-2.5-0.5s-1.5-0.8-2.1-1.5l1.6-1.4c0.3,0.4,0.7,0.8,1.3,1.1
				c0.5,0.3,1.1,0.5,1.8,0.5c0.3,0,0.6,0,0.8-0.1c0.3-0.1,0.5-0.1,0.7-0.3c0.2-0.1,0.4-0.3,0.5-0.5c0.1-0.2,0.2-0.5,0.2-0.8
				c0-0.5-0.3-0.9-0.8-1.2c-0.5-0.3-1.2-0.5-2.2-0.7c-0.4-0.1-0.8-0.2-1.2-0.3c-0.4-0.1-0.7-0.3-1.1-0.6s-0.6-0.5-0.8-0.9
				c-0.2-0.4-0.3-0.8-0.3-1.3c0-0.6,0.1-1.1,0.4-1.6s0.6-0.8,1-1.1c0.4-0.3,0.9-0.5,1.4-0.6c0.5-0.1,1-0.2,1.6-0.2
				c0.8,0,1.6,0.2,2.4,0.5c0.8,0.3,1.3,0.8,1.8,1.4L544.8,452.7z"/>
			<path d="M559.6,455.4c0,0.1,0,0.3,0,0.4s0,0.3,0,0.4h-9c0,0.5,0.1,0.9,0.3,1.3c0.2,0.4,0.5,0.8,0.8,1.1s0.7,0.6,1.2,0.7
				s0.9,0.3,1.4,0.3c0.8,0,1.4-0.2,2-0.5s1-0.7,1.3-1.2l1.6,1.3c-0.6,0.8-1.3,1.4-2.1,1.8c-0.8,0.4-1.7,0.6-2.7,0.6
				c-0.9,0-1.7-0.1-2.4-0.4c-0.7-0.3-1.4-0.7-1.9-1.2s-0.9-1.1-1.2-1.9c-0.3-0.7-0.5-1.6-0.5-2.4c0-0.9,0.1-1.7,0.4-2.4
				s0.7-1.4,1.2-1.9c0.5-0.5,1.2-0.9,1.9-1.2c0.7-0.3,1.5-0.4,2.3-0.4c0.8,0,1.6,0.1,2.3,0.4s1.3,0.7,1.7,1.2
				c0.5,0.5,0.8,1.1,1.1,1.9C559.5,453.7,559.6,454.5,559.6,455.4z M557.3,454.5c0-0.4-0.1-0.9-0.2-1.3c-0.1-0.4-0.3-0.7-0.6-1
				c-0.3-0.3-0.6-0.5-1-0.7c-0.4-0.2-0.9-0.3-1.4-0.3c-0.5,0-0.9,0.1-1.4,0.3s-0.8,0.4-1.1,0.7s-0.6,0.6-0.8,1
				c-0.2,0.4-0.3,0.8-0.3,1.3H557.3z"/>
			<path d="M568.5,452.7c-0.3-0.4-0.6-0.8-1.1-1c-0.5-0.3-1-0.4-1.6-0.4c-0.3,0-0.5,0-0.8,0.1c-0.3,0.1-0.5,0.1-0.7,0.3
				s-0.4,0.3-0.5,0.5c-0.1,0.2-0.2,0.4-0.2,0.7c0,0.5,0.2,0.8,0.6,1.1s1.1,0.4,1.9,0.6c0.5,0.1,1,0.3,1.5,0.5
				c0.5,0.2,0.9,0.4,1.2,0.7c0.3,0.3,0.6,0.6,0.8,0.9s0.3,0.8,0.3,1.3c0,0.7-0.1,1.2-0.4,1.7c-0.3,0.5-0.6,0.8-1,1.1
				s-0.9,0.5-1.5,0.6c-0.5,0.1-1.1,0.2-1.7,0.2c-0.9,0-1.7-0.2-2.5-0.5s-1.5-0.8-2.1-1.5l1.6-1.4c0.3,0.4,0.7,0.8,1.3,1.1
				c0.5,0.3,1.1,0.5,1.8,0.5c0.3,0,0.6,0,0.8-0.1c0.3-0.1,0.5-0.1,0.7-0.3c0.2-0.1,0.4-0.3,0.5-0.5c0.1-0.2,0.2-0.5,0.2-0.8
				c0-0.5-0.3-0.9-0.8-1.2c-0.5-0.3-1.2-0.5-2.2-0.7c-0.4-0.1-0.8-0.2-1.2-0.3c-0.4-0.1-0.7-0.3-1.1-0.6s-0.6-0.5-0.8-0.9
				c-0.2-0.4-0.3-0.8-0.3-1.3c0-0.6,0.1-1.1,0.4-1.6s0.6-0.8,1-1.1c0.4-0.3,0.9-0.5,1.4-0.6c0.5-0.1,1-0.2,1.6-0.2
				c0.8,0,1.6,0.2,2.4,0.5c0.8,0.3,1.3,0.8,1.8,1.4L568.5,452.7z"/>
			<path d="M579.1,449.9l2.6,8.7h0l2.7-8.7h2.4l2.8,8.7h0l2.6-8.7h2.4l-3.8,11.4h-2.4l-2.8-8.5h0l-2.8,8.5h-2.4l-3.8-11.4H579.1z"/>
			<path d="M599.1,445.7c0,0.4-0.1,0.8-0.4,1c-0.3,0.3-0.6,0.4-1.1,0.4s-0.8-0.1-1-0.4c-0.3-0.3-0.4-0.6-0.4-1c0-0.4,0.1-0.8,0.4-1
				c0.3-0.3,0.6-0.4,1-0.4s0.8,0.1,1.1,0.4C599,445,599.1,445.3,599.1,445.7z M598.7,461.2h-2.3v-11.4h2.3V461.2z"/>
			<path d="M607.9,451.7h-3v5.9c0,0.7,0.1,1.2,0.4,1.5s0.7,0.4,1.2,0.4c0.2,0,0.4,0,0.7-0.1c0.2,0,0.5-0.1,0.6-0.2l0.1,1.8
				c-0.3,0.1-0.6,0.2-0.9,0.2s-0.7,0.1-1,0.1c-1.1,0-1.9-0.3-2.5-0.9c-0.6-0.6-0.9-1.5-0.9-2.7v-6.2h-2.2v-1.8h2.2v-3.3h2.2v3.3h3
				L607.9,451.7L607.9,451.7z"/>
			<path d="M612.2,451.6c0.3-0.6,0.7-1,1.4-1.4c0.7-0.4,1.4-0.6,2.2-0.6c0.7,0,1.4,0.1,1.9,0.4s1,0.6,1.3,1c0.4,0.4,0.6,0.9,0.8,1.5
				s0.3,1.2,0.3,1.8v7.1h-2.3v-6.3c0-0.5,0-0.9-0.1-1.3c-0.1-0.4-0.2-0.8-0.4-1.1c-0.2-0.3-0.5-0.6-0.8-0.8
				c-0.3-0.2-0.8-0.3-1.3-0.3c-0.9,0-1.6,0.3-2.2,1s-0.9,1.6-0.9,2.7v6h-2.3v-18.1h2.3L612.2,451.6L612.2,451.6L612.2,451.6z"/>
			<path d="M635,455.5c0,0.9-0.2,1.7-0.5,2.4c-0.3,0.7-0.7,1.4-1.3,1.9c-0.6,0.5-1.2,1-2,1.2c-0.8,0.3-1.6,0.4-2.4,0.4
				c-0.9,0-1.7-0.1-2.4-0.4c-0.8-0.3-1.4-0.7-1.9-1.2c-0.5-0.5-1-1.2-1.3-1.9c-0.3-0.7-0.5-1.5-0.5-2.4c0-0.9,0.2-1.7,0.5-2.4
				s0.7-1.4,1.3-1.9c0.5-0.5,1.2-0.9,1.9-1.2c0.8-0.3,1.6-0.4,2.4-0.4c0.9,0,1.7,0.1,2.4,0.4c0.8,0.3,1.4,0.7,2,1.2
				c0.6,0.5,1,1.2,1.3,1.9C634.9,453.8,635,454.6,635,455.5z M632.7,455.5c0-0.5-0.1-1.1-0.3-1.6c-0.2-0.5-0.4-0.9-0.7-1.3
				s-0.7-0.7-1.2-0.9c-0.5-0.2-1-0.3-1.6-0.3c-0.6,0-1.2,0.1-1.6,0.3c-0.5,0.2-0.9,0.5-1.2,0.9c-0.3,0.4-0.6,0.8-0.7,1.3
				c-0.2,0.5-0.3,1-0.3,1.6c0,0.5,0.1,1.1,0.3,1.6c0.2,0.5,0.4,0.9,0.7,1.3c0.3,0.4,0.7,0.7,1.2,0.9c0.5,0.2,1,0.3,1.6,0.3
				c0.6,0,1.2-0.1,1.6-0.3c0.5-0.2,0.9-0.5,1.2-0.9s0.6-0.8,0.7-1.3C632.6,456.6,632.7,456.1,632.7,455.5z"/>
			<path d="M645.8,461.2c0-0.3-0.1-0.6-0.1-1c0-0.4,0-0.7,0-0.9h0c-0.3,0.6-0.8,1.1-1.5,1.5c-0.7,0.4-1.4,0.6-2.3,0.6
				c-0.7,0-1.4-0.1-1.9-0.4c-0.5-0.2-1-0.6-1.3-1c-0.3-0.4-0.6-0.9-0.8-1.5s-0.3-1.2-0.3-1.8v-7.1h2.3v6.3c0,0.5,0,0.9,0.1,1.3
				s0.2,0.8,0.4,1.1c0.2,0.3,0.5,0.6,0.8,0.8c0.3,0.2,0.8,0.3,1.3,0.3c0.9,0,1.6-0.3,2.2-1c0.6-0.7,0.8-1.6,0.8-2.7v-6h2.3v8.9
				c0,0.3,0,0.7,0,1.2c0,0.5,0,0.9,0.1,1.3L645.8,461.2L645.8,461.2z"/>
			<path d="M657,451.7h-3v5.9c0,0.7,0.1,1.2,0.4,1.5s0.7,0.4,1.2,0.4c0.2,0,0.4,0,0.7-0.1c0.2,0,0.5-0.1,0.6-0.2l0.1,1.8
				c-0.3,0.1-0.6,0.2-0.9,0.2s-0.7,0.1-1,0.1c-1.1,0-1.9-0.3-2.5-0.9c-0.6-0.6-0.9-1.5-0.9-2.7v-6.2h-2.2v-1.8h2.2v-3.3h2.2v3.3h3
				L657,451.7L657,451.7z"/>
			<path d="M340.3,499.2c0-0.3-0.1-0.6-0.1-1c0-0.4,0-0.7,0-0.9h0c-0.3,0.6-0.8,1.1-1.5,1.5c-0.7,0.4-1.4,0.6-2.3,0.6
				c-0.7,0-1.4-0.1-1.9-0.4c-0.5-0.2-1-0.6-1.3-1c-0.3-0.4-0.6-0.9-0.8-1.5s-0.3-1.2-0.3-1.8v-7.1h2.3v6.3c0,0.5,0,0.9,0.1,1.3
				s0.2,0.8,0.4,1.1c0.2,0.3,0.5,0.6,0.8,0.8c0.3,0.2,0.8,0.3,1.3,0.3c0.9,0,1.6-0.3,2.2-1c0.6-0.7,0.8-1.6,0.8-2.7v-6h2.3v8.9
				c0,0.3,0,0.7,0,1.2c0,0.5,0,0.9,0.1,1.3L340.3,499.2L340.3,499.2z"/>
			<path d="M352.1,490.7c-0.3-0.4-0.6-0.8-1.1-1c-0.5-0.3-1-0.4-1.6-0.4c-0.3,0-0.5,0-0.8,0.1c-0.3,0.1-0.5,0.1-0.7,0.3
				s-0.4,0.3-0.5,0.5c-0.1,0.2-0.2,0.4-0.2,0.7c0,0.5,0.2,0.8,0.6,1.1s1.1,0.4,1.9,0.6c0.5,0.1,1,0.3,1.5,0.5
				c0.5,0.2,0.9,0.4,1.2,0.7c0.3,0.3,0.6,0.6,0.8,0.9s0.3,0.8,0.3,1.3c0,0.7-0.1,1.2-0.4,1.7c-0.3,0.5-0.6,0.8-1,1.1
				s-0.9,0.5-1.5,0.6c-0.5,0.1-1.1,0.2-1.7,0.2c-0.9,0-1.7-0.2-2.5-0.5s-1.5-0.8-2.1-1.5l1.6-1.4c0.3,0.4,0.7,0.8,1.3,1.1
				c0.5,0.3,1.1,0.5,1.8,0.5c0.3,0,0.6,0,0.8-0.1c0.3-0.1,0.5-0.1,0.7-0.3c0.2-0.1,0.4-0.3,0.5-0.5c0.1-0.2,0.2-0.5,0.2-0.8
				c0-0.5-0.3-0.9-0.8-1.2c-0.5-0.3-1.2-0.5-2.2-0.7c-0.4-0.1-0.8-0.2-1.2-0.3c-0.4-0.1-0.7-0.3-1.1-0.6s-0.6-0.5-0.8-0.9
				c-0.2-0.4-0.3-0.8-0.3-1.3c0-0.6,0.1-1.1,0.4-1.6s0.6-0.8,1-1.1c0.4-0.3,0.9-0.5,1.4-0.6c0.5-0.1,1-0.2,1.6-0.2
				c0.8,0,1.6,0.2,2.4,0.5c0.8,0.3,1.3,0.8,1.8,1.4L352.1,490.7z"/>
			<path d="M358.9,483.7c0,0.4-0.1,0.8-0.4,1c-0.3,0.3-0.6,0.4-1.1,0.4s-0.8-0.1-1-0.4c-0.3-0.3-0.4-0.6-0.4-1c0-0.4,0.1-0.8,0.4-1
				c0.3-0.3,0.6-0.4,1-0.4s0.8,0.1,1.1,0.4C358.7,483,358.9,483.3,358.9,483.7z M358.5,499.2h-2.3v-11.4h2.3V499.2z"/>
			<path d="M364.1,487.9c0,0.3,0.1,0.6,0.1,1c0,0.4,0,0.7,0,0.9h0.1c0.1-0.3,0.3-0.6,0.6-0.9s0.5-0.5,0.9-0.7
				c0.3-0.2,0.7-0.4,1.1-0.5c0.4-0.1,0.8-0.2,1.2-0.2c0.7,0,1.4,0.1,1.9,0.4s1,0.6,1.3,1c0.4,0.4,0.6,0.9,0.8,1.5s0.3,1.2,0.3,1.8
				v7.1H370v-6.3c0-0.5,0-0.9-0.1-1.3c-0.1-0.4-0.2-0.8-0.4-1.1s-0.5-0.6-0.8-0.8c-0.3-0.2-0.8-0.3-1.3-0.3c-0.9,0-1.6,0.3-2.2,1
				c-0.6,0.7-0.9,1.6-0.9,2.7v6h-2.3v-8.9c0-0.3,0-0.7,0-1.2s0-0.9-0.1-1.3H364.1z"/>
			<path d="M376.6,501.2c0.5,0.6,1.1,1,1.9,1.3c0.7,0.3,1.5,0.5,2.3,0.5c0.8,0,1.4-0.1,1.9-0.3c0.5-0.2,0.9-0.5,1.2-0.9
				c0.3-0.4,0.5-0.8,0.7-1.3c0.1-0.5,0.2-1.1,0.2-1.7v-1.5h0c-0.4,0.6-1,1.1-1.7,1.5c-0.7,0.3-1.5,0.5-2.3,0.5
				c-0.9,0-1.7-0.2-2.4-0.5s-1.3-0.7-1.8-1.2s-0.9-1.1-1.2-1.9c-0.3-0.7-0.4-1.5-0.4-2.3c0-0.8,0.1-1.6,0.4-2.3
				c0.3-0.7,0.7-1.3,1.2-1.9c0.5-0.5,1.1-1,1.8-1.3s1.5-0.5,2.4-0.5c0.8,0,1.6,0.2,2.3,0.5s1.3,0.9,1.8,1.6h0v-1.8h2.2v10.8
				c0,0.8-0.1,1.6-0.3,2.4c-0.2,0.8-0.6,1.4-1.1,2c-0.5,0.6-1.1,1.1-1.9,1.4c-0.8,0.4-1.8,0.5-3,0.5c-1,0-2-0.2-3-0.5
				s-1.9-0.9-2.6-1.5L376.6,501.2z M377.3,493.4c0,0.5,0.1,1,0.3,1.5c0.2,0.5,0.4,0.9,0.7,1.3s0.7,0.7,1.2,0.9
				c0.5,0.2,1,0.3,1.6,0.3c0.6,0,1.1-0.1,1.6-0.3s0.9-0.5,1.2-0.9c0.3-0.4,0.6-0.8,0.8-1.3s0.3-1,0.3-1.6c0-0.5-0.1-1.1-0.3-1.5
				c-0.2-0.5-0.4-0.9-0.8-1.3c-0.3-0.4-0.8-0.7-1.2-0.9c-0.5-0.2-1-0.3-1.6-0.3c-0.6,0-1.1,0.1-1.6,0.3c-0.5,0.2-0.9,0.5-1.2,0.9
				c-0.3,0.4-0.6,0.8-0.7,1.3C377.3,492.4,377.3,492.9,377.3,493.4z"/>
			<path d="M398.5,489.6c0.3-0.6,0.7-1,1.4-1.4c0.7-0.4,1.4-0.6,2.2-0.6c0.7,0,1.4,0.1,1.9,0.4s1,0.6,1.3,1c0.4,0.4,0.6,0.9,0.8,1.5
				s0.3,1.2,0.3,1.8v7.1h-2.3v-6.3c0-0.5,0-0.9-0.1-1.3c-0.1-0.4-0.2-0.8-0.4-1.1c-0.2-0.3-0.5-0.6-0.8-0.8
				c-0.3-0.2-0.8-0.3-1.3-0.3c-0.9,0-1.6,0.3-2.2,1s-0.9,1.6-0.9,2.7v6h-2.3v-18.1h2.3L398.5,489.6L398.5,489.6L398.5,489.6z"/>
			<path d="M416.9,491.9c0-0.8-0.3-1.5-0.8-1.9c-0.5-0.4-1.2-0.6-2-0.6c-0.6,0-1.2,0.1-1.8,0.4c-0.6,0.2-1,0.6-1.4,0.9l-1.2-1.4
				c0.6-0.5,1.2-0.9,2.1-1.2c0.8-0.3,1.7-0.5,2.6-0.5c0.8,0,1.5,0.1,2.1,0.3c0.6,0.2,1.1,0.5,1.5,0.9s0.7,0.9,0.9,1.4
				c0.2,0.5,0.3,1.1,0.3,1.8v5c0,0.4,0,0.8,0,1.2c0,0.4,0.1,0.8,0.1,1h-2c-0.1-0.5-0.2-1.1-0.2-1.6h-0.1c-0.4,0.6-0.9,1.1-1.6,1.4
				s-1.4,0.5-2.2,0.5c-0.4,0-0.9-0.1-1.4-0.2c-0.5-0.1-0.9-0.3-1.3-0.6c-0.4-0.3-0.7-0.6-1-1.1c-0.3-0.4-0.4-1-0.4-1.7
				c0-0.9,0.2-1.5,0.7-2.1s1.1-0.9,1.8-1.2c0.8-0.3,1.6-0.4,2.5-0.5s1.9-0.1,2.9-0.1L416.9,491.9L416.9,491.9z M416.3,493.8
				c-0.6,0-1.1,0-1.7,0.1c-0.6,0-1.1,0.1-1.6,0.3s-0.9,0.4-1.2,0.6c-0.3,0.3-0.5,0.7-0.5,1.2c0,0.3,0.1,0.6,0.2,0.8
				c0.1,0.2,0.3,0.4,0.5,0.6c0.2,0.1,0.5,0.2,0.7,0.3c0.3,0.1,0.6,0.1,0.8,0.1c1.1,0,1.9-0.3,2.4-0.9s0.9-1.4,0.9-2.4v-0.6
				L416.3,493.8L416.3,493.8z"/>
			<path d="M422.4,489.1c0-0.5,0-0.9-0.1-1.3h2.1c0,0.3,0.1,0.6,0.1,1c0,0.4,0,0.7,0,0.9h0.1c0.3-0.7,0.8-1.2,1.4-1.6
				s1.3-0.6,2.1-0.6c0.4,0,0.6,0,0.9,0.1l-0.1,2.1c-0.3-0.1-0.7-0.1-1-0.1c-0.5,0-1,0.1-1.4,0.3c-0.4,0.2-0.7,0.5-1,0.8
				c-0.3,0.3-0.5,0.7-0.6,1.2s-0.2,0.9-0.2,1.4v6h-2.3v-8.9C422.4,490,422.4,489.6,422.4,489.1z"/>
			<path d="M434.4,488.2c0.6-0.4,1.4-0.6,2.2-0.6c0.8,0,1.5,0.2,2.1,0.5c0.6,0.4,1.1,0.9,1.5,1.8c0.4-0.7,0.9-1.3,1.6-1.7
				s1.4-0.6,2.3-0.6c0.7,0,1.4,0.1,1.9,0.4c0.5,0.2,1,0.6,1.3,1s0.6,0.9,0.8,1.5s0.3,1.2,0.3,1.8v7.1H446v-6.3c0-0.5,0-0.9-0.1-1.3
				s-0.2-0.8-0.4-1.1c-0.2-0.3-0.4-0.6-0.8-0.8c-0.3-0.2-0.7-0.3-1.2-0.3c-0.5,0-1,0.1-1.3,0.3c-0.4,0.2-0.7,0.5-0.9,0.8
				c-0.2,0.3-0.4,0.7-0.5,1.2s-0.2,0.9-0.2,1.3v6.1h-2.3v-6.8c0-0.4,0-0.9-0.1-1.2s-0.2-0.7-0.4-0.9c-0.2-0.3-0.4-0.5-0.7-0.6
				c-0.3-0.2-0.7-0.2-1.1-0.2c-0.8,0-1.5,0.3-2.1,1c-0.6,0.7-0.8,1.6-0.8,2.7v6h-2.3v-8.9c0-0.3,0-0.7,0-1.2s0-0.9-0.1-1.3h2.1
				c0,0.3,0.1,0.6,0.1,1c0,0.4,0,0.7,0,0.9h0.1C433.3,489.1,433.7,488.6,434.4,488.2z"/>
			<path d="M457.1,489.7h-2.6v9.5h-2.3v-9.5h-2.3v-1.8h2.3v-2.4c0-0.7,0.1-1.3,0.2-1.9s0.4-1.1,0.7-1.5c0.3-0.4,0.8-0.7,1.3-1
				c0.5-0.2,1.2-0.4,2-0.4c0.5,0,1,0.1,1.4,0.2l-0.3,1.9c-0.2,0-0.4-0.1-0.5-0.1c-0.2,0-0.4,0-0.6,0c-0.4,0-0.8,0.1-1,0.2
				c-0.3,0.2-0.5,0.4-0.6,0.6c-0.1,0.3-0.2,0.5-0.3,0.9c0,0.3-0.1,0.7-0.1,1v2.4h2.6L457.1,489.7L457.1,489.7z"/>
			<path d="M466.8,499.2c0-0.3-0.1-0.6-0.1-1c0-0.4,0-0.7,0-0.9h0c-0.3,0.6-0.8,1.1-1.5,1.5c-0.7,0.4-1.4,0.6-2.3,0.6
				c-0.7,0-1.4-0.1-1.9-0.4c-0.5-0.2-1-0.6-1.3-1c-0.3-0.4-0.6-0.9-0.8-1.5s-0.3-1.2-0.3-1.8v-7.1h2.3v6.3c0,0.5,0,0.9,0.1,1.3
				s0.2,0.8,0.4,1.1c0.2,0.3,0.5,0.6,0.8,0.8c0.3,0.2,0.8,0.3,1.3,0.3c0.9,0,1.6-0.3,2.2-1c0.6-0.7,0.8-1.6,0.8-2.7v-6h2.3v8.9
				c0,0.3,0,0.7,0,1.2c0,0.5,0,0.9,0.1,1.3L466.8,499.2L466.8,499.2z"/>
			<path d="M474.7,499.2h-2.3v-18.1h2.3V499.2z"/>
			<path d="M491.9,490.7c-0.2-0.4-0.6-0.7-1.1-0.9c-0.5-0.2-1-0.4-1.5-0.4c-0.6,0-1.1,0.1-1.6,0.3c-0.5,0.2-0.8,0.5-1.2,0.9
				c-0.3,0.4-0.6,0.8-0.7,1.3s-0.3,1-0.3,1.6s0.1,1.1,0.3,1.6s0.4,0.9,0.7,1.3c0.3,0.4,0.7,0.7,1.2,0.9c0.5,0.2,1,0.3,1.6,0.3
				c0.6,0,1.1-0.1,1.6-0.3c0.5-0.2,0.9-0.5,1.2-0.9l1.5,1.4c-0.5,0.6-1.1,1-1.8,1.3c-0.7,0.3-1.5,0.5-2.4,0.5
				c-0.9,0-1.7-0.1-2.4-0.4c-0.7-0.3-1.4-0.7-1.9-1.2s-1-1.1-1.3-1.9c-0.3-0.7-0.5-1.6-0.5-2.5c0-0.9,0.2-1.7,0.5-2.4
				c0.3-0.7,0.7-1.4,1.3-1.9c0.5-0.5,1.2-0.9,1.9-1.2c0.7-0.3,1.5-0.4,2.4-0.4c0.8,0,1.6,0.2,2.4,0.5c0.8,0.3,1.4,0.8,1.9,1.4
				L491.9,490.7z"/>
			<path d="M497.8,489.6c0.3-0.6,0.7-1,1.4-1.4c0.7-0.4,1.4-0.6,2.2-0.6c0.7,0,1.4,0.1,1.9,0.4s1,0.6,1.3,1c0.4,0.4,0.6,0.9,0.8,1.5
				s0.3,1.2,0.3,1.8v7.1h-2.3v-6.3c0-0.5,0-0.9-0.1-1.3c-0.1-0.4-0.2-0.8-0.4-1.1c-0.2-0.3-0.5-0.6-0.8-0.8
				c-0.3-0.2-0.8-0.3-1.3-0.3c-0.9,0-1.6,0.3-2.2,1s-0.9,1.6-0.9,2.7v6h-2.3v-18.1h2.3L497.8,489.6L497.8,489.6L497.8,489.6z"/>
			<path d="M519.7,493.4c0,0.1,0,0.3,0,0.4s0,0.3,0,0.4h-9c0,0.5,0.1,0.9,0.3,1.3c0.2,0.4,0.5,0.8,0.8,1.1s0.7,0.6,1.2,0.7
				s0.9,0.3,1.4,0.3c0.8,0,1.4-0.2,2-0.5s1-0.7,1.3-1.2l1.6,1.3c-0.6,0.8-1.3,1.4-2.1,1.8c-0.8,0.4-1.7,0.6-2.7,0.6
				c-0.9,0-1.7-0.1-2.4-0.4c-0.7-0.3-1.4-0.7-1.9-1.2c-0.5-0.5-0.9-1.1-1.2-1.9c-0.3-0.7-0.5-1.6-0.5-2.4c0-0.9,0.1-1.7,0.4-2.4
				s0.7-1.4,1.2-1.9c0.5-0.5,1.2-0.9,1.9-1.2c0.7-0.3,1.5-0.4,2.3-0.4c0.8,0,1.6,0.1,2.3,0.4s1.3,0.7,1.7,1.2
				c0.5,0.5,0.8,1.1,1.1,1.9C519.6,491.7,519.7,492.5,519.7,493.4z M517.4,492.5c0-0.4-0.1-0.9-0.2-1.3c-0.1-0.4-0.3-0.7-0.6-1
				c-0.3-0.3-0.6-0.5-1-0.7c-0.4-0.2-0.9-0.3-1.4-0.3c-0.5,0-0.9,0.1-1.4,0.3c-0.4,0.2-0.8,0.4-1.1,0.7s-0.6,0.6-0.8,1
				c-0.2,0.4-0.3,0.8-0.3,1.3H517.4z"/>
			<path d="M526,488.2c0.6-0.4,1.4-0.6,2.2-0.6c0.8,0,1.5,0.2,2.1,0.5c0.6,0.4,1.1,0.9,1.5,1.8c0.4-0.7,0.9-1.3,1.6-1.7
				s1.4-0.6,2.3-0.6c0.7,0,1.4,0.1,1.9,0.4c0.5,0.2,1,0.6,1.3,1s0.6,0.9,0.8,1.5s0.3,1.2,0.3,1.8v7.1h-2.3v-6.3c0-0.5,0-0.9-0.1-1.3
				s-0.2-0.8-0.4-1.1c-0.2-0.3-0.4-0.6-0.8-0.8c-0.3-0.2-0.7-0.3-1.2-0.3c-0.5,0-1,0.1-1.3,0.3c-0.4,0.2-0.7,0.5-0.9,0.8
				c-0.2,0.3-0.4,0.7-0.5,1.2s-0.2,0.9-0.2,1.3v6.1H530v-6.8c0-0.4,0-0.9-0.1-1.2s-0.2-0.7-0.4-0.9c-0.2-0.3-0.4-0.5-0.7-0.6
				c-0.3-0.2-0.7-0.2-1.1-0.2c-0.8,0-1.5,0.3-2.1,1c-0.6,0.7-0.8,1.6-0.8,2.7v6h-2.3v-8.9c0-0.3,0-0.7,0-1.2s0-0.9-0.1-1.3h2.1
				c0,0.3,0.1,0.6,0.1,1c0,0.4,0,0.7,0,0.9h0.1C524.9,489.1,525.4,488.6,526,488.2z"/>
			<path d="M546,483.7c0,0.4-0.1,0.8-0.4,1c-0.3,0.3-0.6,0.4-1.1,0.4s-0.8-0.1-1-0.4c-0.3-0.3-0.4-0.6-0.4-1c0-0.4,0.1-0.8,0.4-1
				c0.3-0.3,0.6-0.4,1-0.4s0.8,0.1,1.1,0.4C545.9,483,546,483.3,546,483.7z M545.7,499.2h-2.3v-11.4h2.3V499.2z"/>
			<path d="M557.2,490.7c-0.2-0.4-0.6-0.7-1.1-0.9c-0.5-0.2-1-0.4-1.5-0.4c-0.6,0-1.1,0.1-1.6,0.3c-0.5,0.2-0.8,0.5-1.2,0.9
				c-0.3,0.4-0.6,0.8-0.7,1.3s-0.3,1-0.3,1.6s0.1,1.1,0.3,1.6s0.4,0.9,0.7,1.3c0.3,0.4,0.7,0.7,1.2,0.9c0.5,0.2,1,0.3,1.6,0.3
				c0.6,0,1.1-0.1,1.6-0.3c0.5-0.2,0.9-0.5,1.2-0.9l1.5,1.4c-0.5,0.6-1.1,1-1.8,1.3c-0.7,0.3-1.5,0.5-2.4,0.5
				c-0.9,0-1.7-0.1-2.4-0.4c-0.7-0.3-1.4-0.7-1.9-1.2s-1-1.1-1.3-1.9c-0.3-0.7-0.5-1.6-0.5-2.5c0-0.9,0.2-1.7,0.5-2.4
				c0.3-0.7,0.7-1.4,1.3-1.9c0.5-0.5,1.2-0.9,1.9-1.2c0.7-0.3,1.5-0.4,2.4-0.4c0.8,0,1.6,0.2,2.4,0.5c0.8,0.3,1.4,0.8,1.9,1.4
				L557.2,490.7z"/>
			<path d="M567.8,491.9c0-0.8-0.3-1.5-0.8-1.9c-0.5-0.4-1.2-0.6-2-0.6c-0.6,0-1.2,0.1-1.8,0.4c-0.6,0.2-1,0.6-1.4,0.9l-1.2-1.4
				c0.6-0.5,1.2-0.9,2.1-1.2c0.8-0.3,1.7-0.5,2.6-0.5c0.8,0,1.5,0.1,2.1,0.3c0.6,0.2,1.1,0.5,1.5,0.9s0.7,0.9,0.9,1.4
				c0.2,0.5,0.3,1.1,0.3,1.8v5c0,0.4,0,0.8,0,1.2c0,0.4,0.1,0.8,0.1,1h-2c-0.1-0.5-0.2-1.1-0.2-1.6h-0.1c-0.4,0.6-0.9,1.1-1.6,1.4
				s-1.4,0.5-2.2,0.5c-0.4,0-0.9-0.1-1.4-0.2c-0.5-0.1-0.9-0.3-1.3-0.6c-0.4-0.3-0.7-0.6-1-1.1c-0.3-0.4-0.4-1-0.4-1.7
				c0-0.9,0.2-1.5,0.7-2.1s1.1-0.9,1.8-1.2c0.8-0.3,1.6-0.4,2.5-0.5s1.9-0.1,2.9-0.1L567.8,491.9L567.8,491.9z M567.3,493.8
				c-0.6,0-1.1,0-1.7,0.1c-0.6,0-1.1,0.1-1.6,0.3s-0.9,0.4-1.2,0.6c-0.3,0.3-0.5,0.7-0.5,1.2c0,0.3,0.1,0.6,0.2,0.8
				c0.1,0.2,0.3,0.4,0.5,0.6c0.2,0.1,0.5,0.2,0.7,0.3c0.3,0.1,0.6,0.1,0.8,0.1c1.1,0,1.9-0.3,2.4-0.9s0.9-1.4,0.9-2.4v-0.6
				L567.3,493.8L567.3,493.8z"/>
			<path d="M575.7,499.2h-2.3v-18.1h2.3V499.2z"/>
			<path d="M585.4,490.7c-0.3-0.4-0.6-0.8-1.1-1c-0.5-0.3-1-0.4-1.6-0.4c-0.3,0-0.5,0-0.8,0.1c-0.3,0.1-0.5,0.1-0.7,0.3
				s-0.4,0.3-0.5,0.5c-0.1,0.2-0.2,0.4-0.2,0.7c0,0.5,0.2,0.8,0.6,1.1s1.1,0.4,1.9,0.6c0.5,0.1,1,0.3,1.5,0.5
				c0.5,0.2,0.9,0.4,1.2,0.7c0.3,0.3,0.6,0.6,0.8,0.9s0.3,0.8,0.3,1.3c0,0.7-0.1,1.2-0.4,1.7c-0.3,0.5-0.6,0.8-1,1.1
				s-0.9,0.5-1.5,0.6c-0.5,0.1-1.1,0.2-1.7,0.2c-0.9,0-1.7-0.2-2.5-0.5s-1.5-0.8-2.1-1.5l1.6-1.4c0.3,0.4,0.7,0.8,1.3,1.1
				c0.5,0.3,1.1,0.5,1.8,0.5c0.3,0,0.6,0,0.8-0.1c0.3-0.1,0.5-0.1,0.7-0.3c0.2-0.1,0.4-0.3,0.5-0.5c0.1-0.2,0.2-0.5,0.2-0.8
				c0-0.5-0.3-0.9-0.8-1.2c-0.5-0.3-1.2-0.5-2.2-0.7c-0.4-0.1-0.8-0.2-1.2-0.3c-0.4-0.1-0.7-0.3-1.1-0.6s-0.6-0.5-0.8-0.9
				c-0.2-0.4-0.3-0.8-0.3-1.3c0-0.6,0.1-1.1,0.4-1.6s0.6-0.8,1-1.1c0.4-0.3,0.9-0.5,1.4-0.6c0.5-0.1,1-0.2,1.6-0.2
				c0.8,0,1.6,0.2,2.4,0.5c0.8,0.3,1.3,0.8,1.8,1.4L585.4,490.7z"/>
			<path d="M592.3,497.8c0,0.4-0.2,0.8-0.5,1.1c-0.3,0.3-0.7,0.5-1.2,0.5c-0.4,0-0.8-0.2-1.1-0.5c-0.3-0.3-0.5-0.7-0.5-1.1
				c0-0.4,0.2-0.8,0.5-1.1s0.7-0.5,1.2-0.5s0.8,0.2,1.2,0.5C592.2,497,592.3,497.4,592.3,497.8z"/>
			<path d="M332.4,528.2h2.4v7.1h8.6v-7.1h2.4v17h-2.4v-7.8h-8.6v7.8h-2.4V528.2z"/>
			<path d="M356.5,537.9c0-0.8-0.3-1.5-0.8-1.9c-0.5-0.4-1.2-0.6-2-0.6c-0.6,0-1.2,0.1-1.8,0.4c-0.6,0.2-1,0.6-1.4,0.9l-1.2-1.4
				c0.6-0.5,1.2-0.9,2.1-1.2c0.8-0.3,1.7-0.5,2.6-0.5c0.8,0,1.5,0.1,2.1,0.3c0.6,0.2,1.1,0.5,1.5,0.9s0.7,0.9,0.9,1.4
				c0.2,0.5,0.3,1.1,0.3,1.8v5c0,0.4,0,0.8,0,1.2c0,0.4,0.1,0.8,0.1,1h-2c-0.1-0.5-0.2-1.1-0.2-1.6h-0.1c-0.4,0.6-0.9,1.1-1.6,1.4
				s-1.4,0.5-2.2,0.5c-0.4,0-0.9-0.1-1.4-0.2c-0.5-0.1-0.9-0.3-1.3-0.6c-0.4-0.3-0.7-0.6-1-1.1c-0.3-0.4-0.4-1-0.4-1.7
				c0-0.9,0.2-1.5,0.7-2.1s1.1-0.9,1.8-1.2c0.8-0.3,1.6-0.4,2.5-0.5s1.9-0.1,2.9-0.1L356.5,537.9L356.5,537.9z M356,539.8
				c-0.6,0-1.1,0-1.7,0.1c-0.6,0-1.1,0.1-1.6,0.3s-0.9,0.4-1.2,0.6c-0.3,0.3-0.5,0.7-0.5,1.2c0,0.3,0.1,0.6,0.2,0.8
				c0.1,0.2,0.3,0.4,0.5,0.6c0.2,0.1,0.5,0.2,0.7,0.3c0.3,0.1,0.6,0.1,0.8,0.1c1.1,0,1.9-0.3,2.4-0.9s0.9-1.4,0.9-2.4v-0.6
				L356,539.8L356,539.8z"/>
			<path d="M362.1,535.1c0-0.5,0-0.9-0.1-1.3h2.1c0,0.3,0.1,0.6,0.1,1c0,0.4,0,0.7,0,0.9h0.1c0.3-0.7,0.8-1.2,1.4-1.6
				s1.3-0.6,2.1-0.6c0.4,0,0.6,0,0.9,0.1l-0.1,2.1c-0.3-0.1-0.7-0.1-1-0.1c-0.5,0-1,0.1-1.4,0.3c-0.4,0.2-0.7,0.5-1,0.8
				c-0.3,0.3-0.5,0.7-0.6,1.2s-0.2,0.9-0.2,1.4v6h-2.3v-8.9C362.1,536,362.1,535.6,362.1,535.1z"/>
			<path d="M379.1,543.4c-0.4,0.7-1,1.2-1.8,1.6s-1.5,0.5-2.3,0.5c-0.9,0-1.7-0.2-2.4-0.5s-1.3-0.7-1.8-1.3
				c-0.5-0.5-0.9-1.2-1.2-1.9c-0.3-0.7-0.4-1.5-0.4-2.4s0.1-1.6,0.4-2.3c0.3-0.7,0.7-1.4,1.2-1.9c0.5-0.5,1.1-1,1.8-1.3
				c0.7-0.3,1.5-0.5,2.3-0.5c0.9,0,1.7,0.2,2.4,0.6c0.7,0.4,1.2,0.9,1.6,1.4h0v-8.5h2.3v18.1h-2.2L379.1,543.4L379.1,543.4
				L379.1,543.4z M371.6,539.5c0,0.5,0.1,1,0.2,1.5c0.2,0.5,0.4,0.9,0.7,1.3c0.3,0.4,0.7,0.7,1.2,0.9s1,0.3,1.6,0.3
				c0.6,0,1.1-0.1,1.6-0.3c0.5-0.2,0.9-0.5,1.2-0.9s0.6-0.8,0.8-1.3s0.3-1,0.3-1.6c0-0.5-0.1-1.1-0.3-1.6c-0.2-0.5-0.4-0.9-0.8-1.3
				s-0.7-0.7-1.2-0.9c-0.5-0.2-1-0.3-1.6-0.3c-0.6,0-1.2,0.1-1.6,0.3c-0.5,0.2-0.9,0.5-1.2,0.9s-0.6,0.8-0.7,1.3
				C371.7,538.5,371.6,539,371.6,539.5z"/>
			<path d="M402,539.5c0,0.9-0.2,1.7-0.5,2.4c-0.3,0.7-0.7,1.4-1.3,1.9c-0.6,0.5-1.2,1-2,1.2c-0.8,0.3-1.6,0.4-2.4,0.4
				c-0.9,0-1.7-0.1-2.4-0.4c-0.8-0.3-1.4-0.7-1.9-1.2c-0.5-0.5-1-1.2-1.3-1.9c-0.3-0.7-0.5-1.5-0.5-2.4c0-0.9,0.2-1.7,0.5-2.4
				c0.3-0.7,0.7-1.4,1.3-1.9c0.5-0.5,1.2-0.9,1.9-1.2c0.8-0.3,1.6-0.4,2.4-0.4c0.9,0,1.7,0.1,2.4,0.4c0.8,0.3,1.4,0.7,2,1.2
				c0.6,0.5,1,1.2,1.3,1.9C401.9,537.8,402,538.6,402,539.5z M399.7,539.5c0-0.5-0.1-1.1-0.3-1.6c-0.2-0.5-0.4-0.9-0.7-1.3
				s-0.7-0.7-1.2-0.9c-0.5-0.2-1-0.3-1.6-0.3c-0.6,0-1.2,0.1-1.6,0.3c-0.5,0.2-0.9,0.5-1.2,0.9c-0.3,0.4-0.6,0.8-0.7,1.3
				c-0.2,0.5-0.3,1-0.3,1.6c0,0.5,0.1,1.1,0.3,1.6c0.2,0.5,0.4,0.9,0.7,1.3c0.3,0.4,0.7,0.7,1.2,0.9c0.5,0.2,1,0.3,1.6,0.3
				c0.6,0,1.2-0.1,1.6-0.3c0.5-0.2,0.9-0.5,1.2-0.9s0.6-0.8,0.7-1.3C399.6,540.6,399.7,540.1,399.7,539.5z"/>
			<path d="M406.8,533.9c0,0.3,0.1,0.6,0.1,1c0,0.4,0,0.7,0,0.9h0.1c0.1-0.3,0.3-0.6,0.6-0.9s0.5-0.5,0.9-0.7
				c0.3-0.2,0.7-0.4,1.1-0.5c0.4-0.1,0.8-0.2,1.2-0.2c0.7,0,1.4,0.1,1.9,0.4s1,0.6,1.3,1c0.4,0.4,0.6,0.9,0.8,1.5s0.3,1.2,0.3,1.8
				v7.1h-2.3v-6.3c0-0.5,0-0.9-0.1-1.3c-0.1-0.4-0.2-0.8-0.4-1.1s-0.5-0.6-0.8-0.8s-0.8-0.3-1.3-0.3c-0.9,0-1.6,0.3-2.2,1
				c-0.6,0.7-0.9,1.6-0.9,2.7v6h-2.3v-8.9c0-0.3,0-0.7,0-1.2s0-0.9-0.1-1.3H406.8z"/>
			<path d="M424.9,547.2c0.5,0.6,1.1,1,1.9,1.3c0.7,0.3,1.5,0.5,2.3,0.5c0.8,0,1.4-0.1,1.9-0.3c0.5-0.2,0.9-0.5,1.2-0.9
				c0.3-0.4,0.5-0.8,0.7-1.3c0.1-0.5,0.2-1.1,0.2-1.7v-1.5h0c-0.4,0.6-1,1.1-1.7,1.5c-0.7,0.3-1.5,0.5-2.3,0.5
				c-0.9,0-1.7-0.2-2.4-0.5s-1.3-0.7-1.8-1.2s-0.9-1.1-1.2-1.9c-0.3-0.7-0.4-1.5-0.4-2.3c0-0.8,0.1-1.6,0.4-2.3
				c0.3-0.7,0.7-1.3,1.2-1.9c0.5-0.5,1.1-1,1.8-1.3s1.5-0.5,2.4-0.5c0.8,0,1.6,0.2,2.3,0.5s1.3,0.9,1.8,1.6h0v-1.8h2.2v10.8
				c0,0.8-0.1,1.6-0.3,2.4c-0.2,0.8-0.6,1.4-1.1,2c-0.5,0.6-1.1,1.1-1.9,1.4c-0.8,0.4-1.8,0.5-3,0.5c-1,0-2-0.2-3-0.5
				s-1.9-0.9-2.6-1.5L424.9,547.2z M425.6,539.4c0,0.5,0.1,1,0.3,1.5c0.2,0.5,0.4,0.9,0.7,1.3s0.7,0.7,1.2,0.9
				c0.5,0.2,1,0.3,1.6,0.3c0.6,0,1.1-0.1,1.6-0.3s0.9-0.5,1.2-0.9c0.3-0.4,0.6-0.8,0.8-1.3s0.3-1,0.3-1.6c0-0.5-0.1-1.1-0.3-1.5
				c-0.2-0.5-0.4-0.9-0.8-1.3c-0.3-0.4-0.8-0.7-1.2-0.9c-0.5-0.2-1-0.3-1.6-0.3c-0.6,0-1.1,0.1-1.6,0.3c-0.5,0.2-0.9,0.5-1.2,0.9
				c-0.3,0.4-0.6,0.8-0.7,1.3C425.7,538.4,425.6,538.9,425.6,539.4z"/>
			<path d="M449.5,539.4c0,0.1,0,0.3,0,0.4s0,0.3,0,0.4h-9c0,0.5,0.1,0.9,0.3,1.3c0.2,0.4,0.5,0.8,0.8,1.1s0.7,0.6,1.2,0.7
				s0.9,0.3,1.4,0.3c0.8,0,1.4-0.2,2-0.5s1-0.7,1.3-1.2l1.6,1.3c-0.6,0.8-1.3,1.4-2.1,1.8c-0.8,0.4-1.7,0.6-2.7,0.6
				c-0.9,0-1.7-0.1-2.4-0.4c-0.7-0.3-1.4-0.7-1.9-1.2c-0.5-0.5-0.9-1.1-1.2-1.9c-0.3-0.7-0.5-1.6-0.5-2.4c0-0.9,0.1-1.7,0.4-2.4
				s0.7-1.4,1.2-1.9c0.5-0.5,1.2-0.9,1.9-1.2c0.7-0.3,1.5-0.4,2.3-0.4c0.8,0,1.6,0.1,2.3,0.4s1.3,0.7,1.7,1.2
				c0.5,0.5,0.8,1.1,1.1,1.9C449.4,537.7,449.5,538.5,449.5,539.4z M447.2,538.5c0-0.4-0.1-0.9-0.2-1.3c-0.1-0.4-0.3-0.7-0.6-1
				c-0.3-0.3-0.6-0.5-1-0.7c-0.4-0.2-0.9-0.3-1.4-0.3c-0.5,0-0.9,0.1-1.4,0.3s-0.8,0.4-1.1,0.7s-0.6,0.6-0.8,1
				c-0.2,0.4-0.3,0.8-0.3,1.3H447.2z"/>
			<path d="M452.2,535.1c0-0.5,0-0.9-0.1-1.3h2.1c0,0.3,0.1,0.6,0.1,1c0,0.4,0,0.7,0,0.9h0.1c0.3-0.7,0.8-1.2,1.4-1.6
				s1.3-0.6,2.1-0.6c0.4,0,0.6,0,0.9,0.1l-0.1,2.1c-0.3-0.1-0.7-0.1-1-0.1c-0.5,0-1,0.1-1.4,0.3c-0.4,0.2-0.7,0.5-1,0.8
				c-0.3,0.3-0.5,0.7-0.6,1.2s-0.2,0.9-0.2,1.4v6h-2.3v-8.9C452.3,536,452.2,535.6,452.2,535.1z"/>
			<path d="M464.2,534.2c0.6-0.4,1.4-0.6,2.2-0.6c0.8,0,1.5,0.2,2.1,0.5c0.6,0.4,1.1,0.9,1.5,1.8c0.4-0.7,0.9-1.3,1.6-1.7
				s1.4-0.6,2.3-0.6c0.7,0,1.4,0.1,1.9,0.4c0.5,0.2,1,0.6,1.3,1s0.6,0.9,0.8,1.5s0.3,1.2,0.3,1.8v7.1h-2.3v-6.3c0-0.5,0-0.9-0.1-1.3
				s-0.2-0.8-0.4-1.1c-0.2-0.3-0.4-0.6-0.8-0.8s-0.7-0.3-1.2-0.3c-0.5,0-1,0.1-1.3,0.3c-0.4,0.2-0.7,0.5-0.9,0.8
				c-0.2,0.3-0.4,0.7-0.5,1.2s-0.2,0.9-0.2,1.3v6.1h-2.3v-6.8c0-0.4,0-0.9-0.1-1.2s-0.2-0.7-0.4-0.9c-0.2-0.3-0.4-0.5-0.7-0.6
				c-0.3-0.2-0.7-0.2-1.1-0.2c-0.8,0-1.5,0.3-2.1,1c-0.6,0.7-0.8,1.6-0.8,2.7v6h-2.3v-8.9c0-0.3,0-0.7,0-1.2s0-0.9-0.1-1.3h2.1
				c0,0.3,0.1,0.6,0.1,1c0,0.4,0,0.7,0,0.9h0.1C463.1,535.1,463.5,534.6,464.2,534.2z"/>
			<path d="M487.7,536.7c-0.3-0.4-0.6-0.8-1.1-1c-0.5-0.3-1-0.4-1.6-0.4c-0.3,0-0.5,0-0.8,0.1c-0.3,0.1-0.5,0.1-0.7,0.3
				s-0.4,0.3-0.5,0.5c-0.1,0.2-0.2,0.4-0.2,0.7c0,0.5,0.2,0.8,0.6,1.1s1.1,0.4,1.9,0.6c0.5,0.1,1,0.3,1.5,0.5
				c0.5,0.2,0.9,0.4,1.2,0.7c0.3,0.3,0.6,0.6,0.8,0.9s0.3,0.8,0.3,1.3c0,0.7-0.1,1.2-0.4,1.7c-0.3,0.5-0.6,0.8-1,1.1
				s-0.9,0.5-1.5,0.6c-0.5,0.1-1.1,0.2-1.7,0.2c-0.9,0-1.7-0.2-2.5-0.5s-1.5-0.8-2.1-1.5l1.6-1.4c0.3,0.4,0.7,0.8,1.3,1.1
				c0.5,0.3,1.1,0.5,1.8,0.5c0.3,0,0.6,0,0.8-0.1c0.3-0.1,0.5-0.1,0.7-0.3c0.2-0.1,0.4-0.3,0.5-0.5c0.1-0.2,0.2-0.5,0.2-0.8
				c0-0.5-0.3-0.9-0.8-1.2c-0.5-0.3-1.2-0.5-2.2-0.7c-0.4-0.1-0.8-0.2-1.2-0.3c-0.4-0.1-0.7-0.3-1.1-0.6s-0.6-0.5-0.8-0.9
				c-0.2-0.4-0.3-0.8-0.3-1.3c0-0.6,0.1-1.1,0.4-1.6s0.6-0.8,1-1.1c0.4-0.3,0.9-0.5,1.4-0.6c0.5-0.1,1-0.2,1.6-0.2
				c0.8,0,1.6,0.2,2.4,0.5c0.8,0.3,1.3,0.8,1.8,1.4L487.7,536.7z"/>
			<path d="M492.6,548.4h-1.9l1.7-6h2.3L492.6,548.4z"/>
			<path d="M343,577.4c0,0.1,0,0.3,0,0.4s0,0.3,0,0.4h-9c0,0.5,0.1,0.9,0.3,1.3c0.2,0.4,0.5,0.8,0.8,1.1c0.3,0.3,0.7,0.6,1.2,0.7
				c0.4,0.2,0.9,0.3,1.4,0.3c0.8,0,1.4-0.2,2-0.5s1-0.7,1.3-1.2l1.6,1.3c-0.6,0.8-1.3,1.4-2.1,1.8c-0.8,0.4-1.7,0.6-2.7,0.6
				c-0.9,0-1.7-0.1-2.4-0.4c-0.7-0.3-1.4-0.7-1.9-1.2c-0.5-0.5-0.9-1.1-1.2-1.9c-0.3-0.7-0.5-1.6-0.5-2.4c0-0.9,0.1-1.7,0.4-2.4
				c0.3-0.7,0.7-1.4,1.2-1.9c0.5-0.5,1.2-0.9,1.9-1.2s1.5-0.4,2.3-0.4c0.8,0,1.6,0.1,2.3,0.4c0.7,0.3,1.3,0.7,1.7,1.2
				c0.5,0.5,0.8,1.1,1.1,1.9C342.8,575.7,343,576.5,343,577.4z M340.7,576.5c0-0.4-0.1-0.9-0.2-1.3c-0.1-0.4-0.3-0.7-0.6-1
				c-0.3-0.3-0.6-0.5-1-0.7c-0.4-0.2-0.9-0.3-1.4-0.3c-0.5,0-0.9,0.1-1.4,0.3s-0.8,0.4-1.1,0.7c-0.3,0.3-0.6,0.6-0.8,1
				c-0.2,0.4-0.3,0.8-0.3,1.3H340.7z"/>
			<path d="M352.7,575.9c0-0.8-0.3-1.5-0.8-1.9s-1.2-0.6-2-0.6c-0.6,0-1.2,0.1-1.8,0.4c-0.6,0.2-1,0.6-1.4,0.9l-1.2-1.4
				c0.6-0.5,1.2-0.9,2.1-1.2c0.8-0.3,1.7-0.5,2.6-0.5c0.8,0,1.5,0.1,2.1,0.3c0.6,0.2,1.1,0.5,1.5,0.9s0.7,0.9,0.9,1.4
				c0.2,0.5,0.3,1.1,0.3,1.8v5c0,0.4,0,0.8,0,1.2c0,0.4,0.1,0.8,0.1,1h-2c-0.1-0.5-0.2-1.1-0.2-1.6h-0.1c-0.4,0.6-0.9,1.1-1.6,1.4
				s-1.4,0.5-2.2,0.5c-0.4,0-0.9-0.1-1.4-0.2c-0.5-0.1-0.9-0.3-1.3-0.6c-0.4-0.3-0.7-0.6-1-1.1s-0.4-1-0.4-1.7
				c0-0.9,0.2-1.5,0.7-2.1c0.5-0.5,1.1-0.9,1.8-1.2s1.6-0.4,2.5-0.5s1.9-0.1,2.9-0.1L352.7,575.9L352.7,575.9z M352.1,577.8
				c-0.6,0-1.1,0-1.7,0.1c-0.6,0-1.1,0.1-1.6,0.3s-0.9,0.4-1.2,0.6c-0.3,0.3-0.5,0.7-0.5,1.2c0,0.3,0.1,0.6,0.2,0.8
				c0.1,0.2,0.3,0.4,0.5,0.6c0.2,0.1,0.5,0.2,0.7,0.3c0.3,0.1,0.6,0.1,0.8,0.1c1.1,0,1.9-0.3,2.4-0.9c0.6-0.6,0.9-1.4,0.9-2.4v-0.6
				L352.1,577.8L352.1,577.8z"/>
			<path d="M364.4,574.7c-0.3-0.4-0.6-0.8-1.1-1c-0.5-0.3-1-0.4-1.6-0.4c-0.3,0-0.5,0-0.8,0.1s-0.5,0.1-0.7,0.3s-0.4,0.3-0.5,0.5
				c-0.1,0.2-0.2,0.4-0.2,0.7c0,0.5,0.2,0.8,0.6,1.1c0.4,0.2,1.1,0.4,1.9,0.6c0.5,0.1,1,0.3,1.5,0.5c0.5,0.2,0.9,0.4,1.2,0.7
				c0.3,0.3,0.6,0.6,0.8,0.9s0.3,0.8,0.3,1.3c0,0.7-0.1,1.2-0.4,1.7c-0.3,0.5-0.6,0.8-1,1.1c-0.4,0.3-0.9,0.5-1.5,0.6
				c-0.5,0.1-1.1,0.2-1.7,0.2c-0.9,0-1.7-0.2-2.5-0.5s-1.5-0.8-2.1-1.5l1.6-1.4c0.3,0.4,0.7,0.8,1.3,1.1c0.5,0.3,1.1,0.5,1.8,0.5
				c0.3,0,0.6,0,0.8-0.1c0.3-0.1,0.5-0.1,0.7-0.3c0.2-0.1,0.4-0.3,0.5-0.5c0.1-0.2,0.2-0.5,0.2-0.8c0-0.5-0.3-0.9-0.8-1.2
				s-1.2-0.5-2.2-0.7c-0.4-0.1-0.8-0.2-1.2-0.3c-0.4-0.1-0.7-0.3-1.1-0.6s-0.6-0.5-0.8-0.9c-0.2-0.4-0.3-0.8-0.3-1.3
				c0-0.6,0.1-1.1,0.4-1.6c0.2-0.4,0.6-0.8,1-1.1c0.4-0.3,0.9-0.5,1.4-0.6c0.5-0.1,1-0.2,1.6-0.2c0.8,0,1.6,0.2,2.4,0.5
				s1.3,0.8,1.8,1.4L364.4,574.7z"/>
			<path d="M372.8,580.8L372.8,580.8l3.2-8.9h2.4l-5.5,14.1c-0.2,0.5-0.4,0.9-0.6,1.3c-0.2,0.4-0.5,0.7-0.8,1s-0.7,0.5-1.1,0.6
				c-0.4,0.1-0.9,0.2-1.5,0.2c-0.2,0-0.5,0-0.7,0c-0.2,0-0.5-0.1-0.8-0.1l0.2-2c0.4,0.1,0.8,0.2,1.1,0.2c0.6,0,1-0.2,1.3-0.5
				s0.6-0.8,0.8-1.4l0.7-1.9l-4.9-11.4h2.5L372.8,580.8z"/>
			<path d="M397.4,577.5c0,0.9-0.2,1.7-0.5,2.4c-0.3,0.7-0.7,1.4-1.3,1.9c-0.6,0.5-1.2,1-2,1.2c-0.8,0.3-1.6,0.4-2.4,0.4
				c-0.9,0-1.7-0.1-2.4-0.4c-0.8-0.3-1.4-0.7-1.9-1.2c-0.5-0.5-1-1.2-1.3-1.9c-0.3-0.7-0.5-1.5-0.5-2.4c0-0.9,0.2-1.7,0.5-2.4
				c0.3-0.7,0.7-1.4,1.3-1.9c0.5-0.5,1.2-0.9,1.9-1.2c0.8-0.3,1.6-0.4,2.4-0.4c0.9,0,1.7,0.1,2.4,0.4s1.4,0.7,2,1.2
				c0.6,0.5,1,1.2,1.3,1.9C397.3,575.8,397.4,576.6,397.4,577.5z M395.1,577.5c0-0.5-0.1-1.1-0.3-1.6c-0.2-0.5-0.4-0.9-0.7-1.3
				s-0.7-0.7-1.2-0.9c-0.5-0.2-1-0.3-1.6-0.3c-0.6,0-1.2,0.1-1.6,0.3c-0.5,0.2-0.9,0.5-1.2,0.9c-0.3,0.4-0.6,0.8-0.7,1.3
				c-0.2,0.5-0.3,1-0.3,1.6c0,0.5,0.1,1.1,0.3,1.6c0.2,0.5,0.4,0.9,0.7,1.3c0.3,0.4,0.7,0.7,1.2,0.9c0.5,0.2,1,0.3,1.6,0.3
				c0.6,0,1.2-0.1,1.6-0.3c0.5-0.2,0.9-0.5,1.2-0.9s0.6-0.8,0.7-1.3C395,578.6,395.1,578.1,395.1,577.5z"/>
			<path d="M402.2,571.9c0,0.3,0.1,0.6,0.1,1s0,0.7,0,0.9h0.1c0.1-0.3,0.3-0.6,0.6-0.9c0.2-0.3,0.5-0.5,0.9-0.7
				c0.3-0.2,0.7-0.4,1.1-0.5c0.4-0.1,0.8-0.2,1.2-0.2c0.7,0,1.4,0.1,1.9,0.4s1,0.6,1.3,1c0.4,0.4,0.6,0.9,0.8,1.5
				c0.2,0.6,0.3,1.2,0.3,1.8v7.1h-2.3v-6.3c0-0.5,0-0.9-0.1-1.3c-0.1-0.4-0.2-0.8-0.4-1.1s-0.5-0.6-0.8-0.8
				c-0.3-0.2-0.8-0.3-1.3-0.3c-0.9,0-1.6,0.3-2.2,1c-0.6,0.7-0.9,1.6-0.9,2.7v6h-2.3v-8.9c0-0.3,0-0.7,0-1.2c0-0.5,0-0.9-0.1-1.3
				L402.2,571.9L402.2,571.9z"/>
			<path d="M421.8,573.6c0.3-0.6,0.7-1,1.4-1.4c0.7-0.4,1.4-0.6,2.2-0.6c0.7,0,1.4,0.1,1.9,0.4s1,0.6,1.3,1c0.4,0.4,0.6,0.9,0.8,1.5
				c0.2,0.6,0.3,1.2,0.3,1.8v7.1h-2.3v-6.3c0-0.5,0-0.9-0.1-1.3c-0.1-0.4-0.2-0.8-0.4-1.1c-0.2-0.3-0.5-0.6-0.8-0.8
				c-0.3-0.2-0.8-0.3-1.3-0.3c-0.9,0-1.6,0.3-2.2,1s-0.9,1.6-0.9,2.7v6h-2.3v-18.1h2.3L421.8,573.6L421.8,573.6L421.8,573.6z"/>
			<path d="M441.1,583.2c0-0.3-0.1-0.6-0.1-1s0-0.7,0-0.9h0c-0.3,0.6-0.8,1.1-1.5,1.5c-0.7,0.4-1.4,0.6-2.3,0.6
				c-0.7,0-1.4-0.1-1.9-0.4c-0.5-0.2-1-0.6-1.3-1c-0.3-0.4-0.6-0.9-0.8-1.5c-0.2-0.6-0.3-1.2-0.3-1.8v-7.1h2.3v6.3
				c0,0.5,0,0.9,0.1,1.3s0.2,0.8,0.4,1.1c0.2,0.3,0.5,0.6,0.8,0.8c0.3,0.2,0.8,0.3,1.3,0.3c0.9,0,1.6-0.3,2.2-1
				c0.6-0.7,0.8-1.6,0.8-2.7v-6h2.3v8.9c0,0.3,0,0.7,0,1.2c0,0.5,0,0.9,0.1,1.3L441.1,583.2L441.1,583.2z"/>
			<path d="M450.3,572.2c0.6-0.4,1.4-0.6,2.2-0.6c0.8,0,1.5,0.2,2.1,0.5c0.6,0.4,1.1,0.9,1.5,1.8c0.4-0.7,0.9-1.3,1.6-1.7
				c0.7-0.4,1.4-0.6,2.3-0.6c0.7,0,1.4,0.1,1.9,0.4c0.5,0.2,1,0.6,1.3,1s0.6,0.9,0.8,1.5c0.2,0.6,0.3,1.2,0.3,1.8v7.1h-2.3v-6.3
				c0-0.5,0-0.9-0.1-1.3s-0.2-0.8-0.4-1.1c-0.2-0.3-0.4-0.6-0.8-0.8c-0.3-0.2-0.7-0.3-1.2-0.3c-0.5,0-1,0.1-1.3,0.3
				c-0.4,0.2-0.7,0.5-0.9,0.8c-0.2,0.3-0.4,0.7-0.5,1.2s-0.2,0.9-0.2,1.3v6.1h-2.3v-6.8c0-0.4,0-0.9-0.1-1.2
				c-0.1-0.4-0.2-0.7-0.4-0.9c-0.2-0.3-0.4-0.5-0.7-0.6c-0.3-0.2-0.7-0.2-1.1-0.2c-0.8,0-1.5,0.3-2.1,1c-0.6,0.7-0.8,1.6-0.8,2.7v6
				h-2.3v-8.9c0-0.3,0-0.7,0-1.2c0-0.5,0-0.9-0.1-1.3h2.1c0,0.3,0.1,0.6,0.1,1s0,0.7,0,0.9h0.1C449.2,573.1,449.6,572.6,450.3,572.2
				z"/>
			<path d="M474.7,575.9c0-0.8-0.3-1.5-0.8-1.9s-1.2-0.6-2-0.6c-0.6,0-1.2,0.1-1.8,0.4c-0.6,0.2-1,0.6-1.4,0.9l-1.2-1.4
				c0.6-0.5,1.2-0.9,2.1-1.2c0.8-0.3,1.7-0.5,2.6-0.5c0.8,0,1.5,0.1,2.1,0.3c0.6,0.2,1.1,0.5,1.5,0.9s0.7,0.9,0.9,1.4
				c0.2,0.5,0.3,1.1,0.3,1.8v5c0,0.4,0,0.8,0,1.2c0,0.4,0.1,0.8,0.1,1h-2c-0.1-0.5-0.2-1.1-0.2-1.6h-0.1c-0.4,0.6-0.9,1.1-1.6,1.4
				s-1.4,0.5-2.2,0.5c-0.4,0-0.9-0.1-1.4-0.2c-0.5-0.1-0.9-0.3-1.3-0.6c-0.4-0.3-0.7-0.6-1-1.1s-0.4-1-0.4-1.7
				c0-0.9,0.2-1.5,0.7-2.1c0.5-0.5,1.1-0.9,1.8-1.2s1.6-0.4,2.5-0.5s1.9-0.1,2.9-0.1L474.7,575.9L474.7,575.9z M474.1,577.8
				c-0.6,0-1.1,0-1.7,0.1c-0.6,0-1.1,0.1-1.6,0.3s-0.9,0.4-1.2,0.6c-0.3,0.3-0.5,0.7-0.5,1.2c0,0.3,0.1,0.6,0.2,0.8
				c0.1,0.2,0.3,0.4,0.5,0.6c0.2,0.1,0.5,0.2,0.7,0.3c0.3,0.1,0.6,0.1,0.8,0.1c1.1,0,1.9-0.3,2.4-0.9c0.6-0.6,0.9-1.4,0.9-2.4v-0.6
				L474.1,577.8L474.1,577.8z"/>
			<path d="M482.3,571.9c0,0.3,0.1,0.6,0.1,1s0,0.7,0,0.9h0.1c0.1-0.3,0.3-0.6,0.6-0.9c0.2-0.3,0.5-0.5,0.9-0.7
				c0.3-0.2,0.7-0.4,1.1-0.5c0.4-0.1,0.8-0.2,1.2-0.2c0.7,0,1.4,0.1,1.9,0.4s1,0.6,1.3,1c0.4,0.4,0.6,0.9,0.8,1.5
				c0.2,0.6,0.3,1.2,0.3,1.8v7.1h-2.3v-6.3c0-0.5,0-0.9-0.1-1.3c-0.1-0.4-0.2-0.8-0.4-1.1s-0.5-0.6-0.8-0.8
				c-0.3-0.2-0.8-0.3-1.3-0.3c-0.9,0-1.6,0.3-2.2,1c-0.6,0.7-0.9,1.6-0.9,2.7v6h-2.3v-8.9c0-0.3,0-0.7,0-1.2c0-0.5,0-0.9-0.1-1.3
				L482.3,571.9L482.3,571.9z"/>
			<path d="M500,574.7c-0.3-0.4-0.6-0.8-1.1-1c-0.5-0.3-1-0.4-1.6-0.4c-0.3,0-0.5,0-0.8,0.1s-0.5,0.1-0.7,0.3s-0.4,0.3-0.5,0.5
				c-0.1,0.2-0.2,0.4-0.2,0.7c0,0.5,0.2,0.8,0.6,1.1c0.4,0.2,1.1,0.4,1.9,0.6c0.5,0.1,1,0.3,1.5,0.5c0.5,0.2,0.9,0.4,1.2,0.7
				c0.3,0.3,0.6,0.6,0.8,0.9s0.3,0.8,0.3,1.3c0,0.7-0.1,1.2-0.4,1.7c-0.3,0.5-0.6,0.8-1,1.1c-0.4,0.3-0.9,0.5-1.5,0.6
				c-0.5,0.1-1.1,0.2-1.7,0.2c-0.9,0-1.7-0.2-2.5-0.5s-1.5-0.8-2.1-1.5l1.6-1.4c0.3,0.4,0.7,0.8,1.3,1.1c0.5,0.3,1.1,0.5,1.8,0.5
				c0.3,0,0.6,0,0.8-0.1c0.3-0.1,0.5-0.1,0.7-0.3c0.2-0.1,0.4-0.3,0.5-0.5c0.1-0.2,0.2-0.5,0.2-0.8c0-0.5-0.3-0.9-0.8-1.2
				s-1.2-0.5-2.2-0.7c-0.4-0.1-0.8-0.2-1.2-0.3c-0.4-0.1-0.7-0.3-1.1-0.6s-0.6-0.5-0.8-0.9c-0.2-0.4-0.3-0.8-0.3-1.3
				c0-0.6,0.1-1.1,0.4-1.6c0.2-0.4,0.6-0.8,1-1.1c0.4-0.3,0.9-0.5,1.4-0.6c0.5-0.1,1-0.2,1.6-0.2c0.8,0,1.6,0.2,2.4,0.5
				s1.3,0.8,1.8,1.4L500,574.7z"/>
			<path d="M506.9,581.8c0,0.4-0.2,0.8-0.5,1.1c-0.3,0.3-0.7,0.5-1.2,0.5c-0.4,0-0.8-0.2-1.1-0.5c-0.3-0.3-0.5-0.7-0.5-1.1
				c0-0.4,0.2-0.8,0.5-1.1c0.3-0.3,0.7-0.5,1.2-0.5c0.5,0,0.8,0.2,1.2,0.5C506.8,581,506.9,581.4,506.9,581.8z"/>
		</g>
	</g>
	<g id="Logo_Lockup">
		<g id="white_outline_00000046318174953714107600000010024701860648737923_">
			<path id="Q" class="st1" d="M668.7,200.5c-1.8-1.8-5-2.6-9.7-2.6h-32.9c-4.8,0-7.9,0.9-9.7,2.6c-1.8,1.8-2.7,4.8-2.7,9.3v23.5
				c0,4.5,0.9,7.6,2.7,9.3c1.8,1.8,5,2.6,9.7,2.6h17.5l5,11.5h13.3l-5.6-11.5h2.7c4.7,0,7.9-0.9,9.7-2.6c1.8-1.8,2.7-4.8,2.7-9.3
				v-23.5C671.3,205.3,670.5,202.3,668.7,200.5z M658.3,208.6v25.6H651l-6.2-13.1l-9.9,4l3.9,9.1h-11.9v-25.6L658.3,208.6
				L658.3,208.6z"/>
			<polygon id="E" class="st1" points="571.8,225.8 592.4,225.8 592.4,215.5 571.8,215.5 571.8,208.2 607.1,208.2 607.1,197.9 
				558.7,197.9 558.7,245.2 607.5,245.2 607.5,234.1 571.8,234.1 			"/>
			<polygon id="T" class="st1" points="500.1,208.6 520.6,208.6 520.6,245.2 533.6,245.2 533.6,208.6 554.2,208.6 554.2,197.9 
				500.1,197.9 			"/>
			<path id="R" class="st1" d="M484.4,228.4c3.9,0,6.7-0.8,8.6-2.4c1.9-1.6,2.9-4.2,2.9-7.6v-10.5c0-3.4-1-6-2.9-7.6
				c-1.9-1.6-4.7-2.4-8.6-2.4h-39.5v47.3h12.9v-16.9h8l18,16.9H503l-20.6-16.9L484.4,228.4L484.4,228.4z M483.2,210.5v5.4
				c0,0.9-0.2,1.5-0.5,1.7c-0.1,0.1-0.8,0.5-2.9,0.5h-22v-9.8h22c2.1,0,2.7,0.4,2.9,0.5C483.1,209.1,483.2,210,483.2,210.5z"/>
			<g id="">
				<rect x="425.6" y="197.9" class="st1" width="13" height="13"/>
				<path class="st1" d="M425.6,213.4l0,20.7h-27v-20.7h-13.1v19.9c0,4.5,0.9,7.5,2.7,9.3c1.8,1.7,5,2.6,9.7,2.6h28.2
					c4.7,0,7.9-0.8,9.7-2.6c1.8-1.8,2.7-4.8,2.7-9.3v-19.9H425.6z"/>
				<rect x="385.6" y="197.9" class="st1" width="13.1" height="13"/>
			</g>
			<path id="P" class="st1" d="M377.4,200.3c-1.9-1.6-4.7-2.4-8.6-2.4h-39.5v47.3h12.9v-17.4h26.6c3.9,0,6.7-0.8,8.6-2.4
				c1.9-1.6,2.9-4.2,2.9-7.6v-10C380.2,204.5,379.2,201.9,377.4,200.3z M342.1,208.3h22c2.1,0,2.7,0.4,2.9,0.5
				c0.4,0.3,0.5,1.2,0.5,1.7v4.8c0,0.9-0.2,1.5-0.5,1.7c-0.1,0.1-0.8,0.5-2.9,0.5h-22V208.3z"/>
		</g>
		<g id="PURTEQ_00000121985450950774661130000000032603269561246384_">
			<g>
				<path id="_xAE_" class="st1" d="M672.6,199.2c0-0.5,0.1-0.9,0.3-1.4c0.2-0.4,0.4-0.8,0.8-1.1c0.3-0.3,0.7-0.6,1.1-0.8
					c0.4-0.2,0.9-0.3,1.4-0.3s1,0.1,1.4,0.3s0.8,0.4,1.1,0.8c0.3,0.3,0.6,0.7,0.8,1.1c0.2,0.4,0.3,0.9,0.3,1.4s-0.1,0.9-0.3,1.4
					s-0.4,0.8-0.8,1.1c-0.3,0.3-0.7,0.6-1.1,0.8c-0.4,0.2-0.9,0.3-1.4,0.3s-1-0.1-1.4-0.3c-0.4-0.2-0.8-0.4-1.1-0.8
					s-0.6-0.7-0.8-1.1C672.7,200.2,672.6,199.7,672.6,199.2z M673.1,199.2c0,0.4,0.1,0.8,0.2,1.1c0.2,0.4,0.4,0.7,0.6,1
					c0.3,0.3,0.6,0.5,1,0.6c0.4,0.2,0.8,0.2,1.2,0.2c0.4,0,0.8-0.1,1.2-0.2c0.4-0.2,0.7-0.4,1-0.6c0.3-0.3,0.5-0.6,0.6-1
					c0.2-0.4,0.2-0.8,0.2-1.1c0-0.4-0.1-0.8-0.2-1.2c-0.2-0.4-0.4-0.7-0.6-0.9s-0.6-0.5-1-0.6s-0.8-0.2-1.2-0.2s-0.8,0.1-1.2,0.2
					c-0.4,0.2-0.7,0.4-1,0.6s-0.5,0.6-0.6,0.9C673.2,198.4,673.1,198.8,673.1,199.2z M674.7,197.2h1.4c0.2,0,0.4,0,0.5,0.1
					c0.2,0,0.3,0.1,0.5,0.2c0.1,0.1,0.2,0.2,0.3,0.4s0.1,0.3,0.1,0.5c0,0.3-0.1,0.5-0.2,0.7c-0.2,0.2-0.4,0.3-0.7,0.4l1.1,1.7h-0.9
					l-0.9-1.7h-0.5v1.7h-0.7L674.7,197.2L674.7,197.2z M676,199c0.2,0,0.4,0,0.6-0.1s0.3-0.2,0.3-0.5c0-0.2-0.1-0.4-0.3-0.4
					c-0.2-0.1-0.3-0.1-0.5-0.1h-0.7v1.1L676,199L676,199z"/>
				<g>
					<path class="st2" d="M615,209.8c0-4.1,0.8-6.8,2.3-8.3c1.5-1.5,4.5-2.2,8.8-2.2h32.9c4.3,0,7.3,0.8,8.8,2.2
						c1.5,1.5,2.3,4.3,2.3,8.3v23.5c0,4.1-0.8,6.9-2.3,8.4c-1.5,1.5-4.5,2.2-8.8,2.2h-4.8l5.6,11.5h-10.3l-5-11.5H626
						c-4.3,0-7.3-0.7-8.8-2.2c-1.5-1.5-2.3-4.3-2.3-8.4L615,209.8L615,209.8z M625.4,235.5h15.3l-4.1-9.7l7.5-3l6,12.7h9.5v-28.3
						h-34.3L625.4,235.5L625.4,235.5z"/>
					<path class="st2" d="M560,243.9v-44.7h45.7v7.6h-35.3v10H591v7.6h-20.6v11.1h35.8v8.4H560z"/>
					<path class="st2" d="M532.3,207.2v36.7h-10.4v-36.7h-20.5v-8h51.5v8H532.3z"/>
					<path class="st3" d="M446.2,243.9v-44.7h38.2c3.5,0,6.1,0.7,7.7,2.1c1.6,1.4,2.4,3.6,2.4,6.6v10.5c0,3-0.8,5.2-2.4,6.6
						c-1.6,1.4-4.2,2.1-7.7,2.1h-5.8l20.6,16.9h-14.9l-18-16.9h-9.9v16.9L446.2,243.9L446.2,243.9z M479.8,207h-23.4v12.4h23.4
						c1.8,0,3-0.3,3.7-0.8s1-1.4,1-2.8v-5.4c0-1.3-0.3-2.2-1-2.7C482.9,207.2,481.6,207,479.8,207z"/>
					<path class="st3" d="M426.9,209.6v-10.4h10.4v10.4H426.9z M426.9,214.8v20.7h-29.6v-20.7h-10.4v18.6c0,4.1,0.8,6.9,2.3,8.3
						c1.5,1.5,4.5,2.2,8.8,2.2h28.2c4.3,0,7.3-0.7,8.8-2.2c1.5-1.5,2.3-4.3,2.3-8.3v-18.6H426.9z M397.3,209.6v-10.4h-10.4v10.4
						H397.3z"/>
					<path class="st3" d="M330.6,243.9v-44.7h38.2c3.5,0,6.1,0.7,7.7,2.1c1.6,1.4,2.4,3.6,2.4,6.6v10c0,3-0.8,5.2-2.4,6.6
						c-1.6,1.4-4.2,2.1-7.7,2.1h-28v17.4L330.6,243.9L330.6,243.9z M364.2,207h-23.4v11.8h23.4c1.8,0,3-0.3,3.7-0.8s1-1.4,1-2.8
						v-4.8c0-1.3-0.3-2.2-1-2.7C367.2,207.2,366,207,364.2,207z"/>
				</g>
			</g>
		</g>
		<g id="FRESCH">
			<g id="_x2122_">
				<path d="M479,270h-0.6v-3.5h-1.3V266h3.1v0.5H479V270z"/>
				<path d="M482.9,269.1L482.9,269.1l1.2-3.1h0.9v4h-0.6v-3.3h0L483,270h-0.4l-1.3-3.3h0v3.3h-0.5v-4h0.9L482.9,269.1z"/>
			</g>
			<path d="M451.8,284.8V266h4.4v7.3h13.7V266h4.4v18.8h-4.4v-8.1h-13.7v8.1H451.8z"/>
			<path d="M443.2,269.4h-11.8v11.9h11.8v-4.1l4.4,0.9v2.2c0,1.8-0.3,2.9-1,3.5c-0.7,0.6-1.9,0.9-3.7,0.9h-11.2
				c-1.8,0-3-0.3-3.7-0.9c-0.7-0.6-1-1.8-1-3.5v-9.9c0-1.8,0.3-2.9,1-3.5c0.7-0.6,1.9-0.9,3.7-0.9h11.2c1.8,0,3,0.3,3.7,0.9
				c0.7,0.6,1,1.8,1,3.5v1.8l-4.4,0.7V269.4z"/>
			<path d="M418.5,269.3h-12.4v4.1h11.8c1.8,0,3,0.3,3.7,0.9c0.7,0.6,1,1.8,1,3.5v2.6c0,1.8-0.3,2.9-1,3.5c-0.7,0.6-1.9,0.9-3.7,0.9
				h-11.6c-1.8,0-3-0.3-3.7-0.9c-0.7-0.6-1-1.8-1-3.5v-0.5l3.9-0.8v2.2h13.3V277H407c-1.8,0-3-0.3-3.7-0.9s-1-1.8-1-3.5v-2.1
				c0-1.8,0.3-2.9,1-3.5c0.7-0.6,1.9-0.9,3.7-0.9h10.7c1.7,0,2.9,0.3,3.6,0.9c0.7,0.6,1,1.7,1,3.2v0.4l-3.9,0.9L418.5,269.3
				L418.5,269.3z"/>
			<path d="M378.3,284.8V266h19.3v3.2h-14.9v4.2h8.7v3.2h-8.7v4.7h15.1v3.5L378.3,284.8L378.3,284.8z"/>
			<path d="M352.7,284.8V266h16.1c2.8,0,4.2,1.2,4.2,3.6v4.4c0,2.4-1.4,3.6-4.2,3.6h-2.5l8.7,7.1h-6.3l-7.6-7.1H357v7.1L352.7,284.8
				L352.7,284.8z M366.8,269.2H357v5.3h9.9c0.7,0,1.2-0.1,1.4-0.2c0.4-0.2,0.5-0.6,0.5-1.3v-2.3c0-0.6-0.2-1.1-0.5-1.3
				C368,269.3,367.5,269.2,366.8,269.2z"/>
			<path d="M330.4,284.8V266h19.1v3.3h-14.7v5h7.9v3.4h-7.9v7.2L330.4,284.8L330.4,284.8z"/>
		</g>
	</g>
	<g id="Headline">
		<g>
			<path d="M129.2,60.8c-1-1.3-2.2-2.3-3.8-2.9c-1.6-0.6-3.1-0.9-4.6-0.9c-1.9,0-3.6,0.3-5.2,1c-1.6,0.7-2.9,1.6-4,2.9
				c-1.1,1.2-2,2.6-2.6,4.3c-0.6,1.6-0.9,3.4-0.9,5.3c0,2,0.3,3.8,0.9,5.5c0.6,1.7,1.4,3.1,2.5,4.3s2.4,2.1,3.9,2.8
				c1.5,0.7,3.2,1,5.1,1c2,0,3.7-0.4,5.3-1.2c1.5-0.8,2.8-1.8,3.7-3.1l5.3,3.7c-1.6,2-3.6,3.6-6,4.8c-2.4,1.1-5.1,1.7-8.3,1.7
				c-2.9,0-5.5-0.5-7.9-1.4c-2.4-1-4.5-2.3-6.2-4c-1.7-1.7-3.1-3.8-4.1-6.1s-1.5-5-1.5-7.9c0-2.9,0.5-5.6,1.5-8
				c1-2.4,2.4-4.4,4.2-6.1c1.8-1.7,3.9-2.9,6.3-3.8c2.4-0.9,5.1-1.4,7.9-1.4c1.2,0,2.4,0.1,3.7,0.3c1.3,0.2,2.5,0.6,3.7,1
				c1.2,0.5,2.3,1,3.3,1.7c1,0.7,1.9,1.5,2.7,2.5L129.2,60.8z"/>
			<path d="M138.8,52.2h6.6v31h15.7V89h-22.2V52.2z"/>
			<path d="M165.4,52.2h24.4v5.7H172v9.4h16.9v5.5H172v10.4h18.8V89h-25.3V52.2z"/>
			<path d="M208.7,52.2h5.7L230.2,89h-7.5l-3.4-8.4h-16L200,89h-7.3L208.7,52.2z M217,75l-5.7-15l-5.8,15H217z"/>
			<path d="M233.8,52.2h8.7l17.1,27.6h0.1V52.2h6.6V89H258l-17.5-28.4h-0.1V89h-6.6L233.8,52.2L233.8,52.2z"/>
			<path d="M293.2,59.9c-0.7-0.9-1.7-1.7-2.9-2.3c-1.3-0.6-2.5-0.9-3.8-0.9c-0.8,0-1.5,0.1-2.3,0.3c-0.8,0.2-1.5,0.5-2.1,0.9
				c-0.6,0.4-1.1,0.9-1.5,1.6c-0.4,0.6-0.6,1.4-0.6,2.3c0,0.8,0.2,1.5,0.5,2.1c0.3,0.6,0.8,1.1,1.4,1.5c0.6,0.4,1.3,0.8,2.2,1.1
				c0.9,0.3,1.8,0.6,2.9,0.9c1.2,0.4,2.4,0.8,3.7,1.3c1.3,0.5,2.4,1.1,3.5,1.9c1.1,0.8,1.9,1.8,2.6,3c0.7,1.2,1,2.7,1,4.5
				c0,2-0.4,3.7-1.1,5.2c-0.7,1.5-1.7,2.7-2.9,3.7c-1.2,1-2.6,1.7-4.3,2.2c-1.6,0.5-3.3,0.7-5.1,0.7c-2.4,0-4.7-0.4-7-1.3
				c-2.3-0.9-4.2-2.2-5.6-3.9l4.7-4.4c0.9,1.2,2.1,2.2,3.6,3c1.5,0.7,3,1.1,4.4,1.1c0.8,0,1.5-0.1,2.3-0.3c0.8-0.2,1.5-0.5,2.2-1
				c0.6-0.4,1.2-1,1.6-1.7c0.4-0.7,0.6-1.5,0.6-2.5c0-1-0.2-1.8-0.7-2.4c-0.5-0.6-1.1-1.2-1.8-1.7c-0.8-0.5-1.7-0.9-2.7-1.2
				c-1-0.3-2.1-0.7-3.3-1.1c-1.1-0.3-2.2-0.8-3.3-1.2c-1.1-0.5-2.1-1.1-3-1.9c-0.9-0.8-1.6-1.8-2.2-2.9c-0.6-1.2-0.8-2.6-0.8-4.3
				c0-1.9,0.4-3.5,1.2-4.8c0.8-1.4,1.8-2.5,3.1-3.4c1.3-0.9,2.7-1.5,4.3-2c1.6-0.4,3.2-0.7,4.9-0.7c1.9,0,3.8,0.3,5.7,1
				c1.9,0.7,3.6,1.6,5,3L293.2,59.9z"/>
			<path d="M301.7,81.8h6l-4.4,13.7h-5.3L301.7,81.8z"/>
			<path d="M321.7,52.2h13.1c2.4,0,4.8,0.3,7.2,0.9c2.4,0.6,4.6,1.7,6.6,3.1c1.9,1.4,3.5,3.3,4.7,5.7c1.2,2.3,1.8,5.2,1.8,8.7
				c0,3.2-0.6,6-1.8,8.3c-1.2,2.3-2.8,4.2-4.7,5.7c-1.9,1.5-4.1,2.6-6.6,3.3c-2.4,0.7-4.8,1.1-7.2,1.1h-13.1V52.2z M333.7,83.3
				c1.7,0,3.4-0.2,5.1-0.6c1.7-0.4,3.2-1.1,4.6-2c1.4-1,2.5-2.2,3.4-3.9c0.9-1.6,1.3-3.7,1.3-6.2c0-2.6-0.4-4.8-1.3-6.4
				c-0.9-1.7-2-3-3.4-3.9c-1.4-0.9-2.9-1.6-4.6-1.9c-1.7-0.3-3.4-0.5-5.1-0.5h-5.5v25.5H333.7z"/>
			<path d="M361.4,52.2h6.6V89h-6.6V52.2z"/>
			<path d="M394.8,59.9c-0.7-0.9-1.7-1.7-2.9-2.3c-1.3-0.6-2.5-0.9-3.8-0.9c-0.8,0-1.5,0.1-2.3,0.3c-0.8,0.2-1.5,0.5-2.1,0.9
				c-0.6,0.4-1.1,0.9-1.5,1.6c-0.4,0.6-0.6,1.4-0.6,2.3c0,0.8,0.2,1.5,0.5,2.1c0.3,0.6,0.8,1.1,1.4,1.5c0.6,0.4,1.3,0.8,2.2,1.1
				c0.9,0.3,1.8,0.6,2.9,0.9c1.2,0.4,2.4,0.8,3.7,1.3c1.3,0.5,2.4,1.1,3.5,1.9c1.1,0.8,1.9,1.8,2.6,3c0.7,1.2,1,2.7,1,4.5
				c0,2-0.4,3.7-1.1,5.2c-0.7,1.5-1.7,2.7-2.9,3.7c-1.2,1-2.6,1.7-4.3,2.2c-1.6,0.5-3.3,0.7-5.1,0.7c-2.4,0-4.7-0.4-7-1.3
				c-2.3-0.9-4.2-2.2-5.6-3.9l4.7-4.4c0.9,1.2,2.1,2.2,3.6,3c1.5,0.7,3,1.1,4.4,1.1c0.8,0,1.5-0.1,2.3-0.3c0.8-0.2,1.5-0.5,2.2-1
				c0.6-0.4,1.2-1,1.6-1.7c0.4-0.7,0.6-1.5,0.6-2.5c0-1-0.2-1.8-0.7-2.4c-0.5-0.6-1.1-1.2-1.8-1.7c-0.8-0.5-1.7-0.9-2.7-1.2
				c-1-0.3-2.1-0.7-3.3-1.1c-1.1-0.3-2.2-0.8-3.3-1.2c-1.1-0.5-2.1-1.1-3-1.9c-0.9-0.8-1.6-1.8-2.2-2.9c-0.6-1.2-0.8-2.6-0.8-4.3
				c0-1.9,0.4-3.5,1.2-4.8c0.8-1.4,1.8-2.5,3.1-3.4c1.3-0.9,2.7-1.5,4.3-2c1.6-0.4,3.2-0.7,4.9-0.7c1.9,0,3.8,0.3,5.7,1
				c1.9,0.7,3.6,1.6,5,3L394.8,59.9z"/>
			<path d="M405.9,52.2h6.6V89h-6.6V52.2z"/>
			<path d="M420.6,52.2h8.7l17.1,27.6h0.1V52.2h6.6V89h-8.3l-17.5-28.4h-0.1V89h-6.6L420.6,52.2L420.6,52.2z"/>
			<path d="M461.1,52.2h23.8v5.7h-17.2V68h16.2v5.5h-16.2V89h-6.6V52.2z"/>
			<path d="M490.9,52.2h24.4v5.7h-17.8v9.4h16.9v5.5h-16.9v10.4h18.8V89h-25.3V52.2z"/>
			<path d="M547.7,60.8c-1-1.3-2.2-2.3-3.8-2.9c-1.6-0.6-3.1-0.9-4.6-0.9c-1.9,0-3.6,0.3-5.2,1c-1.6,0.7-2.9,1.6-4,2.9
				c-1.1,1.2-2,2.6-2.6,4.3c-0.6,1.6-0.9,3.4-0.9,5.3c0,2,0.3,3.8,0.9,5.5s1.4,3.1,2.5,4.3s2.4,2.1,3.9,2.8c1.5,0.7,3.2,1,5.1,1
				c2,0,3.7-0.4,5.3-1.2c1.5-0.8,2.8-1.8,3.7-3.1l5.3,3.7c-1.6,2-3.6,3.6-6,4.8c-2.4,1.1-5.1,1.7-8.3,1.7c-2.9,0-5.5-0.5-7.9-1.4
				c-2.4-1-4.5-2.3-6.2-4c-1.7-1.7-3.1-3.8-4.1-6.1c-1-2.4-1.5-5-1.5-7.9c0-2.9,0.5-5.6,1.5-8c1-2.4,2.4-4.4,4.2-6.1
				c1.8-1.7,3.9-2.9,6.3-3.8c2.4-0.9,5.1-1.4,7.9-1.4c1.2,0,2.4,0.1,3.7,0.3c1.3,0.2,2.5,0.6,3.7,1c1.2,0.5,2.3,1,3.3,1.7
				c1,0.7,1.9,1.5,2.7,2.5L547.7,60.8z"/>
			<path d="M566,57.9h-11.3v-5.7h29.1v5.7h-11.3V89H566V57.9z"/>
			<path d="M605.8,59.9c-0.7-0.9-1.7-1.7-2.9-2.3c-1.3-0.6-2.5-0.9-3.8-0.9c-0.8,0-1.5,0.1-2.3,0.3c-0.8,0.2-1.5,0.5-2.1,0.9
				c-0.6,0.4-1.1,0.9-1.5,1.6c-0.4,0.6-0.6,1.4-0.6,2.3c0,0.8,0.2,1.5,0.5,2.1c0.3,0.6,0.8,1.1,1.4,1.5c0.6,0.4,1.3,0.8,2.2,1.1
				c0.9,0.3,1.8,0.6,2.9,0.9c1.2,0.4,2.4,0.8,3.7,1.3c1.3,0.5,2.4,1.1,3.5,1.9c1.1,0.8,1.9,1.8,2.6,3c0.7,1.2,1,2.7,1,4.5
				c0,2-0.4,3.7-1.1,5.2c-0.7,1.5-1.7,2.7-2.9,3.7c-1.2,1-2.6,1.7-4.3,2.2c-1.6,0.5-3.3,0.7-5.1,0.7c-2.4,0-4.7-0.4-7-1.3
				c-2.3-0.9-4.2-2.2-5.6-3.9l4.7-4.4c0.9,1.2,2.1,2.2,3.6,3c1.5,0.7,3,1.1,4.4,1.1c0.8,0,1.5-0.1,2.3-0.3c0.8-0.2,1.5-0.5,2.2-1
				c0.6-0.4,1.2-1,1.6-1.7c0.4-0.7,0.6-1.5,0.6-2.5c0-1-0.2-1.8-0.7-2.4c-0.5-0.6-1.1-1.2-1.8-1.7c-0.8-0.5-1.7-0.9-2.7-1.2
				c-1-0.3-2.1-0.7-3.3-1.1c-1.1-0.3-2.2-0.8-3.3-1.2c-1.1-0.5-2.1-1.1-3-1.9c-0.9-0.8-1.6-1.8-2.2-2.9c-0.6-1.2-0.8-2.6-0.8-4.3
				c0-1.9,0.4-3.5,1.2-4.8s1.8-2.5,3.1-3.4s2.7-1.5,4.3-2c1.6-0.4,3.2-0.7,4.9-0.7c1.9,0,3.8,0.3,5.7,1c1.9,0.7,3.6,1.6,5,3
				L605.8,59.9z"/>
			<path d="M614.3,81.8h6l-4.4,13.7h-5.3L614.3,81.8z"/>
			<path d="M141.8,110.2h5.7l15.9,36.8h-7.5l-3.4-8.4h-16l-3.3,8.4h-7.3L141.8,110.2z M150.1,133l-5.7-15l-5.8,15H150.1z"/>
			<path d="M167,110.2h8.7l17.1,27.6h0.1v-27.6h6.6V147h-8.3l-17.5-28.4h-0.1V147H167L167,110.2L167,110.2z"/>
			<path d="M206.5,110.2h13.1c2.4,0,4.8,0.3,7.2,0.9c2.4,0.6,4.6,1.7,6.6,3.1c1.9,1.4,3.5,3.3,4.7,5.7c1.2,2.3,1.8,5.2,1.8,8.7
				c0,3.2-0.6,6-1.8,8.3c-1.2,2.3-2.8,4.2-4.7,5.7c-1.9,1.5-4.1,2.6-6.6,3.3c-2.4,0.7-4.8,1.1-7.2,1.1h-13.1V110.2z M218.5,141.3
				c1.7,0,3.4-0.2,5.1-0.6c1.7-0.4,3.2-1.1,4.6-2c1.4-1,2.5-2.2,3.4-3.9c0.9-1.6,1.3-3.7,1.3-6.2c0-2.6-0.4-4.8-1.3-6.4
				c-0.9-1.7-2-3-3.4-3.9c-1.4-0.9-2.9-1.6-4.6-1.9c-1.7-0.3-3.4-0.5-5.1-0.5H213v25.5H218.5z"/>
			<path d="M259.2,110.2h13.1c2.4,0,4.8,0.3,7.2,0.9c2.4,0.6,4.6,1.7,6.6,3.1c1.9,1.4,3.5,3.3,4.7,5.7c1.2,2.3,1.8,5.2,1.8,8.7
				c0,3.2-0.6,6-1.8,8.3c-1.2,2.3-2.8,4.2-4.7,5.7c-1.9,1.5-4.1,2.6-6.6,3.3c-2.4,0.7-4.8,1.1-7.2,1.1h-13.1V110.2z M271.2,141.3
				c1.7,0,3.4-0.2,5.1-0.6c1.7-0.4,3.2-1.1,4.6-2c1.4-1,2.5-2.2,3.4-3.9c0.9-1.6,1.3-3.7,1.3-6.2c0-2.6-0.4-4.8-1.3-6.4
				c-0.9-1.7-2-3-3.4-3.9c-1.4-0.9-2.9-1.6-4.6-1.9c-1.7-0.3-3.4-0.5-5.1-0.5h-5.5v25.5H271.2z"/>
			<path d="M298.2,110.2h24.4v5.7h-17.8v9.4h16.9v5.5h-16.9v10.4h18.8v5.8h-25.3V110.2z"/>
			<path d="M327.3,128.5c0-2.9,0.5-5.6,1.5-8c1-2.4,2.4-4.4,4.1-6.1c1.8-1.7,3.8-2.9,6.2-3.8c2.4-0.9,5-1.4,7.9-1.4
				c2.9,0,5.5,0.5,8,1.4c2.4,0.9,4.5,2.2,6.3,3.8s3.1,3.7,4.1,6.1c1,2.4,1.5,5,1.5,8c0,2.9-0.5,5.5-1.5,7.9c-1,2.4-2.4,4.4-4.1,6.1
				s-3.9,3.1-6.3,4c-2.4,1-5.1,1.4-8,1.4c-2.8,0-5.5-0.5-7.9-1.4c-2.4-1-4.5-2.3-6.2-4c-1.8-1.7-3.1-3.8-4.1-6.1
				S327.3,131.4,327.3,128.5z M334.5,128.5c0,2,0.3,3.8,0.9,5.4c0.6,1.6,1.5,3.1,2.6,4.3c1.1,1.2,2.5,2.2,4,2.8c1.5,0.7,3.2,1,5.1,1
				s3.6-0.3,5.1-1c1.6-0.7,2.9-1.6,4-2.8c1.1-1.2,2-2.6,2.6-4.3c0.6-1.6,0.9-3.5,0.9-5.4c0-1.9-0.3-3.7-0.9-5.3
				c-0.6-1.6-1.5-3.1-2.6-4.3c-1.1-1.2-2.4-2.2-4-2.9c-1.6-0.7-3.3-1-5.2-1c-1.9,0-3.6,0.3-5.2,1c-1.5,0.7-2.9,1.6-4,2.9
				c-1.1,1.2-2,2.6-2.6,4.3C334.8,124.8,334.5,126.6,334.5,128.5z"/>
			<path d="M373.3,110.2h13.1c2.4,0,4.8,0.3,7.2,0.9c2.4,0.6,4.6,1.7,6.6,3.1c1.9,1.4,3.5,3.3,4.7,5.7c1.2,2.3,1.8,5.2,1.8,8.7
				c0,3.2-0.6,6-1.8,8.3c-1.2,2.3-2.8,4.2-4.7,5.7c-1.9,1.5-4.1,2.6-6.6,3.3c-2.4,0.7-4.8,1.1-7.2,1.1h-13.1V110.2z M385.3,141.3
				c1.7,0,3.4-0.2,5.1-0.6c1.7-0.4,3.2-1.1,4.6-2c1.4-1,2.5-2.2,3.4-3.9c0.9-1.6,1.3-3.7,1.3-6.2c0-2.6-0.4-4.8-1.3-6.4
				c-0.9-1.7-2-3-3.4-3.9c-1.4-0.9-2.9-1.6-4.6-1.9c-1.7-0.3-3.4-0.5-5.1-0.5h-5.5v25.5H385.3z"/>
			<path d="M411.2,128.5c0-2.9,0.5-5.6,1.5-8c1-2.4,2.4-4.4,4.1-6.1c1.8-1.7,3.8-2.9,6.2-3.8c2.4-0.9,5-1.4,7.9-1.4
				c2.9,0,5.5,0.5,8,1.4c2.4,0.9,4.5,2.2,6.3,3.8s3.1,3.7,4.1,6.1c1,2.4,1.5,5,1.5,8c0,2.9-0.5,5.5-1.5,7.9c-1,2.4-2.4,4.4-4.1,6.1
				s-3.9,3.1-6.3,4c-2.4,1-5.1,1.4-8,1.4c-2.8,0-5.5-0.5-7.9-1.4c-2.4-1-4.5-2.3-6.2-4c-1.8-1.7-3.1-3.8-4.1-6.1
				S411.2,131.4,411.2,128.5z M418.3,128.5c0,2,0.3,3.8,0.9,5.4c0.6,1.6,1.5,3.1,2.6,4.3c1.1,1.2,2.5,2.2,4,2.8c1.5,0.7,3.2,1,5.1,1
				s3.6-0.3,5.1-1c1.6-0.7,2.9-1.6,4-2.8c1.1-1.2,2-2.6,2.6-4.3c0.6-1.6,0.9-3.5,0.9-5.4c0-1.9-0.3-3.7-0.9-5.3
				c-0.6-1.6-1.5-3.1-2.6-4.3c-1.1-1.2-2.4-2.2-4-2.9c-1.6-0.7-3.3-1-5.2-1c-1.9,0-3.6,0.3-5.2,1c-1.5,0.7-2.9,1.6-4,2.9
				c-1.1,1.2-2,2.6-2.6,4.3C418.6,124.8,418.3,126.6,418.3,128.5z"/>
			<path d="M457.1,110.2h12.8c1.7,0,3.4,0.2,5,0.5c1.6,0.4,3.1,1,4.3,1.8c1.3,0.8,2.3,1.9,3,3.3c0.8,1.4,1.1,3,1.1,4.9
				c0,2.7-0.8,4.8-2.3,6.5c-1.5,1.7-3.6,2.8-6.2,3.4l9.8,16.3H477l-8.5-15.6h-4.8V147h-6.6V110.2z M469,126c0.9,0,1.9-0.1,2.8-0.2
				c0.9-0.1,1.8-0.4,2.5-0.8c0.7-0.4,1.4-0.9,1.8-1.6c0.5-0.7,0.7-1.6,0.7-2.7c0-1-0.2-1.8-0.7-2.5c-0.5-0.6-1-1.2-1.7-1.5
				c-0.7-0.4-1.5-0.6-2.4-0.8c-0.9-0.1-1.7-0.2-2.6-0.2h-5.9V126H469z"/>
			<path d="M489.8,110.2h6.6V147h-6.6V110.2z"/>
			<path d="M502.3,141.1l20-25.2h-19.7v-5.7h27.5v5.9L510,141.2h20.4v5.8h-28.1L502.3,141.1L502.3,141.1z"/>
			<path d="M536.3,110.2h24.4v5.7h-17.8v9.4h16.9v5.5h-16.9v10.4h18.8v5.8h-25.3V110.2z"/>
			<path d="M586.8,117.9c-0.7-0.9-1.7-1.7-2.9-2.3c-1.3-0.6-2.5-0.9-3.8-0.9c-0.8,0-1.5,0.1-2.3,0.3c-0.8,0.2-1.5,0.5-2.1,0.9
				c-0.6,0.4-1.1,0.9-1.5,1.6c-0.4,0.6-0.6,1.4-0.6,2.3c0,0.8,0.2,1.5,0.5,2.1c0.3,0.6,0.8,1.1,1.4,1.5c0.6,0.4,1.3,0.8,2.2,1.1
				c0.9,0.3,1.8,0.6,2.9,0.9c1.2,0.4,2.4,0.8,3.7,1.3c1.3,0.5,2.4,1.1,3.5,1.9c1.1,0.8,1.9,1.8,2.6,3c0.7,1.2,1,2.7,1,4.5
				c0,2-0.4,3.7-1.1,5.2c-0.7,1.5-1.7,2.7-2.9,3.7c-1.2,1-2.6,1.7-4.3,2.2c-1.6,0.5-3.3,0.7-5.1,0.7c-2.4,0-4.7-0.4-7-1.3
				c-2.3-0.9-4.2-2.2-5.6-3.9l4.7-4.4c0.9,1.2,2.1,2.2,3.6,3c1.5,0.7,3,1.1,4.4,1.1c0.8,0,1.5-0.1,2.3-0.3c0.8-0.2,1.5-0.5,2.2-1
				c0.6-0.4,1.2-1,1.6-1.7c0.4-0.7,0.6-1.5,0.6-2.5c0-1-0.2-1.8-0.7-2.4c-0.5-0.6-1.1-1.2-1.8-1.7c-0.8-0.5-1.7-0.9-2.7-1.2
				c-1-0.3-2.1-0.7-3.3-1.1c-1.1-0.3-2.2-0.8-3.3-1.2c-1.1-0.5-2.1-1.1-3-1.9c-0.9-0.8-1.6-1.8-2.2-2.9c-0.6-1.2-0.8-2.6-0.8-4.3
				c0-1.9,0.4-3.5,1.2-4.8s1.8-2.5,3.1-3.4s2.7-1.5,4.3-2c1.6-0.4,3.2-0.7,4.9-0.7c1.9,0,3.8,0.3,5.7,1c1.9,0.7,3.6,1.6,5,3
				L586.8,117.9z"/>
		</g>
	</g>
</g>
<g id="Guides">
</g>
</svg>
