<?xml version="1.0" encoding="utf-8"?>
<!-- Generator: Adobe Illustrator 27.7.0, SVG Export Plug-In . SVG Version: 6.00 Build 0)  -->
<svg version="1.1" id="Layer_1" xmlns="http://www.w3.org/2000/svg" xmlns:xlink="http://www.w3.org/1999/xlink" x="0px" y="0px"
	 viewBox="0 0 720 740" style="enable-background:new 0 0 720 740;" xml:space="preserve">
<style type="text/css">
	.st0{fill:none;}
	.st1{fill:#FFFFFF;}
	.st2{fill:#76BC21;}
	.st3{fill:#0069A7;}
</style>
<g id="ART">
	<rect id="Bounding_Box" class="st0" width="720" height="740"/>
	<g id="CTA_-_Learn_More_1_">
		<g id="text_1_">
			<path d="M330.4,685.5v-10.8h2.5v8.8h8.1v2L330.4,685.5L330.4,685.5z"/>
			<path d="M343.5,685.5v-10.8h11.1v1.8H346v2.4h5v1.8h-5v2.7h8.7v2L343.5,685.5L343.5,685.5z"/>
			<path d="M356,685.5l6.1-10.8h2.4l6.2,10.8h-2.8l-1.3-2.4h-6.9l-1.3,2.4H356z M360.8,681.2h4.8l-2.3-4.4L360.8,681.2z"/>
			<path d="M373,685.5v-10.8h9.3c1.6,0,2.4,0.7,2.4,2.1v2.5c0,1.4-0.8,2.1-2.4,2.1h-1.4l5,4.1h-3.6l-4.4-4.1h-2.4v4.1L373,685.5
				L373,685.5z M381.1,676.6h-5.7v3h5.7c0.4,0,0.7,0,0.8-0.1c0.2-0.1,0.3-0.4,0.3-0.7v-1.3c0-0.4-0.1-0.6-0.3-0.7
				C381.8,676.6,381.5,676.6,381.1,676.6z"/>
			<path d="M388.5,685.5v-10.8h1.7l7.6,6.4c0.5,0.5,1,0.8,1.2,1.2c-0.1-1-0.1-1.6-0.1-1.9v-5.7h2.3v10.8h-1.7l-8-6.7
				c-0.3-0.3-0.6-0.6-0.9-0.9c0.1,0.7,0.1,1.3,0.1,1.7v5.9L388.5,685.5L388.5,685.5z"/>
			<path d="M412.4,685.5v-10.8h2l5.1,6.5l5-6.5h2v10.8h-2.3v-6.7c0-0.3,0-0.7,0.1-1.2c-0.3,0.5-0.5,0.9-0.6,1.1l-4.1,5.4h-0.5
				l-4.1-5.4c-0.3-0.4-0.5-0.8-0.6-1.1c0,0.4,0.1,0.8,0.1,1.2v6.7H412.4z"/>
			<path d="M430.4,677.3c0-1,0.2-1.7,0.6-2s1.1-0.5,2.1-0.5h8c1,0,1.7,0.2,2.1,0.5c0.4,0.3,0.6,1,0.6,2v5.7c0,1-0.2,1.7-0.6,2
				s-1.1,0.5-2.1,0.5h-8c-1,0-1.7-0.2-2.1-0.5c-0.4-0.3-0.6-1-0.6-2V677.3z M432.9,683.5h8.3v-6.9h-8.3V683.5z"/>
			<path d="M447.8,685.5v-10.8h9.3c1.6,0,2.4,0.7,2.4,2.1v2.5c0,1.4-0.8,2.1-2.4,2.1h-1.4l5,4.1H457l-4.4-4.1h-2.4v4.1L447.8,685.5
				L447.8,685.5z M455.9,676.6h-5.7v3h5.7c0.4,0,0.7,0,0.8-0.1c0.2-0.1,0.3-0.4,0.3-0.7v-1.3c0-0.4-0.1-0.6-0.3-0.7
				C456.6,676.6,456.3,676.6,455.9,676.6z"/>
			<path d="M463.4,685.5v-10.8h11.1v1.8h-8.6v2.4h5v1.8h-5v2.7h8.7v2L463.4,685.5L463.4,685.5z"/>
		</g>
		<polygon id="arrow_1_" points="513.1,680.1 485.9,674.7 485.9,685.5 		"/>
	</g>
	<g id="Body_Text">
		<g>
			<path d="M340.9,333.8c-0.3-0.4-0.8-0.8-1.4-1s-1.2-0.4-1.8-0.4c-0.4,0-0.7,0-1.1,0.1c-0.4,0.1-0.7,0.2-1,0.4s-0.5,0.4-0.7,0.7
				c-0.2,0.3-0.3,0.6-0.3,1.1c0,0.4,0.1,0.7,0.2,1c0.2,0.3,0.4,0.5,0.7,0.7c0.3,0.2,0.6,0.4,1,0.5s0.8,0.3,1.3,0.4
				c0.5,0.2,1.1,0.4,1.7,0.6s1.1,0.5,1.6,0.9c0.5,0.4,0.9,0.8,1.2,1.4c0.3,0.6,0.5,1.3,0.5,2.1c0,0.9-0.2,1.7-0.5,2.4
				c-0.3,0.7-0.8,1.2-1.3,1.7s-1.2,0.8-2,1c-0.8,0.2-1.5,0.3-2.4,0.3c-1.1,0-2.2-0.2-3.2-0.6c-1.1-0.4-1.9-1-2.6-1.8l2.2-2
				c0.4,0.6,1,1,1.7,1.4s1.4,0.5,2,0.5c0.4,0,0.7,0,1.1-0.1s0.7-0.2,1-0.4s0.5-0.5,0.7-0.8s0.3-0.7,0.3-1.2c0-0.5-0.1-0.8-0.3-1.1
				s-0.5-0.5-0.8-0.8s-0.8-0.4-1.2-0.6s-1-0.3-1.5-0.5c-0.5-0.2-1-0.4-1.5-0.6c-0.5-0.2-1-0.5-1.4-0.9c-0.4-0.4-0.7-0.8-1-1.4
				c-0.3-0.5-0.4-1.2-0.4-2c0-0.9,0.2-1.6,0.5-2.2c0.4-0.6,0.8-1.1,1.4-1.5c0.6-0.4,1.2-0.7,2-0.9s1.5-0.3,2.3-0.3
				c0.9,0,1.7,0.1,2.6,0.5c0.9,0.3,1.7,0.8,2.3,1.4L340.9,333.8z"/>
			<path d="M345.2,331.8c0-0.5,0.2-0.9,0.5-1.2c0.3-0.3,0.8-0.5,1.3-0.5s1,0.2,1.3,0.5s0.5,0.7,0.5,1.2s-0.2,0.9-0.5,1.2
				c-0.4,0.3-0.8,0.5-1.3,0.5s-1-0.2-1.3-0.5S345.2,332.3,345.2,331.8z M345.6,335.7h2.9v11.5h-2.9V335.7z"/>
			<path d="M365.4,335.4c0.8,0,1.4,0.1,1.9,0.4s1,0.6,1.3,1c0.3,0.4,0.6,0.9,0.8,1.5s0.2,1.1,0.2,1.7v7.2h-2.9v-6.4
				c0-0.3,0-0.7-0.1-1.1c0-0.4-0.1-0.7-0.3-1s-0.4-0.5-0.7-0.7s-0.6-0.3-1.1-0.3c-0.5,0-0.8,0.1-1.1,0.3s-0.6,0.4-0.8,0.7
				s-0.4,0.6-0.5,1s-0.1,0.8-0.1,1.1v6.3h-2.9v-7c0-0.7-0.2-1.3-0.5-1.8c-0.3-0.5-0.9-0.7-1.6-0.7c-0.4,0-0.8,0.1-1.1,0.3
				c-0.3,0.2-0.6,0.4-0.8,0.7c-0.2,0.3-0.4,0.6-0.5,1c-0.1,0.4-0.2,0.8-0.2,1.1v6.3h-2.9v-11.5h2.7v1.9h0c0.1-0.3,0.3-0.6,0.5-0.8
				s0.5-0.5,0.8-0.7c0.3-0.2,0.6-0.4,1-0.5c0.4-0.1,0.8-0.2,1.3-0.2c0.9,0,1.6,0.2,2.2,0.6s1,0.9,1.4,1.6c0.4-0.7,0.9-1.2,1.5-1.6
				S364.5,335.4,365.4,335.4z"/>
			<path d="M375.4,335.7v1.6h0.1c0.1-0.2,0.3-0.5,0.6-0.7c0.2-0.2,0.5-0.4,0.9-0.6c0.3-0.2,0.7-0.3,1.1-0.5s0.9-0.2,1.4-0.2
				c0.8,0,1.6,0.2,2.3,0.5s1.3,0.7,1.8,1.3s0.9,1.2,1.1,1.9c0.3,0.7,0.4,1.5,0.4,2.4s-0.1,1.6-0.4,2.4c-0.3,0.7-0.6,1.4-1.1,1.9
				s-1.1,1-1.8,1.3c-0.7,0.3-1.5,0.5-2.4,0.5c-0.8,0-1.6-0.2-2.2-0.5c-0.7-0.3-1.2-0.8-1.6-1.4h0v7.3h-2.9v-17.3L375.4,335.7
				L375.4,335.7z M382.1,341.4c0-0.5-0.1-0.9-0.2-1.3c-0.1-0.4-0.3-0.8-0.6-1.2s-0.6-0.6-1-0.9c-0.4-0.2-0.9-0.3-1.5-0.3
				c-0.5,0-1,0.1-1.4,0.3c-0.4,0.2-0.8,0.5-1.1,0.9c-0.3,0.4-0.5,0.8-0.7,1.2c-0.1,0.5-0.2,0.9-0.2,1.3s0.1,0.9,0.2,1.3
				c0.1,0.4,0.4,0.8,0.7,1.2c0.3,0.4,0.6,0.6,1.1,0.9c0.4,0.2,0.9,0.3,1.4,0.3c0.6,0,1-0.1,1.5-0.3c0.4-0.2,0.8-0.5,1-0.9
				c0.3-0.4,0.5-0.8,0.6-1.2S382.1,341.9,382.1,341.4z"/>
			<path d="M387.5,329.1h2.9v18.1h-2.9V329.1z"/>
			<path d="M391.8,335.7h3.2l3.2,8.4h0l2.9-8.4h3l-5.5,14c-0.2,0.5-0.4,1-0.7,1.4c-0.2,0.4-0.5,0.8-0.9,1c-0.3,0.3-0.7,0.5-1.2,0.6
				s-1,0.2-1.6,0.2c-0.2,0-0.5,0-0.7,0s-0.5-0.1-0.8-0.1l0.2-2.5c0.2,0.1,0.4,0.1,0.6,0.1c0.2,0,0.4,0,0.5,0c0.3,0,0.6,0,0.8-0.1
				c0.2-0.1,0.4-0.2,0.5-0.3s0.3-0.3,0.4-0.6s0.2-0.5,0.4-0.8l0.6-1.5L391.8,335.7z"/>
			<path d="M417.4,338.8c-0.3-0.3-0.6-0.6-1.1-0.9s-0.9-0.4-1.5-0.4c-0.5,0-0.9,0.1-1.3,0.3c-0.4,0.2-0.6,0.5-0.6,1
				c0,0.5,0.2,0.8,0.6,1c0.4,0.2,1,0.4,1.9,0.6c0.4,0.1,0.9,0.2,1.3,0.4s0.8,0.4,1.2,0.6c0.4,0.3,0.6,0.6,0.9,1
				c0.2,0.4,0.3,0.9,0.3,1.4c0,0.7-0.1,1.3-0.4,1.8c-0.3,0.5-0.6,0.9-1.1,1.2c-0.4,0.3-1,0.5-1.5,0.7c-0.6,0.1-1.2,0.2-1.8,0.2
				c-0.9,0-1.8-0.2-2.6-0.5s-1.5-0.8-2.1-1.4l1.9-1.8c0.3,0.4,0.7,0.8,1.2,1s1.1,0.4,1.7,0.4c0.2,0,0.4,0,0.6-0.1
				c0.2,0,0.4-0.1,0.6-0.2c0.2-0.1,0.3-0.2,0.4-0.4c0.1-0.2,0.2-0.4,0.2-0.6c0-0.5-0.2-0.8-0.7-1s-1.1-0.4-2-0.6
				c-0.4-0.1-0.9-0.2-1.3-0.4s-0.8-0.4-1.1-0.6s-0.6-0.6-0.8-0.9s-0.3-0.8-0.3-1.4c0-0.6,0.1-1.2,0.4-1.7c0.3-0.5,0.6-0.8,1-1.1
				c0.4-0.3,0.9-0.5,1.5-0.7s1.1-0.2,1.7-0.2c0.8,0,1.6,0.1,2.4,0.4c0.8,0.3,1.4,0.7,1.9,1.3L417.4,338.8z"/>
			<path d="M424.1,335.7v1.6h0.1c0.1-0.2,0.3-0.5,0.6-0.7c0.2-0.2,0.5-0.4,0.9-0.6c0.3-0.2,0.7-0.3,1.1-0.5s0.9-0.2,1.4-0.2
				c0.8,0,1.6,0.2,2.3,0.5s1.3,0.7,1.8,1.3s0.9,1.2,1.1,1.9c0.3,0.7,0.4,1.5,0.4,2.4s-0.1,1.6-0.4,2.4c-0.3,0.7-0.6,1.4-1.1,1.9
				s-1.1,1-1.8,1.3c-0.7,0.3-1.5,0.5-2.4,0.5c-0.8,0-1.6-0.2-2.2-0.5c-0.7-0.3-1.2-0.8-1.6-1.4h0v7.3h-2.9v-17.3L424.1,335.7
				L424.1,335.7z M430.9,341.4c0-0.5-0.1-0.9-0.2-1.3c-0.1-0.4-0.3-0.8-0.6-1.2s-0.6-0.6-1-0.9c-0.4-0.2-0.9-0.3-1.5-0.3
				c-0.5,0-1,0.1-1.4,0.3c-0.4,0.2-0.8,0.5-1.1,0.9c-0.3,0.4-0.5,0.8-0.7,1.2c-0.1,0.5-0.2,0.9-0.2,1.3s0.1,0.9,0.2,1.3
				c0.1,0.4,0.4,0.8,0.7,1.2c0.3,0.4,0.6,0.6,1.1,0.9c0.4,0.2,0.9,0.3,1.4,0.3c0.6,0,1-0.1,1.5-0.3c0.4-0.2,0.8-0.5,1-0.9
				c0.3-0.4,0.5-0.8,0.6-1.2S430.9,341.9,430.9,341.4z"/>
			<path d="M436.2,335.7h2.8v1.9h0c0.3-0.7,0.8-1.2,1.3-1.6s1.2-0.6,2-0.6c0.1,0,0.2,0,0.4,0c0.1,0,0.2,0,0.3,0.1v2.6
				c-0.2,0-0.4-0.1-0.5-0.1c-0.1,0-0.3,0-0.4,0c-0.7,0-1.2,0.1-1.6,0.4s-0.7,0.5-0.9,0.9c-0.2,0.3-0.4,0.7-0.5,1s-0.1,0.6-0.1,0.8
				v6.2h-2.9V335.7z"/>
			<path d="M451.4,345.8L451.4,345.8c-0.4,0.5-0.8,0.9-1.5,1.3c-0.6,0.3-1.4,0.5-2.2,0.5c-0.5,0-1-0.1-1.5-0.2s-1-0.3-1.4-0.6
				s-0.8-0.6-1.1-1.1c-0.3-0.5-0.4-1-0.4-1.7c0-0.9,0.2-1.5,0.7-2.1c0.5-0.5,1.1-0.9,1.9-1.2c0.8-0.3,1.6-0.5,2.6-0.5
				s1.9-0.1,2.8-0.1v-0.3c0-0.7-0.3-1.2-0.8-1.6c-0.5-0.3-1.1-0.5-1.9-0.5c-0.6,0-1.2,0.1-1.8,0.4c-0.6,0.3-1,0.6-1.4,0.9l-1.5-1.8
				c0.7-0.6,1.4-1.1,2.3-1.4c0.9-0.3,1.7-0.5,2.6-0.5c1,0,1.9,0.1,2.5,0.4c0.7,0.3,1.2,0.7,1.6,1.1c0.4,0.5,0.6,1,0.8,1.6
				s0.2,1.1,0.2,1.7v7h-2.7L451.4,345.8L451.4,345.8z M451.4,342h-0.6c-0.5,0-1,0-1.5,0.1s-1,0.1-1.4,0.3c-0.4,0.1-0.8,0.3-1.1,0.6
				s-0.4,0.6-0.4,1c0,0.3,0.1,0.5,0.2,0.7s0.3,0.3,0.5,0.4c0.2,0.1,0.4,0.2,0.6,0.2s0.5,0.1,0.7,0.1c1,0,1.7-0.3,2.3-0.8
				c0.5-0.5,0.8-1.2,0.8-2.2L451.4,342L451.4,342z"/>
			<path d="M455.4,335.7h3.2l3.2,8.4h0l2.9-8.4h3l-5.5,14c-0.2,0.5-0.4,1-0.7,1.4c-0.2,0.4-0.5,0.8-0.9,1c-0.3,0.3-0.7,0.5-1.2,0.6
				s-1,0.2-1.6,0.2c-0.2,0-0.5,0-0.7,0s-0.5-0.1-0.8-0.1l0.2-2.5c0.2,0.1,0.4,0.1,0.6,0.1c0.2,0,0.4,0,0.5,0c0.3,0,0.6,0,0.8-0.1
				c0.2-0.1,0.4-0.2,0.5-0.3s0.3-0.3,0.4-0.6s0.2-0.5,0.4-0.8l0.6-1.5L455.4,335.7z"/>
			<path d="M481.9,345.8L481.9,345.8c-0.4,0.5-0.8,0.9-1.5,1.3c-0.6,0.3-1.4,0.5-2.2,0.5c-0.5,0-1-0.1-1.5-0.2s-1-0.3-1.4-0.6
				s-0.8-0.6-1.1-1.1c-0.3-0.5-0.4-1-0.4-1.7c0-0.9,0.2-1.5,0.7-2.1c0.5-0.5,1.1-0.9,1.9-1.2c0.8-0.3,1.6-0.5,2.6-0.5
				s1.9-0.1,2.8-0.1v-0.3c0-0.7-0.3-1.2-0.8-1.6c-0.5-0.3-1.1-0.5-1.9-0.5c-0.6,0-1.2,0.1-1.8,0.4c-0.6,0.3-1,0.6-1.4,0.9l-1.5-1.8
				c0.7-0.6,1.4-1.1,2.3-1.4c0.9-0.3,1.7-0.5,2.6-0.5c1,0,1.9,0.1,2.5,0.4c0.7,0.3,1.2,0.7,1.6,1.1c0.4,0.5,0.6,1,0.8,1.6
				s0.2,1.1,0.2,1.7v7h-2.7L481.9,345.8L481.9,345.8z M481.8,342h-0.6c-0.5,0-1,0-1.5,0.1s-1,0.1-1.4,0.3c-0.4,0.1-0.8,0.3-1.1,0.6
				s-0.4,0.6-0.4,1c0,0.3,0.1,0.5,0.2,0.7s0.3,0.3,0.5,0.4c0.2,0.1,0.4,0.2,0.6,0.2s0.5,0.1,0.7,0.1c1,0,1.7-0.3,2.3-0.8
				c0.5-0.5,0.8-1.2,0.8-2.2L481.8,342L481.8,342z"/>
			<path d="M487.5,335.7h2.7v1.9h0c0.3-0.6,0.7-1.1,1.3-1.5s1.4-0.7,2.2-0.7c0.8,0,1.4,0.1,1.9,0.4s1,0.6,1.3,1s0.6,0.9,0.8,1.5
				s0.2,1.1,0.2,1.7v7.2h-2.9v-6.4c0-0.3,0-0.7-0.1-1.1s-0.1-0.7-0.3-1s-0.4-0.5-0.7-0.7s-0.6-0.3-1.1-0.3s-0.9,0.1-1.2,0.3
				c-0.3,0.2-0.6,0.4-0.8,0.7c-0.2,0.3-0.4,0.6-0.5,1s-0.2,0.8-0.2,1.1v6.3h-2.9L487.5,335.7L487.5,335.7z"/>
			<path d="M512.9,347.2h-2.7v-1.7h0c-0.4,0.7-1,1.2-1.7,1.5c-0.7,0.4-1.5,0.5-2.3,0.5c-0.9,0-1.7-0.2-2.4-0.5
				c-0.7-0.3-1.3-0.8-1.8-1.3c-0.5-0.5-0.9-1.2-1.1-1.9c-0.3-0.7-0.4-1.5-0.4-2.4s0.1-1.6,0.4-2.4s0.7-1.4,1.1-1.9s1.1-1,1.8-1.3
				s1.4-0.5,2.3-0.5c0.5,0,1,0.1,1.4,0.2s0.8,0.3,1.1,0.4c0.3,0.2,0.6,0.4,0.8,0.6s0.4,0.4,0.5,0.6h0.1v-8.1h2.9L512.9,347.2
				L512.9,347.2z M503.4,341.4c0,0.5,0.1,0.9,0.2,1.3s0.3,0.9,0.6,1.2s0.6,0.6,1,0.9s0.9,0.3,1.5,0.3c0.5,0,1-0.1,1.4-0.3
				c0.4-0.2,0.8-0.5,1.1-0.9c0.3-0.4,0.5-0.8,0.7-1.2c0.1-0.4,0.2-0.9,0.2-1.3s-0.1-0.9-0.2-1.3c-0.1-0.5-0.4-0.9-0.7-1.2
				c-0.3-0.4-0.6-0.6-1.1-0.9c-0.4-0.2-0.9-0.3-1.4-0.3c-0.6,0-1,0.1-1.5,0.3c-0.4,0.2-0.8,0.5-1,0.9s-0.5,0.8-0.6,1.2
				C503.5,340.5,503.4,341,503.4,341.4z"/>
			<path d="M520,335.7h3.1l2.4,8.3h0l2.5-8.3h3.1l2.5,8.3h0l2.5-8.3h3l-4,11.5h-2.9l-2.6-8.1h0l-2.6,8.1H524L520,335.7z"/>
			<path d="M540.2,331.8c0-0.5,0.2-0.9,0.5-1.2c0.3-0.3,0.8-0.5,1.3-0.5c0.5,0,1,0.2,1.3,0.5c0.4,0.3,0.5,0.7,0.5,1.2
				s-0.2,0.9-0.5,1.2s-0.8,0.5-1.3,0.5s-1-0.2-1.3-0.5C540.4,332.7,540.2,332.3,540.2,331.8z M540.6,335.7h2.9v11.5h-2.9V335.7z"/>
			<path d="M549.4,335.7v1.6h0.1c0.1-0.2,0.3-0.5,0.6-0.7c0.2-0.2,0.5-0.4,0.8-0.6c0.3-0.2,0.7-0.3,1.1-0.5c0.4-0.1,0.9-0.2,1.4-0.2
				c0.8,0,1.6,0.2,2.3,0.5s1.3,0.7,1.8,1.3s0.9,1.2,1.2,1.9c0.3,0.7,0.4,1.5,0.4,2.4s-0.1,1.6-0.4,2.4c-0.3,0.7-0.6,1.4-1.1,1.9
				s-1.1,1-1.8,1.3c-0.7,0.3-1.5,0.5-2.4,0.5c-0.8,0-1.6-0.2-2.2-0.5c-0.7-0.3-1.2-0.8-1.6-1.4h0v7.3h-2.9v-17.3L549.4,335.7
				L549.4,335.7z M556.2,341.4c0-0.5-0.1-0.9-0.2-1.3c-0.1-0.4-0.3-0.8-0.6-1.2c-0.3-0.4-0.6-0.6-1-0.9c-0.4-0.2-0.9-0.3-1.5-0.3
				c-0.5,0-1,0.1-1.4,0.3c-0.4,0.2-0.8,0.5-1.1,0.9c-0.3,0.4-0.5,0.8-0.7,1.2c-0.2,0.5-0.2,0.9-0.2,1.3s0.1,0.9,0.2,1.3
				c0.2,0.4,0.4,0.8,0.7,1.2c0.3,0.4,0.7,0.6,1.1,0.9c0.4,0.2,0.9,0.3,1.4,0.3c0.6,0,1-0.1,1.5-0.3c0.4-0.2,0.8-0.5,1-0.9
				c0.3-0.4,0.5-0.8,0.6-1.2S556.2,341.9,556.2,341.4z"/>
			<path d="M572.5,341.6c0,0.1,0,0.3,0,0.4c0,0.1,0,0.3,0,0.4h-8.8c0,0.4,0.1,0.8,0.3,1.1c0.2,0.3,0.4,0.6,0.7,0.9s0.7,0.4,1,0.6
				c0.4,0.1,0.8,0.2,1.2,0.2c0.7,0,1.3-0.1,1.8-0.4c0.5-0.3,0.9-0.6,1.2-1.1l1.9,1.5c-1.1,1.5-2.8,2.3-4.9,2.3
				c-0.9,0-1.7-0.1-2.5-0.4s-1.4-0.7-2-1.2c-0.5-0.5-1-1.1-1.3-1.9c-0.3-0.7-0.5-1.6-0.5-2.5c0-0.9,0.2-1.8,0.5-2.5s0.7-1.4,1.3-1.9
				c0.5-0.5,1.2-1,1.9-1.2s1.5-0.4,2.4-0.4c0.8,0,1.5,0.1,2.2,0.4c0.7,0.3,1.3,0.7,1.8,1.2c0.5,0.5,0.9,1.2,1.2,1.9
				S572.5,340.6,572.5,341.6z M569.6,340.3c0-0.4,0-0.7-0.2-1.1c-0.1-0.3-0.3-0.6-0.5-0.9s-0.5-0.5-0.8-0.6
				c-0.3-0.1-0.8-0.2-1.2-0.2c-0.9,0-1.6,0.3-2.2,0.8c-0.6,0.5-0.9,1.2-1,2L569.6,340.3L569.6,340.3z"/>
			<path d="M578.9,338v-2.3h2v-3.3h2.8v3.3h2.9v2.3h-2.9v5.4c0,0.5,0.1,0.9,0.3,1.3c0.2,0.3,0.6,0.5,1.2,0.5c0.2,0,0.4,0,0.6-0.1
				s0.4-0.1,0.6-0.2l0.1,2.3c-0.3,0.1-0.6,0.2-0.9,0.2s-0.7,0.1-1,0.1c-0.8,0-1.4-0.1-1.9-0.3c-0.5-0.2-0.9-0.5-1.1-0.9
				s-0.5-0.8-0.6-1.3c-0.1-0.5-0.2-1-0.2-1.6V338L578.9,338L578.9,338z"/>
			<path d="M587.7,341.4c0-0.9,0.2-1.7,0.5-2.5s0.8-1.4,1.3-1.9s1.2-0.9,2-1.2c0.8-0.3,1.6-0.4,2.5-0.4c0.9,0,1.7,0.1,2.5,0.4
				c0.8,0.3,1.4,0.7,2,1.2c0.6,0.5,1,1.2,1.3,1.9s0.5,1.6,0.5,2.5s-0.2,1.7-0.5,2.5c-0.3,0.8-0.8,1.4-1.3,1.9c-0.6,0.5-1.2,1-2,1.3
				c-0.8,0.3-1.6,0.5-2.5,0.5c-0.9,0-1.7-0.1-2.5-0.5c-0.8-0.3-1.4-0.7-2-1.3s-1-1.2-1.3-1.9C587.8,343.2,587.7,342.3,587.7,341.4z
				 M590.6,341.4c0,0.5,0.1,0.9,0.2,1.3c0.1,0.5,0.3,0.9,0.6,1.2c0.3,0.4,0.6,0.6,1,0.9s0.9,0.3,1.5,0.3s1.1-0.1,1.5-0.3
				s0.8-0.5,1-0.9c0.3-0.4,0.5-0.8,0.6-1.2c0.1-0.5,0.2-0.9,0.2-1.3c0-0.5-0.1-0.9-0.2-1.3c-0.1-0.4-0.3-0.8-0.6-1.2
				c-0.3-0.4-0.6-0.6-1-0.9c-0.4-0.2-0.9-0.3-1.5-0.3s-1.1,0.1-1.5,0.3c-0.4,0.2-0.8,0.5-1,0.9s-0.5,0.8-0.6,1.2
				C590.7,340.5,590.6,341,590.6,341.4z"/>
			<path d="M620,335.7v10.5c0,1-0.1,2-0.4,2.8s-0.7,1.5-1.2,2.1s-1.2,1-2,1.4c-0.8,0.3-1.8,0.5-2.9,0.5c-0.5,0-1,0-1.5-0.1
				c-0.5-0.1-1-0.2-1.5-0.4c-0.5-0.2-1-0.4-1.5-0.6c-0.5-0.2-0.9-0.5-1.2-0.8l1.7-2.2c0.6,0.5,1.2,0.9,1.9,1.2
				c0.7,0.3,1.4,0.4,2.1,0.4c0.7,0,1.3-0.1,1.7-0.3c0.5-0.2,0.8-0.5,1.1-0.8c0.3-0.4,0.5-0.8,0.6-1.2s0.2-1,0.2-1.6v-0.8h0
				c-0.4,0.6-1,1-1.6,1.3s-1.4,0.5-2.2,0.5c-0.9,0-1.7-0.2-2.3-0.5s-1.3-0.8-1.8-1.3c-0.5-0.5-0.9-1.2-1.1-1.9s-0.4-1.5-0.4-2.3
				c0-0.8,0.1-1.6,0.4-2.4c0.3-0.7,0.6-1.4,1.1-1.9s1.1-1,1.8-1.3c0.7-0.3,1.5-0.5,2.3-0.5c0.8,0,1.6,0.2,2.3,0.5s1.3,0.9,1.7,1.6h0
				v-1.7H620z M613.8,337.7c-0.5,0-1,0.1-1.4,0.3c-0.4,0.2-0.8,0.5-1,0.8s-0.5,0.7-0.7,1.2s-0.2,0.9-0.2,1.4c0,0.5,0.1,0.9,0.2,1.3
				c0.2,0.4,0.4,0.8,0.7,1.2s0.6,0.6,1,0.8c0.4,0.2,0.9,0.3,1.4,0.3c0.5,0,1-0.1,1.4-0.3c0.4-0.2,0.8-0.5,1.1-0.8s0.5-0.7,0.7-1.2
				s0.2-0.9,0.2-1.4c0-0.5-0.1-1-0.2-1.4s-0.4-0.8-0.7-1.2c-0.3-0.3-0.7-0.6-1.1-0.8S614.4,337.7,613.8,337.7z"/>
			<path d="M634.1,341.6c0,0.1,0,0.3,0,0.4c0,0.1,0,0.3,0,0.4h-8.8c0,0.4,0.1,0.8,0.3,1.1c0.2,0.3,0.4,0.6,0.7,0.9s0.7,0.4,1,0.6
				c0.4,0.1,0.8,0.2,1.2,0.2c0.7,0,1.3-0.1,1.8-0.4c0.5-0.3,0.9-0.6,1.2-1.1l1.9,1.5c-1.1,1.5-2.8,2.3-4.9,2.3
				c-0.9,0-1.7-0.1-2.5-0.4s-1.4-0.7-2-1.2c-0.5-0.5-1-1.1-1.3-1.9c-0.3-0.7-0.5-1.6-0.5-2.5c0-0.9,0.2-1.8,0.5-2.5s0.7-1.4,1.3-1.9
				c0.5-0.5,1.2-1,1.9-1.2s1.5-0.4,2.4-0.4c0.8,0,1.5,0.1,2.2,0.4c0.7,0.3,1.3,0.7,1.8,1.2c0.5,0.5,0.9,1.2,1.2,1.9
				S634.1,340.6,634.1,341.6z M631.2,340.3c0-0.4,0-0.7-0.2-1.1c-0.1-0.3-0.3-0.6-0.5-0.9s-0.5-0.5-0.8-0.6
				c-0.3-0.1-0.8-0.2-1.2-0.2c-0.9,0-1.6,0.3-2.2,0.8c-0.6,0.5-0.9,1.2-1,2L631.2,340.3L631.2,340.3z"/>
			<path d="M634.8,338v-2.3h2v-3.3h2.8v3.3h2.9v2.3h-2.9v5.4c0,0.5,0.1,0.9,0.3,1.3c0.2,0.3,0.6,0.5,1.2,0.5c0.2,0,0.4,0,0.6-0.1
				s0.4-0.1,0.6-0.2l0.1,2.3c-0.3,0.1-0.6,0.2-0.9,0.2s-0.7,0.1-1,0.1c-0.8,0-1.4-0.1-1.9-0.3c-0.5-0.2-0.9-0.5-1.1-0.9
				s-0.5-0.8-0.6-1.3c-0.1-0.5-0.2-1-0.2-1.6V338L634.8,338L634.8,338z"/>
			<path d="M338.4,376.8c-0.3-0.3-0.6-0.6-1.1-0.9s-0.9-0.4-1.5-0.4c-0.5,0-0.9,0.1-1.3,0.3c-0.4,0.2-0.6,0.5-0.6,1
				c0,0.5,0.2,0.8,0.6,1s1,0.4,1.9,0.6c0.4,0.1,0.9,0.2,1.3,0.4s0.8,0.4,1.2,0.6c0.4,0.3,0.6,0.6,0.9,1c0.2,0.4,0.3,0.9,0.3,1.4
				c0,0.7-0.1,1.3-0.4,1.8c-0.3,0.5-0.6,0.9-1.1,1.2c-0.4,0.3-1,0.5-1.5,0.7c-0.6,0.1-1.2,0.2-1.8,0.2c-0.9,0-1.8-0.2-2.6-0.5
				s-1.5-0.8-2.1-1.4l1.9-1.8c0.3,0.4,0.7,0.8,1.2,1s1.1,0.4,1.7,0.4c0.2,0,0.4,0,0.6-0.1c0.2,0,0.4-0.1,0.6-0.2
				c0.2-0.1,0.3-0.2,0.4-0.4c0.1-0.2,0.2-0.4,0.2-0.6c0-0.5-0.2-0.8-0.7-1s-1.1-0.4-2-0.6c-0.4-0.1-0.9-0.2-1.3-0.4
				s-0.8-0.4-1.1-0.6s-0.6-0.6-0.8-0.9s-0.3-0.8-0.3-1.4c0-0.6,0.1-1.2,0.4-1.7c0.3-0.5,0.6-0.8,1-1.1c0.4-0.3,0.9-0.5,1.5-0.7
				s1.1-0.2,1.7-0.2c0.8,0,1.6,0.1,2.4,0.4c0.8,0.3,1.4,0.7,1.9,1.3L338.4,376.8z"/>
			<path d="M340.8,376v-2.3h2v-3.3h2.8v3.3h2.9v2.3h-2.9v5.4c0,0.5,0.1,0.9,0.3,1.3c0.2,0.3,0.6,0.5,1.2,0.5c0.2,0,0.4,0,0.6-0.1
				s0.4-0.1,0.6-0.2l0.1,2.3c-0.3,0.1-0.6,0.2-0.9,0.2s-0.7,0.1-1,0.1c-0.8,0-1.4-0.1-1.9-0.3c-0.5-0.2-0.9-0.5-1.1-0.9
				c-0.3-0.4-0.5-0.8-0.6-1.3c-0.1-0.5-0.2-1-0.2-1.6V376L340.8,376L340.8,376z"/>
			<path d="M350.2,373.7h2.8v1.9h0c0.3-0.7,0.8-1.2,1.3-1.6s1.2-0.6,2-0.6c0.1,0,0.2,0,0.4,0c0.1,0,0.2,0,0.3,0.1v2.6
				c-0.2,0-0.4-0.1-0.5-0.1s-0.3,0-0.4,0c-0.7,0-1.2,0.1-1.6,0.4s-0.7,0.5-0.9,0.9c-0.2,0.3-0.4,0.7-0.5,1s-0.1,0.6-0.1,0.8v6.2
				h-2.9V373.7z"/>
			<path d="M369.1,379.6c0,0.1,0,0.3,0,0.4c0,0.1,0,0.3,0,0.4h-8.8c0,0.4,0.1,0.8,0.3,1.1c0.2,0.3,0.4,0.6,0.7,0.9
				c0.3,0.2,0.6,0.4,1,0.6c0.4,0.1,0.8,0.2,1.2,0.2c0.7,0,1.3-0.1,1.8-0.4s0.9-0.6,1.2-1.1l1.9,1.5c-1.1,1.5-2.8,2.3-4.9,2.3
				c-0.9,0-1.7-0.1-2.5-0.4s-1.4-0.7-2-1.2c-0.5-0.5-1-1.1-1.3-1.9c-0.3-0.7-0.5-1.6-0.5-2.5c0-0.9,0.2-1.8,0.5-2.5s0.7-1.4,1.3-1.9
				c0.5-0.5,1.2-1,1.9-1.2s1.5-0.4,2.4-0.4c0.8,0,1.5,0.1,2.2,0.4c0.7,0.3,1.3,0.7,1.8,1.2c0.5,0.5,0.9,1.2,1.2,2
				C369,377.7,369.1,378.6,369.1,379.6z M366.3,378.3c0-0.4,0-0.7-0.2-1.1c-0.1-0.3-0.3-0.6-0.5-0.9s-0.5-0.5-0.9-0.6
				s-0.8-0.2-1.2-0.2c-0.9,0-1.6,0.3-2.2,0.8s-0.9,1.2-1,2L366.3,378.3L366.3,378.3z"/>
			<path d="M378.6,383.8L378.6,383.8c-0.4,0.5-0.8,0.9-1.5,1.3c-0.6,0.3-1.4,0.5-2.2,0.5c-0.5,0-1-0.1-1.5-0.2s-1-0.3-1.4-0.6
				s-0.8-0.6-1.1-1.1c-0.3-0.5-0.4-1-0.4-1.7c0-0.9,0.2-1.5,0.7-2.1c0.5-0.5,1.1-0.9,1.9-1.2c0.8-0.3,1.6-0.5,2.6-0.5
				s1.9-0.1,2.8-0.1v-0.3c0-0.7-0.3-1.2-0.8-1.6s-1.1-0.5-1.9-0.5c-0.6,0-1.2,0.1-1.8,0.4c-0.6,0.3-1,0.6-1.4,0.9l-1.5-1.8
				c0.7-0.6,1.4-1.1,2.3-1.4c0.9-0.3,1.7-0.5,2.6-0.5c1,0,1.9,0.1,2.5,0.4c0.7,0.3,1.2,0.7,1.6,1.1c0.4,0.5,0.6,1,0.8,1.6
				s0.2,1.1,0.2,1.7v7h-2.7L378.6,383.8L378.6,383.8z M378.5,380h-0.6c-0.5,0-1,0-1.5,0.1s-1,0.1-1.4,0.3c-0.4,0.1-0.8,0.3-1.1,0.6
				s-0.4,0.6-0.4,1c0,0.3,0.1,0.5,0.2,0.7s0.3,0.3,0.5,0.4c0.2,0.1,0.4,0.2,0.6,0.2s0.5,0.1,0.7,0.1c1,0,1.7-0.3,2.3-0.8
				c0.5-0.5,0.8-1.2,0.8-2.2L378.5,380L378.5,380z"/>
			<path d="M384.3,367.1h2.9v11.5h0.1l4.4-4.9h3.7l-5,5.2l5.3,6.3h-3.8l-4.6-5.9h-0.1v5.9h-2.9V367.1z"/>
			<path d="M401.4,380.5h-5.8v-2.5h5.8V380.5z"/>
			<path d="M404.1,376H402v-2.3h2.2V372c0-0.7,0.1-1.4,0.2-2c0.1-0.6,0.4-1.2,0.8-1.7s0.8-0.9,1.4-1.1c0.6-0.3,1.3-0.4,2.2-0.4
				c0.3,0,0.6,0,0.8,0c0.2,0,0.4,0.1,0.7,0.1l-0.2,2.5c-0.2,0-0.3-0.1-0.5-0.1c-0.2,0-0.4,0-0.6,0c-0.4,0-0.8,0.1-1,0.2
				s-0.5,0.4-0.6,0.6c-0.1,0.3-0.2,0.5-0.3,0.8s-0.1,0.6-0.1,0.9v1.9h2.7v2.3H407v9.2h-2.9L404.1,376L404.1,376z"/>
			<path d="M411.1,373.7h2.8v1.9h0c0.3-0.7,0.8-1.2,1.3-1.6s1.2-0.6,2-0.6c0.1,0,0.2,0,0.4,0c0.1,0,0.2,0,0.3,0.1v2.6
				c-0.2,0-0.4-0.1-0.5-0.1s-0.3,0-0.4,0c-0.7,0-1.2,0.1-1.6,0.4s-0.7,0.5-0.9,0.9c-0.2,0.3-0.4,0.7-0.5,1s-0.1,0.6-0.1,0.8v6.2
				h-2.9V373.7z"/>
			<path d="M430,379.6c0,0.1,0,0.3,0,0.4c0,0.1,0,0.3,0,0.4h-8.8c0,0.4,0.1,0.8,0.3,1.1c0.2,0.3,0.4,0.6,0.7,0.9
				c0.3,0.2,0.6,0.4,1,0.6c0.4,0.1,0.8,0.2,1.2,0.2c0.7,0,1.3-0.1,1.8-0.4s0.9-0.6,1.2-1.1l1.9,1.5c-1.1,1.5-2.8,2.3-4.9,2.3
				c-0.9,0-1.7-0.1-2.5-0.4s-1.4-0.7-2-1.2c-0.5-0.5-1-1.1-1.3-1.9c-0.3-0.7-0.5-1.6-0.5-2.5c0-0.9,0.2-1.8,0.5-2.5s0.7-1.4,1.3-1.9
				c0.5-0.5,1.2-1,1.9-1.2s1.5-0.4,2.4-0.4c0.8,0,1.5,0.1,2.2,0.4c0.7,0.3,1.3,0.7,1.8,1.2c0.5,0.5,0.9,1.2,1.2,2
				C429.9,377.7,430,378.6,430,379.6z M427.1,378.3c0-0.4,0-0.7-0.2-1.1c-0.1-0.3-0.3-0.6-0.5-0.9s-0.5-0.5-0.9-0.6
				s-0.8-0.2-1.2-0.2c-0.9,0-1.6,0.3-2.2,0.8s-0.9,1.2-1,2L427.1,378.3L427.1,378.3z"/>
			<path d="M443.4,379.6c0,0.1,0,0.3,0,0.4c0,0.1,0,0.3,0,0.4h-8.8c0,0.4,0.1,0.8,0.3,1.1c0.2,0.3,0.4,0.6,0.7,0.9
				c0.3,0.2,0.6,0.4,1,0.6c0.4,0.1,0.8,0.2,1.2,0.2c0.7,0,1.3-0.1,1.8-0.4s0.9-0.6,1.2-1.1l1.9,1.5c-1.1,1.5-2.8,2.3-4.9,2.3
				c-0.9,0-1.7-0.1-2.5-0.4s-1.4-0.7-2-1.2c-0.5-0.5-1-1.1-1.3-1.9c-0.3-0.7-0.5-1.6-0.5-2.5c0-0.9,0.2-1.8,0.5-2.5s0.7-1.4,1.3-1.9
				c0.5-0.5,1.2-1,1.9-1.2s1.5-0.4,2.4-0.4c0.8,0,1.5,0.1,2.2,0.4c0.7,0.3,1.3,0.7,1.8,1.2c0.5,0.5,0.9,1.2,1.2,2
				C443.3,377.7,443.4,378.6,443.4,379.6z M440.6,378.3c0-0.4,0-0.7-0.2-1.1c-0.1-0.3-0.3-0.6-0.5-0.9s-0.5-0.5-0.9-0.6
				s-0.8-0.2-1.2-0.2c-0.9,0-1.6,0.3-2.2,0.8s-0.9,1.2-1,2L440.6,378.3L440.6,378.3z"/>
			<path d="M446.9,388.4H445l1.7-6h2.3L446.9,388.4z"/>
			<path d="M468.4,379.5c0,0.9-0.2,1.7-0.5,2.4c-0.3,0.7-0.7,1.4-1.3,1.9c-0.5,0.5-1.2,1-2,1.2c-0.8,0.3-1.6,0.4-2.4,0.4
				c-0.9,0-1.7-0.1-2.4-0.4s-1.4-0.7-1.9-1.2s-1-1.2-1.3-1.9s-0.5-1.5-0.5-2.4s0.2-1.7,0.5-2.4s0.7-1.4,1.3-1.9
				c0.5-0.5,1.2-0.9,1.9-1.2s1.6-0.4,2.4-0.4c0.9,0,1.7,0.1,2.4,0.4c0.8,0.3,1.4,0.7,2,1.2c0.5,0.5,1,1.2,1.3,1.9
				C468.2,377.8,468.4,378.6,468.4,379.5z M466,379.5c0-0.5-0.1-1.1-0.2-1.5s-0.4-0.9-0.7-1.3s-0.7-0.7-1.2-0.9
				c-0.5-0.2-1-0.3-1.6-0.3c-0.6,0-1.1,0.1-1.6,0.3c-0.5,0.2-0.9,0.5-1.2,0.9s-0.6,0.8-0.7,1.3c-0.2,0.5-0.2,1-0.2,1.5
				c0,0.5,0.1,1.1,0.2,1.6c0.2,0.5,0.4,0.9,0.7,1.3c0.3,0.4,0.7,0.7,1.2,0.9s1,0.3,1.6,0.3c0.6,0,1.1-0.1,1.6-0.3
				c0.5-0.2,0.9-0.5,1.2-0.9s0.6-0.8,0.7-1.3C466,380.6,466,380.1,466,379.5z"/>
			<path d="M473.4,391h-2.3v-17.1h2.2v1.8h0.1c0.4-0.6,0.9-1.1,1.6-1.5s1.5-0.6,2.5-0.6c0.9,0,1.6,0.1,2.3,0.5
				c0.7,0.3,1.3,0.7,1.8,1.3c0.5,0.5,0.9,1.2,1.2,1.9s0.4,1.5,0.4,2.3s-0.1,1.6-0.4,2.4s-0.6,1.4-1.1,1.9s-1.1,1-1.8,1.3
				s-1.5,0.5-2.4,0.5c-0.8,0-1.6-0.2-2.3-0.5s-1.3-0.9-1.7-1.5h-0.1L473.4,391L473.4,391z M480.9,379.5c0-0.5-0.1-1-0.2-1.5
				s-0.4-0.9-0.7-1.3s-0.7-0.7-1.2-0.9s-1-0.3-1.6-0.3c-0.6,0-1.1,0.1-1.6,0.3c-0.5,0.2-0.9,0.5-1.2,0.9c-0.3,0.4-0.6,0.8-0.8,1.3
				s-0.3,1-0.3,1.6s0.1,1.1,0.3,1.6c0.2,0.5,0.4,0.9,0.8,1.3s0.7,0.7,1.2,0.9s1,0.3,1.6,0.3c0.6,0,1.2-0.1,1.6-0.4s0.9-0.5,1.2-0.9
				s0.6-0.8,0.7-1.3C480.8,380.6,480.9,380,480.9,379.5z"/>
			<path d="M491.6,375.7h-3v5.9c0,0.7,0.1,1.2,0.4,1.5s0.7,0.4,1.2,0.4c0.2,0,0.4,0,0.7-0.1c0.2,0,0.5-0.1,0.6-0.2l0.1,1.9
				c-0.3,0.1-0.6,0.2-0.9,0.2s-0.7,0.1-1,0.1c-1.1,0-1.9-0.3-2.5-0.9c-0.6-0.6-0.9-1.5-0.9-2.7v-6.2h-2.2v-1.9h2.2v-3.3h2.2v3.3h3
				L491.6,375.7L491.6,375.7z"/>
			<path d="M496.2,369.8c0,0.4-0.1,0.8-0.4,1s-0.6,0.4-1.1,0.4s-0.8-0.1-1-0.4c-0.3-0.3-0.4-0.6-0.4-1c0-0.4,0.1-0.8,0.4-1
				c0.3-0.3,0.6-0.4,1-0.4s0.8,0.1,1.1,0.4C496,369,496.2,369.3,496.2,369.8z M495.8,385.2h-2.3v-11.4h2.3V385.2z"/>
			<path d="M507.4,376.7c-0.2-0.4-0.6-0.7-1.1-0.9c-0.5-0.2-1-0.4-1.5-0.4c-0.6,0-1.1,0.1-1.6,0.3c-0.5,0.2-0.8,0.5-1.2,0.9
				c-0.3,0.4-0.6,0.8-0.7,1.3s-0.2,1-0.2,1.6s0.1,1.1,0.2,1.6s0.4,0.9,0.7,1.3s0.7,0.7,1.2,0.9c0.5,0.2,1,0.3,1.6,0.3
				c0.6,0,1.1-0.1,1.6-0.3c0.5-0.2,0.9-0.5,1.2-0.9l1.5,1.4c-0.5,0.6-1.1,1-1.8,1.3s-1.5,0.5-2.5,0.5c-0.9,0-1.7-0.1-2.4-0.4
				c-0.7-0.3-1.4-0.7-1.9-1.2s-1-1.1-1.3-1.9c-0.3-0.7-0.5-1.6-0.5-2.5c0-0.9,0.1-1.7,0.5-2.5c0.3-0.7,0.7-1.4,1.3-1.9
				c0.5-0.5,1.2-0.9,1.9-1.2c0.7-0.3,1.5-0.4,2.4-0.4c0.8,0,1.6,0.2,2.4,0.5s1.4,0.8,1.9,1.4L507.4,376.7z"/>
			<path d="M518,377.9c0-0.9-0.3-1.5-0.8-1.9c-0.5-0.4-1.2-0.6-2-0.6c-0.6,0-1.2,0.1-1.8,0.4s-1,0.6-1.4,1l-1.2-1.4
				c0.6-0.5,1.2-0.9,2-1.2c0.8-0.3,1.7-0.5,2.6-0.5c0.8,0,1.5,0.1,2.1,0.4s1.1,0.5,1.5,1s0.7,0.9,0.9,1.4c0.2,0.5,0.3,1.1,0.3,1.8v5
				c0,0.4,0,0.8,0,1.2c0,0.4,0.1,0.8,0.1,1h-2c-0.1-0.5-0.2-1.1-0.2-1.6H518c-0.4,0.6-0.9,1.1-1.6,1.4s-1.4,0.5-2.2,0.5
				c-0.5,0-0.9-0.1-1.4-0.2c-0.5-0.1-0.9-0.3-1.3-0.6s-0.7-0.6-1-1.1c-0.3-0.5-0.4-1-0.4-1.7c0-0.9,0.2-1.5,0.7-2s1.1-0.9,1.8-1.1
				c0.8-0.3,1.6-0.4,2.5-0.5s1.9-0.1,2.9-0.1L518,377.9L518,377.9z M517.4,379.8c-0.6,0-1.1,0-1.7,0.1c-0.6,0-1.1,0.1-1.6,0.3
				s-0.9,0.4-1.2,0.6s-0.5,0.7-0.5,1.1c0,0.3,0.1,0.6,0.2,0.8c0.1,0.2,0.3,0.4,0.5,0.5c0.2,0.1,0.5,0.2,0.7,0.3s0.5,0.1,0.8,0.1
				c1.1,0,1.9-0.3,2.4-1s0.8-1.4,0.8-2.4v-0.6L517.4,379.8L517.4,379.8z"/>
			<path d="M525.9,385.2h-2.3v-18.1h2.3V385.2z"/>
			<path d="M536,387.2c0.5,0.6,1.1,1,1.9,1.3c0.7,0.3,1.5,0.5,2.3,0.5c0.8,0,1.4-0.1,1.9-0.3c0.5-0.2,0.9-0.5,1.2-0.9
				c0.3-0.4,0.5-0.8,0.7-1.3c0.1-0.5,0.2-1.1,0.2-1.7v-1.5h0c-0.4,0.6-1,1.1-1.7,1.5c-0.7,0.3-1.5,0.5-2.3,0.5
				c-0.9,0-1.7-0.1-2.4-0.5s-1.3-0.7-1.8-1.2s-0.9-1.1-1.2-1.9s-0.4-1.5-0.4-2.3c0-0.8,0.1-1.6,0.4-2.3c0.3-0.7,0.7-1.4,1.2-1.9
				c0.5-0.5,1.1-1,1.8-1.3s1.5-0.5,2.3-0.5c0.8,0,1.6,0.2,2.3,0.5c0.7,0.4,1.3,0.9,1.8,1.6h0v-1.8h2.2v10.8c0,0.8-0.1,1.6-0.3,2.4
				s-0.6,1.4-1.1,2c-0.5,0.6-1.1,1-1.9,1.4s-1.8,0.5-3,0.5c-1,0-2-0.2-3-0.5s-1.9-0.9-2.6-1.5L536,387.2z M536.6,379.4
				c0,0.5,0.1,1,0.2,1.5s0.4,0.9,0.8,1.3s0.7,0.7,1.2,0.9c0.5,0.2,1,0.3,1.6,0.3c0.6,0,1.1-0.1,1.6-0.3s0.9-0.5,1.2-0.9
				c0.3-0.4,0.6-0.8,0.8-1.3s0.3-1,0.3-1.6c0-0.5-0.1-1.1-0.3-1.5c-0.2-0.5-0.5-0.9-0.8-1.3c-0.3-0.4-0.8-0.7-1.2-0.9
				c-0.5-0.2-1-0.3-1.6-0.3c-0.6,0-1.1,0.1-1.6,0.3c-0.5,0.2-0.9,0.5-1.2,0.9s-0.6,0.8-0.8,1.3C536.7,378.4,536.6,378.9,536.6,379.4
				z"/>
			<path d="M549.9,375.1c0-0.5,0-0.9-0.1-1.3h2.1c0,0.3,0.1,0.6,0.1,1c0,0.4,0,0.7,0,0.9h0.1c0.3-0.7,0.8-1.2,1.4-1.6
				s1.3-0.6,2.1-0.6c0.3,0,0.7,0,0.9,0.1l-0.1,2.1c-0.3-0.1-0.7-0.1-1-0.1c-0.5,0-1,0.1-1.4,0.3c-0.4,0.2-0.7,0.5-1,0.8
				c-0.3,0.3-0.5,0.7-0.6,1.2s-0.2,0.9-0.2,1.4v6h-2.3v-8.9C549.9,376,549.9,375.6,549.9,375.1z"/>
			<path d="M565,377.9c0-0.9-0.3-1.5-0.8-1.9c-0.5-0.4-1.2-0.6-2-0.6c-0.6,0-1.2,0.1-1.8,0.4s-1,0.6-1.4,1l-1.2-1.4
				c0.6-0.5,1.2-0.9,2-1.2c0.8-0.3,1.7-0.5,2.6-0.5c0.8,0,1.5,0.1,2.1,0.4s1.1,0.5,1.5,1s0.7,0.9,0.9,1.4c0.2,0.5,0.3,1.1,0.3,1.8v5
				c0,0.4,0,0.8,0,1.2c0,0.4,0.1,0.8,0.1,1h-2c-0.1-0.5-0.2-1.1-0.2-1.6H565c-0.4,0.6-0.9,1.1-1.6,1.4s-1.4,0.5-2.2,0.5
				c-0.5,0-0.9-0.1-1.4-0.2c-0.5-0.1-0.9-0.3-1.3-0.6s-0.7-0.6-1-1.1c-0.3-0.5-0.4-1-0.4-1.7c0-0.9,0.2-1.5,0.7-2s1.1-0.9,1.8-1.1
				c0.8-0.3,1.6-0.4,2.5-0.5s1.9-0.1,2.9-0.1L565,377.9L565,377.9z M564.4,379.8c-0.6,0-1.1,0-1.7,0.1c-0.6,0-1.1,0.1-1.6,0.3
				s-0.9,0.4-1.2,0.6s-0.5,0.7-0.5,1.1c0,0.3,0.1,0.6,0.2,0.8c0.1,0.2,0.3,0.4,0.5,0.5c0.2,0.1,0.5,0.2,0.7,0.3s0.5,0.1,0.8,0.1
				c1.1,0,1.9-0.3,2.4-1s0.8-1.4,0.8-2.4v-0.6L564.4,379.8L564.4,379.8z"/>
			<path d="M579.6,383.4c-0.4,0.7-1,1.2-1.8,1.6s-1.5,0.5-2.3,0.5c-0.9,0-1.7-0.2-2.4-0.5c-0.7-0.3-1.3-0.7-1.8-1.3
				s-0.9-1.2-1.2-1.9c-0.3-0.7-0.4-1.5-0.4-2.4s0.1-1.6,0.4-2.3c0.3-0.7,0.7-1.4,1.2-1.9c0.5-0.5,1.1-1,1.8-1.3s1.5-0.5,2.3-0.5
				c0.9,0,1.7,0.2,2.4,0.6c0.7,0.4,1.2,0.9,1.6,1.4h0v-8.5h2.3v18.1h-2.2L579.6,383.4L579.6,383.4z M572.1,379.5
				c0,0.5,0.1,1,0.2,1.5c0.2,0.5,0.4,0.9,0.7,1.3c0.3,0.4,0.7,0.7,1.2,0.9c0.5,0.2,1,0.4,1.6,0.4c0.6,0,1.1-0.1,1.6-0.3
				c0.5-0.2,0.9-0.5,1.2-0.9s0.6-0.8,0.8-1.3c0.2-0.5,0.3-1,0.3-1.5c0-0.5-0.1-1.1-0.3-1.6c-0.2-0.5-0.4-0.9-0.8-1.3
				s-0.7-0.7-1.2-0.9c-0.5-0.2-1-0.3-1.6-0.3c-0.6,0-1.2,0.1-1.6,0.3c-0.5,0.2-0.9,0.5-1.2,0.9s-0.6,0.8-0.7,1.3
				C572.2,378.5,572.1,379,572.1,379.5z"/>
			<path d="M596.1,379.4c0,0.1,0,0.3,0,0.4s0,0.3,0,0.4h-9c0,0.5,0.1,0.9,0.3,1.4s0.5,0.8,0.8,1.1s0.7,0.5,1.2,0.7s0.9,0.3,1.4,0.3
				c0.8,0,1.4-0.2,2-0.5c0.6-0.3,1-0.7,1.3-1.2l1.6,1.3c-0.6,0.8-1.3,1.4-2.2,1.8c-0.8,0.4-1.7,0.6-2.8,0.6c-0.9,0-1.7-0.1-2.4-0.4
				c-0.7-0.3-1.4-0.7-1.9-1.2s-0.9-1.1-1.2-1.9c-0.3-0.7-0.5-1.5-0.5-2.5c0-0.9,0.2-1.7,0.4-2.4s0.7-1.4,1.2-1.9
				c0.5-0.5,1.2-0.9,1.9-1.2c0.7-0.3,1.5-0.4,2.3-0.4s1.6,0.1,2.3,0.4s1.3,0.7,1.7,1.2c0.5,0.5,0.8,1.1,1.1,1.9
				C595.9,377.7,596.1,378.5,596.1,379.4z M593.8,378.5c0-0.5-0.1-0.9-0.2-1.3c-0.1-0.4-0.3-0.7-0.6-1c-0.3-0.3-0.6-0.5-1-0.7
				c-0.4-0.2-0.8-0.2-1.4-0.2c-0.5,0-0.9,0.1-1.4,0.2s-0.8,0.4-1.1,0.7c-0.3,0.3-0.6,0.6-0.8,1c-0.2,0.4-0.3,0.8-0.3,1.3H593.8z"/>
			<path d="M612.4,376.7c-0.2-0.4-0.6-0.7-1.1-0.9c-0.5-0.2-1-0.4-1.5-0.4c-0.6,0-1.1,0.1-1.6,0.3c-0.5,0.2-0.8,0.5-1.2,0.9
				c-0.3,0.4-0.6,0.8-0.7,1.3s-0.2,1-0.2,1.6s0.1,1.1,0.2,1.6s0.4,0.9,0.7,1.3s0.7,0.7,1.2,0.9c0.5,0.2,1,0.3,1.6,0.3
				c0.6,0,1.1-0.1,1.6-0.3c0.5-0.2,0.9-0.5,1.2-0.9l1.5,1.4c-0.5,0.6-1.1,1-1.8,1.3s-1.5,0.5-2.5,0.5c-0.9,0-1.7-0.1-2.4-0.4
				c-0.7-0.3-1.4-0.7-1.9-1.2s-1-1.1-1.3-1.9c-0.3-0.7-0.5-1.6-0.5-2.5c0-0.9,0.2-1.7,0.5-2.5c0.3-0.7,0.7-1.4,1.3-1.9
				c0.5-0.5,1.2-0.9,1.9-1.2c0.7-0.3,1.5-0.4,2.4-0.4c0.8,0,1.6,0.2,2.4,0.5c0.8,0.3,1.4,0.8,1.9,1.4L612.4,376.7z"/>
			<path d="M618.3,385.2H616v-18.1h2.3V385.2z"/>
			<path d="M628.9,377.9c0-0.9-0.3-1.5-0.8-1.9c-0.5-0.4-1.2-0.6-2-0.6c-0.6,0-1.2,0.1-1.8,0.4s-1,0.6-1.4,1l-1.2-1.4
				c0.6-0.5,1.2-0.9,2-1.2c0.8-0.3,1.7-0.5,2.6-0.5c0.8,0,1.5,0.1,2.1,0.4s1.1,0.5,1.5,1s0.7,0.9,0.9,1.4c0.2,0.5,0.3,1.1,0.3,1.8v5
				c0,0.4,0,0.8,0,1.2c0,0.4,0.1,0.8,0.1,1h-2c-0.1-0.5-0.2-1.1-0.2-1.6h-0.1c-0.4,0.6-0.9,1.1-1.6,1.4s-1.4,0.5-2.2,0.5
				c-0.5,0-0.9-0.1-1.4-0.2c-0.5-0.1-0.9-0.3-1.3-0.6s-0.7-0.6-1-1.1c-0.3-0.5-0.4-1-0.4-1.7c0-0.9,0.2-1.5,0.7-2s1.1-0.9,1.8-1.1
				c0.8-0.3,1.6-0.4,2.5-0.5s1.9-0.1,2.9-0.1L628.9,377.9L628.9,377.9z M628.4,379.8c-0.6,0-1.1,0-1.7,0.1c-0.6,0-1.1,0.1-1.6,0.3
				s-0.9,0.4-1.2,0.6s-0.5,0.7-0.5,1.1c0,0.3,0.1,0.6,0.2,0.8c0.1,0.2,0.3,0.4,0.5,0.5c0.2,0.1,0.5,0.2,0.7,0.3s0.5,0.1,0.8,0.1
				c1.1,0,1.9-0.3,2.4-1s0.8-1.4,0.8-2.4v-0.6L628.4,379.8L628.4,379.8z"/>
			<path d="M634.5,375.1c0-0.5,0-0.9-0.1-1.3h2.1c0,0.3,0.1,0.6,0.1,1c0,0.4,0,0.7,0,0.9h0.1c0.3-0.7,0.8-1.2,1.4-1.6
				s1.3-0.6,2.1-0.6c0.3,0,0.7,0,0.9,0.1l-0.1,2.1c-0.3-0.1-0.7-0.1-1-0.1c-0.5,0-1,0.1-1.4,0.3c-0.4,0.2-0.7,0.5-1,0.8
				c-0.3,0.3-0.5,0.7-0.6,1.2s-0.2,0.9-0.2,1.4v6h-2.3v-8.9C634.5,376,634.5,375.6,634.5,375.1z"/>
			<path d="M645.5,369.8c0,0.4-0.2,0.8-0.4,1s-0.7,0.4-1.1,0.4s-0.8-0.1-1-0.4s-0.4-0.6-0.4-1c0-0.4,0.1-0.8,0.4-1s0.6-0.4,1-0.4
				s0.8,0.1,1.1,0.4C645.3,369,645.5,369.3,645.5,369.8z M645.1,385.2h-2.3v-11.4h2.3V385.2z"/>
			<path d="M654.2,375.7h-3v5.9c0,0.7,0.1,1.2,0.4,1.5s0.7,0.4,1.2,0.4c0.2,0,0.4,0,0.7-0.1c0.2,0,0.5-0.1,0.7-0.2l0.1,1.9
				c-0.3,0.1-0.6,0.2-0.9,0.2s-0.7,0.1-1,0.1c-1.1,0-1.9-0.3-2.5-0.9c-0.6-0.6-0.8-1.5-0.8-2.7v-6.2h-2.2v-1.9h2.2v-3.3h2.2v3.3h3
				L654.2,375.7L654.2,375.7z"/>
			<path d="M660.5,382.8L660.5,382.8l3.2-8.9h2.4l-5.5,14.1c-0.2,0.5-0.4,0.9-0.6,1.3c-0.2,0.4-0.5,0.7-0.8,1s-0.7,0.5-1.1,0.6
				c-0.4,0.1-0.9,0.2-1.5,0.2c-0.2,0-0.5,0-0.7,0s-0.5-0.1-0.8-0.1l0.2-2c0.4,0.1,0.8,0.2,1.1,0.2c0.6,0,1-0.2,1.3-0.5
				s0.5-0.8,0.8-1.4l0.7-1.9l-4.9-11.4h2.5L660.5,382.8z"/>
			<path d="M339.4,415.9c0-0.9-0.3-1.5-0.8-1.9c-0.5-0.4-1.2-0.6-2-0.6c-0.6,0-1.2,0.1-1.8,0.4s-1,0.6-1.4,1l-1.2-1.4
				c0.6-0.5,1.2-0.9,2-1.2c0.8-0.3,1.7-0.5,2.6-0.5c0.8,0,1.5,0.1,2.1,0.4s1.1,0.5,1.5,1s0.7,0.9,0.9,1.4c0.2,0.5,0.3,1.1,0.3,1.8v5
				c0,0.4,0,0.8,0,1.2c0,0.4,0.1,0.8,0.1,1h-2c-0.1-0.5-0.2-1.1-0.2-1.6h-0.1c-0.4,0.6-0.9,1.1-1.6,1.4s-1.4,0.5-2.2,0.5
				c-0.5,0-0.9-0.1-1.4-0.2c-0.5-0.1-0.9-0.3-1.3-0.6s-0.7-0.6-1-1.1c-0.3-0.5-0.4-1-0.4-1.7c0-0.9,0.2-1.5,0.7-2s1.1-0.9,1.8-1.1
				c0.8-0.3,1.6-0.4,2.5-0.5s1.9-0.1,2.9-0.1L339.4,415.9L339.4,415.9z M338.9,417.8c-0.6,0-1.1,0-1.7,0.1c-0.6,0-1.1,0.1-1.6,0.3
				s-0.9,0.4-1.2,0.6c-0.3,0.3-0.5,0.7-0.5,1.1c0,0.3,0.1,0.6,0.2,0.8c0.1,0.2,0.3,0.4,0.5,0.5c0.2,0.1,0.5,0.2,0.7,0.3
				s0.5,0.1,0.8,0.1c1.1,0,1.9-0.3,2.4-1s0.9-1.4,0.9-2.4v-0.6L338.9,417.8L338.9,417.8z"/>
			<path d="M347,411.9c0,0.3,0.1,0.6,0.1,1c0,0.4,0,0.7,0,0.9h0.1c0.1-0.3,0.3-0.6,0.6-0.9s0.5-0.5,0.9-0.7s0.7-0.4,1.1-0.5
				c0.4-0.1,0.8-0.2,1.2-0.2c0.7,0,1.4,0.1,1.9,0.4s1,0.6,1.3,1s0.6,0.9,0.8,1.5s0.2,1.2,0.2,1.8v7.1h-2.3v-6.3c0-0.5,0-0.9-0.1-1.3
				c-0.1-0.4-0.2-0.8-0.4-1.1s-0.5-0.6-0.8-0.8c-0.3-0.2-0.8-0.3-1.3-0.3c-0.9,0-1.6,0.3-2.2,1s-0.9,1.6-0.9,2.7v6H345v-8.9
				c0-0.3,0-0.7,0-1.2s0-0.9-0.1-1.3L347,411.9L347,411.9z"/>
			<path d="M367.6,421.4c-0.4,0.7-1,1.2-1.8,1.6s-1.5,0.5-2.3,0.5c-0.9,0-1.7-0.2-2.4-0.5c-0.7-0.3-1.3-0.7-1.8-1.3
				s-0.9-1.2-1.1-1.9c-0.3-0.7-0.4-1.5-0.4-2.4s0.1-1.6,0.4-2.3s0.7-1.4,1.2-1.9c0.5-0.5,1.1-1,1.8-1.3s1.5-0.5,2.3-0.5
				c0.9,0,1.7,0.2,2.4,0.6c0.7,0.4,1.2,0.9,1.6,1.4h0v-8.5h2.3v18.1h-2.2L367.6,421.4L367.6,421.4z M360.2,417.5
				c0,0.5,0.1,1,0.2,1.5c0.2,0.5,0.4,0.9,0.7,1.3c0.3,0.4,0.7,0.7,1.2,0.9c0.5,0.2,1,0.4,1.6,0.4c0.6,0,1.1-0.1,1.6-0.3
				c0.5-0.2,0.9-0.5,1.2-0.9s0.6-0.8,0.8-1.3s0.3-1,0.3-1.5c0-0.5-0.1-1.1-0.3-1.6c-0.2-0.5-0.4-0.9-0.8-1.3s-0.7-0.7-1.2-0.9
				s-1-0.3-1.6-0.3c-0.6,0-1.2,0.1-1.6,0.3c-0.5,0.2-0.9,0.5-1.2,0.9s-0.6,0.8-0.7,1.3C360.2,416.5,360.2,417,360.2,417.5z"/>
			<path d="M381.3,421.4v1.8h-2.2v-18.1h2.3v8.5h0.1c0.4-0.6,0.9-1,1.6-1.4c0.7-0.4,1.5-0.6,2.4-0.6c0.9,0,1.6,0.1,2.3,0.5
				c0.7,0.3,1.3,0.7,1.8,1.3c0.5,0.5,0.9,1.2,1.2,1.9s0.4,1.5,0.4,2.3s-0.1,1.6-0.4,2.4s-0.6,1.4-1.1,1.9s-1.1,1-1.8,1.3
				s-1.5,0.5-2.4,0.5c-0.8,0-1.6-0.2-2.3-0.5C382.4,422.6,381.8,422.1,381.3,421.4L381.3,421.4L381.3,421.4z M388.9,417.5
				c0-0.5-0.1-1-0.2-1.5s-0.4-0.9-0.7-1.3c-0.3-0.4-0.7-0.7-1.2-0.9s-1-0.3-1.6-0.3c-0.6,0-1.1,0.1-1.6,0.3
				c-0.5,0.2-0.9,0.5-1.2,0.9s-0.6,0.8-0.8,1.3s-0.3,1-0.3,1.6c0,0.5,0.1,1.1,0.3,1.5s0.4,0.9,0.8,1.3s0.7,0.7,1.2,0.9
				c0.5,0.2,1,0.3,1.6,0.3c0.6,0,1.2-0.1,1.6-0.4s0.9-0.5,1.2-0.9s0.6-0.8,0.7-1.3C388.8,418.6,388.9,418,388.9,417.5z"/>
			<path d="M402,423.2c0-0.3-0.1-0.6-0.1-1c0-0.4,0-0.7,0-0.9h0c-0.3,0.6-0.8,1.1-1.5,1.5c-0.7,0.4-1.4,0.6-2.3,0.6
				c-0.7,0-1.4-0.1-1.9-0.4s-1-0.6-1.3-1c-0.3-0.4-0.6-0.9-0.8-1.5s-0.2-1.2-0.2-1.8v-7.1h2.3v6.3c0,0.5,0,0.9,0.1,1.3
				s0.2,0.8,0.4,1.1c0.2,0.3,0.5,0.6,0.8,0.8c0.3,0.2,0.8,0.3,1.3,0.3c0.9,0,1.6-0.3,2.2-1s0.8-1.6,0.8-2.7v-6h2.3v8.9
				c0,0.3,0,0.7,0,1.2c0,0.5,0,0.9,0.1,1.3L402,423.2L402,423.2z"/>
			<path d="M410.2,407.8c0,0.4-0.1,0.8-0.4,1s-0.6,0.4-1.1,0.4s-0.8-0.1-1-0.4c-0.3-0.3-0.4-0.6-0.4-1c0-0.4,0.1-0.8,0.4-1
				c0.3-0.3,0.6-0.4,1-0.4s0.8,0.1,1.1,0.4C410.1,407,410.2,407.3,410.2,407.8z M409.9,423.2h-2.3v-11.4h2.3V423.2z"/>
			<path d="M415.8,423.2h-2.3v-18.1h2.3V423.2z"/>
			<path d="M428.4,421.4c-0.4,0.7-1,1.2-1.8,1.6s-1.5,0.5-2.3,0.5c-0.9,0-1.7-0.2-2.4-0.5c-0.7-0.3-1.3-0.7-1.8-1.3
				s-0.9-1.2-1.1-1.9c-0.3-0.7-0.4-1.5-0.4-2.4s0.1-1.6,0.4-2.3s0.7-1.4,1.2-1.9c0.5-0.5,1.1-1,1.8-1.3s1.5-0.5,2.3-0.5
				c0.9,0,1.7,0.2,2.4,0.6c0.7,0.4,1.2,0.9,1.6,1.4h0v-8.5h2.3v18.1h-2.2L428.4,421.4L428.4,421.4z M420.9,417.5
				c0,0.5,0.1,1,0.2,1.5c0.2,0.5,0.4,0.9,0.7,1.3c0.3,0.4,0.7,0.7,1.2,0.9c0.5,0.2,1,0.4,1.6,0.4c0.6,0,1.1-0.1,1.6-0.3
				c0.5-0.2,0.9-0.5,1.2-0.9s0.6-0.8,0.8-1.3s0.3-1,0.3-1.5c0-0.5-0.1-1.1-0.3-1.6c-0.2-0.5-0.4-0.9-0.8-1.3s-0.7-0.7-1.2-0.9
				s-1-0.3-1.6-0.3c-0.6,0-1.2,0.1-1.6,0.3c-0.5,0.2-0.9,0.5-1.2,0.9s-0.6,0.8-0.7,1.3C421,416.5,420.9,417,420.9,417.5z"/>
			<path d="M447,415.9c0-0.9-0.3-1.5-0.8-1.9c-0.5-0.4-1.2-0.6-2-0.6c-0.6,0-1.2,0.1-1.8,0.4s-1,0.6-1.4,1l-1.2-1.4
				c0.6-0.5,1.2-0.9,2-1.2c0.8-0.3,1.7-0.5,2.6-0.5c0.8,0,1.5,0.1,2.1,0.4s1.1,0.5,1.5,1s0.7,0.9,0.9,1.4c0.2,0.5,0.3,1.1,0.3,1.8v5
				c0,0.4,0,0.8,0,1.2c0,0.4,0.1,0.8,0.1,1h-2c-0.1-0.5-0.2-1.1-0.2-1.6H447c-0.4,0.6-0.9,1.1-1.6,1.4s-1.4,0.5-2.2,0.5
				c-0.5,0-0.9-0.1-1.4-0.2c-0.5-0.1-0.9-0.3-1.3-0.6s-0.7-0.6-1-1.1c-0.3-0.5-0.4-1-0.4-1.7c0-0.9,0.2-1.5,0.7-2s1.1-0.9,1.8-1.1
				c0.8-0.3,1.6-0.4,2.5-0.5s1.9-0.1,2.9-0.1L447,415.9L447,415.9z M446.4,417.8c-0.6,0-1.1,0-1.7,0.1c-0.6,0-1.1,0.1-1.6,0.3
				s-0.9,0.4-1.2,0.6c-0.3,0.3-0.5,0.7-0.5,1.1c0,0.3,0.1,0.6,0.2,0.8c0.1,0.2,0.3,0.4,0.5,0.5c0.2,0.1,0.5,0.2,0.7,0.3
				s0.5,0.1,0.8,0.1c1.1,0,1.9-0.3,2.4-1s0.9-1.4,0.9-2.4v-0.6L446.4,417.8L446.4,417.8z"/>
			<path d="M464.3,414.7c-0.3-0.4-0.6-0.8-1.1-1c-0.5-0.3-1-0.4-1.6-0.4c-0.3,0-0.5,0-0.8,0.1c-0.3,0.1-0.5,0.1-0.7,0.3
				s-0.4,0.3-0.5,0.5c-0.1,0.2-0.2,0.4-0.2,0.7c0,0.5,0.2,0.8,0.6,1.1s1.1,0.4,1.9,0.6c0.5,0.1,1,0.3,1.5,0.5
				c0.5,0.2,0.9,0.4,1.2,0.7s0.6,0.6,0.8,1s0.3,0.8,0.3,1.3c0,0.7-0.1,1.2-0.4,1.7c-0.3,0.5-0.6,0.8-1,1.1s-0.9,0.5-1.5,0.6
				s-1.1,0.2-1.7,0.2c-0.9,0-1.7-0.2-2.5-0.5s-1.5-0.9-2-1.5l1.6-1.4c0.3,0.5,0.7,0.8,1.3,1.1c0.5,0.3,1.1,0.5,1.8,0.5
				c0.3,0,0.6,0,0.8-0.1c0.3-0.1,0.5-0.1,0.7-0.3s0.4-0.3,0.5-0.5c0.1-0.2,0.2-0.5,0.2-0.8c0-0.5-0.2-0.9-0.8-1.2
				c-0.5-0.2-1.2-0.5-2.2-0.7c-0.4-0.1-0.8-0.2-1.2-0.4s-0.8-0.3-1.1-0.6s-0.6-0.5-0.8-0.9s-0.3-0.8-0.3-1.3c0-0.6,0.1-1.1,0.4-1.6
				s0.6-0.8,1-1.1s0.9-0.5,1.4-0.6c0.5-0.1,1-0.2,1.6-0.2c0.8,0,1.6,0.2,2.4,0.5c0.8,0.3,1.4,0.8,1.8,1.4L464.3,414.7z"/>
			<path d="M470.8,423.2h-2.3v-18.1h2.3V423.2z"/>
			<path d="M477,407.8c0,0.4-0.1,0.8-0.4,1s-0.6,0.4-1.1,0.4s-0.8-0.1-1-0.4c-0.3-0.3-0.4-0.6-0.4-1c0-0.4,0.1-0.8,0.4-1
				c0.3-0.3,0.6-0.4,1-0.4s0.8,0.1,1.1,0.4C476.8,407,477,407.3,477,407.8z M476.6,423.2h-2.3v-11.4h2.3V423.2z"/>
			<path d="M488.2,414.7c-0.2-0.4-0.6-0.7-1.1-0.9c-0.5-0.2-1-0.4-1.5-0.4c-0.6,0-1.1,0.1-1.6,0.3c-0.5,0.2-0.8,0.5-1.2,0.9
				c-0.3,0.4-0.6,0.8-0.7,1.3s-0.2,1-0.2,1.6s0.1,1.1,0.2,1.6s0.4,0.9,0.7,1.3s0.7,0.7,1.2,0.9c0.5,0.2,1,0.3,1.6,0.3
				c0.6,0,1.1-0.1,1.6-0.3c0.5-0.2,0.9-0.5,1.2-0.9l1.5,1.4c-0.5,0.6-1.1,1-1.8,1.3s-1.5,0.5-2.5,0.5c-0.9,0-1.7-0.1-2.4-0.4
				c-0.7-0.3-1.4-0.7-1.9-1.2s-1-1.1-1.3-1.9c-0.3-0.7-0.5-1.6-0.5-2.5c0-0.9,0.1-1.7,0.5-2.5c0.3-0.7,0.7-1.4,1.3-1.9
				c0.5-0.5,1.2-0.9,1.9-1.2c0.7-0.3,1.5-0.4,2.4-0.4c0.8,0,1.6,0.2,2.4,0.5s1.4,0.8,1.9,1.4L488.2,414.7z"/>
			<path d="M494,416.8L494,416.8l4.9-4.9h3l-5.3,5.2l5.8,6.2h-3.1l-5.1-5.9H494v5.9h-2.3v-18.1h2.3L494,416.8L494,416.8z"/>
			<path d="M510.5,411.9l2.6,8.7h0l2.7-8.7h2.4l2.8,8.7h0l2.6-8.7h2.4l-3.8,11.4h-2.3l-2.8-8.5h0l-2.8,8.5h-2.4l-3.8-11.4H510.5z"/>
			<path d="M538.4,417.4c0,0.1,0,0.3,0,0.4s0,0.3,0,0.4h-9c0,0.5,0.1,0.9,0.3,1.4s0.5,0.8,0.8,1.1s0.7,0.5,1.2,0.7s0.9,0.3,1.4,0.3
				c0.8,0,1.4-0.2,2-0.5c0.6-0.3,1-0.7,1.3-1.2l1.6,1.3c-0.6,0.8-1.3,1.4-2.2,1.8c-0.8,0.4-1.7,0.6-2.8,0.6c-0.9,0-1.7-0.1-2.4-0.4
				c-0.7-0.3-1.4-0.7-1.9-1.2s-0.9-1.1-1.2-1.9c-0.3-0.7-0.5-1.5-0.5-2.5c0-0.9,0.2-1.7,0.4-2.4s0.7-1.4,1.2-1.9
				c0.5-0.5,1.2-0.9,1.9-1.2c0.7-0.3,1.5-0.4,2.3-0.4s1.6,0.1,2.3,0.4s1.3,0.7,1.7,1.2c0.5,0.5,0.8,1.1,1.1,1.9
				C538.3,415.7,538.4,416.5,538.4,417.4z M536.1,416.5c0-0.5-0.1-0.9-0.2-1.3c-0.1-0.4-0.3-0.7-0.6-1c-0.3-0.3-0.6-0.5-1-0.7
				c-0.4-0.2-0.8-0.2-1.4-0.2c-0.5,0-0.9,0.1-1.4,0.2s-0.8,0.4-1.1,0.7c-0.3,0.3-0.6,0.6-0.8,1c-0.2,0.4-0.3,0.8-0.3,1.3H536.1z"/>
			<path d="M548.1,415.9c0-0.9-0.3-1.5-0.8-1.9c-0.5-0.4-1.2-0.6-2-0.6c-0.6,0-1.2,0.1-1.8,0.4s-1,0.6-1.4,1l-1.2-1.4
				c0.6-0.5,1.2-0.9,2-1.2c0.8-0.3,1.7-0.5,2.6-0.5c0.8,0,1.5,0.1,2.1,0.4s1.1,0.5,1.5,1s0.7,0.9,0.9,1.4c0.2,0.5,0.3,1.1,0.3,1.8v5
				c0,0.4,0,0.8,0,1.2c0,0.4,0.1,0.8,0.1,1h-2c-0.1-0.5-0.2-1.1-0.2-1.6h-0.1c-0.4,0.6-0.9,1.1-1.6,1.4s-1.4,0.5-2.2,0.5
				c-0.5,0-0.9-0.1-1.4-0.2c-0.5-0.1-0.9-0.3-1.3-0.6s-0.7-0.6-1-1.1c-0.3-0.5-0.4-1-0.4-1.7c0-0.9,0.2-1.5,0.7-2s1.1-0.9,1.8-1.1
				c0.8-0.3,1.6-0.4,2.5-0.5s1.9-0.1,2.9-0.1L548.1,415.9L548.1,415.9z M547.6,417.8c-0.6,0-1.1,0-1.7,0.1c-0.6,0-1.1,0.1-1.6,0.3
				s-0.9,0.4-1.2,0.6s-0.5,0.7-0.5,1.1c0,0.3,0.1,0.6,0.2,0.8c0.1,0.2,0.3,0.4,0.5,0.5c0.2,0.1,0.5,0.2,0.7,0.3s0.5,0.1,0.8,0.1
				c1.1,0,1.9-0.3,2.4-1s0.8-1.4,0.8-2.4v-0.6L547.6,417.8L547.6,417.8z"/>
			<path d="M559,413.7h-3v5.9c0,0.7,0.1,1.2,0.4,1.5s0.7,0.4,1.2,0.4c0.2,0,0.4,0,0.7-0.1c0.2,0,0.5-0.1,0.7-0.2l0.1,1.9
				c-0.3,0.1-0.6,0.2-0.9,0.2s-0.7,0.1-1,0.1c-1.1,0-1.9-0.3-2.5-0.9c-0.6-0.6-0.8-1.5-0.8-2.7v-6.2h-2.2v-1.9h2.2v-3.3h2.2v3.3h3
				L559,413.7L559,413.7z"/>
			<path d="M563.3,413.6c0.3-0.6,0.7-1,1.4-1.4c0.7-0.4,1.4-0.6,2.2-0.6c0.7,0,1.4,0.1,1.9,0.4s1,0.6,1.3,1c0.3,0.4,0.6,0.9,0.8,1.5
				s0.2,1.2,0.2,1.8v7.1h-2.3v-6.3c0-0.5,0-0.9-0.1-1.3c-0.1-0.4-0.2-0.8-0.4-1.1c-0.2-0.3-0.5-0.6-0.8-0.8s-0.8-0.3-1.3-0.3
				c-0.9,0-1.6,0.3-2.2,1s-0.9,1.6-0.9,2.7v6H561v-18.1h2.3L563.3,413.6L563.3,413.6L563.3,413.6z"/>
			<path d="M585.3,417.4c0,0.1,0,0.3,0,0.4s0,0.3,0,0.4h-9c0,0.5,0.1,0.9,0.3,1.4s0.5,0.8,0.8,1.1s0.7,0.5,1.2,0.7s0.9,0.3,1.4,0.3
				c0.8,0,1.4-0.2,2-0.5c0.6-0.3,1-0.7,1.3-1.2l1.6,1.3c-0.6,0.8-1.3,1.4-2.2,1.8c-0.8,0.4-1.7,0.6-2.8,0.6c-0.9,0-1.7-0.1-2.4-0.4
				c-0.7-0.3-1.4-0.7-1.9-1.2s-0.9-1.1-1.2-1.9c-0.3-0.7-0.5-1.5-0.5-2.5c0-0.9,0.2-1.7,0.4-2.4s0.7-1.4,1.2-1.9
				c0.5-0.5,1.2-0.9,1.9-1.2c0.7-0.3,1.5-0.4,2.3-0.4s1.6,0.1,2.3,0.4s1.3,0.7,1.7,1.2c0.5,0.5,0.8,1.1,1.1,1.9
				C585.2,415.7,585.3,416.5,585.3,417.4z M583,416.5c0-0.5-0.1-0.9-0.2-1.3c-0.1-0.4-0.3-0.7-0.6-1c-0.3-0.3-0.6-0.5-1-0.7
				c-0.4-0.2-0.8-0.2-1.4-0.2c-0.5,0-0.9,0.1-1.4,0.2s-0.8,0.4-1.1,0.7c-0.3,0.3-0.6,0.6-0.8,1c-0.2,0.4-0.3,0.8-0.3,1.3H583z"/>
			<path d="M588,413.1c0-0.5,0-0.9-0.1-1.3h2.1c0,0.3,0.1,0.6,0.1,1c0,0.4,0,0.7,0,0.9h0.1c0.3-0.7,0.8-1.2,1.4-1.6s1.3-0.6,2.1-0.6
				c0.3,0,0.7,0,0.9,0.1l-0.1,2.1c-0.3-0.1-0.7-0.1-1-0.1c-0.5,0-1,0.1-1.4,0.3c-0.4,0.2-0.7,0.5-1,0.8c-0.3,0.3-0.5,0.7-0.6,1.2
				s-0.2,0.9-0.2,1.4v6H588v-8.9C588,414,588,413.6,588,413.1z"/>
			<path d="M613.3,419.2l3.9,4H614l-2.1-2.2c-0.6,0.8-1.4,1.4-2.2,1.9c-0.8,0.5-1.8,0.7-3,0.7c-0.7,0-1.4-0.1-2.1-0.3
				s-1.3-0.5-1.8-0.9c-0.5-0.4-0.9-0.9-1.2-1.5s-0.4-1.3-0.4-2.1c0-0.6,0.1-1.2,0.3-1.7s0.5-1,0.9-1.4c0.3-0.4,0.8-0.8,1.2-1.1
				c0.5-0.3,0.9-0.6,1.4-0.8c-0.5-0.6-1-1.2-1.4-1.8s-0.6-1.3-0.6-2.1c0-0.7,0.1-1.3,0.4-1.8c0.2-0.5,0.6-0.9,1-1.3
				c0.4-0.3,0.9-0.6,1.5-0.8c0.5-0.2,1.1-0.2,1.7-0.2s1.2,0.1,1.7,0.2c0.5,0.2,1,0.4,1.4,0.8s0.7,0.8,1,1.2s0.4,1.1,0.4,1.7
				c0,0.6-0.1,1.1-0.3,1.5s-0.5,0.9-0.8,1.2c-0.3,0.4-0.7,0.7-1.2,1c-0.4,0.3-0.9,0.5-1.4,0.8l3.4,3.5l2.1-3.6h2.6L613.3,419.2z
				 M606.3,415.3c-0.8,0.4-1.5,0.8-2,1.3c-0.5,0.5-0.7,1.2-0.7,2.1c0,0.5,0.1,0.9,0.3,1.2c0.2,0.4,0.4,0.7,0.7,0.9
				c0.3,0.3,0.6,0.5,1,0.6c0.4,0.1,0.8,0.2,1.2,0.2c0.8,0,1.5-0.2,2.1-0.5c0.6-0.4,1.1-0.9,1.5-1.6L606.3,415.3z M609.8,409.9
				c0-0.6-0.2-1.1-0.6-1.5s-0.9-0.6-1.6-0.6c-0.7,0-1.2,0.2-1.6,0.6s-0.6,1-0.6,1.6c0,0.3,0,0.5,0.2,0.8c0.1,0.3,0.2,0.5,0.4,0.8
				s0.3,0.5,0.5,0.7c0.2,0.2,0.4,0.4,0.6,0.6c0.3-0.2,0.7-0.3,1-0.5c0.3-0.2,0.6-0.4,0.9-0.7c0.2-0.3,0.5-0.5,0.6-0.8
				S609.8,410.2,609.8,409.9z"/>
			<path d="M625.5,425.2c0.5,0.6,1.1,1,1.9,1.3c0.7,0.3,1.5,0.5,2.3,0.5c0.8,0,1.4-0.1,1.9-0.3c0.5-0.2,0.9-0.5,1.2-0.9
				c0.3-0.4,0.5-0.8,0.7-1.3c0.1-0.5,0.2-1.1,0.2-1.7v-1.5h0c-0.4,0.6-1,1.1-1.7,1.5c-0.7,0.3-1.5,0.5-2.3,0.5
				c-0.9,0-1.7-0.1-2.4-0.5s-1.3-0.7-1.8-1.2s-0.9-1.1-1.2-1.9s-0.4-1.5-0.4-2.3c0-0.8,0.1-1.6,0.4-2.3c0.3-0.7,0.7-1.4,1.2-1.9
				c0.5-0.5,1.1-1,1.8-1.3s1.5-0.5,2.3-0.5c0.8,0,1.6,0.2,2.3,0.5s1.3,0.9,1.8,1.6h0v-1.8h2.2v10.8c0,0.8-0.1,1.6-0.3,2.4
				s-0.6,1.4-1.1,2c-0.5,0.6-1.1,1-1.9,1.4s-1.8,0.5-3,0.5c-1,0-2-0.2-3-0.5s-1.9-0.9-2.6-1.5L625.5,425.2z M626.2,417.4
				c0,0.5,0.1,1,0.2,1.5s0.4,0.9,0.8,1.3s0.7,0.7,1.2,0.9c0.5,0.2,1,0.3,1.6,0.3c0.6,0,1.1-0.1,1.6-0.3s0.9-0.5,1.2-0.9
				c0.3-0.4,0.6-0.8,0.8-1.3s0.3-1,0.3-1.6c0-0.5-0.1-1.1-0.3-1.5c-0.2-0.5-0.5-0.9-0.8-1.3c-0.3-0.4-0.8-0.7-1.2-0.9
				c-0.5-0.2-1-0.3-1.6-0.3c-0.6,0-1.1,0.1-1.6,0.3c-0.5,0.2-0.9,0.5-1.2,0.9s-0.6,0.8-0.8,1.3C626.3,416.4,626.2,416.9,626.2,417.4
				z"/>
			<path d="M639.4,413.1c0-0.5,0-0.9-0.1-1.3h2.1c0,0.3,0.1,0.6,0.1,1c0,0.4,0,0.7,0,0.9h0.1c0.3-0.7,0.8-1.2,1.4-1.6
				s1.3-0.6,2.1-0.6c0.3,0,0.7,0,0.9,0.1l-0.1,2.1c-0.3-0.1-0.7-0.1-1-0.1c-0.5,0-1,0.1-1.4,0.3c-0.4,0.2-0.7,0.5-1,0.8
				c-0.3,0.3-0.5,0.7-0.6,1.2s-0.2,0.9-0.2,1.4v6h-2.3v-8.9C639.5,414,639.4,413.6,639.4,413.1z"/>
			<path d="M650.4,407.8c0,0.4-0.2,0.8-0.4,1s-0.7,0.4-1.1,0.4s-0.8-0.1-1-0.4s-0.4-0.6-0.4-1c0-0.4,0.1-0.8,0.4-1s0.6-0.4,1-0.4
				s0.8,0.1,1.1,0.4C650.3,407,650.4,407.3,650.4,407.8z M650.1,423.2h-2.3v-11.4h2.3V423.2z"/>
			<path d="M657.2,412.2c0.6-0.4,1.4-0.6,2.2-0.6c0.8,0,1.5,0.2,2.1,0.5s1.1,0.9,1.5,1.8c0.4-0.7,0.9-1.3,1.6-1.7s1.4-0.6,2.3-0.6
				c0.7,0,1.4,0.1,1.9,0.4s1,0.6,1.3,1s0.6,0.9,0.8,1.5s0.2,1.2,0.2,1.8v7.1h-2.3v-6.3c0-0.5,0-0.9-0.1-1.3s-0.2-0.8-0.4-1.1
				s-0.5-0.6-0.8-0.8s-0.7-0.3-1.2-0.3c-0.5,0-1,0.1-1.3,0.3c-0.4,0.2-0.7,0.5-0.9,0.8c-0.2,0.3-0.4,0.7-0.5,1.2s-0.2,0.9-0.2,1.3
				v6.1h-2.3v-6.8c0-0.5,0-0.9-0.1-1.2s-0.2-0.7-0.4-1c-0.2-0.3-0.4-0.5-0.7-0.6s-0.7-0.2-1.1-0.2c-0.8,0-1.5,0.3-2.1,1
				c-0.5,0.7-0.8,1.6-0.8,2.7v6h-2.3v-8.9c0-0.3,0-0.7,0-1.2s0-0.9-0.1-1.3h2.1c0,0.3,0.1,0.6,0.1,1c0,0.4,0,0.7,0,0.9h0.1
				C656.1,413.1,656.6,412.6,657.2,412.2z"/>
			<path d="M685.2,417.4c0,0.1,0,0.3,0,0.4s0,0.3,0,0.4h-9c0,0.5,0.1,0.9,0.3,1.4s0.5,0.8,0.8,1.1s0.7,0.5,1.2,0.7s0.9,0.3,1.4,0.3
				c0.8,0,1.4-0.2,2-0.5c0.6-0.3,1-0.7,1.3-1.2l1.6,1.3c-0.6,0.8-1.3,1.4-2.2,1.8c-0.8,0.4-1.7,0.6-2.8,0.6c-0.9,0-1.7-0.1-2.4-0.4
				c-0.7-0.3-1.4-0.7-1.9-1.2s-0.9-1.1-1.2-1.9c-0.3-0.7-0.5-1.5-0.5-2.5c0-0.9,0.2-1.7,0.4-2.4s0.7-1.4,1.2-1.9
				c0.5-0.5,1.2-0.9,1.9-1.2c0.7-0.3,1.5-0.4,2.3-0.4s1.6,0.1,2.3,0.4s1.3,0.7,1.7,1.2c0.5,0.5,0.8,1.1,1.1,1.9
				C685.1,415.7,685.2,416.5,685.2,417.4z M682.9,416.5c0-0.5-0.1-0.9-0.2-1.3c-0.1-0.4-0.3-0.7-0.6-1c-0.3-0.3-0.6-0.5-1-0.7
				c-0.4-0.2-0.8-0.2-1.4-0.2c-0.5,0-0.9,0.1-1.4,0.2s-0.8,0.4-1.1,0.7c-0.3,0.3-0.6,0.6-0.8,1c-0.2,0.4-0.3,0.8-0.3,1.3H682.9z"/>
			<path d="M332.3,451.1c0-0.5,0-0.9-0.1-1.3h2.1c0,0.3,0.1,0.6,0.1,1c0,0.4,0,0.7,0,0.9h0.1c0.3-0.7,0.8-1.2,1.4-1.6
				s1.3-0.6,2.1-0.6c0.4,0,0.6,0,0.9,0.1l-0.1,2.1c-0.3-0.1-0.7-0.1-1-0.1c-0.5,0-1,0.1-1.4,0.3c-0.4,0.2-0.7,0.5-1,0.8
				c-0.3,0.3-0.5,0.7-0.6,1.2s-0.2,0.9-0.2,1.4v6h-2.3v-8.9C332.3,452,332.3,451.6,332.3,451.1z"/>
			<path d="M350.9,455.4c0,0.1,0,0.3,0,0.4s0,0.3,0,0.4h-9c0,0.5,0.1,0.9,0.3,1.4s0.5,0.8,0.8,1.1s0.7,0.5,1.2,0.7s0.9,0.3,1.4,0.3
				c0.8,0,1.4-0.2,2-0.5c0.6-0.3,1-0.7,1.3-1.2l1.6,1.3c-0.6,0.8-1.3,1.4-2.1,1.8c-0.8,0.4-1.7,0.6-2.8,0.6c-0.9,0-1.7-0.1-2.4-0.4
				c-0.7-0.3-1.4-0.7-1.9-1.2s-0.9-1.1-1.2-1.9c-0.3-0.7-0.5-1.5-0.5-2.5c0-0.9,0.1-1.7,0.4-2.4s0.7-1.4,1.2-1.9s1.1-0.9,1.9-1.2
				c0.7-0.3,1.5-0.4,2.3-0.4s1.6,0.1,2.3,0.4s1.3,0.7,1.7,1.2c0.5,0.5,0.8,1.1,1.1,1.9C350.7,453.7,350.9,454.5,350.9,455.4z
				 M348.5,454.5c0-0.5-0.1-0.9-0.2-1.3s-0.3-0.7-0.6-1c-0.3-0.3-0.6-0.5-1-0.7c-0.4-0.2-0.9-0.2-1.4-0.2c-0.5,0-0.9,0.1-1.4,0.2
				s-0.8,0.4-1.1,0.7c-0.3,0.3-0.6,0.6-0.8,1c-0.2,0.4-0.3,0.8-0.4,1.3H348.5z"/>
			<path d="M355.9,467h-2.3v-17.1h2.2v1.8h0.1c0.4-0.6,0.9-1.1,1.6-1.5s1.5-0.6,2.5-0.6c0.9,0,1.6,0.1,2.3,0.5
				c0.7,0.3,1.3,0.7,1.8,1.3c0.5,0.5,0.9,1.2,1.2,1.9s0.4,1.5,0.4,2.3s-0.1,1.6-0.4,2.4s-0.6,1.4-1.1,1.9s-1.1,1-1.8,1.3
				s-1.5,0.5-2.4,0.5c-0.8,0-1.6-0.2-2.3-0.5s-1.3-0.9-1.7-1.5h-0.1L355.9,467L355.9,467z M363.4,455.5c0-0.5-0.1-1-0.2-1.5
				s-0.4-0.9-0.7-1.3s-0.7-0.7-1.2-0.9s-1-0.3-1.6-0.3c-0.6,0-1.1,0.1-1.6,0.3c-0.5,0.2-0.9,0.5-1.2,0.9c-0.3,0.4-0.6,0.8-0.8,1.3
				s-0.3,1-0.3,1.6s0.1,1.1,0.3,1.6c0.2,0.5,0.4,0.9,0.8,1.3s0.7,0.7,1.2,0.9s1,0.3,1.6,0.3c0.6,0,1.2-0.1,1.6-0.4s0.9-0.5,1.2-0.9
				s0.6-0.8,0.7-1.3C363.3,456.6,363.4,456,363.4,455.5z"/>
			<path d="M379.1,455.4c0,0.1,0,0.3,0,0.4s0,0.3,0,0.4h-9c0,0.5,0.1,0.9,0.3,1.4s0.5,0.8,0.8,1.1s0.7,0.5,1.2,0.7s0.9,0.3,1.4,0.3
				c0.8,0,1.4-0.2,2-0.5c0.6-0.3,1-0.7,1.3-1.2l1.6,1.3c-0.6,0.8-1.3,1.4-2.1,1.8c-0.8,0.4-1.7,0.6-2.8,0.6c-0.9,0-1.7-0.1-2.4-0.4
				c-0.7-0.3-1.4-0.7-1.9-1.2s-0.9-1.1-1.2-1.9c-0.3-0.7-0.5-1.5-0.5-2.5c0-0.9,0.1-1.7,0.4-2.4s0.7-1.4,1.2-1.9s1.1-0.9,1.9-1.2
				c0.7-0.3,1.5-0.4,2.3-0.4s1.6,0.1,2.3,0.4s1.3,0.7,1.7,1.2c0.5,0.5,0.8,1.1,1.1,1.9C379,453.7,379.1,454.5,379.1,455.4z
				 M376.8,454.5c0-0.5-0.1-0.9-0.2-1.3s-0.3-0.7-0.6-1c-0.3-0.3-0.6-0.5-1-0.7c-0.4-0.2-0.9-0.2-1.4-0.2c-0.5,0-0.9,0.1-1.4,0.2
				s-0.8,0.4-1.1,0.7c-0.3,0.3-0.6,0.6-0.8,1c-0.2,0.4-0.3,0.8-0.4,1.3H376.8z"/>
			<path d="M384.2,461.2h-2.3v-18.1h2.3V461.2z"/>
			<path d="M390,461.2h-2.3v-18.1h2.3V461.2z"/>
			<path d="M404.3,455.4c0,0.1,0,0.3,0,0.4s0,0.3,0,0.4h-9c0,0.5,0.1,0.9,0.3,1.4s0.5,0.8,0.8,1.1s0.7,0.5,1.2,0.7s0.9,0.3,1.4,0.3
				c0.8,0,1.4-0.2,2-0.5c0.6-0.3,1-0.7,1.3-1.2l1.6,1.3c-0.6,0.8-1.3,1.4-2.1,1.8c-0.8,0.4-1.7,0.6-2.8,0.6c-0.9,0-1.7-0.1-2.4-0.4
				c-0.7-0.3-1.4-0.7-1.9-1.2s-0.9-1.1-1.2-1.9c-0.3-0.7-0.5-1.5-0.5-2.5c0-0.9,0.1-1.7,0.4-2.4s0.7-1.4,1.2-1.9s1.1-0.9,1.9-1.2
				c0.7-0.3,1.5-0.4,2.3-0.4s1.6,0.1,2.3,0.4s1.3,0.7,1.7,1.2c0.5,0.5,0.8,1.1,1.1,1.9C404.1,453.7,404.3,454.5,404.3,455.4z
				 M402,454.5c0-0.5-0.1-0.9-0.2-1.3s-0.3-0.7-0.6-1c-0.3-0.3-0.6-0.5-1-0.7c-0.4-0.2-0.9-0.2-1.4-0.2c-0.5,0-0.9,0.1-1.4,0.2
				s-0.8,0.4-1.1,0.7c-0.3,0.3-0.6,0.6-0.8,1c-0.2,0.4-0.3,0.8-0.4,1.3H402z"/>
			<path d="M409.1,449.9c0,0.3,0.1,0.6,0.1,1c0,0.4,0,0.7,0,0.9h0.1c0.1-0.3,0.3-0.6,0.6-0.9s0.5-0.5,0.9-0.7s0.7-0.4,1.1-0.5
				c0.4-0.1,0.8-0.2,1.2-0.2c0.7,0,1.4,0.1,1.9,0.4s1,0.6,1.3,1s0.6,0.9,0.8,1.5s0.2,1.2,0.2,1.8v7.1h-2.3v-6.3c0-0.5,0-0.9-0.1-1.3
				c-0.1-0.4-0.2-0.8-0.4-1.1s-0.5-0.6-0.8-0.8c-0.3-0.2-0.8-0.3-1.3-0.3c-0.9,0-1.6,0.3-2.2,1s-0.9,1.6-0.9,2.7v6H407v-8.9
				c0-0.3,0-0.7,0-1.2s0-0.9-0.1-1.3L409.1,449.9L409.1,449.9z"/>
			<path d="M426.2,451.7h-3v5.9c0,0.7,0.1,1.2,0.4,1.5s0.7,0.4,1.2,0.4c0.2,0,0.4,0,0.7-0.1c0.2,0,0.5-0.1,0.6-0.2l0.1,1.9
				c-0.3,0.1-0.6,0.2-0.9,0.2s-0.7,0.1-1,0.1c-1.1,0-1.9-0.3-2.5-0.9c-0.6-0.6-0.9-1.5-0.9-2.7v-6.2h-2.2v-1.9h2.2v-3.3h2.2v3.3h3
				L426.2,451.7L426.2,451.7z"/>
			<path d="M439.9,452.7c-0.3-0.4-0.6-0.8-1.1-1c-0.5-0.3-1-0.4-1.6-0.4c-0.3,0-0.5,0-0.8,0.1c-0.3,0.1-0.5,0.1-0.7,0.3
				s-0.4,0.3-0.5,0.5c-0.1,0.2-0.2,0.4-0.2,0.7c0,0.5,0.2,0.8,0.6,1.1s1.1,0.4,1.9,0.6c0.5,0.1,1,0.3,1.5,0.5
				c0.5,0.2,0.9,0.4,1.2,0.7s0.6,0.6,0.8,1s0.3,0.8,0.3,1.3c0,0.7-0.1,1.2-0.4,1.7c-0.3,0.5-0.6,0.8-1,1.1s-0.9,0.5-1.5,0.6
				s-1.1,0.2-1.7,0.2c-0.9,0-1.7-0.2-2.5-0.5s-1.5-0.9-2-1.5l1.6-1.4c0.3,0.5,0.7,0.8,1.3,1.1c0.5,0.3,1.1,0.5,1.8,0.5
				c0.3,0,0.6,0,0.8-0.1c0.3-0.1,0.5-0.1,0.7-0.3s0.4-0.3,0.5-0.5c0.1-0.2,0.2-0.5,0.2-0.8c0-0.5-0.2-0.9-0.8-1.2
				c-0.5-0.2-1.2-0.5-2.2-0.7c-0.4-0.1-0.8-0.2-1.2-0.4s-0.8-0.3-1.1-0.6s-0.6-0.5-0.8-0.9s-0.3-0.8-0.3-1.3c0-0.6,0.1-1.1,0.4-1.6
				s0.6-0.8,1-1.1s0.9-0.5,1.4-0.6c0.5-0.1,1-0.2,1.6-0.2c0.8,0,1.6,0.2,2.4,0.5c0.8,0.3,1.4,0.8,1.8,1.4L439.9,452.7z"/>
			<path d="M446.5,451.6c0.3-0.6,0.7-1,1.4-1.4c0.7-0.4,1.4-0.6,2.2-0.6c0.7,0,1.4,0.1,1.9,0.4s1,0.6,1.3,1s0.6,0.9,0.8,1.5
				s0.2,1.2,0.2,1.8v7.1H452v-6.3c0-0.5,0-0.9-0.1-1.3c-0.1-0.4-0.2-0.8-0.4-1.1c-0.2-0.3-0.5-0.6-0.8-0.8s-0.8-0.3-1.3-0.3
				c-0.9,0-1.6,0.3-2.2,1s-0.9,1.6-0.9,2.7v6h-2.3v-18.1h2.3L446.5,451.6L446.5,451.6L446.5,451.6z"/>
			<path d="M460.4,445.8c0,0.4-0.1,0.8-0.4,1s-0.6,0.4-1.1,0.4s-0.8-0.1-1-0.4c-0.3-0.3-0.4-0.6-0.4-1c0-0.4,0.1-0.8,0.4-1
				c0.3-0.3,0.6-0.4,1-0.4s0.8,0.1,1.1,0.4C460.2,445,460.4,445.3,460.4,445.8z M460,461.2h-2.3v-11.4h2.3V461.2z"/>
			<path d="M465.6,449.9c0,0.3,0.1,0.6,0.1,1c0,0.4,0,0.7,0,0.9h0.1c0.1-0.3,0.3-0.6,0.6-0.9s0.5-0.5,0.9-0.7s0.7-0.4,1.1-0.5
				c0.4-0.1,0.8-0.2,1.2-0.2c0.7,0,1.4,0.1,1.9,0.4s1,0.6,1.3,1s0.6,0.9,0.8,1.5s0.2,1.2,0.2,1.8v7.1h-2.3v-6.3c0-0.5,0-0.9-0.1-1.3
				c-0.1-0.4-0.2-0.8-0.4-1.1s-0.5-0.6-0.8-0.8c-0.3-0.2-0.8-0.3-1.3-0.3c-0.9,0-1.6,0.3-2.2,1s-0.9,1.6-0.9,2.7v6h-2.3v-8.9
				c0-0.3,0-0.7,0-1.2s0-0.9-0.1-1.3L465.6,449.9L465.6,449.9z"/>
			<path d="M487.9,455.4c0,0.1,0,0.3,0,0.4s0,0.3,0,0.4h-9c0,0.5,0.1,0.9,0.3,1.4s0.5,0.8,0.8,1.1s0.7,0.5,1.2,0.7s0.9,0.3,1.4,0.3
				c0.8,0,1.4-0.2,2-0.5c0.6-0.3,1-0.7,1.3-1.2l1.6,1.3c-0.6,0.8-1.3,1.4-2.1,1.8c-0.8,0.4-1.7,0.6-2.8,0.6c-0.9,0-1.7-0.1-2.4-0.4
				c-0.7-0.3-1.4-0.7-1.9-1.2s-0.9-1.1-1.2-1.9c-0.3-0.7-0.5-1.5-0.5-2.5c0-0.9,0.1-1.7,0.4-2.4s0.7-1.4,1.2-1.9s1.1-0.9,1.9-1.2
				c0.7-0.3,1.5-0.4,2.3-0.4s1.6,0.1,2.3,0.4s1.3,0.7,1.7,1.2c0.5,0.5,0.8,1.1,1.1,1.9C487.7,453.7,487.9,454.5,487.9,455.4z
				 M485.5,454.5c0-0.5-0.1-0.9-0.2-1.3s-0.3-0.7-0.6-1c-0.3-0.3-0.6-0.5-1-0.7c-0.4-0.2-0.9-0.2-1.4-0.2c-0.5,0-0.9,0.1-1.4,0.2
				s-0.8,0.4-1.1,0.7c-0.3,0.3-0.6,0.6-0.8,1c-0.2,0.4-0.3,0.8-0.4,1.3H485.5z"/>
			<path d="M497.1,449.9l2.6,8.7h0l2.7-8.7h2.4l2.8,8.7h0l2.6-8.7h2.4l-3.8,11.4h-2.4l-2.8-8.5h0l-2.8,8.5h-2.4l-3.8-11.4H497.1z"/>
			<path d="M517.1,445.8c0,0.4-0.2,0.8-0.4,1s-0.7,0.4-1.1,0.4s-0.8-0.1-1-0.4s-0.4-0.6-0.4-1c0-0.4,0.1-0.8,0.4-1s0.6-0.4,1-0.4
				s0.8,0.1,1.1,0.4C516.9,445,517.1,445.3,517.1,445.8z M516.7,461.2h-2.3v-11.4h2.3V461.2z"/>
			<path d="M525.9,451.7h-3v5.9c0,0.7,0.1,1.2,0.4,1.5s0.7,0.4,1.2,0.4c0.2,0,0.4,0,0.7-0.1c0.2,0,0.5-0.1,0.7-0.2l0.1,1.9
				c-0.3,0.1-0.6,0.2-0.9,0.2s-0.7,0.1-1,0.1c-1.1,0-1.9-0.3-2.5-0.9c-0.6-0.6-0.8-1.5-0.8-2.7v-6.2h-2.2v-1.9h2.2v-3.3h2.2v3.3h3
				L525.9,451.7L525.9,451.7z"/>
			<path d="M530.2,451.6c0.3-0.6,0.7-1,1.4-1.4c0.7-0.4,1.4-0.6,2.2-0.6c0.7,0,1.4,0.1,1.9,0.4s1,0.6,1.3,1c0.3,0.4,0.6,0.9,0.8,1.5
				s0.2,1.2,0.2,1.8v7.1h-2.3v-6.3c0-0.5,0-0.9-0.1-1.3c-0.1-0.4-0.2-0.8-0.4-1.1c-0.2-0.3-0.5-0.6-0.8-0.8s-0.8-0.3-1.3-0.3
				c-0.9,0-1.6,0.3-2.2,1s-0.9,1.6-0.9,2.7v6h-2.3v-18.1h2.3L530.2,451.6L530.2,451.6L530.2,451.6z"/>
			<path d="M557.8,455.4c0,0.1,0,0.3,0,0.4s0,0.3,0,0.4h-9c0,0.5,0.1,0.9,0.3,1.4s0.5,0.8,0.8,1.1s0.7,0.5,1.2,0.7s0.9,0.3,1.4,0.3
				c0.8,0,1.4-0.2,2-0.5c0.6-0.3,1-0.7,1.3-1.2l1.6,1.3c-0.6,0.8-1.3,1.4-2.2,1.8c-0.8,0.4-1.7,0.6-2.8,0.6c-0.9,0-1.7-0.1-2.4-0.4
				c-0.7-0.3-1.4-0.7-1.9-1.2s-0.9-1.1-1.2-1.9c-0.3-0.7-0.5-1.5-0.5-2.5c0-0.9,0.2-1.7,0.4-2.4s0.7-1.4,1.2-1.9
				c0.5-0.5,1.2-0.9,1.9-1.2c0.7-0.3,1.5-0.4,2.3-0.4s1.6,0.1,2.3,0.4s1.3,0.7,1.7,1.2c0.5,0.5,0.8,1.1,1.1,1.9
				C557.6,453.7,557.8,454.5,557.8,455.4z M555.5,454.5c0-0.5-0.1-0.9-0.2-1.3c-0.1-0.4-0.3-0.7-0.6-1c-0.3-0.3-0.6-0.5-1-0.7
				c-0.4-0.2-0.8-0.2-1.4-0.2c-0.5,0-0.9,0.1-1.4,0.2s-0.8,0.4-1.1,0.7c-0.3,0.3-0.6,0.6-0.8,1c-0.2,0.4-0.3,0.8-0.3,1.3H555.5z"/>
			<path d="M565.9,461.2h-2.5l-4.6-11.4h2.5l3.3,9h0l3.4-9h2.4L565.9,461.2z"/>
			<path d="M582.9,455.4c0,0.1,0,0.3,0,0.4s0,0.3,0,0.4h-9c0,0.5,0.1,0.9,0.3,1.4s0.5,0.8,0.8,1.1s0.7,0.5,1.2,0.7s0.9,0.3,1.4,0.3
				c0.8,0,1.4-0.2,2-0.5c0.6-0.3,1-0.7,1.3-1.2l1.6,1.3c-0.6,0.8-1.3,1.4-2.2,1.8c-0.8,0.4-1.7,0.6-2.8,0.6c-0.9,0-1.7-0.1-2.4-0.4
				c-0.7-0.3-1.4-0.7-1.9-1.2s-0.9-1.1-1.2-1.9c-0.3-0.7-0.5-1.5-0.5-2.5c0-0.9,0.2-1.7,0.4-2.4s0.7-1.4,1.2-1.9
				c0.5-0.5,1.2-0.9,1.9-1.2c0.7-0.3,1.5-0.4,2.3-0.4s1.6,0.1,2.3,0.4s1.3,0.7,1.7,1.2c0.5,0.5,0.8,1.1,1.1,1.9
				C582.8,453.7,582.9,454.5,582.9,455.4z M580.6,454.5c0-0.5-0.1-0.9-0.2-1.3c-0.1-0.4-0.3-0.7-0.6-1c-0.3-0.3-0.6-0.5-1-0.7
				c-0.4-0.2-0.8-0.2-1.4-0.2c-0.5,0-0.9,0.1-1.4,0.2s-0.8,0.4-1.1,0.7c-0.3,0.3-0.6,0.6-0.8,1c-0.2,0.4-0.3,0.8-0.3,1.3H580.6z"/>
			<path d="M585.6,451.1c0-0.5,0-0.9-0.1-1.3h2.1c0,0.3,0.1,0.6,0.1,1c0,0.4,0,0.7,0,0.9h0.1c0.3-0.7,0.8-1.2,1.4-1.6
				s1.3-0.6,2.1-0.6c0.3,0,0.7,0,0.9,0.1l-0.1,2.1c-0.3-0.1-0.7-0.1-1-0.1c-0.5,0-1,0.1-1.4,0.3c-0.4,0.2-0.7,0.5-1,0.8
				c-0.3,0.3-0.5,0.7-0.6,1.2s-0.2,0.9-0.2,1.4v6h-2.3v-8.9C585.6,452,585.6,451.6,585.6,451.1z"/>
			<path d="M598.3,458.8L598.3,458.8l3.2-8.9h2.4l-5.5,14.1c-0.2,0.5-0.4,0.9-0.6,1.3c-0.2,0.4-0.5,0.7-0.8,1s-0.7,0.5-1.1,0.6
				c-0.4,0.1-0.9,0.2-1.5,0.2c-0.2,0-0.5,0-0.7,0s-0.5-0.1-0.8-0.1l0.2-2c0.4,0.1,0.8,0.2,1.1,0.2c0.6,0,1-0.2,1.3-0.5
				s0.5-0.8,0.8-1.4l0.7-1.9l-4.9-11.4h2.5L598.3,458.8z"/>
			<path d="M619.4,461.2c0-0.3-0.1-0.6-0.1-1c0-0.4,0-0.7,0-0.9h0c-0.3,0.6-0.8,1.1-1.5,1.5c-0.7,0.4-1.4,0.6-2.3,0.6
				c-0.7,0-1.4-0.1-1.9-0.4s-1-0.6-1.3-1c-0.3-0.4-0.6-0.9-0.8-1.5s-0.2-1.2-0.2-1.8v-7.1h2.3v6.3c0,0.5,0,0.9,0.1,1.3
				s0.2,0.8,0.4,1.1c0.2,0.3,0.5,0.6,0.8,0.8c0.3,0.2,0.8,0.3,1.3,0.3c0.9,0,1.7-0.3,2.2-1s0.8-1.6,0.8-2.7v-6h2.3v8.9
				c0,0.3,0,0.7,0,1.2c0,0.5,0,0.9,0.1,1.3L619.4,461.2L619.4,461.2z"/>
			<path d="M631.1,452.7c-0.3-0.4-0.6-0.8-1.1-1c-0.5-0.3-1-0.4-1.6-0.4c-0.3,0-0.5,0-0.8,0.1c-0.3,0.1-0.5,0.1-0.7,0.3
				s-0.4,0.3-0.5,0.5c-0.1,0.2-0.2,0.4-0.2,0.7c0,0.5,0.2,0.8,0.7,1.1c0.4,0.2,1.1,0.4,1.9,0.6c0.5,0.1,1,0.3,1.5,0.5
				s0.9,0.4,1.2,0.7s0.6,0.6,0.8,1s0.3,0.8,0.3,1.3c0,0.7-0.1,1.2-0.4,1.7c-0.3,0.5-0.6,0.8-1,1.1s-0.9,0.5-1.5,0.6
				c-0.5,0.1-1.1,0.2-1.7,0.2c-0.9,0-1.7-0.2-2.5-0.5s-1.5-0.9-2-1.5l1.6-1.4c0.3,0.5,0.7,0.8,1.3,1.1c0.5,0.3,1.1,0.5,1.8,0.5
				c0.3,0,0.6,0,0.8-0.1c0.3-0.1,0.5-0.1,0.7-0.3s0.4-0.3,0.5-0.5s0.2-0.5,0.2-0.8c0-0.5-0.2-0.9-0.8-1.2c-0.5-0.2-1.2-0.5-2.2-0.7
				c-0.4-0.1-0.8-0.2-1.2-0.4c-0.4-0.1-0.8-0.3-1.1-0.6s-0.6-0.5-0.8-0.9s-0.3-0.8-0.3-1.3c0-0.6,0.1-1.1,0.4-1.6s0.6-0.8,1-1.1
				c0.4-0.3,0.9-0.5,1.4-0.6c0.5-0.1,1-0.2,1.6-0.2c0.8,0,1.6,0.2,2.4,0.5s1.3,0.8,1.8,1.4L631.1,452.7z"/>
			<path d="M645.9,455.4c0,0.1,0,0.3,0,0.4s0,0.3,0,0.4h-9c0,0.5,0.1,0.9,0.3,1.4s0.5,0.8,0.8,1.1s0.7,0.5,1.2,0.7s0.9,0.3,1.4,0.3
				c0.8,0,1.4-0.2,2-0.5c0.6-0.3,1-0.7,1.3-1.2l1.6,1.3c-0.6,0.8-1.3,1.4-2.2,1.8c-0.8,0.4-1.7,0.6-2.8,0.6c-0.9,0-1.7-0.1-2.4-0.4
				c-0.7-0.3-1.4-0.7-1.9-1.2s-0.9-1.1-1.2-1.9c-0.3-0.7-0.5-1.5-0.5-2.5c0-0.9,0.2-1.7,0.4-2.4s0.7-1.4,1.2-1.9
				c0.5-0.5,1.2-0.9,1.9-1.2c0.7-0.3,1.5-0.4,2.3-0.4s1.6,0.1,2.3,0.4s1.3,0.7,1.7,1.2c0.5,0.5,0.8,1.1,1.1,1.9
				C645.8,453.7,645.9,454.5,645.9,455.4z M643.6,454.5c0-0.5-0.1-0.9-0.2-1.3c-0.1-0.4-0.3-0.7-0.6-1c-0.3-0.3-0.6-0.5-1-0.7
				c-0.4-0.2-0.8-0.2-1.4-0.2c-0.5,0-0.9,0.1-1.4,0.2s-0.8,0.4-1.1,0.7c-0.3,0.3-0.6,0.6-0.8,1c-0.2,0.4-0.3,0.8-0.3,1.3H643.6z"/>
			<path d="M651.4,459.8c0,0.4-0.2,0.8-0.5,1.1c-0.3,0.3-0.7,0.5-1.2,0.5c-0.5,0-0.8-0.2-1.1-0.5s-0.5-0.7-0.5-1.1
				c0-0.4,0.2-0.8,0.5-1.1c0.3-0.3,0.7-0.5,1.2-0.5s0.8,0.1,1.2,0.5C651.3,459,651.4,459.4,651.4,459.8z"/>
			<path d="M323.5,502.2h2v6h-2V502.2z M327.4,502.2h2v6h-2V502.2z"/>
			<path d="M341.7,505.4c-0.3-0.5-0.8-0.8-1.4-1.1c-0.6-0.3-1.2-0.4-1.9-0.4c-0.4,0-0.8,0-1.2,0.2c-0.4,0.1-0.8,0.3-1.1,0.5
				s-0.6,0.5-0.8,0.9s-0.3,0.8-0.3,1.2c0,0.5,0.1,0.9,0.3,1.2c0.2,0.3,0.4,0.6,0.7,0.8c0.3,0.2,0.7,0.4,1.1,0.5s0.9,0.3,1.4,0.5
				c0.6,0.2,1.2,0.4,1.8,0.6s1.1,0.5,1.6,0.9c0.5,0.4,0.9,0.8,1.2,1.4c0.3,0.5,0.5,1.2,0.5,2.1c0,0.9-0.2,1.6-0.5,2.3
				c-0.3,0.7-0.8,1.2-1.3,1.6s-1.2,0.7-1.9,1s-1.4,0.3-2.2,0.3c-1.1,0-2.1-0.2-3.1-0.6c-1-0.4-1.8-1-2.5-1.8l1.9-1.6
				c0.4,0.6,0.9,1.1,1.6,1.4c0.7,0.4,1.4,0.5,2.2,0.5c0.4,0,0.8-0.1,1.2-0.2c0.4-0.1,0.8-0.3,1.1-0.5c0.3-0.2,0.6-0.5,0.8-0.9
				c0.2-0.4,0.3-0.8,0.3-1.3c0-0.5-0.1-0.9-0.3-1.3c-0.2-0.3-0.5-0.6-0.9-0.9s-0.8-0.5-1.3-0.6c-0.5-0.2-1-0.3-1.5-0.5
				c-0.5-0.2-1.1-0.4-1.6-0.6s-1-0.5-1.4-0.9s-0.8-0.8-1-1.3s-0.4-1.2-0.4-2c0-0.9,0.2-1.6,0.5-2.2c0.3-0.6,0.8-1.1,1.3-1.5
				c0.5-0.4,1.2-0.7,1.9-0.9c0.7-0.2,1.4-0.3,2.1-0.3c1,0,1.9,0.2,2.8,0.5s1.6,0.8,2.1,1.4L341.7,505.4z"/>
			<path d="M357.9,513.5c0,0.9-0.2,1.7-0.5,2.4c-0.3,0.7-0.7,1.4-1.3,1.9c-0.5,0.5-1.2,1-2,1.2c-0.8,0.3-1.6,0.4-2.4,0.4
				c-0.9,0-1.7-0.2-2.4-0.4s-1.4-0.7-1.9-1.2s-1-1.2-1.3-1.9s-0.5-1.5-0.5-2.4s0.2-1.7,0.5-2.4s0.7-1.4,1.3-1.9
				c0.5-0.5,1.2-0.9,1.9-1.2s1.6-0.4,2.4-0.4c0.9,0,1.7,0.1,2.4,0.4c0.8,0.3,1.4,0.7,2,1.2c0.5,0.5,1,1.2,1.3,1.9
				C357.8,511.8,357.9,512.6,357.9,513.5z M355.6,513.5c0-0.5-0.1-1.1-0.2-1.5s-0.4-0.9-0.7-1.3s-0.7-0.7-1.2-0.9
				c-0.5-0.2-1-0.3-1.6-0.3c-0.6,0-1.1,0.1-1.6,0.3c-0.5,0.2-0.9,0.5-1.2,0.9s-0.6,0.8-0.7,1.3c-0.2,0.5-0.2,1-0.2,1.5
				s0.1,1.1,0.2,1.6c0.2,0.5,0.4,0.9,0.7,1.3c0.3,0.4,0.7,0.7,1.2,0.9s1,0.3,1.6,0.3c0.6,0,1.1-0.1,1.6-0.3c0.5-0.2,0.9-0.5,1.2-0.9
				s0.6-0.8,0.7-1.3C355.5,514.6,355.6,514.1,355.6,513.5z"/>
			<path d="M374.3,510.7c-0.2-0.4-0.6-0.7-1.1-0.9c-0.5-0.2-1-0.4-1.5-0.4c-0.6,0-1.1,0.1-1.6,0.3c-0.5,0.2-0.8,0.5-1.2,0.9
				c-0.3,0.4-0.6,0.8-0.7,1.3s-0.2,1-0.2,1.6s0.1,1.1,0.2,1.6s0.4,0.9,0.7,1.3s0.7,0.7,1.2,0.9c0.5,0.2,1,0.3,1.6,0.3
				c0.6,0,1.1-0.1,1.6-0.3c0.5-0.2,0.9-0.5,1.2-0.9l1.5,1.4c-0.5,0.6-1.1,1-1.8,1.3s-1.5,0.5-2.5,0.5c-0.9,0-1.7-0.1-2.4-0.4
				c-0.7-0.3-1.4-0.7-1.9-1.2s-1-1.2-1.3-1.9c-0.3-0.7-0.5-1.6-0.5-2.5c0-0.9,0.1-1.7,0.5-2.5c0.3-0.7,0.7-1.4,1.3-1.9
				c0.5-0.5,1.2-0.9,1.9-1.2c0.7-0.3,1.5-0.4,2.4-0.4c0.8,0,1.6,0.2,2.4,0.5s1.4,0.8,1.9,1.4L374.3,510.7z"/>
			<path d="M380.1,519.2h-2.3v-18.1h2.3V519.2z"/>
			<path d="M394.3,513.4c0,0.1,0,0.3,0,0.4s0,0.3,0,0.4h-9c0,0.5,0.1,0.9,0.3,1.3s0.5,0.8,0.8,1.1s0.7,0.5,1.2,0.7s0.9,0.3,1.4,0.3
				c0.8,0,1.4-0.2,2-0.5c0.6-0.3,1-0.7,1.3-1.2l1.6,1.3c-0.6,0.8-1.3,1.4-2.1,1.8c-0.8,0.4-1.7,0.6-2.8,0.6c-0.9,0-1.7-0.1-2.4-0.4
				s-1.4-0.7-1.9-1.2s-0.9-1.2-1.2-1.9c-0.3-0.7-0.5-1.5-0.5-2.5c0-0.9,0.1-1.7,0.4-2.4s0.7-1.4,1.2-1.9s1.1-0.9,1.9-1.2
				c0.7-0.3,1.5-0.4,2.3-0.4s1.6,0.1,2.3,0.4s1.3,0.7,1.7,1.2c0.5,0.5,0.8,1.1,1.1,1.9C394.2,511.7,394.3,512.5,394.3,513.4z
				 M392,512.5c0-0.5-0.1-0.9-0.2-1.3s-0.3-0.7-0.6-1c-0.3-0.3-0.6-0.5-1-0.7c-0.4-0.2-0.9-0.2-1.4-0.2c-0.5,0-0.9,0.1-1.4,0.2
				s-0.8,0.4-1.1,0.7c-0.3,0.3-0.6,0.6-0.8,1c-0.2,0.4-0.3,0.8-0.4,1.3H392z"/>
			<path d="M404,511.9c0-0.9-0.3-1.5-0.8-1.9c-0.5-0.4-1.2-0.6-2-0.6c-0.6,0-1.2,0.1-1.8,0.4s-1,0.6-1.4,1l-1.2-1.4
				c0.6-0.5,1.2-0.9,2-1.2c0.8-0.3,1.7-0.5,2.6-0.5c0.8,0,1.5,0.1,2.1,0.4s1.1,0.5,1.5,1s0.7,0.9,0.9,1.4c0.2,0.5,0.3,1.1,0.3,1.7v5
				c0,0.4,0,0.8,0,1.2c0,0.4,0.1,0.8,0.1,1h-2c-0.1-0.5-0.2-1.1-0.2-1.6h-0.1c-0.4,0.6-0.9,1.1-1.6,1.4s-1.4,0.5-2.2,0.5
				c-0.5,0-0.9-0.1-1.4-0.2c-0.5-0.1-0.9-0.3-1.3-0.6s-0.7-0.6-1-1.1c-0.3-0.5-0.4-1-0.4-1.7c0-0.9,0.2-1.5,0.7-2s1.1-0.9,1.8-1.2
				s1.6-0.4,2.5-0.5s1.9-0.1,2.9-0.1L404,511.9L404,511.9z M403.5,513.8c-0.6,0-1.1,0-1.7,0.1c-0.6,0-1.1,0.1-1.6,0.3
				s-0.9,0.4-1.2,0.7c-0.3,0.3-0.5,0.7-0.5,1.2c0,0.3,0.1,0.6,0.2,0.8c0.1,0.2,0.3,0.4,0.5,0.5s0.5,0.2,0.7,0.3s0.5,0.1,0.8,0.1
				c1.1,0,1.9-0.3,2.4-1s0.9-1.4,0.9-2.4v-0.6L403.5,513.8L403.5,513.8z"/>
			<path d="M409.6,509.1c0-0.5,0-0.9-0.1-1.3h2.1c0,0.3,0.1,0.6,0.1,1c0,0.4,0,0.7,0,0.9h0.1c0.3-0.7,0.8-1.2,1.4-1.6
				s1.3-0.6,2.1-0.6c0.4,0,0.6,0,0.9,0.1l-0.1,2.1c-0.3-0.1-0.7-0.1-1-0.1c-0.5,0-1,0.1-1.4,0.3c-0.4,0.2-0.7,0.5-1,0.8
				c-0.3,0.3-0.5,0.7-0.6,1.2c-0.1,0.4-0.2,0.9-0.2,1.4v6h-2.3v-8.9C409.6,510,409.6,509.6,409.6,509.1z"/>
			<path d="M417.6,522.4h-1.9l1.7-6h2.3L417.6,522.4z"/>
			<path d="M430.2,503.8c0,0.4-0.1,0.8-0.4,1s-0.6,0.4-1.1,0.4s-0.8-0.1-1-0.4c-0.3-0.3-0.4-0.6-0.4-1c0-0.4,0.1-0.8,0.4-1
				c0.3-0.3,0.6-0.4,1-0.4s0.8,0.1,1.1,0.4C430.1,503,430.2,503.3,430.2,503.8z M429.9,519.2h-2.3v-11.4h2.3V519.2z"/>
			<path d="M439,509.7h-3v5.9c0,0.7,0.1,1.2,0.4,1.5s0.7,0.4,1.2,0.4c0.2,0,0.4,0,0.7-0.1c0.2,0,0.5-0.1,0.6-0.2l0.1,1.8
				c-0.3,0.1-0.6,0.2-0.9,0.2s-0.7,0.1-1,0.1c-1.1,0-1.9-0.3-2.5-0.9c-0.6-0.6-0.9-1.5-0.9-2.7v-6.2h-2.2v-1.9h2.2v-3.3h2.2v3.3h3
				V509.7z"/>
			<path d="M441.2,502.2h2v6h-2V502.2z"/>
			<path d="M453,510.7c-0.3-0.4-0.6-0.8-1.1-1c-0.5-0.3-1-0.4-1.6-0.4c-0.3,0-0.5,0-0.8,0.1c-0.3,0.1-0.5,0.1-0.7,0.3
				s-0.4,0.3-0.5,0.5c-0.1,0.2-0.2,0.4-0.2,0.7c0,0.5,0.2,0.8,0.6,1.1s1.1,0.4,1.9,0.6c0.5,0.1,1,0.3,1.5,0.5
				c0.5,0.2,0.9,0.4,1.2,0.7c0.3,0.3,0.6,0.6,0.8,1s0.3,0.8,0.3,1.3c0,0.7-0.1,1.2-0.4,1.7c-0.3,0.5-0.6,0.8-1,1.1s-0.9,0.5-1.5,0.6
				s-1.1,0.2-1.7,0.2c-0.9,0-1.7-0.2-2.5-0.5s-1.5-0.8-2-1.5l1.6-1.4c0.3,0.5,0.7,0.8,1.3,1.1c0.5,0.3,1.1,0.5,1.8,0.5
				c0.3,0,0.6,0,0.8-0.1c0.3-0.1,0.5-0.2,0.7-0.3s0.4-0.3,0.5-0.5c0.1-0.2,0.2-0.5,0.2-0.8c0-0.5-0.2-0.9-0.8-1.2
				c-0.5-0.2-1.2-0.5-2.2-0.7c-0.4-0.1-0.8-0.2-1.2-0.3c-0.4-0.1-0.8-0.3-1.1-0.6s-0.6-0.5-0.8-0.9c-0.2-0.4-0.3-0.8-0.3-1.3
				c0-0.6,0.1-1.1,0.4-1.6s0.6-0.8,1-1.1s0.9-0.5,1.4-0.6c0.5-0.1,1-0.2,1.6-0.2c0.8,0,1.6,0.2,2.4,0.5c0.8,0.3,1.4,0.8,1.8,1.4
				L453,510.7z"/>
			<path d="M465.1,519.2h-2.3v-18.1h2.3V519.2z"/>
			<path d="M471.4,503.8c0,0.4-0.1,0.8-0.4,1s-0.6,0.4-1.1,0.4s-0.8-0.1-1-0.4c-0.3-0.3-0.4-0.6-0.4-1c0-0.4,0.1-0.8,0.4-1
				c0.3-0.3,0.6-0.4,1-0.4s0.8,0.1,1.1,0.4C471.2,503,471.4,503.3,471.4,503.8z M471,519.2h-2.3v-11.4h2.3V519.2z"/>
			<path d="M476.9,512.8L476.9,512.8l4.9-4.9h3l-5.3,5.2l5.8,6.2h-3.1l-5.1-5.9h-0.1v5.9h-2.3v-18.1h2.3L476.9,512.8L476.9,512.8z"
				/>
			<path d="M497.1,513.4c0,0.1,0,0.3,0,0.4s0,0.3,0,0.4h-9c0,0.5,0.1,0.9,0.3,1.3s0.5,0.8,0.8,1.1s0.7,0.5,1.2,0.7s0.9,0.3,1.4,0.3
				c0.8,0,1.4-0.2,2-0.5c0.6-0.3,1-0.7,1.3-1.2l1.6,1.3c-0.6,0.8-1.3,1.4-2.1,1.8c-0.8,0.4-1.7,0.6-2.8,0.6c-0.9,0-1.7-0.1-2.4-0.4
				s-1.4-0.7-1.9-1.2s-0.9-1.2-1.2-1.9c-0.3-0.7-0.5-1.5-0.5-2.5c0-0.9,0.1-1.7,0.4-2.4s0.7-1.4,1.2-1.9s1.1-0.9,1.9-1.2
				c0.7-0.3,1.5-0.4,2.3-0.4s1.6,0.1,2.3,0.4s1.3,0.7,1.7,1.2c0.5,0.5,0.8,1.1,1.1,1.9C496.9,511.7,497.1,512.5,497.1,513.4z
				 M494.8,512.5c0-0.5-0.1-0.9-0.2-1.3s-0.3-0.7-0.6-1c-0.3-0.3-0.6-0.5-1-0.7c-0.4-0.2-0.9-0.2-1.4-0.2c-0.5,0-0.9,0.1-1.4,0.2
				s-0.8,0.4-1.1,0.7c-0.3,0.3-0.6,0.6-0.8,1c-0.2,0.4-0.3,0.8-0.4,1.3H494.8z"/>
			<path d="M511,509.7h-3v5.9c0,0.7,0.1,1.2,0.4,1.5s0.7,0.4,1.2,0.4c0.2,0,0.4,0,0.7-0.1c0.2,0,0.5-0.1,0.6-0.2l0.1,1.8
				c-0.3,0.1-0.6,0.2-0.9,0.2s-0.7,0.1-1,0.1c-1.1,0-1.9-0.3-2.5-0.9c-0.6-0.6-0.9-1.5-0.9-2.7v-6.2h-2.2v-1.9h2.2v-3.3h2.2v3.3h3
				L511,509.7L511,509.7z"/>
			<path d="M515.3,509.6c0.3-0.6,0.7-1,1.4-1.4c0.7-0.4,1.4-0.6,2.2-0.6c0.7,0,1.4,0.1,1.9,0.4s1,0.6,1.3,1c0.3,0.4,0.6,0.9,0.8,1.5
				s0.2,1.2,0.2,1.8v7.1h-2.3v-6.3c0-0.5,0-0.9-0.1-1.3c-0.1-0.4-0.2-0.8-0.4-1.1c-0.2-0.3-0.5-0.6-0.8-0.8s-0.8-0.3-1.3-0.3
				c-0.9,0-1.6,0.3-2.2,1s-0.9,1.6-0.9,2.7v6H513v-18.1h2.3L515.3,509.6L515.3,509.6L515.3,509.6z"/>
			<path d="M537.3,513.4c0,0.1,0,0.3,0,0.4s0,0.3,0,0.4h-9c0,0.5,0.1,0.9,0.3,1.3s0.5,0.8,0.8,1.1s0.7,0.5,1.2,0.7s0.9,0.3,1.4,0.3
				c0.8,0,1.4-0.2,2-0.5c0.6-0.3,1-0.7,1.3-1.2l1.6,1.3c-0.6,0.8-1.3,1.4-2.2,1.8c-0.8,0.4-1.7,0.6-2.8,0.6c-0.9,0-1.7-0.1-2.4-0.4
				c-0.7-0.3-1.4-0.7-1.9-1.2s-0.9-1.2-1.2-1.9c-0.3-0.7-0.5-1.5-0.5-2.5c0-0.9,0.2-1.7,0.4-2.4s0.7-1.4,1.2-1.9
				c0.5-0.5,1.2-0.9,1.9-1.2c0.7-0.3,1.5-0.4,2.3-0.4s1.6,0.1,2.3,0.4s1.3,0.7,1.7,1.2c0.5,0.5,0.8,1.1,1.1,1.9
				C537.2,511.7,537.3,512.5,537.3,513.4z M535,512.5c0-0.5-0.1-0.9-0.2-1.3c-0.1-0.4-0.3-0.7-0.6-1c-0.3-0.3-0.6-0.5-1-0.7
				c-0.4-0.2-0.8-0.2-1.4-0.2c-0.5,0-0.9,0.1-1.4,0.2s-0.8,0.4-1.1,0.7c-0.3,0.3-0.6,0.6-0.8,1c-0.2,0.4-0.3,0.8-0.3,1.3H535z"/>
			<path d="M546.6,521.2c0.5,0.6,1.1,1,1.9,1.3c0.7,0.3,1.5,0.5,2.3,0.5c0.8,0,1.4-0.1,1.9-0.3c0.5-0.2,0.9-0.5,1.2-0.9
				c0.3-0.4,0.5-0.8,0.7-1.3c0.1-0.5,0.2-1.1,0.2-1.7v-1.5h0c-0.4,0.6-1,1.1-1.7,1.5c-0.7,0.3-1.5,0.5-2.3,0.5
				c-0.9,0-1.7-0.2-2.4-0.5s-1.3-0.7-1.8-1.2s-0.9-1.2-1.2-1.9c-0.3-0.7-0.4-1.5-0.4-2.3c0-0.8,0.1-1.6,0.4-2.3
				c0.3-0.7,0.7-1.4,1.2-1.9c0.5-0.5,1.1-1,1.8-1.3s1.5-0.5,2.3-0.5c0.8,0,1.6,0.2,2.3,0.5s1.3,0.9,1.8,1.6h0v-1.8h2.2v10.8
				c0,0.8-0.1,1.6-0.3,2.4s-0.6,1.4-1.1,2c-0.5,0.6-1.1,1-1.9,1.4c-0.8,0.3-1.8,0.5-3,0.5c-1,0-2-0.2-3-0.5s-1.9-0.9-2.6-1.5
				L546.6,521.2z M547.2,513.4c0,0.5,0.1,1,0.2,1.5s0.4,0.9,0.8,1.3s0.7,0.7,1.2,0.9c0.5,0.2,1,0.3,1.6,0.3c0.6,0,1.1-0.1,1.6-0.3
				s0.9-0.5,1.2-0.8c0.3-0.4,0.6-0.8,0.8-1.3s0.3-1,0.3-1.6c0-0.5-0.1-1.1-0.3-1.5c-0.2-0.5-0.5-0.9-0.8-1.3
				c-0.3-0.4-0.8-0.7-1.2-0.9c-0.5-0.2-1-0.3-1.6-0.3c-0.6,0-1.1,0.1-1.6,0.3c-0.5,0.2-0.9,0.5-1.2,0.9s-0.6,0.8-0.8,1.3
				C547.3,512.4,547.2,512.9,547.2,513.4z"/>
			<path d="M562.8,519.2h-2.3v-18.1h2.3V519.2z"/>
			<path d="M573.5,511.9c0-0.9-0.3-1.5-0.8-1.9c-0.5-0.4-1.2-0.6-2-0.6c-0.6,0-1.2,0.1-1.8,0.4s-1,0.6-1.4,1l-1.2-1.4
				c0.6-0.5,1.2-0.9,2-1.2c0.8-0.3,1.7-0.5,2.6-0.5c0.8,0,1.5,0.1,2.1,0.4s1.1,0.5,1.5,1s0.7,0.9,0.9,1.4c0.2,0.5,0.3,1.1,0.3,1.7v5
				c0,0.4,0,0.8,0,1.2c0,0.4,0.1,0.8,0.1,1h-2c-0.1-0.5-0.2-1.1-0.2-1.6h-0.1c-0.4,0.6-0.9,1.1-1.6,1.4s-1.4,0.5-2.2,0.5
				c-0.5,0-0.9-0.1-1.4-0.2c-0.5-0.1-0.9-0.3-1.3-0.6s-0.7-0.6-1-1.1c-0.3-0.5-0.4-1-0.4-1.7c0-0.9,0.2-1.5,0.7-2s1.1-0.9,1.8-1.2
				s1.6-0.4,2.5-0.5s1.9-0.1,2.9-0.1L573.5,511.9L573.5,511.9z M572.9,513.8c-0.6,0-1.1,0-1.7,0.1s-1.1,0.1-1.6,0.3
				s-0.9,0.4-1.2,0.7c-0.3,0.3-0.5,0.7-0.5,1.2c0,0.3,0.1,0.6,0.2,0.8c0.1,0.2,0.3,0.4,0.5,0.5s0.5,0.2,0.7,0.3s0.5,0.1,0.8,0.1
				c1.1,0,1.9-0.3,2.4-1s0.8-1.4,0.8-2.4v-0.6L572.9,513.8L572.9,513.8z"/>
			<path d="M585.2,510.7c-0.3-0.4-0.6-0.8-1.1-1c-0.5-0.3-1-0.4-1.6-0.4c-0.3,0-0.5,0-0.8,0.1c-0.3,0.1-0.5,0.1-0.7,0.3
				s-0.4,0.3-0.5,0.5c-0.1,0.2-0.2,0.4-0.2,0.7c0,0.5,0.2,0.8,0.7,1.1c0.4,0.2,1.1,0.4,1.9,0.6c0.5,0.1,1,0.3,1.5,0.5
				s0.9,0.4,1.2,0.7c0.3,0.3,0.6,0.6,0.8,1s0.3,0.8,0.3,1.3c0,0.7-0.1,1.2-0.4,1.7c-0.3,0.5-0.6,0.8-1,1.1s-0.9,0.5-1.5,0.6
				c-0.5,0.1-1.1,0.2-1.7,0.2c-0.9,0-1.7-0.2-2.5-0.5s-1.5-0.8-2-1.5l1.6-1.4c0.3,0.5,0.7,0.8,1.3,1.1c0.5,0.3,1.1,0.5,1.8,0.5
				c0.3,0,0.6,0,0.8-0.1c0.3-0.1,0.5-0.2,0.7-0.3s0.4-0.3,0.5-0.5s0.2-0.5,0.2-0.8c0-0.5-0.2-0.9-0.8-1.2c-0.5-0.2-1.2-0.5-2.2-0.7
				c-0.4-0.1-0.8-0.2-1.2-0.3c-0.4-0.1-0.8-0.3-1.1-0.6s-0.6-0.5-0.8-0.9c-0.2-0.4-0.3-0.8-0.3-1.3c0-0.6,0.1-1.1,0.4-1.6
				s0.6-0.8,1-1.1c0.4-0.3,0.9-0.5,1.4-0.6c0.5-0.1,1-0.2,1.6-0.2c0.8,0,1.6,0.2,2.4,0.5s1.3,0.8,1.8,1.4L585.2,510.7z"/>
			<path d="M595.5,510.7c-0.3-0.4-0.6-0.8-1.1-1c-0.5-0.3-1-0.4-1.6-0.4c-0.3,0-0.5,0-0.8,0.1c-0.3,0.1-0.5,0.1-0.7,0.3
				s-0.4,0.3-0.5,0.5c-0.1,0.2-0.2,0.4-0.2,0.7c0,0.5,0.2,0.8,0.7,1.1c0.4,0.2,1.1,0.4,1.9,0.6c0.5,0.1,1,0.3,1.5,0.5
				s0.9,0.4,1.2,0.7c0.3,0.3,0.6,0.6,0.8,1s0.3,0.8,0.3,1.3c0,0.7-0.1,1.2-0.4,1.7c-0.3,0.5-0.6,0.8-1,1.1s-0.9,0.5-1.5,0.6
				c-0.5,0.1-1.1,0.2-1.7,0.2c-0.9,0-1.7-0.2-2.5-0.5s-1.5-0.8-2-1.5l1.6-1.4c0.3,0.5,0.7,0.8,1.3,1.1c0.5,0.3,1.1,0.5,1.8,0.5
				c0.3,0,0.6,0,0.8-0.1c0.3-0.1,0.5-0.2,0.7-0.3s0.4-0.3,0.5-0.5s0.2-0.5,0.2-0.8c0-0.5-0.2-0.9-0.8-1.2c-0.5-0.2-1.2-0.5-2.2-0.7
				c-0.4-0.1-0.8-0.2-1.2-0.3c-0.4-0.1-0.8-0.3-1.1-0.6s-0.6-0.5-0.8-0.9c-0.2-0.4-0.3-0.8-0.3-1.3c0-0.6,0.1-1.1,0.4-1.6
				s0.6-0.8,1-1.1c0.4-0.3,0.9-0.5,1.4-0.6c0.5-0.1,1-0.2,1.6-0.2c0.8,0,1.6,0.2,2.4,0.5s1.3,0.8,1.8,1.4L595.5,510.7z"/>
			<path d="M334.7,547.6c0.3-0.6,0.7-1,1.4-1.4c0.7-0.4,1.4-0.6,2.2-0.6c0.7,0,1.4,0.1,1.9,0.4s1,0.6,1.3,1s0.6,0.9,0.8,1.5
				s0.2,1.2,0.2,1.8v7.1h-2.3v-6.3c0-0.5,0-0.9-0.1-1.3c-0.1-0.4-0.2-0.8-0.4-1.1c-0.2-0.3-0.5-0.6-0.8-0.8s-0.8-0.3-1.3-0.3
				c-0.9,0-1.6,0.3-2.2,1s-0.9,1.6-0.9,2.7v6h-2.3v-18.1h2.3L334.7,547.6L334.7,547.6L334.7,547.6z"/>
			<path d="M353.1,549.9c0-0.8-0.3-1.5-0.8-1.9c-0.5-0.4-1.2-0.6-2-0.6c-0.6,0-1.2,0.1-1.8,0.4s-1,0.6-1.4,1l-1.2-1.4
				c0.6-0.5,1.2-0.9,2-1.2c0.8-0.3,1.7-0.5,2.6-0.5c0.8,0,1.5,0.1,2.1,0.3s1.1,0.5,1.5,1s0.7,0.9,0.9,1.4c0.2,0.5,0.3,1.1,0.3,1.8v5
				c0,0.4,0,0.8,0,1.2c0,0.4,0.1,0.8,0.1,1h-2c-0.1-0.5-0.2-1.1-0.2-1.6h-0.1c-0.4,0.6-0.9,1.1-1.6,1.4s-1.4,0.5-2.2,0.5
				c-0.5,0-0.9-0.1-1.4-0.2c-0.5-0.1-0.9-0.3-1.3-0.6s-0.7-0.6-1-1.1c-0.3-0.5-0.4-1-0.4-1.7c0-0.9,0.2-1.5,0.7-2s1.1-0.9,1.8-1.2
				s1.6-0.4,2.5-0.5s1.9-0.1,2.9-0.1L353.1,549.9L353.1,549.9z M352.5,551.8c-0.6,0-1.1,0-1.7,0.1c-0.6,0-1.1,0.1-1.6,0.3
				s-0.9,0.4-1.2,0.7c-0.3,0.3-0.5,0.7-0.5,1.2c0,0.3,0.1,0.6,0.2,0.8c0.1,0.2,0.3,0.4,0.5,0.5s0.5,0.2,0.7,0.3s0.5,0.1,0.8,0.1
				c1.1,0,1.9-0.3,2.4-1s0.9-1.4,0.9-2.4v-0.6L352.5,551.8L352.5,551.8z"/>
			<path d="M364.8,548.7c-0.3-0.4-0.6-0.8-1.1-1s-1-0.4-1.6-0.4c-0.3,0-0.5,0-0.8,0.1c-0.3,0.1-0.5,0.1-0.7,0.3s-0.4,0.3-0.5,0.5
				c-0.1,0.2-0.2,0.4-0.2,0.7c0,0.5,0.2,0.8,0.6,1.1s1.1,0.4,1.9,0.6c0.5,0.1,1,0.3,1.5,0.5c0.5,0.2,0.9,0.4,1.2,0.7
				c0.3,0.3,0.6,0.6,0.8,1s0.3,0.8,0.3,1.3c0,0.7-0.1,1.2-0.4,1.7c-0.3,0.5-0.6,0.8-1,1.1s-0.9,0.5-1.5,0.6s-1.1,0.2-1.7,0.2
				c-0.9,0-1.7-0.2-2.5-0.5s-1.5-0.8-2-1.5l1.6-1.4c0.3,0.5,0.7,0.8,1.3,1.1c0.5,0.3,1.1,0.5,1.8,0.5c0.3,0,0.6,0,0.8-0.1
				c0.3-0.1,0.5-0.2,0.7-0.3s0.4-0.3,0.5-0.5c0.1-0.2,0.2-0.5,0.2-0.8c0-0.5-0.2-0.9-0.8-1.2c-0.5-0.2-1.2-0.5-2.2-0.7
				c-0.4-0.1-0.8-0.2-1.2-0.3c-0.4-0.1-0.8-0.3-1.1-0.6s-0.6-0.5-0.8-0.9c-0.2-0.4-0.3-0.8-0.3-1.3c0-0.6,0.1-1.1,0.4-1.6
				s0.6-0.8,1-1.1s0.9-0.5,1.4-0.6c0.5-0.1,1-0.2,1.6-0.2c0.8,0,1.6,0.2,2.4,0.5c0.8,0.3,1.4,0.8,1.8,1.4L364.8,548.7z"/>
			<path d="M379.9,557.2h-2.5l-4.6-11.4h2.5l3.3,9h0l3.4-9h2.4L379.9,557.2z"/>
			<path d="M393.4,549.9c0-0.8-0.3-1.5-0.8-1.9c-0.5-0.4-1.2-0.6-2-0.6c-0.6,0-1.2,0.1-1.8,0.4s-1,0.6-1.4,1l-1.2-1.4
				c0.6-0.5,1.2-0.9,2-1.2c0.8-0.3,1.7-0.5,2.6-0.5c0.8,0,1.5,0.1,2.1,0.3s1.1,0.5,1.5,1s0.7,0.9,0.9,1.4c0.2,0.5,0.3,1.1,0.3,1.8v5
				c0,0.4,0,0.8,0,1.2c0,0.4,0.1,0.8,0.1,1h-2c-0.1-0.5-0.2-1.1-0.2-1.6h-0.1c-0.4,0.6-0.9,1.1-1.6,1.4s-1.4,0.5-2.2,0.5
				c-0.5,0-0.9-0.1-1.4-0.2c-0.5-0.1-0.9-0.3-1.3-0.6s-0.7-0.6-1-1.1c-0.3-0.5-0.4-1-0.4-1.7c0-0.9,0.2-1.5,0.7-2s1.1-0.9,1.8-1.2
				s1.6-0.4,2.5-0.5s1.9-0.1,2.9-0.1L393.4,549.9L393.4,549.9z M392.8,551.8c-0.6,0-1.1,0-1.7,0.1c-0.6,0-1.1,0.1-1.6,0.3
				s-0.9,0.4-1.2,0.7c-0.3,0.3-0.5,0.7-0.5,1.2c0,0.3,0.1,0.6,0.2,0.8c0.1,0.2,0.3,0.4,0.5,0.5s0.5,0.2,0.7,0.3s0.5,0.1,0.8,0.1
				c1.1,0,1.9-0.3,2.4-1s0.9-1.4,0.9-2.4v-0.6L392.8,551.8L392.8,551.8z"/>
			<path d="M401,545.8c0,0.3,0.1,0.6,0.1,1c0,0.4,0,0.7,0,0.9h0.1c0.1-0.3,0.3-0.6,0.6-0.8s0.5-0.5,0.9-0.7s0.7-0.4,1.1-0.5
				c0.4-0.1,0.8-0.2,1.2-0.2c0.7,0,1.4,0.1,1.9,0.4s1,0.6,1.3,1s0.6,0.9,0.8,1.5s0.2,1.2,0.2,1.8v7.1h-2.3v-6.3c0-0.5,0-0.9-0.1-1.3
				c-0.1-0.4-0.2-0.8-0.4-1.1s-0.5-0.6-0.8-0.8c-0.3-0.2-0.8-0.3-1.3-0.3c-0.9,0-1.6,0.3-2.2,1s-0.9,1.6-0.9,2.7v6h-2.3v-8.9
				c0-0.3,0-0.7,0-1.2s0-0.9-0.1-1.3L401,545.8L401,545.8z"/>
			<path d="M415.2,541.8c0,0.4-0.1,0.8-0.4,1s-0.6,0.4-1.1,0.4s-0.8-0.1-1-0.4c-0.3-0.3-0.4-0.6-0.4-1c0-0.4,0.1-0.8,0.4-1
				c0.3-0.3,0.6-0.4,1-0.4s0.8,0.1,1.1,0.4C415,541,415.2,541.3,415.2,541.8z M414.8,557.2h-2.3v-11.4h2.3V557.2z"/>
			<path d="M424.6,548.7c-0.3-0.4-0.6-0.8-1.1-1s-1-0.4-1.6-0.4c-0.3,0-0.5,0-0.8,0.1c-0.3,0.1-0.5,0.1-0.7,0.3s-0.4,0.3-0.5,0.5
				c-0.1,0.2-0.2,0.4-0.2,0.7c0,0.5,0.2,0.8,0.6,1.1s1.1,0.4,1.9,0.6c0.5,0.1,1,0.3,1.5,0.5c0.5,0.2,0.9,0.4,1.2,0.7
				c0.3,0.3,0.6,0.6,0.8,1s0.3,0.8,0.3,1.3c0,0.7-0.1,1.2-0.4,1.7c-0.3,0.5-0.6,0.8-1,1.1s-0.9,0.5-1.5,0.6s-1.1,0.2-1.7,0.2
				c-0.9,0-1.7-0.2-2.5-0.5s-1.5-0.8-2-1.5l1.6-1.4c0.3,0.5,0.7,0.8,1.3,1.1c0.5,0.3,1.1,0.5,1.8,0.5c0.3,0,0.6,0,0.8-0.1
				c0.3-0.1,0.5-0.2,0.7-0.3s0.4-0.3,0.5-0.5c0.1-0.2,0.2-0.5,0.2-0.8c0-0.5-0.2-0.9-0.8-1.2c-0.5-0.2-1.2-0.5-2.2-0.7
				c-0.4-0.1-0.8-0.2-1.2-0.3c-0.4-0.1-0.8-0.3-1.1-0.6s-0.6-0.5-0.8-0.9c-0.2-0.4-0.3-0.8-0.3-1.3c0-0.6,0.1-1.1,0.4-1.6
				s0.6-0.8,1-1.1s0.9-0.5,1.4-0.6c0.5-0.1,1-0.2,1.6-0.2c0.8,0,1.6,0.2,2.4,0.5c0.8,0.3,1.4,0.8,1.8,1.4L424.6,548.7z"/>
			<path d="M431.1,547.6c0.3-0.6,0.7-1,1.4-1.4c0.7-0.4,1.4-0.6,2.2-0.6c0.7,0,1.4,0.1,1.9,0.4s1,0.6,1.3,1s0.6,0.9,0.8,1.5
				s0.2,1.2,0.2,1.8v7.1h-2.3v-6.3c0-0.5,0-0.9-0.1-1.3c-0.1-0.4-0.2-0.8-0.4-1.1c-0.2-0.3-0.5-0.6-0.8-0.8s-0.8-0.3-1.3-0.3
				c-0.9,0-1.6,0.3-2.2,1s-0.9,1.6-0.9,2.7v6h-2.3v-18.1h2.3L431.1,547.6L431.1,547.6L431.1,547.6z"/>
			<path d="M453,551.4c0,0.1,0,0.3,0,0.4s0,0.3,0,0.4h-9c0,0.5,0.1,0.9,0.3,1.3s0.5,0.8,0.8,1.1s0.7,0.5,1.2,0.7s0.9,0.3,1.4,0.3
				c0.8,0,1.4-0.2,2-0.5c0.6-0.3,1-0.7,1.3-1.2l1.6,1.3c-0.6,0.8-1.3,1.4-2.1,1.8c-0.8,0.4-1.7,0.6-2.8,0.6c-0.9,0-1.7-0.1-2.4-0.4
				s-1.4-0.7-1.9-1.2s-0.9-1.2-1.2-1.9c-0.3-0.7-0.5-1.5-0.5-2.5c0-0.9,0.1-1.7,0.4-2.4s0.7-1.4,1.2-1.9c0.5-0.5,1.1-0.9,1.9-1.2
				c0.7-0.3,1.5-0.4,2.3-0.4s1.6,0.1,2.3,0.4s1.3,0.7,1.7,1.2c0.5,0.5,0.8,1.1,1.1,1.9C452.9,549.7,453,550.5,453,551.4z
				 M450.7,550.5c0-0.5-0.1-0.9-0.2-1.3s-0.3-0.7-0.6-1c-0.3-0.3-0.6-0.5-1-0.7c-0.4-0.2-0.9-0.2-1.4-0.2c-0.5,0-0.9,0.1-1.4,0.2
				s-0.8,0.4-1.1,0.7c-0.3,0.3-0.6,0.6-0.8,1c-0.2,0.4-0.3,0.8-0.4,1.3H450.7z"/>
			<path d="M464.8,555.4c-0.4,0.7-1,1.2-1.8,1.6s-1.5,0.5-2.3,0.5c-0.9,0-1.7-0.2-2.4-0.5c-0.7-0.3-1.3-0.7-1.8-1.3
				c-0.5-0.5-0.9-1.2-1.1-1.9s-0.4-1.5-0.4-2.3s0.1-1.6,0.4-2.3c0.3-0.7,0.7-1.4,1.2-1.9c0.5-0.5,1.1-1,1.8-1.3
				c0.7-0.3,1.5-0.5,2.3-0.5c0.9,0,1.7,0.2,2.4,0.6c0.7,0.4,1.2,0.9,1.6,1.4h0v-8.5h2.3v18.1h-2.2L464.8,555.4L464.8,555.4
				L464.8,555.4z M457.3,551.5c0,0.5,0.1,1,0.2,1.5c0.2,0.5,0.4,0.9,0.7,1.3c0.3,0.4,0.7,0.7,1.2,0.9c0.5,0.2,1,0.3,1.6,0.3
				c0.6,0,1.1-0.1,1.6-0.3c0.5-0.2,0.9-0.5,1.2-0.9s0.6-0.8,0.8-1.3s0.3-1,0.3-1.5s-0.1-1.1-0.3-1.6c-0.2-0.5-0.4-0.9-0.8-1.3
				s-0.7-0.7-1.2-0.9s-1-0.3-1.6-0.3c-0.6,0-1.2,0.1-1.6,0.3c-0.5,0.2-0.9,0.5-1.2,0.9c-0.3,0.4-0.6,0.8-0.7,1.3
				C457.4,550.5,457.3,551,457.3,551.5z"/>
			<path d="M474.3,555.8c0,0.4-0.1,0.8-0.5,1.1c-0.3,0.3-0.7,0.5-1.1,0.5c-0.5,0-0.8-0.2-1.1-0.5c-0.3-0.3-0.5-0.7-0.5-1.1
				c0-0.4,0.1-0.8,0.5-1.1c0.3-0.3,0.7-0.5,1.1-0.5s0.9,0.2,1.1,0.5C474.1,555,474.3,555.4,474.3,555.8z M473.9,552.3h-2.4v-12h2.4
				V552.3z"/>
			<path d="M478.5,540.2h2v6h-2V540.2z M482.4,540.2h2v6h-2V540.2z"/>
		</g>
	</g>
	<g id="Logo_Lockup">
		<g id="KLARIFY_4_">
			<g>
				<path d="M486.9,270h-0.6v-3.5H485V266h3.1v0.5h-1.3L486.9,270L486.9,270z"/>
				<path d="M490.7,269.1L490.7,269.1l1.2-3.1h0.9v4h-0.6v-3.3h0l-1.3,3.3h-0.4l-1.3-3.3h0v3.3h-0.5v-4h0.9L490.7,269.1z"/>
			</g>
			<path d="M469.2,284.9v-8.4l-9.8-10.4h5.8l6.5,7.2l6.5-7.2h5.1l-9.8,10.3v8.5L469.2,284.9L469.2,284.9z"/>
			<path d="M439.2,284.9V266h19v3.3h-14.7v5h7.9v3.4h-7.9v7.1L439.2,284.9L439.2,284.9z"/>
			<path d="M429.4,284.9V266h4.4v18.8H429.4z"/>
			<path d="M403.8,284.9V266h16.1c2.8,0,4.2,1.2,4.2,3.6v4.4c0,2.4-1.4,3.6-4.2,3.6h-2.5l8.7,7.1h-6.3l-7.6-7.1h-4.2v7.1
				L403.8,284.9L403.8,284.9z M417.9,269.2h-9.9v5.3h9.9c0.7,0,1.2-0.1,1.4-0.2c0.4-0.2,0.5-0.6,0.5-1.3v-2.3c0-0.6-0.2-1.1-0.5-1.3
				C419.1,269.3,418.6,269.2,417.9,269.2z"/>
			<path d="M375.3,284.9L386,266h4.2l10.8,18.8h-4.9l-2.3-4.1h-11.9l-2.2,4.1H375.3z M383.7,277.3h8.2l-4-7.7L383.7,277.3z"/>
			<path d="M354.5,284.9V266h4.4v15.3H373v3.5L354.5,284.9L354.5,284.9z"/>
			<path d="M330.4,284.9V266h4.4v7.9l10.4-7.9h6.4l-12.5,8.9l14,10h-7l-11.3-8.3v8.3H330.4z"/>
		</g>
		<g id="white_outline_00000005255656358120731380000014237703237700728721_">
			<path id="Q" class="st1" d="M668.7,200.5c-1.8-1.8-5-2.6-9.7-2.6h-32.9c-4.8,0-7.9,0.9-9.7,2.6c-1.8,1.8-2.7,4.8-2.7,9.3v23.5
				c0,4.5,0.9,7.6,2.7,9.3c1.8,1.8,5,2.6,9.7,2.6h17.5l5,11.5h13.3l-5.6-11.5h2.7c4.7,0,7.9-0.9,9.7-2.6c1.8-1.8,2.7-4.8,2.7-9.3
				v-23.5C671.3,205.3,670.5,202.3,668.7,200.5z M658.3,208.6v25.6H651l-6.2-13.1l-9.9,4l3.9,9.1h-11.9v-25.6L658.3,208.6
				L658.3,208.6z"/>
			<polygon id="E" class="st1" points="571.8,225.8 592.4,225.8 592.4,215.5 571.8,215.5 571.8,208.2 607.1,208.2 607.1,197.9 
				558.7,197.9 558.7,245.2 607.5,245.2 607.5,234.1 571.8,234.1 			"/>
			<polygon id="T" class="st1" points="500.1,208.6 520.6,208.6 520.6,245.2 533.6,245.2 533.6,208.6 554.2,208.6 554.2,197.9 
				500.1,197.9 			"/>
			<path id="R" class="st1" d="M484.4,228.4c3.9,0,6.7-0.8,8.6-2.4c1.9-1.6,2.9-4.2,2.9-7.6v-10.5c0-3.4-1-6-2.9-7.6
				c-1.9-1.6-4.7-2.4-8.6-2.4h-39.5v47.3h12.9v-16.9h8l18,16.9H503l-20.6-16.9L484.4,228.4L484.4,228.4z M483.2,210.5v5.4
				c0,0.9-0.2,1.5-0.5,1.7c-0.1,0.1-0.8,0.5-2.9,0.5h-22v-9.8h22c2.1,0,2.7,0.4,2.9,0.5C483.1,209.1,483.2,210,483.2,210.5z"/>
			<g id="">
				<rect x="425.6" y="197.9" class="st1" width="13" height="13"/>
				<path class="st1" d="M425.6,213.4l0,20.7h-27v-20.7h-13.1v19.9c0,4.5,0.9,7.5,2.7,9.3c1.8,1.7,5,2.6,9.7,2.6h28.2
					c4.7,0,7.9-0.8,9.7-2.6c1.8-1.8,2.7-4.8,2.7-9.3v-19.9H425.6z"/>
				<rect x="385.6" y="197.9" class="st1" width="13.1" height="13"/>
			</g>
			<path id="P" class="st1" d="M377.4,200.3c-1.9-1.6-4.7-2.4-8.6-2.4h-39.5v47.3h12.9v-17.4h26.6c3.9,0,6.7-0.8,8.6-2.4
				c1.9-1.6,2.9-4.2,2.9-7.6v-10C380.2,204.5,379.2,201.9,377.4,200.3z M342.1,208.3h22c2.1,0,2.7,0.4,2.9,0.5
				c0.4,0.3,0.5,1.2,0.5,1.7v4.8c0,0.9-0.2,1.5-0.5,1.7c-0.1,0.1-0.8,0.5-2.9,0.5h-22V208.3z"/>
		</g>
		<g id="PURTEQ_00000106147432081515213800000011484110444939259545_">
			<g>
				<path id="_xAE_" class="st1" d="M672.6,199.2c0-0.5,0.1-0.9,0.3-1.4c0.2-0.4,0.4-0.8,0.8-1.1c0.3-0.3,0.7-0.6,1.1-0.8
					c0.4-0.2,0.9-0.3,1.4-0.3s1,0.1,1.4,0.3s0.8,0.4,1.1,0.8c0.3,0.3,0.6,0.7,0.8,1.1c0.2,0.4,0.3,0.9,0.3,1.4s-0.1,0.9-0.3,1.4
					s-0.4,0.8-0.8,1.1c-0.3,0.3-0.7,0.6-1.1,0.8c-0.4,0.2-0.9,0.3-1.4,0.3s-1-0.1-1.4-0.3c-0.4-0.2-0.8-0.4-1.1-0.8
					s-0.6-0.7-0.8-1.1C672.7,200.2,672.6,199.7,672.6,199.2z M673.1,199.2c0,0.4,0.1,0.8,0.2,1.1c0.2,0.4,0.4,0.7,0.6,1
					c0.3,0.3,0.6,0.5,1,0.6c0.4,0.2,0.8,0.2,1.2,0.2c0.4,0,0.8-0.1,1.2-0.2c0.4-0.2,0.7-0.4,1-0.6c0.3-0.3,0.5-0.6,0.6-1
					c0.2-0.4,0.2-0.8,0.2-1.1c0-0.4-0.1-0.8-0.2-1.2c-0.2-0.4-0.4-0.7-0.6-0.9s-0.6-0.5-1-0.6s-0.8-0.2-1.2-0.2s-0.8,0.1-1.2,0.2
					c-0.4,0.2-0.7,0.4-1,0.6s-0.5,0.6-0.6,0.9C673.2,198.4,673.1,198.8,673.1,199.2z M674.7,197.2h1.4c0.2,0,0.4,0,0.5,0.1
					c0.2,0,0.3,0.1,0.5,0.2c0.1,0.1,0.2,0.2,0.3,0.4s0.1,0.3,0.1,0.5c0,0.3-0.1,0.5-0.2,0.7c-0.2,0.2-0.4,0.3-0.7,0.4l1.1,1.7h-0.9
					l-0.9-1.7h-0.5v1.7h-0.7L674.7,197.2L674.7,197.2z M676,199c0.2,0,0.4,0,0.6-0.1s0.3-0.2,0.3-0.5c0-0.2-0.1-0.4-0.3-0.4
					c-0.2-0.1-0.3-0.1-0.5-0.1h-0.7v1.1L676,199L676,199z"/>
				<g>
					<path class="st2" d="M615,209.8c0-4.1,0.8-6.8,2.3-8.3c1.5-1.5,4.5-2.2,8.8-2.2h32.9c4.3,0,7.3,0.8,8.8,2.2
						c1.5,1.5,2.3,4.3,2.3,8.3v23.5c0,4.1-0.8,6.9-2.3,8.4c-1.5,1.5-4.5,2.2-8.8,2.2h-4.8l5.6,11.5h-10.3l-5-11.5H626
						c-4.3,0-7.3-0.7-8.8-2.2c-1.5-1.5-2.3-4.3-2.3-8.4L615,209.8L615,209.8z M625.4,235.5h15.3l-4.1-9.7l7.5-3l6,12.7h9.5v-28.3
						h-34.3L625.4,235.5L625.4,235.5z"/>
					<path class="st2" d="M560,243.9v-44.7h45.7v7.6h-35.3v10H591v7.6h-20.6v11.1h35.8v8.4H560z"/>
					<path class="st2" d="M532.3,207.2v36.7h-10.4v-36.7h-20.5v-8h51.5v8H532.3z"/>
					<path class="st3" d="M446.2,243.9v-44.7h38.2c3.5,0,6.1,0.7,7.7,2.1c1.6,1.4,2.4,3.6,2.4,6.6v10.5c0,3-0.8,5.2-2.4,6.6
						c-1.6,1.4-4.2,2.1-7.7,2.1h-5.8l20.6,16.9h-14.9l-18-16.9h-9.9v16.9L446.2,243.9L446.2,243.9z M479.8,207h-23.4v12.4h23.4
						c1.8,0,3-0.3,3.7-0.8s1-1.4,1-2.8v-5.4c0-1.3-0.3-2.2-1-2.7C482.9,207.2,481.6,207,479.8,207z"/>
					<path class="st3" d="M426.9,209.6v-10.4h10.4v10.4H426.9z M426.9,214.8v20.7h-29.6v-20.7h-10.4v18.6c0,4.1,0.8,6.9,2.3,8.3
						c1.5,1.5,4.5,2.2,8.8,2.2h28.2c4.3,0,7.3-0.7,8.8-2.2c1.5-1.5,2.3-4.3,2.3-8.3v-18.6H426.9z M397.3,209.6v-10.4h-10.4v10.4
						H397.3z"/>
					<path class="st3" d="M330.6,243.9v-44.7h38.2c3.5,0,6.1,0.7,7.7,2.1c1.6,1.4,2.4,3.6,2.4,6.6v10c0,3-0.8,5.2-2.4,6.6
						c-1.6,1.4-4.2,2.1-7.7,2.1h-28v17.4L330.6,243.9L330.6,243.9z M364.2,207h-23.4v11.8h23.4c1.8,0,3-0.3,3.7-0.8s1-1.4,1-2.8
						v-4.8c0-1.3-0.3-2.2-1-2.7C367.2,207.2,366,207,364.2,207z"/>
				</g>
			</g>
		</g>
	</g>
	<g id="Headline">
		<g>
			<path d="M86.6,57.9H75.3v-5.7h29.1v5.7H93.1V89h-6.6V57.9z"/>
			<path d="M108.7,52.2h6.6v14.9h17.2V52.2h6.5V89h-6.6V72.7h-17.2V89h-6.6C108.7,89,108.7,52.2,108.7,52.2z"/>
			<path d="M147.1,52.2h24.4v5.7h-17.8v9.4h16.9v5.5h-16.9v10.4h18.8V89h-25.3L147.1,52.2L147.1,52.2z"/>
			<path d="M191.8,52.2h10.2l9.6,26.2h0.2l9.5-26.2h10.3V89h-6.5V59.4H225L213.8,89h-4.6l-11-29.6h-0.1V89h-6.2L191.8,52.2
				L191.8,52.2z"/>
			<path d="M237.9,70.5c0-2.9,0.5-5.6,1.5-8c1-2.4,2.4-4.4,4.1-6.1c1.8-1.7,3.8-3,6.2-3.8c2.4-0.9,5-1.3,7.9-1.3
				c2.9,0,5.5,0.5,8,1.3c2.4,0.9,4.5,2.2,6.3,3.8c1.8,1.7,3.1,3.7,4.1,6.1c1,2.4,1.5,5,1.5,8c0,2.9-0.5,5.5-1.5,7.9
				c-1,2.4-2.4,4.4-4.1,6.1s-3.9,3.1-6.3,4c-2.4,0.9-5.1,1.4-8,1.4c-2.8,0-5.5-0.5-7.9-1.4s-4.5-2.3-6.2-4c-1.8-1.7-3.1-3.8-4.1-6.1
				S237.9,73.4,237.9,70.5z M245,70.5c0,2,0.3,3.8,0.9,5.4c0.6,1.7,1.5,3.1,2.6,4.3s2.5,2.2,4,2.8c1.5,0.7,3.2,1,5.1,1
				s3.6-0.3,5.1-1c1.6-0.7,2.9-1.6,4-2.8s2-2.6,2.6-4.3c0.6-1.7,0.9-3.5,0.9-5.4c0-1.9-0.3-3.7-0.9-5.3c-0.6-1.6-1.5-3-2.6-4.3
				c-1.1-1.2-2.4-2.2-4-2.9c-1.6-0.7-3.3-1-5.2-1s-3.6,0.3-5.2,1c-1.5,0.7-2.9,1.7-4,2.9s-2,2.6-2.6,4.3
				C245.3,66.8,245,68.6,245,70.5z"/>
			<path d="M283.8,52.2h12.8c1.7,0,3.4,0.2,5,0.5c1.6,0.4,3.1,1,4.3,1.8c1.3,0.8,2.3,1.9,3,3.3c0.8,1.3,1.1,3,1.1,4.9
				c0,2.7-0.8,4.8-2.3,6.5c-1.5,1.7-3.6,2.8-6.2,3.4l9.8,16.3h-7.9l-8.5-15.6h-4.8V89h-6.5L283.8,52.2L283.8,52.2z M295.7,68
				c0.9,0,1.9-0.1,2.8-0.2s1.8-0.4,2.5-0.8c0.8-0.4,1.4-0.9,1.9-1.6c0.5-0.7,0.7-1.6,0.7-2.7c0-1-0.2-1.8-0.7-2.5
				c-0.5-0.6-1-1.2-1.7-1.5c-0.7-0.4-1.5-0.6-2.4-0.8c-0.9-0.1-1.7-0.2-2.6-0.2h-5.9V68C290.4,68,295.7,68,295.7,68z"/>
			<path d="M316.5,52.2h24.4v5.7h-17.8v9.4H340v5.5h-16.9v10.4h18.8V89h-25.3L316.5,52.2L316.5,52.2z"/>
			<path d="M368.9,73l-13.8-20.8h8l9.3,15.5l9.4-15.5h7.6L375.5,73v16h-6.5L368.9,73L368.9,73z"/>
			<path d="M389.1,70.5c0-2.9,0.5-5.6,1.5-8c1-2.4,2.4-4.4,4.1-6.1c1.8-1.7,3.8-3,6.2-3.8c2.4-0.9,5-1.3,7.9-1.3
				c2.9,0,5.5,0.5,8,1.3c2.4,0.9,4.5,2.2,6.3,3.8c1.8,1.7,3.1,3.7,4.1,6.1c1,2.4,1.5,5,1.5,8c0,2.9-0.5,5.5-1.5,7.9
				c-1,2.4-2.4,4.4-4.1,6.1s-3.9,3.1-6.3,4c-2.4,0.9-5.1,1.4-8,1.4c-2.8,0-5.5-0.5-7.9-1.4s-4.5-2.3-6.2-4c-1.8-1.7-3.1-3.8-4.1-6.1
				S389.1,73.4,389.1,70.5z M396.2,70.5c0,2,0.3,3.8,0.9,5.4c0.6,1.7,1.5,3.1,2.6,4.3s2.5,2.2,4,2.8c1.5,0.7,3.2,1,5.1,1
				s3.6-0.3,5.1-1c1.6-0.7,2.9-1.6,4-2.8s2-2.6,2.6-4.3c0.6-1.7,0.9-3.5,0.9-5.4c0-1.9-0.3-3.7-0.9-5.3c-0.6-1.6-1.5-3-2.6-4.3
				c-1.1-1.2-2.4-2.2-4-2.9c-1.6-0.7-3.3-1-5.2-1s-3.6,0.3-5.2,1c-1.5,0.7-2.9,1.7-4,2.9c-1.1,1.2-2,2.6-2.6,4.3
				C396.5,66.8,396.2,68.6,396.2,70.5z"/>
			<path d="M464.4,75.5c0,2.2-0.4,4.2-1.1,6s-1.8,3.3-3.1,4.6s-2.9,2.2-4.7,2.9s-3.8,1-5.9,1c-2.1,0-4.1-0.3-5.9-1
				c-1.8-0.7-3.4-1.6-4.7-2.9c-1.3-1.2-2.4-2.8-3.1-4.6c-0.8-1.8-1.1-3.8-1.1-6V52.2h6.5v23c0,1.1,0.1,2.1,0.4,3.2s0.7,2,1.4,2.8
				s1.5,1.5,2.5,2s2.4,0.8,3.9,0.8s2.9-0.3,3.9-0.8s1.9-1.2,2.5-2c0.6-0.8,1.1-1.8,1.4-2.8c0.3-1.1,0.4-2.1,0.4-3.2v-23h6.5
				L464.4,75.5L464.4,75.5z"/>
			<path d="M514.5,75.5c0,2.2-0.4,4.2-1.1,6s-1.8,3.3-3.1,4.6s-2.9,2.2-4.7,2.9s-3.8,1-5.9,1c-2.1,0-4.1-0.3-5.9-1
				c-1.8-0.7-3.4-1.6-4.7-2.9c-1.3-1.2-2.4-2.8-3.1-4.6c-0.8-1.8-1.1-3.8-1.1-6V52.2h6.5v23c0,1.1,0.1,2.1,0.4,3.2s0.7,2,1.4,2.8
				s1.5,1.5,2.5,2s2.4,0.8,3.9,0.8s2.9-0.3,3.9-0.8s1.9-1.2,2.5-2c0.6-0.8,1.1-1.8,1.4-2.8c0.3-1.1,0.4-2.1,0.4-3.2v-23h6.6
				L514.5,75.5L514.5,75.5z"/>
			<path d="M541.1,59.9c-0.7-0.9-1.7-1.7-2.9-2.3c-1.3-0.6-2.5-0.9-3.8-0.9c-0.8,0-1.5,0.1-2.3,0.3c-0.8,0.2-1.5,0.5-2.1,0.9
				c-0.6,0.4-1.1,0.9-1.5,1.6c-0.4,0.6-0.6,1.4-0.6,2.3c0,0.8,0.2,1.5,0.5,2.1c0.3,0.6,0.8,1.1,1.4,1.5s1.3,0.8,2.2,1.1
				s1.8,0.6,2.9,0.9c1.2,0.4,2.4,0.8,3.7,1.3c1.3,0.5,2.4,1.1,3.5,1.9c1.1,0.8,1.9,1.8,2.6,3c0.7,1.2,1,2.7,1,4.5
				c0,2-0.4,3.7-1.1,5.2c-0.7,1.5-1.7,2.7-2.9,3.7c-1.2,1-2.6,1.7-4.3,2.2c-1.6,0.5-3.3,0.7-5.2,0.7c-2.4,0-4.7-0.4-7-1.3
				c-2.3-0.9-4.2-2.2-5.6-3.9l4.7-4.4c0.9,1.2,2.1,2.2,3.6,3c1.5,0.7,3,1.1,4.5,1.1c0.8,0,1.5-0.1,2.3-0.3c0.8-0.2,1.5-0.5,2.2-1
				c0.6-0.4,1.2-1,1.6-1.7s0.6-1.5,0.6-2.5c0-1-0.2-1.8-0.7-2.4s-1.1-1.2-1.8-1.7c-0.8-0.5-1.7-0.9-2.7-1.2c-1-0.3-2.1-0.7-3.3-1.1
				c-1.1-0.3-2.2-0.8-3.3-1.2c-1.1-0.5-2.1-1.1-3-1.9c-0.9-0.8-1.6-1.8-2.2-2.9c-0.5-1.2-0.8-2.6-0.8-4.3c0-1.9,0.4-3.5,1.2-4.8
				s1.8-2.5,3.1-3.3c1.3-0.9,2.7-1.5,4.3-2c1.6-0.4,3.2-0.7,4.9-0.7c1.9,0,3.8,0.3,5.7,1s3.6,1.7,5,3L541.1,59.9z"/>
			<path d="M552.1,52.2h24.4v5.7h-17.8v9.4h16.9v5.5h-16.9v10.4h18.8V89h-25.3V52.2z"/>
			<path d="M596.9,52.2h6.5V89h-6.5V52.2z"/>
			<path d="M619,57.9h-11.3v-5.7h29.1v5.7h-11.3V89H619L619,57.9L619,57.9z"/>
			<path d="M637.8,81.8h6l-4.4,13.7h-5.2L637.8,81.8z"/>
			<path d="M69.2,115.9H57.9v-5.7H87v5.7H75.7V147h-6.6V115.9z"/>
			<path d="M91.3,110.2h6.6v14.9H115v-14.9h6.6V147H115v-16.3H97.8V147h-6.6V110.2z"/>
			<path d="M129.7,110.2h24.4v5.7h-17.8v9.4h16.9v5.5h-16.9v10.4H155v5.8h-25.3V110.2z"/>
			<path d="M174.4,110.2h6.6v31h15.6v5.8h-22.2V110.2z"/>
			<path d="M201,110.2h24.4v5.7h-17.8v9.4h16.9v5.5h-16.9v10.4h18.8v5.8H201L201,110.2L201,110.2z"/>
			<path d="M251.5,117.9c-0.7-0.9-1.7-1.7-2.9-2.3s-2.5-0.9-3.8-0.9c-0.8,0-1.5,0.1-2.3,0.3s-1.5,0.5-2.1,0.9
				c-0.6,0.4-1.1,0.9-1.5,1.6c-0.4,0.6-0.6,1.4-0.6,2.3c0,0.8,0.2,1.5,0.5,2.1s0.8,1.1,1.4,1.5c0.6,0.4,1.3,0.8,2.2,1.1
				c0.9,0.3,1.8,0.6,2.9,0.9c1.2,0.4,2.4,0.8,3.7,1.3c1.3,0.5,2.4,1.1,3.5,1.9c1.1,0.8,1.9,1.8,2.6,3c0.7,1.2,1,2.7,1,4.5
				c0,2-0.4,3.7-1.1,5.2s-1.7,2.7-2.9,3.7s-2.6,1.7-4.3,2.2c-1.6,0.5-3.4,0.7-5.1,0.7c-2.4,0-4.7-0.4-7-1.3
				c-2.3-0.9-4.2-2.2-5.6-3.9l4.7-4.4c0.9,1.2,2.1,2.2,3.6,3c1.5,0.7,3,1.1,4.4,1.1c0.8,0,1.5-0.1,2.3-0.3c0.8-0.2,1.5-0.5,2.2-1
				c0.6-0.4,1.2-1,1.6-1.7c0.4-0.7,0.6-1.5,0.6-2.5c0-1-0.2-1.8-0.7-2.4s-1.1-1.2-1.8-1.7c-0.8-0.5-1.7-0.9-2.7-1.2
				c-1-0.4-2.1-0.7-3.3-1.1c-1.1-0.4-2.2-0.8-3.3-1.2s-2.1-1.1-3-1.9c-0.9-0.8-1.6-1.8-2.2-2.9s-0.8-2.6-0.8-4.3
				c0-1.9,0.4-3.5,1.2-4.8c0.8-1.3,1.8-2.5,3.1-3.3s2.7-1.5,4.3-2c1.6-0.4,3.2-0.7,4.9-0.7c1.9,0,3.8,0.3,5.7,1c1.9,0.7,3.6,1.7,5,3
				L251.5,117.9z"/>
			<path d="M281.3,117.9c-0.7-0.9-1.7-1.7-2.9-2.3s-2.5-0.9-3.8-0.9c-0.8,0-1.5,0.1-2.3,0.3s-1.5,0.5-2.1,0.9
				c-0.6,0.4-1.1,0.9-1.5,1.6c-0.4,0.6-0.6,1.4-0.6,2.3c0,0.8,0.2,1.5,0.5,2.1c0.4,0.6,0.8,1.1,1.4,1.5c0.6,0.4,1.3,0.8,2.2,1.1
				s1.8,0.6,2.9,0.9c1.2,0.4,2.4,0.8,3.7,1.3c1.3,0.5,2.4,1.1,3.5,1.9c1.1,0.8,1.9,1.8,2.6,3c0.7,1.2,1,2.7,1,4.5
				c0,2-0.4,3.7-1.1,5.2s-1.7,2.7-2.9,3.7s-2.6,1.7-4.3,2.2c-1.6,0.5-3.4,0.7-5.1,0.7c-2.4,0-4.7-0.4-7-1.3
				c-2.3-0.9-4.2-2.2-5.6-3.9l4.7-4.4c0.9,1.2,2.1,2.2,3.6,3c1.5,0.7,3,1.1,4.5,1.1c0.8,0,1.5-0.1,2.3-0.3c0.8-0.2,1.5-0.5,2.2-1
				c0.6-0.4,1.2-1,1.6-1.7c0.4-0.7,0.6-1.5,0.6-2.5c0-1-0.2-1.8-0.7-2.4c-0.5-0.6-1.1-1.2-1.8-1.7c-0.8-0.5-1.7-0.9-2.7-1.2
				c-1-0.4-2.1-0.7-3.3-1.1c-1.1-0.4-2.2-0.8-3.3-1.2s-2.1-1.1-3-1.9c-0.9-0.8-1.6-1.8-2.2-2.9s-0.8-2.6-0.8-4.3
				c0-1.9,0.4-3.5,1.2-4.8c0.8-1.3,1.8-2.5,3.1-3.3c1.3-0.9,2.7-1.5,4.3-2c1.6-0.4,3.2-0.7,4.9-0.7c1.9,0,3.8,0.3,5.7,1
				c1.9,0.7,3.6,1.7,5,3L281.3,117.9z"/>
			<path d="M313,131l-13.8-20.8h8l9.3,15.5l9.4-15.5h7.6L319.6,131v16h-6.5L313,131L313,131z"/>
			<path d="M333.3,128.5c0-2.9,0.5-5.6,1.5-8c1-2.4,2.4-4.4,4.1-6.1c1.8-1.7,3.8-2.9,6.2-3.8s5-1.3,7.9-1.3c2.9,0,5.5,0.4,8,1.3
				s4.5,2.2,6.3,3.8c1.8,1.7,3.1,3.7,4.1,6.1c1,2.4,1.5,5,1.5,8c0,2.9-0.5,5.5-1.5,7.9c-1,2.4-2.4,4.4-4.1,6.1s-3.9,3.1-6.3,4
				c-2.4,0.9-5.1,1.4-8,1.4c-2.8,0-5.5-0.5-7.9-1.4s-4.5-2.3-6.2-4c-1.8-1.7-3.1-3.8-4.1-6.1S333.3,131.4,333.3,128.5z M340.4,128.5
				c0,2,0.3,3.8,0.9,5.4c0.6,1.6,1.5,3.1,2.6,4.3c1.1,1.2,2.5,2.2,4,2.8c1.5,0.7,3.2,1,5.1,1s3.6-0.3,5.1-1c1.6-0.7,2.9-1.6,4-2.8
				s2-2.6,2.6-4.3c0.6-1.6,0.9-3.5,0.9-5.4c0-1.9-0.3-3.7-0.9-5.3c-0.6-1.6-1.5-3.1-2.6-4.3c-1.1-1.2-2.4-2.2-4-2.9s-3.3-1-5.2-1
				s-3.6,0.3-5.2,1s-2.9,1.7-4,2.9c-1.1,1.2-2,2.6-2.6,4.3C340.7,124.8,340.4,126.6,340.4,128.5z"/>
			<path d="M408.5,133.5c0,2.2-0.4,4.2-1.1,6s-1.8,3.3-3.1,4.6s-2.9,2.2-4.7,2.9s-3.8,1-5.9,1c-2.1,0-4.1-0.3-5.9-1
				c-1.8-0.7-3.4-1.6-4.7-2.9c-1.3-1.2-2.4-2.8-3.1-4.6c-0.8-1.8-1.1-3.8-1.1-6v-23.3h6.5v23c0,1.1,0.1,2.1,0.4,3.2s0.7,2,1.4,2.8
				s1.5,1.5,2.5,2s2.4,0.8,3.9,0.8s2.9-0.3,3.9-0.8s1.9-1.2,2.5-2c0.6-0.8,1.1-1.8,1.4-2.8c0.3-1.1,0.4-2.1,0.4-3.2v-23h6.5
				L408.5,133.5L408.5,133.5z"/>
			<path d="M429.3,110.2h8.7l17.1,27.6h0.1v-27.6h6.5V147h-8.3L436,118.6h-0.1V147h-6.5L429.3,110.2L429.3,110.2z"/>
			<path d="M469.9,110.2h24.4v5.7h-17.8v9.4h16.9v5.5h-16.9v10.4h18.8v5.8h-25.3V110.2z"/>
			<path d="M501.6,110.2H526v5.7h-17.8v9.4H525v5.5h-16.9v10.4h18.8v5.8h-25.3L501.6,110.2L501.6,110.2z"/>
			<path d="M533.3,110.2h13c2.4,0,4.8,0.3,7.2,0.9s4.6,1.7,6.5,3.1c1.9,1.4,3.5,3.3,4.7,5.7c1.2,2.3,1.8,5.2,1.8,8.7
				c0,3.2-0.6,6-1.8,8.3s-2.8,4.2-4.7,5.7s-4.1,2.6-6.5,3.3c-2.4,0.7-4.8,1.1-7.2,1.1h-13V110.2z M545.3,141.3
				c1.7,0,3.4-0.2,5.1-0.6c1.7-0.4,3.2-1.1,4.6-2c1.4-0.9,2.5-2.2,3.3-3.9c0.9-1.6,1.3-3.7,1.3-6.2c0-2.6-0.4-4.8-1.3-6.4
				c-0.9-1.7-2-3-3.3-3.9s-2.9-1.6-4.6-1.9c-1.7-0.3-3.4-0.5-5.1-0.5h-5.5v25.5H545.3z"/>
			<path d="M592.2,115.9h-11.3v-5.7h29.1v5.7h-11.3V147h-6.5L592.2,115.9L592.2,115.9z"/>
			<path d="M611,128.5c0-2.9,0.5-5.6,1.5-8s2.4-4.4,4.1-6.1c1.8-1.7,3.8-2.9,6.2-3.8s5-1.3,7.9-1.3c2.9,0,5.5,0.4,8,1.3
				s4.5,2.2,6.3,3.8c1.8,1.7,3.2,3.7,4.1,6.1c1,2.4,1.5,5,1.5,8c0,2.9-0.5,5.5-1.5,7.9s-2.4,4.4-4.1,6.1c-1.8,1.7-3.9,3.1-6.3,4
				c-2.4,0.9-5.1,1.4-8,1.4c-2.8,0-5.5-0.5-7.9-1.4c-2.4-0.9-4.5-2.3-6.2-4c-1.8-1.7-3.1-3.8-4.1-6.1C611.5,134,611,131.4,611,128.5
				z M618.1,128.5c0,2,0.3,3.8,0.9,5.4c0.6,1.6,1.5,3.1,2.6,4.3c1.1,1.2,2.5,2.2,4,2.8c1.5,0.7,3.2,1,5.1,1s3.6-0.3,5.2-1
				c1.6-0.7,2.9-1.6,4-2.8s2-2.6,2.6-4.3s0.9-3.5,0.9-5.4c0-1.9-0.3-3.7-0.9-5.3c-0.6-1.6-1.5-3.1-2.6-4.3c-1.1-1.2-2.4-2.2-4-2.9
				s-3.3-1-5.2-1c-1.9,0-3.6,0.3-5.2,1s-2.9,1.7-4,2.9s-2,2.6-2.6,4.3C618.4,124.8,618.1,126.6,618.1,128.5z"/>
			<path d="M653,143.4c0-1.1,0.4-2.1,1.2-2.9s1.8-1.2,2.9-1.2c1.1,0,2.1,0.4,2.9,1.1c0.8,0.8,1.2,1.7,1.2,2.8s-0.4,2.1-1.2,2.9
				s-1.8,1.2-2.9,1.2c-0.5,0-1.1-0.1-1.6-0.3s-0.9-0.5-1.3-0.8c-0.4-0.4-0.7-0.8-0.9-1.2C653.1,144.4,653,143.9,653,143.4z"/>
		</g>
	</g>
</g>
<g id="Guides">
</g>
</svg>
