<?xml version="1.0" encoding="utf-8"?>
<!-- Generator: Adobe Illustrator 27.7.0, SVG Export Plug-In . SVG Version: 6.00 Build 0)  -->
<svg version="1.1" id="Layer_1" xmlns="http://www.w3.org/2000/svg" xmlns:xlink="http://www.w3.org/1999/xlink" x="0px" y="0px"
	 viewBox="0 0 240 112" style="enable-background:new 0 0 240 112;" xml:space="preserve">
<style type="text/css">
	.st0{fill:none;}
	.st1{fill:#0069A7;}
	.st2{fill:#76BC21;}
</style>
<g id="border_box">
	<rect class="st0" width="240" height="112"/>
</g>
<g id="tagline">
	<path d="M156.1,75.7V73l-3.2-3.5h1.4l2.5,2.7l2.3-2.7h1.4l-3.2,3.5v2.7H156.1z"/>
	<path d="M147.9,73.1h2.5v1.7h-4.9v-4.3h6c-0.1-0.3-0.1-0.5-0.3-0.6c-0.2-0.2-0.6-0.3-1.2-0.3h-4.2c-0.6,0-1,0.1-1.2,0.3
		c-0.2,0.2-0.3,0.6-0.3,1.2v3.2c0,0.6,0.1,0.9,0.3,1.1c0.2,0.2,0.6,0.3,1.2,0.3h4.2c0.6,0,1-0.1,1.2-0.3c0.2-0.2,0.3-0.6,0.3-1.1v-2
		h-3.7V73.1z"/>
	<path d="M134.5,71c0-0.6,0.1-0.9,0.3-1.2c0.2-0.2,0.6-0.3,1.2-0.3h4.4c0.6,0,1,0.1,1.2,0.3c0.2,0.2,0.3,0.6,0.3,1.2v3.2
		c0,0.6-0.1,0.9-0.3,1.1s-0.6,0.3-1.2,0.3H136c-0.6,0-1-0.1-1.2-0.3c-0.2-0.2-0.3-0.6-0.3-1.2V71z M135.7,74.8h5.1v-4.3h-5.1V74.8z"
		/>
	<path d="M127,75.7v-6.2h1.2v5.2h4.8v0.9H127z"/>
	<path d="M117,71c0-0.6,0.1-0.9,0.3-1.2c0.2-0.2,0.6-0.3,1.2-0.3h4.4c0.6,0,1,0.1,1.2,0.3c0.2,0.2,0.3,0.6,0.3,1.2v3.2
		c0,0.6-0.1,0.9-0.3,1.1c-0.2,0.2-0.6,0.3-1.2,0.3h-4.4c-0.6,0-1-0.1-1.2-0.3c-0.2-0.2-0.3-0.6-0.3-1.2V71z M118.2,74.8h5.1v-4.3
		h-5.1V74.8z"/>
	<path d="M108.3,70.8c0.1,0.4,0.1,0.7,0.1,1.1v3.8h-1.1v-6.2h0.9l4.5,4c0.3,0.3,0.5,0.5,0.7,0.8c-0.1-0.4-0.1-0.7-0.1-1.1v-3.7h1.1
		v6.2h-0.8l-4.6-4.1C108.8,71.4,108.5,71.1,108.3,70.8z"/>
	<path d="M97.4,75.7v-6.1h1.2V72h4.9v-2.5h1.2v6.1h-1.2V73h-4.9v2.7H97.4z"/>
	<path d="M89.6,74.8v-4.3H95c-0.1-0.3-0.1-0.5-0.3-0.6c-0.2-0.2-0.6-0.3-1.2-0.3H90c-0.6,0-1,0.1-1.2,0.3c-0.2,0.2-0.3,0.6-0.3,1.2
		v3.2c0,0.6,0.1,1,0.3,1.2c0.2,0.2,0.6,0.3,1.2,0.3h3.6c0.6,0,1-0.1,1.2-0.3c0.1-0.1,0.2-0.3,0.3-0.6H89.6z"/>
	<path d="M80.3,75.7v-6.2h6.2v0.9h-5V72h3V73h-3v1.8h5.1v0.9H80.3z"/>
	<path d="M75.4,69.2v6.5h-1.2v-6.5h-3.4v-1h8.1v1H75.4z"/>
	<path d="M63.9,72.3c-0.2-0.2-0.6-0.3-1.2-0.3h-4v-1.6H64c-0.1-0.3-0.1-0.5-0.3-0.6c-0.2-0.2-0.6-0.3-1.2-0.3h-3.4
		c-0.6,0-1,0.1-1.2,0.3c-0.2,0.2-0.3,0.6-0.3,1.2v0.6c0,0.6,0.1,0.9,0.3,1.1c0.2,0.2,0.6,0.3,1.2,0.3h4v1.7h-5.7
		c0,0.3,0.1,0.5,0.3,0.6c0.2,0.2,0.6,0.3,1.2,0.3h3.7c0.6,0,1-0.1,1.2-0.3c0.2-0.2,0.3-0.6,0.3-1.2v-0.7
		C64.2,72.9,64.1,72.6,63.9,72.3z"/>
	<path d="M55.1,68.2c0.2,0,0.3,0,0.4,0.1c0,0,0.1,0.2,0.1,0.3v1.1l-1,1.6h-0.6l0.9-1.6h-0.5c-0.1,0-0.2,0-0.2-0.1
		c0-0.1-0.1-0.2-0.1-0.3v-0.7c0-0.2,0-0.3,0.1-0.3s0.2-0.1,0.4-0.1H55.1z"/>
	<path d="M45,75.7v-6.2h6.2v0.9h-5V72h3V73h-3v1.8h5.1v0.9H45z"/>
	<path d="M36.3,75.7v-6.2h5c0.9,0,1.3,0.4,1.3,1.2v1.4c0,0.8-0.4,1.2-1.3,1.2h-0.8l2.7,2.4h-1.6l-2.5-2.4h-1.7v2.4H36.3z M40.7,70.5
		h-3.3v2h3.3c0.3,0,0.5-0.1,0.6-0.2c0-0.1,0.1-0.2,0.1-0.4v-0.7C41.4,70.7,41.2,70.5,40.7,70.5z"/>
	<path d="M28,69.5v5.2h4.5v-5.2h1.2v4.7c0,0.6-0.1,0.9-0.3,1.1s-0.6,0.3-1.2,0.3h-3.8c-0.6,0-1-0.1-1.2-0.3
		c-0.2-0.2-0.3-0.6-0.3-1.1v-4.7H28z"/>
	<path d="M22.3,70.5v5.2h-1.2v-5.2h-2.9v-0.9h7v0.9H22.3z"/>
	<path d="M10.2,75.7l3.6-6.2h1.1l3.6,6.2h-1.3l-0.8-1.4h-4.3l-0.8,1.4H10.2z M12.6,73.4h3.3l-1.6-2.9L12.6,73.4z"/>
	<path d="M0,75.7v-7.5h0.8l5.6,5c0.3,0.2,0.6,0.6,0.9,0.9c-0.1-0.5-0.1-1.1-0.1-1.8v-4.1h1.2v7.5H7.6l-5.8-5.2
		c-0.2-0.2-0.3-0.3-0.4-0.3c-0.2-0.2-0.3-0.3-0.4-0.5c0.1,0.4,0.1,1,0.1,1.6v4.4H0z"/>
</g>
<g id="PURTEQ">
	<path class="st1" d="M0,58V28h25.7c2.4,0,4.1,0.5,5.2,1.4c1.1,0.9,1.6,2.4,1.6,4.4v6.7c0,2-0.5,3.5-1.6,4.4
		c-1.1,0.9-2.8,1.4-5.2,1.4H6.9V58H0z M22.6,33.2H6.9v7.9h15.7c1.2,0,2-0.2,2.5-0.5c0.4-0.3,0.7-1,0.7-1.9v-3.2
		c0-0.9-0.2-1.5-0.7-1.8C24.6,33.4,23.8,33.2,22.6,33.2"/>
	<path class="st1" d="M64.7,35v-7h7v7H64.7z M64.7,38.4v13.9H44.8V38.4h-7v12.5c0,2.7,0.5,4.6,1.5,5.6c1,1,3,1.5,5.9,1.5h19
		c2.9,0,4.9-0.5,5.9-1.5c1-1,1.5-2.9,1.5-5.6V38.4H64.7z M44.8,35v-7h-7v7H44.8z"/>
	<path class="st1" d="M77.7,58V28h25.7c2.4,0,4.1,0.5,5.2,1.4c1.1,0.9,1.6,2.4,1.6,4.4v7c0,2-0.5,3.5-1.6,4.4
		c-1.1,0.9-2.8,1.4-5.2,1.4h-3.9L113.3,58h-10L91.2,46.7h-6.6V58H77.7z M100.2,33.2H84.5v8.3h15.7c1.2,0,2-0.2,2.5-0.5
		c0.4-0.3,0.7-1,0.7-1.9v-3.6c0-0.9-0.2-1.5-0.7-1.8C102.3,33.4,101.5,33.2,100.2,33.2"/>
	<polygon class="st2" points="135.5,33.4 135.5,58 128.5,58 128.5,33.4 114.7,33.4 114.7,28 149.3,28 149.3,33.4 	"/>
	<polygon class="st2" points="154.1,58 154.1,28 184.8,28 184.8,33.1 161.1,33.1 161.1,39.8 174.9,39.8 174.9,44.9 161.1,44.9 
		161.1,52.4 185.1,52.4 185.1,58 	"/>
	<path class="st2" d="M191,35.1c0-2.7,0.5-4.6,1.5-5.6c1-1,3-1.5,5.9-1.5h22.1c2.9,0,4.9,0.5,5.9,1.5c1,1,1.5,2.9,1.5,5.6v15.8
		c0,2.7-0.5,4.6-1.5,5.6c-1,1-3,1.5-5.9,1.5h-3.2l3.8,7.7h-6.9l-3.4-7.7h-12.3c-2.9,0-4.9-0.5-5.9-1.5c-1-1-1.5-2.9-1.5-5.6V35.1z
		 M198,52.4h10.3l-2.8-6.5l5.1-2l4.1,8.5h6.4v-19h-23V52.4z"/>
	<path class="st2" d="M229.7,28c0-0.3,0.1-0.6,0.2-0.9c0.1-0.3,0.3-0.5,0.5-0.8c0.2-0.2,0.5-0.4,0.8-0.5c0.3-0.1,0.6-0.2,0.9-0.2
		c0.3,0,0.6,0.1,0.9,0.2c0.3,0.1,0.5,0.3,0.8,0.5c0.2,0.2,0.4,0.5,0.5,0.8c0.1,0.3,0.2,0.6,0.2,0.9c0,0.3-0.1,0.6-0.2,0.9
		c-0.1,0.3-0.3,0.5-0.5,0.7c-0.2,0.2-0.5,0.4-0.8,0.5c-0.3,0.1-0.6,0.2-0.9,0.2c-0.3,0-0.6-0.1-0.9-0.2c-0.3-0.1-0.5-0.3-0.8-0.5
		c-0.2-0.2-0.4-0.5-0.5-0.7C229.8,28.6,229.7,28.3,229.7,28 M230.1,28c0,0.3,0.1,0.5,0.2,0.8c0.1,0.2,0.2,0.5,0.4,0.6
		c0.2,0.2,0.4,0.3,0.6,0.4c0.2,0.1,0.5,0.2,0.8,0.2c0.3,0,0.5-0.1,0.8-0.2c0.2-0.1,0.5-0.2,0.6-0.4c0.2-0.2,0.3-0.4,0.4-0.6
		c0.1-0.2,0.2-0.5,0.2-0.8c0-0.3-0.1-0.5-0.2-0.8c-0.1-0.2-0.2-0.5-0.4-0.6c-0.2-0.2-0.4-0.3-0.6-0.4c-0.2-0.1-0.5-0.2-0.8-0.2
		c-0.3,0-0.5,0.1-0.8,0.2c-0.2,0.1-0.5,0.2-0.6,0.4c-0.2,0.2-0.3,0.4-0.4,0.6C230.1,27.5,230.1,27.7,230.1,28 M231.2,26.7h0.9
		c0.1,0,0.2,0,0.4,0c0.1,0,0.2,0.1,0.3,0.1c0.1,0.1,0.2,0.1,0.2,0.2c0.1,0.1,0.1,0.2,0.1,0.4c0,0.2-0.1,0.4-0.2,0.5
		c-0.1,0.1-0.3,0.2-0.4,0.2l0.7,1.2h-0.6l-0.6-1.1h-0.3v1.1h-0.5V26.7z M232,27.8c0.1,0,0.3,0,0.4-0.1c0.1-0.1,0.2-0.2,0.2-0.3
		c0-0.1-0.1-0.2-0.2-0.3c-0.1,0-0.2-0.1-0.4-0.1h-0.4v0.8H232z"/>
</g>
</svg>
