<?xml version="1.0" encoding="utf-8"?>
<!-- Generator: Adobe Illustrator 24.3.0, SVG Export Plug-In . SVG Version: 6.00 Build 0)  -->
<svg version="1.1" id="Layer_1" xmlns="http://www.w3.org/2000/svg" xmlns:xlink="http://www.w3.org/1999/xlink" x="0px" y="0px"
	 viewBox="0 0 262 112" style="enable-background:new 0 0 262 112;" xml:space="preserve">
<style type="text/css">
	.st0{fill:none;}
	.st1{fill:#056AA8;}
	.st2{fill:#77BD43;}
	.st3{fill:#010101;}
</style>
<rect id="bounding_box_for_SVG" class="st0" width="262" height="112"/>
<g id="PURTEQ_logo">
	<g>
		<path class="st1" d="M221.84,67.08c0,0-7.12,9.46-7.12,15.36c0,4.43,3.19,7.51,7.12,7.51c3.93,0,7.12-2.52,7.12-7.51
			C228.96,76.54,221.84,67.08,221.84,67.08z M222.69,88.26c-0.47,0.2,0.86-0.39,2.81-4.4c1.66-3.43,0.66-5.82,0.66-5.82
			S229.99,85.17,222.69,88.26z"/>
		<g>
			<path class="st1" d="M0,58V28h25.66c2.38,0,4.11,0.46,5.18,1.38c1.07,0.92,1.6,2.4,1.6,4.44v6.7c0,2.03-0.53,3.5-1.6,4.41
				c-1.07,0.92-2.8,1.38-5.18,1.38H6.87V58H0z M22.56,33.19H6.87v7.95h15.7c1.21,0,2.04-0.18,2.48-0.53
				c0.44-0.35,0.67-0.97,0.67-1.86v-3.21c0-0.87-0.22-1.48-0.67-1.83C24.6,33.37,23.77,33.19,22.56,33.19z"/>
			<path class="st1" d="M44.8,28v24.35h19.9V28h6.95v22.91c0,2.74-0.51,4.61-1.53,5.61C69.09,57.5,67.13,58,64.21,58H45.25
				c-2.89,0-4.86-0.5-5.89-1.49c-1.03-0.99-1.55-2.86-1.55-5.61V28H44.8z"/>
			<path class="st1" d="M77.68,58V28h25.66c2.38,0,4.11,0.46,5.18,1.38c1.07,0.92,1.6,2.4,1.6,4.44v7.04c0,2.03-0.53,3.5-1.6,4.43
				c-1.07,0.93-2.8,1.39-5.18,1.39h-3.92L113.27,58h-10.02L91.16,46.68h-6.61V58H77.68z M100.24,33.19h-15.7v8.34h15.7
				c1.21,0,2.04-0.17,2.48-0.52c0.44-0.35,0.67-0.97,0.67-1.86v-3.6c0-0.87-0.22-1.48-0.67-1.83
				C102.28,33.37,101.45,33.19,100.24,33.19z"/>
			<path class="st2" d="M135.48,33.36V58h-6.98V33.36h-13.76V28h34.57v5.36H135.48z"/>
			<path class="st2" d="M154.11,58V28h30.71v5.11h-23.73v6.7h13.85v5.11h-13.85v7.44h24.01V58H154.11z"/>
			<path class="st1" d="M206.55,51.22l-2.56-5.98l7.12-2.88l4.21,8.86h4.56V36.78c-2.13-0.35-5.28,0.08-9.8,2.54
				c-4.93,2.69-8.62,2.41-10.95,1.63v10.27H206.55z"/>
			<path class="st2" d="M191.01,35.1c0-2.73,0.51-4.59,1.53-5.59c1.02-1,2.99-1.5,5.9-1.5h22.08c2.91,0,4.88,0.5,5.9,1.5
				c1.02,1,1.53,2.87,1.53,5.59v15.81c0,2.74-0.51,4.61-1.53,5.61c-1.02,0.99-2.99,1.49-5.9,1.49h-3.24l3.78,7.72h-6.93L210.77,58
				h-12.32c-2.92,0-4.88-0.5-5.9-1.49c-1.02-0.99-1.53-2.86-1.53-5.61V35.1z M198,52.35h10.27l-2.78-6.5l5.05-2.04l4.06,8.54h6.41
				V33.36H198V52.35z"/>
		</g>
		<path class="st2" d="M229.69,28.01c0-0.33,0.06-0.64,0.19-0.92c0.13-0.29,0.3-0.54,0.51-0.75c0.22-0.21,0.47-0.38,0.76-0.51
			c0.29-0.13,0.6-0.19,0.92-0.19c0.33,0,0.63,0.06,0.92,0.19c0.29,0.13,0.54,0.29,0.76,0.51c0.22,0.21,0.39,0.46,0.51,0.75
			c0.13,0.29,0.19,0.6,0.19,0.92s-0.06,0.63-0.19,0.92c-0.13,0.29-0.3,0.53-0.51,0.75c-0.22,0.21-0.47,0.38-0.76,0.5
			c-0.29,0.12-0.6,0.18-0.92,0.18c-0.33,0-0.64-0.06-0.92-0.18c-0.29-0.12-0.54-0.29-0.76-0.5c-0.22-0.21-0.39-0.46-0.51-0.75
			C229.76,28.64,229.69,28.34,229.69,28.01z M230.07,28.01c0,0.27,0.05,0.53,0.16,0.77c0.1,0.24,0.25,0.46,0.43,0.64
			c0.18,0.18,0.39,0.33,0.64,0.43c0.24,0.1,0.5,0.16,0.78,0.16c0.28,0,0.54-0.05,0.78-0.16c0.24-0.1,0.46-0.25,0.64-0.43
			c0.18-0.18,0.32-0.4,0.43-0.64c0.1-0.24,0.16-0.5,0.16-0.77c0-0.28-0.05-0.54-0.16-0.78c-0.1-0.24-0.25-0.46-0.43-0.64
			c-0.18-0.18-0.39-0.32-0.64-0.43c-0.24-0.1-0.5-0.16-0.78-0.16c-0.28,0-0.54,0.05-0.78,0.16c-0.24,0.1-0.46,0.25-0.64,0.43
			c-0.18,0.18-0.32,0.39-0.43,0.64C230.12,27.47,230.07,27.73,230.07,28.01z M231.14,26.66h0.94c0.13,0,0.25,0.01,0.37,0.04
			c0.12,0.03,0.22,0.07,0.32,0.14s0.17,0.14,0.22,0.24c0.06,0.1,0.08,0.22,0.08,0.37c0,0.2-0.06,0.35-0.17,0.47
			c-0.11,0.12-0.26,0.2-0.45,0.25l0.72,1.17h-0.58l-0.63-1.12h-0.34v1.12h-0.48V26.66z M232.01,27.83c0.14,0,0.27-0.03,0.4-0.08
			c0.13-0.05,0.19-0.16,0.19-0.32c0-0.15-0.06-0.24-0.17-0.29c-0.11-0.05-0.23-0.07-0.36-0.07h-0.44v0.76H232.01z"/>
	</g>
	<g>
		<path class="st3" d="M37.02,88.12h-1.18l4.58-10.61h1.05l4.55,10.61h-1.2l-1.17-2.79h-5.48L37.02,88.12z M38.58,84.35h4.67
			l-2.34-5.63L38.58,84.35z"/>
		<path class="st3" d="M57.39,82.71c-0.17-0.27-0.42-0.49-0.74-0.67c-0.32-0.17-0.68-0.26-1.06-0.26c-0.41,0-0.78,0.07-1.11,0.22
			c-0.33,0.14-0.61,0.34-0.85,0.6c-0.23,0.25-0.41,0.55-0.54,0.9c-0.13,0.34-0.19,0.72-0.19,1.12s0.06,0.77,0.19,1.11
			c0.13,0.34,0.3,0.64,0.53,0.89c0.23,0.25,0.51,0.45,0.84,0.6c0.33,0.14,0.7,0.22,1.11,0.22c0.45,0,0.83-0.09,1.14-0.25
			c0.31-0.17,0.56-0.39,0.76-0.66l0.76,0.57c-0.3,0.37-0.67,0.66-1.1,0.88c-0.43,0.22-0.96,0.33-1.57,0.33
			c-0.57,0-1.08-0.09-1.54-0.28c-0.46-0.18-0.85-0.44-1.18-0.77c-0.32-0.33-0.58-0.72-0.76-1.17c-0.18-0.45-0.27-0.94-0.27-1.47
			c0-0.53,0.09-1.02,0.27-1.47c0.18-0.45,0.43-0.84,0.76-1.17c0.32-0.33,0.72-0.59,1.18-0.77c0.46-0.18,0.97-0.28,1.54-0.28
			c0.47,0,0.95,0.1,1.43,0.31c0.48,0.2,0.88,0.51,1.18,0.91L57.39,82.71z"/>
		<path class="st3" d="M61.56,88.12h-1.02V76.8h1.02V88.12z"/>
		<path class="st3" d="M71.34,84.41c0,0.07,0,0.14,0,0.22c0,0.08-0.01,0.16-0.02,0.25h-5.81c0.01,0.35,0.08,0.68,0.21,0.99
			c0.13,0.31,0.31,0.58,0.54,0.81s0.5,0.41,0.81,0.55c0.31,0.14,0.64,0.2,1,0.2c0.53,0,0.99-0.12,1.37-0.37
			c0.38-0.24,0.68-0.53,0.88-0.85l0.76,0.6c-0.42,0.53-0.88,0.91-1.39,1.14c-0.5,0.23-1.05,0.34-1.63,0.34c-0.52,0-1-0.09-1.45-0.28
			c-0.44-0.18-0.83-0.44-1.15-0.77c-0.32-0.33-0.57-0.72-0.76-1.17c-0.18-0.45-0.28-0.94-0.28-1.47c0-0.53,0.09-1.02,0.27-1.47
			c0.18-0.45,0.43-0.84,0.75-1.17c0.32-0.33,0.69-0.59,1.12-0.77c0.43-0.18,0.89-0.28,1.39-0.28c0.55,0,1.03,0.09,1.45,0.28
			c0.42,0.18,0.77,0.43,1.05,0.75c0.28,0.31,0.49,0.68,0.64,1.1C71.27,83.48,71.34,83.93,71.34,84.41z M70.31,84.08
			c-0.03-0.66-0.24-1.21-0.64-1.64s-0.96-0.65-1.69-0.65c-0.34,0-0.65,0.06-0.94,0.19c-0.29,0.13-0.54,0.29-0.76,0.51
			c-0.22,0.22-0.39,0.46-0.52,0.73c-0.13,0.27-0.2,0.56-0.23,0.86H70.31z"/>
		<path class="st3" d="M78.53,83.58c0-0.6-0.16-1.06-0.48-1.35c-0.32-0.3-0.78-0.45-1.39-0.45c-0.42,0-0.81,0.07-1.17,0.22
			c-0.36,0.15-0.66,0.35-0.91,0.6l-0.57-0.67c0.29-0.29,0.67-0.53,1.15-0.72c0.47-0.19,1.01-0.28,1.61-0.28
			c0.38,0,0.73,0.05,1.06,0.16c0.33,0.1,0.62,0.26,0.87,0.47c0.25,0.21,0.44,0.47,0.58,0.79c0.14,0.32,0.21,0.69,0.21,1.12v3.07
			c0,0.27,0.01,0.55,0.03,0.84c0.02,0.29,0.05,0.53,0.09,0.73h-0.91c-0.03-0.17-0.05-0.35-0.07-0.55s-0.03-0.39-0.03-0.58h-0.03
			c-0.32,0.47-0.68,0.81-1.09,1.01c-0.4,0.2-0.89,0.31-1.46,0.31c-0.27,0-0.55-0.04-0.83-0.11c-0.28-0.08-0.54-0.2-0.78-0.37
			c-0.23-0.17-0.43-0.39-0.58-0.66c-0.16-0.27-0.23-0.6-0.23-0.99c0-0.54,0.14-0.97,0.41-1.29c0.27-0.32,0.64-0.55,1.1-0.71
			c0.46-0.16,0.99-0.26,1.58-0.3c0.59-0.04,1.21-0.07,1.85-0.07V83.58z M78.23,84.62c-0.42,0-0.84,0.02-1.27,0.05
			c-0.42,0.04-0.81,0.1-1.15,0.21c-0.34,0.11-0.63,0.26-0.85,0.46c-0.22,0.2-0.33,0.46-0.33,0.79c0,0.25,0.05,0.46,0.14,0.63
			c0.09,0.17,0.22,0.31,0.38,0.41c0.16,0.11,0.34,0.18,0.53,0.22c0.19,0.04,0.39,0.07,0.59,0.07c0.36,0,0.68-0.06,0.96-0.19
			c0.28-0.13,0.51-0.29,0.7-0.51c0.19-0.21,0.33-0.46,0.43-0.74c0.1-0.28,0.15-0.57,0.15-0.88v-0.52H78.23z"/>
		<path class="st3" d="M83.7,81.11c0.02,0.19,0.04,0.4,0.05,0.63c0.01,0.23,0.02,0.42,0.02,0.57h0.03c0.2-0.41,0.52-0.74,0.97-1
			c0.45-0.25,0.92-0.38,1.42-0.38c0.89,0,1.56,0.26,2,0.79c0.44,0.53,0.67,1.23,0.67,2.1v4.3h-1.02v-3.88c0-0.37-0.03-0.7-0.09-1
			c-0.06-0.3-0.16-0.56-0.31-0.77c-0.14-0.22-0.34-0.38-0.58-0.5c-0.25-0.12-0.55-0.18-0.92-0.18c-0.27,0-0.53,0.05-0.79,0.16
			s-0.48,0.28-0.68,0.5c-0.2,0.22-0.36,0.51-0.48,0.85c-0.12,0.34-0.18,0.75-0.18,1.22v3.6h-1.02v-5.47c0-0.19-0.01-0.43-0.02-0.73
			c-0.01-0.3-0.03-0.57-0.04-0.81H83.7z"/>
		<path class="st3" d="M98.54,84.41c0,0.07,0,0.14,0,0.22c0,0.08-0.01,0.16-0.02,0.25h-5.81c0.01,0.35,0.08,0.68,0.21,0.99
			c0.13,0.31,0.31,0.58,0.54,0.81s0.5,0.41,0.81,0.55c0.31,0.14,0.64,0.2,1,0.2c0.53,0,0.99-0.12,1.37-0.37
			c0.38-0.24,0.68-0.53,0.88-0.85l0.76,0.6c-0.42,0.53-0.88,0.91-1.39,1.14c-0.5,0.23-1.05,0.34-1.63,0.34c-0.52,0-1-0.09-1.45-0.28
			c-0.44-0.18-0.83-0.44-1.15-0.77c-0.32-0.33-0.57-0.72-0.76-1.17c-0.18-0.45-0.28-0.94-0.28-1.47c0-0.53,0.09-1.02,0.27-1.47
			c0.18-0.45,0.43-0.84,0.75-1.17c0.32-0.33,0.69-0.59,1.12-0.77c0.43-0.18,0.89-0.28,1.39-0.28c0.55,0,1.03,0.09,1.45,0.28
			c0.42,0.18,0.77,0.43,1.05,0.75c0.28,0.31,0.49,0.68,0.64,1.1C98.47,83.48,98.54,83.93,98.54,84.41z M97.51,84.08
			c-0.03-0.66-0.24-1.21-0.64-1.64s-0.96-0.65-1.69-0.65c-0.34,0-0.65,0.06-0.94,0.19c-0.29,0.13-0.54,0.29-0.76,0.51
			c-0.22,0.22-0.39,0.46-0.52,0.73c-0.13,0.27-0.2,0.56-0.23,0.86H97.51z"/>
		<path class="st3" d="M101.39,81.92c-0.01-0.3-0.03-0.57-0.05-0.81h0.97c0.02,0.19,0.04,0.4,0.05,0.63
			c0.01,0.23,0.02,0.42,0.02,0.57h0.03c0.2-0.41,0.5-0.74,0.9-1c0.4-0.25,0.85-0.38,1.35-0.38c0.13,0,0.25,0,0.35,0.02
			c0.11,0.01,0.21,0.03,0.32,0.06l-0.14,0.97c-0.06-0.02-0.16-0.04-0.3-0.06c-0.14-0.02-0.28-0.03-0.42-0.03
			c-0.27,0-0.53,0.05-0.78,0.15c-0.25,0.1-0.47,0.26-0.65,0.47c-0.19,0.21-0.34,0.49-0.45,0.82c-0.12,0.33-0.17,0.73-0.17,1.2v3.59
			h-1.02v-5.47C101.4,82.46,101.4,82.22,101.39,81.92z"/>
		<path class="st3" d="M106.93,90.22h-0.85l1-3.52h1.06L106.93,90.22z"/>
		<path class="st3" d="M119.02,82.77c-0.15-0.29-0.38-0.53-0.68-0.71c-0.3-0.18-0.65-0.28-1.04-0.28c-0.18,0-0.36,0.02-0.54,0.06
			c-0.18,0.04-0.34,0.11-0.48,0.19c-0.14,0.09-0.25,0.2-0.34,0.34c-0.09,0.14-0.13,0.3-0.13,0.49c0,0.33,0.13,0.58,0.4,0.76
			c0.27,0.18,0.69,0.32,1.27,0.44c0.83,0.17,1.44,0.42,1.83,0.74s0.59,0.76,0.59,1.31c0,0.4-0.08,0.74-0.23,1.01
			c-0.16,0.27-0.36,0.5-0.61,0.67c-0.25,0.18-0.53,0.3-0.85,0.37s-0.63,0.11-0.95,0.11c-0.53,0-1.04-0.11-1.54-0.33
			c-0.5-0.22-0.91-0.56-1.23-1.03l0.81-0.6c0.18,0.31,0.44,0.57,0.79,0.78c0.35,0.21,0.73,0.31,1.15,0.31
			c0.22,0,0.43-0.02,0.63-0.06c0.2-0.04,0.37-0.11,0.52-0.21c0.15-0.1,0.27-0.23,0.36-0.38c0.09-0.15,0.13-0.35,0.13-0.58
			c0-0.37-0.18-0.65-0.53-0.83c-0.35-0.18-0.87-0.36-1.54-0.52c-0.21-0.05-0.43-0.11-0.67-0.19c-0.23-0.07-0.45-0.18-0.65-0.33
			c-0.2-0.14-0.36-0.33-0.49-0.55c-0.13-0.22-0.2-0.49-0.2-0.82c0-0.36,0.07-0.67,0.21-0.92c0.14-0.25,0.33-0.46,0.56-0.63
			s0.5-0.29,0.8-0.37c0.3-0.08,0.61-0.12,0.93-0.12c0.49,0,0.96,0.11,1.42,0.33c0.46,0.22,0.8,0.53,1.03,0.93L119.02,82.77z"/>
		<path class="st3" d="M127.03,83.58c0-0.6-0.16-1.06-0.48-1.35c-0.32-0.3-0.78-0.45-1.39-0.45c-0.42,0-0.81,0.07-1.17,0.22
			c-0.36,0.15-0.66,0.35-0.91,0.6l-0.57-0.67c0.29-0.29,0.67-0.53,1.15-0.72c0.47-0.19,1.01-0.28,1.61-0.28
			c0.38,0,0.73,0.05,1.06,0.16c0.33,0.1,0.62,0.26,0.87,0.47c0.25,0.21,0.44,0.47,0.58,0.79c0.14,0.32,0.21,0.69,0.21,1.12v3.07
			c0,0.27,0.01,0.55,0.03,0.84c0.02,0.29,0.05,0.53,0.09,0.73h-0.91c-0.03-0.17-0.05-0.35-0.08-0.55c-0.02-0.2-0.03-0.39-0.03-0.58
			h-0.03c-0.32,0.47-0.68,0.81-1.09,1.01c-0.4,0.2-0.89,0.31-1.46,0.31c-0.27,0-0.55-0.04-0.83-0.11c-0.28-0.08-0.54-0.2-0.78-0.37
			s-0.43-0.39-0.58-0.66c-0.15-0.27-0.23-0.6-0.23-0.99c0-0.54,0.14-0.97,0.41-1.29c0.27-0.32,0.64-0.55,1.1-0.71
			c0.46-0.16,0.99-0.26,1.58-0.3c0.59-0.04,1.21-0.07,1.85-0.07V83.58z M126.73,84.62c-0.42,0-0.84,0.02-1.27,0.05
			c-0.42,0.04-0.81,0.1-1.15,0.21c-0.34,0.11-0.63,0.26-0.85,0.46c-0.22,0.2-0.33,0.46-0.33,0.79c0,0.25,0.05,0.46,0.14,0.63
			c0.09,0.17,0.22,0.31,0.38,0.41c0.16,0.11,0.34,0.18,0.53,0.22c0.2,0.04,0.39,0.07,0.59,0.07c0.36,0,0.68-0.06,0.96-0.19
			c0.28-0.13,0.51-0.29,0.7-0.51c0.19-0.21,0.33-0.46,0.43-0.74c0.1-0.28,0.15-0.57,0.15-0.88v-0.52H126.73z"/>
		<path class="st3" d="M134.25,81.96h-1.65v6.16h-1.02v-6.16h-1.47v-0.85h1.47v-1.92c0-0.8,0.19-1.43,0.58-1.89
			c0.39-0.46,0.99-0.69,1.8-0.69c0.13,0,0.27,0.01,0.42,0.02c0.15,0.02,0.29,0.04,0.42,0.08l-0.18,0.9
			c-0.11-0.03-0.22-0.05-0.33-0.07c-0.11-0.02-0.23-0.03-0.38-0.03c-0.27,0-0.49,0.05-0.67,0.13c-0.18,0.09-0.31,0.22-0.4,0.38
			s-0.16,0.36-0.19,0.58c-0.04,0.22-0.05,0.45-0.05,0.7v1.8h1.65V81.96z"/>
		<path class="st3" d="M142.76,84.41c0,0.07,0,0.14,0,0.22c0,0.08-0.01,0.16-0.02,0.25h-5.81c0.01,0.35,0.08,0.68,0.21,0.99
			c0.13,0.31,0.31,0.58,0.54,0.81s0.5,0.41,0.81,0.55c0.31,0.14,0.64,0.2,1,0.2c0.53,0,0.99-0.12,1.37-0.37
			c0.38-0.24,0.68-0.53,0.88-0.85l0.76,0.6c-0.42,0.53-0.88,0.91-1.39,1.14c-0.5,0.23-1.05,0.34-1.63,0.34c-0.52,0-1-0.09-1.45-0.28
			c-0.44-0.18-0.83-0.44-1.15-0.77c-0.32-0.33-0.57-0.72-0.76-1.17c-0.18-0.45-0.28-0.94-0.28-1.47c0-0.53,0.09-1.02,0.27-1.47
			c0.18-0.45,0.43-0.84,0.75-1.17c0.32-0.33,0.69-0.59,1.12-0.77c0.43-0.18,0.89-0.28,1.39-0.28c0.55,0,1.03,0.09,1.45,0.28
			c0.42,0.18,0.77,0.43,1.05,0.75c0.28,0.31,0.49,0.68,0.64,1.1C142.69,83.48,142.76,83.93,142.76,84.41z M141.73,84.08
			c-0.03-0.66-0.24-1.21-0.64-1.64c-0.39-0.43-0.96-0.65-1.69-0.65c-0.34,0-0.65,0.06-0.94,0.19c-0.29,0.13-0.54,0.29-0.76,0.51
			c-0.22,0.22-0.39,0.46-0.52,0.73c-0.13,0.27-0.2,0.56-0.23,0.86H141.73z"/>
		<path class="st3" d="M145.61,81.92c-0.01-0.3-0.03-0.57-0.05-0.81h0.97c0.02,0.19,0.04,0.4,0.05,0.63s0.02,0.42,0.02,0.57h0.03
			c0.2-0.41,0.5-0.74,0.9-1c0.4-0.25,0.85-0.38,1.35-0.38c0.13,0,0.25,0,0.35,0.02c0.11,0.01,0.21,0.03,0.32,0.06l-0.14,0.97
			c-0.06-0.02-0.16-0.04-0.3-0.06c-0.14-0.02-0.28-0.03-0.42-0.03c-0.27,0-0.53,0.05-0.78,0.15c-0.25,0.1-0.47,0.26-0.65,0.47
			c-0.19,0.21-0.34,0.49-0.45,0.82c-0.12,0.33-0.17,0.73-0.17,1.2v3.59h-1.02v-5.47C145.62,82.46,145.62,82.22,145.61,81.92z"/>
		<path class="st3" d="M156.24,81.11l1.69,5.69h0.03l1.89-5.69h0.99l1.92,5.69h0.03l1.68-5.69h1.08l-2.22,7.01h-1.11l-1.87-5.68
			h-0.03l-1.84,5.68h-1.11l-2.22-7.01H156.24z"/>
		<path class="st3" d="M174.92,84.62c0,0.53-0.09,1.02-0.28,1.47c-0.18,0.45-0.44,0.84-0.77,1.17c-0.33,0.33-0.72,0.59-1.18,0.77
			c-0.46,0.18-0.96,0.28-1.51,0.28c-0.54,0-1.04-0.09-1.5-0.28c-0.46-0.18-0.85-0.44-1.18-0.77c-0.33-0.33-0.59-0.72-0.77-1.17
			c-0.18-0.45-0.28-0.94-0.28-1.47c0-0.53,0.09-1.02,0.28-1.47c0.18-0.45,0.44-0.84,0.77-1.17c0.33-0.33,0.72-0.59,1.18-0.77
			c0.46-0.18,0.96-0.28,1.5-0.28c0.55,0,1.05,0.09,1.51,0.28c0.46,0.18,0.85,0.44,1.18,0.77c0.33,0.33,0.59,0.72,0.77,1.17
			C174.83,83.6,174.92,84.09,174.92,84.62z M173.85,84.62c0-0.39-0.06-0.76-0.19-1.1s-0.3-0.64-0.53-0.9
			c-0.23-0.25-0.51-0.46-0.84-0.61c-0.33-0.15-0.7-0.22-1.11-0.22c-0.41,0-0.78,0.07-1.1,0.22c-0.32,0.15-0.6,0.35-0.83,0.61
			c-0.23,0.25-0.41,0.55-0.53,0.9c-0.13,0.34-0.19,0.71-0.19,1.1c0,0.39,0.06,0.76,0.19,1.1c0.12,0.34,0.3,0.64,0.53,0.9
			c0.23,0.25,0.51,0.45,0.83,0.6c0.32,0.14,0.69,0.22,1.1,0.22c0.41,0,0.78-0.07,1.11-0.22c0.33-0.14,0.61-0.34,0.84-0.6
			c0.23-0.25,0.41-0.55,0.53-0.9C173.78,85.37,173.85,85,173.85,84.62z"/>
		<path class="st3" d="M177.77,81.92c-0.01-0.3-0.03-0.57-0.05-0.81h0.97c0.02,0.19,0.04,0.4,0.05,0.63s0.02,0.42,0.02,0.57h0.03
			c0.2-0.41,0.5-0.74,0.9-1c0.4-0.25,0.85-0.38,1.35-0.38c0.13,0,0.25,0,0.35,0.02c0.11,0.01,0.21,0.03,0.32,0.06l-0.14,0.97
			c-0.06-0.02-0.16-0.04-0.3-0.06c-0.14-0.02-0.28-0.03-0.42-0.03c-0.27,0-0.53,0.05-0.78,0.15c-0.25,0.1-0.47,0.26-0.65,0.47
			c-0.19,0.21-0.34,0.49-0.45,0.82c-0.12,0.33-0.17,0.73-0.17,1.2v3.59h-1.02v-5.47C177.79,82.46,177.78,82.22,177.77,81.92z"/>
		<path class="st3" d="M184.9,88.12h-1.02V76.8h1.02V88.12z"/>
		<path class="st3" d="M194.07,86.94c-0.3,0.45-0.69,0.79-1.17,1.02c-0.48,0.23-0.97,0.34-1.48,0.34c-0.55,0-1.05-0.1-1.49-0.29
			c-0.44-0.19-0.82-0.45-1.14-0.78c-0.31-0.33-0.56-0.72-0.73-1.17c-0.17-0.45-0.26-0.93-0.26-1.45c0-0.52,0.09-1,0.26-1.45
			c0.17-0.45,0.42-0.84,0.73-1.17c0.31-0.33,0.69-0.59,1.14-0.78c0.44-0.19,0.94-0.28,1.49-0.28c0.51,0,1,0.12,1.48,0.35
			c0.48,0.23,0.87,0.58,1.17,1.04h0.03V76.8h1.02v11.33h-1.02v-1.18H194.07z M188.87,84.62c0,0.39,0.06,0.76,0.18,1.1
			c0.12,0.34,0.29,0.64,0.52,0.9c0.22,0.25,0.5,0.45,0.83,0.6c0.33,0.14,0.7,0.22,1.12,0.22c0.39,0,0.75-0.07,1.08-0.22
			c0.33-0.14,0.61-0.34,0.85-0.59s0.43-0.55,0.56-0.89s0.2-0.72,0.2-1.12s-0.07-0.77-0.2-1.12c-0.13-0.34-0.32-0.64-0.56-0.9
			c-0.24-0.25-0.52-0.45-0.85-0.6c-0.33-0.14-0.69-0.22-1.08-0.22c-0.42,0-0.79,0.07-1.12,0.22c-0.33,0.15-0.61,0.35-0.83,0.61
			c-0.22,0.25-0.4,0.55-0.52,0.9S188.87,84.23,188.87,84.62z"/>
	</g>
</g>
</svg>
