<?xml version="1.0" encoding="utf-8"?>
<!-- Generator: Adobe Illustrator 24.3.0, SVG Export Plug-In . SVG Version: 6.00 Build 0)  -->
<svg version="1.1" id="Layer_1" xmlns="http://www.w3.org/2000/svg" xmlns:xlink="http://www.w3.org/1999/xlink" x="0px" y="0px"
	 viewBox="0 0 368 120" style="enable-background:new 0 0 368 120;" xml:space="preserve">
<style type="text/css">
	.st0{fill:none;}
	.st1{fill:#056AA8;}
	.st2{fill:#77BD43;}
	.st3{fill:#010101;}
</style>
<rect class="st0" width="368" height="120"/>
<g id="PURTEQ_logo">
	<g>
		<path class="st1" d="M302.77,93.74c0,0-7.84,10.42-7.84,16.91c0,4.88,3.51,8.27,7.84,8.27s7.84-2.77,7.84-8.27
			C310.61,104.16,302.77,93.74,302.77,93.74z M303.71,117.06c-0.52,0.22,0.95-0.43,3.09-4.84c1.83-3.78,0.73-6.41,0.73-6.41
			S311.75,113.66,303.71,117.06z"/>
		<g>
			<path class="st1" d="M58.5,83.74V50.71h28.25c2.62,0,4.53,0.51,5.7,1.52c1.18,1.01,1.76,2.64,1.76,4.89v7.38
				c0,2.24-0.58,3.85-1.76,4.86c-1.18,1.01-3.08,1.52-5.7,1.52H66.06v12.87H58.5z M83.34,56.43H66.06v8.75h17.29
				c1.33,0,2.25-0.2,2.73-0.58c0.48-0.39,0.74-1.07,0.74-2.05v-3.53c0-0.96-0.24-1.63-0.74-2.02
				C85.59,56.62,84.67,56.43,83.34,56.43z"/>
			<path class="st1" d="M107.83,50.71v26.81h21.91V50.71h7.65v25.23c0,3.02-0.56,5.08-1.68,6.18c-1.13,1.08-3.29,1.63-6.51,1.63
				h-20.88c-3.18,0-5.35-0.55-6.49-1.64s-1.71-3.15-1.71-6.18V50.71H107.83z"/>
			<path class="st1" d="M144.03,83.74V50.71h28.25c2.62,0,4.53,0.51,5.7,1.52c1.18,1.01,1.76,2.64,1.76,4.89v7.75
				c0,2.24-0.58,3.85-1.76,4.88c-1.18,1.02-3.08,1.53-5.7,1.53h-4.32l15.25,12.46h-11.03l-13.31-12.46h-7.28v12.46H144.03z
				 M168.88,56.43h-17.29v9.18h17.29c1.33,0,2.25-0.19,2.73-0.57s0.74-1.07,0.74-2.05v-3.96c0-0.96-0.24-1.63-0.74-2.02
				C171.12,56.62,170.21,56.43,168.88,56.43z"/>
			<path class="st2" d="M207.68,56.61v27.13h-7.69V56.61h-15.15v-5.9h38.07v5.9H207.68z"/>
			<path class="st2" d="M228.19,83.74V50.71h33.82v5.63h-26.13v7.38h15.25v5.63h-15.25v8.19h26.44v6.21H228.19z"/>
			<path class="st1" d="M285.94,76.28l-2.82-6.58l7.84-3.17l4.64,9.76h5.02v-15.9c-2.35-0.39-5.81,0.09-10.79,2.8
				c-5.43,2.96-9.49,2.65-12.06,1.79v11.31H285.94z"/>
			<path class="st2" d="M268.82,58.53c0-3.01,0.56-5.05,1.68-6.16s3.29-1.65,6.5-1.65h24.31c3.2,0,5.37,0.55,6.5,1.65
				c1.12,1.1,1.68,3.16,1.68,6.16v17.41c0,3.02-0.56,5.08-1.68,6.18c-1.12,1.09-3.29,1.64-6.5,1.64h-3.57l4.16,8.5h-7.63l-3.7-8.51
				h-13.57c-3.22,0-5.37-0.55-6.5-1.64c-1.12-1.09-1.68-3.15-1.68-6.18v-17.4H268.82z M276.52,77.52h11.31l-3.06-7.16l5.56-2.25
				l4.47,9.4h7.06V56.61h-25.34V77.52z"/>
		</g>
		<path class="st2" d="M311.42,50.72c0-0.36,0.07-0.7,0.21-1.01c0.14-0.32,0.33-0.59,0.56-0.83c0.24-0.23,0.52-0.42,0.84-0.56
			c0.32-0.14,0.66-0.21,1.01-0.21c0.36,0,0.69,0.07,1.01,0.21c0.32,0.14,0.59,0.32,0.84,0.56c0.24,0.23,0.43,0.51,0.56,0.83
			c0.14,0.32,0.21,0.66,0.21,1.01c0,0.35-0.07,0.69-0.21,1.01s-0.33,0.58-0.56,0.83c-0.24,0.23-0.52,0.42-0.84,0.55
			c-0.32,0.13-0.66,0.2-1.01,0.2c-0.36,0-0.7-0.07-1.01-0.2c-0.32-0.13-0.59-0.32-0.84-0.55c-0.24-0.23-0.43-0.51-0.56-0.83
			S311.42,51.09,311.42,50.72z M311.83,50.72c0,0.3,0.06,0.58,0.18,0.85c0.11,0.26,0.28,0.51,0.47,0.7c0.2,0.2,0.43,0.36,0.7,0.47
			c0.26,0.11,0.55,0.18,0.86,0.18s0.59-0.06,0.86-0.18c0.26-0.11,0.51-0.28,0.7-0.47c0.2-0.2,0.35-0.44,0.47-0.7
			c0.11-0.26,0.18-0.55,0.18-0.85c0-0.31-0.06-0.59-0.18-0.86c-0.11-0.26-0.28-0.51-0.47-0.7c-0.2-0.2-0.43-0.35-0.7-0.47
			c-0.26-0.11-0.55-0.18-0.86-0.18s-0.59,0.06-0.86,0.18c-0.26,0.11-0.51,0.28-0.7,0.47c-0.2,0.2-0.35,0.43-0.47,0.7
			C311.89,50.13,311.83,50.41,311.83,50.72z M313.01,49.24h1.04c0.14,0,0.28,0.01,0.41,0.04c0.13,0.03,0.24,0.08,0.35,0.15
			c0.11,0.08,0.19,0.15,0.24,0.26c0.07,0.11,0.09,0.24,0.09,0.41c0,0.22-0.07,0.39-0.19,0.52c-0.12,0.13-0.29,0.22-0.5,0.28
			l0.79,1.29h-0.64l-0.69-1.23h-0.37v1.23h-0.53L313.01,49.24L313.01,49.24z M313.97,50.52c0.15,0,0.3-0.03,0.44-0.09
			c0.14-0.06,0.21-0.18,0.21-0.35c0-0.17-0.07-0.26-0.19-0.32c-0.12-0.06-0.25-0.08-0.4-0.08h-0.48v0.84H313.97z"/>
	</g>
	<g>
		<path class="st3" d="M99.26,116.91h-1.3l5.04-11.68h1.16l5.01,11.68h-1.32l-1.29-3.07h-6.03L99.26,116.91z M100.98,112.76h5.14
			l-2.58-6.2L100.98,112.76z"/>
		<path class="st3" d="M121.69,110.95c-0.19-0.3-0.46-0.54-0.81-0.74c-0.35-0.19-0.75-0.29-1.17-0.29c-0.45,0-0.86,0.08-1.22,0.24
			c-0.36,0.15-0.67,0.37-0.94,0.66c-0.25,0.28-0.45,0.61-0.59,0.99c-0.14,0.37-0.21,0.79-0.21,1.23c0,0.44,0.07,0.85,0.21,1.22
			c0.14,0.37,0.33,0.7,0.58,0.98c0.25,0.28,0.56,0.5,0.92,0.66c0.36,0.15,0.77,0.24,1.22,0.24c0.5,0,0.91-0.1,1.26-0.28
			c0.34-0.19,0.62-0.43,0.84-0.73l0.84,0.63c-0.33,0.41-0.74,0.73-1.21,0.97c-0.47,0.24-1.06,0.36-1.73,0.36
			c-0.63,0-1.19-0.1-1.7-0.31c-0.51-0.2-0.94-0.48-1.3-0.85c-0.35-0.36-0.64-0.79-0.84-1.29c-0.2-0.5-0.3-1.04-0.3-1.62
			c0-0.58,0.1-1.12,0.3-1.62c0.2-0.5,0.47-0.92,0.84-1.29c0.35-0.36,0.79-0.65,1.3-0.85c0.51-0.2,1.07-0.31,1.7-0.31
			c0.52,0,1.05,0.11,1.57,0.34c0.53,0.22,0.97,0.56,1.3,1L121.69,110.95z"/>
		<path class="st3" d="M126.28,116.91h-1.12v-12.46h1.12V116.91z"/>
		<path class="st3" d="M137.05,112.83c0,0.08,0,0.15,0,0.24c0,0.09-0.01,0.18-0.02,0.28h-6.4c0.01,0.39,0.09,0.75,0.23,1.09
			c0.14,0.34,0.34,0.64,0.59,0.89s0.55,0.45,0.89,0.61c0.34,0.15,0.7,0.22,1.1,0.22c0.58,0,1.09-0.13,1.51-0.41
			c0.42-0.26,0.75-0.58,0.97-0.94l0.84,0.66c-0.46,0.58-0.97,1-1.53,1.26c-0.55,0.25-1.16,0.37-1.79,0.37c-0.57,0-1.1-0.1-1.6-0.31
			c-0.48-0.2-0.91-0.48-1.27-0.85c-0.35-0.36-0.63-0.79-0.84-1.29c-0.2-0.5-0.31-1.04-0.31-1.62c0-0.58,0.1-1.12,0.3-1.62
			c0.2-0.5,0.47-0.92,0.83-1.29c0.35-0.36,0.76-0.65,1.23-0.85s0.98-0.31,1.53-0.31c0.61,0,1.13,0.1,1.6,0.31
			c0.46,0.2,0.85,0.47,1.16,0.83c0.31,0.34,0.54,0.75,0.7,1.21C136.98,111.8,137.05,112.3,137.05,112.83z M135.92,112.46
			c-0.03-0.73-0.26-1.33-0.7-1.81c-0.44-0.47-1.06-0.72-1.86-0.72c-0.37,0-0.72,0.07-1.04,0.21c-0.32,0.14-0.59,0.32-0.84,0.56
			s-0.43,0.51-0.57,0.8c-0.14,0.3-0.22,0.62-0.25,0.95C130.66,112.46,135.92,112.46,135.92,112.46z"/>
		<path class="st3" d="M144.97,111.91c0-0.66-0.18-1.17-0.53-1.49c-0.35-0.33-0.86-0.5-1.53-0.5c-0.46,0-0.89,0.08-1.29,0.24
			c-0.4,0.17-0.73,0.39-1,0.66l-0.63-0.74c0.32-0.32,0.74-0.58,1.27-0.79c0.52-0.21,1.11-0.31,1.77-0.31c0.42,0,0.8,0.06,1.17,0.18
			c0.36,0.11,0.68,0.29,0.96,0.52c0.28,0.23,0.48,0.52,0.64,0.87s0.23,0.76,0.23,1.23v3.38c0,0.3,0.01,0.61,0.03,0.92
			s0.06,0.58,0.1,0.8h-1c-0.03-0.19-0.06-0.39-0.08-0.61c-0.02-0.22-0.03-0.43-0.03-0.64h-0.03c-0.35,0.52-0.75,0.89-1.2,1.11
			c-0.44,0.22-0.98,0.34-1.61,0.34c-0.3,0-0.61-0.04-0.91-0.12c-0.31-0.09-0.59-0.22-0.86-0.41c-0.25-0.19-0.47-0.43-0.64-0.73
			c-0.18-0.3-0.25-0.66-0.25-1.09c0-0.59,0.15-1.07,0.45-1.42s0.7-0.61,1.21-0.78c0.51-0.18,1.09-0.29,1.74-0.33
			c0.65-0.04,1.33-0.08,2.04-0.08v-0.24H144.97z M144.64,113.06c-0.46,0-0.92,0.02-1.4,0.06c-0.46,0.04-0.89,0.11-1.27,0.23
			c-0.37,0.12-0.69,0.29-0.94,0.51c-0.24,0.22-0.36,0.51-0.36,0.87c0,0.28,0.06,0.51,0.15,0.69c0.1,0.19,0.24,0.34,0.42,0.45
			c0.18,0.12,0.37,0.2,0.58,0.24s0.43,0.08,0.65,0.08c0.4,0,0.75-0.07,1.06-0.21c0.31-0.14,0.56-0.32,0.77-0.56
			c0.21-0.23,0.36-0.51,0.47-0.81s0.17-0.63,0.17-0.97v-0.57C144.95,113.06,144.64,113.06,144.64,113.06z"/>
		<path class="st3" d="M150.66,109.19c0.02,0.21,0.04,0.44,0.06,0.69c0.01,0.25,0.02,0.46,0.02,0.63h0.03
			c0.22-0.45,0.57-0.81,1.07-1.1c0.5-0.28,1.01-0.42,1.56-0.42c0.98,0,1.72,0.29,2.2,0.87c0.48,0.58,0.74,1.35,0.74,2.31v4.73h-1.12
			v-4.27c0-0.41-0.03-0.77-0.1-1.1c-0.07-0.33-0.18-0.62-0.34-0.85c-0.15-0.24-0.37-0.42-0.64-0.55c-0.28-0.13-0.61-0.2-1.01-0.2
			c-0.3,0-0.58,0.06-0.87,0.18c-0.29,0.12-0.53,0.31-0.75,0.55c-0.22,0.24-0.4,0.56-0.53,0.94c-0.13,0.37-0.2,0.83-0.2,1.34v3.96
			h-1.12v-6.02c0-0.21-0.01-0.47-0.02-0.8c-0.01-0.33-0.03-0.63-0.04-0.89C149.6,109.19,150.66,109.19,150.66,109.19z"/>
		<path class="st3" d="M167,112.83c0,0.08,0,0.15,0,0.24c0,0.09-0.01,0.18-0.02,0.28h-6.4c0.01,0.39,0.09,0.75,0.23,1.09
			c0.14,0.34,0.34,0.64,0.59,0.89s0.55,0.45,0.89,0.61c0.34,0.15,0.7,0.22,1.1,0.22c0.58,0,1.09-0.13,1.51-0.41
			c0.42-0.26,0.75-0.58,0.97-0.94l0.84,0.66c-0.46,0.58-0.97,1-1.53,1.26c-0.55,0.25-1.16,0.37-1.79,0.37c-0.57,0-1.1-0.1-1.6-0.31
			c-0.48-0.2-0.91-0.48-1.27-0.85c-0.35-0.36-0.63-0.79-0.84-1.29c-0.2-0.5-0.31-1.04-0.31-1.62c0-0.58,0.1-1.12,0.3-1.62
			s0.47-0.92,0.83-1.29c0.35-0.36,0.76-0.65,1.23-0.85s0.98-0.31,1.53-0.31c0.61,0,1.13,0.1,1.6,0.31c0.46,0.2,0.85,0.47,1.16,0.83
			c0.31,0.34,0.54,0.75,0.7,1.21C166.93,111.8,167,112.3,167,112.83z M165.87,112.46c-0.03-0.73-0.26-1.33-0.7-1.81
			c-0.44-0.47-1.06-0.72-1.86-0.72c-0.37,0-0.72,0.07-1.04,0.21c-0.32,0.14-0.59,0.32-0.84,0.56s-0.43,0.51-0.57,0.8
			c-0.14,0.3-0.22,0.62-0.25,0.95C160.61,112.46,165.87,112.46,165.87,112.46z"/>
		<path class="st3" d="M170.14,110.08c-0.01-0.33-0.03-0.63-0.06-0.89h1.07c0.02,0.21,0.04,0.44,0.06,0.69
			c0.01,0.25,0.02,0.46,0.02,0.63h0.03c0.22-0.45,0.55-0.81,0.99-1.1c0.44-0.28,0.94-0.42,1.49-0.42c0.14,0,0.28,0,0.39,0.02
			c0.12,0.01,0.23,0.03,0.35,0.07l-0.15,1.07c-0.07-0.02-0.18-0.04-0.33-0.07s-0.31-0.03-0.46-0.03c-0.3,0-0.58,0.06-0.86,0.17
			c-0.28,0.11-0.52,0.29-0.72,0.52c-0.21,0.23-0.37,0.54-0.5,0.9c-0.13,0.36-0.19,0.8-0.19,1.32v3.95h-1.12v-6.02
			C170.15,110.68,170.15,110.41,170.14,110.08z"/>
		<path class="st3" d="M176.24,119.22h-0.94l1.1-3.88h1.17L176.24,119.22z"/>
		<path class="st3" d="M189.56,111.02c-0.17-0.32-0.42-0.58-0.75-0.78c-0.33-0.2-0.72-0.31-1.15-0.31c-0.2,0-0.4,0.02-0.59,0.07
			s-0.37,0.12-0.53,0.21c-0.15,0.1-0.28,0.22-0.37,0.37c-0.1,0.15-0.14,0.33-0.14,0.54c0,0.36,0.14,0.64,0.44,0.84
			c0.3,0.2,0.76,0.35,1.4,0.48c0.91,0.19,1.59,0.46,2.02,0.81c0.43,0.35,0.65,0.84,0.65,1.44c0,0.44-0.09,0.81-0.25,1.11
			c-0.18,0.3-0.4,0.55-0.67,0.74c-0.28,0.2-0.58,0.33-0.94,0.41c-0.35,0.08-0.69,0.12-1.05,0.12c-0.58,0-1.15-0.12-1.7-0.36
			c-0.55-0.24-1-0.62-1.35-1.13l0.89-0.66c0.2,0.34,0.48,0.63,0.87,0.86c0.39,0.23,0.8,0.34,1.27,0.34c0.24,0,0.47-0.02,0.69-0.07
			c0.22-0.04,0.41-0.12,0.57-0.23s0.3-0.25,0.4-0.42c0.1-0.17,0.14-0.39,0.14-0.64c0-0.41-0.2-0.72-0.58-0.91
			c-0.39-0.2-0.96-0.4-1.7-0.57c-0.23-0.06-0.47-0.12-0.74-0.21c-0.25-0.08-0.5-0.2-0.72-0.36c-0.22-0.15-0.4-0.36-0.54-0.61
			s-0.22-0.54-0.22-0.9c0-0.4,0.08-0.74,0.23-1.01c0.15-0.28,0.36-0.51,0.62-0.69c0.25-0.19,0.55-0.32,0.88-0.41
			c0.33-0.09,0.67-0.13,1.02-0.13c0.54,0,1.06,0.12,1.56,0.36s0.88,0.58,1.13,1.02L189.56,111.02z"/>
		<path class="st3" d="M198.38,111.91c0-0.66-0.18-1.17-0.53-1.49c-0.35-0.33-0.86-0.5-1.53-0.5c-0.46,0-0.89,0.08-1.29,0.24
			s-0.73,0.39-1,0.66l-0.63-0.74c0.32-0.32,0.74-0.58,1.27-0.79c0.52-0.21,1.11-0.31,1.77-0.31c0.42,0,0.8,0.06,1.17,0.18
			c0.36,0.11,0.68,0.29,0.96,0.52c0.28,0.23,0.48,0.52,0.64,0.87c0.15,0.35,0.23,0.76,0.23,1.23v3.38c0,0.3,0.01,0.61,0.03,0.92
			c0.02,0.32,0.06,0.58,0.1,0.8h-1c-0.03-0.19-0.06-0.39-0.09-0.61c-0.02-0.22-0.03-0.43-0.03-0.64h-0.03
			c-0.35,0.52-0.75,0.89-1.2,1.11c-0.44,0.22-0.98,0.34-1.61,0.34c-0.3,0-0.61-0.04-0.91-0.12c-0.31-0.09-0.59-0.22-0.86-0.41
			c-0.26-0.19-0.47-0.43-0.64-0.73c-0.17-0.3-0.25-0.66-0.25-1.09c0-0.59,0.15-1.07,0.45-1.42c0.3-0.35,0.7-0.61,1.21-0.78
			c0.51-0.18,1.09-0.29,1.74-0.33c0.65-0.04,1.33-0.08,2.04-0.08V111.91z M198.04,113.06c-0.46,0-0.92,0.02-1.4,0.06
			c-0.46,0.04-0.89,0.11-1.27,0.23s-0.69,0.29-0.94,0.51c-0.24,0.22-0.36,0.51-0.36,0.87c0,0.28,0.06,0.51,0.15,0.69
			c0.1,0.19,0.24,0.34,0.42,0.45c0.18,0.12,0.37,0.2,0.58,0.24c0.22,0.04,0.43,0.08,0.65,0.08c0.4,0,0.75-0.07,1.06-0.21
			c0.31-0.14,0.56-0.32,0.77-0.56c0.21-0.23,0.36-0.51,0.47-0.81c0.11-0.31,0.17-0.63,0.17-0.97v-0.57
			C198.35,113.06,198.04,113.06,198.04,113.06z"/>
		<path class="st3" d="M206.33,110.13h-1.82v6.78h-1.12v-6.78h-1.62v-0.94h1.62v-2.11c0-0.88,0.21-1.57,0.64-2.08
			c0.43-0.51,1.09-0.76,1.98-0.76c0.14,0,0.3,0.01,0.46,0.02c0.17,0.02,0.32,0.04,0.46,0.09l-0.2,0.99
			c-0.12-0.03-0.24-0.06-0.36-0.08s-0.25-0.03-0.42-0.03c-0.3,0-0.54,0.06-0.74,0.14c-0.2,0.1-0.34,0.24-0.44,0.42
			c-0.1,0.18-0.18,0.4-0.21,0.64c-0.04,0.24-0.06,0.5-0.06,0.77v1.98h1.82V110.13z"/>
		<path class="st3" d="M215.7,112.83c0,0.08,0,0.15,0,0.24c0,0.09-0.01,0.18-0.02,0.28h-6.4c0.01,0.39,0.09,0.75,0.23,1.09
			c0.14,0.34,0.34,0.64,0.59,0.89s0.55,0.45,0.89,0.61c0.34,0.15,0.7,0.22,1.1,0.22c0.58,0,1.09-0.13,1.51-0.41
			c0.42-0.26,0.75-0.58,0.97-0.94l0.84,0.66c-0.46,0.58-0.97,1-1.53,1.26c-0.55,0.25-1.16,0.37-1.79,0.37c-0.57,0-1.1-0.1-1.6-0.31
			c-0.48-0.2-0.91-0.48-1.27-0.85c-0.35-0.36-0.63-0.79-0.84-1.29c-0.2-0.5-0.31-1.04-0.31-1.62c0-0.58,0.1-1.12,0.3-1.62
			c0.2-0.5,0.47-0.92,0.83-1.29c0.35-0.36,0.76-0.65,1.23-0.85c0.47-0.2,0.98-0.31,1.53-0.31c0.61,0,1.13,0.1,1.6,0.31
			c0.46,0.2,0.85,0.47,1.16,0.83c0.31,0.34,0.54,0.75,0.7,1.21C215.62,111.8,215.7,112.3,215.7,112.83z M214.56,112.46
			c-0.03-0.73-0.26-1.33-0.7-1.81c-0.43-0.47-1.06-0.72-1.86-0.72c-0.37,0-0.72,0.07-1.04,0.21c-0.32,0.14-0.59,0.32-0.84,0.56
			s-0.43,0.51-0.57,0.8c-0.14,0.3-0.22,0.62-0.25,0.95C209.3,112.46,214.56,112.46,214.56,112.46z"/>
		<path class="st3" d="M218.83,110.08c-0.01-0.33-0.03-0.63-0.06-0.89h1.07c0.02,0.21,0.04,0.44,0.06,0.69
			c0.01,0.25,0.02,0.46,0.02,0.63h0.03c0.22-0.45,0.55-0.81,0.99-1.1c0.44-0.28,0.94-0.42,1.49-0.42c0.14,0,0.28,0,0.39,0.02
			c0.12,0.01,0.23,0.03,0.35,0.07l-0.15,1.07c-0.07-0.02-0.18-0.04-0.33-0.07s-0.31-0.03-0.46-0.03c-0.3,0-0.58,0.06-0.86,0.17
			c-0.28,0.11-0.52,0.29-0.72,0.52c-0.21,0.23-0.37,0.54-0.5,0.9c-0.13,0.36-0.19,0.8-0.19,1.32v3.95h-1.12v-6.02
			C218.84,110.68,218.84,110.41,218.83,110.08z"/>
		<path class="st3" d="M230.54,109.19l1.86,6.27h0.03l2.08-6.27h1.09l2.11,6.27h0.03l1.85-6.27h1.19l-2.44,7.72h-1.22l-2.06-6.25
			h-0.03l-2.03,6.25h-1.22l-2.44-7.72H230.54z"/>
		<path class="st3" d="M251.11,113.06c0,0.58-0.1,1.12-0.31,1.62c-0.2,0.5-0.48,0.92-0.85,1.29s-0.79,0.65-1.3,0.85
			c-0.51,0.2-1.06,0.31-1.66,0.31c-0.59,0-1.15-0.1-1.65-0.31c-0.51-0.2-0.94-0.48-1.3-0.85c-0.36-0.36-0.65-0.79-0.85-1.29
			c-0.2-0.5-0.31-1.04-0.31-1.62c0-0.58,0.1-1.12,0.31-1.62c0.2-0.5,0.48-0.92,0.85-1.29s0.79-0.65,1.3-0.85
			c0.51-0.2,1.06-0.31,1.65-0.31c0.61,0,1.16,0.1,1.66,0.31c0.51,0.2,0.94,0.48,1.3,0.85c0.36,0.36,0.65,0.79,0.85,1.29
			C251.01,111.93,251.11,112.47,251.11,113.06z M249.93,113.06c0-0.43-0.07-0.84-0.21-1.21c-0.14-0.37-0.33-0.7-0.58-0.99
			c-0.25-0.28-0.56-0.51-0.92-0.67s-0.77-0.24-1.22-0.24s-0.86,0.08-1.21,0.24c-0.35,0.17-0.66,0.39-0.91,0.67
			c-0.25,0.28-0.45,0.61-0.58,0.99c-0.14,0.37-0.21,0.78-0.21,1.21s0.07,0.84,0.21,1.21c0.13,0.37,0.33,0.7,0.58,0.99
			c0.25,0.28,0.56,0.5,0.91,0.66c0.35,0.15,0.76,0.24,1.21,0.24s0.86-0.08,1.22-0.24c0.36-0.15,0.67-0.37,0.92-0.66
			c0.25-0.28,0.45-0.61,0.58-0.99S249.93,113.47,249.93,113.06z"/>
		<path class="st3" d="M254.25,110.08c-0.01-0.33-0.03-0.63-0.06-0.89h1.07c0.02,0.21,0.04,0.44,0.06,0.69
			c0.01,0.25,0.02,0.46,0.02,0.63h0.03c0.22-0.45,0.55-0.81,0.99-1.1c0.44-0.28,0.94-0.42,1.49-0.42c0.14,0,0.28,0,0.39,0.02
			c0.12,0.01,0.23,0.03,0.35,0.07l-0.15,1.07c-0.07-0.02-0.18-0.04-0.33-0.07c-0.15-0.02-0.31-0.03-0.46-0.03
			c-0.3,0-0.58,0.06-0.86,0.17c-0.28,0.11-0.52,0.29-0.72,0.52c-0.21,0.23-0.37,0.54-0.5,0.9c-0.13,0.36-0.19,0.8-0.19,1.32v3.95
			h-1.12v-6.02C254.27,110.68,254.26,110.41,254.25,110.08z"/>
		<path class="st3" d="M262.1,116.91h-1.12v-12.46h1.12V116.91z"/>
		<path class="st3" d="M272.19,115.61c-0.33,0.5-0.76,0.87-1.29,1.12s-1.07,0.37-1.63,0.37c-0.61,0-1.16-0.11-1.64-0.32
			c-0.48-0.21-0.9-0.5-1.26-0.86c-0.34-0.36-0.62-0.79-0.8-1.29c-0.19-0.5-0.29-1.02-0.29-1.6s0.1-1.1,0.29-1.6
			c0.19-0.5,0.46-0.92,0.8-1.29s0.76-0.65,1.26-0.86c0.48-0.21,1.04-0.31,1.64-0.31c0.56,0,1.1,0.13,1.63,0.39
			c0.53,0.25,0.96,0.64,1.29,1.15h0.03v-6.08h1.12v12.48h-1.12v-1.3h-0.03V115.61z M266.47,113.06c0,0.43,0.07,0.84,0.2,1.21
			c0.13,0.37,0.32,0.7,0.57,0.99c0.24,0.28,0.55,0.5,0.91,0.66c0.36,0.15,0.77,0.24,1.23,0.24c0.43,0,0.83-0.08,1.19-0.24
			c0.36-0.15,0.67-0.37,0.94-0.65c0.26-0.28,0.47-0.61,0.62-0.98c0.14-0.37,0.22-0.79,0.22-1.23c0-0.44-0.08-0.85-0.22-1.23
			c-0.14-0.37-0.35-0.7-0.62-0.99c-0.26-0.28-0.57-0.5-0.94-0.66c-0.36-0.15-0.76-0.24-1.19-0.24c-0.46,0-0.87,0.08-1.23,0.24
			s-0.67,0.39-0.91,0.67c-0.24,0.28-0.44,0.61-0.57,0.99C266.53,112.22,266.47,112.63,266.47,113.06z"/>
	</g>
</g>
</svg>
